<?xml version="1.0" encoding="UTF-8" standalone="no"?>
<!-- Created with Inkscape (http://www.inkscape.org/) -->

<svg
   width="210mm"
   height="297mm"
   viewBox="0 0 210 297"
   version="1.1"
   id="svg5"
   sodipodi:docname="Design Rücktseite Nur Design.svg"
   inkscape:version="1.1.2 (b8e25be8, 2022-02-05)"
   xmlns:inkscape="http://www.inkscape.org/namespaces/inkscape"
   xmlns:sodipodi="http://sodipodi.sourceforge.net/DTD/sodipodi-0.dtd"
   xmlns="http://www.w3.org/2000/svg"
   xmlns:svg="http://www.w3.org/2000/svg">
  <sodipodi:namedview
     id="namedview7"
     pagecolor="#ffffff"
     bordercolor="#666666"
     borderopacity="1.0"
     inkscape:pageshadow="2"
     inkscape:pageopacity="0.0"
     inkscape:pagecheckerboard="0"
     inkscape:document-units="mm"
     showgrid="false"
     inkscape:zoom="0.64052329"
     inkscape:cx="61.668328"
     inkscape:cy="579.99452"
     inkscape:window-width="1383"
     inkscape:window-height="969"
     inkscape:window-x="0"
     inkscape:window-y="25"
     inkscape:window-maximized="0"
     inkscape:current-layer="layer1" />
  <defs
     id="defs2" />
  <g
     inkscape:label="Ebene 1"
     inkscape:groupmode="layer"
     id="layer1">
    <g
       id="g12"
       transform="matrix(0.03899996,0,0,-0.03843788,-48.743859,345.05969)">
      <path
         d="m 2778.4,2554.58 c -29.15,0 -53.46,22.9 -54.89,52.32 -1.48,30.35 21.92,56.14 52.26,57.6 l 1096.78,53.34 c 30.39,1.59 56.13,-21.9 57.61,-52.25 1.47,-30.33 -21.93,-56.13 -52.26,-57.6 l -1096.79,-53.34 c -0.9,-0.06 -1.81,-0.07 -2.71,-0.07"
         style="fill:#211b19;fill-opacity:1;fill-rule:nonzero;stroke:none"
         id="path14" />
      <path
         d="m 2757.78,2337.92 c -17.96,0 -33.24,13.74 -34.83,31.96 -1.67,19.25 12.58,36.24 31.84,37.91 l 1117.4,97.22 c 19.26,1.73 36.23,-12.57 37.9,-31.83 1.68,-19.25 -12.57,-36.22 -31.83,-37.9 l -1117.41,-97.23 c -1.03,-0.09 -2.05,-0.13 -3.07,-0.13"
         style="fill:#211b19;fill-opacity:1;fill-rule:nonzero;stroke:none"
         id="path16" />
      <path
         d="m 2757.78,2171.56 c -17.96,0 -33.24,13.73 -34.83,31.96 -1.67,19.27 12.58,36.24 31.84,37.91 l 1117.4,97.23 c 19.26,1.68 36.23,-12.57 37.9,-31.84 1.68,-19.26 -12.57,-36.23 -31.83,-37.91 l -1117.41,-97.23 c -1.03,-0.09 -2.05,-0.12 -3.07,-0.12"
         style="fill:#211b19;fill-opacity:1;fill-rule:nonzero;stroke:none"
         id="path18" />
      <path
         d="m 2757.78,2005.21 c -17.96,0 -33.24,13.74 -34.83,31.96 -1.67,19.26 12.58,36.23 31.84,37.91 l 1117.4,97.22 c 19.26,1.65 36.23,-12.58 37.9,-31.84 1.68,-19.25 -12.57,-36.22 -31.83,-37.91 l -1117.41,-97.22 c -1.03,-0.08 -2.05,-0.12 -3.07,-0.12"
         style="fill:#211b19;fill-opacity:1;fill-rule:nonzero;stroke:none"
         id="path20" />
      <path
         d="m 2757.78,1838.85 c -17.96,0 -33.24,13.74 -34.83,31.95 -1.67,19.26 12.58,36.24 31.84,37.91 l 1117.4,97.23 c 19.26,1.7 36.23,-12.57 37.9,-31.84 1.68,-19.25 -12.57,-36.22 -31.83,-37.9 l -1117.41,-97.23 c -1.03,-0.09 -2.05,-0.12 -3.07,-0.12"
         style="fill:#211b19;fill-opacity:1;fill-rule:nonzero;stroke:none"
         id="path22" />
      <path
         d="m 2965.74,1626.25 c 0,0 64.5,-74.5 103.33,-113.33 38.83,-38.83 63.73,-92.17 84.35,-93.05 20.6,-0.9 48.13,0 118.06,0 69.94,0 159.77,2.44 174.72,7.32 14.95,4.89 59.6,64.51 96.21,105.73 40.84,45.99 103.26,120.05 103.26,120.05 0,0 -205.51,-12.5 -329.15,-18.39 -124.09,-5.93 -350.78,-8.33 -350.78,-8.33"
         style="fill:#211b19;fill-opacity:1;fill-rule:nonzero;stroke:none"
         id="path24" />
      <path
         d="m 2247.08,3737.38 c -28.95,0 -52.5,23.55 -52.5,52.5 0,28.95 23.55,52.5 52.5,52.5 28.96,0 52.5,-23.55 52.5,-52.5 0,-28.95 -23.54,-52.5 -52.5,-52.5 z m -67.49,418.33 c 0,31.71 25.79,57.5 57.5,57.5 31.71,0 57.5,-25.79 57.5,-57.5 0,-31.7 -25.79,-57.5 -57.5,-57.5 -31.71,0 -57.5,25.8 -57.5,57.5 z m 153.23,-110.72 c 0,18.47 15.02,33.5 33.5,33.5 18.47,0 33.49,-15.03 33.49,-33.5 0,-18.47 -15.02,-33.5 -33.49,-33.5 -18.48,0 -33.5,15.03 -33.5,33.5 z m 160.16,-33.5 c -18.48,0 -33.5,15.03 -33.5,33.5 0,18.47 15.02,33.5 33.5,33.5 18.47,0 33.49,-15.03 33.49,-33.5 0,-18.47 -15.02,-33.5 -33.49,-33.5 z m 491.66,-730.84 c -18.47,0 -33.5,15.03 -33.5,33.5 0,18.47 15.03,33.5 33.5,33.5 18.48,0 33.49,-15.03 33.49,-33.5 0,-18.47 -15.01,-33.5 -33.49,-33.5 z m -563.36,305.89 h 181.71 l 139.52,-139.53 v -152.96 c 0,-5.29 2.11,-10.38 5.86,-14.13 l 386.63,-386.63 -0.03,-57.87 c 12.51,0 25.88,0 40.01,0 l 0.03,66.14 c 0,5.32 -2.11,10.4 -5.86,14.15 l -42.73,42.73 v 223.94 c 0,2.66 -1.06,5.2 -2.93,7.08 l -94.63,94.63 c 5.84,8.58 9.27,18.92 9.27,30.06 0,29.5 -23.99,53.5 -53.49,53.5 -29.49,0 -53.5,-24 -53.5,-53.5 0,-29.5 24.01,-53.5 53.5,-53.5 11.15,0 21.49,3.44 30.08,9.3 l 91.7,-91.71 v -199.8 l -323.91,323.91 v 152.95 c 0,5.3 -2.11,10.39 -5.86,14.14 l -52.3,52.31 v 294.17 c 0,2.66 -1.06,5.2 -2.93,7.08 l -187.72,187.71 c 7.85,9.31 12.77,21.17 12.77,34.28 0,29.5 -24,53.5 -53.49,53.5 -29.5,0 -53.5,-24 -53.5,-53.5 0,-29.5 24,-53.5 53.5,-53.5 9.12,0 17.58,2.51 25.11,6.55 l 186.26,-186.26 v -270.03 l -16.66,16.67 v 217.5 c 0,2.66 -1.06,5.2 -2.93,7.08 l -168.34,168.33 c -1.88,1.88 -4.43,2.93 -7.07,2.93 h -90.86 l -39.06,39.05 c 23.14,5.89 40.38,26.73 40.38,51.68 0,29.5 -24,53.5 -53.49,53.5 -29.5,0 -53.5,-24 -53.5,-53.5 0,-26.26 19.05,-48.05 44.03,-52.55 v -0.68 c 0,-2.65 1.05,-5.2 2.93,-7.07 l 47.5,-47.5 c 1.87,-1.88 4.41,-2.93 7.07,-2.93 h 90.86 l 162.48,-162.48 v -193.36 l -17.07,17.06 v 160.34 c 0,2.65 -1.06,5.2 -2.93,7.07 l -136.25,136.25 c -1.88,1.88 -4.42,2.93 -7.07,2.93 h -109.61 l -147.27,147.27 v 19.55 c 43.36,5.17 77.1,42.1 77.1,86.82 0,48.25 -39.25,87.5 -87.5,87.5 -48.25,0 -87.5,-39.25 -87.5,-87.5 0,-45 34.16,-82.14 77.9,-86.94 v -23.57 c 0,-2.65 1.05,-5.2 2.93,-7.07 L 2383.54,3885 c 1.88,-1.87 4.43,-2.93 7.08,-2.93 h 109.6 l 130.4,-130.39 v -136.2 l -5.2,5.2 c -3.75,3.75 -8.85,5.86 -14.14,5.86 h -181.72 l -108.3,108.31 c 11.45,15.4 18.32,34.4 18.32,55.03 0,51.01 -41.48,92.5 -92.5,92.5 -51,0 -92.5,-41.49 -92.5,-92.5 0,-51.01 41.5,-92.5 92.5,-92.5 15.9,0 30.88,4.03 43.96,11.13 l 116.1,-116.11 c 3.75,-3.75 8.83,-5.86 14.14,-5.86"
         style="fill:#211b19;fill-opacity:1;fill-rule:nonzero;stroke:none"
         id="path26" />
      <path
         d="m 4158.74,4677.38 c -28.95,0 -52.5,23.55 -52.5,52.5 0,28.95 23.55,52.5 52.5,52.5 28.95,0 52.5,-23.55 52.5,-52.5 0,-28.95 -23.55,-52.5 -52.5,-52.5 z m -328.53,-879.79 c 0,-28.95 -23.56,-52.5 -52.5,-52.5 -28.95,0 -52.5,23.55 -52.5,52.5 0,28.95 23.55,52.5 52.5,52.5 28.94,0 52.5,-23.55 52.5,-52.5 z m -369.59,-476.04 c -28.95,0 -52.5,23.55 -52.5,52.5 0,28.95 23.55,52.5 52.5,52.5 28.94,0 52.5,-23.55 52.5,-52.5 0,-28.95 -23.56,-52.5 -52.5,-52.5 z m -356.02,397.99 c -31.44,0 -57.01,25.57 -57.01,57 0,31.43 25.57,57 57.01,57 31.43,0 56.99,-25.57 56.99,-57 0,-31.43 -25.56,-57 -56.99,-57 z m -245.02,262.01 c 0,28.95 23.55,52.5 52.5,52.5 28.96,0 52.5,-23.55 52.5,-52.5 0,-28.95 -23.54,-52.5 -52.5,-52.5 -28.95,0 -52.5,23.55 -52.5,52.5 z m -515.82,530.83 c -28.96,0 -52.5,23.55 -52.5,52.5 0,28.95 23.54,52.5 52.5,52.5 28.95,0 52.5,-23.55 52.5,-52.5 0,-28.95 -23.55,-52.5 -52.5,-52.5 z m 286.5,-39.9 c 0,18.47 15.02,33.5 33.5,33.5 18.47,0 33.5,-15.03 33.5,-33.5 0,-18.47 -15.03,-33.49 -33.5,-33.49 -18.48,0 -33.5,15.02 -33.5,33.49 z m 548.34,-194.27 c 0,18.48 15.02,33.51 33.5,33.51 18.47,0 33.5,-15.03 33.5,-33.51 0,-18.47 -15.03,-33.5 -33.5,-33.5 -18.48,0 -33.5,15.03 -33.5,33.5 z m -147.85,286.67 c 0,20.95 17.05,38 38.01,38 20.95,0 37.99,-17.05 37.99,-38 0,-20.95 -17.04,-38 -37.99,-38 -20.96,0 -38.01,17.05 -38.01,38 z m -212.15,470 c 0,18.47 15.02,33.5 33.5,33.5 18.47,0 33.5,-15.03 33.5,-33.5 0,-18.47 -15.03,-33.5 -33.5,-33.5 -18.48,0 -33.5,15.03 -33.5,33.5 z m -224.84,-203.5 c -18.48,0 -33.5,15.03 -33.5,33.5 0,18.47 15.02,33.5 33.5,33.5 18.47,0 33.5,-15.03 33.5,-33.5 0,-18.47 -15.03,-33.5 -33.5,-33.5 z m 396.66,-14.66 c 18.48,0 33.5,-15.03 33.5,-33.51 0,-18.47 -15.02,-33.5 -33.5,-33.5 -18.47,0 -33.5,15.03 -33.5,33.5 0,18.48 15.03,33.51 33.5,33.51 z m 254.16,154.82 c 0,28.96 23.55,52.5 52.5,52.5 28.95,0 52.5,-23.54 52.5,-52.5 0,-28.95 -23.55,-52.5 -52.5,-52.5 -28.95,0 -52.5,23.55 -52.5,52.5 z m -198.83,138.34 c 0,26.47 21.54,48 48.01,48 26.46,0 47.99,-21.53 47.99,-48 0,-26.46 -21.53,-48 -47.99,-48 -26.47,0 -48.01,21.54 -48.01,48 z m 501.84,-16.67 c 0,31.43 25.57,57 57.01,57 31.43,0 56.99,-25.57 56.99,-57 0,-31.44 -25.56,-57.01 -56.99,-57.01 -31.44,0 -57.01,25.57 -57.01,57.01 z M 3380.26,3779.88 c 0,18.47 15.03,33.5 33.5,33.5 18.47,0 33.5,-15.03 33.5,-33.5 0,-18.47 -15.03,-33.5 -33.5,-33.5 -18.47,0 -33.5,15.03 -33.5,33.5 z m 78.13,92.5 c 0,18.47 15.03,33.5 33.49,33.5 18.47,0 33.5,-15.03 33.5,-33.5 0,-18.47 -15.03,-33.5 -33.5,-33.5 -18.46,0 -33.49,15.03 -33.49,33.5 z m 117.09,597.5 c 0,18.47 15.03,33.5 33.49,33.5 18.47,0 33.5,-15.03 33.5,-33.5 0,-18.47 -15.03,-33.5 -33.5,-33.5 -18.46,0 -33.49,15.03 -33.49,33.5 z M 3693.97,4687 c -18.46,0 -33.49,15.03 -33.49,33.5 0,18.48 15.03,33.51 33.49,33.51 18.47,0 33.5,-15.03 33.5,-33.51 0,-18.47 -15.03,-33.5 -33.5,-33.5 z m 106.51,109.13 c 0,18.47 15.03,33.5 33.49,33.5 18.47,0 33.5,-15.03 33.5,-33.5 0,-18.47 -15.03,-33.5 -33.5,-33.5 -18.46,0 -33.49,15.03 -33.49,33.5 z m 111.62,-87.75 c 18.47,0 33.5,-15.03 33.5,-33.5 0,-18.47 -15.03,-33.5 -33.5,-33.5 -18.47,0 -33.5,15.03 -33.5,33.5 0,18.47 15.03,33.5 33.5,33.5 z m 246.64,114 c -51.01,0 -92.5,-41.49 -92.5,-92.5 0,-8.28 1.19,-16.27 3.24,-23.91 l -79.24,-79.23 c -3.75,-3.75 -5.86,-8.84 -5.86,-14.15 v -175.05 l -224.06,-224.07 c -3.8,-3.8 -5.91,-8.96 -5.86,-14.33 l 0.46,-46.18 -52,52 v 69.22 l 177.91,177.91 c 1.88,1.87 2.93,4.42 2.93,7.07 v 170.52 c 8.24,-5.18 17.91,-8.3 28.34,-8.3 29.5,0 53.5,24 53.5,53.5 0,29.5 -24,53.5 -53.5,53.5 -29.5,0 -53.5,-24 -53.5,-53.5 0,-10.06 2.96,-19.37 7.81,-27.42 -1.65,-1.83 -2.65,-4.16 -2.65,-6.64 V 4463.3 l -177.91,-177.91 c -1.88,-1.88 -2.93,-4.42 -2.93,-7.07 v -77.5 c 0,-2.65 1.05,-5.2 2.93,-7.07 l 69.35,-69.35 0.63,-64.12 -137.91,137.9 v 61.33 l 0.53,-0.52 222.38,222.15 c 1.88,1.88 2.93,4.42 2.93,7.08 v 255.4 c 24.83,4.62 43.71,26.36 43.71,52.51 0,29.5 -23.99,53.5 -53.5,53.5 -29.5,0 -53.49,-24 -53.49,-53.5 0,-26.01 18.66,-47.68 43.28,-52.47 v -251.29 l -205.84,-205.63 v 34.94 l 180.82,180.82 c 1.88,1.87 2.93,4.42 2.93,7.07 v 121.25 c 0,2.65 -1.05,5.19 -2.93,7.07 l -56.87,56.87 c -0.29,0.28 -0.65,0.39 -0.95,0.63 4.04,7.53 6.55,15.99 6.55,25.11 0,29.51 -23.99,53.51 -53.5,53.51 -29.5,0 -53.49,-24 -53.49,-53.51 0,-29.5 23.99,-53.5 53.49,-53.5 13.19,0 25.12,4.98 34.46,12.92 l 53.24,-53.24 v -112.97 l -163.75,-163.75 v 67.32 c 25.23,4.29 44.55,26.16 44.55,52.6 0,29.5 -23.99,53.5 -53.5,53.5 -29.5,0 -53.49,-24 -53.49,-53.5 0,-25.71 18.23,-47.21 42.44,-52.32 v -223.52 c 0,-2.65 1.05,-5.2 2.93,-7.07 l 155.26,-155.25 1.42,-143.91 c -41.33,-9.24 -72.32,-46.14 -72.32,-90.22 0,-43.64 30.42,-80.23 71.15,-89.91 v -13.72 l -243.59,-243.58 c -14.86,10.18 -32.82,16.17 -52.15,16.17 -51.01,0 -92.5,-41.49 -92.5,-92.5 0,-44.12 31.06,-81.06 72.46,-90.25 v -130.63 l -105.57,-105.58 v 411.9 l 163.32,163.32 c 1.88,1.87 2.93,4.42 2.93,7.07 v 189.95 c 25.03,4.45 44.12,26.26 44.12,52.55 0,29.5 -23.99,53.5 -53.5,53.5 -29.5,0 -53.49,-24 -53.49,-53.5 0,-25.86 18.45,-47.49 42.87,-52.43 v -185.93 l -146.25,-146.25 v 43.49 l 85.82,85.82 c 1.88,1.88 2.93,4.42 2.93,7.07 v 103.24 c 24.73,4.71 43.5,26.41 43.5,52.49 0,29.5 -24,53.5 -53.5,53.5 -29.5,0 -53.5,-24 -53.5,-53.5 0,-26.08 18.77,-47.78 43.5,-52.49 v -99.1 l -68.75,-68.75 v 427.91 l 125.23,125.24 c 5.63,5.63 8.79,13.26 8.79,21.21 v 497.17 l 162.6,162.6 c 5.63,5.62 8.79,13.26 8.79,21.21 v 166.98 c 47.03,15.17 81.17,59.33 81.17,111.35 0,64.51 -52.48,117 -116.99,117 -64.52,0 -117.01,-52.49 -117.01,-117 0,-56.23 39.88,-103.29 92.83,-114.46 v -151.44 l -162.6,-162.61 c -5.62,-5.62 -8.79,-13.25 -8.79,-21.21 v -280.6 l -87.77,87.78 v 431.69 c 39.3,10.67 68.32,46.56 68.32,89.18 0,51.01 -41.49,92.5 -92.5,92.5 -51,0 -92.5,-41.49 -92.5,-92.5 0,-45.6 33.2,-83.5 76.68,-91.04 v -201.9 l -175,174.99 v 189.49 c 31.53,5.9 55.49,33.58 55.49,66.8 0,37.5 -30.5,68 -67.99,68 -37.5,0 -68.01,-30.5 -68.01,-68 0,-31.44 21.48,-57.88 50.51,-65.63 v -196.87 c 0,-3.98 1.58,-7.79 4.39,-10.61 l 200.61,-200.6 v -193.79 c 0,-5.3 2.11,-10.39 5.86,-14.14 l 121.91,-121.91 v -160 L 3283.8,4021.09 c -5.63,-5.62 -8.79,-13.26 -8.79,-21.21 v -33.89 l -55.84,56.1 c 1.81,1.81 2.93,4.3 2.93,7.06 v 196.57 c 24.73,4.71 43.5,26.42 43.5,52.49 0,29.51 -24.01,53.51 -53.5,53.51 -29.5,0 -53.5,-24 -53.5,-53.51 0,-26.07 18.77,-47.78 43.5,-52.49 v -186.47 l -110.84,111.39 v 339.58 c 32.06,9.68 55.49,39.47 55.49,74.66 0,43.01 -34.98,78 -77.99,78 -43.01,0 -78.01,-34.99 -78.01,-78 0,-36.98 25.91,-67.97 60.51,-75.95 V 4280.9 l -144.47,144.47 v 254.64 l 57.05,57.06 c 7.87,-4.55 16.86,-7.36 26.58,-7.36 29.5,0 53.5,24 53.5,53.5 0,29.51 -24,53.51 -53.5,53.51 -29.49,0 -53.5,-24 -53.5,-53.51 0,-12.52 4.52,-23.9 11.75,-33.03 l -58.95,-58.96 c -1.88,-1.88 -2.93,-4.42 -2.93,-7.07 v -238.78 l -23.66,23.65 v 513.53 c 24.21,5.1 42.47,26.61 42.47,52.33 0,29.5 -24.01,53.5 -53.5,53.5 -29.5,0 -53.5,-24 -53.5,-53.5 0,-26.43 19.3,-48.3 44.53,-52.59 v -428.38 l -46.05,46.05 v 82.52 c 0,2.65 -1.05,5.2 -2.93,7.07 l -152.3,152.32 c 3.36,6.99 5.41,14.74 5.41,23.01 0,29.5 -24.01,53.5 -53.5,53.5 -29.5,0 -53.5,-24 -53.5,-53.5 0,-29.5 24,-53.5 53.5,-53.5 13.93,0 26.52,5.48 36.05,14.24 l 147.27,-147.28 v -82.52 c 0,-2.65 1.05,-5.2 2.93,-7.07 l 58.34,-58.33 4.78,4.78 v -70.32 c 0,-2.65 1.06,-5.2 2.93,-7.07 l 205.2,-205.19 v -110.24 c 0,-5.29 2.09,-10.36 5.82,-14.11 l 217.93,-218.99 v -633.07 l -91.09,91.1 v 317.57 c 0,1.83 -0.21,3.64 -0.53,5.41 23.41,21.42 38.2,52.1 38.2,86.25 0,64.52 -52.48,117 -116.99,117 -64.52,0 -117.01,-52.48 -117.01,-117 0,-64.52 52.49,-117 117.01,-117 6.59,0 13.02,0.68 19.32,1.73 v -189.78 l -201.68,201.68 v 216.47 c 46.25,5.07 82.34,44.34 82.34,91.91 0,47.63 -36.17,86.93 -82.5,91.94 v 56.39 c 0,2.65 -1.05,5.2 -2.93,7.07 l -241.58,241.58 v 42.49 c 22.78,6.14 39.69,26.77 39.69,51.46 0,29.5 -24.01,53.5 -53.5,53.5 -29.5,0 -53.5,-24 -53.5,-53.5 0,-27.38 20.76,-49.76 47.31,-52.87 v -45.22 c 0,-2.65 1.05,-5.19 2.93,-7.07 l 241.58,-241.58 v -52.25 c -30.2,-3.27 -56.05,-21.15 -70.41,-46.4 l -86.93,86.93 c -3.75,3.76 -8.85,5.86 -14.14,5.86 h -102.73 l -107.78,107.79 v 175.55 c 0,5.3 -2.11,10.39 -5.86,14.14 l -94.67,94.66 c 10.49,15 16.7,33.21 16.7,52.86 0,51.01 -41.5,92.5 -92.5,92.5 -51.02,0 -92.5,-41.49 -92.5,-92.5 0,-51.01 41.48,-92.5 92.5,-92.5 16.87,0 32.68,4.62 46.31,12.56 l 90.02,-90.01 v -175.55 c 0,-5.3 2.11,-10.39 5.86,-14.14 l 119.49,-119.5 c 3.75,-3.75 8.85,-5.86 14.14,-5.86 h 102.72 l 97.34,-97.32 c 0,-0.34 -0.06,-0.67 -0.06,-1.01 0,-40.56 26.27,-75.01 62.66,-87.47 v -229.2 c 0,-5.3 2.11,-10.39 5.86,-14.14 l 235.82,-235.82 v -60.04 c 0,-7.95 3.16,-15.59 8.79,-21.21 l 142.3,-142.3 v -355.95 c 19.68,0 39.77,0 60,0 v 155.59 l 139.71,139.71 c 3.75,3.75 5.86,8.85 5.86,14.16 v 138.89 c 41.43,9.16 72.54,46.13 72.54,90.28 0,17.21 -4.81,33.27 -13.03,47.08 l 250.41,250.4 c 3.75,3.75 5.86,8.84 5.86,14.14 v 21.31 c 42.1,8.66 73.85,46 73.85,90.61 0,44.2 -31.18,81.21 -72.68,90.31 l -2.99,303.23 223.99,223.98 c 3.75,3.75 5.85,8.84 5.85,14.14 v 175.06 l 64.8,64.79 c 16.97,-19.39 41.83,-31.72 69.56,-31.72 51.01,0 92.5,41.49 92.5,92.5 0,51.01 -41.49,92.5 -92.5,92.5"
         style="fill:#211b19;fill-opacity:1;fill-rule:nonzero;stroke:none"
         id="path28" />
      <path
         d="m 4425.89,3688.88 c -18.47,0 -33.5,15.03 -33.5,33.5 0,18.47 15.03,33.5 33.5,33.5 18.47,0 33.49,-15.03 33.49,-33.5 0,-18.47 -15.02,-33.5 -33.49,-33.5 z m -433.79,313.51 c -28.95,0 -52.5,23.55 -52.5,52.5 0,28.95 23.55,52.5 52.5,52.5 28.94,0 52.5,-23.55 52.5,-52.5 0,-28.95 -23.56,-52.5 -52.5,-52.5 z m 377.66,-344.84 c 18.46,0 33.49,-15.03 33.49,-33.5 0,-18.47 -15.03,-33.5 -33.49,-33.5 -18.47,0 -33.5,15.03 -33.5,33.5 0,18.47 15.03,33.5 33.5,33.5 z m -81.45,-97.5 c 18.47,0 33.5,-15.03 33.5,-33.51 0,-18.47 -15.03,-33.5 -33.5,-33.5 -18.47,0 -33.5,15.03 -33.5,33.5 0,18.48 15.03,33.51 33.5,33.51 z m -79.55,968.34 c 18.47,0 33.5,-15.03 33.5,-33.51 0,-18.47 -15.03,-33.5 -33.5,-33.5 -18.47,0 -33.5,15.03 -33.5,33.5 0,18.48 15.03,33.51 33.5,33.51 z m -94.16,-203.34 c 18.47,0 33.5,-15.03 33.5,-33.5 0,-18.47 -15.03,-33.5 -33.5,-33.5 -18.47,0 -33.5,15.03 -33.5,33.5 0,18.47 15.03,33.5 33.5,33.5 z m 255.82,73.99 c 31.71,0 57.5,-25.8 57.5,-57.5 0,-31.7 -25.79,-57.5 -57.5,-57.5 -31.71,0 -57.5,25.8 -57.5,57.5 0,31.7 25.79,57.5 57.5,57.5 z m 36.68,-394.49 c 23.7,0 42.99,-19.29 42.99,-43 0,-23.71 -19.29,-43 -42.99,-43 -23.71,0 -43.01,19.29 -43.01,43 0,23.71 19.3,43 43.01,43 z m 18.79,-228.67 c -29.5,0 -53.5,-24 -53.5,-53.5 0,-4.13 0.58,-8.11 1.47,-11.98 H 4263.8 c -2.66,0 -5.2,-1.05 -7.07,-2.93 l -90.82,-90.82 h -138.4 v 38.93 l 153.46,153.46 h 73.79 c 3.97,0 7.79,1.58 10.6,4.39 l 93.49,93.49 c 12.88,-11.39 29.74,-18.37 48.25,-18.37 40.24,0 72.99,32.75 72.99,73 0,40.25 -32.75,73 -72.99,73 -40.25,0 -73.01,-32.75 -73.01,-73 0,-10.82 2.43,-21.05 6.67,-30.29 l -92.22,-92.22 h -59.6 v 319.63 l 120.36,120.37 c 15.79,-15.44 37.34,-25 61.12,-25 48.25,0 87.5,39.25 87.5,87.5 0,48.25 -39.25,87.5 -87.5,87.5 -48.25,0 -87.5,-39.25 -87.5,-87.5 0,-13.54 3.18,-26.31 8.69,-37.76 l -128.28,-128.29 c -2.81,-2.82 -4.39,-6.63 -4.39,-10.61 v -335.45 l -88.68,-88.67 v 186.9 l 49.44,49.42 c 1.87,1.88 2.93,4.42 2.93,7.07 v 137.5 c 0,2.65 -1.06,5.2 -2.93,7.07 l -65.69,65.68 v 25.61 l 28.77,28.78 c 8.92,-6.66 19.87,-10.74 31.82,-10.74 29.5,0 53.5,24 53.5,53.5 0,29.5 -24,53.5 -53.5,53.5 -29.5,0 -53.5,-24 -53.5,-53.5 0,-10.31 3.07,-19.85 8.14,-28.03 l -32.3,-32.3 c -1.87,-1.87 -2.93,-4.42 -2.93,-7.07 v -33.89 c 0,-2.66 1.06,-5.2 2.93,-7.07 l 65.69,-65.68 v -129.22 l -49.44,-49.42 c -1.87,-1.88 -2.93,-4.42 -2.93,-7.07 V 3720.76 L 4027.51,3698 v 271.46 c 33.48,13.94 57.09,46.96 57.09,85.43 0,45.23 -32.65,82.91 -75.61,90.88 v 156.44 l 158.75,158.75 c 9.82,-11.85 24.46,-19.58 41.02,-19.58 29.5,0 53.5,24 53.5,53.5 0,29.51 -24,53.51 -53.5,53.51 -29.5,0 -53.5,-24 -53.5,-53.51 0,-5.44 1.06,-10.59 2.58,-15.54 l -165.92,-165.92 c -1.87,-1.87 -2.93,-4.41 -2.93,-7.07 v -159.12 c -49.56,-1.66 -89.39,-42.38 -89.39,-92.34 0,-49.46 39.04,-89.85 87.91,-92.27 v -394.74 l -300.53,-300.54 c -3.75,-3.75 -5.86,-8.83 -5.86,-14.13 v -93.92 l -240.25,-240.26 c -3.75,-3.75 -5.86,-8.83 -5.86,-14.15 v -69.46 c 13.58,0 26.94,0 40,0 v 61.18 l 240.25,240.26 c 3.75,3.75 5.86,8.83 5.86,14.14 v 93.91 l 170.07,170.08 h 167.96 c 2.66,0 5.2,1.05 7.07,2.93 l 89.57,89.57 h 82.69 c 7.71,-20.09 27.06,-34.45 49.83,-34.45 29.5,0 53.5,24 53.5,53.5 0,29.51 -24,53.51 -53.5,53.51 -29.18,0 -52.88,-23.51 -53.4,-52.56 h -83.26 c -2.66,0 -5.19,-1.06 -7.07,-2.93 l -89.57,-89.57 h -143.82 l 110.46,110.47 c 1.57,1.56 2.77,3.4 3.73,5.36 h 190.22 c 2.65,0 5.19,1.05 7.07,2.93 l 62.07,62.07 h 32.35 c 3.99,-25.58 25.99,-45.27 52.67,-45.27 29.5,0 53.49,24 53.49,53.5 0,29.5 -23.99,53.5 -53.49,53.5 -25.45,0 -46.71,-17.89 -52.1,-41.73 h -37.06 c -2.66,0 -5.2,-1.06 -7.07,-2.93 l -62.07,-62.07 h -183.95 v 25.83 h 142.54 c 2.66,0 5.19,1.06 7.07,2.93 l 90.82,90.82 h 115.32 c 9.77,-12.99 25.16,-21.52 42.63,-21.52 29.5,0 53.49,24 53.49,53.5 0,29.5 -23.99,53.5 -53.49,53.5"
         style="fill:#211b19;fill-opacity:1;fill-rule:nonzero;stroke:none"
         id="path30" />
      <path
         d="m 2374.02,3309.79 c -31.85,0 -57.76,25.92 -57.76,57.77 0,31.86 25.91,57.77 57.76,57.77 31.86,0 57.78,-25.91 57.78,-57.77 0,-31.85 -25.92,-57.77 -57.78,-57.77 z m 374.11,-474.37 h 30 v 139.38 c 0,3.96 -1.58,7.79 -4.39,10.59 l -329.6,329.6 c 11.04,14.68 17.66,32.84 17.66,52.57 0,48.39 -39.38,87.77 -87.78,87.77 -48.39,0 -87.76,-39.38 -87.76,-87.77 0,-48.39 39.37,-87.76 87.76,-87.76 17.86,0 34.46,5.38 48.33,14.57 l 325.78,-325.78 v -133.17"
         style="fill:#211b19;fill-opacity:1;fill-rule:nonzero;stroke:none"
         id="path32" />
      <path
         d="m 2560.19,3407.83 c 0,17.92 14.58,32.5 32.5,32.5 17.92,0 32.5,-14.58 32.5,-32.5 0,-17.92 -14.58,-32.5 -32.5,-32.5 -17.92,0 -32.5,14.58 -32.5,32.5 z m 354.4,-572.41 h 30 v 106.66 c 0,3.97 -1.58,7.8 -4.39,10.6 l -332.51,332.52 v 57.72 c 0,1.44 -0.28,2.81 -0.66,4.14 27.56,6.51 48.16,31.25 48.16,60.77 0,34.46 -28.04,62.5 -62.5,62.5 -34.47,0 -62.5,-28.04 -62.5,-62.5 0,-29.52 20.58,-54.26 48.14,-60.77 -0.38,-1.33 -0.64,-2.7 -0.64,-4.14 v -63.93 c 0,-3.99 1.58,-7.8 4.39,-10.61 l 332.51,-332.51 v -100.45"
         style="fill:#211b19;fill-opacity:1;fill-rule:nonzero;stroke:none"
         id="path34" />
      <path
         d="m 3864.2,3244.18 c 0,16.09 13.09,29.16 29.17,29.16 16.07,0 29.16,-13.07 29.16,-29.16 0,-16.08 -13.09,-29.17 -29.16,-29.17 -16.08,0 -29.17,13.09 -29.17,29.17 z m -170.44,-332.47 210.2,210.21 c 2.82,2.8 4.4,6.63 4.4,10.59 v 54.5 c 25.37,6.66 44.17,29.74 44.17,57.17 0,32.62 -26.54,59.16 -59.16,59.16 -32.63,0 -59.17,-26.54 -59.17,-59.16 0,-27.42 18.79,-50.49 44.16,-57.17 v -48.28 l -210.21,-210.21 c -2.81,-2.81 -4.39,-6.63 -4.39,-10.6 v -82.5 h 30 v 76.29"
         style="fill:#211b19;fill-opacity:1;fill-rule:nonzero;stroke:none"
         id="path36" />
      <path
         d="m 4101.55,3307.42 c 0,25.39 20.66,46.03 46.04,46.03 25.38,0 46.02,-20.64 46.02,-46.03 0,-25.38 -20.64,-46.03 -46.02,-46.03 -25.38,0 -46.04,20.65 -46.04,46.03 z m -219.46,-374.05 264.07,264.08 c 2.81,2.81 4.4,6.63 4.4,10.6 v 23.49 c 40.54,1.58 73.05,34.97 73.05,75.88 0,41.93 -34.1,76.03 -76.02,76.03 -41.93,0 -76.04,-34.1 -76.04,-76.03 0,-32.39 20.4,-60.04 49.01,-70.97 v -22.19 l -264.08,-264.08 c -2.81,-2.8 -4.39,-6.63 -4.39,-10.6 v -104.16 h 30 v 97.95"
         style="fill:#211b19;fill-opacity:1;fill-rule:nonzero;stroke:none"
         id="path38" />
    </g>
  </g>
</svg>
