<?xml version="1.0" encoding="UTF-8" standalone="no"?>
<svg
   xmlns:dc="http://purl.org/dc/elements/1.1/"
   xmlns:cc="http://creativecommons.org/ns#"
   xmlns:rdf="http://www.w3.org/1999/02/22-rdf-syntax-ns#"
   xmlns:svg="http://www.w3.org/2000/svg"
   xmlns="http://www.w3.org/2000/svg"
   viewBox="0 0 479.25333 670.71997"
   height="670.71997"
   width="479.25333"
   xml:space="preserve"
   id="svg2"
   version="1.1"><metadata
     id="metadata8"><rdf:RDF><cc:Work
         rdf:about=""><dc:format>image/svg+xml</dc:format><dc:type
           rdf:resource="http://purl.org/dc/dcmitype/StillImage" /></cc:Work></rdf:RDF></metadata><defs
     id="defs6" /><g
     transform="matrix(1.3333333,0,0,-1.3333333,0,670.72)"
     id="g10"><g
       transform="scale(0.1)"
       id="g12"><path
         id="path14"
         style="fill:#050606;fill-opacity:1;fill-rule:nonzero;stroke:none"
         d="m 3485.02,2681.58 c 31.11,83.1 55.5,167.9 73.31,253.6 -28.4,-347.8 -140,-689.7 -337.81,-977.5 -117.6,-171.1 -263,-321.7 -430.39,-444.6 -84.61,-62.1 -174.8,-116.6 -269.5,-161.9 -46.7,-22.4 -94.5,-42.7 -143,-60.8 -45.91,-17 -93.9,-30 -137.4,-52.9 -43.11,-22.6 -77.21,-54.2 -84,-104.6 -1.61,-11.4 -2.3,-23 -2.41,-34.7 l -19.69,0.2 c 0,13.2 -7.2,25.9 -23.8,30.1 -6.91,1.7 -13.7,3.4 -20.6,5 1.99,21.6 6.7,42.9 16,63.4 18.3,40.5 52.6,71.1 90.59,92.8 39.81,22.7 83.81,37.2 126.91,52.1 47.6,16.5 94.4,35 140.19,56.1 375.31,172.7 675.61,484.4 849.91,857.3 38.39,82.1 70.89,167.3 97.4,254.4 27.4,55.8 52.29,113.2 74.29,172" /><path
         id="path16"
         style="fill:#fbe664;fill-opacity:1;fill-rule:nonzero;stroke:none"
         d="m 3454.03,3541.88 c 73.6,-337.6 58.3,-699.7 -43.3,-1032.3 -155.6,-318.5 -392.5,-586.9 -656.91,-788.5 -264.89,-201.9 -574.39,-353.8 -889.49,-393.1 -30.2,166.7 -67.61,332.1 -112,495.6 45.19,132.9 90.69,265.5 138.59,397.4 65.4,179.8 136.51,358.3 176.6,545.9 27.21,127.4 68.91,341.8 -89.6,403.4 -75.59,29.3 -164.59,-2.4 -220.49,-56.8 -49.01,-47.8 -75.4,-111.9 -94.2,-177.3 -58.1,95.9 -120.9,197.4 -248.4,186.4 -64.2,-5.6 -117.71,-45.5 -127.1,-111.7 -11.7,-81.6 24.9,-174.1 54.2,-248.7 32.2,-81.8 69.7,-161.4 103.2,-242.7 34.49,-83.6 67.1,-168.1 97.79,-253.2 52.21,-145 98.8,-292.1 139.71,-440.8 -11.31,-33.3 -22.61,-66.6 -33.9,-99.9 -44.2,-130.4 -88.4,-260.8 -134.51,-390.5 -707.497,133.7 -1026.49,1023 -1107.896,1773.5 -38.594,355.4 -15.402,727.7 110.606,1061.8 15.097,17.6 30.8,34.9 46.797,51.9 290.3,308 685.893,508 1102.593,574.7 427.21,68.4 886.31,-4.3 1225.61,-286.1 293.8,-244.1 481.49,-599 562.1,-969" /><path
         id="path18"
         style="fill:#ffffff;fill-opacity:1;fill-rule:nonzero;stroke:none"
         d="m 3410.73,2509.58 c -26.51,-87.1 -59.01,-172.3 -97.4,-254.4 -174.3,-372.9 -474.6,-684.6 -849.91,-857.3 -45.79,-21.1 -92.59,-39.6 -140.19,-56.1 -43.1,-14.9 -87.1,-29.4 -126.91,-52.1 -37.99,-21.7 -72.29,-52.3 -90.59,-92.8 -9.3,-20.5 -14.01,-41.8 -16,-63.4 -65.91,16 -132.4,29.3 -199.21,39.9 -8,51.7 -16.7,103.2 -26.19,154.6 315.1,39.3 624.6,191.2 889.49,393.1 264.41,201.6 501.31,470 656.91,788.5" /><path
         id="path20"
         style="fill:#050606;fill-opacity:1;fill-rule:nonzero;stroke:none"
         d="m 2190.73,640.379 c 1.3,-17.699 -9.41,-36.899 -32.2,-37.598 -10.51,-0.301 -20.9,-0.601 -31.41,-0.801 -0.8,12.602 -1.7,24.602 -2.29,35.602 -0.61,10.398 -1.2,20.797 -1.91,31.199 11.91,0.199 23.71,0.5 35.61,0.899 20.2,0.601 30.9,-13.801 32.2,-29.301" /><path
         id="path22"
         style="fill:#050606;fill-opacity:1;fill-rule:nonzero;stroke:none"
         d="m 2175.92,865.879 c 6.81,-75 13.11,-150.301 16.51,-225.399 l -1.7,-0.101 c -1.3,15.5 -12,29.902 -32.2,29.301 -11.9,-0.399 -23.7,-0.7 -35.61,-0.899 -3.19,53.5 -6.89,106.899 -11.09,160.199 10.1,0 20.2,0 30.29,0.102 22.9,0.098 33.61,18.996 32.21,36.699 l 1.59,0.098" /><path
         id="path24"
         style="fill:#050606;fill-opacity:1;fill-rule:nonzero;stroke:none"
         d="m 2174.33,865.781 c 1.4,-17.703 -9.31,-36.601 -32.21,-36.699 -10.09,-0.102 -20.19,-0.102 -30.29,-0.102 -1.81,22.301 -3.6,44.5 -5.51,66.801 11.91,0 23.91,0 35.8,0.098 20.21,0.101 30.9,-14.5 32.21,-30.098" /><path
         id="path26"
         style="fill:#050606;fill-opacity:1;fill-rule:nonzero;stroke:none"
         d="m 2153.82,1098.18 c -0.49,-50.7 10.4,-103.899 14.91,-152.899 2.4,-26.402 4.9,-52.902 7.19,-79.402 l -1.59,-0.098 c -1.31,15.598 -12,30.199 -32.21,30.098 -11.89,-0.098 -23.89,-0.098 -35.8,-0.098 -3.8,43.899 -7.9,87.801 -12.29,131.699 -1.2,12.3 -2.5,24.6 -3.61,37 0.71,-0.1 1.51,-0.3 2.21,-0.5 25.1,-6.3 41.5,14.6 41.5,34.4 l 19.69,-0.2" /><path
         id="path28"
         style="fill:#050606;fill-opacity:1;fill-rule:nonzero;stroke:none"
         d="m 2124.83,637.582 c 0.59,-11 1.49,-23 2.29,-35.602 -343.09,-9.601 -686.7,-1.199 -1029.1,24.801 -5.79,0.5 -10.9,2.098 -15.1,4.598 1.61,20.402 3,40.902 4.01,61.402 3.3,0.899 7,1.199 11.09,0.899 341.01,-26 683.11,-34.301 1024.9,-24.899 0.71,-10.402 1.3,-20.801 1.91,-31.199" /><path
         id="path30"
         style="fill:#f2576a;fill-opacity:1;fill-rule:nonzero;stroke:none"
         d="m 2111.83,828.98 c 4.2,-53.3 7.9,-106.699 11.09,-160.199 -341.79,-9.402 -683.89,-1.101 -1024.9,24.899 -4.09,0.3 -7.79,0 -11.09,-0.899 3.3,61.199 4.5,122.797 5.59,184.199 338.8,-32.699 679.01,-48.8 1019.31,-48" /><path
         id="path32"
         style="fill:#050606;fill-opacity:1;fill-rule:nonzero;stroke:none"
         d="m 2134.13,1098.38 c 0,-19.8 -16.4,-40.7 -41.5,-34.4 -0.7,0.2 -1.5,0.4 -2.21,0.5 -1.89,23.1 -2.79,46.2 -0.69,69 6.9,-1.6 13.69,-3.3 20.6,-5 16.6,-4.2 23.8,-16.9 23.8,-30.1" /><path
         id="path34"
         style="fill:#050606;fill-opacity:1;fill-rule:nonzero;stroke:none"
         d="m 2111.83,828.98 c -340.3,-0.8 -680.51,15.301 -1019.31,48 0.4,22.301 0.81,44.5 1.41,66.7 336.49,-32.5 674.3,-48.5 1012.39,-47.899 1.91,-22.301 3.7,-44.5 5.51,-66.801" /><path
         id="path36"
         style="fill:#f2981a;fill-opacity:1;fill-rule:nonzero;stroke:none"
         d="m 2106.32,895.781 c -338.09,-0.601 -675.9,15.399 -1012.39,47.899 0.2,12.601 0.5,25.101 0.8,37.601 1.19,43.099 3.6,86.999 3.1,130.599 130.5,19.8 262.4,29.2 394.2,28.3 118.3,-0.8 236.7,-9.9 353.8,-27.3 82.19,-12 163.9,-28.2 244.59,-48.4 1.11,-12.4 2.41,-24.7 3.61,-37 4.39,-43.898 8.49,-87.8 12.29,-131.699" /><path
         id="path38"
         style="fill:#050606;fill-opacity:1;fill-rule:nonzero;stroke:none"
         d="m 1977.92,3170.28 c 158.51,-61.6 116.81,-276 89.6,-403.4 -40.09,-187.6 -111.2,-366.1 -176.6,-545.9 -47.9,-131.9 -93.4,-264.5 -138.59,-397.4 -10.1,37.8 -20.8,75.5 -31.81,113.1 31.31,91.6 63.01,183 95.8,274 58.81,163 123.51,324.3 167.31,492.3 20.3,78.1 40.19,159.7 43.09,240.7 2.01,57.4 -5.89,132.2 -64.29,160.8 -57.81,28.3 -129.3,-4.9 -168.4,-49.6 -45.4,-51.7 -64.1,-121.4 -79.9,-187.6 l -8.9,2.1 c -14.31,20.8 -28,43.7 -42,66.8 18.8,65.4 45.19,129.5 94.2,177.3 55.9,54.4 144.9,86.1 220.49,56.8" /><path
         id="path40"
         style="fill:#fbe664;fill-opacity:1;fill-rule:nonzero;stroke:none"
         d="m 1962.43,3104.48 c 58.4,-28.6 66.3,-103.4 64.29,-160.8 -2.9,-81 -22.79,-162.6 -43.09,-240.7 -43.8,-168 -108.5,-329.3 -167.31,-492.3 -32.79,-91 -64.49,-182.4 -95.8,-274 -19.49,66.8 -40.1,133.3 -61.99,199.4 -51.2,154.7 -108.91,307.2 -172.4,457.3 -32.4,76.4 -68.3,151.5 -95.9,229.8 -12.4,35.3 -23.11,71.2 -30.7,107.9 -6.61,32.5 -16.3,76.9 9.2,103.9 36.29,38.5 108.3,21.4 145.09,-7.1 54.01,-41.6 82.9,-109.6 118.01,-168 5.1,-8.3 10.2,-16.5 15.6,-24.3 15.4,-22.3 54.1,-21.8 61.1,8 1.8,7.8 3.7,15.7 5.6,23.7 15.8,66.2 34.5,135.9 79.9,187.6 39.1,44.7 110.59,77.9 168.4,49.6" /><path
         id="path42"
         style="fill:#050606;fill-opacity:1;fill-rule:nonzero;stroke:none"
         d="m 1878.82,304.379 c 6.41,42.402 70.8,24.301 64.51,-17.797 -0.2,-1.004 -0.31,-2 -0.41,-3.102 -22.4,-0.402 -44.79,0.301 -67,0.899 1.01,6.703 1.91,13.301 2.9,20" /><path
         id="path44"
         style="fill:#050606;fill-opacity:1;fill-rule:nonzero;stroke:none"
         d="m 1875.92,284.379 c 22.21,-0.598 44.6,-1.301 67,-0.899 -11.79,-79.898 -16.49,-179.3 -76.39,-240.1987 -48.61,-49.40239 -123.9,-43.699269 -187.4,-42.402394 -41.9,0.902344 -83.61,4.000004 -125.5,4.800784 -33.21,0.69922 -66.7,1.10156 -99.41,7.80081 -140.59,29.1992 -119.2,187.6015 -155.69,292.9995 23.99,-4.5 48.4,-7.8 72.6,-10.199 12.8,-53.902 13.2,-111 34.29,-162.601 27.91,-68.3011 100.81,-59.3987 163,-61.3987 47.71,-1.6016 95.21,-4.6993 143.01,-5 29.89,-0.1993 65.1,-3 92.5,11.6992 33.8,18.1992 45.8,64.3985 54.2,98.8985 8.5,35 12.9,70.801 17.79,106.5" /><path
         id="path46"
         style="fill:#050606;fill-opacity:1;fill-rule:nonzero;stroke:none"
         d="m 1890.52,1173.38 c 66.81,-10.6 133.3,-23.9 199.21,-39.9 -2.1,-22.8 -1.2,-45.9 0.69,-69 -80.69,20.2 -162.4,36.4 -244.59,48.4 l 2.7,18.8 c 20.4,-3 46.2,14.2 41.99,41.6 v 0.1" /><path
         id="path48"
         style="fill:#050606;fill-opacity:1;fill-rule:nonzero;stroke:none"
         d="m 1890.52,1173.28 c 4.21,-27.4 -21.59,-44.6 -41.99,-41.6 -10.9,1.7 -20.2,9 -22.5,23.8 -1.41,9.3 -2.9,18.7 -4.5,28 23.09,-2.9 46.1,-6.3 68.99,-10.1 v -0.1" /><path
         id="path50"
         style="fill:#050606;fill-opacity:1;fill-rule:nonzero;stroke:none"
         d="m 1840.52,285.281 c 42.4,0 42.21,66.301 -0.59,66.801 69.9,-1 152.19,-13.301 217.1,19.398 79.2,39.801 75.49,147.899 70.09,230.5 10.51,0.2 20.9,0.5 31.41,0.801 22.79,0.699 33.5,19.899 32.2,37.598 l 1.7,0.101 c 1.3,-26.699 2.19,-53.3 2.7,-79.902 1.59,-95.797 -16.4,-206.797 -112.9,-250.898 -44,-20.098 -91.4,-25.5 -139.31,-26.2 0.1,1.102 0.21,2.098 0.41,3.102 6.29,42.098 -58.1,60.199 -64.51,17.797 -0.99,-6.699 -1.89,-13.297 -2.9,-20 -11.89,0.402 -23.69,0.703 -35.4,0.902" /><path
         id="path52"
         style="fill:#050606;fill-opacity:1;fill-rule:nonzero;stroke:none"
         d="m 1864.33,1327.98 c 9.49,-51.4 18.19,-102.9 26.19,-154.6 -22.89,3.8 -45.9,7.2 -68.99,10.1 -7.31,46 -15.1,92 -23.61,137.8 22.21,1.6 44.31,3.8 66.41,6.7" /><path
         id="path54"
         style="fill:#a661b7;fill-opacity:1;fill-rule:nonzero;stroke:none"
         d="m 1840.52,285.281 c 11.71,-0.199 23.51,-0.5 35.4,-0.902 -4.89,-35.699 -9.29,-71.5 -17.79,-106.5 -8.4,-34.5 -20.4,-80.6993 -54.2,-98.8985 -27.4,-14.6992 -62.61,-11.8985 -92.5,-11.6992 -47.8,0.3007 -95.3,3.3984 -143.01,5 -62.19,2 -135.09,-6.9024 -163,61.3987 -21.09,51.601 -21.49,108.699 -34.29,162.601 30.9,-3.203 61.7,-5.301 91.39,-7.101 125.5,-7.7 251.7,-2.301 377.41,-3.899 0.2,0 0.4,0 0.59,0" /><path
         id="path56"
         style="fill:#050606;fill-opacity:1;fill-rule:nonzero;stroke:none"
         d="m 1839.93,352.082 c 42.8,-0.5 42.99,-66.801 0.59,-66.801 -0.19,0 -0.39,0 -0.59,0 -42.9,0.598 -43.1,66.801 -0.71,66.801 0.31,0 0.51,0 0.71,0" /><path
         id="path58"
         style="fill:#050606;fill-opacity:1;fill-rule:nonzero;stroke:none"
         d="m 1839.93,285.281 c -125.71,1.598 -251.91,-3.801 -377.41,3.899 -29.69,1.8 -60.49,3.898 -91.39,7.101 -2.4,10.098 -5.21,20.098 -8.7,29.899 -5,14 -15.9,21 -27.6,22.601 l 2.6,18.5 c 42.3,-6.199 85.2,-8.801 125.09,-11.301 125.31,-7.699 251.21,-2.3 376.7,-3.898 -42.39,0 -42.19,-66.203 0.71,-66.801" /><path
         id="path60"
         style="fill:#050606;fill-opacity:1;fill-rule:nonzero;stroke:none"
         d="m 1864.33,1327.98 c -22.1,-2.9 -44.2,-5.1 -66.41,-6.7 -23.79,130 -51.89,259.2 -84.5,387.3 13.01,38.4 26.01,76.7 38.91,115 44.39,-163.5 81.8,-328.9 112,-495.6" /><path
         id="path62"
         style="fill:#fbe664;fill-opacity:1;fill-rule:nonzero;stroke:none"
         d="m 1713.42,1708.58 c 32.61,-128.1 60.71,-257.3 84.5,-387.3 -44.39,-3.3 -88.89,-4.2 -133.3,-2.7 -28.3,1 -56.09,3.1 -83.3,6.3 45.31,127.5 88.81,255.5 132.1,383.7" /><path
         id="path64"
         style="fill:#050606;fill-opacity:1;fill-rule:nonzero;stroke:none"
         d="m 1720.52,1936.68 c 11.01,-37.6 21.71,-75.3 31.81,-113.1 -12.9,-38.3 -25.9,-76.6 -38.91,-115 -3.59,14.8 -7.39,29.6 -11.3,44.4 -6.29,24.2 -12.79,48.4 -19.49,72.5 12.5,37.1 25.2,74.2 37.89,111.2" /><path
         id="path66"
         style="fill:#050606;fill-opacity:1;fill-rule:nonzero;stroke:none"
         d="m 1713.42,1708.58 c -43.29,-128.2 -86.79,-256.2 -132.1,-383.7 -22.79,2.7 -45.09,6.1 -67.1,10.2 46.11,129.7 90.31,260.1 134.51,390.5 11.29,33.3 22.59,66.6 33.9,99.9 6.7,-24.1 13.2,-48.3 19.49,-72.5 3.91,-14.8 7.71,-29.6 11.3,-44.4" /><path
         id="path68"
         style="fill:#050606;fill-opacity:1;fill-rule:nonzero;stroke:none"
         d="m 1705.23,2869.38 c -20.4,-2.7 -40.8,-5.4 -61.1,-8 5.8,24.6 11.9,49.8 19.1,74.8 14,-23.1 27.69,-46 42,-66.8" /><path
         id="path70"
         style="fill:#050606;fill-opacity:1;fill-rule:nonzero;stroke:none"
         d="m 1708.53,2843.58 c -7,-29.8 -45.7,-30.3 -61.1,-8 -5.4,7.8 -10.5,16 -15.6,24.3 l 12.3,1.5 c 20.3,2.6 40.7,5.3 61.1,8 l 8.9,-2.1 c -1.9,-8 -3.8,-15.9 -5.6,-23.7" /><path
         id="path72"
         style="fill:#050606;fill-opacity:1;fill-rule:nonzero;stroke:none"
         d="m 1663.23,2936.18 c -7.2,-25 -13.3,-50.2 -19.1,-74.8 l -12.3,-1.5 c -35.11,58.4 -64,126.4 -118.01,168 -36.79,28.5 -108.8,45.6 -145.09,7.1 -25.5,-27 -15.81,-71.4 -9.2,-103.9 7.59,-36.7 18.3,-72.6 30.7,-107.9 27.6,-78.3 63.5,-153.4 95.9,-229.8 63.49,-150.1 121.2,-302.6 172.4,-457.3 21.89,-66.1 42.5,-132.6 61.99,-199.4 -12.69,-37 -25.39,-74.1 -37.89,-111.2 -40.91,148.7 -87.5,295.8 -139.71,440.8 -30.69,85.1 -63.3,169.6 -97.79,253.2 -33.5,81.3 -71,160.9 -103.2,242.7 -29.3,74.6 -65.9,167.1 -54.2,248.7 9.39,66.2 62.9,106.1 127.1,111.7 127.5,11 190.3,-90.5 248.4,-186.4" /><path
         id="path74"
         style="fill:#050606;fill-opacity:1;fill-rule:nonzero;stroke:none"
         d="m 1581.32,1324.88 c -14.09,-39.8 -28.4,-79.6 -43.09,-119.3 -23.61,0.6 -47.1,0.9 -70.6,0.8 15.79,42.8 31.3,85.7 46.59,128.7 22.01,-4.1 44.31,-7.5 67.1,-10.2" /><path
         id="path76"
         style="fill:#050606;fill-opacity:1;fill-rule:nonzero;stroke:none"
         d="m 1538.23,1205.58 c -4.3,-12.1 -8.8,-24.2 -13.3,-36.3 -5.8,-15.8 -19.51,-22.7 -32.9,-22.7 -20.5,0 -40.6,16.1 -31.51,40.5 2.4,6.4 4.81,12.9 7.11,19.3 23.5,0.1 46.99,-0.2 70.6,-0.8" /><path
         id="path78"
         style="fill:#050606;fill-opacity:1;fill-rule:nonzero;stroke:none"
         d="m 1524.93,1169.28 c 4.5,12.1 9,24.2 13.3,36.3 94.69,-2.1 189.29,-9.5 283.3,-22.1 1.6,-9.3 3.09,-18.7 4.5,-28 2.3,-14.8 11.6,-22.1 22.5,-23.8 l -2.7,-18.8 c -117.1,17.4 -235.5,26.5 -353.8,27.3 v 6.4 c 13.39,0 27.1,6.9 32.9,22.7" /><path
         id="path80"
         style="fill:#ffffff;fill-opacity:1;fill-rule:nonzero;stroke:none"
         d="m 1514.22,1335.08 c -15.29,-43 -30.8,-85.9 -46.59,-128.7 -124.8,-0.4 -249.61,-9.7 -373.41,-27.9 -5.19,48.9 -16.99,96.5 -41.79,141.1 -47.01,84.7 -125.598,146 -202.602,201.9 -81.406,59.1 -161.699,117.5 -235,186.6 -73.601,69.3 -141.406,145.2 -201.601,226.6 -243.301,328.8 -369.4028,737.4 -344.5981,1146.3 24.1016,398.8 185.8981,788.2 448.3011,1089.4 -126.008,-334.1 -149.2,-706.4 -110.606,-1061.8 81.406,-750.5 400.399,-1639.8 1107.896,-1773.5" /><path
         id="path82"
         style="fill:#050606;fill-opacity:1;fill-rule:nonzero;stroke:none"
         d="m 1460.52,1187.08 c -9.09,-24.4 11.01,-40.5 31.51,-40.5 v -6.4 c -131.8,0.9 -263.7,-8.5 -394.2,-28.3 -0.2,22.4 -1.2,44.6 -3.61,66.6 123.8,18.2 248.61,27.5 373.41,27.9 -2.3,-6.4 -4.71,-12.9 -7.11,-19.3" /><path
         id="path84"
         style="fill:#050606;fill-opacity:1;fill-rule:nonzero;stroke:none"
         d="m 1362.43,326.18 c 3.49,-9.801 6.3,-19.801 8.7,-29.899 -24.2,2.399 -48.61,5.699 -72.6,10.199 -0.2,0.602 -0.4,1.301 -0.61,1.899 -9.5,26.601 14.91,43.203 36.91,40.402 11.7,-1.601 22.6,-8.601 27.6,-22.601" /><path
         id="path86"
         style="fill:#54c7ea;fill-opacity:1;fill-rule:nonzero;stroke:none"
         d="m 1098.02,626.781 c 342.4,-26 686.01,-34.402 1029.1,-24.801 5.4,-82.601 9.11,-190.699 -70.09,-230.5 -64.91,-32.699 -147.2,-20.398 -217.1,-19.398 -0.2,0 -0.4,0 -0.71,0 -125.49,1.598 -251.39,-3.801 -376.7,3.898 -39.89,2.5 -82.79,5.102 -125.09,11.301 -57.5,8.297 -114.1,23.199 -161.11,53.297 -34.6,22.102 -70.69,53.801 -86.79,92.402 -14.8,35.5 -10.1,75.801 -7.01,113.102 0.11,1.797 0.31,3.5 0.4,5.297 4.2,-2.5 9.31,-4.098 15.1,-4.598" /><path
         id="path88"
         style="fill:#050606;fill-opacity:1;fill-rule:nonzero;stroke:none"
         d="m 1037.83,1146.08 c 0,-19.4 16.6,-41 41.9,-37 6,1 12.1,1.9 18.1,2.8 0.5,-43.6 -1.91,-87.5 -3.1,-130.599 -0.3,-12.5 -0.6,-25 -0.8,-37.601 -7.9,0.8 -15.7,1.5 -23.6,2.3 -20.1,2 -30.71,-11.699 -31.91,-27.3 l -12.19,0.402 c 1.5,54.598 3.2,109.198 4.29,163.898 0.51,20.9 0.71,41.9 -0.29,62.8 l 7.6,0.3" /><path
         id="path90"
         style="fill:#050606;fill-opacity:1;fill-rule:nonzero;stroke:none"
         d="m 1097.83,1111.88 c -6,-0.9 -12.1,-1.8 -18.1,-2.8 -25.3,-4 -41.9,17.6 -41.9,37 0,12.9 7.3,24.8 24.2,27.5 10.7,1.7 21.39,3.3 32.19,4.9 2.41,-22 3.41,-44.2 3.61,-66.6" /><path
         id="path92"
         style="fill:#050606;fill-opacity:1;fill-rule:nonzero;stroke:none"
         d="m 1070.33,879.082 c -22.5,2.199 -33.21,22.098 -31.91,39.598 1.2,15.601 11.81,29.3 31.91,27.3 7.9,-0.8 15.7,-1.5 23.6,-2.3 -0.6,-22.2 -1.01,-44.399 -1.41,-66.7 -7.39,0.7 -14.79,1.399 -22.19,2.102" /><path
         id="path94"
         style="fill:#050606;fill-opacity:1;fill-rule:nonzero;stroke:none"
         d="m 1094.22,1178.48 c -10.8,-1.6 -21.49,-3.2 -32.19,-4.9 -16.9,-2.7 -24.2,-14.6 -24.2,-27.5 l -7.6,-0.3 c -1.6,38.2 -7,76.1 -21.7,111.9 -38.104,92.6 -124.003,156.8 -202.706,213.5 -85.097,61.2 -168.496,123.2 -244.597,195.6 -151.7,144.3 -277.5,316.5 -370.704,503.9 -191.69878,385.1 -240.6949,826 -138.0972,1243.8 87.4022,356.3 277.8042,681.4 542.7072,932.2 -29.707,-57.3 -55.703,-116.2 -78.203,-176.3 -262.403,-301.2 -424.1995,-690.6 -448.3011,-1089.4 -24.8047,-408.9 101.2971,-817.5 344.5981,-1146.3 60.195,-81.4 128,-157.3 201.601,-226.6 73.301,-69.1 153.594,-127.5 235,-186.6 77.004,-55.9 155.592,-117.2 202.602,-201.9 24.8,-44.6 36.6,-92.2 41.79,-141.1" /><path
         id="path96"
         style="fill:#050606;fill-opacity:1;fill-rule:nonzero;stroke:none"
         d="m 1086.93,692.781 c -1.01,-20.5 -2.4,-41 -4.01,-61.402 -23.89,13.902 -22.59,54.601 4.01,61.402" /><path
         id="path98"
         style="fill:#050606;fill-opacity:1;fill-rule:nonzero;stroke:none"
         d="m 1298.53,306.48 c -48.7,9 -96.01,23 -138.3,46 -78.91,42.801 -143.3,115.801 -147.4,208.301 -1.91,44.199 5.7,88.598 7.19,132.801 2.1,65.098 3.51,130.297 5.31,195.398 0.3,10 0.59,20.102 0.9,30.102 l 12.19,-0.402 c -1.3,-17.5 9.41,-37.399 31.91,-39.598 7.4,-0.703 14.8,-1.402 22.19,-2.102 -1.09,-61.402 -2.29,-123 -5.59,-184.199 -26.6,-6.801 -27.9,-47.5 -4.01,-61.402 -0.09,-1.797 -0.29,-3.5 -0.4,-5.297 -3.09,-37.301 -7.79,-77.602 7.01,-113.102 16.1,-38.601 52.19,-70.3 86.79,-92.402 47.01,-30.098 103.61,-45 161.11,-53.297 l -2.6,-18.5 c -22,2.801 -46.41,-13.801 -36.91,-40.402 0.21,-0.598 0.41,-1.297 0.61,-1.899" /><path
         id="path100"
         style="fill:#fbe664;fill-opacity:1;fill-rule:nonzero;stroke:none"
         d="m 638.324,4425.28 c 223.703,379.4 572.996,559.1 956.906,595 192.5,18 385.5,8.6 577.1,-2.4 194.7,-11.2 398.9,-31 568.3,-143.5 65.2,-43.4 118.99,-99.8 165.6,-163.6 257.1,-226.8 475.6,-522.1 596,-871.1 99.4,-288 119,-601.8 56.1,-904.5 9.59,117.8 9.69,236.3 0.3,353.5 -31.3,392.4 -177.1,781 -432.2,1083.1 -124.9,147.9 -278.1,273.7 -451.5,360.5 -215,107.6 -456,153.4 -695.4,155 -435.9,3 -873.5,-140.6 -1221.897,-403 -56.809,-42.8 -111.106,-88.7 -162.5,-137.6 13.496,26.6 27.996,52.8 43.191,78.6" /><path
         id="path102"
         style="fill:#050606;fill-opacity:1;fill-rule:nonzero;stroke:none"
         d="m 563.727,4222.28 c -15.997,-17 -31.7,-34.3 -46.797,-51.9 22.5,60.1 48.496,119 78.203,176.3 51.394,48.9 105.691,94.8 162.5,137.6 348.397,262.4 785.997,406 1221.897,403 239.4,-1.6 480.4,-47.4 695.4,-155 173.4,-86.8 326.6,-212.6 451.5,-360.5 255.1,-302.1 400.9,-690.7 432.2,-1083.1 9.39,-117.2 9.29,-235.7 -0.3,-353.5 -17.81,-85.7 -42.2,-170.5 -73.31,-253.6 -22,-58.8 -46.89,-116.2 -74.29,-172 101.6,332.6 116.9,694.7 43.3,1032.3 -80.61,370 -268.3,724.9 -562.1,969 -339.3,281.8 -798.4,354.5 -1225.61,286.1 -416.7,-66.7 -812.293,-266.7 -1102.593,-574.7" /></g></g></svg>