<svg width="479.25333" height="670.7199700000001" xmlns="http://www.w3.org/2000/svg" version="1.1" xml:space="preserve">
 <metadata id="metadata8">image/svg+xml</metadata>

 <g>
  <title>Layer 1</title>
  <path fill-rule="nonzero" fill="#050606" d="m263.72265,248.01599c21.13467,8.21333 15.57467,36.8 11.94667,53.78666c-5.34533,25.01333 -14.82667,48.81333 -23.54667,72.78666c-6.38667,17.58667 -12.45333,35.26667 -18.47867,52.98666c-1.34667,-5.04 -2.77333,-10.06667 -4.24133,-15.08c4.17467,-12.21333 8.40133,-24.4 12.77333,-36.53333c7.84133,-21.73333 16.468,-43.24 22.308,-65.64c2.70667,-10.41333 5.35867,-21.29333 5.74533,-32.09333c0.268,-7.65333 -0.78533,-17.62667 -8.572,-21.44c-7.708,-3.77333 -17.24,0.65333 -22.45333,6.61333c-6.05333,6.89333 -8.54667,16.18667 -10.65333,25.01333l-1.18667,-0.28c-1.908,-2.77333 -3.73333,-5.82667 -5.6,-8.90667c2.50667,-8.72 6.02533,-17.26667 12.56,-23.64c7.45333,-7.25333 19.32,-11.48 29.39867,-7.57333" id="path38"/>
  <path fill-rule="nonzero" fill="#050606" d="m252.06932,514.28264c0.56133,3.65333 -2.87867,5.94667 -5.59867,5.54667c-1.45333,-0.22667 -2.69333,-1.2 -3,-3.17333c-0.188,-1.24 -0.38667,-2.49333 -0.6,-3.73333c3.07867,0.38667 6.14667,0.84 9.19867,1.34667l0,0.01333" id="path48"/>
  <path fill-rule="nonzero" fill="#050606" d="m248.57732,493.65598c1.26533,6.85333 2.42533,13.72 3.492,20.61333c-3.052,-0.50667 -6.12,-0.96 -9.19867,-1.34667c-0.97467,-6.13333 -2.01333,-12.26667 -3.148,-18.37333c2.96133,-0.21333 5.908,-0.50667 8.85467,-0.89333" id="path52"/>
  <path fill-rule="nonzero" fill="#050606" d="m248.57732,493.65598c-2.94667,0.38667 -5.89333,0.68 -8.85467,0.89333c-3.172,-17.33333 -6.91867,-34.56 -11.26667,-51.64c1.73467,-5.12 3.468,-10.22667 5.188,-15.33333c5.91867,21.8 10.90667,43.85333 14.93333,66.08" id="path60"/>
  <path fill-rule="nonzero" fill="#050606" d="m229.40266,412.49598c1.468,5.01333 2.89467,10.04 4.24133,15.08c-1.72,5.10667 -3.45333,10.21333 -5.188,15.33333c-0.47867,-1.97333 -0.98533,-3.94667 -1.50667,-5.92c-0.83867,-3.22667 -1.70533,-6.45333 -2.59867,-9.66667c1.66667,-4.94667 3.36,-9.89333 5.052,-14.82667" id="path64"/>
  <path fill-rule="nonzero" fill="#050606" d="m228.45599,442.90931c-5.772,17.09333 -11.572,34.16 -17.61333,51.16c-3.03867,-0.36 -6.012,-0.81333 -8.94667,-1.36c6.148,-17.29333 12.04133,-34.68 17.93467,-52.06666c1.50533,-4.44 3.012,-8.88 4.52,-13.32c0.89333,3.21333 1.76,6.44 2.59867,9.66667c0.52133,1.97333 1.028,3.94667 1.50667,5.92" id="path66"/>
  <path fill-rule="nonzero" fill="#050606" d="m227.36399,288.13599c-2.72,0.36 -5.44,0.72 -8.14667,1.06667c0.77333,-3.28 1.58667,-6.64 2.54667,-9.97333c1.86667,3.08 3.692,6.13333 5.6,8.90667" id="path68"/>
  <path fill-rule="nonzero" fill="#050606" d="m227.80399,291.57599c-0.93333,3.97333 -6.09333,4.04 -8.14667,1.06667c-0.72,-1.04 -1.4,-2.13333 -2.08,-3.24l1.64,-0.2c2.70667,-0.34667 5.42667,-0.70667 8.14667,-1.06667l1.18667,0.28c-0.25333,1.06667 -0.50667,2.12 -0.74667,3.16" id="path70"/>
  <path fill-rule="nonzero" fill="#050606" d="m221.76399,279.22932c-0.96,3.33333 -1.77333,6.69333 -2.54667,9.97333l-1.64,0.2c-4.68133,-7.78667 -8.53333,-16.85333 -15.73467,-22.4c-4.90533,-3.8 -14.50667,-6.08 -19.34533,-0.94667c-3.4,3.6 -2.108,9.52 -1.22667,13.85333c1.012,4.89333 2.44,9.68 4.09333,14.38667c3.68,10.44 8.46667,20.45333 12.78667,30.64c8.46533,20.01333 16.16,40.34666 22.98667,60.97333c2.91867,8.81333 5.66667,17.68 8.26533,26.58667c-1.692,4.93333 -3.38533,9.88 -5.052,14.82667c-5.45467,-19.82667 -11.66667,-39.44 -18.628,-58.77333c-4.092,-11.34667 -8.44,-22.61333 -13.03867,-33.76c-4.46667,-10.84 -9.46667,-21.45333 -13.76,-32.36c-3.90667,-9.94667 -8.78667,-22.28 -7.22667,-33.16c1.252,-8.82667 8.38667,-14.14667 16.94667,-14.89333c17,-1.46667 25.37333,12.06667 33.12,24.85333" id="path72"/>
  <path fill-rule="nonzero" fill="#050606" d="m210.84266,494.06931c-1.87867,5.30667 -3.78667,10.61333 -5.74533,15.90667c-3.148,-0.08 -6.28,-0.12 -9.41333,-0.10667c2.10533,-5.70667 4.17333,-11.42667 6.212,-17.16c2.93467,0.54667 5.908,1 8.94667,1.36" id="path74"/>
  <path fill-rule="nonzero" fill="#050606" d="m205.09732,509.97598c-0.57333,1.61333 -1.17333,3.22667 -1.77333,4.84c-0.77333,2.10667 -2.60133,3.02667 -4.38667,3.02667c-2.73333,0 -5.41333,-2.14667 -4.20133,-5.4c0.32,-0.85333 0.64133,-1.72 0.948,-2.57333c3.13333,-0.01333 6.26533,0.02667 9.41333,0.10667" id="path76"/>
 </g>
</svg>