<?xml version="1.0" encoding="UTF-8" standalone="no"?>
<!-- Created with Inkscape (http://www.inkscape.org/) -->

<svg
   width="210mm"
   height="297mm"
   viewBox="0 0 210 297"
   version="1.1"
   id="svg453"
   inkscape:version="1.1.2 (b8e25be8, 2022-02-05)"
   sodipodi:docname="Logo.svg"
   xmlns:inkscape="http://www.inkscape.org/namespaces/inkscape"
   xmlns:sodipodi="http://sodipodi.sourceforge.net/DTD/sodipodi-0.dtd"
   xmlns="http://www.w3.org/2000/svg"
   xmlns:svg="http://www.w3.org/2000/svg">
  <sodipodi:namedview
     id="namedview455"
     pagecolor="#ffffff"
     bordercolor="#666666"
     borderopacity="1.0"
     inkscape:pageshadow="2"
     inkscape:pageopacity="0.0"
     inkscape:pagecheckerboard="0"
     inkscape:document-units="mm"
     showgrid="false"
     inkscape:zoom="0.51677831"
     inkscape:cx="317.35078"
     inkscape:cy="720.81198"
     inkscape:window-width="1383"
     inkscape:window-height="969"
     inkscape:window-x="0"
     inkscape:window-y="25"
     inkscape:window-maximized="0"
     inkscape:current-layer="layer1" />
  <defs
     id="defs450" />
  <g
     inkscape:label="Ebene 1"
     inkscape:groupmode="layer"
     id="layer1">
    <g
       transform="matrix(0.01444324,0,0,-0.01420756,1.4050742,192.96084)"
       id="g12">
      <path
         id="path16"
         style="fill:#050606;fill-opacity:1;fill-rule:nonzero;stroke:none"
         d="m 12223.3,7819.15 c 9.4,-117.5 9.2,-236.3 -0.5,-354.4 -17.8,-85.4 -42.1,-169.8 -73.1,-252.6 -22.1,-59 -47,-116.6 -74.4,-172.6 101.6,332.7 117,695.1 43.4,1032.9 -80.6,369.9 -268.3,724.9 -562.1,968.9 -339.3,281.9 -798.4,354.5 -1225.6,286.2 -416.65,-66.8 -812.26,-266.8 -1102.56,-574.8 -16,-16.9 -31.59,-34.2 -46.8,-51.8 22.6,60.1 48.51,119 78.2,176.3 51.4,48.8 105.71,94.8 162.5,137.6 348.4,262.4 785.96,405.9 1221.86,403 239.4,-1.7 480.4,-47.4 695.4,-155.1 173.4,-86.8 326.6,-212.5 451.5,-360.4 255,-302.2 400.9,-690.7 432.2,-1083.2" />
      <path
         id="path18"
         style="fill:#050606;fill-opacity:1;fill-rule:nonzero;stroke:none"
         d="m 12149.7,7212.15 c 31,82.8 55.3,167.2 73.1,252.6 -28.5,-347.4 -140.1,-688.9 -337.6,-976.5 -117.6,-171.1 -263.1,-321.8 -430.4,-444.6 -84.6,-62.1 -174.9,-116.6 -269.5,-162 -46.7,-22.4 -94.5,-42.7 -143.1,-60.7 -45.9,-17.1 -93.9,-30.1 -137.4,-52.9 -43,-22.6 -77.1,-54.2 -83.9,-104.6 -1.5,-11.4 -2.3,-23 -2.4,-34.7 l -19.7,0.2 c 0,13.2 -7.2,25.9 -23.8,30.1 -6.9,1.7 -13.7,3.4 -20.6,5 2,21.6 6.7,42.7 16,63.3 18.3,40.6 52.6,71.1 90.6,92.9 39.8,22.7 83.8,37.1 126.8,52 47.7,16.5 94.5,35.1 140.3,56.1 375.3,172.7 675.6,484.4 849.8,857.3 38.3,82 70.8,166.9 97.4,253.9 27.4,56 52.3,113.6 74.4,172.6" />
      <path
         id="path22"
         style="fill:#ffffff;fill-opacity:1;fill-rule:nonzero;stroke:none"
         d="m 12075.3,7039.55 c -26.6,-87 -59.1,-171.9 -97.4,-253.9 -174.2,-372.9 -474.5,-684.6 -849.8,-857.3 -45.8,-21 -92.6,-39.6 -140.3,-56.1 -43,-14.9 -87,-29.3 -126.8,-52 -38,-21.8 -72.3,-52.3 -90.6,-92.9 -9.3,-20.6 -14,-41.7 -16,-63.3 -65.9,16 -132.4,29.3 -199.2,40 -8.1,51.6 -16.8,103.1 -26.2,154.4 315.1,39.3 624.6,191.2 889.5,393.2 264.2,201.4 501,469.6 656.8,787.9" />
      <path
         id="path24"
         style="fill:#050606;fill-opacity:1;fill-rule:nonzero;stroke:none"
         d="m 10859.8,5091.05 c 1.6,-95.7 -16.4,-206.7 -113,-250.9 -44,-20.1 -91.4,-25.4 -139.2,-26.2 0.1,1.1 0.2,2.1 0.4,3.1 6.3,42.1 -58.1,60.3 -64.5,17.8 -1,-6.7 -1.9,-13.3 -2.9,-20 -12,0.4 -23.8,0.7 -35.6,0.9 42.6,0 42.4,66.3 -0.5,66.9 70,-1.1 152.3,-13.3 217.2,19.3 79.2,39.8 75.5,148 70.1,230.6 10.5,0.2 20.9,0.5 31.4,0.8 22.8,0.7 33.5,19.9 32.2,37.5 l 1.7,0.1 c 1.3,-26.7 2.2,-53.3 2.7,-79.9" />
      <path
         id="path26"
         style="fill:#050606;fill-opacity:1;fill-rule:nonzero;stroke:none"
         d="m 10857.1,5170.95 -1.7,-0.1 c -1.3,15.6 -12,29.9 -32.2,29.3 -11.9,-0.4 -23.8,-0.7 -35.7,-0.9 -3.2,53.4 -6.9,106.8 -11.1,160.2 10.1,0 20.3,0 30.4,0.1 22.9,0.1 33.6,19 32.2,36.7 l 1.7,0.2 c 6.7,-75 13,-150.3 16.4,-225.5" />
      <path
         id="path28"
         style="fill:#050606;fill-opacity:1;fill-rule:nonzero;stroke:none"
         d="m 10855.4,5170.85 c 1.3,-17.6 -9.4,-36.8 -32.2,-37.5 -10.5,-0.3 -20.9,-0.6 -31.4,-0.8 -0.9,12.5 -1.8,24.5 -2.4,35.5 -0.6,10.4 -1.2,20.8 -1.9,31.2 11.9,0.2 23.8,0.5 35.7,0.9 20.2,0.6 30.9,-13.7 32.2,-29.3" />
      <path
         id="path30"
         style="fill:#050606;fill-opacity:1;fill-rule:nonzero;stroke:none"
         d="m 10840.7,5396.45 -1.7,-0.2 c -1.3,15.7 -12,30.3 -32.2,30.2 -12,-0.1 -23.9,-0.1 -35.9,-0.1 -3.8,43.9 -7.9,87.8 -12.3,131.7 -1.2,12.3 -2.5,24.6 -3.5,37 0.7,-0.1 1.5,-0.3 2.2,-0.5 25.1,-6.3 41.5,14.5 41.5,34.4 l 19.7,-0.2 c -0.5,-50.7 10.4,-103.9 14.9,-153 2.4,-26.4 4.9,-52.8 7.3,-79.3" />
      <path
         id="path32"
         style="fill:#050606;fill-opacity:1;fill-rule:nonzero;stroke:none"
         d="m 10839,5396.25 c 1.4,-17.7 -9.3,-36.6 -32.2,-36.7 -10.1,-0.1 -20.3,-0.1 -30.4,-0.1 -1.7,22.3 -3.6,44.6 -5.5,66.9 12,0 23.9,0 35.9,0.1 20.2,0.1 30.9,-14.5 32.2,-30.2" />
      <path
         id="path36"
         style="fill:#050606;fill-opacity:1;fill-rule:nonzero;stroke:none"
         d="m 10789.4,5168.05 c 0.6,-11 1.5,-23 2.4,-35.5 -343.2,-9.6 -686.7,-1.3 -1029.06,24.8 -5.89,0.5 -10.89,2.1 -15.2,4.7 1.7,20.4 3.01,40.8 4.1,61.3 3.3,0.9 7,1.2 11.1,0.9 340.86,-26 682.96,-34.4 1024.76,-25 0.7,-10.4 1.3,-20.8 1.9,-31.2" />
      <path
         id="path40"
         style="fill:#050606;fill-opacity:1;fill-rule:nonzero;stroke:none"
         d="m 10775,5659.05 c 16.6,-4.2 23.8,-16.9 23.8,-30.1 0,-19.9 -16.4,-40.7 -41.5,-34.4 -0.7,0.2 -1.5,0.4 -2.2,0.5 -1.9,23.1 -2.8,46.2 -0.7,69 6.9,-1.6 13.7,-3.3 20.6,-5" />
      <path
         id="path42"
         style="fill:#050606;fill-opacity:1;fill-rule:nonzero;stroke:none"
         d="m 10776.4,5359.45 c -340.4,-0.7 -680.6,15.3 -1019.26,48.1 0.4,22.2 0.8,44.4 1.4,66.6 336.36,-32.4 674.36,-48.4 1012.36,-47.8 1.9,-22.3 3.8,-44.6 5.5,-66.9" />
      <path
         id="path46"
         style="fill:#050606;fill-opacity:1;fill-rule:nonzero;stroke:none"
         d="m 10754.4,5664.05 c -2.1,-22.8 -1.2,-45.9 0.7,-69 -80.8,20.2 -162.5,36.4 -244.7,48.4 l 2.8,18.7 c 20.4,-3 46.2,14.2 42,41.7 0,0.1 0,0.1 0,0.2 66.8,-10.7 133.3,-24 199.2,-40" />
      <path
         id="path48"
         style="fill:#050606;fill-opacity:1;fill-rule:nonzero;stroke:none"
         d="m 10642.6,7700.75 c 158.5,-61.5 116.7,-276 89.6,-403.3 -40.1,-187.7 -111.2,-366.2 -176.6,-546 -48,-131.8 -93.5,-264.4 -138.6,-397.2 -10.2,37.8 -20.8,75.5 -31.9,113.1 31.3,91.5 63.1,182.8 95.9,273.8 58.8,163.1 123.5,324.4 167.3,492.4 20.3,78 40.2,159.7 43.1,240.6 2,57.4 -6,132.3 -64.3,160.8 -57.8,28.4 -129.3,-4.9 -168.5,-49.5 -45.4,-51.8 -64,-121.5 -79.8,-187.7 l -9,2.1 c -14.3,20.8 -28,43.6 -42,66.7 18.8,65.5 45.2,129.6 94.3,177.4 55.9,54.4 144.9,86.2 220.5,56.8" />
      <path
         id="path52"
         style="fill:#050606;fill-opacity:1;fill-rule:nonzero;stroke:none"
         d="m 10543.5,4834.85 c 6.4,42.5 70.8,24.3 64.5,-17.8 -0.2,-1 -0.3,-2 -0.4,-3.1 -22.3,-0.4 -44.8,0.3 -67,0.9 1,6.7 1.9,13.3 2.9,20" />
      <path
         id="path54"
         style="fill:#050606;fill-opacity:1;fill-rule:nonzero;stroke:none"
         d="m 10540.6,4814.85 c 22.2,-0.6 44.7,-1.3 67,-0.9 -11.8,-79.9 -16.5,-179.2 -76.4,-240.1 -48.6,-49.4 -123.9,-43.8 -187.5,-42.5 -14.2,0.3 -28.3,0.9 -42.5,1.5 6.2,24.3 -13.7,40.1 -33.3,40.5 l 0.9,28 c 35.7,-1.5 71.4,-3.3 107.2,-3.6 30,-0.2 65.2,-2.9 92.6,11.8 33.8,18.2 45.8,64.3 54.2,98.8 8.5,35 12.9,70.8 17.8,106.5" />
      <path
         id="path56"
         style="fill:#050606;fill-opacity:1;fill-rule:nonzero;stroke:none"
         d="m 10555.2,5703.85 c 4.2,-27.5 -21.6,-44.7 -42,-41.7 -10.9,1.7 -20.2,9.1 -22.5,23.9 -1.5,9.4 -2.9,18.7 -4.5,28.1 23.1,-3 46.1,-6.4 69,-10.1 0,-0.1 0,-0.1 0,-0.2" />
      <path
         id="path58"
         style="fill:#050606;fill-opacity:1;fill-rule:nonzero;stroke:none"
         d="m 10529,5858.45 c 9.4,-51.3 18.1,-102.8 26.2,-154.4 -22.9,3.7 -45.9,7.1 -69,10.1 -7.3,46 -15.2,91.9 -23.6,137.6 22.2,1.6 44.3,3.8 66.4,6.7" />
      <path
         id="path62"
         style="fill:#050606;fill-opacity:1;fill-rule:nonzero;stroke:none"
         d="m 10513.2,5662.15 -2.8,-18.7 c -117.2,17.4 -235.5,26.4 -353.8,27.2 l 0.1,6.5 c 13.4,0 27,6.8 32.9,22.7 4.5,12.1 8.9,24.2 13.3,36.3 94.7,-2.1 189.3,-9.5 283.3,-22 1.6,-9.4 3,-18.7 4.5,-28.1 2.3,-14.8 11.6,-22.2 22.5,-23.9" />
      <path
         id="path64"
         style="fill:#050606;fill-opacity:1;fill-rule:nonzero;stroke:none"
         d="m 10504.5,4882.65 c 42.9,-0.6 43.1,-66.9 0.5,-66.9 -0.2,0 -0.3,0 -0.5,0 -42.8,0.7 -43,66.9 -0.6,66.9 0.2,0 0.4,0 0.6,0" />
      <path
         id="path66"
         style="fill:#050606;fill-opacity:1;fill-rule:nonzero;stroke:none"
         d="m 10504.5,4815.75 c -125.6,1.6 -251.8,-3.8 -377.3,3.9 -29.7,1.8 -60.5,3.9 -91.5,7.1 -2.3,10.1 -5.2,20.2 -8.7,30 -5,13.9 -15.9,20.9 -27.56,22.5 l 2.56,18.5 c 42.3,-6.2 85.2,-8.7 125.2,-11.2 125.3,-7.7 251.3,-2.3 376.7,-3.9 -42.4,0 -42.2,-66.2 0.6,-66.9" />
      <path
         id="path68"
         style="fill:#050606;fill-opacity:1;fill-rule:nonzero;stroke:none"
         d="m 10529,5858.45 c -22.1,-2.9 -44.2,-5.1 -66.4,-6.7 -23.9,130.1 -52,259.4 -84.5,387.6 13,38.3 26,76.6 38.9,114.9 44.4,-163.6 81.7,-329 112,-495.8" />
      <path
         id="path72"
         style="fill:#050606;fill-opacity:1;fill-rule:nonzero;stroke:none"
         d="m 10385.1,6467.35 c 11.1,-37.6 21.7,-75.3 31.9,-113.1 -12.9,-38.3 -25.9,-76.6 -38.9,-114.9 -3.8,14.8 -7.5,29.5 -11.4,44.2 -6.3,24.1 -12.8,48.2 -19.5,72.3 12.6,37.2 25.2,74.3 37.9,111.5" />
      <path
         id="path74"
         style="fill:#050606;fill-opacity:1;fill-rule:nonzero;stroke:none"
         d="m 10369.8,7399.85 9,-2.1 c -1.9,-7.9 -3.7,-15.8 -5.6,-23.6 -7,-29.8 -45.8,-30.4 -61.1,-8 -43,62.6 -71.9,144.6 -133.6,192.3 -36.8,28.4 -108.8,45.6 -145.1,7.1 -25.5,-27.1 -15.8,-71.4 -9.2,-103.9 7.5,-36.7 18.3,-72.7 30.7,-108 27.6,-78.3 63.5,-153.4 95.8,-229.7 63.6,-150.1 121.2,-302.6 172.4,-457.4 21.9,-66 42.6,-132.5 62,-199.2 -12.7,-37.2 -25.3,-74.3 -37.9,-111.5 -40.7,148.7 -87.4,295.9 -139.7,440.9 -30.6,85.2 -63.2,169.6 -97.7,253.3 -33.6,81.2 -71,160.9 -103.2,242.7 -29.26,74.5 -65.86,167.1 -54.16,248.6 9.41,66.2 62.86,106.1 126.96,111.7 127.6,11.1 190.5,-90.6 248.4,-186.5 -7.1,-24.9 -13.2,-50.1 -19.1,-74.7 20.4,2.7 40.8,5.3 61.1,8" />
      <path
         id="path76"
         style="fill:#050606;fill-opacity:1;fill-rule:nonzero;stroke:none"
         d="m 10378.1,6239.35 c -43.3,-128.2 -86.8,-256.5 -132.2,-384 -22.7,2.6 -45.1,6.1 -67,10.2 46.1,129.7 90.3,260.1 134.5,390.5 11.3,33.3 22.5,66.5 33.8,99.8 6.7,-24.1 13.2,-48.2 19.5,-72.3 3.9,-14.7 7.6,-29.4 11.4,-44.2" />
      <path
         id="path78"
         style="fill:#050606;fill-opacity:1;fill-rule:nonzero;stroke:none"
         d="m 10369.8,7399.85 c -20.3,-2.7 -40.7,-5.3 -61.1,-8 5.9,24.6 12,49.8 19.1,74.7 14,-23.1 27.7,-45.9 42,-66.7" />
      <path
         id="path80"
         style="fill:#050606;fill-opacity:1;fill-rule:nonzero;stroke:none"
         d="m 10267.9,4573.35 c 19.6,-0.4 39.5,-16.2 33.3,-40.5 -22.8,1.1 -45.7,2.3 -68.5,3 1.2,4.6 2.5,9.3 3.8,13.9 4.7,16.7 18,23.8 31.4,23.6" />
      <path
         id="path82"
         style="fill:#050606;fill-opacity:1;fill-rule:nonzero;stroke:none"
         d="m 10301.2,4532.85 c 0,-0.3 -0.1,-0.6 -0.2,-0.9 -82.8,-295.1 -125.7,-600.2 -127.2,-906.7 0,-3.6 0.6,-7.2 0.6,-10.9 -30,-4.7 -49.3,-14.6 -61.3,-32.1 -2.3,321.5 34.1,643.2 119.6,953.6 22.8,-0.7 45.7,-1.9 68.5,-3" />
      <path
         id="path84"
         style="fill:#050606;fill-opacity:1;fill-rule:nonzero;stroke:none"
         d="m 10268.8,4601.35 -0.9,-28 c -13.4,0.2 -26.7,-6.9 -31.4,-23.6 -1.3,-4.6 -2.6,-9.3 -3.8,-13.9 -4.8,0.2 -9.6,0.3 -14.4,0.4 -33.2,0.6 -66.7,1 -99.4,7.8 -140.46,29.1 -119.15,187.5 -155.56,292.9 23.91,-4.5 48.16,-7.7 72.36,-10.2 12.9,-53.9 13.4,-111 34.4,-162.6 27.9,-68.3 100.8,-59.3 163,-61.4 11.9,-0.4 23.8,-0.9 35.7,-1.4" />
      <path
         id="path86"
         style="fill:#050606;fill-opacity:1;fill-rule:nonzero;stroke:none"
         d="m 10245.9,5855.35 c -14.1,-39.8 -28.4,-79.6 -43,-119.2 -23.5,0.6 -47,0.9 -70.6,0.8 15.8,42.8 31.3,85.7 46.6,128.6 21.9,-4.1 44.3,-7.6 67,-10.2" />
      <path
         id="path88"
         style="fill:#050606;fill-opacity:1;fill-rule:nonzero;stroke:none"
         d="m 10202.9,5736.15 c -4.4,-12.1 -8.8,-24.2 -13.3,-36.3 -5.9,-15.9 -19.5,-22.7 -32.9,-22.7 -20.6,0 -40.6,16 -31.5,40.4 2.4,6.5 4.8,12.9 7.1,19.4 23.6,0.1 47.1,-0.2 70.6,-0.8" />
      <path
         id="path90"
         style="fill:#050606;fill-opacity:1;fill-rule:nonzero;stroke:none"
         d="m 10156.7,5677.15 -0.1,-6.5 c -131.8,0.9 -263.55,-8.5 -394.06,-28.3 -0.2,22.4 -1.2,44.6 -3.59,66.6 123.89,18.2 248.65,27.5 373.35,28 -2.3,-6.5 -4.7,-12.9 -7.1,-19.4 -9.1,-24.4 10.9,-40.4 31.5,-40.4" />
      <path
         id="path92"
         style="fill:#ffffff;fill-opacity:1;fill-rule:nonzero;stroke:none"
         d="m 10178.9,5865.55 c -15.3,-42.9 -30.8,-85.8 -46.6,-128.6 -124.7,-0.5 -249.46,-9.8 -373.35,-28 -5.11,48.9 -17.01,96.5 -41.81,141.2 -46.99,84.7 -125.69,145.9 -202.7,201.8 -81.3,59.1 -161.6,117.5 -234.9,186.6 -73.7,69.4 -141.49,145.3 -201.6,226.6 -243.3,328.8 -369.4,737.5 -344.7,1146.3 24.2,398.9 186,788.4 448.4,1089.5 -126,-334 -149.2,-706.4 -110.6,-1061.8 81.4,-750.5 400.41,-1639.9 1107.86,-1773.6" />
      <path
         id="path94"
         style="fill:#050606;fill-opacity:1;fill-rule:nonzero;stroke:none"
         d="m 10027,4856.75 c 3.5,-9.8 6.4,-19.9 8.7,-30 -24.2,2.5 -48.45,5.7 -72.36,10.2 -0.2,0.7 -0.5,1.3 -0.69,2 -9.51,26.6 14.79,43.2 36.79,40.3 11.66,-1.6 22.56,-8.6 27.56,-22.5" />
      <path
         id="path96"
         style="fill:#050606;fill-opacity:1;fill-rule:nonzero;stroke:none"
         d="m 10002,4897.75 -2.56,-18.5 c -22,2.9 -46.3,-13.7 -36.79,-40.3 0.19,-0.7 0.49,-1.3 0.69,-2 -48.8,9 -96.2,23 -138.5,46 -78.8,42.9 -143.3,115.8 -147.3,208.3 -1.9,44.2 5.7,88.6 7.21,132.8 2.1,65.1 3.49,130.3 5.29,195.5 0.3,10 0.51,20 0.8,30 l 12.3,-0.3 c -1.29,-17.5 9.4,-37.4 31.9,-39.6 7.4,-0.7 14.71,-1.4 22.1,-2.1 -1,-61.4 -2.2,-122.9 -5.5,-184.2 -26.6,-6.9 -27.9,-47.4 -4.1,-61.3 -0.1,-1.8 -0.2,-3.7 -0.4,-5.5 -3,-37.2 -7.7,-77.5 7.1,-113.1 16.1,-38.6 52.21,-70.2 86.8,-92.3 47.01,-30.2 103.5,-45.1 160.96,-53.4" />
      <path
         id="path98"
         style="fill:#050606;fill-opacity:1;fill-rule:nonzero;stroke:none"
         d="m 9762.54,5642.35 c 0.51,-43.6 -1.99,-87.5 -3.19,-130.6 -0.31,-12.5 -0.61,-25 -0.81,-37.6 -7.8,0.8 -15.7,1.5 -23.5,2.3 -20.1,2 -30.69,-11.7 -31.9,-27.2 l -12.3,0.3 c 1.5,54.6 3.2,109.3 4.4,164 0.5,20.9 0.7,41.9 -0.3,62.8 l 7.5,0.3 c 0,-19.4 16.6,-41.1 42,-37.1 6,1 12.1,1.9 18.1,2.8" />
      <path
         id="path100"
         style="fill:#050606;fill-opacity:1;fill-rule:nonzero;stroke:none"
         d="m 9762.54,5642.35 c -6,-0.9 -12.1,-1.8 -18.1,-2.8 -25.4,-4 -42,17.7 -42,37.1 0,12.9 7.31,24.7 24.2,27.4 10.8,1.7 21.5,3.4 32.31,4.9 2.39,-22 3.39,-44.2 3.59,-66.6" />
      <path
         id="path102"
         style="fill:#050606;fill-opacity:1;fill-rule:nonzero;stroke:none"
         d="m 9735.04,5476.45 c 7.8,-0.8 15.7,-1.5 23.5,-2.3 -0.6,-22.2 -1,-44.4 -1.4,-66.6 -7.39,0.7 -14.7,1.4 -22.1,2.1 -22.5,2.2 -33.19,22.1 -31.9,39.6 1.21,15.5 11.8,29.2 31.9,27.2" />
      <path
         id="path104"
         style="fill:#050606;fill-opacity:1;fill-rule:nonzero;stroke:none"
         d="m 9758.95,5708.95 c -10.81,-1.5 -21.51,-3.2 -32.31,-4.9 -16.89,-2.7 -24.2,-14.5 -24.2,-27.4 l -7.5,-0.3 c -1.6,38.2 -7,76.1 -21.7,111.8 -38.2,92.7 -124,156.9 -202.8,213.5 -85,61.3 -168.4,123.2 -244.5,195.6 -151.7,144.3 -277.5,316.6 -370.79,503.9 -191.61,385.2 -240.61,826 -138.01,1243.9 87.4,356.2 277.7,681.3 542.7,932.2 -29.69,-57.3 -55.6,-116.2 -78.2,-176.3 -262.4,-301.1 -424.2,-690.6 -448.4,-1089.5 -24.7,-408.8 101.4,-817.5 344.7,-1146.3 60.11,-81.3 127.9,-157.2 201.6,-226.6 73.3,-69.1 153.6,-127.5 234.9,-186.6 77.01,-55.9 155.71,-117.1 202.7,-201.8 24.8,-44.7 36.7,-92.3 41.81,-141.2" />
      <path
         id="path106"
         style="fill:#050606;fill-opacity:1;fill-rule:nonzero;stroke:none"
         d="m 9751.64,5223.35 c -1.09,-20.5 -2.4,-40.9 -4.1,-61.3 -23.8,13.9 -22.5,54.4 4.1,61.3" />
      <path
         id="path108"
         style="fill:#231f20;fill-opacity:1;fill-rule:nonzero;stroke:none"
         d="m 7809.84,1179.35 c -53.6,89.4 -100.8,212.6 -141.4,369.7 -32.3,127.5 -63.5,256.7 -93.5,387.3 -69.1,171.8 -159.6,436 -271.6,792.8 l -189.7,126.5 5.31,-28.7 c 16.89,-90.7 51.49,-207.8 103.89,-351.2 82.71,-214.6 125.21,-328.9 127.8,-342.6 71,-228.3 176.9,-567.6 318,-1018.4 31.4,14.2 78.4,35.9 141.2,64.6 z M 8977.65,971.352 c -41.01,97.298 -99.41,242.798 -175.11,435.798 l -115.29,-21.5 c -115.31,-21.5 -282.1,-82.3 -500.51,-182.8 -218.4,-100.4 -382.39,-160.9 -492.2,-181.4 -13.8,-2.5 -32.6,-8 -56.49,-16.9 -24.01,-8.698 -42.9,-14.198 -56.51,-16.8 -30.2,-5.598 -73.2,80 -128.89,256.9 -46.91,190.1 -124.31,475.4 -232.1,855.6 -62.9,184.4 -157.41,462.1 -283.51,833.3 -270.7,-101.6 -463.6,-163.3 -578.8,-184.8 l 9.9,-53.5 c 16.9,-90.5 61.3,-229.9 133.4,-418.2 96.4,-257.4 150.1,-400.8 161.2,-429.9 78.3,-297.8 208.2,-742.3 389.51,-1333.201 25.69,-46.398 57.69,-118.597 95.69,-216.398 95.8,34.898 237.5,89.699 425.2,164.601 305.7,142.297 773.9,312 1404.51,509.2 z m 203.69,-64.2 c -25.6,91.7 -73.9,213.398 -144.8,364.798 -22.3,12.9 -54.4,32.6 -96.2,58.9 l 9.2,-49.4 c 22.5,-120.9 59.1,-217.7 109.7,-290.598 28.81,-17.403 69.4,-45.301 122.1,-83.7 z m 172,-168.101 c 8.2,-44 -56.89,-91.602 -194.9,-142.801 -91.3,-28.598 -182.5,-56.898 -273.8,-85.199 -263.5,-94.801 -637.7,-220 -1122.6,-375.899 -26.49,-10.703 -81.6,-35.101 -165.3,-73.3004 C 7528.95,29.25 7474.44,9.15234 7433.44,1.44922 7389.44,-6.75 7314.24,19.75 7207.65,80.8516 7101.14,141.75 7039.94,192.152 7023.95,231.852 c -93.61,258 -210.81,619.3 -351.51,1084.598 -152.8,513.9 -265.8,876.3 -339.2,1086.9 -25.4,74.7 -56.9,213.6 -94.9,416.9 5,3.5 120.3,47.9 345.9,132.5 145.7,55.8 262.5,91.7 350.4,108.1 82.3,15.4 234.1,-67 455.11,-247.3 69.49,-174.6 167.99,-435.8 295.49,-784 34.4,-138.6 68.8,-277 103.1,-415.4 47.8,-195.6 96.9,-321.3 147.21,-377.2 369.6,179.7 636.89,284.9 801.49,315.7 52.1,9.7 128.2,-17.3 228.11,-81 90.59,-59.7 149.2,-114.1 175.4,-163.2 15.99,-25.3 54.2,-119.8 114.6,-283.2 60.29,-163.301 93.09,-258.801 98.19,-286.199" />
      <path
         id="path110"
         style="fill:#ffffff;fill-opacity:1;fill-rule:nonzero;stroke:none"
         d="m 9036.54,1271.95 c 70.9,-151.4 119.2,-273.098 144.8,-364.798 -52.7,38.399 -93.29,66.297 -122.1,83.7 -50.6,72.898 -87.2,169.698 -109.7,290.598 l -9.2,49.4 c 41.8,-26.3 73.9,-46 96.2,-58.9" />
      <path
         id="path114"
         style="fill:#ffffff;fill-opacity:1;fill-rule:nonzero;stroke:none"
         d="m 7668.44,1549.05 c 40.6,-157.1 87.8,-280.3 141.4,-369.7 -62.8,-28.7 -109.8,-50.4 -141.2,-64.6 -141.1,450.8 -247,790.1 -318,1018.4 -2.59,13.7 -45.09,128 -127.8,342.6 -52.4,143.4 -87,260.5 -103.89,351.2 l -5.31,28.7 189.7,-126.5 c 112,-356.8 202.5,-621 271.6,-792.8 30,-130.6 61.2,-259.8 93.5,-387.3" />
      <path
         id="path116"
         style="fill:#231f20;fill-opacity:1;fill-rule:nonzero;stroke:none"
         d="m 10469.8,941.949 c -21.9,10.301 -49.1,26.703 -81.6,49.403 -32.7,22.698 -54.6,32.998 -65.5,30.998 -11,-2.1 -81.1,-52.6 -210.3,-151.299 -67.4,-50 -162.36,-103.602 -285.15,-161.102 133.39,-75.597 205.45,-112.398 216.45,-110.297 16.5,3.098 79.4,46.2 188.7,130 122.1,91.598 201.2,162.399 237.4,212.297 z m 1218.9,978.601 -1196.6,1702.1 c -70.2,-50.1 -193.4,-106.2 -369.4,-169 -175.85,-62.7 -299.86,-122 -371.96,-177.9 -21.3,-160.1 -31.79,-294.2 -31.6,-402 0.1,-198.6 -3.59,-354 -11.09,-466.1 -2.41,-77.1 -20.91,-376.3 -55.4,-897.1 -33.51,-420.7 -46.81,-648.8 -40.11,-684.499 3.6,-19.301 11.9,-33.5 24.9,-42.5 l 49.6,9.199 c 60.5,11.301 168,75.402 322.56,192.402 124.2,96.898 210.1,169.798 257.9,218.398 -7.2,38.5 -33,138.9 -77.4,300.8 l -86.1,461.1 c -7.1,38.5 66,110.4 219.7,215.7 138,96.8 223.6,148.2 256.6,154.4 57.6,10.7 132.8,-87.5 225.3,-294.5 72.2,-173.8 143,-348.1 212.6,-522.7 58,39.2 170,101.3 335.9,186.3 142.7,72 254.3,144 334.6,215.9 z m -111.8,-519.3 c 196.7,147.4 324,242 381.4,284.2 -86,80.5 -131.8,120.2 -137.3,119.2 -13.7,-2.6 -61.9,-32.8 -144.8,-91 -106.1,-71 -174.3,-116.3 -204.6,-136.1 -66.1,-26.7 -155.3,-66 -267.7,-118.2 -25.5,-16 -50.7,-32.9 -75.8,-50.4 -25.1,-17.3 -39.5,-39.3 -43.2,-65.4 127.1,-87.2 205.7,-127.9 235.8,-122.3 11,2.1 96.4,62.1 256.2,180 z m 619.9,307.5 c 7.2,-38.5 -9.2,-72.8 -48.9,-103 -67.3,-35.4 -165.8,-93.4 -295.5,-174.3 -68.7,-58.4 -170.4,-137 -305.3,-236.1 -15.5,-8.4 -54.2,-37.1 -116.1,-85.5 -49.7,-37.8 -80.1,-57.6 -91,-59.7 -52.2,-9.7 -136.9,32.7 -253.8,127.3 -117.2,94.6 -180.4,159.4 -189.8,194.6 -57.3,185.3 -142.1,388.2 -254.2,608.6 -63.2,-26 -141,-65.9 -233.2,-120.1 118.7,-347.2 192.6,-597.5 221.3,-751.1 16.3,-87.7 16.6,-143.298 1,-165.899 -23.5,-41.301 -78.5,-104.102 -164.9,-188.399 -3,-14.699 -14.8,-35.5 -35.4,-62 -185.3,-148.101 -308.3,-228 -368.6,-239.203 -30.2,-5.699 -119.56,24.602 -268.16,90.5 -118.1,54.5 -180.4,84.102 -186.9,88.602 -79.4,44.801 -124,93.301 -133.8,145.5 -19.9,107 -19.1,254.799 2.5,443.499 15.1,116.4 30.41,232.9 45.6,349.3 2.6,31.7 26.8,495 72.9,1389.6 8.51,152.1 33.11,294.4 73.6,427.1 17.2,14.5 41.8,34.6 74,60.5 61.9,48.6 134.2,87.5 216.6,117.3 59.36,16.6 119.76,35 181.46,55.1 36.9,15.3 105.1,45.1 204.8,89.4 83.8,38.2 131,58.6 142,60.6 27.4,5.1 81.7,-4 162.7,-27.2 81,-23.2 128.3,-40.7 141.8,-52.3 60.6,-96.8 146.8,-223.9 258.8,-382.1 81.8,-103.9 182.4,-246.9 301.6,-429.3 138.1,-207.1 241.3,-356.8 309.6,-449.2 101.8,-134.4 204.9,-268.4 309.5,-402.3 146.5,-191.4 221.8,-298 225.8,-319.8" />
      <path
         id="path118"
         style="fill:#ffffff;fill-opacity:1;fill-rule:nonzero;stroke:none"
         d="m 11958.3,1685.45 c -57.4,-42.2 -184.7,-136.8 -381.4,-284.2 -159.8,-117.9 -245.2,-177.9 -256.2,-180 -30.1,-5.6 -108.7,35.1 -235.8,122.3 3.7,26.1 18.1,48.1 43.2,65.4 25.1,17.5 50.3,34.4 75.8,50.4 112.4,52.2 201.6,91.5 267.7,118.2 30.3,19.8 98.5,65.1 204.6,136.1 82.9,58.2 131.1,88.4 144.8,91 5.5,1 51.3,-38.7 137.3,-119.2" />
      <path
         id="path122"
         style="fill:#231f20;fill-opacity:1;fill-rule:nonzero;stroke:none"
         d="m 10281.7,2748.45 c -11.3,15 -31.2,37.4 -59.6,67.7 -28.3,30.2 -48.2,52.8 -59.5,67.8 0.5,-93.8 4.3,-159.8 11.5,-198.3 23.1,13 59,33.8 107.6,62.8 z m 188.2,18.1 c 9.8,-52.2 2,-86.4 -23.4,-102.4 -179.5,-118.8 -287.1,-181.4 -322.8,-188 -57.6,-10.8 -92.8,18.1 -105.6,86.8 -28.66,153.6 -20.05,297.3 26.1,430.8 79.1,63 160,100.9 242.9,113.5 48.8,-33.3 109.8,-147.1 182.8,-340.7" />
      <path
         id="path124"
         style="fill:#ffffff;fill-opacity:1;fill-rule:nonzero;stroke:none"
         d="m 10388.2,991.352 c 32.5,-22.7 59.7,-39.102 81.6,-49.403 -36.2,-49.898 -115.3,-120.699 -237.4,-212.297 -109.3,-83.8 -172.2,-126.902 -188.7,-130 -11,-2.101 -83.06,34.7 -216.45,110.297 122.79,57.5 217.75,111.102 285.15,161.102 129.2,98.699 199.3,149.199 210.3,151.299 10.9,2 32.8,-8.3 65.5,-30.998" />
      <path
         id="path126"
         style="fill:#ffffff;fill-opacity:1;fill-rule:nonzero;stroke:none"
         d="m 10222.1,2816.15 c 28.4,-30.3 48.3,-52.7 59.6,-67.7 -48.6,-29 -84.5,-49.8 -107.6,-62.8 -7.2,38.5 -11,104.5 -11.5,198.3 11.3,-15 31.2,-37.6 59.5,-67.8" />
      <path
         id="path128"
         style="fill:#231f20;fill-opacity:1;fill-rule:nonzero;stroke:none"
         d="m 13564.7,1158.85 c 35.5,6.6 66.1,18.1 91.5,34.1 -48.8,33.4 -133.7,54.5 -254.5,63.2 -147.2,12.4 -258.6,31.2 -334.4,56.9 -191.3,66.6 -356.5,129.4 -495.3,188.7 l 6.2,-32.9 c 2.5,-13.7 15.9,-44 40.3,-90.6 24.2,-46.4 41.6,-74.6 51.9,-83.9 88.1,-91.6 227.2,-145.1 417.6,-160.5 150.3,-14.7 309.4,-6.3 476.7,25 z m 466.1,1701.5 c 85.5,135.2 112.9,285.2 82.1,449.9 -21.5,115.3 -71.7,239.5 -150.1,372.5 -92.1,158.8 -188.3,254.4 -287.8,287 -202,61.7 -483.2,92.9 -844.2,93.7 -36.2,-3.9 -84.5,-11.3 -144.9,-22.6 -67.5,-262.6 -103.5,-594.5 -108,-995.9 -1.9,-142.3 -13.1,-348.9 -33.5,-619.5 -22.3,-291.1 -35.1,-489.5 -38,-595.2 -1.9,-20.3 5.5,-75.5 22.4,-166 504.8,-224 882.1,-312.5 1132,-265.9 32.5,6.1 58.7,15.2 77.7,27.2 19,12.1 32.6,20.2 40.2,24.5 99.8,27.3 183.6,100.3 250.8,219.3 67.2,119.3 90.1,236.2 68.6,351.6 -5.1,27.3 -17.1,60.8 -35.5,99.8 -63.6,141.6 -190.8,237.2 -381.6,286.6 -21.3,7.5 -34.6,26.3 -40.2,56.5 -3.6,19.2 41.5,64.6 136.2,136.1 116.9,90 201.2,176.8 253.8,260.4 z m 333.8,335 c 27.7,-148.2 14.8,-306.7 -39.1,-476 -58.5,-186.9 -151.9,-310.8 -280,-371.7 78.7,-70.6 133.6,-151.1 164.7,-241.8 6.7,-21.6 20.8,-90 42.3,-205.1 88.1,-472.2 -134,-757.9 -666.3,-857.2 -483.1,-90.198 -812.6,-36.6 -988.5,160.6 -21.5,24.3 -61.6,102.1 -120.1,233.1 -54.4,123.3 -83.3,194.5 -86.9,213.8 -6.1,32.9 2.4,253.3 25.8,660.8 15.1,238.6 29.1,475.5 42,710.8 -1.2,36.8 -3.8,88.8 -7.8,156.2 8.2,92.5 18.8,233.6 31.6,423.5 -1.4,22.3 9.7,70 33.1,142.5 14,62.2 40.6,155.1 80,279.1 1.9,20 4,39 6.4,56.5 5.3,32.3 19.4,56.1 42,71.7 5,3.8 32.2,10.4 81.6,19.6 107.1,20 305.1,17.1 593.7,-8.5 60.9,-5.7 123,-11.1 186.4,-16.4 87.3,-12 171,-33.4 250.2,-64 21.8,-10.3 78.9,-57.6 171.8,-142.6 105.3,-93.9 172.8,-166.5 202.4,-217.9 134.8,-236.1 213.2,-411.6 234.7,-527" />
      <path
         id="path132"
         style="fill:#231f20;fill-opacity:1;fill-rule:nonzero;stroke:none"
         d="m 13183.2,3247.45 c 11.4,107.2 16.2,165 14.6,173.2 -2,10.9 -37.2,71.2 -105.8,180.3 -12.9,-130.1 -23.7,-338 -32.8,-623.8 41.1,7.7 76.1,10 105,7 2.4,48.7 8.6,136.4 19,263.3 z m 477,-147.5 c 46.5,47.2 67.2,85.9 61.6,116 -12.3,65.9 -61.3,115 -147,147.3 -73.2,28.8 -149,38.8 -227.1,30 -5.5,-46.4 -16,-118.1 -32,-214.8 -16.1,-96.6 -27,-168.4 -32.6,-214.8 13.7,2.5 35.5,4.6 65,5.7 29.8,1.3 48.6,2.8 56.7,4.4 54.8,10.2 104.9,23.8 150.1,40.6 23.7,10.2 58.7,38.6 105.3,85.6 z m 182.8,287.7 c 27.6,-148.1 2.7,-268.5 -75.2,-361.2 -77.9,-92.7 -188.1,-152.3 -331,-179 -33,-6.1 -112.4,-5.4 -238.7,2.4 -126.7,7.6 -200.9,17.9 -223.2,30.8 -22.3,12.9 -36.3,34.4 -41.9,64.5 -6.6,35.6 -0.7,164 17.7,384.6 18.3,220.6 35.7,348.1 52.1,382.6 22,49.5 53.8,78 94.9,85.7 134.4,25 326.6,-15.7 576.4,-122.5 55.7,-23.5 104.9,-89.8 148.1,-198 5.1,-13.4 12.1,-43.3 20.8,-89.9" />
      <path
         id="path134"
         style="fill:#ffffff;fill-opacity:1;fill-rule:nonzero;stroke:none"
         d="m 13721.8,3215.95 c 5.6,-30.1 -15.1,-68.8 -61.6,-116 -46.6,-47 -81.6,-75.4 -105.3,-85.6 -45.2,-16.8 -95.3,-30.4 -150.1,-40.6 -8.1,-1.6 -26.9,-3.1 -56.7,-4.4 -29.5,-1.1 -51.3,-3.2 -65,-5.7 5.6,46.4 16.5,118.2 32.6,214.8 16,96.7 26.5,168.4 32,214.8 78.1,8.8 153.9,-1.2 227.1,-30 85.7,-32.3 134.7,-81.4 147,-147.3" />
      <path
         id="path136"
         style="fill:#231f20;fill-opacity:1;fill-rule:nonzero;stroke:none"
         d="m 13368.4,1731.25 c 93.3,17.4 133.2,61.9 119.9,133.3 -7.1,38.3 -36.6,77.5 -88,117.8 -51.7,39.9 -102,55.5 -151.2,46.4 l -53.7,-10.1 c -18.7,-142.7 -27.4,-218.1 -25.8,-226.4 4.6,-24.6 35,-43.3 91.3,-55.4 46.9,-8.3 82.7,-10.2 107.5,-5.6 z m 321.7,285.9 c 15.8,-84.9 -10.3,-170.2 -78.1,-255.3 -67.8,-85 -139.2,-134.6 -213.2,-148.5 -54.8,-10.2 -151.9,11.5 -291.1,65 -139.2,53.5 -212.7,100.9 -220.4,142.2 -5.1,27.4 -4.2,205.1 2.8,533 0.9,25.6 8.9,54.8 24.2,87.6 15.1,32.7 32.4,50.7 51.6,54.3 13.7,2.6 30.1,-1.5 49.1,-12.1 147.6,16.1 290.5,-23.9 429.4,-120.2 138.4,-96.1 220.6,-211.4 245.7,-346 z m -596.8,115 c -2.3,11.2 -13.8,34.5 -34.3,69.6 -20.9,36 -33.8,59 -38.5,69.7 -18.6,-205.2 -23.4,-331.2 -14.8,-377.6 2.6,-13.9 27.9,-34.7 75.7,-62.7 5.9,206 9.8,306.4 11.9,301" />
      <path
         id="path138"
         style="fill:#ffffff;fill-opacity:1;fill-rule:nonzero;stroke:none"
         d="m 13656.2,1192.95 c -25.4,-16 -56,-27.5 -91.5,-34.1 -167.3,-31.3 -326.4,-39.7 -476.7,-25 -190.4,15.4 -329.5,68.9 -417.6,160.5 -10.3,9.3 -27.7,37.5 -51.9,83.9 -24.4,46.6 -37.8,76.9 -40.3,90.6 l -6.2,32.9 c 138.8,-59.3 304,-122.1 495.3,-188.7 75.8,-25.7 187.2,-44.5 334.4,-56.9 120.8,-8.7 205.7,-29.8 254.5,-63.2" />
      <path
         id="path140"
         style="fill:#ffffff;fill-opacity:1;fill-rule:nonzero;stroke:none"
         d="m 13488.3,1864.55 c 13.3,-71.4 -26.6,-115.9 -119.9,-133.3 -24.8,-4.6 -60.6,-2.7 -107.5,5.6 -56.3,12.1 -86.7,30.8 -91.3,55.4 -1.6,8.3 7.1,83.7 25.8,226.4 l 53.7,10.1 c 49.2,9.1 99.5,-6.5 151.2,-46.4 51.4,-40.3 80.9,-79.5 88,-117.8" />
      <path
         id="path142"
         style="fill:#ffffff;fill-opacity:1;fill-rule:nonzero;stroke:none"
         d="m 13197.8,3420.65 c 1.6,-8.2 -3.2,-66 -14.6,-173.2 -10.4,-126.9 -16.6,-214.6 -19,-263.3 -28.9,3 -63.9,0.7 -105,-7 9.1,285.8 19.9,493.7 32.8,623.8 68.6,-109.1 103.8,-169.4 105.8,-180.3" />
      <path
         id="path144"
         style="fill:#ffffff;fill-opacity:1;fill-rule:nonzero;stroke:none"
         d="m 13093.3,2132.15 c -2.1,5.4 -6,-95 -11.9,-301 -47.8,28 -73.1,48.8 -75.7,62.7 -8.6,46.4 -3.8,172.4 14.8,377.6 4.7,-10.7 17.6,-33.7 38.5,-69.7 20.5,-35.1 32,-58.4 34.3,-69.6" />
      <path
         id="path146"
         style="fill:#231f20;fill-opacity:1;fill-rule:nonzero;stroke:none"
         d="m 1103.84,3924.75 c -64.3,67.7 -100.4,102.1 -108.797,103.2 -8.301,1.2 -88.801,-10.7 -241.301,-35.3 -160.898,-23.5 -259.695,-35.8 -296.297,-36.4 22.196,-65.1 50,-99.8 83.203,-104.2 22.098,-3 112.696,6.2 271.797,27.1 159.2,20.9 256.295,36 291.395,45.6 z m 833.1,543.4 c 1.2,8.4 -68.3,110.6 -208.3,306.7 -130.7,180.8 -211.39,293.1 -242.3,336.7 -2.7,0.4 -23.69,22.7 -62.8,67.5 -34.59,35.6 -51.6,56.1 -50.89,61.7 5.89,44.2 81.59,189.1 227.19,434.5 62.6,110 156.2,294.4 281,553.9 -60.4,53.1 -122,108.6 -184.7,166.2 -62.8,57.8 -126.79,105 -192.3,141.8 -102.7,-177.7 -206.5,-354 -311.49,-528.6 -169.7,-278.8 -283.705,-425.6 -341.909,-440.2 -36.093,89.4 -75,314.2 -116.894,674.8 -41.004,346.3 -63.906,522.6 -68.699,528.7 -25.703,-2 -209.2,-26.9 -550.801,-74.1 -1.203,-30.8 18.496,-251.7 59.297,-662.9 1.101,-118.3 6.902,-296.7 17.207,-534.6 8.094,-108.2 25.691,-261.2 52.695,-459.1 30.801,-212.5 48.602,-364.2 53.203,-455.1 4.793,-90.7 8.496,-178.6 11.297,-263.5 5.305,-107.6 17.695,-193.8 37.297,-258.4 189.102,2.9 293.699,5.8 313.797,8.8 127.805,8.2 230,24.1 306.406,47.7 11.602,23.7 18.301,42.6 20.098,56.4 10.402,77.5 -1.504,198.9 -35.703,364 -34.395,165.1 -45.899,289.2 -34.793,372.3 1.492,11 9.5,23.3 23.992,36.9 14.504,13.5 27.305,19.4 38.301,18 22.101,-3 115.799,-134.5 281.099,-394.4 165.1,-260.4 260,-393.4 284.5,-399.5 259.51,171 390.9,269 394.2,293.8 z m 63,-223.9 c 1.8,13.9 -1.5,41.1 -10.19,81.8 -130.61,-50.2 -244.01,-129.5 -340.21,-237.8 12,-15.7 28.2,-30.6 49,-44.5 14.2,0.9 67.7,32.4 160.5,94.7 92.9,62.2 139.8,97.4 140.9,105.8 z m 20.4,373.2 c 80.6,-134.6 113.4,-257.3 98.61,-368 -4.81,-36 -141.41,-141.6 -409.91,-316.9 -91.39,12.2 -180.2,74.8 -266.39,187.8 -66.51,93.2 -131.41,186.4 -195.11,279.4 18.2,-264.3 22.3,-434 12.3,-508.6 -4.5,-33.2 -16.3,-53.4 -35.6,-60.7 -19.3,-7.3 -137.5,-22.4 -354.599,-45.4 -217.196,-23.3 -336.797,-33.2 -358.895,-30.2 -35.996,4.8 -91.301,43.8 -165.996,117.3 -74.805,73.2 -120.605,130.7 -137.5,172.5 -12.902,29.8 -52.609,465.5 -119.0039,1306.6 -66.3008,841.3 -95.30469,1293.5 -86.79688,1357.4 3.30078,24.8 13.79688,44.5 31.19918,59.1 17.3946,14.5 121.9926,38.5 313.8986,72.2 189.695,33 304.5,47.3 344.5,42.5 -3.504,0 21.301,-7.5 74.297,-22.5 50.898,-40.7 124.004,-115.2 219.406,-223.7 25.59,-166.8 64.89,-367.7 118,-603 225.19,420.5 357.09,628.2 395.79,623 38.8,-5.2 134.8,-67.2 287.8,-186.3 153.1,-119 235.51,-197.7 247.3,-235.9 40.6,-118.1 56.7,-207.7 48.61,-268.5 -4.81,-36 -68.61,-175.9 -191.41,-420.2 -122.79,-244.2 -198.8,-381.1 -228.19,-411 -1.61,-33.6 39.79,-102.4 124.49,-206.8 116.5,-139.4 194.2,-242.9 233.2,-310.1" />
      <path
         id="path148"
         style="fill:#ffffff;fill-opacity:1;fill-rule:nonzero;stroke:none"
         d="m 1989.75,4326.05 c 8.69,-40.7 11.99,-67.9 10.19,-81.8 -1.1,-8.4 -48,-43.6 -140.9,-105.8 -92.8,-62.3 -146.3,-93.8 -160.5,-94.7 -20.8,13.9 -37,28.8 -49,44.5 96.2,108.3 209.6,187.6 340.21,237.8" />
      <path
         id="path152"
         style="fill:#ffffff;fill-opacity:1;fill-rule:nonzero;stroke:none"
         d="m 995.043,4027.95 c 8.397,-1.1 44.497,-35.5 108.797,-103.2 -35.1,-9.6 -132.195,-24.7 -291.395,-45.6 -159.101,-20.9 -249.699,-30.1 -271.797,-27.1 -33.203,4.4 -61.007,39.1 -83.203,104.2 36.602,0.6 135.399,12.9 296.297,36.4 152.5,24.6 233,36.5 241.301,35.3" />
      <path
         id="path154"
         style="fill:#231f20;fill-opacity:1;fill-rule:nonzero;stroke:none"
         d="m 2555.94,5897.85 c 5.1,38.7 2.5,92.6 -8,161.6 -16.8,106.3 -25,161 -24.6,163.8 -13.3,-15.1 -29.1,-38.3 -47.3,-69.6 -1.5,-11.2 -0.7,-78.1 2.6,-201.1 3.3,-122.9 5.9,-187.4 8,-193.4 z m 727.2,-1512.8 c 15.81,161.2 6,382.3 -29.6,663.1 -37.6,309.4 -54.7,528.4 -51.5,657.7 l -82.29,-77.7 c -1.81,-56.4 1.99,-132.9 11.49,-229.9 15.3,-117.5 23.3,-194.6 24.1,-231.3 0.6,-79 4.01,-348.4 10.21,-808.4 31.09,1.6 70.29,10.4 117.59,26.5 z m 1188.4,-275.1 c 16.51,-150 21.51,-249.9 14.91,-299.7 -3.8,-27.9 -61.51,-122.9 -173.4,-285.4 -209.71,-31 -477.9,-55.7 -804.21,-74 -236,-16.3 -566.1,-31.5 -990.4,-45 -31,63.2 -56.9,153.8 -77.7,272.1 -18.7,92.5 -35.8,185.1 -51.6,277.2 6.3,47 68.2,162.6 185.8,346.7 155,20.6 320.61,35.7 496.7,45.4 -21,180.6 -31.7,395 -32.29,643.7 0.69,217.1 1.49,433 1.99,647.7 -33.5,1.4 -142.6,-2.2 -326.99,-11.4 -172.71,-5.2 -263.11,-7 -271.41,-5.9 -19.4,2.6 -33.1,78.9 -41.09,229.5 -11.41,63.5 -19.91,157.5 -25.71,282.3 34.6,48.7 90.31,117.5 167,205.8 25.81,24.7 90.81,37.1 195,37.2 294,8.5 709,36.3 1244.8,83 190.9,16.6 292,24.2 303.1,22.7 35.9,-4.8 66.21,-83.5 90.9,-236.1 18.5,-134.9 24.4,-228.6 17.3,-281.2 -3.69,-27.6 -25.5,-85.3 -65.4,-172.9 -39.89,-87.5 -67.3,-134.6 -82.2,-141.1 -43.7,-11.1 -110.19,-18.5 -199.39,-21.9 -89.2,-3.7 -155.61,-10.8 -199.41,-21.9 -1.5,-95.5 7.2,-219.4 26.51,-371.1 24.19,-197.8 38.49,-322.2 42.9,-373.3 -2.21,-101.2 7.9,-257.5 30.29,-468.9 14.2,0.9 84,7 209.6,18.5 91.4,10.2 160.7,12.3 207.7,6.1 l 56,-24.4 c 17.3,-39 34.2,-133.5 50.7,-283.7 z m -1800.6,57.5 c 2.3,5.3 27.11,-136 74.21,-424.4 363.49,21.7 905.29,50.7 1625.59,86.8 l 3.4,25 c 7.71,58 4.7,130.3 -8.99,216.6 -13.41,69.4 -26.41,140.1 -39.31,212.3 -247.79,-20.4 -398,-27.1 -450.5,-20.1 -49.79,6.7 -79.1,93.6 -87.69,260.7 -2.5,107.3 -3.81,214.6 -3.51,321.5 -12.9,72 -29.3,181.2 -49.1,327.4 -12.9,156.5 -44.49,394.4 -94.8,713.6 5.6,41.4 99.51,69.7 281.8,84.6 110.8,7.8 222.9,13.9 336.2,18.5 19.6,188.7 8.3,314 -33.89,376.1 -171.61,-19.5 -432.31,-42.3 -782.31,-68.9 -19.79,-0.2 -281.49,-7.4 -784.9,-21.3 3.9,-76.3 11.1,-191 21.6,-343.7 200.4,23.8 380.8,25.1 541.3,3.6 38.7,-5.1 64.6,-22.7 77.5,-52.7 21.7,-47.9 34,-145.3 37,-292.2 -0.3,-107.1 1.1,-212.9 4,-317.4 1.7,-50.9 23,-207.5 64,-469.2 29.8,-198.3 37.7,-350 23.7,-455.1 -8.59,-63.8 -53.1,-101.3 -133.4,-113.2 -65.19,-2.5 -128.8,-3.9 -190.7,-4.1 -119.3,-6.5 -261.5,-17.1 -426.9,-31.7 z m -112.4,-82.6 c -42.8,-87.3 -64.5,-134.9 -65.6,-143.3 -1.49,-11 30.4,-130.8 95.5,-359.3 15.7,11.9 37.2,35.9 64.5,71.7 2.4,39 -9.2,109.7 -35,211.8 -39.6,141.8 -59.4,214.9 -59.4,219.1" />
      <path
         id="path158"
         style="fill:#ffffff;fill-opacity:1;fill-rule:nonzero;stroke:none"
         d="m 3253.54,5048.15 c 35.6,-280.8 45.41,-501.9 29.6,-663.1 -47.3,-16.1 -86.5,-24.9 -117.59,-26.5 -6.2,460 -9.61,729.4 -10.21,808.4 -0.8,36.7 -8.8,113.8 -24.1,231.3 -9.5,97 -13.3,173.5 -11.49,229.9 l 82.29,77.7 c -3.2,-129.3 13.9,-348.3 51.5,-657.7" />
      <path
         id="path160"
         style="fill:#ffffff;fill-opacity:1;fill-rule:nonzero;stroke:none"
         d="m 2617.94,3865.75 c 25.8,-102.1 37.4,-172.8 35,-211.8 -27.3,-35.8 -48.8,-59.8 -64.5,-71.7 -65.1,228.5 -96.99,348.3 -95.5,359.3 1.1,8.4 22.8,56 65.6,143.3 0,-4.2 19.8,-77.3 59.4,-219.1" />
      <path
         id="path162"
         style="fill:#ffffff;fill-opacity:1;fill-rule:nonzero;stroke:none"
         d="m 2547.94,6059.45 c 10.5,-69 13.1,-122.9 8,-161.6 l -69.3,-138.7 c -2.1,6 -4.7,70.5 -8,193.4 -3.3,123 -4.1,189.9 -2.6,201.1 18.2,31.3 34,54.5 47.3,69.6 -0.4,-2.8 7.8,-57.5 24.6,-163.8" />
      <path
         id="path164"
         style="fill:#231f20;fill-opacity:1;fill-rule:nonzero;stroke:none"
         d="m 6094.94,3153.55 c -43.4,33.9 -86.6,69.1 -129.5,106.1 -41.4,27.9 -110.1,51.1 -206.09,69.7 -192.31,36.9 -331.91,67 -419.01,89.8 -168.3,47.8 -306.2,111.2 -413.89,190.6 -0.71,-5.6 16.49,-55.7 51.69,-150.7 23,-59.3 51,-102.6 84.11,-129.4 89.49,-68.4 237.99,-116.3 445.49,-144.1 301.61,-40.3 497.3,-51.1 587.2,-32 z m 975.21,1511 c 38.09,284.5 0,527.2 -113.91,728 -99.79,179.3 -276.89,349.3 -531.4,510 -191.7,124 -391.4,199.9 -598.8,227.6 -16.1,-57.1 -46.69,-127.7 -91.69,-211.7 -50.81,-106.1 -82.71,-176.5 -95.81,-211.2 -48.39,-151.4 -124.5,-375 -228.6,-670.9 -97,-259.6 -264.2,-675.3 -501.8,-1247.4 253.71,-188.5 521.61,-301.4 803.9,-339.1 127.31,-17 247.71,-12.3 361.1,14.9 40.6,8.7 153.9,45.3 340.2,110.7 159.71,57.2 282,150.7 366.9,279.8 42.81,67.4 105.4,209.5 188,426.4 53.5,147.4 87.5,275 101.91,382.9 z m 170.49,-20.8 c 6.8,-138.8 -1.9,-267.2 -26.1,-385.2 -51.8,-260.7 -139.7,-475.6 -263.8,-645 -188.8,-253.6 -353,-417.4 -492.4,-491.9 -191.8,-106.7 -455.9,-133.3 -792.4,-79.8 -428.29,62.8 -671.59,170 -730.2,321.6 -109.4,276.6 -163.09,423.2 -160.8,439.8 6.3,47.1 81.2,239.7 225.21,578.2 87.59,213.5 176.7,427.1 267.19,640.3 72.2,181.8 159.2,432.2 261,751 114.2,348.1 204.4,517.7 270.8,508.8 224.2,-30 442,-107 653.6,-231 469.2,-282.6 721.7,-637.3 757.6,-1064.6 10.1,-114 20.21,-228.2 30.3,-342.2" />
      <path
         id="path168"
         style="fill:#231f20;fill-opacity:1;fill-rule:nonzero;stroke:none"
         d="m 6507.25,4403.85 c 13.99,105.1 -4.6,209 -55.61,311.6 -51.09,102.5 -121.89,184 -212.4,244 -73.1,-167.7 -146.19,-335.3 -219.4,-503.2 -96.79,-218 -178.3,-374.6 -244.5,-469.9 61.2,-5.5 151.7,-3.4 271.2,5.9 101.7,23.1 200.71,74 297.2,152.6 96.3,78.5 150.9,165 163.51,259 z m 100.19,371.1 c 19.6,146.7 -16.3,278.2 -107.69,394.7 -30.8,43.7 -129.41,138.3 -295.71,284.6 24.4,-90.7 48.9,-223.5 73.4,-398.5 159.7,-111.6 266.4,-229.9 320,-355.4 z m 92.6,313 c 48.1,-124.8 59.5,-281.3 34.4,-469.4 -2.99,-22.2 -24.4,-88.3 -64.5,-198.5 -7.69,-35.6 -24.2,-85.4 -49.6,-149.7 -201.7,-327.8 -504.5,-464.8 -908.4,-410.8 -80.3,10.8 -152.3,30.3 -216.2,58.6 -90,43 -131.1,93.5 -123.3,151.5 2.2,16.6 146.4,315.7 432.6,897.1 29.71,74.9 74.31,187.3 133.8,337 52.1,136.8 79.6,206.3 82.8,208.7 46.9,97.8 91.1,144.2 132.6,138.6 33.2,-4.4 120.91,-70.4 263.01,-197.9 141.99,-127.4 236.39,-249.2 282.79,-365.2" />
      <path
         id="path170"
         style="fill:#ffffff;fill-opacity:1;fill-rule:nonzero;stroke:none"
         d="m 6499.75,5169.65 c 91.39,-116.5 127.29,-248 107.69,-394.7 l -10,-74.6 c -53.6,125.5 -160.3,243.8 -320,355.4 -24.5,175 -49,307.8 -73.4,398.5 166.3,-146.3 264.91,-240.9 295.71,-284.6" />
      <path
         id="path172"
         style="fill:#ffffff;fill-opacity:1;fill-rule:nonzero;stroke:none"
         d="m 5965.44,3259.65 c 42.9,-37 86.1,-72.2 129.5,-106.1 -89.9,-19.1 -285.59,-8.3 -587.2,32 -207.5,27.8 -356,75.7 -445.49,144.1 -33.11,26.8 -61.11,70.1 -84.11,129.4 -35.2,95 -52.4,145.1 -51.69,150.7 107.69,-79.4 245.59,-142.8 413.89,-190.6 87.1,-22.8 226.7,-52.9 419.01,-89.8 95.99,-18.6 164.69,-41.8 206.09,-69.7" />
      <path
         id="path174"
         style="fill:#231f20;fill-opacity:1;fill-rule:nonzero;stroke:none"
         d="m 9089.54,5003.35 c 1.1,8.2 1.5,21.5 1.2,40 -0.4,18.3 -1.6,30.3 -3.6,36.3 -74.7,52.1 -121.7,79.7 -141,82.3 -60.99,8.1 -128.8,-4.1 -203.49,-36.3 107.5,-17.2 221.79,-67.6 342.99,-151.5 z m 147.5,470.3 c 4.81,35.9 -69.6,91 -223,164.9 -137.3,69.1 -233.6,107.4 -288.89,114.8 -107.9,14.5 -302.21,-37.1 -582.61,-154.4 -236,-101 -366.7,-246.7 -392.3,-437.6 -28.79,-216 49.51,-398.4 235.31,-547.1 176.39,-113.8 352.79,-226.1 529.6,-336.9 187.1,-137.9 268.59,-297.9 244.09,-480.6 -12.2,-91.3 -61.9,-157.9 -149.2,-199.8 -75.6,-37.8 -160.4,-50.4 -254.3,-37.8 -177.2,23.6 -392.5,151 -646.1,382.1 -51.4,-88.8 -133.19,-227.2 -245.6,-414.9 l -3.3,-25 c 214.41,-144.2 450.4,-233.5 707.7,-267.9 168.81,-22.5 298.81,-30 390,-22.5 147.6,8.4 275.3,68.8 383.3,181.1 108.01,112.5 171.6,240.5 190.8,384.4 29.31,218.5 2.61,398.2 -80,538.8 -43.7,73.5 -140.5,160.9 -290.2,262.8 -183.5,123.1 -300.3,209 -349.9,258 -109.3,110.4 -155.5,227.9 -138.9,352.3 23.31,174.4 165,244.1 425.2,209.3 127.2,-17 257.4,-65.4 390.5,-145.1 z m 194.7,3.4 c 32,-77.4 35.51,-208.9 10.7,-394.2 -6.7,-49.9 -44.9,-108.9 -114.5,-177.1 -69.7,-68.2 -129.4,-98.8 -179.2,-92.2 -2.8,0.4 -67.2,34.5 -193.4,102.1 -126.1,67.6 -229.4,106.6 -309.6,117.4 -44.29,5.9 -68.7,-7.8 -73.09,-41 -8.21,-60.8 48.59,-141.8 170.4,-242.6 89.79,-65.3 178.29,-130.1 265.59,-193.8 87.2,-63.9 154.7,-148.3 202.7,-253.3 24.1,-51.1 56.4,-152.4 96.71,-304.3 40.19,-151.8 53.99,-274.9 41.39,-368.9 -7,-52.7 -27.7,-113.4 -62.3,-181.9 -27.1,-55.4 -55.8,-112.2 -86.2,-170 -159.09,-347.9 -523.8,-483.5 -1093.69,-407.3 -77.61,10.3 -192.41,35.6 -344.81,75.7 -188,47.5 -290,85.1 -306.1,112.7 -9,37.7 -23,91.8 -41.7,162 -55.6,173.6 -82.3,268.8 -80.1,285.1 13.7,102.5 125.61,297.5 335.9,584.7 33.2,-4.5 127,-71.3 281.6,-200.2 154.6,-129.1 303.8,-203.3 447.71,-222.6 35.89,-4.8 78.89,11.2 128.99,48.2 49.9,37.1 77.4,73.6 82.2,109.4 5.2,38.8 -15.79,71.3 -63,97.3 -37.39,16.2 -74.5,33.7 -111.3,52.9 -153,99.3 -304.2,199.7 -453.99,301.4 -129.21,107.5 -225.61,261.1 -289.01,461.3 -59.69,185.4 -82.4,332 -67.9,440.1 11,82.9 44.1,171.5 98.9,265.4 59,104.8 212.4,209 460,312.5 247.7,103.4 435.11,146.9 562.5,129.9 121.6,-16.3 250.8,-61.9 387.3,-136.4 157.81,-83.2 257.01,-173.8 297.3,-272.3 z m -1063.3,-2397 c 6.8,-0.9 12.6,-1.7 17.3,-2.3 -4.7,0.6 -10.5,1.4 -17.3,2.3 z m -28.29,3.8 c 4.69,-0.7 9.2,-1.2 13.29,-1.8 -4.2,0.6 -8.6,1.2 -13.29,1.8 z m -8.41,1.1 c -41.7,5.6 -102.1,13.7 -181.19,24.2 -230.71,30.9 -460.21,112.3 -688.41,244.2 32.61,-90.2 61,-169.7 85.4,-238.6 59.9,-11.1 156.1,-33.9 288.5,-68.7 121.21,-33.3 216.3,-54.6 284.9,-63.8 214.1,-28.6 341.1,-19.9 380.91,26.8 -67.1,41.7 -123.91,66.9 -170.11,75.9" />
      <path
         id="path178"
         style="fill:#ffffff;fill-opacity:1;fill-rule:nonzero;stroke:none"
         d="m 9090.74,5043.35 c 0.3,-18.5 -0.1,-31.8 -1.2,-40 l -3.9,-29.2 c -121.2,83.9 -235.49,134.3 -342.99,151.5 74.69,32.2 142.5,44.4 203.49,36.3 19.3,-2.6 66.3,-30.2 141,-82.3 2,-6 3.2,-18 3.6,-36.3" />
      <path
         id="path180"
         style="fill:#ffffff;fill-opacity:1;fill-rule:nonzero;stroke:none"
         d="m 8331.74,3084.95 c 46.2,-9 103.01,-34.2 170.11,-75.9 -39.81,-46.7 -166.81,-55.4 -380.91,-26.8 -68.6,9.2 -163.69,30.5 -284.9,63.8 -132.4,34.8 -228.6,57.6 -288.5,68.7 -24.4,68.9 -52.79,148.4 -85.4,238.6 228.2,-131.9 457.7,-213.3 688.41,-244.2 79.09,-10.5 139.49,-18.6 181.19,-24.2" />
    </g>
  </g>
</svg>
