<svg width="479.25333" height="680" xmlns="http://www.w3.org/2000/svg" version="1.1" xml:space="preserve">
 <metadata id="metadata8">image/svg+xml</metadata>

 <g>
  <title>Layer 1</title>
  <g id="svg_2">
   <path fill-rule="nonzero" fill="#482816" d="m466.66815,318.17684c4.14799,-11.07997 7.39998,-22.38661 9.77464,-33.81325c-3.78666,46.37322 -18.66662,91.95977 -45.04122,130.33301c-15.67996,22.81328 -35.06658,42.89323 -57.38519,59.27985c-11.28131,8.27998 -23.30661,15.54663 -35.93324,21.58661c-6.22665,2.98666 -12.59997,5.69332 -19.06662,8.10665c-6.12132,2.26666 -12.51997,3.99999 -18.31995,7.05332c-5.74799,3.01333 -10.29464,7.22665 -11.19997,13.94663c-0.21467,1.52 -0.30667,3.06666 -0.32133,4.62666l-2.62533,-0.02667c0,-1.76 -0.96,-3.45332 -3.17333,-4.01332c-0.92133,-0.22667 -1.82666,-0.45333 -2.74666,-0.66667c0.26533,-2.87999 0.89333,-5.71999 2.13333,-8.45331c2.43999,-5.39999 7.01332,-9.47998 12.07864,-12.3733c5.30799,-3.02666 11.17464,-4.95999 16.92129,-6.94665c6.34665,-2.19999 12.58664,-4.66666 18.69195,-7.47998c50.04121,-23.02661 90.08111,-64.58651 113.32105,-114.30639c5.11865,-10.94664 9.45198,-22.30661 12.98663,-33.91992c3.65332,-7.43998 6.97198,-15.0933 9.90531,-22.93328" id="path14"/>
   <path fill-rule="nonzero" fill="#482816" d="m294.09658,590.3363c0.17333,2.35986 -1.25466,4.91985 -4.29332,5.01305c-1.40133,0.04013 -2.78666,0.08013 -4.18799,0.1068c-0.10667,-1.68026 -0.22667,-3.28026 -0.30533,-4.74692c-0.08133,-1.3864 -0.16,-2.77293 -0.25467,-4.15986c1.588,-0.02653 3.16133,-0.06667 4.74799,-0.11987c2.69333,-0.08013 4.11999,1.84013 4.29332,3.90679" id="path20"/>
   <path fill-rule="nonzero" fill="#482816" d="m292.12192,560.26971c0.908,9.99998 1.748,20.04008 2.20133,30.05313l-0.22667,0.01347c-0.17333,-2.06666 -1.6,-3.98692 -4.29332,-3.90679c-1.58666,0.0532 -3.15999,0.09333 -4.74799,0.11987c-0.42533,-7.13332 -0.91866,-14.25316 -1.47866,-21.35981c1.34666,0 2.69333,0 4.03866,-0.0136c3.05333,-0.01307 4.48132,-2.53279 4.29466,-4.89319l0.212,-0.01307" id="path22"/>
   <path fill-rule="nonzero" fill="#482816" d="m291.90992,560.28277c0.18667,2.36039 -1.24133,4.88012 -4.29466,4.89319c-1.34533,0.0136 -2.69199,0.0136 -4.03866,0.0136c-0.24133,-2.97346 -0.48,-5.93332 -0.73466,-8.90678c1.588,0 3.18799,0 4.77332,-0.01307c2.69466,-0.01347 4.11999,1.93333 4.29466,4.01306" id="path24"/>
   <path fill-rule="nonzero" fill="#482816" d="m289.17526,529.29632c-0.06533,6.75998 1.38666,13.85317 1.988,20.38648c0.32,3.52026 0.65333,7.05358 0.95866,10.58691l-0.212,0.01307c-0.17467,-2.07973 -1.6,-4.02652 -4.29466,-4.01306c-1.58533,0.01307 -3.18533,0.01307 -4.77332,0.01307c-0.50667,-5.85319 -1.05333,-11.70677 -1.63866,-17.55982c-0.16,-1.64 -0.33333,-3.27999 -0.48133,-4.93332c0.09467,0.01333 0.20133,0.04 0.29467,0.06667c3.34666,0.84 5.53332,-1.94666 5.53332,-4.58666l2.62533,0.02667" id="path26"/>
   <path fill-rule="nonzero" fill="#482816" d="m286.54993,529.26965c0,2.63999 -2.18666,5.42665 -5.53332,4.58666c-0.09333,-0.02667 -0.2,-0.05333 -0.29467,-0.06667c-0.252,-3.07999 -0.372,-6.15998 -0.092,-9.19998c0.92,0.21333 1.82533,0.44 2.74666,0.66667c2.21333,0.56 3.17333,2.25333 3.17333,4.01332" id="path32"/>
   <path fill-rule="nonzero" fill="#482816" d="m252.50868,635.13619c0.85466,-5.65359 9.43998,-3.24013 8.60131,2.37293c-0.02667,0.13387 -0.04133,0.26667 -0.05467,0.4136c-2.98666,0.0536 -5.97199,-0.04013 -8.93331,-0.11987c0.13467,-0.89373 0.25467,-1.77346 0.38667,-2.66666" id="path42"/>
   <path fill-rule="nonzero" fill="#482816" d="m252.12202,637.80285c2.96133,0.07973 5.94665,0.17347 8.93331,0.11987c-1.572,10.65304 -2.19866,23.90661 -10.18531,32.02641c-6.48132,6.58697 -16.51996,5.82656 -24.98661,5.65364c-5.58665,-0.12031 -11.14797,-0.53333 -16.73329,-0.6401c-4.42799,-0.09323 -8.89331,-0.14687 -13.25463,-1.04011c-18.74529,-3.89322 -15.89329,-25.01347 -20.75862,-39.0665c3.19866,0.6 6.45332,1.04 9.67998,1.35986c1.70666,7.18692 1.76,14.79996 4.57199,21.68008c3.72132,9.10679 13.4413,7.91981 21.73328,8.18647c6.36132,0.21355 12.69464,0.62657 19.06795,0.66667c3.98532,0.02657 8.67998,0.4 12.3333,-1.55989c4.50666,-2.42655 6.10665,-8.58645 7.22665,-13.18643c1.13333,-4.66666 1.72,-9.44011 2.37199,-14.19997" id="path44"/>
   <path stroke="null" fill-rule="nonzero" fill="#482816" d="m247.40203,637.68258c5.65332,0 5.62799,-8.84011 -0.07867,-8.90678c9.31998,0.13333 20.29195,1.77346 28.9466,-2.58639c10.55997,-5.30679 10.06531,-19.71982 9.34531,-30.73326c1.40133,-0.02667 2.78666,-0.06667 4.18799,-0.1068c3.03866,-0.0932 4.46666,-2.65319 4.29332,-5.01305l0.22667,-0.01347c0.17333,3.55986 0.292,7.10665 0.36,10.65357c0.212,12.7729 -2.18666,27.57287 -15.0533,33.45298c-5.86665,2.67973 -12.18664,3.39999 -18.57462,3.49332c0.01333,-0.14693 0.028,-0.27973 0.05467,-0.4136c0.83866,-5.61305 -7.74665,-8.02651 -8.60131,-2.37293c-0.132,0.8932 -0.252,1.77293 -0.38667,2.66666c-1.58533,-0.0536 -3.15866,-0.09373 -4.71999,-0.12027" id="path50"/>
   <path fill-rule="nonzero" fill="#482816" d="m183.65685,632.2294c0.46533,1.3068 0.84,2.64013 1.16,3.98652c-3.22666,-0.31987 -6.48132,-0.75986 -9.67998,-1.35986c-0.02667,-0.08027 -0.05333,-0.17347 -0.08133,-0.2532c-1.26666,-3.54679 1.988,-5.76039 4.92132,-5.38692c1.56,0.21347 3.01333,1.1468 3.67999,3.01346" id="path84"/>
   <path fill-rule="nonzero" fill="#482816" d="m140.37696,522.90967c0,2.58666 2.21333,5.46665 5.58665,4.93332c0.8,-0.13333 1.61333,-0.25333 2.41333,-0.37333c0.06667,5.81332 -0.25467,11.66664 -0.41333,17.41316c-0.04,1.66666 -0.08,3.33333 -0.10667,5.01345c-1.05333,-0.10667 -2.09333,-0.2 -3.14666,-0.30667c-2.67999,-0.26667 -4.09466,1.55986 -4.25466,3.63999l-1.62533,-0.0536c0.2,-7.27972 0.42667,-14.5597 0.572,-21.85301c0.068,-2.78666 0.09467,-5.58665 -0.03867,-8.37331l1.01333,-0.04" id="path88"/>
   <path fill-rule="nonzero" fill="#482816" d="m148.37694,527.46965c-0.8,0.12 -1.61333,0.24 -2.41333,0.37333c-3.37333,0.53333 -5.58665,-2.34666 -5.58665,-4.93332c0,-1.72 0.97333,-3.30666 3.22666,-3.66666c1.42666,-0.22667 2.85199,-0.44 4.29199,-0.65333c0.32133,2.93333 0.45467,5.89332 0.48133,8.87998" id="path90"/>
   <path fill-rule="nonzero" fill="#482816" d="m144.71028,558.50931c-2.99999,-0.2932 -4.42799,-2.94639 -4.25466,-5.27972c0.16,-2.08013 1.57466,-3.90666 4.25466,-3.63999c1.05333,0.10667 2.09333,0.2 3.14666,0.30667c-0.08,2.95999 -0.13467,5.91985 -0.188,8.89331c-0.98533,-0.09333 -1.972,-0.18653 -2.95866,-0.28027" id="path92"/>
   <path fill-rule="nonzero" fill="#482816" d="m147.89561,518.58968c-1.44,0.21333 -2.86533,0.42667 -4.29199,0.65333c-2.25333,0.36 -3.22666,1.94666 -3.22666,3.66666l-1.01333,0.04c-0.21333,-5.09332 -0.93333,-10.14664 -2.89333,-14.91996c-5.08052,-12.34664 -16.53369,-20.90662 -27.0274,-28.4666c-11.34624,-8.15998 -22.46608,-16.42663 -32.61285,-26.07994c-20.22662,-19.23995 -36.99991,-42.1999 -49.42708,-67.1865c-25.55977,-51.34654 -32.09257,-110.13306 -18.41291,-165.83959c11.6536,-47.50655 37.04047,-90.85311 72.36078,-124.29303c-3.96092,7.63998 -7.42705,15.4933 -10.42704,23.50661c-34.98698,40.1599 -56.55979,92.07977 -59.77333,145.25298c-3.30729,54.51987 13.50625,108.99973 45.9463,152.83962c8.02598,10.85331 17.06662,20.97328 26.88007,30.21326c9.77344,9.21331 20.47915,16.99996 31.33326,24.87994c10.26717,7.45332 20.74555,15.62663 27.01353,26.91993c3.30666,5.94665 4.87999,12.2933 5.57199,18.81329" id="path94"/>
   <path fill-rule="nonzero" fill="#482816" d="m146.92361,583.34938c-0.13467,2.73333 -0.32,5.46665 -0.53467,8.18691c-3.18533,-1.8536 -3.01199,-7.28012 0.53467,-8.18691" id="path96"/>
   <path fill-rule="nonzero" fill="#482816" d="m175.13687,634.85606c-6.49332,-1.2 -12.8013,-3.06666 -18.43995,-6.13332c-10.52131,-5.70679 -19.10662,-15.4401 -19.65329,-27.7734c-0.25467,-5.89319 0.76,-11.81304 0.95866,-17.70676c0.28,-8.67971 0.468,-17.37289 0.708,-26.053c0.04,-1.33333 0.07867,-2.68026 0.12,-4.01359l1.62533,0.0536c-0.17333,2.33333 1.25466,4.98652 4.25466,5.27972c0.98666,0.09373 1.97333,0.18693 2.95866,0.28027c-0.14533,8.18691 -0.30533,16.39996 -0.74533,24.55981c-3.54666,0.9068 -3.71999,6.33332 -0.53467,8.18691c-0.012,0.2396 -0.03867,0.46667 -0.05333,0.70626c-0.412,4.97345 -1.03866,10.34691 0.93466,15.08023c2.14666,5.14679 6.95865,9.37331 11.57197,12.32024c6.26798,4.01306 13.81463,5.99999 21.48128,7.10625l-0.34667,2.46666c-2.93333,-0.37347 -6.18798,1.84013 -4.92132,5.38692c0.028,0.07973 0.05467,0.17293 0.08133,0.2532" id="path98"/>
   <path fill-rule="nonzero" fill="#482816" d="m77.16338,112.75067c-2.13293,2.26666 -4.22666,4.57332 -6.23958,6.91998c2.99999,-8.01331 6.46612,-15.86663 10.42704,-23.50661c6.85252,-6.51998 14.0921,-12.63997 21.66661,-18.34662c46.45282,-34.98658 104.79934,-54.1332 162.9192,-53.7332c31.91992,0.21333 64.05318,6.31998 92.71977,20.66662c23.11994,11.5733 43.54656,28.3466 60.19985,48.06655c34.01325,40.2799 53.4532,92.09311 57.62652,144.41298c1.252,15.62663 1.23866,31.42659 -0.04,47.13322c-2.37466,11.42664 -5.62665,22.73328 -9.77464,33.81325c-2.93333,7.83998 -6.25198,15.4933 -9.90531,22.93328c13.54663,-44.34656 15.58663,-92.62644 5.77332,-137.63966c-10.74797,-49.33321 -35.77325,-96.6531 -74.94648,-129.19968c-45.23989,-37.57324 -106.45307,-47.26655 -163.41426,-38.14657c-55.55986,8.89331 -108.30547,35.55991 -147.01204,76.62648" id="path102"/>
  </g>
 </g>
</svg>