<?xml version="1.0" standalone="no"?>
<!DOCTYPE svg PUBLIC "-//W3C//DTD SVG 20010904//EN"
 "http://www.w3.org/TR/2001/REC-SVG-20010904/DTD/svg10.dtd">
<svg version="1.0" xmlns="http://www.w3.org/2000/svg"
 width="256.000000pt" height="256.000000pt" viewBox="0 0 256.000000 256.000000"
 preserveAspectRatio="xMidYMid meet">

<g transform="translate(0.000000,256.000000) scale(0.100000,-0.100000)"
fill="#000000" stroke="none">
<path d="M0 2290 l0 -270 270 0 270 0 0 270 0 270 -270 0 -270 0 0 -270z m460
5 l0 -195 -195 0 -195 0 0 195 0 195 195 0 195 0 0 -195z"/>
<path d="M150 2295 l0 -115 115 0 115 0 0 115 0 115 -115 0 -115 0 0 -115z"/>
<path d="M690 2485 l0 -75 -35 0 -35 0 0 -80 0 -80 75 0 75 0 0 -35 c0 -34 -1
-35 -40 -35 l-40 0 0 -40 c0 -39 -1 -40 -35 -40 -34 0 -35 -1 -35 -40 0 -39 1
-40 35 -40 34 0 35 1 35 40 l0 40 40 0 40 0 0 -40 0 -40 40 0 40 0 0 -40 0
-40 -80 0 -80 0 0 -35 c0 -33 -2 -35 -35 -35 -33 0 -35 2 -35 35 l0 35 -80 0
-80 0 0 -35 c0 -34 -1 -35 -40 -35 -39 0 -40 1 -40 35 l0 35 -75 0 -75 0 0
-75 0 -75 -115 0 -115 0 0 -40 0 -40 115 0 115 0 0 -40 0 -40 -40 0 -40 0 0
-75 0 -75 40 0 40 0 0 -40 0 -40 -80 0 -80 0 0 40 c0 39 -1 40 -35 40 -34 0
-35 -1 -35 -40 0 -39 1 -40 35 -40 34 0 35 -1 35 -40 0 -39 -1 -40 -35 -40
l-35 0 0 -75 0 -75 35 0 35 0 0 75 0 75 40 0 40 0 0 -75 0 -75 80 0 80 0 0
-40 c0 -39 1 -40 35 -40 l35 0 0 80 0 80 -75 0 -75 0 0 35 0 35 75 0 75 0 0
80 0 80 40 0 40 0 0 -40 0 -40 40 0 40 0 0 40 0 40 40 0 40 0 0 -80 0 -80 35
0 c33 0 35 -2 35 -35 0 -33 -2 -35 -35 -35 -34 0 -35 -1 -35 -40 l0 -40 -80 0
-80 0 0 -40 0 -40 80 0 80 0 0 40 c0 39 1 40 35 40 34 0 35 1 35 40 l0 40 40
0 40 0 0 -80 0 -80 40 0 40 0 0 -40 0 -40 -40 0 c-39 0 -40 -1 -40 -35 l0 -35
195 0 195 0 0 -40 0 -40 40 0 40 0 0 -40 c0 -39 1 -40 35 -40 l35 0 0 80 0 80
40 0 c39 0 40 1 40 35 l0 35 115 0 115 0 0 40 0 40 -75 0 -75 0 0 40 0 40 155
0 155 0 0 -80 0 -80 40 0 c39 0 40 -1 40 -35 0 -33 2 -35 35 -35 34 0 35 -1
35 -40 0 -39 -1 -40 -35 -40 -34 0 -35 -1 -35 -40 0 -39 1 -40 35 -40 34 0 35
1 35 40 l0 40 40 0 40 0 0 -40 0 -40 40 0 40 0 0 -40 0 -40 -115 0 -115 0 0
-75 0 -75 -120 0 -120 0 0 -40 0 -40 80 0 80 0 0 -75 0 -75 40 0 40 0 0 -40 0
-40 75 0 75 0 0 40 0 40 40 0 40 0 0 -40 0 -40 40 0 40 0 0 -40 0 -40 75 0 75
0 0 -80 0 -80 40 0 40 0 0 40 0 40 80 0 80 0 0 80 0 80 -40 0 -40 0 0 115 0
115 -40 0 -40 0 0 40 0 40 -40 0 -40 0 0 75 0 75 40 0 c39 0 40 -1 40 -35 l0
-35 80 0 80 0 0 115 0 115 -120 0 -120 0 0 -80 0 -80 -75 0 -75 0 0 40 c0 39
1 40 35 40 l35 0 0 80 0 80 40 0 c39 0 40 1 40 35 0 34 1 35 40 35 39 0 40 -1
40 -35 l0 -35 80 0 80 0 0 35 c0 34 -1 35 -40 35 l-40 0 0 40 0 40 40 0 40 0
0 80 0 80 -40 0 c-39 0 -40 1 -40 35 0 34 1 35 40 35 l40 0 0 40 0 40 -40 0
-40 0 0 -40 0 -40 -40 0 -40 0 0 40 0 40 -80 0 -80 0 0 -40 c0 -39 -1 -40 -35
-40 l-35 0 0 80 0 80 35 0 c34 0 35 1 35 40 l0 40 40 0 c39 0 40 1 40 35 0 34
1 35 40 35 l40 0 0 40 0 40 80 0 80 0 0 40 0 40 -80 0 -80 0 0 -40 0 -40 -40
0 -40 0 0 -40 0 -40 -40 0 -40 0 0 40 c0 39 -1 40 -35 40 -34 0 -35 1 -35 40
l0 40 75 0 75 0 0 40 0 40 40 0 c39 0 40 1 40 35 l0 35 -80 0 -80 0 0 -35 0
-35 -75 0 -75 0 0 -120 0 -120 -40 0 -40 0 0 40 0 40 -40 0 -40 0 0 40 0 40
40 0 40 0 0 40 0 40 -40 0 -40 0 0 -40 c0 -39 -1 -40 -35 -40 -34 0 -35 1 -35
40 l0 40 -40 0 -40 0 0 -40 0 -40 -40 0 -40 0 0 40 0 40 -40 0 -40 0 0 -40 c0
-39 -1 -40 -35 -40 -34 0 -35 1 -35 40 l0 40 -40 0 -40 0 0 155 0 155 -40 0
c-39 0 -40 1 -40 35 0 34 -1 35 -40 35 -39 0 -40 -1 -40 -35 0 -33 -2 -35 -35
-35 l-35 0 0 -120 0 -120 -40 0 -40 0 0 120 0 120 -40 0 c-39 0 -40 1 -40 35
l0 35 80 0 80 0 0 40 0 40 75 0 75 0 0 40 0 40 -195 0 -195 0 0 40 0 40 80 0
80 0 0 35 0 35 -155 0 -155 0 0 -115 0 -115 -40 0 -40 0 0 115 0 115 -40 0
-40 0 0 -75z m310 -155 l0 -80 -35 0 c-33 0 -35 -2 -35 -35 0 -34 -1 -35 -40
-35 l-40 0 0 75 0 75 40 0 40 0 0 40 c0 39 1 40 35 40 l35 0 0 -80z m390 -230
l0 -80 -40 0 -40 0 0 80 0 80 40 0 40 0 0 -80z m-460 -40 l0 -40 -40 0 -40 0
0 40 0 40 40 0 40 0 0 -40z m150 -40 l0 -80 -40 0 c-39 0 -40 -1 -40 -35 l0
-35 155 0 155 0 0 35 c0 34 1 35 40 35 39 0 40 -1 40 -35 0 -34 -1 -35 -40
-35 l-40 0 0 -40 c0 -39 -1 -40 -35 -40 -34 0 -35 -1 -35 -40 0 -39 1 -40 35
-40 34 0 35 -1 35 -40 l0 -40 40 0 40 0 0 80 0 80 40 0 40 0 0 -80 0 -80 40 0
c39 0 40 -1 40 -35 0 -33 2 -35 35 -35 34 0 35 -1 35 -40 l0 -40 40 0 40 0 0
75 0 75 40 0 40 0 0 40 0 40 40 0 40 0 0 -75 0 -75 35 0 c33 0 35 2 35 35 0
34 1 35 40 35 39 0 40 -1 40 -35 0 -34 1 -35 40 -35 l40 0 0 -40 0 -40 -115 0
-115 0 0 -40 0 -40 -40 0 -40 0 0 -75 0 -75 40 0 c39 0 40 1 40 35 0 33 2 35
35 35 33 0 35 -2 35 -35 0 -34 1 -35 40 -35 l40 0 0 -40 0 -40 -40 0 -40 0 0
-40 0 -40 40 0 40 0 0 -40 0 -40 115 0 115 0 0 -35 0 -35 -115 0 -115 0 0 35
c0 34 -1 35 -40 35 l-40 0 0 40 c0 39 -1 40 -35 40 -34 0 -35 1 -35 40 l0 40
-40 0 -40 0 0 40 0 40 -80 0 -80 0 0 35 c0 33 -2 35 -35 35 -34 0 -35 1 -35
40 0 39 1 40 35 40 34 0 35 1 35 40 l0 40 -75 0 -75 0 0 -155 0 -155 -80 0
-80 0 0 40 0 40 -75 0 -75 0 0 -40 0 -40 40 0 40 0 0 -40 c0 -39 1 -40 35 -40
l35 0 0 -75 0 -75 -75 0 -75 0 0 35 c0 34 -1 35 -40 35 l-40 0 0 40 0 40 40 0
40 0 0 40 0 40 -80 0 -80 0 0 -40 c0 -39 -1 -40 -35 -40 -34 0 -35 1 -35 40
l0 40 -40 0 -40 0 0 40 0 40 -40 0 -40 0 0 115 0 115 40 0 40 0 0 155 0 155
-40 0 -40 0 0 40 0 40 40 0 40 0 0 -40 0 -40 40 0 40 0 0 75 0 75 35 0 35 0 0
80 0 80 40 0 40 0 0 -80z m-700 -230 l0 -80 -75 0 -75 0 0 40 0 40 40 0 40 0
0 40 c0 39 1 40 35 40 l35 0 0 -80z m240 40 l0 -40 -80 0 -80 0 0 40 0 40 80
0 80 0 0 -40z m1080 -80 l0 -40 -40 0 -40 0 0 40 0 40 40 0 40 0 0 -40z
m-1160 -80 l0 -40 -40 0 c-39 0 -40 -1 -40 -35 0 -34 1 -35 40 -35 l40 0 0
-40 0 -40 -40 0 -40 0 0 40 0 40 -40 0 c-39 0 -40 1 -40 35 0 34 1 35 40 35
l40 0 0 40 0 40 40 0 40 0 0 -40z m150 0 l0 -40 40 0 c39 0 40 -1 40 -35 l0
-35 -75 0 -75 0 0 75 0 75 35 0 c34 0 35 -1 35 -40z m-380 -115 l0 -75 -40 0
-40 0 0 75 0 75 40 0 40 0 0 -75z m1860 -270 c0 -34 -1 -35 -40 -35 -39 0 -40
1 -40 35 0 34 1 35 40 35 39 0 40 -1 40 -35z m230 -40 l0 -75 40 0 40 0 0 -40
0 -40 -40 0 -40 0 0 40 0 40 -40 0 -40 0 0 75 0 75 40 0 40 0 0 -75z m-160
-115 l0 -40 -75 0 -75 0 0 40 0 40 75 0 75 0 0 -40z m-70 -620 l0 -120 -120 0
-120 0 0 120 0 120 120 0 120 0 0 -120z m150 -80 l0 -40 40 0 c39 0 40 -1 40
-35 0 -34 -1 -35 -40 -35 -39 0 -40 1 -40 35 0 34 -1 35 -40 35 l-40 0 0 40 0
40 40 0 40 0 0 -40z m-80 -150 c0 -39 -1 -40 -35 -40 -34 0 -35 1 -35 40 0 39
1 40 35 40 34 0 35 -1 35 -40z m160 -80 l0 -40 -40 0 -40 0 0 40 0 40 40 0 40
0 0 -40z"/>
<path d="M930 1750 c0 -39 1 -40 35 -40 34 0 35 1 35 40 0 39 -1 40 -35 40
-34 0 -35 -1 -35 -40z"/>
<path d="M1080 1750 l0 -40 40 0 40 0 0 -40 0 -40 -40 0 -40 0 0 -75 0 -75
-40 0 -40 0 0 75 0 75 -35 0 -35 0 0 -75 0 -75 35 0 c34 0 35 -1 35 -40 l0
-40 40 0 40 0 0 -40 0 -40 80 0 80 0 0 40 c0 39 1 40 35 40 l35 0 0 115 0 115
-35 0 c-34 0 -35 1 -35 40 l0 40 -40 0 -40 0 0 40 0 40 -40 0 -40 0 0 -40z
m80 -310 l0 -40 -40 0 -40 0 0 40 0 40 40 0 40 0 0 -40z"/>
<path d="M1780 1520 l0 -40 40 0 40 0 0 40 0 40 -40 0 -40 0 0 -40z"/>
<path d="M850 1325 l0 -75 40 0 40 0 0 -40 c0 -39 1 -40 35 -40 34 0 35 1 35
40 0 39 -1 40 -35 40 l-35 0 0 75 0 75 -40 0 -40 0 0 -75z"/>
<path d="M1860 1210 c0 -39 1 -40 35 -40 34 0 35 1 35 40 0 39 -1 40 -35 40
-34 0 -35 -1 -35 -40z"/>
<path d="M1160 1050 l0 -40 40 0 40 0 0 40 0 40 -40 0 -40 0 0 -40z"/>
<path d="M2010 510 l0 -40 40 0 40 0 0 40 0 40 -40 0 -40 0 0 -40z"/>
<path d="M1240 2525 c0 -33 2 -35 35 -35 33 0 35 2 35 35 0 33 -2 35 -35 35
-33 0 -35 -2 -35 -35z"/>
<path d="M1390 2525 l0 -35 80 0 80 0 0 -40 0 -40 -40 0 -40 0 0 -80 0 -80 40
0 40 0 0 40 c0 39 1 40 35 40 l35 0 0 -115 0 -115 -35 0 -35 0 0 -80 0 -80 35
0 35 0 0 80 0 80 40 0 40 0 0 -40 0 -40 40 0 40 0 0 40 0 40 40 0 40 0 0 -80
0 -80 35 0 35 0 0 80 0 80 -35 0 c-34 0 -35 1 -35 40 0 39 1 40 35 40 33 0 35
2 35 35 0 33 -2 35 -35 35 -34 0 -35 1 -35 40 0 39 1 40 35 40 l35 0 0 115 0
115 -35 0 -35 0 0 -75 0 -75 -40 0 -40 0 0 75 0 75 -40 0 -40 0 0 -75 0 -75
-40 0 -40 0 0 75 0 75 -115 0 -115 0 0 -35z m390 -350 l0 -75 -40 0 -40 0 0
75 0 75 40 0 40 0 0 -75z"/>
<path d="M2010 2290 l0 -270 275 0 275 0 0 270 0 270 -275 0 -275 0 0 -270z
m470 5 l0 -195 -195 0 -195 0 0 195 0 195 195 0 195 0 0 -195z"/>
<path d="M2170 2295 l0 -115 115 0 115 0 0 115 0 115 -115 0 -115 0 0 -115z"/>
<path d="M0 1595 c0 -33 2 -35 35 -35 33 0 35 2 35 35 0 33 -2 35 -35 35 -33
0 -35 -2 -35 -35z"/>
<path d="M2480 1595 c0 -34 -1 -35 -40 -35 l-40 0 0 -40 0 -40 40 0 40 0 0 40
0 40 40 0 c39 0 40 1 40 35 0 34 -1 35 -40 35 -39 0 -40 -1 -40 -35z"/>
<path d="M460 1285 c0 -34 1 -35 40 -35 39 0 40 1 40 35 0 34 -1 35 -40 35
-39 0 -40 -1 -40 -35z"/>
<path d="M0 1050 c0 -39 1 -40 35 -40 33 0 35 -2 35 -35 0 -33 -2 -35 -35 -35
l-35 0 0 -155 0 -155 270 0 270 0 0 35 c0 34 1 35 40 35 l40 0 0 -115 0 -115
115 0 115 0 0 80 0 80 40 0 40 0 0 -40 c0 -39 1 -40 35 -40 34 0 35 -1 35 -40
l0 -40 80 0 80 0 0 -40 0 -40 -80 0 -80 0 0 -35 c0 -33 -2 -35 -35 -35 -33 0
-35 2 -35 35 0 34 -1 35 -40 35 -39 0 -40 -1 -40 -35 0 -34 1 -35 40 -35 l40
0 0 -40 0 -40 -40 0 -40 0 0 -40 0 -40 -40 0 -40 0 0 40 0 40 -40 0 -40 0 0
40 0 40 40 0 c39 0 40 1 40 35 l0 35 -75 0 -75 0 0 -75 0 -75 35 0 35 0 0
-120 0 -120 40 0 40 0 0 40 0 40 40 0 40 0 0 -40 0 -40 75 0 75 0 0 40 c0 39
-1 40 -35 40 l-35 0 0 80 0 80 35 0 c34 0 35 -1 35 -40 l0 -40 80 0 80 0 0
-40 0 -40 -40 0 -40 0 0 -40 0 -40 40 0 40 0 0 40 0 40 40 0 40 0 0 -40 c0
-39 1 -40 35 -40 34 0 35 1 35 40 0 39 -1 40 -35 40 l-35 0 0 80 0 80 35 0
c34 0 35 -1 35 -40 l0 -40 40 0 40 0 0 -80 0 -80 40 0 40 0 0 40 0 40 75 0 75
0 0 40 c0 39 -1 40 -35 40 -34 0 -35 1 -35 40 l0 40 75 0 75 0 0 -80 0 -80 40
0 40 0 0 -40 0 -40 75 0 75 0 0 40 c0 39 -1 40 -35 40 -34 0 -35 1 -35 40 l0
40 -40 0 -40 0 0 40 0 40 -40 0 -40 0 0 75 0 75 -40 0 c-39 0 -40 -1 -40 -35
0 -33 -2 -35 -35 -35 -34 0 -35 -1 -35 -40 l0 -40 -40 0 -40 0 0 40 0 40 -40
0 -40 0 0 75 0 75 -40 0 -40 0 0 40 0 40 40 0 40 0 0 40 0 40 40 0 40 0 0
-120 0 -120 40 0 40 0 0 120 0 120 35 0 35 0 0 75 0 75 -115 0 -115 0 0 -75 0
-75 -40 0 c-39 0 -40 1 -40 35 0 33 -2 35 -35 35 -33 0 -35 -2 -35 -35 l0 -35
-155 0 -155 0 0 75 0 75 -120 0 -120 0 0 40 c0 39 -1 40 -35 40 -34 0 -35 -1
-35 -40 l0 -40 -40 0 -40 0 0 40 0 40 -80 0 -80 0 0 -40 c0 -39 -1 -40 -35
-40 -34 0 -35 -1 -35 -40 l0 -40 -40 0 -40 0 0 40 0 40 -40 0 -40 0 0 -40 0
-40 -40 0 -40 0 0 80 0 80 40 0 40 0 0 40 0 40 40 0 40 0 0 -40 0 -40 40 0 40
0 0 75 0 75 -40 0 -40 0 0 40 0 40 -40 0 -40 0 0 -40 0 -40 -40 0 -40 0 0 40
c0 39 -1 40 -35 40 -34 0 -35 -1 -35 -40z m540 -310 l0 -40 -40 0 -40 0 0 40
0 40 40 0 40 0 0 -40z m310 -75 c0 -34 -1 -35 -40 -35 l-40 0 0 -40 0 -40 -40
0 -40 0 0 75 0 75 80 0 80 0 0 -35z m700 0 c0 -34 -1 -35 -40 -35 -39 0 -40 1
-40 35 0 34 1 35 40 35 39 0 40 -1 40 -35z m-240 -75 c0 -39 -1 -40 -35 -40
-34 0 -35 1 -35 40 0 39 1 40 35 40 34 0 35 -1 35 -40z m0 -195 l0 -75 -35 0
-35 0 0 75 0 75 35 0 35 0 0 -75z m-150 -115 l0 -40 -40 0 -40 0 0 40 0 40 40
0 40 0 0 -40z m310 -80 l0 -40 -40 0 -40 0 0 40 0 40 40 0 40 0 0 -40z"/>
<path d="M380 975 l0 -35 120 0 120 0 0 35 0 35 -120 0 -120 0 0 -35z"/>
<path d="M1470 900 l0 -40 155 0 155 0 0 40 0 40 -155 0 -155 0 0 -40z"/>
<path d="M1000 780 l0 -80 80 0 80 0 0 40 0 40 -40 0 -40 0 0 40 0 40 -40 0
-40 0 0 -80z"/>
<path d="M1700 740 l0 -40 40 0 40 0 0 40 0 40 -40 0 -40 0 0 -40z"/>
<path d="M0 275 l0 -275 270 0 270 0 0 275 0 275 -270 0 -270 0 0 -275z m460
0 l0 -195 -195 0 -195 0 0 195 0 195 195 0 195 0 0 -195z"/>
<path d="M150 275 l0 -115 115 0 115 0 0 115 0 115 -115 0 -115 0 0 -115z"/>
<path d="M2010 120 l0 -40 40 0 40 0 0 40 0 40 -40 0 -40 0 0 -40z"/>
<path d="M2170 40 c0 -39 1 -40 35 -40 34 0 35 1 35 40 0 39 -1 40 -35 40 -34
0 -35 -1 -35 -40z"/>
</g>
</svg>
