%FSLAX45Y45*%
G04 Gerber Fmt 4.5, Leading zero omitted, Abs format (unit mm)*
G04 Created by KiCad (PCBNEW 6.0.2+dfsg-1) date 2022-09-12 11:49:23*
%MOMM*%
%LPD*%
G01*
G04 APERTURE LIST*
%ADD10C,0.200000*%
%ADD11C,0.040000*%
%ADD12C,0.070000*%
%ADD13C,0.100000*%
%ADD14C,0.102000*%
%ADD15C,0.317000*%
%ADD16C,0.317500*%
G04 APERTURE END LIST*
D10*
D11*
X12383000Y-7548400D02*
X12423000Y-7588400D01*
X12423000Y-7548400D02*
X12383000Y-7588400D01*
X12383000Y-7650000D02*
X12423000Y-7690000D01*
X12423000Y-7650000D02*
X12383000Y-7690000D01*
X12840200Y-7650000D02*
X12880200Y-7690000D01*
X12880200Y-7650000D02*
X12840200Y-7690000D01*
X13018000Y-7650000D02*
X13058000Y-7690000D01*
X13058000Y-7650000D02*
X13018000Y-7690000D01*
X14592366Y-12628400D02*
X14632366Y-12668400D01*
X14632366Y-12628400D02*
X14592366Y-12668400D01*
X14694400Y-12628400D02*
X14734400Y-12668400D01*
X14734400Y-12628400D02*
X14694400Y-12668400D01*
X14796000Y-12628400D02*
X14836000Y-12668400D01*
X14836000Y-12628400D02*
X14796000Y-12668400D01*
X14864400Y-10800400D02*
X14904400Y-10840400D01*
X14904400Y-10800400D02*
X14864400Y-10840400D01*
X15215100Y-10913900D02*
X15255100Y-10953900D01*
X15255100Y-10913900D02*
X15215100Y-10953900D01*
X15953800Y-12365400D02*
X15993800Y-12405400D01*
X15993800Y-12365400D02*
X15953800Y-12405400D01*
X15953800Y-12525400D02*
X15993800Y-12565400D01*
X15993800Y-12525400D02*
X15953800Y-12565400D01*
X15953800Y-12685400D02*
X15993800Y-12725400D01*
X15993800Y-12685400D02*
X15953800Y-12725400D01*
X16027900Y-11536200D02*
X16067900Y-11576200D01*
X16067900Y-11536200D02*
X16027900Y-11576200D01*
X17202100Y-10437100D02*
X17242100Y-10477100D01*
X17242100Y-10437100D02*
X17202100Y-10477100D01*
X17223800Y-7145400D02*
X17263800Y-7185400D01*
X17263800Y-7145400D02*
X17223800Y-7185400D01*
X17291000Y-10348200D02*
X17331000Y-10388200D01*
X17331000Y-10348200D02*
X17291000Y-10388200D01*
X17323800Y-7145400D02*
X17363800Y-7185400D01*
X17363800Y-7145400D02*
X17323800Y-7185400D01*
X17367200Y-10272000D02*
X17407200Y-10312000D01*
X17407200Y-10272000D02*
X17367200Y-10312000D01*
X17423800Y-7145400D02*
X17463800Y-7185400D01*
X17463800Y-7145400D02*
X17423800Y-7185400D01*
X17523800Y-7145400D02*
X17563800Y-7185400D01*
X17563800Y-7145400D02*
X17523800Y-7185400D01*
D12*
X13852600Y-11684000D02*
G75*
G03*
X13852600Y-11684000I-35000J0D01*
G01*
X14157400Y-9652000D02*
G75*
G03*
X14157400Y-9652000I-35000J0D01*
G01*
X14157400Y-10160000D02*
G75*
G03*
X14157400Y-10160000I-35000J0D01*
G01*
X14360600Y-11684000D02*
G75*
G03*
X14360600Y-11684000I-35000J0D01*
G01*
X15630600Y-10160000D02*
G75*
G03*
X15630600Y-10160000I-35000J0D01*
G01*
X15833800Y-11582400D02*
G75*
G03*
X15833800Y-11582400I-35000J0D01*
G01*
X15833800Y-12090400D02*
G75*
G03*
X15833800Y-12090400I-35000J0D01*
G01*
X16138600Y-10160000D02*
G75*
G03*
X16138600Y-10160000I-35000J0D01*
G01*
D13*
X12709300Y-6781800D02*
X12709300Y-6881800D01*
X12659300Y-6831800D02*
X12759300Y-6831800D01*
X12709300Y-7188200D02*
X12709300Y-7288200D01*
X12659300Y-7238200D02*
X12759300Y-7238200D01*
X12963300Y-6781800D02*
X12963300Y-6881800D01*
X12913300Y-6831800D02*
X13013300Y-6831800D01*
X12963300Y-7188200D02*
X12963300Y-7288200D01*
X12913300Y-7238200D02*
X13013300Y-7238200D01*
X13217300Y-6781800D02*
X13217300Y-6881800D01*
X13167300Y-6831800D02*
X13267300Y-6831800D01*
X13217300Y-7188200D02*
X13217300Y-7288200D01*
X13167300Y-7238200D02*
X13267300Y-7238200D01*
D14*
X14110863Y-4165463D02*
X14110863Y-4093337D01*
X14038737Y-4093337D01*
X14038737Y-4165463D01*
X14110863Y-4165463D01*
X14110863Y-4419463D02*
X14110863Y-4347337D01*
X14038737Y-4347337D01*
X14038737Y-4419463D01*
X14110863Y-4419463D01*
X14110863Y-4673463D02*
X14110863Y-4601337D01*
X14038737Y-4601337D01*
X14038737Y-4673463D01*
X14110863Y-4673463D01*
X14110863Y-4927463D02*
X14110863Y-4855337D01*
X14038737Y-4855337D01*
X14038737Y-4927463D01*
X14110863Y-4927463D01*
X14110863Y-5181463D02*
X14110863Y-5109337D01*
X14038737Y-5109337D01*
X14038737Y-5181463D01*
X14110863Y-5181463D01*
X14110863Y-5435463D02*
X14110863Y-5363337D01*
X14038737Y-5363337D01*
X14038737Y-5435463D01*
X14110863Y-5435463D01*
X14110863Y-5689463D02*
X14110863Y-5617337D01*
X14038737Y-5617337D01*
X14038737Y-5689463D01*
X14110863Y-5689463D01*
X14110863Y-5943463D02*
X14110863Y-5871337D01*
X14038737Y-5871337D01*
X14038737Y-5943463D01*
X14110863Y-5943463D01*
X14110863Y-6197463D02*
X14110863Y-6125337D01*
X14038737Y-6125337D01*
X14038737Y-6197463D01*
X14110863Y-6197463D01*
X14110863Y-6451463D02*
X14110863Y-6379337D01*
X14038737Y-6379337D01*
X14038737Y-6451463D01*
X14110863Y-6451463D01*
X14110863Y-6705463D02*
X14110863Y-6633337D01*
X14038737Y-6633337D01*
X14038737Y-6705463D01*
X14110863Y-6705463D01*
X14110863Y-6959463D02*
X14110863Y-6887337D01*
X14038737Y-6887337D01*
X14038737Y-6959463D01*
X14110863Y-6959463D01*
X14110863Y-7213463D02*
X14110863Y-7141337D01*
X14038737Y-7141337D01*
X14038737Y-7213463D01*
X14110863Y-7213463D01*
X14110863Y-7467463D02*
X14110863Y-7395337D01*
X14038737Y-7395337D01*
X14038737Y-7467463D01*
X14110863Y-7467463D01*
X14110863Y-7721463D02*
X14110863Y-7649337D01*
X14038737Y-7649337D01*
X14038737Y-7721463D01*
X14110863Y-7721463D01*
X14110863Y-7975463D02*
X14110863Y-7903337D01*
X14038737Y-7903337D01*
X14038737Y-7975463D01*
X14110863Y-7975463D01*
X14110863Y-8229463D02*
X14110863Y-8157337D01*
X14038737Y-8157337D01*
X14038737Y-8229463D01*
X14110863Y-8229463D01*
X14110863Y-8483463D02*
X14110863Y-8411337D01*
X14038737Y-8411337D01*
X14038737Y-8483463D01*
X14110863Y-8483463D01*
X14110863Y-8737463D02*
X14110863Y-8665337D01*
X14038737Y-8665337D01*
X14038737Y-8737463D01*
X14110863Y-8737463D01*
X14110863Y-8991463D02*
X14110863Y-8919337D01*
X14038737Y-8919337D01*
X14038737Y-8991463D01*
X14110863Y-8991463D01*
X14745863Y-8968463D02*
X14745863Y-8896337D01*
X14673737Y-8896337D01*
X14673737Y-8968463D01*
X14745863Y-8968463D01*
X14999863Y-8968463D02*
X14999863Y-8896337D01*
X14927737Y-8896337D01*
X14927737Y-8968463D01*
X14999863Y-8968463D01*
X15253863Y-8968463D02*
X15253863Y-8896337D01*
X15181737Y-8896337D01*
X15181737Y-8968463D01*
X15253863Y-8968463D01*
X15888863Y-4165463D02*
X15888863Y-4093337D01*
X15816737Y-4093337D01*
X15816737Y-4165463D01*
X15888863Y-4165463D01*
X15888863Y-4419463D02*
X15888863Y-4347337D01*
X15816737Y-4347337D01*
X15816737Y-4419463D01*
X15888863Y-4419463D01*
X15888863Y-4673463D02*
X15888863Y-4601337D01*
X15816737Y-4601337D01*
X15816737Y-4673463D01*
X15888863Y-4673463D01*
X15888863Y-4927463D02*
X15888863Y-4855337D01*
X15816737Y-4855337D01*
X15816737Y-4927463D01*
X15888863Y-4927463D01*
X15888863Y-5181463D02*
X15888863Y-5109337D01*
X15816737Y-5109337D01*
X15816737Y-5181463D01*
X15888863Y-5181463D01*
X15888863Y-5435463D02*
X15888863Y-5363337D01*
X15816737Y-5363337D01*
X15816737Y-5435463D01*
X15888863Y-5435463D01*
X15888863Y-5689463D02*
X15888863Y-5617337D01*
X15816737Y-5617337D01*
X15816737Y-5689463D01*
X15888863Y-5689463D01*
X15888863Y-5943463D02*
X15888863Y-5871337D01*
X15816737Y-5871337D01*
X15816737Y-5943463D01*
X15888863Y-5943463D01*
X15888863Y-6197463D02*
X15888863Y-6125337D01*
X15816737Y-6125337D01*
X15816737Y-6197463D01*
X15888863Y-6197463D01*
X15888863Y-6451463D02*
X15888863Y-6379337D01*
X15816737Y-6379337D01*
X15816737Y-6451463D01*
X15888863Y-6451463D01*
X15888863Y-6705463D02*
X15888863Y-6633337D01*
X15816737Y-6633337D01*
X15816737Y-6705463D01*
X15888863Y-6705463D01*
X15888863Y-6959463D02*
X15888863Y-6887337D01*
X15816737Y-6887337D01*
X15816737Y-6959463D01*
X15888863Y-6959463D01*
X15888863Y-7213463D02*
X15888863Y-7141337D01*
X15816737Y-7141337D01*
X15816737Y-7213463D01*
X15888863Y-7213463D01*
X15888863Y-7467463D02*
X15888863Y-7395337D01*
X15816737Y-7395337D01*
X15816737Y-7467463D01*
X15888863Y-7467463D01*
X15888863Y-7721463D02*
X15888863Y-7649337D01*
X15816737Y-7649337D01*
X15816737Y-7721463D01*
X15888863Y-7721463D01*
X15888863Y-7975463D02*
X15888863Y-7903337D01*
X15816737Y-7903337D01*
X15816737Y-7975463D01*
X15888863Y-7975463D01*
X15888863Y-8229463D02*
X15888863Y-8157337D01*
X15816737Y-8157337D01*
X15816737Y-8229463D01*
X15888863Y-8229463D01*
X15888863Y-8483463D02*
X15888863Y-8411337D01*
X15816737Y-8411337D01*
X15816737Y-8483463D01*
X15888863Y-8483463D01*
X15888863Y-8737463D02*
X15888863Y-8665337D01*
X15816737Y-8665337D01*
X15816737Y-8737463D01*
X15888863Y-8737463D01*
X15888863Y-8991463D02*
X15888863Y-8919337D01*
X15816737Y-8919337D01*
X15816737Y-8991463D01*
X15888863Y-8991463D01*
D15*
X11153599Y-7525894D02*
X11312099Y-7367394D01*
X11153599Y-7208894D01*
X10995099Y-7367394D01*
X11153599Y-7525894D01*
X11153599Y-9221906D02*
X11312099Y-9063406D01*
X11153599Y-8904906D01*
X10995099Y-9063406D01*
X11153599Y-9221906D01*
X11651991Y-6179636D02*
X11810491Y-6021136D01*
X11651991Y-5862636D01*
X11493491Y-6021136D01*
X11651991Y-6179636D01*
X11801991Y-10668164D02*
X11960491Y-10509664D01*
X11801991Y-10351164D01*
X11643491Y-10509664D01*
X11801991Y-10668164D01*
X12751460Y-11835272D02*
X12909960Y-11676772D01*
X12751460Y-11518272D01*
X12592960Y-11676772D01*
X12751460Y-11835272D01*
X12799464Y-5082141D02*
X12957964Y-4923641D01*
X12799464Y-4765141D01*
X12640964Y-4923641D01*
X12799464Y-5082141D01*
X13103800Y-14823900D02*
X13262300Y-14665400D01*
X13103800Y-14506900D01*
X12945300Y-14665400D01*
X13103800Y-14823900D01*
X13103800Y-15523900D02*
X13262300Y-15365400D01*
X13103800Y-15206900D01*
X12945300Y-15365400D01*
X13103800Y-15523900D01*
X13109800Y-14123900D02*
X13268300Y-13965400D01*
X13109800Y-13806900D01*
X12951300Y-13965400D01*
X13109800Y-14123900D01*
X14095536Y-16464052D02*
X14254036Y-16305552D01*
X14095536Y-16147052D01*
X13937036Y-16305552D01*
X14095536Y-16464052D01*
X15892063Y-16464052D02*
X16050563Y-16305552D01*
X15892063Y-16147052D01*
X15733563Y-16305552D01*
X15892063Y-16464052D01*
X16833800Y-14073900D02*
X16992300Y-13915400D01*
X16833800Y-13756900D01*
X16675300Y-13915400D01*
X16833800Y-14073900D01*
X16833800Y-14773900D02*
X16992300Y-14615400D01*
X16833800Y-14456900D01*
X16675300Y-14615400D01*
X16833800Y-14773900D01*
X16833800Y-15473900D02*
X16992300Y-15315400D01*
X16833800Y-15156900D01*
X16675300Y-15315400D01*
X16833800Y-15473900D01*
X17152800Y-12019500D02*
X17311300Y-11861000D01*
X17152800Y-11702500D01*
X16994300Y-11861000D01*
X17152800Y-12019500D01*
X17238501Y-5082381D02*
X17397001Y-4923881D01*
X17238501Y-4765381D01*
X17080001Y-4923881D01*
X17238501Y-5082381D01*
X18235659Y-10668093D02*
X18394159Y-10509593D01*
X18235659Y-10351093D01*
X18077159Y-10509593D01*
X18235659Y-10668093D01*
X18285609Y-6179636D02*
X18444109Y-6021136D01*
X18285609Y-5862636D01*
X18127109Y-6021136D01*
X18285609Y-6179636D01*
X18833984Y-7525808D02*
X18992484Y-7367308D01*
X18833984Y-7208808D01*
X18675484Y-7367308D01*
X18833984Y-7525808D01*
X18834001Y-9221906D02*
X18992501Y-9063406D01*
X18834001Y-8904906D01*
X18675501Y-9063406D01*
X18834001Y-9221906D01*
D16*
X12585050Y-9056650D02*
X12902550Y-9374150D01*
X12902550Y-9056650D02*
X12585050Y-9374150D01*
X12902550Y-9215400D02*
G75*
G03*
X12902550Y-9215400I-158750J0D01*
G01*
X12585050Y-9556650D02*
X12902550Y-9874150D01*
X12902550Y-9556650D02*
X12585050Y-9874150D01*
X12902550Y-9715400D02*
G75*
G03*
X12902550Y-9715400I-158750J0D01*
G01*
X13689050Y-10756650D02*
X14006550Y-11074150D01*
X14006550Y-10756650D02*
X13689050Y-11074150D01*
X14006550Y-10915400D02*
G75*
G03*
X14006550Y-10915400I-158750J0D01*
G01*
X13785050Y-13806650D02*
X14102550Y-14124150D01*
X14102550Y-13806650D02*
X13785050Y-14124150D01*
X14102550Y-13965400D02*
G75*
G03*
X14102550Y-13965400I-158750J0D01*
G01*
X13785050Y-14506650D02*
X14102550Y-14824150D01*
X14102550Y-14506650D02*
X13785050Y-14824150D01*
X14102550Y-14665400D02*
G75*
G03*
X14102550Y-14665400I-158750J0D01*
G01*
X13785050Y-15206650D02*
X14102550Y-15524150D01*
X14102550Y-15206650D02*
X13785050Y-15524150D01*
X14102550Y-15365400D02*
G75*
G03*
X14102550Y-15365400I-158750J0D01*
G01*
X14189050Y-10756650D02*
X14506550Y-11074150D01*
X14506550Y-10756650D02*
X14189050Y-11074150D01*
X14506550Y-10915400D02*
G75*
G03*
X14506550Y-10915400I-158750J0D01*
G01*
X14285050Y-13806650D02*
X14602550Y-14124150D01*
X14602550Y-13806650D02*
X14285050Y-14124150D01*
X14602550Y-13965400D02*
G75*
G03*
X14602550Y-13965400I-158750J0D01*
G01*
X14285050Y-14506650D02*
X14602550Y-14824150D01*
X14602550Y-14506650D02*
X14285050Y-14824150D01*
X14602550Y-14665400D02*
G75*
G03*
X14602550Y-14665400I-158750J0D01*
G01*
X14285050Y-15206650D02*
X14602550Y-15524150D01*
X14602550Y-15206650D02*
X14285050Y-15524150D01*
X14602550Y-15365400D02*
G75*
G03*
X14602550Y-15365400I-158750J0D01*
G01*
X14835050Y-9635650D02*
X15152550Y-9953150D01*
X15152550Y-9635650D02*
X14835050Y-9953150D01*
X15152550Y-9794400D02*
G75*
G03*
X15152550Y-9794400I-158750J0D01*
G01*
X14835050Y-10135650D02*
X15152550Y-10453150D01*
X15152550Y-10135650D02*
X14835050Y-10453150D01*
X15152550Y-10294400D02*
G75*
G03*
X15152550Y-10294400I-158750J0D01*
G01*
X14835050Y-11402650D02*
X15152550Y-11720150D01*
X15152550Y-11402650D02*
X14835050Y-11720150D01*
X15152550Y-11561400D02*
G75*
G03*
X15152550Y-11561400I-158750J0D01*
G01*
X14835050Y-11902650D02*
X15152550Y-12220150D01*
X15152550Y-11902650D02*
X14835050Y-12220150D01*
X15152550Y-12061400D02*
G75*
G03*
X15152550Y-12061400I-158750J0D01*
G01*
X15335050Y-13756650D02*
X15652550Y-14074150D01*
X15652550Y-13756650D02*
X15335050Y-14074150D01*
X15652550Y-13915400D02*
G75*
G03*
X15652550Y-13915400I-158750J0D01*
G01*
X15335050Y-14456650D02*
X15652550Y-14774150D01*
X15652550Y-14456650D02*
X15335050Y-14774150D01*
X15652550Y-14615400D02*
G75*
G03*
X15652550Y-14615400I-158750J0D01*
G01*
X15335050Y-15156650D02*
X15652550Y-15474150D01*
X15652550Y-15156650D02*
X15335050Y-15474150D01*
X15652550Y-15315400D02*
G75*
G03*
X15652550Y-15315400I-158750J0D01*
G01*
X15456050Y-10756650D02*
X15773550Y-11074150D01*
X15773550Y-10756650D02*
X15456050Y-11074150D01*
X15773550Y-10915400D02*
G75*
G03*
X15773550Y-10915400I-158750J0D01*
G01*
X15835050Y-13756650D02*
X16152550Y-14074150D01*
X16152550Y-13756650D02*
X15835050Y-14074150D01*
X16152550Y-13915400D02*
G75*
G03*
X16152550Y-13915400I-158750J0D01*
G01*
X15835050Y-14456650D02*
X16152550Y-14774150D01*
X16152550Y-14456650D02*
X15835050Y-14774150D01*
X16152550Y-14615400D02*
G75*
G03*
X16152550Y-14615400I-158750J0D01*
G01*
X15835050Y-15156650D02*
X16152550Y-15474150D01*
X16152550Y-15156650D02*
X15835050Y-15474150D01*
X16152550Y-15315400D02*
G75*
G03*
X16152550Y-15315400I-158750J0D01*
G01*
X15956050Y-10756650D02*
X16273550Y-11074150D01*
X16273550Y-10756650D02*
X15956050Y-11074150D01*
X16273550Y-10915400D02*
G75*
G03*
X16273550Y-10915400I-158750J0D01*
G01*
X17085050Y-9056650D02*
X17402550Y-9374150D01*
X17402550Y-9056650D02*
X17085050Y-9374150D01*
X17402550Y-9215400D02*
G75*
G03*
X17402550Y-9215400I-158750J0D01*
G01*
X17085050Y-9556650D02*
X17402550Y-9874150D01*
X17402550Y-9556650D02*
X17085050Y-9874150D01*
X17402550Y-9715400D02*
G75*
G03*
X17402550Y-9715400I-158750J0D01*
G01*
D10*
X10858842Y-17218504D02*
X10858842Y-17018504D01*
X10906461Y-17018504D01*
X10935033Y-17028028D01*
X10954081Y-17047076D01*
X10963604Y-17066123D01*
X10973128Y-17104218D01*
X10973128Y-17132790D01*
X10963604Y-17170885D01*
X10954081Y-17189933D01*
X10935033Y-17208980D01*
X10906461Y-17218504D01*
X10858842Y-17218504D01*
X11058842Y-17218504D02*
X11058842Y-17085171D01*
X11058842Y-17123266D02*
X11068366Y-17104218D01*
X11077890Y-17094695D01*
X11096938Y-17085171D01*
X11115985Y-17085171D01*
X11182652Y-17218504D02*
X11182652Y-17085171D01*
X11182652Y-17018504D02*
X11173128Y-17028028D01*
X11182652Y-17037552D01*
X11192176Y-17028028D01*
X11182652Y-17018504D01*
X11182652Y-17037552D01*
X11306461Y-17218504D02*
X11287414Y-17208980D01*
X11277890Y-17189933D01*
X11277890Y-17018504D01*
X11411223Y-17218504D02*
X11392176Y-17208980D01*
X11382652Y-17189933D01*
X11382652Y-17018504D01*
X11639795Y-17218504D02*
X11639795Y-17018504D01*
X11706461Y-17161361D01*
X11773128Y-17018504D01*
X11773128Y-17218504D01*
X11954080Y-17218504D02*
X11954080Y-17113742D01*
X11944557Y-17094695D01*
X11925509Y-17085171D01*
X11887414Y-17085171D01*
X11868366Y-17094695D01*
X11954080Y-17208980D02*
X11935033Y-17218504D01*
X11887414Y-17218504D01*
X11868366Y-17208980D01*
X11858842Y-17189933D01*
X11858842Y-17170885D01*
X11868366Y-17151838D01*
X11887414Y-17142314D01*
X11935033Y-17142314D01*
X11954080Y-17132790D01*
X12049319Y-17085171D02*
X12049319Y-17285171D01*
X12049319Y-17094695D02*
X12068366Y-17085171D01*
X12106461Y-17085171D01*
X12125509Y-17094695D01*
X12135033Y-17104218D01*
X12144557Y-17123266D01*
X12144557Y-17180409D01*
X12135033Y-17199457D01*
X12125509Y-17208980D01*
X12106461Y-17218504D01*
X12068366Y-17218504D01*
X12049319Y-17208980D01*
X12230271Y-17199457D02*
X12239795Y-17208980D01*
X12230271Y-17218504D01*
X12220747Y-17208980D01*
X12230271Y-17199457D01*
X12230271Y-17218504D01*
X12230271Y-17094695D02*
X12239795Y-17104218D01*
X12230271Y-17113742D01*
X12220747Y-17104218D01*
X12230271Y-17094695D01*
X12230271Y-17113742D01*
D11*
X10561223Y-17528028D02*
X10601223Y-17568028D01*
X10601223Y-17528028D02*
X10561223Y-17568028D01*
D10*
X10896938Y-17438504D02*
X10915985Y-17438504D01*
X10935033Y-17448028D01*
X10944557Y-17457552D01*
X10954081Y-17476599D01*
X10963604Y-17514695D01*
X10963604Y-17562314D01*
X10954081Y-17600409D01*
X10944557Y-17619457D01*
X10935033Y-17628980D01*
X10915985Y-17638504D01*
X10896938Y-17638504D01*
X10877890Y-17628980D01*
X10868366Y-17619457D01*
X10858842Y-17600409D01*
X10849319Y-17562314D01*
X10849319Y-17514695D01*
X10858842Y-17476599D01*
X10868366Y-17457552D01*
X10877890Y-17448028D01*
X10896938Y-17438504D01*
X11049319Y-17619457D02*
X11058842Y-17628980D01*
X11049319Y-17638504D01*
X11039795Y-17628980D01*
X11049319Y-17619457D01*
X11049319Y-17638504D01*
X11230271Y-17505171D02*
X11230271Y-17638504D01*
X11182652Y-17428980D02*
X11135033Y-17571838D01*
X11258842Y-17571838D01*
X11373128Y-17438504D02*
X11392176Y-17438504D01*
X11411223Y-17448028D01*
X11420747Y-17457552D01*
X11430271Y-17476599D01*
X11439795Y-17514695D01*
X11439795Y-17562314D01*
X11430271Y-17600409D01*
X11420747Y-17619457D01*
X11411223Y-17628980D01*
X11392176Y-17638504D01*
X11373128Y-17638504D01*
X11354080Y-17628980D01*
X11344557Y-17619457D01*
X11335033Y-17600409D01*
X11325509Y-17562314D01*
X11325509Y-17514695D01*
X11335033Y-17476599D01*
X11344557Y-17457552D01*
X11354080Y-17448028D01*
X11373128Y-17438504D01*
X11563604Y-17438504D02*
X11582652Y-17438504D01*
X11601699Y-17448028D01*
X11611223Y-17457552D01*
X11620747Y-17476599D01*
X11630271Y-17514695D01*
X11630271Y-17562314D01*
X11620747Y-17600409D01*
X11611223Y-17619457D01*
X11601699Y-17628980D01*
X11582652Y-17638504D01*
X11563604Y-17638504D01*
X11544557Y-17628980D01*
X11535033Y-17619457D01*
X11525509Y-17600409D01*
X11515985Y-17562314D01*
X11515985Y-17514695D01*
X11525509Y-17476599D01*
X11535033Y-17457552D01*
X11544557Y-17448028D01*
X11563604Y-17438504D01*
X11715985Y-17638504D02*
X11715985Y-17505171D01*
X11715985Y-17524218D02*
X11725509Y-17514695D01*
X11744557Y-17505171D01*
X11773128Y-17505171D01*
X11792176Y-17514695D01*
X11801699Y-17533742D01*
X11801699Y-17638504D01*
X11801699Y-17533742D02*
X11811223Y-17514695D01*
X11830271Y-17505171D01*
X11858842Y-17505171D01*
X11877890Y-17514695D01*
X11887414Y-17533742D01*
X11887414Y-17638504D01*
X11982652Y-17638504D02*
X11982652Y-17505171D01*
X11982652Y-17524218D02*
X11992176Y-17514695D01*
X12011223Y-17505171D01*
X12039795Y-17505171D01*
X12058842Y-17514695D01*
X12068366Y-17533742D01*
X12068366Y-17638504D01*
X12068366Y-17533742D02*
X12077890Y-17514695D01*
X12096938Y-17505171D01*
X12125509Y-17505171D01*
X12144557Y-17514695D01*
X12154080Y-17533742D01*
X12154080Y-17638504D01*
X12544557Y-17428980D02*
X12373128Y-17686123D01*
X12801699Y-17438504D02*
X12820747Y-17438504D01*
X12839795Y-17448028D01*
X12849319Y-17457552D01*
X12858842Y-17476599D01*
X12868366Y-17514695D01*
X12868366Y-17562314D01*
X12858842Y-17600409D01*
X12849319Y-17619457D01*
X12839795Y-17628980D01*
X12820747Y-17638504D01*
X12801699Y-17638504D01*
X12782652Y-17628980D01*
X12773128Y-17619457D01*
X12763604Y-17600409D01*
X12754080Y-17562314D01*
X12754080Y-17514695D01*
X12763604Y-17476599D01*
X12773128Y-17457552D01*
X12782652Y-17448028D01*
X12801699Y-17438504D01*
X12954080Y-17619457D02*
X12963604Y-17628980D01*
X12954080Y-17638504D01*
X12944557Y-17628980D01*
X12954080Y-17619457D01*
X12954080Y-17638504D01*
X13087414Y-17438504D02*
X13106461Y-17438504D01*
X13125509Y-17448028D01*
X13135033Y-17457552D01*
X13144557Y-17476599D01*
X13154080Y-17514695D01*
X13154080Y-17562314D01*
X13144557Y-17600409D01*
X13135033Y-17619457D01*
X13125509Y-17628980D01*
X13106461Y-17638504D01*
X13087414Y-17638504D01*
X13068366Y-17628980D01*
X13058842Y-17619457D01*
X13049319Y-17600409D01*
X13039795Y-17562314D01*
X13039795Y-17514695D01*
X13049319Y-17476599D01*
X13058842Y-17457552D01*
X13068366Y-17448028D01*
X13087414Y-17438504D01*
X13344557Y-17638504D02*
X13230271Y-17638504D01*
X13287414Y-17638504D02*
X13287414Y-17438504D01*
X13268366Y-17467076D01*
X13249319Y-17486123D01*
X13230271Y-17495647D01*
X13525509Y-17438504D02*
X13430271Y-17438504D01*
X13420747Y-17533742D01*
X13430271Y-17524218D01*
X13449319Y-17514695D01*
X13496938Y-17514695D01*
X13515985Y-17524218D01*
X13525509Y-17533742D01*
X13535033Y-17552790D01*
X13535033Y-17600409D01*
X13525509Y-17619457D01*
X13515985Y-17628980D01*
X13496938Y-17638504D01*
X13449319Y-17638504D01*
X13430271Y-17628980D01*
X13420747Y-17619457D01*
X13601699Y-17438504D02*
X13735033Y-17438504D01*
X13649319Y-17638504D01*
X13801699Y-17438504D02*
X13801699Y-17476599D01*
X13877890Y-17438504D02*
X13877890Y-17476599D01*
X14173128Y-17714695D02*
X14163604Y-17705171D01*
X14144557Y-17676599D01*
X14135033Y-17657552D01*
X14125509Y-17628980D01*
X14115985Y-17581361D01*
X14115985Y-17543266D01*
X14125509Y-17495647D01*
X14135033Y-17467076D01*
X14144557Y-17448028D01*
X14163604Y-17419457D01*
X14173128Y-17409933D01*
X14239795Y-17457552D02*
X14249319Y-17448028D01*
X14268366Y-17438504D01*
X14315985Y-17438504D01*
X14335033Y-17448028D01*
X14344557Y-17457552D01*
X14354080Y-17476599D01*
X14354080Y-17495647D01*
X14344557Y-17524218D01*
X14230271Y-17638504D01*
X14354080Y-17638504D01*
X14477890Y-17438504D02*
X14496938Y-17438504D01*
X14515985Y-17448028D01*
X14525509Y-17457552D01*
X14535033Y-17476599D01*
X14544557Y-17514695D01*
X14544557Y-17562314D01*
X14535033Y-17600409D01*
X14525509Y-17619457D01*
X14515985Y-17628980D01*
X14496938Y-17638504D01*
X14477890Y-17638504D01*
X14458842Y-17628980D01*
X14449319Y-17619457D01*
X14439795Y-17600409D01*
X14430271Y-17562314D01*
X14430271Y-17514695D01*
X14439795Y-17476599D01*
X14449319Y-17457552D01*
X14458842Y-17448028D01*
X14477890Y-17438504D01*
X14782652Y-17638504D02*
X14782652Y-17438504D01*
X14868366Y-17638504D02*
X14868366Y-17533742D01*
X14858842Y-17514695D01*
X14839795Y-17505171D01*
X14811223Y-17505171D01*
X14792176Y-17514695D01*
X14782652Y-17524218D01*
X14992176Y-17638504D02*
X14973128Y-17628980D01*
X14963604Y-17619457D01*
X14954080Y-17600409D01*
X14954080Y-17543266D01*
X14963604Y-17524218D01*
X14973128Y-17514695D01*
X14992176Y-17505171D01*
X15020747Y-17505171D01*
X15039795Y-17514695D01*
X15049319Y-17524218D01*
X15058842Y-17543266D01*
X15058842Y-17600409D01*
X15049319Y-17619457D01*
X15039795Y-17628980D01*
X15020747Y-17638504D01*
X14992176Y-17638504D01*
X15173128Y-17638504D02*
X15154080Y-17628980D01*
X15144557Y-17609933D01*
X15144557Y-17438504D01*
X15325509Y-17628980D02*
X15306461Y-17638504D01*
X15268366Y-17638504D01*
X15249319Y-17628980D01*
X15239795Y-17609933D01*
X15239795Y-17533742D01*
X15249319Y-17514695D01*
X15268366Y-17505171D01*
X15306461Y-17505171D01*
X15325509Y-17514695D01*
X15335033Y-17533742D01*
X15335033Y-17552790D01*
X15239795Y-17571838D01*
X15411223Y-17628980D02*
X15430271Y-17638504D01*
X15468366Y-17638504D01*
X15487414Y-17628980D01*
X15496938Y-17609933D01*
X15496938Y-17600409D01*
X15487414Y-17581361D01*
X15468366Y-17571838D01*
X15439795Y-17571838D01*
X15420747Y-17562314D01*
X15411223Y-17543266D01*
X15411223Y-17533742D01*
X15420747Y-17514695D01*
X15439795Y-17505171D01*
X15468366Y-17505171D01*
X15487414Y-17514695D01*
X15563604Y-17714695D02*
X15573128Y-17705171D01*
X15592176Y-17676599D01*
X15601699Y-17657552D01*
X15611223Y-17628980D01*
X15620747Y-17581361D01*
X15620747Y-17543266D01*
X15611223Y-17495647D01*
X15601699Y-17467076D01*
X15592176Y-17448028D01*
X15573128Y-17419457D01*
X15563604Y-17409933D01*
D12*
X10601223Y-17812028D02*
G75*
G03*
X10601223Y-17812028I-35000J0D01*
G01*
D10*
X10896938Y-17702504D02*
X10915985Y-17702504D01*
X10935033Y-17712028D01*
X10944557Y-17721552D01*
X10954081Y-17740599D01*
X10963604Y-17778695D01*
X10963604Y-17826314D01*
X10954081Y-17864409D01*
X10944557Y-17883457D01*
X10935033Y-17892980D01*
X10915985Y-17902504D01*
X10896938Y-17902504D01*
X10877890Y-17892980D01*
X10868366Y-17883457D01*
X10858842Y-17864409D01*
X10849319Y-17826314D01*
X10849319Y-17778695D01*
X10858842Y-17740599D01*
X10868366Y-17721552D01*
X10877890Y-17712028D01*
X10896938Y-17702504D01*
X11049319Y-17883457D02*
X11058842Y-17892980D01*
X11049319Y-17902504D01*
X11039795Y-17892980D01*
X11049319Y-17883457D01*
X11049319Y-17902504D01*
X11125509Y-17702504D02*
X11258842Y-17702504D01*
X11173128Y-17902504D01*
X11373128Y-17702504D02*
X11392176Y-17702504D01*
X11411223Y-17712028D01*
X11420747Y-17721552D01*
X11430271Y-17740599D01*
X11439795Y-17778695D01*
X11439795Y-17826314D01*
X11430271Y-17864409D01*
X11420747Y-17883457D01*
X11411223Y-17892980D01*
X11392176Y-17902504D01*
X11373128Y-17902504D01*
X11354080Y-17892980D01*
X11344557Y-17883457D01*
X11335033Y-17864409D01*
X11325509Y-17826314D01*
X11325509Y-17778695D01*
X11335033Y-17740599D01*
X11344557Y-17721552D01*
X11354080Y-17712028D01*
X11373128Y-17702504D01*
X11563604Y-17702504D02*
X11582652Y-17702504D01*
X11601699Y-17712028D01*
X11611223Y-17721552D01*
X11620747Y-17740599D01*
X11630271Y-17778695D01*
X11630271Y-17826314D01*
X11620747Y-17864409D01*
X11611223Y-17883457D01*
X11601699Y-17892980D01*
X11582652Y-17902504D01*
X11563604Y-17902504D01*
X11544557Y-17892980D01*
X11535033Y-17883457D01*
X11525509Y-17864409D01*
X11515985Y-17826314D01*
X11515985Y-17778695D01*
X11525509Y-17740599D01*
X11535033Y-17721552D01*
X11544557Y-17712028D01*
X11563604Y-17702504D01*
X11715985Y-17902504D02*
X11715985Y-17769171D01*
X11715985Y-17788218D02*
X11725509Y-17778695D01*
X11744557Y-17769171D01*
X11773128Y-17769171D01*
X11792176Y-17778695D01*
X11801699Y-17797742D01*
X11801699Y-17902504D01*
X11801699Y-17797742D02*
X11811223Y-17778695D01*
X11830271Y-17769171D01*
X11858842Y-17769171D01*
X11877890Y-17778695D01*
X11887414Y-17797742D01*
X11887414Y-17902504D01*
X11982652Y-17902504D02*
X11982652Y-17769171D01*
X11982652Y-17788218D02*
X11992176Y-17778695D01*
X12011223Y-17769171D01*
X12039795Y-17769171D01*
X12058842Y-17778695D01*
X12068366Y-17797742D01*
X12068366Y-17902504D01*
X12068366Y-17797742D02*
X12077890Y-17778695D01*
X12096938Y-17769171D01*
X12125509Y-17769171D01*
X12144557Y-17778695D01*
X12154080Y-17797742D01*
X12154080Y-17902504D01*
X12544557Y-17692980D02*
X12373128Y-17950123D01*
X12801699Y-17702504D02*
X12820747Y-17702504D01*
X12839795Y-17712028D01*
X12849319Y-17721552D01*
X12858842Y-17740599D01*
X12868366Y-17778695D01*
X12868366Y-17826314D01*
X12858842Y-17864409D01*
X12849319Y-17883457D01*
X12839795Y-17892980D01*
X12820747Y-17902504D01*
X12801699Y-17902504D01*
X12782652Y-17892980D01*
X12773128Y-17883457D01*
X12763604Y-17864409D01*
X12754080Y-17826314D01*
X12754080Y-17778695D01*
X12763604Y-17740599D01*
X12773128Y-17721552D01*
X12782652Y-17712028D01*
X12801699Y-17702504D01*
X12954080Y-17883457D02*
X12963604Y-17892980D01*
X12954080Y-17902504D01*
X12944557Y-17892980D01*
X12954080Y-17883457D01*
X12954080Y-17902504D01*
X13087414Y-17702504D02*
X13106461Y-17702504D01*
X13125509Y-17712028D01*
X13135033Y-17721552D01*
X13144557Y-17740599D01*
X13154080Y-17778695D01*
X13154080Y-17826314D01*
X13144557Y-17864409D01*
X13135033Y-17883457D01*
X13125509Y-17892980D01*
X13106461Y-17902504D01*
X13087414Y-17902504D01*
X13068366Y-17892980D01*
X13058842Y-17883457D01*
X13049319Y-17864409D01*
X13039795Y-17826314D01*
X13039795Y-17778695D01*
X13049319Y-17740599D01*
X13058842Y-17721552D01*
X13068366Y-17712028D01*
X13087414Y-17702504D01*
X13230271Y-17721552D02*
X13239795Y-17712028D01*
X13258842Y-17702504D01*
X13306461Y-17702504D01*
X13325509Y-17712028D01*
X13335033Y-17721552D01*
X13344557Y-17740599D01*
X13344557Y-17759647D01*
X13335033Y-17788218D01*
X13220747Y-17902504D01*
X13344557Y-17902504D01*
X13411223Y-17702504D02*
X13544557Y-17702504D01*
X13458842Y-17902504D01*
X13706461Y-17702504D02*
X13668366Y-17702504D01*
X13649319Y-17712028D01*
X13639795Y-17721552D01*
X13620747Y-17750123D01*
X13611223Y-17788218D01*
X13611223Y-17864409D01*
X13620747Y-17883457D01*
X13630271Y-17892980D01*
X13649319Y-17902504D01*
X13687414Y-17902504D01*
X13706461Y-17892980D01*
X13715985Y-17883457D01*
X13725509Y-17864409D01*
X13725509Y-17816790D01*
X13715985Y-17797742D01*
X13706461Y-17788218D01*
X13687414Y-17778695D01*
X13649319Y-17778695D01*
X13630271Y-17788218D01*
X13620747Y-17797742D01*
X13611223Y-17816790D01*
X13801699Y-17702504D02*
X13801699Y-17740599D01*
X13877890Y-17702504D02*
X13877890Y-17740599D01*
X14173128Y-17978695D02*
X14163604Y-17969171D01*
X14144557Y-17940599D01*
X14135033Y-17921552D01*
X14125509Y-17892980D01*
X14115985Y-17845361D01*
X14115985Y-17807266D01*
X14125509Y-17759647D01*
X14135033Y-17731076D01*
X14144557Y-17712028D01*
X14163604Y-17683457D01*
X14173128Y-17673933D01*
X14277890Y-17788218D02*
X14258842Y-17778695D01*
X14249319Y-17769171D01*
X14239795Y-17750123D01*
X14239795Y-17740599D01*
X14249319Y-17721552D01*
X14258842Y-17712028D01*
X14277890Y-17702504D01*
X14315985Y-17702504D01*
X14335033Y-17712028D01*
X14344557Y-17721552D01*
X14354080Y-17740599D01*
X14354080Y-17750123D01*
X14344557Y-17769171D01*
X14335033Y-17778695D01*
X14315985Y-17788218D01*
X14277890Y-17788218D01*
X14258842Y-17797742D01*
X14249319Y-17807266D01*
X14239795Y-17826314D01*
X14239795Y-17864409D01*
X14249319Y-17883457D01*
X14258842Y-17892980D01*
X14277890Y-17902504D01*
X14315985Y-17902504D01*
X14335033Y-17892980D01*
X14344557Y-17883457D01*
X14354080Y-17864409D01*
X14354080Y-17826314D01*
X14344557Y-17807266D01*
X14335033Y-17797742D01*
X14315985Y-17788218D01*
X14592176Y-17902504D02*
X14592176Y-17702504D01*
X14677890Y-17902504D02*
X14677890Y-17797742D01*
X14668366Y-17778695D01*
X14649319Y-17769171D01*
X14620747Y-17769171D01*
X14601699Y-17778695D01*
X14592176Y-17788218D01*
X14801699Y-17902504D02*
X14782652Y-17892980D01*
X14773128Y-17883457D01*
X14763604Y-17864409D01*
X14763604Y-17807266D01*
X14773128Y-17788218D01*
X14782652Y-17778695D01*
X14801699Y-17769171D01*
X14830271Y-17769171D01*
X14849319Y-17778695D01*
X14858842Y-17788218D01*
X14868366Y-17807266D01*
X14868366Y-17864409D01*
X14858842Y-17883457D01*
X14849319Y-17892980D01*
X14830271Y-17902504D01*
X14801699Y-17902504D01*
X14982652Y-17902504D02*
X14963604Y-17892980D01*
X14954080Y-17873933D01*
X14954080Y-17702504D01*
X15135033Y-17892980D02*
X15115985Y-17902504D01*
X15077890Y-17902504D01*
X15058842Y-17892980D01*
X15049319Y-17873933D01*
X15049319Y-17797742D01*
X15058842Y-17778695D01*
X15077890Y-17769171D01*
X15115985Y-17769171D01*
X15135033Y-17778695D01*
X15144557Y-17797742D01*
X15144557Y-17816790D01*
X15049319Y-17835838D01*
X15220747Y-17892980D02*
X15239795Y-17902504D01*
X15277890Y-17902504D01*
X15296938Y-17892980D01*
X15306461Y-17873933D01*
X15306461Y-17864409D01*
X15296938Y-17845361D01*
X15277890Y-17835838D01*
X15249319Y-17835838D01*
X15230271Y-17826314D01*
X15220747Y-17807266D01*
X15220747Y-17797742D01*
X15230271Y-17778695D01*
X15249319Y-17769171D01*
X15277890Y-17769171D01*
X15296938Y-17778695D01*
X15373128Y-17978695D02*
X15382652Y-17969171D01*
X15401699Y-17940599D01*
X15411223Y-17921552D01*
X15420747Y-17892980D01*
X15430271Y-17845361D01*
X15430271Y-17807266D01*
X15420747Y-17759647D01*
X15411223Y-17731076D01*
X15401699Y-17712028D01*
X15382652Y-17683457D01*
X15373128Y-17673933D01*
D13*
X10551223Y-18026028D02*
X10551223Y-18126028D01*
X10501223Y-18076028D02*
X10601223Y-18076028D01*
D10*
X10963604Y-18166504D02*
X10849319Y-18166504D01*
X10906461Y-18166504D02*
X10906461Y-17966504D01*
X10887414Y-17995076D01*
X10868366Y-18014123D01*
X10849319Y-18023647D01*
X11049319Y-18147457D02*
X11058842Y-18156980D01*
X11049319Y-18166504D01*
X11039795Y-18156980D01*
X11049319Y-18147457D01*
X11049319Y-18166504D01*
X11182652Y-17966504D02*
X11201699Y-17966504D01*
X11220747Y-17976028D01*
X11230271Y-17985552D01*
X11239795Y-18004599D01*
X11249319Y-18042695D01*
X11249319Y-18090314D01*
X11239795Y-18128409D01*
X11230271Y-18147457D01*
X11220747Y-18156980D01*
X11201699Y-18166504D01*
X11182652Y-18166504D01*
X11163604Y-18156980D01*
X11154081Y-18147457D01*
X11144557Y-18128409D01*
X11135033Y-18090314D01*
X11135033Y-18042695D01*
X11144557Y-18004599D01*
X11154081Y-17985552D01*
X11163604Y-17976028D01*
X11182652Y-17966504D01*
X11373128Y-17966504D02*
X11392176Y-17966504D01*
X11411223Y-17976028D01*
X11420747Y-17985552D01*
X11430271Y-18004599D01*
X11439795Y-18042695D01*
X11439795Y-18090314D01*
X11430271Y-18128409D01*
X11420747Y-18147457D01*
X11411223Y-18156980D01*
X11392176Y-18166504D01*
X11373128Y-18166504D01*
X11354080Y-18156980D01*
X11344557Y-18147457D01*
X11335033Y-18128409D01*
X11325509Y-18090314D01*
X11325509Y-18042695D01*
X11335033Y-18004599D01*
X11344557Y-17985552D01*
X11354080Y-17976028D01*
X11373128Y-17966504D01*
X11563604Y-17966504D02*
X11582652Y-17966504D01*
X11601699Y-17976028D01*
X11611223Y-17985552D01*
X11620747Y-18004599D01*
X11630271Y-18042695D01*
X11630271Y-18090314D01*
X11620747Y-18128409D01*
X11611223Y-18147457D01*
X11601699Y-18156980D01*
X11582652Y-18166504D01*
X11563604Y-18166504D01*
X11544557Y-18156980D01*
X11535033Y-18147457D01*
X11525509Y-18128409D01*
X11515985Y-18090314D01*
X11515985Y-18042695D01*
X11525509Y-18004599D01*
X11535033Y-17985552D01*
X11544557Y-17976028D01*
X11563604Y-17966504D01*
X11715985Y-18166504D02*
X11715985Y-18033171D01*
X11715985Y-18052218D02*
X11725509Y-18042695D01*
X11744557Y-18033171D01*
X11773128Y-18033171D01*
X11792176Y-18042695D01*
X11801699Y-18061742D01*
X11801699Y-18166504D01*
X11801699Y-18061742D02*
X11811223Y-18042695D01*
X11830271Y-18033171D01*
X11858842Y-18033171D01*
X11877890Y-18042695D01*
X11887414Y-18061742D01*
X11887414Y-18166504D01*
X11982652Y-18166504D02*
X11982652Y-18033171D01*
X11982652Y-18052218D02*
X11992176Y-18042695D01*
X12011223Y-18033171D01*
X12039795Y-18033171D01*
X12058842Y-18042695D01*
X12068366Y-18061742D01*
X12068366Y-18166504D01*
X12068366Y-18061742D02*
X12077890Y-18042695D01*
X12096938Y-18033171D01*
X12125509Y-18033171D01*
X12144557Y-18042695D01*
X12154080Y-18061742D01*
X12154080Y-18166504D01*
X12544557Y-17956980D02*
X12373128Y-18214123D01*
X12801699Y-17966504D02*
X12820747Y-17966504D01*
X12839795Y-17976028D01*
X12849319Y-17985552D01*
X12858842Y-18004599D01*
X12868366Y-18042695D01*
X12868366Y-18090314D01*
X12858842Y-18128409D01*
X12849319Y-18147457D01*
X12839795Y-18156980D01*
X12820747Y-18166504D01*
X12801699Y-18166504D01*
X12782652Y-18156980D01*
X12773128Y-18147457D01*
X12763604Y-18128409D01*
X12754080Y-18090314D01*
X12754080Y-18042695D01*
X12763604Y-18004599D01*
X12773128Y-17985552D01*
X12782652Y-17976028D01*
X12801699Y-17966504D01*
X12954080Y-18147457D02*
X12963604Y-18156980D01*
X12954080Y-18166504D01*
X12944557Y-18156980D01*
X12954080Y-18147457D01*
X12954080Y-18166504D01*
X13087414Y-17966504D02*
X13106461Y-17966504D01*
X13125509Y-17976028D01*
X13135033Y-17985552D01*
X13144557Y-18004599D01*
X13154080Y-18042695D01*
X13154080Y-18090314D01*
X13144557Y-18128409D01*
X13135033Y-18147457D01*
X13125509Y-18156980D01*
X13106461Y-18166504D01*
X13087414Y-18166504D01*
X13068366Y-18156980D01*
X13058842Y-18147457D01*
X13049319Y-18128409D01*
X13039795Y-18090314D01*
X13039795Y-18042695D01*
X13049319Y-18004599D01*
X13058842Y-17985552D01*
X13068366Y-17976028D01*
X13087414Y-17966504D01*
X13220747Y-17966504D02*
X13344557Y-17966504D01*
X13277890Y-18042695D01*
X13306461Y-18042695D01*
X13325509Y-18052218D01*
X13335033Y-18061742D01*
X13344557Y-18080790D01*
X13344557Y-18128409D01*
X13335033Y-18147457D01*
X13325509Y-18156980D01*
X13306461Y-18166504D01*
X13249319Y-18166504D01*
X13230271Y-18156980D01*
X13220747Y-18147457D01*
X13439795Y-18166504D02*
X13477890Y-18166504D01*
X13496938Y-18156980D01*
X13506461Y-18147457D01*
X13525509Y-18118885D01*
X13535033Y-18080790D01*
X13535033Y-18004599D01*
X13525509Y-17985552D01*
X13515985Y-17976028D01*
X13496938Y-17966504D01*
X13458842Y-17966504D01*
X13439795Y-17976028D01*
X13430271Y-17985552D01*
X13420747Y-18004599D01*
X13420747Y-18052218D01*
X13430271Y-18071266D01*
X13439795Y-18080790D01*
X13458842Y-18090314D01*
X13496938Y-18090314D01*
X13515985Y-18080790D01*
X13525509Y-18071266D01*
X13535033Y-18052218D01*
X13706461Y-18033171D02*
X13706461Y-18166504D01*
X13658842Y-17956980D02*
X13611223Y-18099838D01*
X13735033Y-18099838D01*
X13801699Y-17966504D02*
X13801699Y-18004599D01*
X13877890Y-17966504D02*
X13877890Y-18004599D01*
X14173128Y-18242695D02*
X14163604Y-18233171D01*
X14144557Y-18204599D01*
X14135033Y-18185552D01*
X14125509Y-18156980D01*
X14115985Y-18109361D01*
X14115985Y-18071266D01*
X14125509Y-18023647D01*
X14135033Y-17995076D01*
X14144557Y-17976028D01*
X14163604Y-17947457D01*
X14173128Y-17937933D01*
X14335033Y-17966504D02*
X14296938Y-17966504D01*
X14277890Y-17976028D01*
X14268366Y-17985552D01*
X14249319Y-18014123D01*
X14239795Y-18052218D01*
X14239795Y-18128409D01*
X14249319Y-18147457D01*
X14258842Y-18156980D01*
X14277890Y-18166504D01*
X14315985Y-18166504D01*
X14335033Y-18156980D01*
X14344557Y-18147457D01*
X14354080Y-18128409D01*
X14354080Y-18080790D01*
X14344557Y-18061742D01*
X14335033Y-18052218D01*
X14315985Y-18042695D01*
X14277890Y-18042695D01*
X14258842Y-18052218D01*
X14249319Y-18061742D01*
X14239795Y-18080790D01*
X14592176Y-18166504D02*
X14592176Y-17966504D01*
X14677890Y-18166504D02*
X14677890Y-18061742D01*
X14668366Y-18042695D01*
X14649319Y-18033171D01*
X14620747Y-18033171D01*
X14601699Y-18042695D01*
X14592176Y-18052218D01*
X14801699Y-18166504D02*
X14782652Y-18156980D01*
X14773128Y-18147457D01*
X14763604Y-18128409D01*
X14763604Y-18071266D01*
X14773128Y-18052218D01*
X14782652Y-18042695D01*
X14801699Y-18033171D01*
X14830271Y-18033171D01*
X14849319Y-18042695D01*
X14858842Y-18052218D01*
X14868366Y-18071266D01*
X14868366Y-18128409D01*
X14858842Y-18147457D01*
X14849319Y-18156980D01*
X14830271Y-18166504D01*
X14801699Y-18166504D01*
X14982652Y-18166504D02*
X14963604Y-18156980D01*
X14954080Y-18137933D01*
X14954080Y-17966504D01*
X15135033Y-18156980D02*
X15115985Y-18166504D01*
X15077890Y-18166504D01*
X15058842Y-18156980D01*
X15049319Y-18137933D01*
X15049319Y-18061742D01*
X15058842Y-18042695D01*
X15077890Y-18033171D01*
X15115985Y-18033171D01*
X15135033Y-18042695D01*
X15144557Y-18061742D01*
X15144557Y-18080790D01*
X15049319Y-18099838D01*
X15220747Y-18156980D02*
X15239795Y-18166504D01*
X15277890Y-18166504D01*
X15296938Y-18156980D01*
X15306461Y-18137933D01*
X15306461Y-18128409D01*
X15296938Y-18109361D01*
X15277890Y-18099838D01*
X15249319Y-18099838D01*
X15230271Y-18090314D01*
X15220747Y-18071266D01*
X15220747Y-18061742D01*
X15230271Y-18042695D01*
X15249319Y-18033171D01*
X15277890Y-18033171D01*
X15296938Y-18042695D01*
X15373128Y-18242695D02*
X15382652Y-18233171D01*
X15401699Y-18204599D01*
X15411223Y-18185552D01*
X15420747Y-18156980D01*
X15430271Y-18109361D01*
X15430271Y-18071266D01*
X15420747Y-18023647D01*
X15411223Y-17995076D01*
X15401699Y-17976028D01*
X15382652Y-17947457D01*
X15373128Y-17937933D01*
D14*
X10586286Y-18376091D02*
X10586286Y-18303965D01*
X10514161Y-18303965D01*
X10514161Y-18376091D01*
X10586286Y-18376091D01*
D10*
X10963604Y-18430504D02*
X10849319Y-18430504D01*
X10906461Y-18430504D02*
X10906461Y-18230504D01*
X10887414Y-18259076D01*
X10868366Y-18278123D01*
X10849319Y-18287647D01*
X11049319Y-18411457D02*
X11058842Y-18420980D01*
X11049319Y-18430504D01*
X11039795Y-18420980D01*
X11049319Y-18411457D01*
X11049319Y-18430504D01*
X11182652Y-18230504D02*
X11201699Y-18230504D01*
X11220747Y-18240028D01*
X11230271Y-18249552D01*
X11239795Y-18268599D01*
X11249319Y-18306695D01*
X11249319Y-18354314D01*
X11239795Y-18392409D01*
X11230271Y-18411457D01*
X11220747Y-18420980D01*
X11201699Y-18430504D01*
X11182652Y-18430504D01*
X11163604Y-18420980D01*
X11154081Y-18411457D01*
X11144557Y-18392409D01*
X11135033Y-18354314D01*
X11135033Y-18306695D01*
X11144557Y-18268599D01*
X11154081Y-18249552D01*
X11163604Y-18240028D01*
X11182652Y-18230504D01*
X11325509Y-18249552D02*
X11335033Y-18240028D01*
X11354080Y-18230504D01*
X11401699Y-18230504D01*
X11420747Y-18240028D01*
X11430271Y-18249552D01*
X11439795Y-18268599D01*
X11439795Y-18287647D01*
X11430271Y-18316218D01*
X11315985Y-18430504D01*
X11439795Y-18430504D01*
X11563604Y-18230504D02*
X11582652Y-18230504D01*
X11601699Y-18240028D01*
X11611223Y-18249552D01*
X11620747Y-18268599D01*
X11630271Y-18306695D01*
X11630271Y-18354314D01*
X11620747Y-18392409D01*
X11611223Y-18411457D01*
X11601699Y-18420980D01*
X11582652Y-18430504D01*
X11563604Y-18430504D01*
X11544557Y-18420980D01*
X11535033Y-18411457D01*
X11525509Y-18392409D01*
X11515985Y-18354314D01*
X11515985Y-18306695D01*
X11525509Y-18268599D01*
X11535033Y-18249552D01*
X11544557Y-18240028D01*
X11563604Y-18230504D01*
X11715985Y-18430504D02*
X11715985Y-18297171D01*
X11715985Y-18316218D02*
X11725509Y-18306695D01*
X11744557Y-18297171D01*
X11773128Y-18297171D01*
X11792176Y-18306695D01*
X11801699Y-18325742D01*
X11801699Y-18430504D01*
X11801699Y-18325742D02*
X11811223Y-18306695D01*
X11830271Y-18297171D01*
X11858842Y-18297171D01*
X11877890Y-18306695D01*
X11887414Y-18325742D01*
X11887414Y-18430504D01*
X11982652Y-18430504D02*
X11982652Y-18297171D01*
X11982652Y-18316218D02*
X11992176Y-18306695D01*
X12011223Y-18297171D01*
X12039795Y-18297171D01*
X12058842Y-18306695D01*
X12068366Y-18325742D01*
X12068366Y-18430504D01*
X12068366Y-18325742D02*
X12077890Y-18306695D01*
X12096938Y-18297171D01*
X12125509Y-18297171D01*
X12144557Y-18306695D01*
X12154080Y-18325742D01*
X12154080Y-18430504D01*
X12544557Y-18220980D02*
X12373128Y-18478123D01*
X12801699Y-18230504D02*
X12820747Y-18230504D01*
X12839795Y-18240028D01*
X12849319Y-18249552D01*
X12858842Y-18268599D01*
X12868366Y-18306695D01*
X12868366Y-18354314D01*
X12858842Y-18392409D01*
X12849319Y-18411457D01*
X12839795Y-18420980D01*
X12820747Y-18430504D01*
X12801699Y-18430504D01*
X12782652Y-18420980D01*
X12773128Y-18411457D01*
X12763604Y-18392409D01*
X12754080Y-18354314D01*
X12754080Y-18306695D01*
X12763604Y-18268599D01*
X12773128Y-18249552D01*
X12782652Y-18240028D01*
X12801699Y-18230504D01*
X12954080Y-18411457D02*
X12963604Y-18420980D01*
X12954080Y-18430504D01*
X12944557Y-18420980D01*
X12954080Y-18411457D01*
X12954080Y-18430504D01*
X13087414Y-18230504D02*
X13106461Y-18230504D01*
X13125509Y-18240028D01*
X13135033Y-18249552D01*
X13144557Y-18268599D01*
X13154080Y-18306695D01*
X13154080Y-18354314D01*
X13144557Y-18392409D01*
X13135033Y-18411457D01*
X13125509Y-18420980D01*
X13106461Y-18430504D01*
X13087414Y-18430504D01*
X13068366Y-18420980D01*
X13058842Y-18411457D01*
X13049319Y-18392409D01*
X13039795Y-18354314D01*
X13039795Y-18306695D01*
X13049319Y-18268599D01*
X13058842Y-18249552D01*
X13068366Y-18240028D01*
X13087414Y-18230504D01*
X13325509Y-18297171D02*
X13325509Y-18430504D01*
X13277890Y-18220980D02*
X13230271Y-18363838D01*
X13354080Y-18363838D01*
X13468366Y-18230504D02*
X13487414Y-18230504D01*
X13506461Y-18240028D01*
X13515985Y-18249552D01*
X13525509Y-18268599D01*
X13535033Y-18306695D01*
X13535033Y-18354314D01*
X13525509Y-18392409D01*
X13515985Y-18411457D01*
X13506461Y-18420980D01*
X13487414Y-18430504D01*
X13468366Y-18430504D01*
X13449319Y-18420980D01*
X13439795Y-18411457D01*
X13430271Y-18392409D01*
X13420747Y-18354314D01*
X13420747Y-18306695D01*
X13430271Y-18268599D01*
X13439795Y-18249552D01*
X13449319Y-18240028D01*
X13468366Y-18230504D01*
X13611223Y-18249552D02*
X13620747Y-18240028D01*
X13639795Y-18230504D01*
X13687414Y-18230504D01*
X13706461Y-18240028D01*
X13715985Y-18249552D01*
X13725509Y-18268599D01*
X13725509Y-18287647D01*
X13715985Y-18316218D01*
X13601699Y-18430504D01*
X13725509Y-18430504D01*
X13801699Y-18230504D02*
X13801699Y-18268599D01*
X13877890Y-18230504D02*
X13877890Y-18268599D01*
X14173128Y-18506695D02*
X14163604Y-18497171D01*
X14144557Y-18468599D01*
X14135033Y-18449552D01*
X14125509Y-18420980D01*
X14115985Y-18373361D01*
X14115985Y-18335266D01*
X14125509Y-18287647D01*
X14135033Y-18259076D01*
X14144557Y-18240028D01*
X14163604Y-18211457D01*
X14173128Y-18201933D01*
X14335033Y-18297171D02*
X14335033Y-18430504D01*
X14287414Y-18220980D02*
X14239795Y-18363838D01*
X14363604Y-18363838D01*
X14420747Y-18230504D02*
X14544557Y-18230504D01*
X14477890Y-18306695D01*
X14506461Y-18306695D01*
X14525509Y-18316218D01*
X14535033Y-18325742D01*
X14544557Y-18344790D01*
X14544557Y-18392409D01*
X14535033Y-18411457D01*
X14525509Y-18420980D01*
X14506461Y-18430504D01*
X14449319Y-18430504D01*
X14430271Y-18420980D01*
X14420747Y-18411457D01*
X14782652Y-18430504D02*
X14782652Y-18230504D01*
X14868366Y-18430504D02*
X14868366Y-18325742D01*
X14858842Y-18306695D01*
X14839795Y-18297171D01*
X14811223Y-18297171D01*
X14792176Y-18306695D01*
X14782652Y-18316218D01*
X14992176Y-18430504D02*
X14973128Y-18420980D01*
X14963604Y-18411457D01*
X14954080Y-18392409D01*
X14954080Y-18335266D01*
X14963604Y-18316218D01*
X14973128Y-18306695D01*
X14992176Y-18297171D01*
X15020747Y-18297171D01*
X15039795Y-18306695D01*
X15049319Y-18316218D01*
X15058842Y-18335266D01*
X15058842Y-18392409D01*
X15049319Y-18411457D01*
X15039795Y-18420980D01*
X15020747Y-18430504D01*
X14992176Y-18430504D01*
X15173128Y-18430504D02*
X15154080Y-18420980D01*
X15144557Y-18401933D01*
X15144557Y-18230504D01*
X15325509Y-18420980D02*
X15306461Y-18430504D01*
X15268366Y-18430504D01*
X15249319Y-18420980D01*
X15239795Y-18401933D01*
X15239795Y-18325742D01*
X15249319Y-18306695D01*
X15268366Y-18297171D01*
X15306461Y-18297171D01*
X15325509Y-18306695D01*
X15335033Y-18325742D01*
X15335033Y-18344790D01*
X15239795Y-18363838D01*
X15411223Y-18420980D02*
X15430271Y-18430504D01*
X15468366Y-18430504D01*
X15487414Y-18420980D01*
X15496938Y-18401933D01*
X15496938Y-18392409D01*
X15487414Y-18373361D01*
X15468366Y-18363838D01*
X15439795Y-18363838D01*
X15420747Y-18354314D01*
X15411223Y-18335266D01*
X15411223Y-18325742D01*
X15420747Y-18306695D01*
X15439795Y-18297171D01*
X15468366Y-18297171D01*
X15487414Y-18306695D01*
X15563604Y-18506695D02*
X15573128Y-18497171D01*
X15592176Y-18468599D01*
X15601699Y-18449552D01*
X15611223Y-18420980D01*
X15620747Y-18373361D01*
X15620747Y-18335266D01*
X15611223Y-18287647D01*
X15601699Y-18259076D01*
X15592176Y-18240028D01*
X15573128Y-18211457D01*
X15563604Y-18201933D01*
X10501223Y-18704028D02*
X10601223Y-18604028D01*
X10501223Y-18504028D01*
X10401223Y-18604028D01*
X10501223Y-18704028D01*
X10839795Y-18494504D02*
X10963604Y-18494504D01*
X10896938Y-18570695D01*
X10925509Y-18570695D01*
X10944557Y-18580218D01*
X10954081Y-18589742D01*
X10963604Y-18608790D01*
X10963604Y-18656409D01*
X10954081Y-18675457D01*
X10944557Y-18684980D01*
X10925509Y-18694504D01*
X10868366Y-18694504D01*
X10849319Y-18684980D01*
X10839795Y-18675457D01*
X11049319Y-18675457D02*
X11058842Y-18684980D01*
X11049319Y-18694504D01*
X11039795Y-18684980D01*
X11049319Y-18675457D01*
X11049319Y-18694504D01*
X11249319Y-18694504D02*
X11135033Y-18694504D01*
X11192176Y-18694504D02*
X11192176Y-18494504D01*
X11173128Y-18523076D01*
X11154081Y-18542123D01*
X11135033Y-18551647D01*
X11315985Y-18494504D02*
X11449319Y-18494504D01*
X11363604Y-18694504D01*
X11563604Y-18494504D02*
X11582652Y-18494504D01*
X11601699Y-18504028D01*
X11611223Y-18513552D01*
X11620747Y-18532599D01*
X11630271Y-18570695D01*
X11630271Y-18618314D01*
X11620747Y-18656409D01*
X11611223Y-18675457D01*
X11601699Y-18684980D01*
X11582652Y-18694504D01*
X11563604Y-18694504D01*
X11544557Y-18684980D01*
X11535033Y-18675457D01*
X11525509Y-18656409D01*
X11515985Y-18618314D01*
X11515985Y-18570695D01*
X11525509Y-18532599D01*
X11535033Y-18513552D01*
X11544557Y-18504028D01*
X11563604Y-18494504D01*
X11715985Y-18694504D02*
X11715985Y-18561171D01*
X11715985Y-18580218D02*
X11725509Y-18570695D01*
X11744557Y-18561171D01*
X11773128Y-18561171D01*
X11792176Y-18570695D01*
X11801699Y-18589742D01*
X11801699Y-18694504D01*
X11801699Y-18589742D02*
X11811223Y-18570695D01*
X11830271Y-18561171D01*
X11858842Y-18561171D01*
X11877890Y-18570695D01*
X11887414Y-18589742D01*
X11887414Y-18694504D01*
X11982652Y-18694504D02*
X11982652Y-18561171D01*
X11982652Y-18580218D02*
X11992176Y-18570695D01*
X12011223Y-18561171D01*
X12039795Y-18561171D01*
X12058842Y-18570695D01*
X12068366Y-18589742D01*
X12068366Y-18694504D01*
X12068366Y-18589742D02*
X12077890Y-18570695D01*
X12096938Y-18561171D01*
X12125509Y-18561171D01*
X12144557Y-18570695D01*
X12154080Y-18589742D01*
X12154080Y-18694504D01*
X12544557Y-18484980D02*
X12373128Y-18742123D01*
X12801699Y-18494504D02*
X12820747Y-18494504D01*
X12839795Y-18504028D01*
X12849319Y-18513552D01*
X12858842Y-18532599D01*
X12868366Y-18570695D01*
X12868366Y-18618314D01*
X12858842Y-18656409D01*
X12849319Y-18675457D01*
X12839795Y-18684980D01*
X12820747Y-18694504D01*
X12801699Y-18694504D01*
X12782652Y-18684980D01*
X12773128Y-18675457D01*
X12763604Y-18656409D01*
X12754080Y-18618314D01*
X12754080Y-18570695D01*
X12763604Y-18532599D01*
X12773128Y-18513552D01*
X12782652Y-18504028D01*
X12801699Y-18494504D01*
X12954080Y-18675457D02*
X12963604Y-18684980D01*
X12954080Y-18694504D01*
X12944557Y-18684980D01*
X12954080Y-18675457D01*
X12954080Y-18694504D01*
X13154080Y-18694504D02*
X13039795Y-18694504D01*
X13096938Y-18694504D02*
X13096938Y-18494504D01*
X13077890Y-18523076D01*
X13058842Y-18542123D01*
X13039795Y-18551647D01*
X13230271Y-18513552D02*
X13239795Y-18504028D01*
X13258842Y-18494504D01*
X13306461Y-18494504D01*
X13325509Y-18504028D01*
X13335033Y-18513552D01*
X13344557Y-18532599D01*
X13344557Y-18551647D01*
X13335033Y-18580218D01*
X13220747Y-18694504D01*
X13344557Y-18694504D01*
X13515985Y-18561171D02*
X13515985Y-18694504D01*
X13468366Y-18484980D02*
X13420747Y-18627838D01*
X13544557Y-18627838D01*
X13649319Y-18580218D02*
X13630271Y-18570695D01*
X13620747Y-18561171D01*
X13611223Y-18542123D01*
X13611223Y-18532599D01*
X13620747Y-18513552D01*
X13630271Y-18504028D01*
X13649319Y-18494504D01*
X13687414Y-18494504D01*
X13706461Y-18504028D01*
X13715985Y-18513552D01*
X13725509Y-18532599D01*
X13725509Y-18542123D01*
X13715985Y-18561171D01*
X13706461Y-18570695D01*
X13687414Y-18580218D01*
X13649319Y-18580218D01*
X13630271Y-18589742D01*
X13620747Y-18599266D01*
X13611223Y-18618314D01*
X13611223Y-18656409D01*
X13620747Y-18675457D01*
X13630271Y-18684980D01*
X13649319Y-18694504D01*
X13687414Y-18694504D01*
X13706461Y-18684980D01*
X13715985Y-18675457D01*
X13725509Y-18656409D01*
X13725509Y-18618314D01*
X13715985Y-18599266D01*
X13706461Y-18589742D01*
X13687414Y-18580218D01*
X13801699Y-18494504D02*
X13801699Y-18532599D01*
X13877890Y-18494504D02*
X13877890Y-18532599D01*
X14173128Y-18770695D02*
X14163604Y-18761171D01*
X14144557Y-18732599D01*
X14135033Y-18713552D01*
X14125509Y-18684980D01*
X14115985Y-18637361D01*
X14115985Y-18599266D01*
X14125509Y-18551647D01*
X14135033Y-18523076D01*
X14144557Y-18504028D01*
X14163604Y-18475457D01*
X14173128Y-18465933D01*
X14239795Y-18513552D02*
X14249319Y-18504028D01*
X14268366Y-18494504D01*
X14315985Y-18494504D01*
X14335033Y-18504028D01*
X14344557Y-18513552D01*
X14354080Y-18532599D01*
X14354080Y-18551647D01*
X14344557Y-18580218D01*
X14230271Y-18694504D01*
X14354080Y-18694504D01*
X14477890Y-18494504D02*
X14496938Y-18494504D01*
X14515985Y-18504028D01*
X14525509Y-18513552D01*
X14535033Y-18532599D01*
X14544557Y-18570695D01*
X14544557Y-18618314D01*
X14535033Y-18656409D01*
X14525509Y-18675457D01*
X14515985Y-18684980D01*
X14496938Y-18694504D01*
X14477890Y-18694504D01*
X14458842Y-18684980D01*
X14449319Y-18675457D01*
X14439795Y-18656409D01*
X14430271Y-18618314D01*
X14430271Y-18570695D01*
X14439795Y-18532599D01*
X14449319Y-18513552D01*
X14458842Y-18504028D01*
X14477890Y-18494504D01*
X14782652Y-18694504D02*
X14782652Y-18494504D01*
X14868366Y-18694504D02*
X14868366Y-18589742D01*
X14858842Y-18570695D01*
X14839795Y-18561171D01*
X14811223Y-18561171D01*
X14792176Y-18570695D01*
X14782652Y-18580218D01*
X14992176Y-18694504D02*
X14973128Y-18684980D01*
X14963604Y-18675457D01*
X14954080Y-18656409D01*
X14954080Y-18599266D01*
X14963604Y-18580218D01*
X14973128Y-18570695D01*
X14992176Y-18561171D01*
X15020747Y-18561171D01*
X15039795Y-18570695D01*
X15049319Y-18580218D01*
X15058842Y-18599266D01*
X15058842Y-18656409D01*
X15049319Y-18675457D01*
X15039795Y-18684980D01*
X15020747Y-18694504D01*
X14992176Y-18694504D01*
X15173128Y-18694504D02*
X15154080Y-18684980D01*
X15144557Y-18665933D01*
X15144557Y-18494504D01*
X15325509Y-18684980D02*
X15306461Y-18694504D01*
X15268366Y-18694504D01*
X15249319Y-18684980D01*
X15239795Y-18665933D01*
X15239795Y-18589742D01*
X15249319Y-18570695D01*
X15268366Y-18561171D01*
X15306461Y-18561171D01*
X15325509Y-18570695D01*
X15335033Y-18589742D01*
X15335033Y-18608790D01*
X15239795Y-18627838D01*
X15411223Y-18684980D02*
X15430271Y-18694504D01*
X15468366Y-18694504D01*
X15487414Y-18684980D01*
X15496938Y-18665933D01*
X15496938Y-18656409D01*
X15487414Y-18637361D01*
X15468366Y-18627838D01*
X15439795Y-18627838D01*
X15420747Y-18618314D01*
X15411223Y-18599266D01*
X15411223Y-18589742D01*
X15420747Y-18570695D01*
X15439795Y-18561171D01*
X15468366Y-18561171D01*
X15487414Y-18570695D01*
X15563604Y-18770695D02*
X15573128Y-18761171D01*
X15592176Y-18732599D01*
X15601699Y-18713552D01*
X15611223Y-18684980D01*
X15620747Y-18637361D01*
X15620747Y-18599266D01*
X15611223Y-18551647D01*
X15601699Y-18523076D01*
X15592176Y-18504028D01*
X15573128Y-18475457D01*
X15563604Y-18465933D01*
X10401223Y-18824028D02*
X10601223Y-19024028D01*
X10601223Y-18824028D02*
X10401223Y-19024028D01*
X10601223Y-18924028D02*
G75*
G03*
X10601223Y-18924028I-100000J0D01*
G01*
X10839795Y-18814504D02*
X10963604Y-18814504D01*
X10896938Y-18890695D01*
X10925509Y-18890695D01*
X10944557Y-18900218D01*
X10954081Y-18909742D01*
X10963604Y-18928790D01*
X10963604Y-18976409D01*
X10954081Y-18995457D01*
X10944557Y-19004980D01*
X10925509Y-19014504D01*
X10868366Y-19014504D01*
X10849319Y-19004980D01*
X10839795Y-18995457D01*
X11049319Y-18995457D02*
X11058842Y-19004980D01*
X11049319Y-19014504D01*
X11039795Y-19004980D01*
X11049319Y-18995457D01*
X11049319Y-19014504D01*
X11249319Y-19014504D02*
X11135033Y-19014504D01*
X11192176Y-19014504D02*
X11192176Y-18814504D01*
X11173128Y-18843076D01*
X11154081Y-18862123D01*
X11135033Y-18871647D01*
X11315985Y-18814504D02*
X11449319Y-18814504D01*
X11363604Y-19014504D01*
X11620747Y-18814504D02*
X11525509Y-18814504D01*
X11515985Y-18909742D01*
X11525509Y-18900218D01*
X11544557Y-18890695D01*
X11592176Y-18890695D01*
X11611223Y-18900218D01*
X11620747Y-18909742D01*
X11630271Y-18928790D01*
X11630271Y-18976409D01*
X11620747Y-18995457D01*
X11611223Y-19004980D01*
X11592176Y-19014504D01*
X11544557Y-19014504D01*
X11525509Y-19004980D01*
X11515985Y-18995457D01*
X11715985Y-19014504D02*
X11715985Y-18881171D01*
X11715985Y-18900218D02*
X11725509Y-18890695D01*
X11744557Y-18881171D01*
X11773128Y-18881171D01*
X11792176Y-18890695D01*
X11801699Y-18909742D01*
X11801699Y-19014504D01*
X11801699Y-18909742D02*
X11811223Y-18890695D01*
X11830271Y-18881171D01*
X11858842Y-18881171D01*
X11877890Y-18890695D01*
X11887414Y-18909742D01*
X11887414Y-19014504D01*
X11982652Y-19014504D02*
X11982652Y-18881171D01*
X11982652Y-18900218D02*
X11992176Y-18890695D01*
X12011223Y-18881171D01*
X12039795Y-18881171D01*
X12058842Y-18890695D01*
X12068366Y-18909742D01*
X12068366Y-19014504D01*
X12068366Y-18909742D02*
X12077890Y-18890695D01*
X12096938Y-18881171D01*
X12125509Y-18881171D01*
X12144557Y-18890695D01*
X12154080Y-18909742D01*
X12154080Y-19014504D01*
X12544557Y-18804980D02*
X12373128Y-19062123D01*
X12801699Y-18814504D02*
X12820747Y-18814504D01*
X12839795Y-18824028D01*
X12849319Y-18833552D01*
X12858842Y-18852599D01*
X12868366Y-18890695D01*
X12868366Y-18938314D01*
X12858842Y-18976409D01*
X12849319Y-18995457D01*
X12839795Y-19004980D01*
X12820747Y-19014504D01*
X12801699Y-19014504D01*
X12782652Y-19004980D01*
X12773128Y-18995457D01*
X12763604Y-18976409D01*
X12754080Y-18938314D01*
X12754080Y-18890695D01*
X12763604Y-18852599D01*
X12773128Y-18833552D01*
X12782652Y-18824028D01*
X12801699Y-18814504D01*
X12954080Y-18995457D02*
X12963604Y-19004980D01*
X12954080Y-19014504D01*
X12944557Y-19004980D01*
X12954080Y-18995457D01*
X12954080Y-19014504D01*
X13154080Y-19014504D02*
X13039795Y-19014504D01*
X13096938Y-19014504D02*
X13096938Y-18814504D01*
X13077890Y-18843076D01*
X13058842Y-18862123D01*
X13039795Y-18871647D01*
X13230271Y-18833552D02*
X13239795Y-18824028D01*
X13258842Y-18814504D01*
X13306461Y-18814504D01*
X13325509Y-18824028D01*
X13335033Y-18833552D01*
X13344557Y-18852599D01*
X13344557Y-18871647D01*
X13335033Y-18900218D01*
X13220747Y-19014504D01*
X13344557Y-19014504D01*
X13525509Y-18814504D02*
X13430271Y-18814504D01*
X13420747Y-18909742D01*
X13430271Y-18900218D01*
X13449319Y-18890695D01*
X13496938Y-18890695D01*
X13515985Y-18900218D01*
X13525509Y-18909742D01*
X13535033Y-18928790D01*
X13535033Y-18976409D01*
X13525509Y-18995457D01*
X13515985Y-19004980D01*
X13496938Y-19014504D01*
X13449319Y-19014504D01*
X13430271Y-19004980D01*
X13420747Y-18995457D01*
X13658842Y-18814504D02*
X13677890Y-18814504D01*
X13696938Y-18824028D01*
X13706461Y-18833552D01*
X13715985Y-18852599D01*
X13725509Y-18890695D01*
X13725509Y-18938314D01*
X13715985Y-18976409D01*
X13706461Y-18995457D01*
X13696938Y-19004980D01*
X13677890Y-19014504D01*
X13658842Y-19014504D01*
X13639795Y-19004980D01*
X13630271Y-18995457D01*
X13620747Y-18976409D01*
X13611223Y-18938314D01*
X13611223Y-18890695D01*
X13620747Y-18852599D01*
X13630271Y-18833552D01*
X13639795Y-18824028D01*
X13658842Y-18814504D01*
X13801699Y-18814504D02*
X13801699Y-18852599D01*
X13877890Y-18814504D02*
X13877890Y-18852599D01*
X14173128Y-19090695D02*
X14163604Y-19081171D01*
X14144557Y-19052599D01*
X14135033Y-19033552D01*
X14125509Y-19004980D01*
X14115985Y-18957361D01*
X14115985Y-18919266D01*
X14125509Y-18871647D01*
X14135033Y-18843076D01*
X14144557Y-18824028D01*
X14163604Y-18795457D01*
X14173128Y-18785933D01*
X14239795Y-18833552D02*
X14249319Y-18824028D01*
X14268366Y-18814504D01*
X14315985Y-18814504D01*
X14335033Y-18824028D01*
X14344557Y-18833552D01*
X14354080Y-18852599D01*
X14354080Y-18871647D01*
X14344557Y-18900218D01*
X14230271Y-19014504D01*
X14354080Y-19014504D01*
X14525509Y-18881171D02*
X14525509Y-19014504D01*
X14477890Y-18804980D02*
X14430271Y-18947838D01*
X14554080Y-18947838D01*
X14782652Y-19014504D02*
X14782652Y-18814504D01*
X14868366Y-19014504D02*
X14868366Y-18909742D01*
X14858842Y-18890695D01*
X14839795Y-18881171D01*
X14811223Y-18881171D01*
X14792176Y-18890695D01*
X14782652Y-18900218D01*
X14992176Y-19014504D02*
X14973128Y-19004980D01*
X14963604Y-18995457D01*
X14954080Y-18976409D01*
X14954080Y-18919266D01*
X14963604Y-18900218D01*
X14973128Y-18890695D01*
X14992176Y-18881171D01*
X15020747Y-18881171D01*
X15039795Y-18890695D01*
X15049319Y-18900218D01*
X15058842Y-18919266D01*
X15058842Y-18976409D01*
X15049319Y-18995457D01*
X15039795Y-19004980D01*
X15020747Y-19014504D01*
X14992176Y-19014504D01*
X15173128Y-19014504D02*
X15154080Y-19004980D01*
X15144557Y-18985933D01*
X15144557Y-18814504D01*
X15325509Y-19004980D02*
X15306461Y-19014504D01*
X15268366Y-19014504D01*
X15249319Y-19004980D01*
X15239795Y-18985933D01*
X15239795Y-18909742D01*
X15249319Y-18890695D01*
X15268366Y-18881171D01*
X15306461Y-18881171D01*
X15325509Y-18890695D01*
X15335033Y-18909742D01*
X15335033Y-18928790D01*
X15239795Y-18947838D01*
X15411223Y-19004980D02*
X15430271Y-19014504D01*
X15468366Y-19014504D01*
X15487414Y-19004980D01*
X15496938Y-18985933D01*
X15496938Y-18976409D01*
X15487414Y-18957361D01*
X15468366Y-18947838D01*
X15439795Y-18947838D01*
X15420747Y-18938314D01*
X15411223Y-18919266D01*
X15411223Y-18909742D01*
X15420747Y-18890695D01*
X15439795Y-18881171D01*
X15468366Y-18881171D01*
X15487414Y-18890695D01*
X15563604Y-19090695D02*
X15573128Y-19081171D01*
X15592176Y-19052599D01*
X15601699Y-19033552D01*
X15611223Y-19004980D01*
X15620747Y-18957361D01*
X15620747Y-18919266D01*
X15611223Y-18871647D01*
X15601699Y-18843076D01*
X15592176Y-18824028D01*
X15573128Y-18795457D01*
X15563604Y-18785933D01*
M02*
