%TF.GenerationSoftware,KiCad,Pcbnew,6.0.2+dfsg-1*%
%TF.CreationDate,2022-09-12T11:49:15+02:00*%
%TF.ProjectId,kidslab-lamp,6b696473-6c61-4622-9d6c-616d702e6b69,rev?*%
%TF.SameCoordinates,Original*%
%TF.FileFunction,Soldermask,Top*%
%TF.FilePolarity,Negative*%
%FSLAX46Y46*%
G04 Gerber Fmt 4.6, Leading zero omitted, Abs format (unit mm)*
G04 Created by KiCad (PCBNEW 6.0.2+dfsg-1) date 2022-09-12 11:49:15*
%MOMM*%
%LPD*%
G01*
G04 APERTURE LIST*
G04 Aperture macros list*
%AMFreePoly0*
4,1,34,6.500000,-3.000000,0.000000,-3.000000,-0.000001,-2.998354,-0.313585,-2.983566,-0.654430,-2.927750,-0.986600,-2.833129,-1.305693,-2.700956,-1.607479,-2.532984,-1.887961,-2.331438,-2.143418,-2.098990,-2.370465,-1.838721,-2.566093,-1.554081,-2.727708,-1.248842,-2.853170,-0.927051,-2.940814,-0.592972,-2.989479,-0.251034,-2.998520,0.094232,-2.967817,0.438249,-2.897777,0.776457,-2.789329,1.104374,
-2.643910,1.417652,-2.463448,1.712141,-2.250333,1.983936,-2.007392,2.229434,-1.737844,2.445383,-1.445260,2.628920,-1.133522,2.777612,-0.806759,2.889488,-0.469303,2.963065,-0.125627,2.997368,0.000000,2.995395,0.000000,3.000000,6.500000,3.000000,6.500000,-3.000000,6.500000,-3.000000,$1*%
%AMFreePoly1*
4,1,48,0.468453,2.455718,0.772542,2.377641,1.064448,2.262068,1.339567,2.110820,1.593560,1.926283,1.822422,1.711368,1.955916,1.550000,3.250000,1.550000,3.285355,1.535355,3.300000,1.500000,3.300000,-1.500000,3.285355,-1.535355,3.250000,-1.550000,1.955916,-1.550000,1.822422,-1.711368,1.593560,-1.926283,1.339567,-2.110820,1.064448,-2.262068,0.772542,-2.377641,0.468453,-2.455718,
0.156976,-2.495067,-0.156976,-2.495067,-0.468453,-2.455718,-0.772542,-2.377641,-1.064448,-2.262068,-1.339567,-2.110820,-1.593560,-1.926283,-1.822422,-1.711368,-2.022542,-1.469463,-2.190767,-1.204384,-2.324441,-0.920311,-2.421458,-0.621725,-2.480287,-0.313333,-2.500000,0.000000,-2.480287,0.313333,-2.421458,0.621725,-2.324441,0.920311,-2.190767,1.204384,-2.022542,1.469463,-1.822422,1.711368,
-1.593560,1.926283,-1.339567,2.110820,-1.064448,2.262068,-0.772542,2.377641,-0.468453,2.455718,-0.156976,2.495067,0.156976,2.495067,0.468453,2.455718,0.468453,2.455718,$1*%
%AMFreePoly2*
4,1,66,4.411842,5.095106,4.430902,5.095106,4.441081,5.087711,4.453280,5.084625,4.465483,5.069982,4.480902,5.058779,4.484790,5.046813,4.492846,5.037146,4.494111,5.018124,4.500000,5.000000,4.500000,2.600000,10.900000,2.600000,10.915063,2.595106,10.930902,2.595106,10.943716,2.585796,10.958779,2.580902,10.968089,2.568089,10.980902,2.558779,10.985796,2.543716,10.995106,2.530902,
10.995106,2.515063,11.000000,2.500000,11.000000,-2.500000,10.995106,-2.515063,10.995106,-2.530902,10.985796,-2.543716,10.980902,-2.558779,10.968089,-2.568089,10.958779,-2.580902,10.943716,-2.585796,10.930902,-2.595106,10.915063,-2.595106,10.900000,-2.600000,4.500000,-2.600000,4.500000,-5.000000,4.494111,-5.018124,4.492846,-5.037146,4.484790,-5.046813,4.480902,-5.058779,4.465483,-5.069982,
4.453280,-5.084625,4.441081,-5.087711,4.430902,-5.095106,4.411842,-5.095106,4.393363,-5.099780,4.381681,-5.095106,4.369098,-5.095106,4.353676,-5.083901,4.335982,-5.076822,-1.664018,-0.076822,-1.677110,-0.056028,-1.692845,-0.037146,-1.693299,-0.030314,-1.696947,-0.024521,-1.695316,0.000000,-1.696947,0.024521,-1.693299,0.030314,-1.692845,0.037146,-1.677110,0.056028,-1.664018,0.076822,
4.335982,5.076822,4.353676,5.083901,4.369098,5.095106,4.381681,5.095106,4.393363,5.099780,4.411842,5.095106,4.411842,5.095106,$1*%
G04 Aperture macros list end*
%ADD10C,0.200000*%
%ADD11O,1.800000X1.800000*%
%ADD12O,1.500000X1.500000*%
%ADD13R,3.500000X1.700000*%
%ADD14O,1.700000X1.700000*%
%ADD15R,1.700000X1.700000*%
%ADD16R,1.700000X3.500000*%
%ADD17FreePoly0,328.000000*%
%ADD18FreePoly1,90.000000*%
%ADD19C,5.000000*%
%ADD20FreePoly2,270.000000*%
%ADD21FreePoly1,270.000000*%
%ADD22FreePoly0,0.000000*%
%ADD23FreePoly0,191.500000*%
%ADD24FreePoly0,215.000000*%
%ADD25FreePoly0,180.000000*%
%ADD26FreePoly1,0.000000*%
%ADD27FreePoly0,280.000000*%
%ADD28FreePoly0,145.000000*%
%ADD29FreePoly0,220.000000*%
%ADD30FreePoly0,58.000000*%
%ADD31FreePoly2,0.000000*%
%ADD32FreePoly1,180.000000*%
%ADD33FreePoly2,180.000000*%
%ADD34R,1.600000X3.000000*%
%ADD35R,1.000000X4.500000*%
%ADD36FreePoly0,260.000000*%
%ADD37C,1.400000*%
%ADD38O,1.400000X1.400000*%
%ADD39R,1.500000X1.000000*%
%ADD40FreePoly0,348.500000*%
%ADD41FreePoly0,11.000000*%
%ADD42FreePoly0,35.000000*%
%ADD43FreePoly0,124.500000*%
%ADD44FreePoly0,168.500000*%
%ADD45FreePoly0,324.500000*%
%ADD46FreePoly2,90.000000*%
G04 APERTURE END LIST*
D10*
%TO.C,GPIO15*%
X152438000Y-98904000D02*
X152438000Y-105404000D01*
X152438000Y-105404000D02*
X147438000Y-105404000D01*
X147438000Y-105404000D02*
X147438000Y-98904000D01*
X147438000Y-98904000D02*
X144938000Y-98904000D01*
X144938000Y-98904000D02*
X149938000Y-92904000D01*
X149938000Y-92904000D02*
X154938000Y-98904000D01*
X154938000Y-98904000D02*
X152438000Y-98904000D01*
G36*
X154938000Y-98904000D02*
G01*
X152438000Y-98904000D01*
X152438000Y-105404000D01*
X147438000Y-105404000D01*
X147438000Y-98904000D01*
X144938000Y-98904000D01*
X149938000Y-92904000D01*
X154938000Y-98904000D01*
G37*
X154938000Y-98904000D02*
X152438000Y-98904000D01*
X152438000Y-105404000D01*
X147438000Y-105404000D01*
X147438000Y-98904000D01*
X144938000Y-98904000D01*
X149938000Y-92904000D01*
X154938000Y-98904000D01*
%TO.C,GPIO14*%
X139438000Y-106654000D02*
X145938000Y-106654000D01*
X145938000Y-106654000D02*
X145938000Y-111654000D01*
X145938000Y-111654000D02*
X139438000Y-111654000D01*
X139438000Y-111654000D02*
X139438000Y-114154000D01*
X139438000Y-114154000D02*
X133438000Y-109154000D01*
X133438000Y-109154000D02*
X139438000Y-104154000D01*
X139438000Y-104154000D02*
X139438000Y-106654000D01*
G36*
X139438000Y-106654000D02*
G01*
X145938000Y-106654000D01*
X145938000Y-111654000D01*
X139438000Y-111654000D01*
X139438000Y-114154000D01*
X133438000Y-109154000D01*
X139438000Y-104154000D01*
X139438000Y-106654000D01*
G37*
X139438000Y-106654000D02*
X145938000Y-106654000D01*
X145938000Y-111654000D01*
X139438000Y-111654000D01*
X139438000Y-114154000D01*
X133438000Y-109154000D01*
X139438000Y-104154000D01*
X139438000Y-106654000D01*
%TO.C,GPIO16*%
X160188000Y-111654000D02*
X153688000Y-111654000D01*
X153688000Y-111654000D02*
X153688000Y-106654000D01*
X153688000Y-106654000D02*
X160188000Y-106654000D01*
X160188000Y-106654000D02*
X160188000Y-104154000D01*
X160188000Y-104154000D02*
X166188000Y-109154000D01*
X166188000Y-109154000D02*
X160188000Y-114154000D01*
X160188000Y-114154000D02*
X160188000Y-111654000D01*
G36*
X166188000Y-109154000D02*
G01*
X160188000Y-114154000D01*
X160188000Y-111654000D01*
X153688000Y-111654000D01*
X153688000Y-106654000D01*
X160188000Y-106654000D01*
X160188000Y-104154000D01*
X166188000Y-109154000D01*
G37*
X166188000Y-109154000D02*
X160188000Y-114154000D01*
X160188000Y-111654000D01*
X153688000Y-111654000D01*
X153688000Y-106654000D01*
X160188000Y-106654000D01*
X160188000Y-104154000D01*
X166188000Y-109154000D01*
%TO.C,GPIO17*%
X147438000Y-119654000D02*
X147438000Y-113154000D01*
X147438000Y-113154000D02*
X152438000Y-113154000D01*
X152438000Y-113154000D02*
X152438000Y-119654000D01*
X152438000Y-119654000D02*
X154938000Y-119654000D01*
X154938000Y-119654000D02*
X149938000Y-125654000D01*
X149938000Y-125654000D02*
X144938000Y-119654000D01*
X144938000Y-119654000D02*
X147438000Y-119654000D01*
G36*
X152438000Y-119654000D02*
G01*
X154938000Y-119654000D01*
X149938000Y-125654000D01*
X144938000Y-119654000D01*
X147438000Y-119654000D01*
X147438000Y-113154000D01*
X152438000Y-113154000D01*
X152438000Y-119654000D01*
G37*
X152438000Y-119654000D02*
X154938000Y-119654000D01*
X149938000Y-125654000D01*
X144938000Y-119654000D01*
X147438000Y-119654000D01*
X147438000Y-113154000D01*
X152438000Y-113154000D01*
X152438000Y-119654000D01*
%TD*%
D11*
%TO.C,U1*%
X146913000Y-41424000D03*
X152363000Y-41424000D03*
D12*
X147213000Y-44454000D03*
X152063000Y-44454000D03*
D13*
X139848000Y-41294000D03*
D14*
X140748000Y-41294000D03*
D13*
X139848000Y-43834000D03*
D14*
X140748000Y-43834000D03*
D13*
X139848000Y-46374000D03*
D15*
X140748000Y-46374000D03*
D13*
X139848000Y-48914000D03*
D14*
X140748000Y-48914000D03*
X140748000Y-51454000D03*
D13*
X139848000Y-51454000D03*
D14*
X140748000Y-53994000D03*
D13*
X139848000Y-53994000D03*
D14*
X140748000Y-56534000D03*
D13*
X139848000Y-56534000D03*
X139848000Y-59074000D03*
D15*
X140748000Y-59074000D03*
D13*
X139848000Y-61614000D03*
D14*
X140748000Y-61614000D03*
D13*
X139848000Y-64154000D03*
D14*
X140748000Y-64154000D03*
X140748000Y-66694000D03*
D13*
X139848000Y-66694000D03*
X139848000Y-69234000D03*
D14*
X140748000Y-69234000D03*
D15*
X140748000Y-71774000D03*
D13*
X139848000Y-71774000D03*
D14*
X140748000Y-74314000D03*
D13*
X139848000Y-74314000D03*
X139848000Y-76854000D03*
D14*
X140748000Y-76854000D03*
X140748000Y-79394000D03*
D13*
X139848000Y-79394000D03*
D14*
X140748000Y-81934000D03*
D13*
X139848000Y-81934000D03*
X139848000Y-84474000D03*
D15*
X140748000Y-84474000D03*
D13*
X139848000Y-87014000D03*
D14*
X140748000Y-87014000D03*
D13*
X139848000Y-89554000D03*
D14*
X140748000Y-89554000D03*
D13*
X159428000Y-89554000D03*
D14*
X158528000Y-89554000D03*
X158528000Y-87014000D03*
D13*
X159428000Y-87014000D03*
D15*
X158528000Y-84474000D03*
D13*
X159428000Y-84474000D03*
X159428000Y-81934000D03*
D14*
X158528000Y-81934000D03*
D13*
X159428000Y-79394000D03*
D14*
X158528000Y-79394000D03*
D13*
X159428000Y-76854000D03*
D14*
X158528000Y-76854000D03*
X158528000Y-74314000D03*
D13*
X159428000Y-74314000D03*
D15*
X158528000Y-71774000D03*
D13*
X159428000Y-71774000D03*
X159428000Y-69234000D03*
D14*
X158528000Y-69234000D03*
X158528000Y-66694000D03*
D13*
X159428000Y-66694000D03*
X159428000Y-64154000D03*
D14*
X158528000Y-64154000D03*
D13*
X159428000Y-61614000D03*
D14*
X158528000Y-61614000D03*
D15*
X158528000Y-59074000D03*
D13*
X159428000Y-59074000D03*
X159428000Y-56534000D03*
D14*
X158528000Y-56534000D03*
D13*
X159428000Y-53994000D03*
D14*
X158528000Y-53994000D03*
X158528000Y-51454000D03*
D13*
X159428000Y-51454000D03*
X159428000Y-48914000D03*
D14*
X158528000Y-48914000D03*
D13*
X159428000Y-46374000D03*
D15*
X158528000Y-46374000D03*
D14*
X158528000Y-43834000D03*
D13*
X159428000Y-43834000D03*
X159428000Y-41294000D03*
D14*
X158528000Y-41294000D03*
X147098000Y-89324000D03*
D16*
X147098000Y-90224000D03*
D15*
X149638000Y-89324000D03*
D16*
X149638000Y-90224000D03*
X152178000Y-90224000D03*
D14*
X152178000Y-89324000D03*
%TD*%
D17*
%TO.C,E39*%
X171528000Y-118610000D03*
%TD*%
D18*
%TO.C,GPIO18*%
X172438000Y-97154000D03*
D19*
X172438000Y-92154000D03*
%TD*%
D20*
%TO.C,GPIO15*%
X149938000Y-94504000D03*
D21*
X149938000Y-97944000D03*
D19*
X149938000Y-102944000D03*
%TD*%
D22*
%TO.C,E30*%
X168338000Y-146154000D03*
%TD*%
D23*
%TO.C,GPIO3*%
X111535992Y-90634063D03*
%TD*%
D15*
%TO.C,C1*%
X127093000Y-68318000D03*
D14*
X129633000Y-68318000D03*
X132173000Y-68318000D03*
%TD*%
D24*
%TO.C,GPIO4*%
X118019915Y-105096642D03*
%TD*%
D25*
%TO.C,E34*%
X131038000Y-153654000D03*
%TD*%
D26*
%TO.C,B6*%
X154938000Y-139154000D03*
D19*
X159938000Y-139154000D03*
%TD*%
D27*
%TO.C,E37*%
X158920635Y-163055519D03*
%TD*%
D28*
%TO.C,GPIO1*%
X116519915Y-60211358D03*
%TD*%
D29*
%TO.C,E40*%
X127514604Y-116767721D03*
%TD*%
D30*
%TO.C,GPIO28*%
X172385008Y-49238805D03*
%TD*%
D19*
%TO.C,GPIO14*%
X143478000Y-109154000D03*
D26*
X138478000Y-109154000D03*
D31*
X135038000Y-109154000D03*
%TD*%
D22*
%TO.C,E31*%
X168338000Y-139154000D03*
%TD*%
D32*
%TO.C,GPIO16*%
X161148000Y-109154000D03*
D19*
X156148000Y-109154000D03*
D33*
X164588000Y-109154000D03*
%TD*%
D34*
%TO.C,C2*%
X133086000Y-82518000D03*
X122086000Y-82518000D03*
D35*
X130386000Y-79768000D03*
X128586000Y-79768000D03*
X126586000Y-79768000D03*
X124586000Y-79768000D03*
%TD*%
D19*
%TO.C,GPIO13*%
X127438000Y-92154000D03*
D18*
X127438000Y-97154000D03*
%TD*%
D36*
%TO.C,E38*%
X140955365Y-163055519D03*
%TD*%
D26*
%TO.C,B1*%
X154938000Y-153154000D03*
D19*
X159938000Y-153154000D03*
%TD*%
D25*
%TO.C,E33*%
X131098000Y-139654000D03*
%TD*%
D15*
%TO.C,C3*%
X127093000Y-72382000D03*
D14*
X129633000Y-72382000D03*
X132173000Y-72382000D03*
%TD*%
D37*
%TO.C,R3*%
X161036000Y-101600000D03*
D38*
X155956000Y-101600000D03*
%TD*%
D22*
%TO.C,E35*%
X168338000Y-153154000D03*
%TD*%
D19*
%TO.C,B2*%
X144438000Y-146654000D03*
D26*
X139438000Y-146654000D03*
%TD*%
%TO.C,B4*%
X139438000Y-153654000D03*
D19*
X144438000Y-153654000D03*
%TD*%
D39*
%TO.C,D12*%
X152388000Y-110754000D03*
X152388000Y-107554000D03*
X147488000Y-107554000D03*
X147488000Y-110754000D03*
%TD*%
D40*
%TO.C,GPIO22*%
X188340008Y-90634063D03*
%TD*%
D19*
%TO.C,B3*%
X144438000Y-139654000D03*
D26*
X139438000Y-139654000D03*
%TD*%
D25*
%TO.C,E32*%
X131038000Y-146654000D03*
%TD*%
D37*
%TO.C,R1*%
X138176000Y-116840000D03*
D38*
X143256000Y-116840000D03*
%TD*%
D41*
%TO.C,GPIO26*%
X188339837Y-73673081D03*
%TD*%
D42*
%TO.C,GPIO27*%
X182856085Y-60211358D03*
%TD*%
D19*
%TO.C,B5*%
X159938000Y-146154000D03*
D26*
X154938000Y-146154000D03*
%TD*%
D43*
%TO.C,GPIO0*%
X127994641Y-49236413D03*
%TD*%
D37*
%TO.C,R2*%
X141224000Y-96520000D03*
D38*
X141224000Y-101600000D03*
%TD*%
D44*
%TO.C,GPIO2*%
X111535992Y-73673937D03*
%TD*%
D45*
%TO.C,GPIO21*%
X182356588Y-105095930D03*
%TD*%
D37*
%TO.C,R4*%
X157988000Y-120904000D03*
D38*
X157988000Y-115824000D03*
%TD*%
D18*
%TO.C,GPIO17*%
X149938000Y-120614000D03*
D19*
X149938000Y-115614000D03*
D46*
X149938000Y-124054000D03*
%TD*%
G36*
X171000110Y-135174002D02*
G01*
X171046603Y-135227658D01*
X171057984Y-135281172D01*
X171055728Y-135523746D01*
X171059653Y-135537589D01*
X171073580Y-135549357D01*
X171233605Y-135615920D01*
X171242169Y-135619864D01*
X171408203Y-135704001D01*
X171416398Y-135708544D01*
X171574399Y-135803989D01*
X171582184Y-135809095D01*
X171731701Y-135915233D01*
X171739047Y-135920863D01*
X171879684Y-136037123D01*
X171886557Y-136043242D01*
X172017857Y-136168999D01*
X172024239Y-136175573D01*
X172145797Y-136310256D01*
X172151671Y-136317258D01*
X172263024Y-136460241D01*
X172268367Y-136467641D01*
X172369080Y-136618314D01*
X172373878Y-136626086D01*
X172463531Y-136783870D01*
X172467762Y-136791990D01*
X172545894Y-136956235D01*
X172549538Y-136964676D01*
X172615736Y-137134824D01*
X172618768Y-137143552D01*
X172672588Y-137318968D01*
X172674985Y-137327949D01*
X172716000Y-137508057D01*
X172717737Y-137517247D01*
X172745515Y-137701468D01*
X172746569Y-137710816D01*
X172760672Y-137898553D01*
X172761026Y-137907992D01*
X172761026Y-151334965D01*
X172761003Y-151337357D01*
X172755090Y-151648720D01*
X172754938Y-151652969D01*
X172738604Y-151962431D01*
X172738309Y-151966664D01*
X172711611Y-152274863D01*
X172711174Y-152279078D01*
X172674184Y-152585745D01*
X172673607Y-152589936D01*
X172626392Y-152894858D01*
X172625675Y-152899024D01*
X172568313Y-153201900D01*
X172567458Y-153206037D01*
X172500008Y-153506682D01*
X172499015Y-153510785D01*
X172421557Y-153808898D01*
X172420427Y-153812965D01*
X172333032Y-154108300D01*
X172331766Y-154112328D01*
X172234511Y-154404610D01*
X172233111Y-154408595D01*
X172126043Y-154697644D01*
X172124508Y-154701583D01*
X172007733Y-154987053D01*
X172006066Y-154990942D01*
X171879619Y-155272671D01*
X171877819Y-155276507D01*
X171741797Y-155554177D01*
X171739866Y-155557955D01*
X171594329Y-155831344D01*
X171592268Y-155835064D01*
X171437313Y-156103866D01*
X171435095Y-156107565D01*
X171270956Y-156371025D01*
X171268653Y-156374587D01*
X171096083Y-156631857D01*
X171093664Y-156635336D01*
X170912823Y-156886269D01*
X170910291Y-156889660D01*
X170721429Y-157133986D01*
X170718789Y-157137286D01*
X170522027Y-157374914D01*
X170519278Y-157378122D01*
X170314865Y-157608790D01*
X170312013Y-157611902D01*
X170100074Y-157835502D01*
X170097120Y-157838516D01*
X169877917Y-158054788D01*
X169874863Y-158057702D01*
X169648491Y-158266554D01*
X169645340Y-158269365D01*
X169412045Y-158470559D01*
X169408800Y-158473264D01*
X169168756Y-158666633D01*
X169165419Y-158669230D01*
X168918815Y-158854591D01*
X168915388Y-158857078D01*
X168662398Y-159034257D01*
X168658885Y-159036630D01*
X168510034Y-159133580D01*
X168441267Y-159154000D01*
X131411928Y-159154000D01*
X131343318Y-159133682D01*
X131155047Y-159011454D01*
X131151542Y-159009094D01*
X130897972Y-158832110D01*
X130894552Y-158829637D01*
X130647305Y-158644451D01*
X130643972Y-158641866D01*
X130403284Y-158448686D01*
X130400041Y-158445993D01*
X130166065Y-158244969D01*
X130162915Y-158242170D01*
X129935842Y-158033481D01*
X129932788Y-158030578D01*
X129712858Y-157814450D01*
X129709900Y-157811445D01*
X129497229Y-157587980D01*
X129494373Y-157584876D01*
X129289227Y-157354333D01*
X129286473Y-157351132D01*
X129088986Y-157113627D01*
X129086338Y-157110330D01*
X128896743Y-156866089D01*
X128894203Y-156862702D01*
X128712665Y-156611874D01*
X128710236Y-156608396D01*
X128536957Y-156351173D01*
X128534642Y-156347608D01*
X128369795Y-156084141D01*
X128367635Y-156080558D01*
X128211567Y-155811658D01*
X128209493Y-155807942D01*
X128062903Y-155534501D01*
X128060959Y-155530723D01*
X127923908Y-155252979D01*
X127922096Y-155249145D01*
X127794653Y-154967350D01*
X127792973Y-154963462D01*
X127675211Y-154677879D01*
X127673664Y-154673942D01*
X127565640Y-154384792D01*
X127564228Y-154380809D01*
X127466012Y-154088348D01*
X127464734Y-154084321D01*
X127376406Y-153788830D01*
X127375265Y-153784764D01*
X127296898Y-153486514D01*
X127295893Y-153482412D01*
X127227542Y-153181594D01*
X127226675Y-153177459D01*
X127168416Y-152874360D01*
X127167688Y-152870196D01*
X127119595Y-152565094D01*
X127119006Y-152560904D01*
X127081139Y-152253995D01*
X127080691Y-152249781D01*
X127053128Y-151941353D01*
X127052822Y-151937123D01*
X127035629Y-151627451D01*
X127035465Y-151623204D01*
X127028696Y-151311755D01*
X127028666Y-151309017D01*
X127028666Y-137880050D01*
X127028889Y-137872558D01*
X127034453Y-137779152D01*
X127034825Y-137774411D01*
X127043990Y-137680456D01*
X127044539Y-137675747D01*
X127057164Y-137582705D01*
X127057887Y-137578035D01*
X127073917Y-137485964D01*
X127074812Y-137481338D01*
X127094196Y-137390293D01*
X127095259Y-137385719D01*
X127117920Y-137295865D01*
X127119149Y-137291348D01*
X127145069Y-137202613D01*
X127146461Y-137198158D01*
X127175547Y-137110753D01*
X127177096Y-137106369D01*
X127209314Y-137020291D01*
X127211020Y-137015976D01*
X127246314Y-136931315D01*
X127248172Y-136927079D01*
X127286480Y-136843922D01*
X127288488Y-136839765D01*
X127329741Y-136758216D01*
X127331896Y-136754144D01*
X127376082Y-136674195D01*
X127378380Y-136670211D01*
X127425387Y-136592040D01*
X127427827Y-136588144D01*
X127477641Y-136511759D01*
X127480218Y-136507961D01*
X127532756Y-136433477D01*
X127535471Y-136429773D01*
X127590687Y-136357255D01*
X127593536Y-136353652D01*
X127651401Y-136283143D01*
X127654380Y-136279645D01*
X127714762Y-136211310D01*
X127717871Y-136207918D01*
X127780809Y-136141727D01*
X127784045Y-136138446D01*
X127849420Y-136074543D01*
X127852780Y-136071376D01*
X127920561Y-136009813D01*
X127924044Y-136006765D01*
X127994153Y-135947638D01*
X127997757Y-135944710D01*
X128070127Y-135888104D01*
X128073845Y-135885305D01*
X128148487Y-135831243D01*
X128152319Y-135828575D01*
X128229122Y-135777176D01*
X128233061Y-135774644D01*
X128311982Y-135725973D01*
X128316028Y-135723581D01*
X128397001Y-135677722D01*
X128401147Y-135675475D01*
X128484161Y-135632481D01*
X128488400Y-135630386D01*
X128573355Y-135590355D01*
X128577685Y-135588414D01*
X128664516Y-135551427D01*
X128668927Y-135549645D01*
X128742962Y-135521361D01*
X128755601Y-135511742D01*
X128759885Y-135499972D01*
X128759885Y-135358248D01*
X128759881Y-135357582D01*
X128759099Y-135281292D01*
X128778401Y-135212970D01*
X128831577Y-135165929D01*
X128885092Y-135154000D01*
X170931989Y-135154000D01*
X171000110Y-135174002D01*
G37*
M02*
