%FSLAX45Y45*%
G04 Gerber Fmt 4.5, Leading zero omitted, Abs format (unit mm)*
G04 Created by KiCad (PCBNEW 6.0.2+dfsg-1) date 2022-09-12 11:49:23*
%MOMM*%
%LPD*%
G01*
G04 APERTURE LIST*
%ADD10C,0.200000*%
%ADD11C,0.150000*%
%ADD12C,0.180000*%
G04 APERTURE END LIST*
D10*
D11*
X14646300Y-4370400D02*
X14796300Y-4520400D01*
X14796300Y-4370400D02*
X14646300Y-4520400D01*
X15131300Y-4370400D02*
X15281300Y-4520400D01*
X15281300Y-4370400D02*
X15131300Y-4520400D01*
D12*
X14781300Y-4142400D02*
G75*
G03*
X14781300Y-4142400I-90000J0D01*
G01*
X15326300Y-4142400D02*
G75*
G03*
X15326300Y-4142400I-90000J0D01*
G01*
D10*
X10858842Y-17218504D02*
X10858842Y-17018504D01*
X10906461Y-17018504D01*
X10935033Y-17028028D01*
X10954081Y-17047076D01*
X10963604Y-17066123D01*
X10973128Y-17104218D01*
X10973128Y-17132790D01*
X10963604Y-17170885D01*
X10954081Y-17189933D01*
X10935033Y-17208980D01*
X10906461Y-17218504D01*
X10858842Y-17218504D01*
X11058842Y-17218504D02*
X11058842Y-17085171D01*
X11058842Y-17123266D02*
X11068366Y-17104218D01*
X11077890Y-17094695D01*
X11096938Y-17085171D01*
X11115985Y-17085171D01*
X11182652Y-17218504D02*
X11182652Y-17085171D01*
X11182652Y-17018504D02*
X11173128Y-17028028D01*
X11182652Y-17037552D01*
X11192176Y-17028028D01*
X11182652Y-17018504D01*
X11182652Y-17037552D01*
X11306461Y-17218504D02*
X11287414Y-17208980D01*
X11277890Y-17189933D01*
X11277890Y-17018504D01*
X11411223Y-17218504D02*
X11392176Y-17208980D01*
X11382652Y-17189933D01*
X11382652Y-17018504D01*
X11639795Y-17218504D02*
X11639795Y-17018504D01*
X11706461Y-17161361D01*
X11773128Y-17018504D01*
X11773128Y-17218504D01*
X11954080Y-17218504D02*
X11954080Y-17113742D01*
X11944557Y-17094695D01*
X11925509Y-17085171D01*
X11887414Y-17085171D01*
X11868366Y-17094695D01*
X11954080Y-17208980D02*
X11935033Y-17218504D01*
X11887414Y-17218504D01*
X11868366Y-17208980D01*
X11858842Y-17189933D01*
X11858842Y-17170885D01*
X11868366Y-17151838D01*
X11887414Y-17142314D01*
X11935033Y-17142314D01*
X11954080Y-17132790D01*
X12049319Y-17085171D02*
X12049319Y-17285171D01*
X12049319Y-17094695D02*
X12068366Y-17085171D01*
X12106461Y-17085171D01*
X12125509Y-17094695D01*
X12135033Y-17104218D01*
X12144557Y-17123266D01*
X12144557Y-17180409D01*
X12135033Y-17199457D01*
X12125509Y-17208980D01*
X12106461Y-17218504D01*
X12068366Y-17218504D01*
X12049319Y-17208980D01*
X12230271Y-17199457D02*
X12239795Y-17208980D01*
X12230271Y-17218504D01*
X12220747Y-17208980D01*
X12230271Y-17199457D01*
X12230271Y-17218504D01*
X12230271Y-17094695D02*
X12239795Y-17104218D01*
X12230271Y-17113742D01*
X12220747Y-17104218D01*
X12230271Y-17094695D01*
X12230271Y-17113742D01*
D11*
X10451223Y-17473028D02*
X10601223Y-17623028D01*
X10601223Y-17473028D02*
X10451223Y-17623028D01*
D10*
X10963604Y-17638504D02*
X10849319Y-17638504D01*
X10906461Y-17638504D02*
X10906461Y-17438504D01*
X10887414Y-17467076D01*
X10868366Y-17486123D01*
X10849319Y-17495647D01*
X11049319Y-17619457D02*
X11058842Y-17628980D01*
X11049319Y-17638504D01*
X11039795Y-17628980D01*
X11049319Y-17619457D01*
X11049319Y-17638504D01*
X11239795Y-17438504D02*
X11144557Y-17438504D01*
X11135033Y-17533742D01*
X11144557Y-17524218D01*
X11163604Y-17514695D01*
X11211223Y-17514695D01*
X11230271Y-17524218D01*
X11239795Y-17533742D01*
X11249319Y-17552790D01*
X11249319Y-17600409D01*
X11239795Y-17619457D01*
X11230271Y-17628980D01*
X11211223Y-17638504D01*
X11163604Y-17638504D01*
X11144557Y-17628980D01*
X11135033Y-17619457D01*
X11373128Y-17438504D02*
X11392176Y-17438504D01*
X11411223Y-17448028D01*
X11420747Y-17457552D01*
X11430271Y-17476599D01*
X11439795Y-17514695D01*
X11439795Y-17562314D01*
X11430271Y-17600409D01*
X11420747Y-17619457D01*
X11411223Y-17628980D01*
X11392176Y-17638504D01*
X11373128Y-17638504D01*
X11354080Y-17628980D01*
X11344557Y-17619457D01*
X11335033Y-17600409D01*
X11325509Y-17562314D01*
X11325509Y-17514695D01*
X11335033Y-17476599D01*
X11344557Y-17457552D01*
X11354080Y-17448028D01*
X11373128Y-17438504D01*
X11563604Y-17438504D02*
X11582652Y-17438504D01*
X11601699Y-17448028D01*
X11611223Y-17457552D01*
X11620747Y-17476599D01*
X11630271Y-17514695D01*
X11630271Y-17562314D01*
X11620747Y-17600409D01*
X11611223Y-17619457D01*
X11601699Y-17628980D01*
X11582652Y-17638504D01*
X11563604Y-17638504D01*
X11544557Y-17628980D01*
X11535033Y-17619457D01*
X11525509Y-17600409D01*
X11515985Y-17562314D01*
X11515985Y-17514695D01*
X11525509Y-17476599D01*
X11535033Y-17457552D01*
X11544557Y-17448028D01*
X11563604Y-17438504D01*
X11715985Y-17638504D02*
X11715985Y-17505171D01*
X11715985Y-17524218D02*
X11725509Y-17514695D01*
X11744557Y-17505171D01*
X11773128Y-17505171D01*
X11792176Y-17514695D01*
X11801699Y-17533742D01*
X11801699Y-17638504D01*
X11801699Y-17533742D02*
X11811223Y-17514695D01*
X11830271Y-17505171D01*
X11858842Y-17505171D01*
X11877890Y-17514695D01*
X11887414Y-17533742D01*
X11887414Y-17638504D01*
X11982652Y-17638504D02*
X11982652Y-17505171D01*
X11982652Y-17524218D02*
X11992176Y-17514695D01*
X12011223Y-17505171D01*
X12039795Y-17505171D01*
X12058842Y-17514695D01*
X12068366Y-17533742D01*
X12068366Y-17638504D01*
X12068366Y-17533742D02*
X12077890Y-17514695D01*
X12096938Y-17505171D01*
X12125509Y-17505171D01*
X12144557Y-17514695D01*
X12154080Y-17533742D01*
X12154080Y-17638504D01*
X12544557Y-17428980D02*
X12373128Y-17686123D01*
X12801699Y-17438504D02*
X12820747Y-17438504D01*
X12839795Y-17448028D01*
X12849319Y-17457552D01*
X12858842Y-17476599D01*
X12868366Y-17514695D01*
X12868366Y-17562314D01*
X12858842Y-17600409D01*
X12849319Y-17619457D01*
X12839795Y-17628980D01*
X12820747Y-17638504D01*
X12801699Y-17638504D01*
X12782652Y-17628980D01*
X12773128Y-17619457D01*
X12763604Y-17600409D01*
X12754080Y-17562314D01*
X12754080Y-17514695D01*
X12763604Y-17476599D01*
X12773128Y-17457552D01*
X12782652Y-17448028D01*
X12801699Y-17438504D01*
X12954080Y-17619457D02*
X12963604Y-17628980D01*
X12954080Y-17638504D01*
X12944557Y-17628980D01*
X12954080Y-17619457D01*
X12954080Y-17638504D01*
X13087414Y-17438504D02*
X13106461Y-17438504D01*
X13125509Y-17448028D01*
X13135033Y-17457552D01*
X13144557Y-17476599D01*
X13154080Y-17514695D01*
X13154080Y-17562314D01*
X13144557Y-17600409D01*
X13135033Y-17619457D01*
X13125509Y-17628980D01*
X13106461Y-17638504D01*
X13087414Y-17638504D01*
X13068366Y-17628980D01*
X13058842Y-17619457D01*
X13049319Y-17600409D01*
X13039795Y-17562314D01*
X13039795Y-17514695D01*
X13049319Y-17476599D01*
X13058842Y-17457552D01*
X13068366Y-17448028D01*
X13087414Y-17438504D01*
X13335033Y-17438504D02*
X13239795Y-17438504D01*
X13230271Y-17533742D01*
X13239795Y-17524218D01*
X13258842Y-17514695D01*
X13306461Y-17514695D01*
X13325509Y-17524218D01*
X13335033Y-17533742D01*
X13344557Y-17552790D01*
X13344557Y-17600409D01*
X13335033Y-17619457D01*
X13325509Y-17628980D01*
X13306461Y-17638504D01*
X13258842Y-17638504D01*
X13239795Y-17628980D01*
X13230271Y-17619457D01*
X13439795Y-17638504D02*
X13477890Y-17638504D01*
X13496938Y-17628980D01*
X13506461Y-17619457D01*
X13525509Y-17590885D01*
X13535033Y-17552790D01*
X13535033Y-17476599D01*
X13525509Y-17457552D01*
X13515985Y-17448028D01*
X13496938Y-17438504D01*
X13458842Y-17438504D01*
X13439795Y-17448028D01*
X13430271Y-17457552D01*
X13420747Y-17476599D01*
X13420747Y-17524218D01*
X13430271Y-17543266D01*
X13439795Y-17552790D01*
X13458842Y-17562314D01*
X13496938Y-17562314D01*
X13515985Y-17552790D01*
X13525509Y-17543266D01*
X13535033Y-17524218D01*
X13725509Y-17638504D02*
X13611223Y-17638504D01*
X13668366Y-17638504D02*
X13668366Y-17438504D01*
X13649319Y-17467076D01*
X13630271Y-17486123D01*
X13611223Y-17495647D01*
X13801699Y-17438504D02*
X13801699Y-17476599D01*
X13877890Y-17438504D02*
X13877890Y-17476599D01*
X14173128Y-17714695D02*
X14163604Y-17705171D01*
X14144557Y-17676599D01*
X14135033Y-17657552D01*
X14125509Y-17628980D01*
X14115985Y-17581361D01*
X14115985Y-17543266D01*
X14125509Y-17495647D01*
X14135033Y-17467076D01*
X14144557Y-17448028D01*
X14163604Y-17419457D01*
X14173128Y-17409933D01*
X14239795Y-17457552D02*
X14249319Y-17448028D01*
X14268366Y-17438504D01*
X14315985Y-17438504D01*
X14335033Y-17448028D01*
X14344557Y-17457552D01*
X14354080Y-17476599D01*
X14354080Y-17495647D01*
X14344557Y-17524218D01*
X14230271Y-17638504D01*
X14354080Y-17638504D01*
X14592176Y-17638504D02*
X14592176Y-17438504D01*
X14677890Y-17638504D02*
X14677890Y-17533742D01*
X14668366Y-17514695D01*
X14649319Y-17505171D01*
X14620747Y-17505171D01*
X14601699Y-17514695D01*
X14592176Y-17524218D01*
X14801699Y-17638504D02*
X14782652Y-17628980D01*
X14773128Y-17619457D01*
X14763604Y-17600409D01*
X14763604Y-17543266D01*
X14773128Y-17524218D01*
X14782652Y-17514695D01*
X14801699Y-17505171D01*
X14830271Y-17505171D01*
X14849319Y-17514695D01*
X14858842Y-17524218D01*
X14868366Y-17543266D01*
X14868366Y-17600409D01*
X14858842Y-17619457D01*
X14849319Y-17628980D01*
X14830271Y-17638504D01*
X14801699Y-17638504D01*
X14982652Y-17638504D02*
X14963604Y-17628980D01*
X14954080Y-17609933D01*
X14954080Y-17438504D01*
X15135033Y-17628980D02*
X15115985Y-17638504D01*
X15077890Y-17638504D01*
X15058842Y-17628980D01*
X15049319Y-17609933D01*
X15049319Y-17533742D01*
X15058842Y-17514695D01*
X15077890Y-17505171D01*
X15115985Y-17505171D01*
X15135033Y-17514695D01*
X15144557Y-17533742D01*
X15144557Y-17552790D01*
X15049319Y-17571838D01*
X15220747Y-17628980D02*
X15239795Y-17638504D01*
X15277890Y-17638504D01*
X15296938Y-17628980D01*
X15306461Y-17609933D01*
X15306461Y-17600409D01*
X15296938Y-17581361D01*
X15277890Y-17571838D01*
X15249319Y-17571838D01*
X15230271Y-17562314D01*
X15220747Y-17543266D01*
X15220747Y-17533742D01*
X15230271Y-17514695D01*
X15249319Y-17505171D01*
X15277890Y-17505171D01*
X15296938Y-17514695D01*
X15373128Y-17714695D02*
X15382652Y-17705171D01*
X15401699Y-17676599D01*
X15411223Y-17657552D01*
X15420747Y-17628980D01*
X15430271Y-17581361D01*
X15430271Y-17543266D01*
X15420747Y-17495647D01*
X15411223Y-17467076D01*
X15401699Y-17448028D01*
X15382652Y-17419457D01*
X15373128Y-17409933D01*
X15735033Y-17714695D02*
X15725509Y-17705171D01*
X15706461Y-17676599D01*
X15696938Y-17657552D01*
X15687414Y-17628980D01*
X15677890Y-17581361D01*
X15677890Y-17543266D01*
X15687414Y-17495647D01*
X15696938Y-17467076D01*
X15706461Y-17448028D01*
X15725509Y-17419457D01*
X15735033Y-17409933D01*
X15811223Y-17505171D02*
X15811223Y-17638504D01*
X15811223Y-17524218D02*
X15820747Y-17514695D01*
X15839795Y-17505171D01*
X15868366Y-17505171D01*
X15887414Y-17514695D01*
X15896938Y-17533742D01*
X15896938Y-17638504D01*
X16020747Y-17638504D02*
X16001699Y-17628980D01*
X15992176Y-17619457D01*
X15982652Y-17600409D01*
X15982652Y-17543266D01*
X15992176Y-17524218D01*
X16001699Y-17514695D01*
X16020747Y-17505171D01*
X16049319Y-17505171D01*
X16068366Y-17514695D01*
X16077890Y-17524218D01*
X16087414Y-17543266D01*
X16087414Y-17600409D01*
X16077890Y-17619457D01*
X16068366Y-17628980D01*
X16049319Y-17638504D01*
X16020747Y-17638504D01*
X16144557Y-17505171D02*
X16220747Y-17505171D01*
X16173128Y-17438504D02*
X16173128Y-17609933D01*
X16182652Y-17628980D01*
X16201699Y-17638504D01*
X16220747Y-17638504D01*
X16439795Y-17505171D02*
X16439795Y-17705171D01*
X16439795Y-17514695D02*
X16458842Y-17505171D01*
X16496938Y-17505171D01*
X16515985Y-17514695D01*
X16525509Y-17524218D01*
X16535033Y-17543266D01*
X16535033Y-17600409D01*
X16525509Y-17619457D01*
X16515985Y-17628980D01*
X16496938Y-17638504D01*
X16458842Y-17638504D01*
X16439795Y-17628980D01*
X16649319Y-17638504D02*
X16630271Y-17628980D01*
X16620747Y-17609933D01*
X16620747Y-17438504D01*
X16811223Y-17638504D02*
X16811223Y-17533742D01*
X16801700Y-17514695D01*
X16782652Y-17505171D01*
X16744557Y-17505171D01*
X16725509Y-17514695D01*
X16811223Y-17628980D02*
X16792176Y-17638504D01*
X16744557Y-17638504D01*
X16725509Y-17628980D01*
X16715985Y-17609933D01*
X16715985Y-17590885D01*
X16725509Y-17571838D01*
X16744557Y-17562314D01*
X16792176Y-17562314D01*
X16811223Y-17552790D01*
X16877890Y-17505171D02*
X16954081Y-17505171D01*
X16906461Y-17438504D02*
X16906461Y-17609933D01*
X16915985Y-17628980D01*
X16935033Y-17638504D01*
X16954081Y-17638504D01*
X17096938Y-17628980D02*
X17077890Y-17638504D01*
X17039795Y-17638504D01*
X17020747Y-17628980D01*
X17011223Y-17609933D01*
X17011223Y-17533742D01*
X17020747Y-17514695D01*
X17039795Y-17505171D01*
X17077890Y-17505171D01*
X17096938Y-17514695D01*
X17106461Y-17533742D01*
X17106461Y-17552790D01*
X17011223Y-17571838D01*
X17277890Y-17638504D02*
X17277890Y-17438504D01*
X17277890Y-17628980D02*
X17258842Y-17638504D01*
X17220747Y-17638504D01*
X17201700Y-17628980D01*
X17192176Y-17619457D01*
X17182652Y-17600409D01*
X17182652Y-17543266D01*
X17192176Y-17524218D01*
X17201700Y-17514695D01*
X17220747Y-17505171D01*
X17258842Y-17505171D01*
X17277890Y-17514695D01*
X17354081Y-17714695D02*
X17363604Y-17705171D01*
X17382652Y-17676599D01*
X17392176Y-17657552D01*
X17401700Y-17628980D01*
X17411223Y-17581361D01*
X17411223Y-17543266D01*
X17401700Y-17495647D01*
X17392176Y-17467076D01*
X17382652Y-17448028D01*
X17363604Y-17419457D01*
X17354081Y-17409933D01*
D12*
X10601223Y-17818028D02*
G75*
G03*
X10601223Y-17818028I-90000J0D01*
G01*
D10*
X10963604Y-17908504D02*
X10849319Y-17908504D01*
X10906461Y-17908504D02*
X10906461Y-17708504D01*
X10887414Y-17737076D01*
X10868366Y-17756123D01*
X10849319Y-17765647D01*
X11049319Y-17889457D02*
X11058842Y-17898980D01*
X11049319Y-17908504D01*
X11039795Y-17898980D01*
X11049319Y-17889457D01*
X11049319Y-17908504D01*
X11173128Y-17794218D02*
X11154081Y-17784695D01*
X11144557Y-17775171D01*
X11135033Y-17756123D01*
X11135033Y-17746599D01*
X11144557Y-17727552D01*
X11154081Y-17718028D01*
X11173128Y-17708504D01*
X11211223Y-17708504D01*
X11230271Y-17718028D01*
X11239795Y-17727552D01*
X11249319Y-17746599D01*
X11249319Y-17756123D01*
X11239795Y-17775171D01*
X11230271Y-17784695D01*
X11211223Y-17794218D01*
X11173128Y-17794218D01*
X11154081Y-17803742D01*
X11144557Y-17813266D01*
X11135033Y-17832314D01*
X11135033Y-17870409D01*
X11144557Y-17889457D01*
X11154081Y-17898980D01*
X11173128Y-17908504D01*
X11211223Y-17908504D01*
X11230271Y-17898980D01*
X11239795Y-17889457D01*
X11249319Y-17870409D01*
X11249319Y-17832314D01*
X11239795Y-17813266D01*
X11230271Y-17803742D01*
X11211223Y-17794218D01*
X11373128Y-17708504D02*
X11392176Y-17708504D01*
X11411223Y-17718028D01*
X11420747Y-17727552D01*
X11430271Y-17746599D01*
X11439795Y-17784695D01*
X11439795Y-17832314D01*
X11430271Y-17870409D01*
X11420747Y-17889457D01*
X11411223Y-17898980D01*
X11392176Y-17908504D01*
X11373128Y-17908504D01*
X11354080Y-17898980D01*
X11344557Y-17889457D01*
X11335033Y-17870409D01*
X11325509Y-17832314D01*
X11325509Y-17784695D01*
X11335033Y-17746599D01*
X11344557Y-17727552D01*
X11354080Y-17718028D01*
X11373128Y-17708504D01*
X11563604Y-17708504D02*
X11582652Y-17708504D01*
X11601699Y-17718028D01*
X11611223Y-17727552D01*
X11620747Y-17746599D01*
X11630271Y-17784695D01*
X11630271Y-17832314D01*
X11620747Y-17870409D01*
X11611223Y-17889457D01*
X11601699Y-17898980D01*
X11582652Y-17908504D01*
X11563604Y-17908504D01*
X11544557Y-17898980D01*
X11535033Y-17889457D01*
X11525509Y-17870409D01*
X11515985Y-17832314D01*
X11515985Y-17784695D01*
X11525509Y-17746599D01*
X11535033Y-17727552D01*
X11544557Y-17718028D01*
X11563604Y-17708504D01*
X11715985Y-17908504D02*
X11715985Y-17775171D01*
X11715985Y-17794218D02*
X11725509Y-17784695D01*
X11744557Y-17775171D01*
X11773128Y-17775171D01*
X11792176Y-17784695D01*
X11801699Y-17803742D01*
X11801699Y-17908504D01*
X11801699Y-17803742D02*
X11811223Y-17784695D01*
X11830271Y-17775171D01*
X11858842Y-17775171D01*
X11877890Y-17784695D01*
X11887414Y-17803742D01*
X11887414Y-17908504D01*
X11982652Y-17908504D02*
X11982652Y-17775171D01*
X11982652Y-17794218D02*
X11992176Y-17784695D01*
X12011223Y-17775171D01*
X12039795Y-17775171D01*
X12058842Y-17784695D01*
X12068366Y-17803742D01*
X12068366Y-17908504D01*
X12068366Y-17803742D02*
X12077890Y-17784695D01*
X12096938Y-17775171D01*
X12125509Y-17775171D01*
X12144557Y-17784695D01*
X12154080Y-17803742D01*
X12154080Y-17908504D01*
X12544557Y-17698980D02*
X12373128Y-17956123D01*
X12801699Y-17708504D02*
X12820747Y-17708504D01*
X12839795Y-17718028D01*
X12849319Y-17727552D01*
X12858842Y-17746599D01*
X12868366Y-17784695D01*
X12868366Y-17832314D01*
X12858842Y-17870409D01*
X12849319Y-17889457D01*
X12839795Y-17898980D01*
X12820747Y-17908504D01*
X12801699Y-17908504D01*
X12782652Y-17898980D01*
X12773128Y-17889457D01*
X12763604Y-17870409D01*
X12754080Y-17832314D01*
X12754080Y-17784695D01*
X12763604Y-17746599D01*
X12773128Y-17727552D01*
X12782652Y-17718028D01*
X12801699Y-17708504D01*
X12954080Y-17889457D02*
X12963604Y-17898980D01*
X12954080Y-17908504D01*
X12944557Y-17898980D01*
X12954080Y-17889457D01*
X12954080Y-17908504D01*
X13087414Y-17708504D02*
X13106461Y-17708504D01*
X13125509Y-17718028D01*
X13135033Y-17727552D01*
X13144557Y-17746599D01*
X13154080Y-17784695D01*
X13154080Y-17832314D01*
X13144557Y-17870409D01*
X13135033Y-17889457D01*
X13125509Y-17898980D01*
X13106461Y-17908504D01*
X13087414Y-17908504D01*
X13068366Y-17898980D01*
X13058842Y-17889457D01*
X13049319Y-17870409D01*
X13039795Y-17832314D01*
X13039795Y-17784695D01*
X13049319Y-17746599D01*
X13058842Y-17727552D01*
X13068366Y-17718028D01*
X13087414Y-17708504D01*
X13220747Y-17708504D02*
X13354080Y-17708504D01*
X13268366Y-17908504D01*
X13468366Y-17708504D02*
X13487414Y-17708504D01*
X13506461Y-17718028D01*
X13515985Y-17727552D01*
X13525509Y-17746599D01*
X13535033Y-17784695D01*
X13535033Y-17832314D01*
X13525509Y-17870409D01*
X13515985Y-17889457D01*
X13506461Y-17898980D01*
X13487414Y-17908504D01*
X13468366Y-17908504D01*
X13449319Y-17898980D01*
X13439795Y-17889457D01*
X13430271Y-17870409D01*
X13420747Y-17832314D01*
X13420747Y-17784695D01*
X13430271Y-17746599D01*
X13439795Y-17727552D01*
X13449319Y-17718028D01*
X13468366Y-17708504D01*
X13630271Y-17908504D02*
X13668366Y-17908504D01*
X13687414Y-17898980D01*
X13696938Y-17889457D01*
X13715985Y-17860885D01*
X13725509Y-17822790D01*
X13725509Y-17746599D01*
X13715985Y-17727552D01*
X13706461Y-17718028D01*
X13687414Y-17708504D01*
X13649319Y-17708504D01*
X13630271Y-17718028D01*
X13620747Y-17727552D01*
X13611223Y-17746599D01*
X13611223Y-17794218D01*
X13620747Y-17813266D01*
X13630271Y-17822790D01*
X13649319Y-17832314D01*
X13687414Y-17832314D01*
X13706461Y-17822790D01*
X13715985Y-17813266D01*
X13725509Y-17794218D01*
X13801699Y-17708504D02*
X13801699Y-17746599D01*
X13877890Y-17708504D02*
X13877890Y-17746599D01*
X14173128Y-17984695D02*
X14163604Y-17975171D01*
X14144557Y-17946599D01*
X14135033Y-17927552D01*
X14125509Y-17898980D01*
X14115985Y-17851361D01*
X14115985Y-17813266D01*
X14125509Y-17765647D01*
X14135033Y-17737076D01*
X14144557Y-17718028D01*
X14163604Y-17689457D01*
X14173128Y-17679933D01*
X14239795Y-17727552D02*
X14249319Y-17718028D01*
X14268366Y-17708504D01*
X14315985Y-17708504D01*
X14335033Y-17718028D01*
X14344557Y-17727552D01*
X14354080Y-17746599D01*
X14354080Y-17765647D01*
X14344557Y-17794218D01*
X14230271Y-17908504D01*
X14354080Y-17908504D01*
X14592176Y-17908504D02*
X14592176Y-17708504D01*
X14677890Y-17908504D02*
X14677890Y-17803742D01*
X14668366Y-17784695D01*
X14649319Y-17775171D01*
X14620747Y-17775171D01*
X14601699Y-17784695D01*
X14592176Y-17794218D01*
X14801699Y-17908504D02*
X14782652Y-17898980D01*
X14773128Y-17889457D01*
X14763604Y-17870409D01*
X14763604Y-17813266D01*
X14773128Y-17794218D01*
X14782652Y-17784695D01*
X14801699Y-17775171D01*
X14830271Y-17775171D01*
X14849319Y-17784695D01*
X14858842Y-17794218D01*
X14868366Y-17813266D01*
X14868366Y-17870409D01*
X14858842Y-17889457D01*
X14849319Y-17898980D01*
X14830271Y-17908504D01*
X14801699Y-17908504D01*
X14982652Y-17908504D02*
X14963604Y-17898980D01*
X14954080Y-17879933D01*
X14954080Y-17708504D01*
X15135033Y-17898980D02*
X15115985Y-17908504D01*
X15077890Y-17908504D01*
X15058842Y-17898980D01*
X15049319Y-17879933D01*
X15049319Y-17803742D01*
X15058842Y-17784695D01*
X15077890Y-17775171D01*
X15115985Y-17775171D01*
X15135033Y-17784695D01*
X15144557Y-17803742D01*
X15144557Y-17822790D01*
X15049319Y-17841838D01*
X15220747Y-17898980D02*
X15239795Y-17908504D01*
X15277890Y-17908504D01*
X15296938Y-17898980D01*
X15306461Y-17879933D01*
X15306461Y-17870409D01*
X15296938Y-17851361D01*
X15277890Y-17841838D01*
X15249319Y-17841838D01*
X15230271Y-17832314D01*
X15220747Y-17813266D01*
X15220747Y-17803742D01*
X15230271Y-17784695D01*
X15249319Y-17775171D01*
X15277890Y-17775171D01*
X15296938Y-17784695D01*
X15373128Y-17984695D02*
X15382652Y-17975171D01*
X15401699Y-17946599D01*
X15411223Y-17927552D01*
X15420747Y-17898980D01*
X15430271Y-17851361D01*
X15430271Y-17813266D01*
X15420747Y-17765647D01*
X15411223Y-17737076D01*
X15401699Y-17718028D01*
X15382652Y-17689457D01*
X15373128Y-17679933D01*
X15735033Y-17984695D02*
X15725509Y-17975171D01*
X15706461Y-17946599D01*
X15696938Y-17927552D01*
X15687414Y-17898980D01*
X15677890Y-17851361D01*
X15677890Y-17813266D01*
X15687414Y-17765647D01*
X15696938Y-17737076D01*
X15706461Y-17718028D01*
X15725509Y-17689457D01*
X15735033Y-17679933D01*
X15811223Y-17775171D02*
X15811223Y-17908504D01*
X15811223Y-17794218D02*
X15820747Y-17784695D01*
X15839795Y-17775171D01*
X15868366Y-17775171D01*
X15887414Y-17784695D01*
X15896938Y-17803742D01*
X15896938Y-17908504D01*
X16020747Y-17908504D02*
X16001699Y-17898980D01*
X15992176Y-17889457D01*
X15982652Y-17870409D01*
X15982652Y-17813266D01*
X15992176Y-17794218D01*
X16001699Y-17784695D01*
X16020747Y-17775171D01*
X16049319Y-17775171D01*
X16068366Y-17784695D01*
X16077890Y-17794218D01*
X16087414Y-17813266D01*
X16087414Y-17870409D01*
X16077890Y-17889457D01*
X16068366Y-17898980D01*
X16049319Y-17908504D01*
X16020747Y-17908504D01*
X16144557Y-17775171D02*
X16220747Y-17775171D01*
X16173128Y-17708504D02*
X16173128Y-17879933D01*
X16182652Y-17898980D01*
X16201699Y-17908504D01*
X16220747Y-17908504D01*
X16439795Y-17775171D02*
X16439795Y-17975171D01*
X16439795Y-17784695D02*
X16458842Y-17775171D01*
X16496938Y-17775171D01*
X16515985Y-17784695D01*
X16525509Y-17794218D01*
X16535033Y-17813266D01*
X16535033Y-17870409D01*
X16525509Y-17889457D01*
X16515985Y-17898980D01*
X16496938Y-17908504D01*
X16458842Y-17908504D01*
X16439795Y-17898980D01*
X16649319Y-17908504D02*
X16630271Y-17898980D01*
X16620747Y-17879933D01*
X16620747Y-17708504D01*
X16811223Y-17908504D02*
X16811223Y-17803742D01*
X16801700Y-17784695D01*
X16782652Y-17775171D01*
X16744557Y-17775171D01*
X16725509Y-17784695D01*
X16811223Y-17898980D02*
X16792176Y-17908504D01*
X16744557Y-17908504D01*
X16725509Y-17898980D01*
X16715985Y-17879933D01*
X16715985Y-17860885D01*
X16725509Y-17841838D01*
X16744557Y-17832314D01*
X16792176Y-17832314D01*
X16811223Y-17822790D01*
X16877890Y-17775171D02*
X16954081Y-17775171D01*
X16906461Y-17708504D02*
X16906461Y-17879933D01*
X16915985Y-17898980D01*
X16935033Y-17908504D01*
X16954081Y-17908504D01*
X17096938Y-17898980D02*
X17077890Y-17908504D01*
X17039795Y-17908504D01*
X17020747Y-17898980D01*
X17011223Y-17879933D01*
X17011223Y-17803742D01*
X17020747Y-17784695D01*
X17039795Y-17775171D01*
X17077890Y-17775171D01*
X17096938Y-17784695D01*
X17106461Y-17803742D01*
X17106461Y-17822790D01*
X17011223Y-17841838D01*
X17277890Y-17908504D02*
X17277890Y-17708504D01*
X17277890Y-17898980D02*
X17258842Y-17908504D01*
X17220747Y-17908504D01*
X17201700Y-17898980D01*
X17192176Y-17889457D01*
X17182652Y-17870409D01*
X17182652Y-17813266D01*
X17192176Y-17794218D01*
X17201700Y-17784695D01*
X17220747Y-17775171D01*
X17258842Y-17775171D01*
X17277890Y-17784695D01*
X17354081Y-17984695D02*
X17363604Y-17975171D01*
X17382652Y-17946599D01*
X17392176Y-17927552D01*
X17401700Y-17898980D01*
X17411223Y-17851361D01*
X17411223Y-17813266D01*
X17401700Y-17765647D01*
X17392176Y-17737076D01*
X17382652Y-17718028D01*
X17363604Y-17689457D01*
X17354081Y-17679933D01*
M02*
