M48
; DRILL file {KiCad 6.0.2+dfsg-1} date Mo 12 Sep 2022 11:49:22 CEST
; FORMAT={-:-/ absolute / metric / decimal}
; #@! TF.CreationDate,2022-09-12T11:49:22+02:00
; #@! TF.GenerationSoftware,Kicad,Pcbnew,6.0.2+dfsg-1
; #@! TF.FileFunction,Plated,1,2,PTH
FMAT,2
METRIC
; #@! TA.AperFunction,Plated,PTH,ViaDrill
T1C0.400
; #@! TA.AperFunction,Plated,PTH,ComponentDrill
T2C0.700
; #@! TA.AperFunction,Plated,PTH,ComponentDrill
T3C1.000
; #@! TA.AperFunction,Plated,PTH,ComponentDrill
T4C1.020
; #@! TA.AperFunction,Plated,PTH,ComponentDrill
T5C3.170
; #@! TA.AperFunction,Plated,PTH,ComponentDrill
T6C3.175
%
G90
G05
T1
X124.03Y-75.684
X124.03Y-76.7
X128.602Y-76.7
X130.38Y-76.7
X146.124Y-126.484
X147.144Y-126.484
X148.16Y-126.484
X148.844Y-108.204
X152.351Y-109.339
X159.738Y-123.854
X159.738Y-125.454
X159.738Y-127.054
X160.479Y-115.562
X172.221Y-104.571
X172.438Y-71.654
X173.11Y-103.682
X173.438Y-71.654
X173.872Y-102.92
X174.438Y-71.654
X175.438Y-71.654
T2
X138.176Y-116.84
X141.224Y-96.52
X141.224Y-101.6
X143.256Y-116.84
X155.956Y-101.6
X157.988Y-115.824
X157.988Y-120.904
X161.036Y-101.6
T3
X127.093Y-68.318
X127.093Y-72.382
X129.633Y-68.318
X129.633Y-72.382
X132.173Y-68.318
X132.173Y-72.382
T4
X140.748Y-41.294
X140.748Y-43.834
X140.748Y-46.374
X140.748Y-48.914
X140.748Y-51.454
X140.748Y-53.994
X140.748Y-56.534
X140.748Y-59.074
X140.748Y-61.614
X140.748Y-64.154
X140.748Y-66.694
X140.748Y-69.234
X140.748Y-71.774
X140.748Y-74.314
X140.748Y-76.854
X140.748Y-79.394
X140.748Y-81.934
X140.748Y-84.474
X140.748Y-87.014
X140.748Y-89.554
X147.098Y-89.324
X149.638Y-89.324
X152.178Y-89.324
X158.528Y-41.294
X158.528Y-43.834
X158.528Y-46.374
X158.528Y-48.914
X158.528Y-51.454
X158.528Y-53.994
X158.528Y-56.534
X158.528Y-59.074
X158.528Y-61.614
X158.528Y-64.154
X158.528Y-66.694
X158.528Y-69.234
X158.528Y-71.774
X158.528Y-74.314
X158.528Y-76.854
X158.528Y-79.394
X158.528Y-81.934
X158.528Y-84.474
X158.528Y-87.014
X158.528Y-89.554
T5
X111.536Y-73.674
X111.536Y-90.634
X116.52Y-60.211
X118.02Y-105.097
X127.515Y-116.768
X127.995Y-49.236
X131.038Y-146.654
X131.038Y-153.654
X131.098Y-139.654
X140.955Y-163.056
X158.921Y-163.056
X168.338Y-139.154
X168.338Y-146.154
X168.338Y-153.154
X171.528Y-118.61
X172.385Y-49.239
X182.357Y-105.096
X182.856Y-60.211
X188.34Y-73.673
X188.34Y-90.634
T6
X127.438Y-92.154
X127.438Y-97.154
X138.478Y-109.154
X139.438Y-139.654
X139.438Y-146.654
X139.438Y-153.654
X143.478Y-109.154
X144.438Y-139.654
X144.438Y-146.654
X144.438Y-153.654
X149.938Y-97.944
X149.938Y-102.944
X149.938Y-115.614
X149.938Y-120.614
X154.938Y-139.154
X154.938Y-146.154
X154.938Y-153.154
X156.148Y-109.154
X159.938Y-139.154
X159.938Y-146.154
X159.938Y-153.154
X161.148Y-109.154
X172.438Y-92.154
X172.438Y-97.154
T0
M30
