%TF.GenerationSoftware,KiCad,Pcbnew,8.0.5-8.0.5-0~ubuntu22.04.1*%
%TF.CreationDate,2024-11-27T13:58:37+01:00*%
%TF.ProjectId,nerdYcontroller,6e657264-5963-46f6-9e74-726f6c6c6572,rev?*%
%TF.SameCoordinates,Original*%
%TF.FileFunction,Copper,L1,Top*%
%TF.FilePolarity,Positive*%
%FSLAX46Y46*%
G04 Gerber Fmt 4.6, Leading zero omitted, Abs format (unit mm)*
G04 Created by KiCad (PCBNEW 8.0.5-8.0.5-0~ubuntu22.04.1) date 2024-11-27 13:58:37*
%MOMM*%
%LPD*%
G01*
G04 APERTURE LIST*
G04 Aperture macros list*
%AMRoundRect*
0 Rectangle with rounded corners*
0 $1 Rounding radius*
0 $2 $3 $4 $5 $6 $7 $8 $9 X,Y pos of 4 corners*
0 Add a 4 corners polygon primitive as box body*
4,1,4,$2,$3,$4,$5,$6,$7,$8,$9,$2,$3,0*
0 Add four circle primitives for the rounded corners*
1,1,$1+$1,$2,$3*
1,1,$1+$1,$4,$5*
1,1,$1+$1,$6,$7*
1,1,$1+$1,$8,$9*
0 Add four rect primitives between the rounded corners*
20,1,$1+$1,$2,$3,$4,$5,0*
20,1,$1+$1,$4,$5,$6,$7,0*
20,1,$1+$1,$6,$7,$8,$9,0*
20,1,$1+$1,$8,$9,$2,$3,0*%
%AMFreePoly0*
4,1,16,2.068441,2.822910,2.098225,2.768757,2.100000,2.750000,2.100000,-2.750000,2.080902,-2.808779,2.030902,-2.845106,1.969098,-2.845106,1.951808,-2.837622,-3.048192,-0.087622,-3.090491,-0.042561,-3.098225,0.018757,-3.068441,0.072910,-3.048192,0.087622,1.951808,2.837622,2.012515,2.849214,2.068441,2.822910,2.068441,2.822910,$1*%
%AMFreePoly1*
4,1,26,6.500000,-2.000000,0.000000,-2.000000,-0.284630,-1.979643,-0.563465,-1.918986,-0.830830,-1.819264,-1.081282,-1.682507,-1.309721,-1.511499,-1.511499,-1.309721,-1.682507,-1.081283,-1.819264,-0.830830,-1.918986,-0.563465,-1.979643,-0.284630,-2.000000,0.000000,-1.979643,0.284630,-1.918986,0.563465,-1.819264,0.830830,-1.682507,1.081282,-1.511499,1.309721,-1.309721,1.511499,-1.081283,1.682507,
-0.830830,1.819264,-0.563465,1.918986,-0.284630,1.979643,0.000000,2.000000,6.500000,2.000000,6.500000,-2.000000,6.500000,-2.000000,$1*%
%AMFreePoly2*
4,1,35,6.858779,1.980902,6.895106,1.930901,6.900000,1.900000,6.900000,-1.900000,6.880902,-1.958779,6.830902,-1.995106,6.800000,-2.000000,0.000000,-2.000000,-0.284630,-1.979643,-0.563465,-1.918986,-0.830830,-1.819264,-1.081282,-1.682507,-1.309721,-1.511499,-1.511499,-1.309721,-1.682507,-1.081283,-1.819264,-0.830830,-1.918986,-0.563465,-1.979643,-0.284630,-2.000000,0.000000,-1.979643,0.284630,
-1.918986,0.563465,-1.819264,0.830830,-1.682507,1.081282,-1.511499,1.309721,-1.309721,1.511499,-1.081283,1.682507,-0.830830,1.819264,-0.563465,1.918986,-0.284630,1.979643,-0.267027,1.980902,-0.138852,1.990069,-0.133394,1.994260,-0.100000,2.000000,6.800000,2.000000,6.858779,1.980902,6.858779,1.980902,$1*%
G04 Aperture macros list end*
%ADD10C,0.200000*%
%TA.AperFunction,SMDPad,CuDef*%
%ADD11RoundRect,0.140000X0.140000X0.170000X-0.140000X0.170000X-0.140000X-0.170000X0.140000X-0.170000X0*%
%TD*%
%TA.AperFunction,ComponentPad*%
%ADD12FreePoly0,270.000000*%
%TD*%
%TA.AperFunction,ComponentPad*%
%ADD13R,3.000000X3.700200*%
%TD*%
%TA.AperFunction,SMDPad,CuDef*%
%ADD14R,0.700000X0.700000*%
%TD*%
%TA.AperFunction,ComponentPad*%
%ADD15C,1.600000*%
%TD*%
%TA.AperFunction,SMDPad,CuDef*%
%ADD16R,1.270000X2.290000*%
%TD*%
%TA.AperFunction,SMDPad,CuDef*%
%ADD17R,1.000000X3.150000*%
%TD*%
%TA.AperFunction,CastellatedPad*%
%ADD18FreePoly1,40.000000*%
%TD*%
%TA.AperFunction,SMDPad,CuDef*%
%ADD19RoundRect,0.087500X-0.225000X-0.087500X0.225000X-0.087500X0.225000X0.087500X-0.225000X0.087500X0*%
%TD*%
%TA.AperFunction,SMDPad,CuDef*%
%ADD20RoundRect,0.087500X-0.087500X-0.225000X0.087500X-0.225000X0.087500X0.225000X-0.087500X0.225000X0*%
%TD*%
%TA.AperFunction,ComponentPad*%
%ADD21FreePoly2,220.000000*%
%TD*%
%TA.AperFunction,ComponentPad*%
%ADD22FreePoly0,0.000000*%
%TD*%
%TA.AperFunction,ComponentPad*%
%ADD23R,3.700200X3.000000*%
%TD*%
%TA.AperFunction,SMDPad,CuDef*%
%ADD24RoundRect,0.140000X-0.140000X-0.170000X0.140000X-0.170000X0.140000X0.170000X-0.140000X0.170000X0*%
%TD*%
%TA.AperFunction,SMDPad,CuDef*%
%ADD25RoundRect,0.218750X-0.256250X0.218750X-0.256250X-0.218750X0.256250X-0.218750X0.256250X0.218750X0*%
%TD*%
%TA.AperFunction,CastellatedPad*%
%ADD26FreePoly1,315.000000*%
%TD*%
%TA.AperFunction,SMDPad,CuDef*%
%ADD27RoundRect,0.225000X0.250000X-0.225000X0.250000X0.225000X-0.250000X0.225000X-0.250000X-0.225000X0*%
%TD*%
%TA.AperFunction,SMDPad,CuDef*%
%ADD28R,0.800000X1.500000*%
%TD*%
%TA.AperFunction,SMDPad,CuDef*%
%ADD29R,3.000000X1.500000*%
%TD*%
%TA.AperFunction,SMDPad,CuDef*%
%ADD30R,3.000000X1.600000*%
%TD*%
%TA.AperFunction,SMDPad,CuDef*%
%ADD31RoundRect,0.200000X0.275000X-0.200000X0.275000X0.200000X-0.275000X0.200000X-0.275000X-0.200000X0*%
%TD*%
%TA.AperFunction,ComponentPad*%
%ADD32FreePoly2,145.000000*%
%TD*%
%TA.AperFunction,SMDPad,CuDef*%
%ADD33RoundRect,0.225000X-0.250000X0.225000X-0.250000X-0.225000X0.250000X-0.225000X0.250000X0.225000X0*%
%TD*%
%TA.AperFunction,CastellatedPad*%
%ADD34FreePoly1,350.000000*%
%TD*%
%TA.AperFunction,ComponentPad*%
%ADD35FreePoly0,90.000000*%
%TD*%
%TA.AperFunction,ComponentPad*%
%ADD36FreePoly2,180.000000*%
%TD*%
%TA.AperFunction,CastellatedPad*%
%ADD37FreePoly1,20.000000*%
%TD*%
%TA.AperFunction,SMDPad,CuDef*%
%ADD38RoundRect,0.200000X-0.275000X0.200000X-0.275000X-0.200000X0.275000X-0.200000X0.275000X0.200000X0*%
%TD*%
%TA.AperFunction,CastellatedPad*%
%ADD39FreePoly1,5.000000*%
%TD*%
%TA.AperFunction,ComponentPad*%
%ADD40FreePoly0,180.000000*%
%TD*%
%TA.AperFunction,SMDPad,CuDef*%
%ADD41RoundRect,0.150000X0.587500X0.150000X-0.587500X0.150000X-0.587500X-0.150000X0.587500X-0.150000X0*%
%TD*%
%TA.AperFunction,CastellatedPad*%
%ADD42FreePoly1,330.000000*%
%TD*%
%TA.AperFunction,ViaPad*%
%ADD43C,0.800000*%
%TD*%
%TA.AperFunction,Conductor*%
%ADD44C,0.250000*%
%TD*%
%TA.AperFunction,Conductor*%
%ADD45C,0.152400*%
%TD*%
%TA.AperFunction,Conductor*%
%ADD46C,0.203200*%
%TD*%
%TA.AperFunction,Conductor*%
%ADD47C,0.304800*%
%TD*%
%TA.AperFunction,Conductor*%
%ADD48C,0.150000*%
%TD*%
%TA.AperFunction,Conductor*%
%ADD49C,0.254000*%
%TD*%
%TA.AperFunction,Conductor*%
%ADD50C,0.762000*%
%TD*%
G04 APERTURE END LIST*
D10*
G36*
X26036771Y-1179729D02*
G01*
X26036771Y-1418228D01*
X25983155Y-1525459D01*
X25934678Y-1573936D01*
X25827450Y-1627550D01*
X25446092Y-1627550D01*
X25338863Y-1573936D01*
X25290387Y-1525459D01*
X25236771Y-1418227D01*
X25236771Y-1179729D01*
X25270004Y-1113264D01*
X26003538Y-1113264D01*
X26036771Y-1179729D01*
G37*
G36*
X25562235Y269344D02*
G01*
X25608200Y177414D01*
X25608200Y-156121D01*
X25610121Y-175630D01*
X25611496Y-178950D01*
X25611751Y-182533D01*
X25618044Y-198979D01*
X25270003Y-198979D01*
X25236771Y-132514D01*
X25236771Y177414D01*
X25282735Y269344D01*
X25374664Y315307D01*
X25470307Y315307D01*
X25562235Y269344D01*
G37*
G36*
X25934678Y4047409D02*
G01*
X25983155Y3998932D01*
X26036771Y3891701D01*
X26036771Y3653201D01*
X26003539Y3586736D01*
X25270003Y3586736D01*
X25236771Y3653201D01*
X25236771Y3891700D01*
X25290387Y3998932D01*
X25338863Y4047409D01*
X25446092Y4101022D01*
X25827450Y4101022D01*
X25934678Y4047409D01*
G37*
G36*
X26901517Y-1994217D02*
G01*
X24870104Y-1994217D01*
X24870104Y-1156122D01*
X25036771Y-1156122D01*
X25036771Y-1441836D01*
X25038692Y-1461345D01*
X25040067Y-1464665D01*
X25040322Y-1468249D01*
X25047328Y-1486558D01*
X25118757Y-1629414D01*
X25124040Y-1637808D01*
X25125052Y-1640250D01*
X25127306Y-1642997D01*
X25129200Y-1646005D01*
X25131196Y-1647736D01*
X25137489Y-1655403D01*
X25208917Y-1726832D01*
X25216586Y-1733127D01*
X25218317Y-1735122D01*
X25221322Y-1737013D01*
X25224070Y-1739269D01*
X25226511Y-1740280D01*
X25234907Y-1745565D01*
X25377764Y-1816993D01*
X25396073Y-1823999D01*
X25399655Y-1824253D01*
X25402976Y-1825629D01*
X25422485Y-1827550D01*
X25851057Y-1827550D01*
X25870566Y-1825629D01*
X25873886Y-1824253D01*
X25877470Y-1823999D01*
X25895778Y-1816993D01*
X26038635Y-1745565D01*
X26047031Y-1740279D01*
X26049472Y-1739269D01*
X26052217Y-1737015D01*
X26055226Y-1735122D01*
X26056958Y-1733124D01*
X26064625Y-1726832D01*
X26136053Y-1655403D01*
X26142345Y-1647736D01*
X26144342Y-1646005D01*
X26146235Y-1642996D01*
X26148490Y-1640250D01*
X26149500Y-1637809D01*
X26154785Y-1629415D01*
X26226214Y-1486558D01*
X26233220Y-1468249D01*
X26233474Y-1464665D01*
X26234850Y-1461345D01*
X26236771Y-1441836D01*
X26236771Y-1156122D01*
X26234850Y-1136613D01*
X26233474Y-1133292D01*
X26233220Y-1129709D01*
X26226927Y-1113264D01*
X26636771Y-1113264D01*
X26656280Y-1111343D01*
X26692328Y-1096411D01*
X26719918Y-1068821D01*
X26734850Y-1032773D01*
X26734850Y-993755D01*
X26719918Y-957707D01*
X26692328Y-930117D01*
X26656280Y-915185D01*
X26636771Y-913264D01*
X25136771Y-913264D01*
X25117262Y-915185D01*
X25081214Y-930117D01*
X25053624Y-957707D01*
X25038692Y-993755D01*
X25038692Y-1032773D01*
X25053624Y-1068821D01*
X25063620Y-1078817D01*
X25047328Y-1111401D01*
X25040322Y-1129709D01*
X25040067Y-1133292D01*
X25038692Y-1136613D01*
X25036771Y-1156122D01*
X24870104Y-1156122D01*
X24870104Y201021D01*
X25036771Y201021D01*
X25036771Y-156121D01*
X25038692Y-175630D01*
X25040067Y-178950D01*
X25040322Y-182534D01*
X25047328Y-200842D01*
X25063620Y-233426D01*
X25053624Y-243422D01*
X25038692Y-279470D01*
X25038692Y-318488D01*
X25053624Y-354536D01*
X25081214Y-382126D01*
X25117262Y-397058D01*
X25136771Y-398979D01*
X25922485Y-398979D01*
X25941994Y-397058D01*
X25945314Y-395682D01*
X25948898Y-395428D01*
X25967207Y-388422D01*
X26110063Y-316993D01*
X26113326Y-314938D01*
X26114865Y-314426D01*
X26116780Y-312764D01*
X26126654Y-306550D01*
X26134869Y-297077D01*
X26144342Y-288862D01*
X26150558Y-278987D01*
X26152218Y-277073D01*
X26152730Y-275536D01*
X26154785Y-272272D01*
X26226214Y-129415D01*
X26233220Y-111106D01*
X26233474Y-107522D01*
X26234850Y-104202D01*
X26236771Y-84693D01*
X26236771Y201021D01*
X26234850Y220530D01*
X26233474Y223851D01*
X26233220Y227434D01*
X26226214Y245742D01*
X26154785Y388600D01*
X26144342Y405191D01*
X26114865Y430755D01*
X26077849Y443094D01*
X26038929Y440328D01*
X26004030Y422879D01*
X25978466Y393402D01*
X25966127Y356386D01*
X25968893Y317466D01*
X25975899Y299158D01*
X26036771Y177414D01*
X26036771Y-61085D01*
X25990806Y-153013D01*
X25898877Y-198979D01*
X25841432Y-198979D01*
X25808200Y-132514D01*
X25808200Y201021D01*
X25806279Y220530D01*
X25804903Y223851D01*
X25804649Y227434D01*
X25797643Y245742D01*
X25726214Y388600D01*
X25724159Y391864D01*
X25723647Y393402D01*
X25721985Y395318D01*
X25715771Y405191D01*
X25706298Y413407D01*
X25698083Y422879D01*
X25688209Y429094D01*
X25686294Y430755D01*
X25684755Y431268D01*
X25681492Y433322D01*
X25538635Y504750D01*
X25520327Y511756D01*
X25516743Y512011D01*
X25513423Y513386D01*
X25493914Y515307D01*
X25351057Y515307D01*
X25331548Y513386D01*
X25328227Y512011D01*
X25324645Y511756D01*
X25306336Y504750D01*
X25163479Y433322D01*
X25160215Y431269D01*
X25158677Y430755D01*
X25156760Y429093D01*
X25146889Y422879D01*
X25138675Y413409D01*
X25129200Y405191D01*
X25122985Y395318D01*
X25121324Y393402D01*
X25120811Y391864D01*
X25118757Y388600D01*
X25047328Y245742D01*
X25040322Y227434D01*
X25040067Y223851D01*
X25038692Y220530D01*
X25036771Y201021D01*
X24870104Y201021D01*
X24870104Y1558165D01*
X25036771Y1558165D01*
X25036771Y843879D01*
X25038692Y824370D01*
X25053624Y788322D01*
X25081214Y760732D01*
X25117262Y745800D01*
X25156280Y745800D01*
X25192328Y760732D01*
X25219918Y788322D01*
X25234850Y824370D01*
X25236771Y843879D01*
X25236771Y1458165D01*
X26636771Y1458165D01*
X26656280Y1460086D01*
X26692328Y1475018D01*
X26719918Y1502608D01*
X26734850Y1538656D01*
X26734850Y1577674D01*
X26719918Y1613722D01*
X26692328Y1641312D01*
X26656280Y1656244D01*
X26636771Y1658165D01*
X25136771Y1658165D01*
X25117262Y1656244D01*
X25081214Y1641312D01*
X25053624Y1613722D01*
X25038692Y1577674D01*
X25036771Y1558165D01*
X24870104Y1558165D01*
X24870104Y2701022D01*
X25036771Y2701022D01*
X25036771Y2415308D01*
X25038692Y2395799D01*
X25040067Y2392479D01*
X25040322Y2388895D01*
X25047328Y2370586D01*
X25118757Y2227730D01*
X25120811Y2224467D01*
X25121324Y2222928D01*
X25122985Y2221013D01*
X25129200Y2211139D01*
X25138672Y2202924D01*
X25146888Y2193451D01*
X25156762Y2187235D01*
X25158677Y2185575D01*
X25160213Y2185063D01*
X25163478Y2183008D01*
X25306335Y2111579D01*
X25324644Y2104573D01*
X25328227Y2104319D01*
X25331548Y2102943D01*
X25351057Y2101022D01*
X25422485Y2101022D01*
X25441994Y2102943D01*
X25445314Y2104319D01*
X25448898Y2104573D01*
X25467207Y2111579D01*
X25610063Y2183008D01*
X25613326Y2185063D01*
X25614865Y2185575D01*
X25616780Y2187237D01*
X25626654Y2193451D01*
X25634869Y2202924D01*
X25644342Y2211139D01*
X25650558Y2221014D01*
X25652218Y2222928D01*
X25652730Y2224465D01*
X25654785Y2227729D01*
X25726214Y2370586D01*
X25733220Y2388895D01*
X25733474Y2392479D01*
X25734850Y2395799D01*
X25736771Y2415308D01*
X25736771Y2605986D01*
X25782735Y2697916D01*
X25874664Y2743879D01*
X25898878Y2743879D01*
X25990806Y2697916D01*
X26036771Y2605986D01*
X26036771Y2438916D01*
X25975899Y2317173D01*
X25968893Y2298864D01*
X25966127Y2259944D01*
X25978466Y2222928D01*
X26004030Y2193451D01*
X26038929Y2176002D01*
X26077849Y2173236D01*
X26114865Y2185575D01*
X26144342Y2211139D01*
X26154785Y2227729D01*
X26226214Y2370586D01*
X26233220Y2388895D01*
X26233474Y2392479D01*
X26234850Y2395799D01*
X26236771Y2415308D01*
X26236771Y2629593D01*
X26234850Y2649102D01*
X26233474Y2652423D01*
X26233220Y2656006D01*
X26226214Y2674314D01*
X26154785Y2817172D01*
X26152730Y2820436D01*
X26152218Y2821974D01*
X26150556Y2823890D01*
X26144342Y2833763D01*
X26134869Y2841979D01*
X26126654Y2851451D01*
X26116780Y2857666D01*
X26114865Y2859327D01*
X26113326Y2859840D01*
X26110063Y2861894D01*
X25967206Y2933322D01*
X25948898Y2940328D01*
X25945314Y2940583D01*
X25941994Y2941958D01*
X25922485Y2943879D01*
X25851057Y2943879D01*
X25831548Y2941958D01*
X25828227Y2940583D01*
X25824645Y2940328D01*
X25806336Y2933322D01*
X25663479Y2861894D01*
X25660215Y2859841D01*
X25658677Y2859327D01*
X25656760Y2857665D01*
X25646889Y2851451D01*
X25638675Y2841981D01*
X25629200Y2833763D01*
X25622985Y2823890D01*
X25621324Y2821974D01*
X25620811Y2820436D01*
X25618757Y2817172D01*
X25547328Y2674314D01*
X25540322Y2656006D01*
X25540067Y2652423D01*
X25538692Y2649102D01*
X25536771Y2629593D01*
X25536771Y2438916D01*
X25490806Y2346988D01*
X25398877Y2301022D01*
X25374664Y2301022D01*
X25282736Y2346987D01*
X25236771Y2438917D01*
X25236771Y2677414D01*
X25297643Y2799157D01*
X25304649Y2817466D01*
X25307415Y2856386D01*
X25295076Y2893402D01*
X25269512Y2922878D01*
X25234613Y2940328D01*
X25195693Y2943094D01*
X25158677Y2930755D01*
X25129200Y2905191D01*
X25118757Y2888600D01*
X25047328Y2745744D01*
X25040322Y2727435D01*
X25040067Y2723852D01*
X25038692Y2720531D01*
X25036771Y2701022D01*
X24870104Y2701022D01*
X24870104Y3915308D01*
X25036771Y3915308D01*
X25036771Y3629594D01*
X25038692Y3610085D01*
X25040067Y3606765D01*
X25040322Y3603181D01*
X25047328Y3584873D01*
X25063620Y3552289D01*
X25053624Y3542293D01*
X25038692Y3506245D01*
X25038692Y3467227D01*
X25053624Y3431179D01*
X25081214Y3403589D01*
X25117262Y3388657D01*
X25136771Y3386736D01*
X26636771Y3386736D01*
X26656280Y3388657D01*
X26692328Y3403589D01*
X26719918Y3431179D01*
X26734850Y3467227D01*
X26734850Y3506245D01*
X26719918Y3542293D01*
X26692328Y3569883D01*
X26656280Y3584815D01*
X26636771Y3586736D01*
X26226927Y3586736D01*
X26233220Y3603181D01*
X26233474Y3606765D01*
X26234850Y3610085D01*
X26236771Y3629594D01*
X26236771Y3915308D01*
X26234850Y3934817D01*
X26233474Y3938138D01*
X26233220Y3941721D01*
X26226214Y3960030D01*
X26154785Y4102887D01*
X26149500Y4111282D01*
X26148490Y4113722D01*
X26146235Y4116469D01*
X26144342Y4119477D01*
X26142345Y4121209D01*
X26136053Y4128875D01*
X26064625Y4200304D01*
X26056958Y4206597D01*
X26055226Y4208594D01*
X26052217Y4210488D01*
X26049472Y4212741D01*
X26047031Y4213752D01*
X26038635Y4219037D01*
X25895778Y4290465D01*
X25877470Y4297471D01*
X25873886Y4297726D01*
X25870566Y4299101D01*
X25851057Y4301022D01*
X25422485Y4301022D01*
X25402976Y4299101D01*
X25399655Y4297726D01*
X25396073Y4297471D01*
X25377764Y4290465D01*
X25234907Y4219037D01*
X25226511Y4213753D01*
X25224070Y4212741D01*
X25221322Y4210486D01*
X25218317Y4208594D01*
X25216586Y4206600D01*
X25208917Y4200304D01*
X25137489Y4128875D01*
X25131196Y4121209D01*
X25129200Y4119477D01*
X25127306Y4116470D01*
X25125052Y4113722D01*
X25124040Y4111281D01*
X25118757Y4102886D01*
X25047328Y3960030D01*
X25040322Y3941721D01*
X25040067Y3938138D01*
X25038692Y3934817D01*
X25036771Y3915308D01*
X24870104Y3915308D01*
X24870104Y4863389D01*
X25038692Y4863389D01*
X25038692Y4824371D01*
X25053624Y4788323D01*
X25081214Y4760733D01*
X25117262Y4745801D01*
X25136771Y4743880D01*
X26136771Y4743880D01*
X26156280Y4745801D01*
X26192328Y4760733D01*
X26219918Y4788323D01*
X26234850Y4824371D01*
X26234850Y4863389D01*
X26395835Y4863389D01*
X26395835Y4843162D01*
X26395835Y4824372D01*
X26410766Y4788323D01*
X26423203Y4773170D01*
X26494631Y4701741D01*
X26509784Y4689304D01*
X26524716Y4683120D01*
X26545833Y4674372D01*
X26584850Y4674372D01*
X26584851Y4674372D01*
X26595408Y4678746D01*
X26620899Y4689303D01*
X26620904Y4689309D01*
X26636053Y4701740D01*
X26707482Y4773169D01*
X26719913Y4788318D01*
X26719919Y4788323D01*
X26734850Y4824372D01*
X26734850Y4843162D01*
X26734850Y4863389D01*
X26726102Y4884506D01*
X26719918Y4899438D01*
X26707481Y4914591D01*
X26636052Y4986019D01*
X26620899Y4998456D01*
X26584850Y5013387D01*
X26545832Y5013386D01*
X26509786Y4998456D01*
X26509784Y4998455D01*
X26494631Y4986018D01*
X26423203Y4914591D01*
X26410771Y4899443D01*
X26410767Y4899438D01*
X26404582Y4884506D01*
X26395835Y4863389D01*
X26234850Y4863389D01*
X26219918Y4899437D01*
X26192328Y4927027D01*
X26156280Y4941959D01*
X26136771Y4943880D01*
X25136771Y4943880D01*
X25117262Y4941959D01*
X25081214Y4927027D01*
X25053624Y4899437D01*
X25038692Y4863389D01*
X24870104Y4863389D01*
X24870104Y5481294D01*
X25036919Y5481294D01*
X25046602Y5443497D01*
X25070013Y5412282D01*
X25103588Y5392403D01*
X25142214Y5386885D01*
X25180011Y5396568D01*
X25196771Y5406737D01*
X25984530Y5997557D01*
X26566060Y5416027D01*
X26581213Y5403590D01*
X26617262Y5388659D01*
X26656280Y5388659D01*
X26692328Y5403590D01*
X26719918Y5431180D01*
X26734849Y5467228D01*
X26734849Y5506246D01*
X26719918Y5542295D01*
X26707481Y5557448D01*
X26021050Y6243880D01*
X26636771Y6243880D01*
X26656280Y6245801D01*
X26692328Y6260733D01*
X26719918Y6288323D01*
X26734850Y6324371D01*
X26734850Y6363389D01*
X26719918Y6399437D01*
X26692328Y6427027D01*
X26656280Y6441959D01*
X26636771Y6443880D01*
X25136771Y6443880D01*
X25117262Y6441959D01*
X25081214Y6427027D01*
X25053624Y6399437D01*
X25038692Y6363389D01*
X25038692Y6324371D01*
X25053624Y6288323D01*
X25081214Y6260733D01*
X25117262Y6245801D01*
X25136771Y6243880D01*
X25738206Y6243880D01*
X25841672Y6140414D01*
X25076771Y5566737D01*
X25062316Y5553495D01*
X25042437Y5519920D01*
X25036919Y5481294D01*
X24870104Y5481294D01*
X24870104Y6610547D01*
X26901517Y6610547D01*
X26901517Y-1994217D01*
G37*
D11*
%TO.P,C401,1*%
%TO.N,+3V3*%
X7569710Y15250000D03*
%TO.P,C401,2*%
%TO.N,GND*%
X6609710Y15250000D03*
%TD*%
D12*
%TO.P,A302,1,1*%
%TO.N,/Peripherals/GP15{slash}ArrowUp*%
X-21200000Y2350000D03*
D13*
X-21200000Y-1450100D03*
%TD*%
D14*
%TO.P,D408,1,DOUT*%
%TO.N,Net-(D408-DOUT)*%
X4004710Y8947876D03*
%TO.P,D408,2,VSS*%
%TO.N,GND*%
X4004710Y10047876D03*
%TO.P,D408,3,DIN*%
%TO.N,Net-(D406-DOUT)*%
X2174710Y10047876D03*
%TO.P,D408,4,VDD*%
%TO.N,+3V3*%
X2174710Y8947876D03*
%TD*%
%TO.P,D406,1,DOUT*%
%TO.N,Net-(D406-DOUT)*%
X4710Y8947876D03*
%TO.P,D406,2,VSS*%
%TO.N,GND*%
X4710Y10047876D03*
%TO.P,D406,3,DIN*%
%TO.N,Net-(D404-DOUT)*%
X-1825290Y10047876D03*
%TO.P,D406,4,VDD*%
%TO.N,+3V3*%
X-1825290Y8947876D03*
%TD*%
%TO.P,D419,1,DOUT*%
%TO.N,Net-(D419-DOUT)*%
X4004710Y947876D03*
%TO.P,D419,2,VSS*%
%TO.N,GND*%
X4004710Y2047876D03*
%TO.P,D419,3,DIN*%
%TO.N,Net-(D418-DOUT)*%
X2174710Y2047876D03*
%TO.P,D419,4,VDD*%
%TO.N,+3V3*%
X2174710Y947876D03*
%TD*%
D15*
%TO.P,J304,01,01*%
%TO.N,GND*%
X17780000Y-10470000D03*
D16*
X17780000Y-11725000D03*
%TO.P,J304,02,02*%
%TO.N,+3V3*%
X17780000Y-6675000D03*
D15*
X17780000Y-7930000D03*
%TO.P,J304,03,03*%
%TO.N,/Peripherals/GP1*%
X15240000Y-10470000D03*
D16*
X15240000Y-11725000D03*
%TO.P,J304,04,04*%
%TO.N,/Peripherals/GP0*%
X15240000Y-6675000D03*
D15*
X15240000Y-7930000D03*
%TO.P,J304,05,05*%
%TO.N,/Peripherals/GP3*%
X12700000Y-10470000D03*
D16*
X12700000Y-11725000D03*
%TO.P,J304,06,06*%
%TO.N,/Peripherals/GP2*%
X12700000Y-6675000D03*
D15*
X12700000Y-7930000D03*
%TO.P,J304,07,07*%
%TO.N,GND*%
X10160000Y-10470000D03*
D16*
X10160000Y-11725000D03*
%TO.P,J304,08,08*%
%TO.N,+3V3*%
X10160000Y-6675000D03*
D15*
X10160000Y-7930000D03*
%TO.P,J304,09,09*%
%TO.N,/Peripherals/GP19*%
X7620000Y-10470000D03*
D16*
X7620000Y-11725000D03*
%TO.P,J304,10,10*%
%TO.N,/Peripherals/GP22*%
X7620000Y-6675000D03*
D15*
X7620000Y-7930000D03*
%TO.P,J304,11,11*%
%TO.N,/Peripherals/GP21*%
X5080000Y-10470000D03*
D16*
X5080000Y-11725000D03*
%TO.P,J304,12,12*%
%TO.N,/Peripherals/GP18*%
X5080000Y-6675000D03*
D15*
X5080000Y-7930000D03*
%TO.P,J304,13,13*%
%TO.N,GND*%
X2540000Y-10470000D03*
D16*
X2540000Y-11725000D03*
%TO.P,J304,14,14*%
%TO.N,+3V3*%
X2540000Y-6675000D03*
D15*
X2540000Y-7930000D03*
%TO.P,J304,15,15*%
%TO.N,/Peripherals/GP23*%
X0Y-10470000D03*
D16*
X0Y-11725000D03*
%TO.P,J304,16,16*%
%TO.N,/Peripherals/GP24*%
X0Y-6675000D03*
D15*
X0Y-7930000D03*
%TO.P,J304,17,17*%
%TO.N,/Peripherals/GP25{slash}LED*%
X-2540000Y-10470000D03*
D16*
X-2540000Y-11725000D03*
%TO.P,J304,18,18*%
%TO.N,/Peripherals/GP27*%
X-2540000Y-6675000D03*
D15*
X-2540000Y-7930000D03*
%TO.P,J304,19,19*%
%TO.N,GND*%
X-5080000Y-10470000D03*
D16*
X-5080000Y-11725000D03*
%TO.P,J304,20,20*%
%TO.N,+3V3*%
X-5080000Y-6675000D03*
D15*
X-5080000Y-7930000D03*
%TO.P,J304,21,21*%
%TO.N,/Peripherals/GP26*%
X-7620000Y-10470000D03*
D16*
X-7620000Y-11725000D03*
%TO.P,J304,22,22*%
%TO.N,/Peripherals/GP28*%
X-7620000Y-6675000D03*
D15*
X-7620000Y-7930000D03*
%TO.P,J304,23,23*%
%TO.N,/Peripherals/GP14{slash}ArrowLeft*%
X-10160000Y-10470000D03*
D16*
X-10160000Y-11725000D03*
%TO.P,J304,24,24*%
%TO.N,/Peripherals/GP15{slash}ArrowUp*%
X-10160000Y-6675000D03*
D15*
X-10160000Y-7930000D03*
%TO.P,J304,25,25*%
%TO.N,/Peripherals/GP17{slash}ArrowDown*%
X-12700000Y-10580000D03*
D16*
X-12700000Y-11725000D03*
%TO.P,J304,26,26*%
%TO.N,/Peripherals/GP16{slash}ArrowRight*%
X-12700000Y-6675000D03*
D15*
X-12700000Y-8040000D03*
%TO.P,J304,27,27*%
%TO.N,GND*%
X-15240000Y-10470000D03*
D16*
X-15240000Y-11725000D03*
%TO.P,J304,28,28*%
%TO.N,/VBUS*%
X-15240000Y-6675000D03*
D15*
X-15240000Y-7930000D03*
%TO.P,J304,29,29*%
%TO.N,/SWCLK*%
X-17780000Y-10470000D03*
D16*
X-17780000Y-11725000D03*
%TO.P,J304,30,30*%
%TO.N,/SWD*%
X-17780000Y-6675000D03*
D15*
X-17780000Y-7930000D03*
%TD*%
D17*
%TO.P,J302,1,Pin_1*%
%TO.N,/Peripherals/GP4{slash}SERVO_2*%
X14860000Y10475000D03*
%TO.P,J302,2,Pin_2*%
%TO.N,/Peripherals/GP5{slash}SERVO_3*%
X14860000Y15525000D03*
%TO.P,J302,3,Pin_3*%
%TO.N,/VBUS*%
X17400000Y10475000D03*
%TO.P,J302,4,Pin_4*%
X17400000Y15525000D03*
%TO.P,J302,5,Pin_5*%
%TO.N,GND*%
X19940000Y10475000D03*
%TO.P,J302,6,Pin_6*%
X19940000Y15525000D03*
%TD*%
D14*
%TO.P,D421,1,DOUT*%
%TO.N,Net-(D421-DOUT)*%
X6174710Y-1952124D03*
%TO.P,D421,2,VSS*%
%TO.N,GND*%
X6174710Y-3052124D03*
%TO.P,D421,3,DIN*%
%TO.N,Net-(D420-DOUT)*%
X8004710Y-3052124D03*
%TO.P,D421,4,VDD*%
%TO.N,+3V3*%
X8004710Y-1952124D03*
%TD*%
D18*
%TO.P,GP0,1,1*%
%TO.N,/Peripherals/GP0*%
X28800000Y10600000D03*
%TD*%
D11*
%TO.P,C412,1*%
%TO.N,+3V3*%
X3569710Y7250000D03*
%TO.P,C412,2*%
%TO.N,GND*%
X2609710Y7250000D03*
%TD*%
D14*
%TO.P,D414,1,DOUT*%
%TO.N,Net-(D414-DOUT)*%
X-5825290Y6047876D03*
%TO.P,D414,2,VSS*%
%TO.N,GND*%
X-5825290Y4947876D03*
%TO.P,D414,3,DIN*%
%TO.N,Net-(D413-DOUT)*%
X-3995290Y4947876D03*
%TO.P,D414,4,VDD*%
%TO.N,+3V3*%
X-3995290Y6047876D03*
%TD*%
D19*
%TO.P,U301,1,SDO/SA0*%
%TO.N,GND*%
X-27862500Y3800000D03*
%TO.P,U301,2,SDX*%
X-27862500Y3300000D03*
%TO.P,U301,3,SCX*%
X-27862500Y2800000D03*
%TO.P,U301,4,INT1*%
%TO.N,/Peripherals/GP13{slash}INTR*%
X-27862500Y2300000D03*
D20*
%TO.P,U301,5,VDDIO*%
%TO.N,+3V3*%
X-27200000Y2137500D03*
%TO.P,U301,6,GND*%
%TO.N,GND*%
X-26700000Y2137500D03*
%TO.P,U301,7,GND*%
X-26200000Y2137500D03*
D19*
%TO.P,U301,8,VDD*%
%TO.N,+3V3*%
X-25537500Y2300000D03*
%TO.P,U301,9,INT2*%
%TO.N,unconnected-(U301-INT2-Pad9)*%
X-25537500Y2800000D03*
%TO.P,U301,10,NC*%
%TO.N,unconnected-(U301-NC-Pad10)*%
X-25537500Y3300000D03*
%TO.P,U301,11,NC*%
%TO.N,unconnected-(U301-NC-Pad11)*%
X-25537500Y3800000D03*
D20*
%TO.P,U301,12,CS*%
%TO.N,+3V3*%
X-26200000Y3962500D03*
%TO.P,U301,13,SCL*%
%TO.N,/Peripherals/GP7{slash}IMU_SCL*%
X-26700000Y3962500D03*
%TO.P,U301,14,SDA*%
%TO.N,/Peripherals/GP6{slash}IMU_SDA*%
X-27200000Y3962500D03*
%TD*%
D14*
%TO.P,D409,1,DOUT*%
%TO.N,Net-(D402-DIN)*%
X-9825290Y14047876D03*
%TO.P,D409,2,VSS*%
%TO.N,GND*%
X-9825290Y12947876D03*
%TO.P,D409,3,DIN*%
%TO.N,Net-(D407-DOUT)*%
X-7995290Y12947876D03*
%TO.P,D409,4,VDD*%
%TO.N,+3V3*%
X-7995290Y14047876D03*
%TD*%
D17*
%TO.P,J301,1,Pin_1*%
%TO.N,/Peripherals/GP10{slash}SERVO_0*%
X-15260000Y15525000D03*
%TO.P,J301,2,Pin_2*%
%TO.N,/Peripherals/GP11{slash}SERVO_1*%
X-15260000Y10475000D03*
%TO.P,J301,3,Pin_3*%
%TO.N,/VBUS*%
X-17800000Y15525000D03*
%TO.P,J301,4,Pin_4*%
X-17800000Y10475000D03*
%TO.P,J301,5,Pin_5*%
%TO.N,GND*%
X-20340000Y15525000D03*
%TO.P,J301,6,Pin_6*%
X-20340000Y10475000D03*
%TD*%
D14*
%TO.P,D424,1,DOUT*%
%TO.N,Net-(D424-DOUT)*%
X-5825290Y-1952124D03*
%TO.P,D424,2,VSS*%
%TO.N,GND*%
X-5825290Y-3052124D03*
%TO.P,D424,3,DIN*%
%TO.N,Net-(D423-DOUT)*%
X-3995290Y-3052124D03*
%TO.P,D424,4,VDD*%
%TO.N,+3V3*%
X-3995290Y-1952124D03*
%TD*%
D21*
%TO.P,VBUS301,1,1*%
%TO.N,/VBUS*%
X-28134019Y-11703993D03*
X-30448055Y-8946233D03*
%TD*%
D11*
%TO.P,C301,1*%
%TO.N,GND*%
X-25170000Y5050000D03*
%TO.P,C301,2*%
%TO.N,+3V3*%
X-26130000Y5050000D03*
%TD*%
D22*
%TO.P,A301,1,1*%
%TO.N,/Peripherals/GP14{slash}ArrowLeft*%
X-25350000Y-5308000D03*
D23*
X-21549900Y-5308000D03*
%TD*%
D14*
%TO.P,D416,1,DOUT*%
%TO.N,Net-(D416-DOUT)*%
X-7995290Y947876D03*
%TO.P,D416,2,VSS*%
%TO.N,GND*%
X-7995290Y2047876D03*
%TO.P,D416,3,DIN*%
%TO.N,Net-(D415-DOUT)*%
X-9825290Y2047876D03*
%TO.P,D416,4,VDD*%
%TO.N,+3V3*%
X-9825290Y947876D03*
%TD*%
D11*
%TO.P,C302,1*%
%TO.N,GND*%
X-26250000Y1050000D03*
%TO.P,C302,2*%
%TO.N,+3V3*%
X-27210000Y1050000D03*
%TD*%
D24*
%TO.P,C406,1*%
%TO.N,+3V3*%
X-1390290Y11497876D03*
%TO.P,C406,2*%
%TO.N,GND*%
X-430290Y11497876D03*
%TD*%
D14*
%TO.P,D422,1,DOUT*%
%TO.N,Net-(D422-DOUT)*%
X2174710Y-1952124D03*
%TO.P,D422,2,VSS*%
%TO.N,GND*%
X2174710Y-3052124D03*
%TO.P,D422,3,DIN*%
%TO.N,Net-(D421-DOUT)*%
X4004710Y-3052124D03*
%TO.P,D422,4,VDD*%
%TO.N,+3V3*%
X4004710Y-1952124D03*
%TD*%
D11*
%TO.P,C405,1*%
%TO.N,+3V3*%
X-430290Y15282000D03*
%TO.P,C405,2*%
%TO.N,GND*%
X-1390290Y15282000D03*
%TD*%
D25*
%TO.P,D301,1,K*%
%TO.N,GND*%
X22800000Y13787500D03*
%TO.P,D301,2,A*%
%TO.N,Net-(D301-A)*%
X22800000Y12212500D03*
%TD*%
D14*
%TO.P,D423,1,DOUT*%
%TO.N,Net-(D423-DOUT)*%
X-1825290Y-1952124D03*
%TO.P,D423,2,VSS*%
%TO.N,GND*%
X-1825290Y-3052124D03*
%TO.P,D423,3,DIN*%
%TO.N,Net-(D422-DOUT)*%
X4710Y-3052124D03*
%TO.P,D423,4,VDD*%
%TO.N,+3V3*%
X4710Y-1952124D03*
%TD*%
D11*
%TO.P,C409,1*%
%TO.N,+3V3*%
X-8430290Y15250000D03*
%TO.P,C409,2*%
%TO.N,GND*%
X-9390290Y15250000D03*
%TD*%
%TO.P,C415,1*%
%TO.N,+3V3*%
X-8430290Y7250000D03*
%TO.P,C415,2*%
%TO.N,GND*%
X-9390290Y7250000D03*
%TD*%
D26*
%TO.P,GP19,1,1*%
%TO.N,/Peripherals/GP19*%
X26600000Y-13200000D03*
%TD*%
D24*
%TO.P,C417,1*%
%TO.N,+3V3*%
X-5390290Y3250000D03*
%TO.P,C417,2*%
%TO.N,GND*%
X-4430290Y3250000D03*
%TD*%
D27*
%TO.P,C101,1*%
%TO.N,+3V3*%
X17500000Y-4375000D03*
%TO.P,C101,2*%
%TO.N,GND*%
X17500000Y-2825000D03*
%TD*%
D24*
%TO.P,C408,1*%
%TO.N,+3V3*%
X4050000Y11300000D03*
%TO.P,C408,2*%
%TO.N,GND*%
X5010000Y11300000D03*
%TD*%
%TO.P,C419,1*%
%TO.N,+3V3*%
X2609710Y3250000D03*
%TO.P,C419,2*%
%TO.N,GND*%
X3569710Y3250000D03*
%TD*%
D28*
%TO.P,BZ301,1,+*%
%TO.N,+3V3*%
X-16000000Y4350000D03*
%TO.P,BZ301,2,-*%
%TO.N,Net-(BZ301--)*%
X-16000000Y850000D03*
%TO.P,BZ301,3,NC*%
%TO.N,unconnected-(BZ301-NC-Pad3)*%
X-12500000Y4350000D03*
%TD*%
D29*
%TO.P,J303,1,Pin_1*%
%TO.N,/Peripherals/GP9{slash}Grove_D0*%
X11200000Y4800000D03*
%TO.P,J303,2,Pin_2*%
%TO.N,/Peripherals/GP8{slash}Grove_D1*%
X11200000Y2800000D03*
%TO.P,J303,3,Pin_3*%
%TO.N,+3V3*%
X11200000Y800000D03*
%TO.P,J303,4,Pin_4*%
%TO.N,GND*%
X11200000Y-1200000D03*
D30*
%TO.P,J303,MP,MountPin*%
%TO.N,unconnected-(J303-MountPin-PadMP)_1*%
X14200000Y7150000D03*
%TO.N,unconnected-(J303-MountPin-PadMP)*%
X14200000Y-3550000D03*
%TD*%
D24*
%TO.P,C416,1*%
%TO.N,+3V3*%
X-9390290Y3250000D03*
%TO.P,C416,2*%
%TO.N,GND*%
X-8430290Y3250000D03*
%TD*%
D31*
%TO.P,R309,1*%
%TO.N,/Peripherals/GP25{slash}LED*%
X22800000Y9175000D03*
%TO.P,R309,2*%
%TO.N,Net-(D301-A)*%
X22800000Y10825000D03*
%TD*%
D32*
%TO.P,GND301,1,1*%
%TO.N,GND*%
X-30832438Y7525526D03*
X-28767562Y10474474D03*
%TD*%
D33*
%TO.P,C305,1*%
%TO.N,+3V3*%
X-17650000Y4475000D03*
%TO.P,C305,2*%
%TO.N,GND*%
X-17650000Y2925000D03*
%TD*%
D14*
%TO.P,D413,1,DOUT*%
%TO.N,Net-(D413-DOUT)*%
X-1825290Y6047876D03*
%TO.P,D413,2,VSS*%
%TO.N,GND*%
X-1825290Y4947876D03*
%TO.P,D413,3,DIN*%
%TO.N,Net-(D412-DOUT)*%
X4710Y4947876D03*
%TO.P,D413,4,VDD*%
%TO.N,+3V3*%
X4710Y6047876D03*
%TD*%
D11*
%TO.P,C411,1*%
%TO.N,+3V3*%
X7569710Y7250000D03*
%TO.P,C411,2*%
%TO.N,GND*%
X6609710Y7250000D03*
%TD*%
D34*
%TO.P,GP3,1,1*%
%TO.N,/Peripherals/GP3*%
X32200000Y-4200000D03*
%TD*%
D11*
%TO.P,C421,1*%
%TO.N,+3V3*%
X7569710Y-750000D03*
%TO.P,C421,2*%
%TO.N,GND*%
X6609710Y-750000D03*
%TD*%
D14*
%TO.P,D407,1,DOUT*%
%TO.N,Net-(D407-DOUT)*%
X-5825290Y14047876D03*
%TO.P,D407,2,VSS*%
%TO.N,GND*%
X-5825290Y12947876D03*
%TO.P,D407,3,DIN*%
%TO.N,Net-(D405-DOUT)*%
X-3995290Y12947876D03*
%TO.P,D407,4,VDD*%
%TO.N,+3V3*%
X-3995290Y14047876D03*
%TD*%
D35*
%TO.P,A304,1,1*%
%TO.N,/Peripherals/GP17{slash}ArrowDown*%
X21600000Y75000D03*
D13*
X21600000Y3875100D03*
%TD*%
D24*
%TO.P,C418,1*%
%TO.N,+3V3*%
X-1390290Y3250000D03*
%TO.P,C418,2*%
%TO.N,GND*%
X-430290Y3250000D03*
%TD*%
D14*
%TO.P,D411,1,DOUT*%
%TO.N,Net-(D411-DOUT)*%
X6174710Y6047876D03*
%TO.P,D411,2,VSS*%
%TO.N,GND*%
X6174710Y4947876D03*
%TO.P,D411,3,DIN*%
%TO.N,Net-(D410-DOUT)*%
X8004710Y4947876D03*
%TO.P,D411,4,VDD*%
%TO.N,+3V3*%
X8004710Y6047876D03*
%TD*%
%TO.P,D401,1,DOUT*%
%TO.N,Net-(D401-DOUT)*%
X6174710Y14047876D03*
%TO.P,D401,2,VSS*%
%TO.N,GND*%
X6174710Y12947876D03*
%TO.P,D401,3,DIN*%
%TO.N,/Peripherals/GP12{slash}NEOPIXEL*%
X8004710Y12947876D03*
%TO.P,D401,4,VDD*%
%TO.N,+3V3*%
X8004710Y14047876D03*
%TD*%
D36*
%TO.P,3V3,1,1*%
%TO.N,+3V3*%
X-32900901Y-2600000D03*
X-32900901Y1000000D03*
%TD*%
D14*
%TO.P,D404,1,DOUT*%
%TO.N,Net-(D404-DOUT)*%
X-3995290Y8947876D03*
%TO.P,D404,2,VSS*%
%TO.N,GND*%
X-3995290Y10047876D03*
%TO.P,D404,3,DIN*%
%TO.N,Net-(D402-DOUT)*%
X-5825290Y10047876D03*
%TO.P,D404,4,VDD*%
%TO.N,+3V3*%
X-5825290Y8947876D03*
%TD*%
D37*
%TO.P,GP1,1,1*%
%TO.N,/Peripherals/GP1*%
X31400000Y6000000D03*
%TD*%
D31*
%TO.P,R301,1*%
%TO.N,+3V3*%
X-29250000Y2250000D03*
%TO.P,R301,2*%
%TO.N,/Peripherals/GP6{slash}IMU_SDA*%
X-29250000Y3900000D03*
%TD*%
D14*
%TO.P,D415,1,DOUT*%
%TO.N,Net-(D415-DOUT)*%
X-9825290Y6047876D03*
%TO.P,D415,2,VSS*%
%TO.N,GND*%
X-9825290Y4947876D03*
%TO.P,D415,3,DIN*%
%TO.N,Net-(D414-DOUT)*%
X-7995290Y4947876D03*
%TO.P,D415,4,VDD*%
%TO.N,+3V3*%
X-7995290Y6047876D03*
%TD*%
D24*
%TO.P,C410,1*%
%TO.N,+3V3*%
X6609710Y11497876D03*
%TO.P,C410,2*%
%TO.N,GND*%
X7569710Y11497876D03*
%TD*%
D14*
%TO.P,D417,1,DOUT*%
%TO.N,Net-(D417-DOUT)*%
X-3995290Y947876D03*
%TO.P,D417,2,VSS*%
%TO.N,GND*%
X-3995290Y2047876D03*
%TO.P,D417,3,DIN*%
%TO.N,Net-(D416-DOUT)*%
X-5825290Y2047876D03*
%TO.P,D417,4,VDD*%
%TO.N,+3V3*%
X-5825290Y947876D03*
%TD*%
%TO.P,D405,1,DOUT*%
%TO.N,Net-(D405-DOUT)*%
X-1825290Y14047876D03*
%TO.P,D405,2,VSS*%
%TO.N,GND*%
X-1825290Y12947876D03*
%TO.P,D405,3,DIN*%
%TO.N,Net-(D403-DOUT)*%
X4710Y12947876D03*
%TO.P,D405,4,VDD*%
%TO.N,+3V3*%
X4710Y14047876D03*
%TD*%
D38*
%TO.P,R302,1*%
%TO.N,+3V3*%
X-27300000Y6875000D03*
%TO.P,R302,2*%
%TO.N,/Peripherals/GP7{slash}IMU_SCL*%
X-27300000Y5225000D03*
%TD*%
D14*
%TO.P,D425,1,DOUT*%
%TO.N,unconnected-(D425-DOUT-Pad1)*%
X-9825290Y-1952124D03*
%TO.P,D425,2,VSS*%
%TO.N,GND*%
X-9825290Y-3052124D03*
%TO.P,D425,3,DIN*%
%TO.N,Net-(D424-DOUT)*%
X-7995290Y-3052124D03*
%TO.P,D425,4,VDD*%
%TO.N,+3V3*%
X-7995290Y-1952124D03*
%TD*%
D11*
%TO.P,C413,1*%
%TO.N,+3V3*%
X-430290Y7250000D03*
%TO.P,C413,2*%
%TO.N,GND*%
X-1390290Y7250000D03*
%TD*%
D14*
%TO.P,D420,1,DOUT*%
%TO.N,Net-(D420-DOUT)*%
X8004710Y947876D03*
%TO.P,D420,2,VSS*%
%TO.N,GND*%
X8004710Y2047876D03*
%TO.P,D420,3,DIN*%
%TO.N,Net-(D419-DOUT)*%
X6174710Y2047876D03*
%TO.P,D420,4,VDD*%
%TO.N,+3V3*%
X6174710Y947876D03*
%TD*%
D11*
%TO.P,C407,1*%
%TO.N,+3V3*%
X-4430290Y15250000D03*
%TO.P,C407,2*%
%TO.N,GND*%
X-5390290Y15250000D03*
%TD*%
D14*
%TO.P,D403,1,DOUT*%
%TO.N,Net-(D403-DOUT)*%
X2174710Y14047876D03*
%TO.P,D403,2,VSS*%
%TO.N,GND*%
X2174710Y12947876D03*
%TO.P,D403,3,DIN*%
%TO.N,Net-(D401-DOUT)*%
X4004710Y12947876D03*
%TO.P,D403,4,VDD*%
%TO.N,+3V3*%
X4004710Y14047876D03*
%TD*%
D39*
%TO.P,GP2,1,1*%
%TO.N,/Peripherals/GP2*%
X32600000Y1000000D03*
%TD*%
D11*
%TO.P,C403,1*%
%TO.N,+3V3*%
X3569710Y15250000D03*
%TO.P,C403,2*%
%TO.N,GND*%
X2609710Y15250000D03*
%TD*%
D40*
%TO.P,A303,1,1*%
%TO.N,/Peripherals/GP16{slash}ArrowRight*%
X25350000Y-5308000D03*
D23*
X21549900Y-5308000D03*
%TD*%
D11*
%TO.P,C425,1*%
%TO.N,+3V3*%
X-8430290Y-750000D03*
%TO.P,C425,2*%
%TO.N,GND*%
X-9390290Y-750000D03*
%TD*%
%TO.P,C423,1*%
%TO.N,+3V3*%
X-430290Y-750000D03*
%TO.P,C423,2*%
%TO.N,GND*%
X-1390290Y-750000D03*
%TD*%
D14*
%TO.P,D410,1,DOUT*%
%TO.N,Net-(D410-DOUT)*%
X8004710Y8947876D03*
%TO.P,D410,2,VSS*%
%TO.N,GND*%
X8004710Y10047876D03*
%TO.P,D410,3,DIN*%
%TO.N,Net-(D408-DOUT)*%
X6174710Y10047876D03*
%TO.P,D410,4,VDD*%
%TO.N,+3V3*%
X6174710Y8947876D03*
%TD*%
D24*
%TO.P,C420,1*%
%TO.N,+3V3*%
X6609710Y3250000D03*
%TO.P,C420,2*%
%TO.N,GND*%
X7569710Y3250000D03*
%TD*%
%TO.P,C402,1*%
%TO.N,+3V3*%
X-9390290Y11497876D03*
%TO.P,C402,2*%
%TO.N,GND*%
X-8430290Y11497876D03*
%TD*%
D14*
%TO.P,D402,1,DOUT*%
%TO.N,Net-(D402-DOUT)*%
X-7995290Y8947876D03*
%TO.P,D402,2,VSS*%
%TO.N,GND*%
X-7995290Y10047876D03*
%TO.P,D402,3,DIN*%
%TO.N,Net-(D402-DIN)*%
X-9825290Y10047876D03*
%TO.P,D402,4,VDD*%
%TO.N,+3V3*%
X-9825290Y8947876D03*
%TD*%
%TO.P,D412,1,DOUT*%
%TO.N,Net-(D412-DOUT)*%
X2174710Y6047876D03*
%TO.P,D412,2,VSS*%
%TO.N,GND*%
X2174710Y4947876D03*
%TO.P,D412,3,DIN*%
%TO.N,Net-(D411-DOUT)*%
X4004710Y4947876D03*
%TO.P,D412,4,VDD*%
%TO.N,+3V3*%
X4004710Y6047876D03*
%TD*%
D11*
%TO.P,C422,1*%
%TO.N,+3V3*%
X3569710Y-750000D03*
%TO.P,C422,2*%
%TO.N,GND*%
X2609710Y-750000D03*
%TD*%
D14*
%TO.P,D418,1,DOUT*%
%TO.N,Net-(D418-DOUT)*%
X4710Y947876D03*
%TO.P,D418,2,VSS*%
%TO.N,GND*%
X4710Y2047876D03*
%TO.P,D418,3,DIN*%
%TO.N,Net-(D417-DOUT)*%
X-1825290Y2047876D03*
%TO.P,D418,4,VDD*%
%TO.N,+3V3*%
X-1825290Y947876D03*
%TD*%
D41*
%TO.P,Q301,1,B*%
%TO.N,/Peripherals/GP20{slash}Buzzer*%
X-13962500Y-2912500D03*
%TO.P,Q301,2,E*%
%TO.N,GND*%
X-13962500Y-1012500D03*
%TO.P,Q301,3,C*%
%TO.N,Net-(BZ301--)*%
X-15837500Y-1962500D03*
%TD*%
D11*
%TO.P,C424,1*%
%TO.N,+3V3*%
X-4430290Y-750000D03*
%TO.P,C424,2*%
%TO.N,GND*%
X-5390290Y-750000D03*
%TD*%
D24*
%TO.P,C404,1*%
%TO.N,+3V3*%
X-5390290Y11497876D03*
%TO.P,C404,2*%
%TO.N,GND*%
X-4430290Y11497876D03*
%TD*%
D11*
%TO.P,C414,1*%
%TO.N,+3V3*%
X-4430290Y7250000D03*
%TO.P,C414,2*%
%TO.N,GND*%
X-5390290Y7250000D03*
%TD*%
D42*
%TO.P,GP22,1,1*%
%TO.N,/Peripherals/GP22*%
X30200000Y-9000000D03*
%TD*%
D43*
%TO.N,GND*%
X1143000Y8204200D03*
%TO.N,+3V3*%
X-895292Y2250000D03*
X17500000Y-300000D03*
X-31075000Y-4900000D03*
X-11200000Y10600000D03*
X850000Y-2150002D03*
X17450000Y1750000D03*
X17500000Y700000D03*
X-7518400Y11709400D03*
X-2400000Y-50000D03*
X10174999Y13591117D03*
X15650000Y-450000D03*
X7100000Y6150000D03*
X-15889249Y3010751D03*
X-26800000Y-3200000D03*
X-23200000Y3550000D03*
X12750000Y11550000D03*
X3074712Y14300000D03*
X-19500000Y4200000D03*
X20800000Y13350000D03*
X-27800000Y-3800000D03*
X-26278962Y6635456D03*
X13700000Y12000000D03*
X13700000Y11050000D03*
X-30961402Y4252004D03*
X7775000Y-4350000D03*
%TO.N,GND*%
X-13475000Y11525000D03*
X-10607953Y-506466D03*
X9207109Y6105452D03*
X2152609Y-52849D03*
X-925288Y-2150000D03*
X22150000Y16150000D03*
X15750000Y-1500000D03*
X1082270Y2343418D03*
X-24400000Y-600000D03*
X15671800Y5197600D03*
X-7000000Y2400000D03*
X10876305Y12894624D03*
X-2950000Y14350000D03*
X-26439499Y7571796D03*
X4325000Y-4375200D03*
X22600000Y7625000D03*
X-25500000Y12650000D03*
X3475134Y4078016D03*
X23650000Y-8800000D03*
X-8850000Y9800000D03*
X-12800000Y8412493D03*
X-21350000Y10550000D03*
X-17800000Y-1800000D03*
X19925000Y8150000D03*
X-4925290Y6039378D03*
X16000000Y14850000D03*
X21073800Y12440309D03*
X-2350000Y-1000000D03*
X-22550000Y16100000D03*
X11717791Y8867791D03*
X-6734469Y12351458D03*
X1200000Y13250000D03*
X9800000Y8300000D03*
X-16650000Y12000000D03*
X13550000Y8600000D03*
X-33150000Y5650000D03*
X-18900000Y3400000D03*
X-15212464Y-366410D03*
%TO.N,/VBUS*%
X12639222Y14364746D03*
X-24150000Y14100000D03*
X18450000Y7700000D03*
X18450000Y6600000D03*
X-22550000Y14050000D03*
X12200000Y15100000D03*
X18500000Y11150000D03*
%TO.N,/Peripherals/GP29{slash}MIC_OUT*%
X1303603Y6573800D03*
X21700000Y14300000D03*
%TO.N,/Peripherals/GP12{slash}NEOPIXEL*%
X12500000Y13425000D03*
X-6377170Y-5444523D03*
%TO.N,/Peripherals/GP11{slash}SERVO_1*%
X-4276200Y-4423063D03*
%TO.N,/Peripherals/GP10{slash}SERVO_0*%
X-5382209Y-4917791D03*
%TO.N,/Peripherals/GP5{slash}SERVO_3*%
X1354998Y-5670619D03*
X14200000Y13400000D03*
X13331241Y-9276251D03*
X19673800Y-10369558D03*
X19532842Y-9117158D03*
%TO.N,/Peripherals/GP4{slash}SERVO_2*%
X11900000Y-3950000D03*
X750000Y-4677600D03*
X15200000Y12950000D03*
%TO.N,/Peripherals/GP8{slash}Grove_D1*%
X-1185000Y-6520495D03*
%TO.N,/Peripherals/GP9{slash}Grove_D0*%
X19860113Y-2578792D03*
X-2785652Y-4727400D03*
X-3800000Y-13029600D03*
%TO.N,/Peripherals/GP19*%
X-19118028Y-4195864D03*
X17400000Y-14646400D03*
X-20784946Y-7701842D03*
%TO.N,/Peripherals/GP26*%
X-22193380Y-9226200D03*
X-21390002Y11775000D03*
X-28000000Y-226200D03*
X-22432209Y10482209D03*
%TO.N,/Peripherals/GP21*%
X-19052209Y-14787791D03*
X-15566552Y-14178599D03*
%TO.N,/Peripherals/GP0*%
X20621400Y-11525000D03*
%TO.N,/Peripherals/GP17{slash}ArrowDown*%
X-11588644Y-13940600D03*
%TO.N,/Peripherals/GP16{slash}ArrowRight*%
X-14735820Y-4378599D03*
X-9100000Y-9626200D03*
X13175000Y-13821000D03*
X8077824Y-9199998D03*
X-6382680Y-9381911D03*
%TO.N,/Peripherals/GP27*%
X-25267510Y8356193D03*
X-25242791Y11042791D03*
X-18825000Y-9443800D03*
X-28619455Y-1023242D03*
%TO.N,/Peripherals/GP22*%
X-20350000Y-15200000D03*
X-6332706Y-8433224D03*
X18589590Y-14646401D03*
%TO.N,/Peripherals/GP23*%
X-23600000Y-13250000D03*
X-20240251Y-13168851D03*
%TO.N,/Peripherals/GP2*%
X20295638Y-13367406D03*
%TO.N,/Peripherals/GP14{slash}ArrowLeft*%
X-11755342Y-4439687D03*
X-22157209Y-7842791D03*
%TO.N,/Peripherals/GP3*%
X19500000Y-14375000D03*
X8871250Y-7423166D03*
%TO.N,/SWD*%
X-13785833Y-4373205D03*
%TO.N,/Peripherals/GP15{slash}ArrowUp*%
X-17550000Y200000D03*
X-12188986Y-3578386D03*
%TO.N,/Peripherals/GP1*%
X20621400Y-12475003D03*
%TO.N,/Peripherals/GP18*%
X-16650000Y-5100000D03*
X-20592791Y-8632209D03*
%TO.N,/Peripherals/GP24*%
X-16245376Y-8830957D03*
X-24595449Y-11445449D03*
%TO.N,/Peripherals/GP28*%
X-25921953Y10378529D03*
X-20043380Y-10243380D03*
X-30240536Y-860167D03*
X-25278600Y7406255D03*
%TO.N,/Peripherals/GP20{slash}Buzzer*%
X-15807209Y-1107209D03*
%TO.N,/N_USBBOOT*%
X-12350000Y10600000D03*
X-11950000Y14050000D03*
X23374764Y7075236D03*
X10750000Y7650000D03*
%TO.N,Net-(U101-RUN)*%
X-13256980Y5928600D03*
X-11550000Y4013239D03*
%TO.N,/Peripherals/GP6{slash}IMU_SDA*%
X-22200000Y-14600000D03*
X-522005Y-4677600D03*
%TO.N,/Peripherals/GP7{slash}IMU_SCL*%
X-24255134Y-14455134D03*
X-1476149Y-5185634D03*
%TO.N,+1V1*%
X-10749499Y-1445863D03*
X-4867811Y426199D03*
X4950000Y-450000D03*
%TO.N,/Peripherals/GP13{slash}INTR*%
X-28250000Y1550000D03*
X-4925290Y-3202209D03*
X-14209998Y10475291D03*
%TO.N,/FLASH_SD3*%
X14750000Y-1700000D03*
X15000000Y-4900002D03*
%TO.N,/FLASH_SD0*%
X12210100Y-2500001D03*
X5279552Y-2520448D03*
%TO.N,/Peripherals/GP25{slash}LED*%
X-24544995Y-12394111D03*
X-21154551Y-12254551D03*
%TO.N,/power-and-usb/usb_vcc*%
X4741053Y8206417D03*
X-2129850Y12011938D03*
X1609780Y11918717D03*
%TO.N,/usb_d+*%
X13433760Y4513797D03*
X17571232Y3728768D03*
%TO.N,/usb_d-*%
X16828768Y4471232D03*
X14483760Y4513797D03*
%TD*%
D44*
%TO.N,/usb_d+*%
X13758760Y4105954D02*
G75*
G03*
X13700197Y4247390I-199960J46D01*
G01*
X14463578Y2931978D02*
G75*
G03*
X14604999Y2873399I141422J141422D01*
G01*
X13817339Y3578217D02*
G75*
G02*
X13758799Y3719639I141461J141383D01*
G01*
X17053033Y3670190D02*
G75*
G02*
X17194454Y3728810I141467J-141390D01*
G01*
X16314822Y2931979D02*
G75*
G02*
X16173400Y2873400I-141422J141421D01*
G01*
%TO.N,/usb_d-*%
X14158760Y4105954D02*
G75*
G02*
X14217307Y4247406I200040J46D01*
G01*
X16828768Y4094454D02*
G75*
G02*
X16770160Y3953063I-199968J46D01*
G01*
X16007714Y3273400D02*
G75*
G03*
X16149129Y3331986I-14J200000D01*
G01*
X14629266Y3331978D02*
G75*
G03*
X14770687Y3273391I141434J141422D01*
G01*
X14217339Y3743905D02*
G75*
G02*
X14158791Y3885327I141461J141395D01*
G01*
%TO.N,/usb_d+*%
X13817339Y3578217D02*
X14463578Y2931978D01*
X16314822Y2931979D02*
X17053033Y3670190D01*
%TO.N,/usb_d-*%
X14770687Y3273400D02*
X16007714Y3273400D01*
%TO.N,/usb_d+*%
X14604999Y2873400D02*
X16173400Y2873400D01*
X17194454Y3728768D02*
X17571232Y3728768D01*
%TO.N,/usb_d-*%
X16149136Y3331979D02*
X16770190Y3953033D01*
%TO.N,/usb_d+*%
X13433760Y4513797D02*
X13700182Y4247375D01*
X13758760Y4105954D02*
X13758760Y3719639D01*
%TO.N,/usb_d-*%
X16828768Y4094454D02*
X16828768Y4471232D01*
X14483760Y4513797D02*
X14217338Y4247375D01*
X14158760Y4105954D02*
X14158760Y3885327D01*
X14217339Y3743905D02*
X14629266Y3331978D01*
D45*
%TO.N,Net-(BZ301--)*%
X-16550000Y-1250000D02*
X-15837500Y-1962500D01*
X-16550000Y300000D02*
X-16550000Y-1250000D01*
X-16000000Y850000D02*
X-16550000Y300000D01*
%TO.N,+3V3*%
X5598510Y-3625000D02*
X5962081Y-3988571D01*
X-16000000Y3121502D02*
X-15889249Y3010751D01*
D46*
X-1249090Y3108800D02*
X-1390290Y3250000D01*
X-5030814Y14649476D02*
X-4430290Y15250000D01*
D47*
X-29250000Y1521400D02*
X-29250000Y2250000D01*
D45*
X6174710Y947876D02*
X5403034Y176200D01*
D47*
X-27210000Y1050000D02*
X-27255000Y1005000D01*
D46*
X-7393690Y14649476D02*
X-5030814Y14649476D01*
D45*
X7569710Y-750000D02*
X7569710Y-447124D01*
D47*
X-27200000Y2503828D02*
X-26200000Y3503828D01*
D46*
X-9223690Y1549476D02*
X-9223690Y3083400D01*
X8004710Y14047876D02*
X8004710Y14815000D01*
X-4600000Y5443166D02*
X-3995290Y6047876D01*
X8641276Y12291276D02*
X7403110Y12291276D01*
D48*
X17500000Y-4375000D02*
X17500000Y-6395000D01*
D45*
X7413571Y-3988571D02*
X7775000Y-4350000D01*
X-6256966Y-213800D02*
X-4966490Y-213800D01*
D46*
X-895292Y11002878D02*
X-1390290Y11497876D01*
D45*
X202588Y-2150002D02*
X4710Y-1952124D01*
D46*
X3074712Y14300000D02*
X3074712Y13774674D01*
X-1249090Y2600000D02*
X-1245292Y2600000D01*
X-8100276Y12291276D02*
X-7518400Y11709400D01*
X3752586Y14300000D02*
X4004710Y14047876D01*
X-3995290Y6815000D02*
X-4430290Y7250000D01*
X-4596890Y12291276D02*
X-4596890Y13446276D01*
X3074712Y13774674D02*
X3403110Y13446276D01*
D45*
X4580910Y-3625000D02*
X5598510Y-3625000D01*
D46*
X-8596890Y12291276D02*
X-8100276Y12291276D01*
X-8430290Y6482876D02*
X-7995290Y6047876D01*
X-5825290Y8947876D02*
X-5223690Y9549476D01*
D47*
X-27255000Y1005000D02*
X-27801656Y1005000D01*
D46*
X-7995290Y14047876D02*
X-7995290Y14815000D01*
X-5390290Y11497876D02*
X-4596890Y12291276D01*
X6609710Y11497876D02*
X6776310Y11331276D01*
X4710Y14047876D02*
X4710Y14847000D01*
X-8430290Y7250000D02*
X-8430290Y7552876D01*
X-7995290Y14047876D02*
X-7393690Y14649476D01*
D47*
X-27060456Y6635456D02*
X-27300000Y6875000D01*
D46*
X6609710Y11497876D02*
X7403110Y12291276D01*
X7403110Y13446276D02*
X8004710Y14047876D01*
D45*
X-4966490Y-213800D02*
X-4430290Y-750000D01*
X-4430290Y-750000D02*
X-3100000Y-750000D01*
D46*
X-895292Y9100000D02*
X-895292Y11002878D01*
X-9825290Y8947876D02*
X-11200000Y10322586D01*
D45*
X4004710Y-1952124D02*
X3428510Y-2528324D01*
D46*
X2174710Y8947876D02*
X2776310Y9549476D01*
D45*
X5962081Y-3988571D02*
X7413571Y-3988571D01*
D46*
X-8430290Y7552876D02*
X-9825290Y8947876D01*
X8004710Y14815000D02*
X7569710Y15250000D01*
X-5223690Y9549476D02*
X-5223690Y11331276D01*
D47*
X-26278962Y6635456D02*
X-27060456Y6635456D01*
X-28576200Y847600D02*
X-29250000Y1521400D01*
D46*
X-6461710Y947876D02*
X-8159586Y-750000D01*
D45*
X3569710Y-750000D02*
X3569710Y-447124D01*
D47*
X-26200000Y3962500D02*
X-26200000Y4980000D01*
D46*
X-9825290Y947876D02*
X-9223690Y1549476D01*
X-8596890Y13446276D02*
X-7995290Y14047876D01*
D45*
X6750910Y9524076D02*
X6750910Y9721235D01*
X-25278936Y2300000D02*
X-24998800Y2580136D01*
D46*
X-1249090Y2600000D02*
X-1249090Y3108800D01*
X-8159586Y-750000D02*
X-8430290Y-750000D01*
D45*
X-26130000Y5450000D02*
X-26130000Y5050000D01*
X-1825290Y947876D02*
X-1249090Y1524076D01*
D46*
X-895292Y9100000D02*
X-895292Y7715002D01*
X2609710Y3250000D02*
X2776310Y3083400D01*
X-5825290Y947876D02*
X-6461710Y947876D01*
D47*
X-27210000Y1050000D02*
X-27210000Y2127500D01*
D45*
X-26130000Y6486494D02*
X-26130000Y5450000D01*
D46*
X4050000Y11300000D02*
X3403110Y11946890D01*
D45*
X4004710Y6047876D02*
X4004710Y6815000D01*
X6750910Y9721235D02*
X6776310Y9746635D01*
D47*
X-27801656Y1005000D02*
X-27959056Y847600D01*
D46*
X-4430290Y14482876D02*
X-3995290Y14047876D01*
X-8596890Y4043400D02*
X-8596890Y5446276D01*
D49*
X6609710Y3250000D02*
X6801710Y3442000D01*
D45*
X-17650000Y4475000D02*
X-19225000Y4475000D01*
D46*
X-895292Y9100000D02*
X-895292Y8655108D01*
D45*
X7902586Y6150000D02*
X8004710Y6047876D01*
X-350000Y7169710D02*
X-430290Y7250000D01*
X7569710Y7250000D02*
X7569710Y6482876D01*
X-3100000Y-750000D02*
X-2400000Y-50000D01*
D46*
X6776310Y11331276D02*
X6776310Y9746635D01*
X-9390290Y3250000D02*
X-8596890Y4043400D01*
D45*
X-16000000Y4350000D02*
X-16000000Y3121502D01*
D46*
X-1245292Y2600000D02*
X-895292Y2250000D01*
D47*
X-27200000Y2137500D02*
X-27200000Y2503828D01*
X-27210000Y2127500D02*
X-27200000Y2137500D01*
D46*
X-2300400Y7250000D02*
X-4430290Y7250000D01*
D47*
X-26200000Y3503828D02*
X-26200000Y3962500D01*
D45*
X3569710Y-447124D02*
X2174710Y947876D01*
X8004710Y-1185000D02*
X7569710Y-750000D01*
X7569710Y6482876D02*
X8004710Y6047876D01*
D46*
X-1047416Y8947876D02*
X-1825290Y8947876D01*
X3569710Y14794998D02*
X3074712Y14300000D01*
X-8596890Y5446276D02*
X-7995290Y6047876D01*
D44*
X14400000Y800000D02*
X15650000Y-450000D01*
D46*
X-5223690Y11331276D02*
X-5390290Y11497876D01*
X-5390290Y4009710D02*
X-4600000Y4800000D01*
D45*
X850000Y-2150002D02*
X202588Y-2150002D01*
D46*
X2776310Y10026310D02*
X4050000Y11300000D01*
D45*
X-19225000Y4475000D02*
X-19500000Y4200000D01*
D46*
X2609710Y3250000D02*
X2776310Y3416600D01*
X-3995290Y6047876D02*
X-3995290Y6815000D01*
X-9390290Y11497876D02*
X-8596890Y12291276D01*
D45*
X4004710Y6815000D02*
X3569710Y7250000D01*
D46*
X-4600000Y4800000D02*
X-4600000Y5443166D01*
D45*
X7569710Y-447124D02*
X6174710Y947876D01*
D46*
X2776310Y4819476D02*
X4004710Y6047876D01*
D45*
X-2400000Y-50000D02*
X-2400000Y373166D01*
X4710Y-1185000D02*
X-430290Y-750000D01*
X4710Y-1952124D02*
X4710Y-1185000D01*
X4004710Y-1185000D02*
X3569710Y-750000D01*
D46*
X-4430290Y15250000D02*
X-4430290Y14482876D01*
X-9223690Y3083400D02*
X-9390290Y3250000D01*
D44*
X11200000Y800000D02*
X14400000Y800000D01*
D47*
X-25357400Y4277400D02*
X-23927400Y4277400D01*
D46*
X-1223690Y11664476D02*
X-1390290Y11497876D01*
X-9223690Y346276D02*
X-9825290Y947876D01*
X-1223690Y12819476D02*
X-1223690Y11664476D01*
D45*
X-1249090Y1524076D02*
X-1249090Y2600000D01*
X-571490Y5471676D02*
X4710Y6047876D01*
D46*
X3074712Y14300000D02*
X3752586Y14300000D01*
D47*
X-26200000Y4980000D02*
X-26130000Y5050000D01*
D45*
X5403034Y176200D02*
X4495910Y176200D01*
D47*
X-26130000Y5050000D02*
X-25357400Y4277400D01*
D45*
X7100000Y6150000D02*
X7902586Y6150000D01*
D47*
X-26130000Y6486494D02*
X-26278962Y6635456D01*
D45*
X-17650000Y4475000D02*
X-16125000Y4475000D01*
D46*
X4710Y14047876D02*
X-1223690Y12819476D01*
D45*
X-24998800Y4047034D02*
X-26001766Y5050000D01*
X8004710Y-1952124D02*
X8004710Y-1185000D01*
X-571490Y4068800D02*
X-571490Y5471676D01*
X4495910Y176200D02*
X3569710Y-750000D01*
X-350000Y6070000D02*
X-350000Y7169710D01*
D46*
X-895292Y8655108D02*
X-2300400Y7250000D01*
D47*
X-27959056Y847600D02*
X-28576200Y847600D01*
D45*
X3428510Y-3628324D02*
X4577586Y-3628324D01*
D46*
X-11200000Y10322586D02*
X-11200000Y10600000D01*
X-8596890Y12291276D02*
X-8596890Y13446276D01*
D49*
X6801710Y5851710D02*
X7100000Y6150000D01*
D45*
X6174710Y8947876D02*
X6750910Y9524076D01*
X4004710Y-1952124D02*
X4004710Y-1185000D01*
X-24998800Y2580136D02*
X-24998800Y4047034D01*
D46*
X2776310Y9549476D02*
X2776310Y10026310D01*
X-4430290Y7552876D02*
X-5825290Y8947876D01*
X3403110Y11946890D02*
X3403110Y13446276D01*
X-895292Y9100000D02*
X-1047416Y8947876D01*
X-5390290Y3250000D02*
X-5390290Y4009710D01*
D45*
X3428510Y-2528324D02*
X3428510Y-3628324D01*
D46*
X-9223690Y43400D02*
X-9223690Y346276D01*
D45*
X-26001766Y5050000D02*
X-26130000Y5050000D01*
X4577586Y-3628324D02*
X4580910Y-3625000D01*
D46*
X-8430290Y-750000D02*
X-9223690Y43400D01*
D49*
X6801710Y3442000D02*
X6801710Y5851710D01*
D45*
X-25537500Y2300000D02*
X-25278936Y2300000D01*
D46*
X-8430290Y7250000D02*
X-8430290Y6482876D01*
X2776310Y3083400D02*
X2776310Y1549476D01*
X-895292Y7715002D02*
X-430290Y7250000D01*
D45*
X-7995290Y-1952124D02*
X-6256966Y-213800D01*
D47*
X-26130000Y5050000D02*
X-26130000Y6486494D01*
D46*
X-4596890Y13446276D02*
X-3995290Y14047876D01*
D48*
X17500000Y-6395000D02*
X17780000Y-6675000D01*
D45*
X-16125000Y4475000D02*
X-16000000Y4350000D01*
D46*
X10174999Y13591117D02*
X9941117Y13591117D01*
X3569710Y15250000D02*
X3569710Y14794998D01*
X-4430290Y7250000D02*
X-4430290Y7552876D01*
X2776310Y3416600D02*
X2776310Y4819476D01*
D45*
X-1390290Y3250000D02*
X-571490Y4068800D01*
X-3995290Y-1952124D02*
X-3995290Y-1185000D01*
X-2400000Y373166D02*
X-1825290Y947876D01*
D47*
X-23927400Y4277400D02*
X-23200000Y3550000D01*
D46*
X-7995290Y14815000D02*
X-8430290Y15250000D01*
X7403110Y12291276D02*
X7403110Y13446276D01*
X4710Y14847000D02*
X-430290Y15282000D01*
X9941117Y13591117D02*
X8641276Y12291276D01*
D45*
X-3995290Y-1185000D02*
X-4430290Y-750000D01*
D46*
X2776310Y1549476D02*
X2174710Y947876D01*
D47*
%TO.N,GND*%
X-25500000Y12650000D02*
X-25707964Y12650000D01*
D48*
X-8850000Y9800000D02*
X-8243166Y9800000D01*
D45*
X-6686200Y2713800D02*
X-7000000Y2400000D01*
D46*
X-8961890Y6821600D02*
X-9390290Y7250000D01*
D45*
X-10364419Y-750000D02*
X-10607953Y-506466D01*
X-29951200Y2723799D02*
X-29951200Y1687178D01*
D47*
X-6421708Y12351458D02*
X-5825290Y12947876D01*
D46*
X-9447876Y10649476D02*
X-8596890Y10649476D01*
X-1223690Y15115400D02*
X-1223690Y13549476D01*
X7400000Y8040290D02*
X7400000Y9443166D01*
X4606310Y2649476D02*
X7403110Y2649476D01*
D45*
X-1825290Y-3050002D02*
X-925288Y-2150000D01*
D46*
X-9825290Y12947876D02*
X-10050000Y12723166D01*
X-5390290Y7250000D02*
X-7500614Y7250000D01*
D45*
X-24400000Y-600000D02*
X-26050000Y1050000D01*
X-5825290Y-3052124D02*
X-5127192Y-2354026D01*
X-26050000Y1050000D02*
X-26250000Y1050000D01*
D44*
X11200000Y-1200000D02*
X11375000Y-1025000D01*
D49*
X-5390290Y15250000D02*
X-5977290Y15837000D01*
D45*
X-4430290Y3250000D02*
X-4966490Y2713800D01*
D46*
X-8596890Y10649476D02*
X-8430290Y10482876D01*
X-8961890Y5811276D02*
X-8961890Y6821600D01*
X-1825290Y12947876D02*
X-2461710Y12947876D01*
X19925000Y8150000D02*
X19940000Y8165000D01*
X-5825290Y12217876D02*
X-7995290Y10047876D01*
X-3911710Y11497876D02*
X-4430290Y11497876D01*
X-1390290Y7250000D02*
X-1223690Y7083400D01*
X-430290Y10482876D02*
X4710Y10047876D01*
X1125000Y13175000D02*
X1125000Y12773167D01*
X-8430290Y11497876D02*
X-8430290Y10482876D01*
X6174710Y12947876D02*
X6776310Y13549476D01*
D45*
X-26439499Y7571796D02*
X-26129359Y7261656D01*
D46*
X-9390290Y7250000D02*
X-10552783Y8412493D01*
X8347876Y11497876D02*
X7569710Y11497876D01*
X1502124Y12947876D02*
X1200000Y13250000D01*
X6609710Y7250000D02*
X7400000Y8040290D01*
D44*
X17075000Y-2825000D02*
X15750000Y-1500000D01*
D46*
X7569710Y3250000D02*
X7569710Y2816076D01*
X2776310Y8346276D02*
X2776310Y8819476D01*
X3569710Y3250000D02*
X3569710Y3983440D01*
X6776310Y13549476D02*
X6776310Y15083400D01*
D48*
X-8243166Y9800000D02*
X-7995290Y10047876D01*
D49*
X-5390290Y15250000D02*
X-5390290Y15290290D01*
D46*
X476834Y3250000D02*
X-430290Y3250000D01*
X4004710Y10047876D02*
X4004710Y10294710D01*
X4004710Y10294710D02*
X5010000Y11300000D01*
D47*
X-33150000Y5650000D02*
X-33150000Y6092036D01*
D45*
X6750910Y-891200D02*
X6609710Y-750000D01*
X-11400000Y-1210783D02*
X-10695683Y-506466D01*
X-4966490Y2713800D02*
X-6686200Y2713800D01*
X-28500000Y3300000D02*
X-28725001Y3074999D01*
X-27862500Y3800000D02*
X-27862500Y2800000D01*
D46*
X2776310Y7083400D02*
X2609710Y7250000D01*
X2776310Y5549476D02*
X2776310Y7083400D01*
X5267586Y4947876D02*
X3569710Y3250000D01*
D45*
X-15212464Y-366410D02*
X-14566374Y-1012500D01*
D46*
X2174710Y4947876D02*
X2776310Y5549476D01*
D45*
X2174710Y-3052124D02*
X2750910Y-2475924D01*
D46*
X2174710Y12947876D02*
X1502124Y12947876D01*
X-10050000Y12723166D02*
X-10050000Y11251600D01*
D45*
X6750910Y-2475924D02*
X6750910Y-891200D01*
X-28725001Y3074999D02*
X-29600000Y3074999D01*
X-29600000Y3074999D02*
X-29951200Y2723799D01*
D46*
X10876305Y12894624D02*
X9744624Y12894624D01*
D45*
X4710Y2815000D02*
X-430290Y3250000D01*
X4710Y2047876D02*
X4710Y2815000D01*
X-10695683Y-506466D02*
X-10607953Y-506466D01*
D46*
X-1390290Y15282000D02*
X-2018000Y15282000D01*
D44*
X17500000Y-2825000D02*
X17075000Y-2825000D01*
X11375000Y-1025000D02*
X15275000Y-1025000D01*
D45*
X-7995290Y2047876D02*
X-7352124Y2047876D01*
D46*
X4004710Y2815000D02*
X3569710Y3250000D01*
X6776310Y15083400D02*
X6609710Y15250000D01*
D45*
X6808757Y-3686171D02*
X8713829Y-3686171D01*
X-571490Y1471676D02*
X-571490Y68800D01*
D46*
X965200Y8204200D02*
X2634234Y8204200D01*
D45*
X-7000000Y2400000D02*
X-7850000Y3250000D01*
D46*
X-9390290Y15250000D02*
X-9223690Y15083400D01*
D45*
X-925288Y-1215002D02*
X-1390290Y-750000D01*
X-26900000Y400000D02*
X-26250000Y1050000D01*
X6174710Y-3052124D02*
X6808757Y-3686171D01*
D46*
X9207109Y4887399D02*
X9207109Y6105452D01*
X7403110Y2649476D02*
X8004710Y2047876D01*
X-7000000Y3773166D02*
X-7000000Y2400000D01*
X6048110Y15811600D02*
X3171310Y15811600D01*
X-5825290Y4947876D02*
X-7000000Y3773166D01*
D45*
X-925288Y-2150000D02*
X-925288Y-1215002D01*
D46*
X-2461710Y12947876D02*
X-3911710Y11497876D01*
X3569710Y3983440D02*
X3475134Y4078016D01*
D45*
X-11400000Y-1979814D02*
X-11400000Y-1210783D01*
D46*
X21073800Y11608800D02*
X19940000Y10475000D01*
D49*
X-5390290Y15290290D02*
X-5400000Y15300000D01*
D45*
X-20915000Y16100000D02*
X-20340000Y15525000D01*
D44*
X15275000Y-1025000D02*
X15750000Y-1500000D01*
D49*
X-5977290Y15837000D02*
X-8803290Y15837000D01*
D46*
X-1223690Y5549476D02*
X-1825290Y4947876D01*
X-10050000Y11251600D02*
X-9447876Y10649476D01*
X-1390290Y15282000D02*
X-1223690Y15115400D01*
D45*
X-9825290Y-3398766D02*
X-9825290Y-3052124D01*
D46*
X-1223690Y7083400D02*
X-1223690Y5549476D01*
D45*
X-7352124Y2047876D02*
X-7000000Y2400000D01*
X-7850000Y3250000D02*
X-8430290Y3250000D01*
X-25170000Y6412075D02*
X-25170000Y5050000D01*
X-3995290Y2047876D02*
X-3995290Y2815000D01*
X-26200000Y2137500D02*
X-26200000Y1100000D01*
X2152609Y-292899D02*
X2609710Y-750000D01*
X-29951200Y1687178D02*
X-28664022Y400000D01*
D46*
X4004710Y2047876D02*
X4004710Y2815000D01*
D45*
X21525000Y15525000D02*
X19940000Y15525000D01*
D46*
X7400000Y9443166D02*
X8004710Y10047876D01*
D45*
X-5127192Y-2354026D02*
X-5127192Y-1013098D01*
D46*
X2609710Y15250000D02*
X2016110Y15843600D01*
X-828690Y15843600D02*
X-1390290Y15282000D01*
X2634234Y8204200D02*
X2776310Y8346276D01*
X8004710Y10047876D02*
X8052124Y10047876D01*
D45*
X-20340000Y10475000D02*
X-21275000Y10475000D01*
X-26019581Y7261656D02*
X-25170000Y6412075D01*
X-10327690Y-3052124D02*
X-11400000Y-1979814D01*
D46*
X4004710Y2047876D02*
X4606310Y2649476D01*
D45*
X2750910Y-2475924D02*
X2750910Y-891200D01*
D46*
X-7500614Y7250000D02*
X-8850000Y8599386D01*
X-10552783Y8412493D02*
X-12800000Y8412493D01*
D45*
X-21275000Y10475000D02*
X-21350000Y10550000D01*
D47*
X-25707964Y12650000D02*
X-30832438Y7525526D01*
D49*
X-8803290Y15837000D02*
X-9390290Y15250000D01*
D46*
X-1825290Y4947876D02*
X-2732414Y4947876D01*
X6174710Y4947876D02*
X5267586Y4947876D01*
X2174710Y4947876D02*
X476834Y3250000D01*
X6609710Y15250000D02*
X6048110Y15811600D01*
D47*
X-33150000Y6092036D02*
X-28767562Y10474474D01*
D46*
X-3995290Y10047876D02*
X-3995290Y11062876D01*
D45*
X-571490Y68800D02*
X-1390290Y-750000D01*
D46*
X-9223690Y13549476D02*
X-9825290Y12947876D01*
X-2732414Y4947876D02*
X-4430290Y3250000D01*
X2776310Y8819476D02*
X4004710Y10047876D01*
D45*
X-14566374Y-1012500D02*
X-13962500Y-1012500D01*
D46*
X3171310Y15811600D02*
X2609710Y15250000D01*
D45*
X2152609Y-52849D02*
X2152609Y-292899D01*
X-22550000Y16100000D02*
X-20915000Y16100000D01*
D46*
X2016110Y15843600D02*
X-828690Y15843600D01*
D45*
X22800000Y13787500D02*
X22800000Y15500000D01*
X-28664022Y400000D02*
X-26900000Y400000D01*
D46*
X1125000Y12773167D02*
X-150291Y11497876D01*
X-8850000Y8599386D02*
X-8850000Y9800000D01*
X-9223690Y15083400D02*
X-9223690Y13549476D01*
X8052124Y10047876D02*
X9800000Y8300000D01*
X-5825290Y12947876D02*
X-5825290Y12217876D01*
D45*
X-9390290Y-750000D02*
X-10364419Y-750000D01*
X-9825290Y-3052124D02*
X-10327690Y-3052124D01*
X-5825290Y-3052124D02*
X-6327690Y-3052124D01*
X-17650000Y2925000D02*
X-18425000Y2925000D01*
X4710Y2047876D02*
X-571490Y1471676D01*
X-27862500Y3300000D02*
X-28500000Y3300000D01*
D46*
X-1223690Y13549476D02*
X-1825290Y12947876D01*
X7569710Y3250000D02*
X9207109Y4887399D01*
D45*
X22800000Y15500000D02*
X22150000Y16150000D01*
D46*
X1200000Y13250000D02*
X1125000Y13175000D01*
D45*
X-26200000Y1100000D02*
X-26250000Y1050000D01*
D47*
X-6734469Y12351458D02*
X-6421708Y12351458D01*
D45*
X-1825290Y-3052124D02*
X-1825290Y-3050002D01*
D46*
X-8430290Y10482876D02*
X-7995290Y10047876D01*
D45*
X2750910Y-891200D02*
X2609710Y-750000D01*
D46*
X21073800Y12440309D02*
X21073800Y11608800D01*
X-9825290Y4947876D02*
X-8961890Y5811276D01*
D45*
X-7549622Y-4274056D02*
X-8950000Y-4274056D01*
X6174710Y-3052124D02*
X6750910Y-2475924D01*
X-8950000Y-4274056D02*
X-9825290Y-3398766D01*
D46*
X9744624Y12894624D02*
X8347876Y11497876D01*
D45*
X-2100000Y-750000D02*
X-2350000Y-1000000D01*
X-1390290Y-750000D02*
X-2100000Y-750000D01*
D46*
X-150291Y11497876D02*
X-430290Y11497876D01*
D45*
X22150000Y16150000D02*
X21525000Y15525000D01*
X-26700000Y2137500D02*
X-26200000Y2137500D01*
X8713829Y-3686171D02*
X11200000Y-1200000D01*
D46*
X7569710Y2816076D02*
X7403110Y2649476D01*
X-3995290Y11062876D02*
X-4430290Y11497876D01*
X-2018000Y15282000D02*
X-2950000Y14350000D01*
D45*
X-26129359Y7261656D02*
X-26019581Y7261656D01*
D46*
X-430290Y11497876D02*
X-430290Y10482876D01*
D45*
X-3995290Y2815000D02*
X-4430290Y3250000D01*
X-5127192Y-1013098D02*
X-5390290Y-750000D01*
X-6327690Y-3052124D02*
X-7549622Y-4274056D01*
X-18425000Y2925000D02*
X-18900000Y3400000D01*
D50*
%TO.N,/VBUS*%
X-17800000Y14450000D02*
X-18838000Y13412000D01*
X-18838000Y13412000D02*
X-18812000Y13412000D01*
X-17800000Y12400000D02*
X-17800000Y10475000D01*
X-22988000Y13412000D02*
X-23000000Y13400000D01*
X-18838000Y13412000D02*
X-22988000Y13412000D01*
X-18812000Y13412000D02*
X-17800000Y12400000D01*
X-17800000Y15525000D02*
X-17800000Y14450000D01*
D45*
%TO.N,/Peripherals/GP29{slash}MIC_OUT*%
X7300000Y10424076D02*
X7500000Y10624076D01*
X7500000Y10624076D02*
X9075924Y10624076D01*
X12473800Y6123800D02*
X18040619Y6123800D01*
X9075924Y10624076D02*
X12473800Y7226200D01*
X4600000Y7100000D02*
X5627944Y7100000D01*
X1303603Y6775659D02*
X2314144Y7786200D01*
X18190619Y5973800D02*
X18709381Y5973800D01*
X5627944Y7100000D02*
X6314144Y7786200D01*
X6386200Y7786200D02*
X7072200Y8472200D01*
X7072200Y8472200D02*
X7072200Y9578945D01*
X6314144Y7786200D02*
X6386200Y7786200D01*
X21700000Y8964419D02*
X21700000Y14300000D01*
X1303603Y6573800D02*
X1303603Y6775659D01*
X7300000Y9806745D02*
X7300000Y10424076D01*
X2314144Y7786200D02*
X3913800Y7786200D01*
X12473800Y7226200D02*
X12473800Y6123800D01*
X3913800Y7786200D02*
X4600000Y7100000D01*
X18040619Y6123800D02*
X18190619Y5973800D01*
X7072200Y9578945D02*
X7300000Y9806745D01*
X18709381Y5973800D02*
X21700000Y8964419D01*
%TO.N,Net-(D301-A)*%
X22800000Y12212500D02*
X22800000Y10825000D01*
%TO.N,Net-(D401-DOUT)*%
X4580910Y13524076D02*
X4580910Y13830910D01*
X4580910Y13830910D02*
X4797876Y14047876D01*
X4797876Y14047876D02*
X6174710Y14047876D01*
X4004710Y12947876D02*
X4580910Y13524076D01*
D46*
%TO.N,/Peripherals/GP12{slash}NEOPIXEL*%
X10444901Y14242717D02*
X9299551Y14242717D01*
X11287618Y13400000D02*
X10444901Y14242717D01*
D45*
X-6377170Y-5444523D02*
X-6300000Y-5521693D01*
D46*
X12475000Y13400000D02*
X11287618Y13400000D01*
X12500000Y13425000D02*
X12475000Y13400000D01*
X9299551Y14242717D02*
X8004710Y12947876D01*
%TO.N,Net-(D402-DIN)*%
X-10426890Y13446276D02*
X-9825290Y14047876D01*
X-9825290Y10047876D02*
X-10426890Y10649476D01*
X-10426890Y10649476D02*
X-10426890Y13446276D01*
D45*
%TO.N,Net-(D402-DOUT)*%
X-7995290Y8947876D02*
X-6925290Y8947876D01*
X-6925290Y8947876D02*
X-5825290Y10047876D01*
%TO.N,Net-(D403-DOUT)*%
X1156834Y14100000D02*
X2122586Y14100000D01*
X2122586Y14100000D02*
X2174710Y14047876D01*
X4710Y12947876D02*
X1156834Y14100000D01*
%TO.N,Net-(D404-DOUT)*%
X-3995290Y8947876D02*
X-2925290Y8947876D01*
X-2925290Y8947876D02*
X-1825290Y10047876D01*
%TO.N,Net-(D405-DOUT)*%
X-3995290Y12947876D02*
X-2925290Y12947876D01*
X-2925290Y12947876D02*
X-1825290Y14047876D01*
%TO.N,Net-(D406-DOUT)*%
X4710Y8947876D02*
X1074710Y8947876D01*
X1074710Y8947876D02*
X2174710Y10047876D01*
%TO.N,Net-(D407-DOUT)*%
X-6925290Y12947876D02*
X-5825290Y14047876D01*
X-7995290Y12947876D02*
X-6925290Y12947876D01*
%TO.N,Net-(D408-DOUT)*%
X6076834Y9950000D02*
X6174710Y10047876D01*
X5006834Y9950000D02*
X6076834Y9950000D01*
X4004710Y8947876D02*
X5006834Y9950000D01*
%TO.N,Net-(D410-DOUT)*%
X8004710Y8947876D02*
X8580910Y8371676D01*
X8580910Y5524076D02*
X8004710Y4947876D01*
X8580910Y8371676D02*
X8580910Y5524076D01*
%TO.N,Net-(D411-DOUT)*%
X6174710Y6047876D02*
X5104710Y6047876D01*
X5104710Y6047876D02*
X4004710Y4947876D01*
%TO.N,Net-(D412-DOUT)*%
X1074710Y4947876D02*
X4710Y4947876D01*
X2174710Y6047876D02*
X1074710Y4947876D01*
D46*
%TO.N,Net-(D413-DOUT)*%
X-2895290Y6047876D02*
X-1825290Y6047876D01*
X-3995290Y4947876D02*
X-2895290Y6047876D01*
%TO.N,Net-(D414-DOUT)*%
X-6895290Y6047876D02*
X-7995290Y4947876D01*
X-5825290Y6047876D02*
X-6895290Y6047876D01*
D45*
%TO.N,Net-(D415-DOUT)*%
X-9825290Y6047876D02*
X-11563707Y7786293D01*
X-13363707Y7786293D02*
X-13900000Y7250000D01*
X-12997876Y2047876D02*
X-9825290Y2047876D01*
X-13900000Y2950000D02*
X-12997876Y2047876D01*
X-13900000Y7250000D02*
X-13900000Y2950000D01*
X-11563707Y7786293D02*
X-13363707Y7786293D01*
%TO.N,Net-(D416-DOUT)*%
X-6925290Y947876D02*
X-5825290Y2047876D01*
X-7995290Y947876D02*
X-6925290Y947876D01*
%TO.N,Net-(D417-DOUT)*%
X-3995290Y947876D02*
X-2925290Y947876D01*
X-2925290Y947876D02*
X-1825290Y2047876D01*
%TO.N,Net-(D418-DOUT)*%
X2174710Y2047876D02*
X1672310Y2047876D01*
X1672310Y2047876D02*
X572310Y947876D01*
X572310Y947876D02*
X4710Y947876D01*
%TO.N,Net-(D419-DOUT)*%
X5074710Y947876D02*
X6174710Y2047876D01*
X4004710Y947876D02*
X5074710Y947876D01*
%TO.N,Net-(D420-DOUT)*%
X8004710Y947876D02*
X8580910Y371676D01*
X8580910Y371676D02*
X8580910Y-2475924D01*
X8580910Y-2475924D02*
X8004710Y-3052124D01*
%TO.N,Net-(D421-DOUT)*%
X4600000Y-2314419D02*
X4600000Y-2456834D01*
X6116834Y-1894248D02*
X5020171Y-1894248D01*
X4600000Y-2456834D02*
X4004710Y-3052124D01*
X5020171Y-1894248D02*
X4600000Y-2314419D01*
X6174710Y-1952124D02*
X6116834Y-1894248D01*
%TO.N,Net-(D422-DOUT)*%
X1074710Y-3052124D02*
X4710Y-3052124D01*
X2174710Y-1952124D02*
X1074710Y-3052124D01*
%TO.N,Net-(D423-DOUT)*%
X-1825290Y-1952124D02*
X-2895290Y-1952124D01*
X-2895290Y-1952124D02*
X-3995290Y-3052124D01*
%TO.N,Net-(D424-DOUT)*%
X-7995290Y-3052124D02*
X-6925290Y-3052124D01*
X-6925290Y-3052124D02*
X-5825290Y-1952124D01*
%TO.N,/Peripherals/GP11{slash}SERVO_1*%
X-14720458Y1040400D02*
X-14720458Y2028174D01*
X-6287903Y-4042017D02*
X-7124742Y-4878856D01*
X-12045200Y-382458D02*
X-12675258Y247600D01*
X-12045200Y-2408932D02*
X-12045200Y-382458D01*
X-7124742Y-4878856D02*
X-9575276Y-4878856D01*
X-4276200Y-4423063D02*
X-4657246Y-4042017D01*
X-14750000Y8350000D02*
X-15260000Y8860000D01*
X-14752400Y7752619D02*
X-14750000Y7755019D01*
X-14750000Y7755019D02*
X-14750000Y8350000D01*
X-9575276Y-4878856D02*
X-12045200Y-2408932D01*
X-12675258Y247600D02*
X-13927658Y247600D01*
X-15260000Y8860000D02*
X-15260000Y10475000D01*
X-14720458Y2028174D02*
X-14752400Y2060116D01*
X-14752400Y2060116D02*
X-14752400Y7752619D01*
X-13927658Y247600D02*
X-14720458Y1040400D01*
X-4657246Y-4042017D02*
X-6287903Y-4042017D01*
%TO.N,/Peripherals/GP10{slash}SERVO_0*%
X-14007716Y-100000D02*
X-15022858Y915142D01*
X-12347600Y-2534190D02*
X-12347600Y-552400D01*
X-12800000Y-100000D02*
X-14007716Y-100000D01*
X-15986200Y12813800D02*
X-15260000Y13540000D01*
X-5750000Y-4550000D02*
X-6368228Y-4550000D01*
X-15986200Y5886200D02*
X-15986200Y12813800D01*
X-15022858Y915142D02*
X-15022858Y1902916D01*
X-6368228Y-4550000D02*
X-6999484Y-5181256D01*
X-6999484Y-5181256D02*
X-9700534Y-5181256D01*
X-15200000Y5100000D02*
X-15986200Y5886200D01*
X-5382209Y-4917791D02*
X-5750000Y-4550000D01*
X-15200000Y2080058D02*
X-15200000Y5100000D01*
X-9700534Y-5181256D02*
X-12347600Y-2534190D01*
X-15022858Y1902916D02*
X-15200000Y2080058D01*
X-15260000Y13540000D02*
X-15260000Y15525000D01*
X-12347600Y-552400D02*
X-12800000Y-100000D01*
%TO.N,/Peripherals/GP5{slash}SERVO_3*%
X12576251Y-9276251D02*
X13331241Y-9276251D01*
X1354998Y-5670619D02*
X1721817Y-5303800D01*
X19532842Y-10228600D02*
X19673800Y-10369558D01*
X11525000Y-5775000D02*
X11525000Y-8225000D01*
X1721817Y-5303800D02*
X11053800Y-5303800D01*
X19532842Y-9117158D02*
X19532842Y-10228600D01*
X14200000Y13400000D02*
X14860000Y14060000D01*
X11525000Y-8225000D02*
X12576251Y-9276251D01*
X11053800Y-5303800D02*
X11525000Y-5775000D01*
X14860000Y14060000D02*
X14860000Y15525000D01*
%TO.N,/Peripherals/GP4{slash}SERVO_2*%
X15200000Y12950000D02*
X15200000Y10815000D01*
X1596559Y-5001400D02*
X1553540Y-5044419D01*
X1116819Y-5044419D02*
X750000Y-4677600D01*
X15200000Y10815000D02*
X14860000Y10475000D01*
X10848600Y-5001400D02*
X1596559Y-5001400D01*
X1553540Y-5044419D02*
X1116819Y-5044419D01*
X11900000Y-3950000D02*
X10848600Y-5001400D01*
%TO.N,/Peripherals/GP8{slash}Grove_D1*%
X6400000Y-10338734D02*
X6400000Y-12620600D01*
X18900000Y-7598734D02*
X18641200Y-7339934D01*
X-1185000Y-8196266D02*
X-122666Y-9258600D01*
X17943128Y-2148800D02*
X17398800Y-2148800D01*
X-1185000Y-6520495D02*
X-1185000Y-8196266D01*
X12747200Y-14447200D02*
X13964220Y-14447200D01*
X7029400Y-13250000D02*
X11550000Y-13250000D01*
X-122666Y-9258600D02*
X5319866Y-9258600D01*
X16276200Y-1026200D02*
X16276200Y-190619D01*
X13964220Y-14447200D02*
X14761420Y-13650000D01*
X13285581Y2800000D02*
X11200000Y2800000D01*
X6400000Y-12620600D02*
X7029400Y-13250000D01*
X11550000Y-13250000D02*
X12747200Y-14447200D01*
X14761420Y-13650000D02*
X18661420Y-13650000D01*
X16276200Y-190619D02*
X13285581Y2800000D01*
X5319866Y-9258600D02*
X6400000Y-10338734D01*
X17398800Y-2148800D02*
X16276200Y-1026200D01*
X18641200Y-2846872D02*
X17943128Y-2148800D01*
X18641200Y-7339934D02*
X18641200Y-2846872D01*
X18661420Y-13650000D02*
X18900000Y-13411420D01*
X18900000Y-13411420D02*
X18900000Y-7598734D01*
%TO.N,/Peripherals/GP9{slash}Grove_D0*%
X-3800000Y-13029600D02*
X-3900000Y-12929600D01*
X12926200Y3776200D02*
X11902400Y4800000D01*
X17546400Y-1846400D02*
X16578600Y-878600D01*
X-3900000Y-5841748D02*
X-2785652Y-4727400D01*
X16578600Y-65361D02*
X12926200Y3587039D01*
X-3900000Y-12929600D02*
X-3900000Y-5841748D01*
X12926200Y3587039D02*
X12926200Y3776200D01*
X11902400Y4800000D02*
X11200000Y4800000D01*
X18946986Y-2725000D02*
X19713905Y-2725000D01*
X18068386Y-1846400D02*
X17546400Y-1846400D01*
X19713905Y-2725000D02*
X19860113Y-2578792D01*
X18946986Y-2725000D02*
X18068386Y-1846400D01*
X16578600Y-878600D02*
X16578600Y-65361D01*
%TO.N,/Peripherals/GP19*%
X17400000Y-14646400D02*
X18057200Y-15303600D01*
X20100341Y-15303600D02*
X22203941Y-13200000D01*
X18057200Y-15303600D02*
X20100341Y-15303600D01*
X22203941Y-13200000D02*
X26600000Y-13200000D01*
X-20141242Y-7701842D02*
X-20784946Y-7701842D01*
X-19118028Y-6678628D02*
X-20141242Y-7701842D01*
X-19118028Y-4195864D02*
X-19118028Y-6678628D01*
%TO.N,/Peripherals/GP26*%
X-22601458Y-9226200D02*
X-22193380Y-9226200D01*
X-22975258Y-8852400D02*
X-22601458Y-9226200D01*
X-29102400Y-1425878D02*
X-29102400Y-5625258D01*
X-24725258Y-8852400D02*
X-22975258Y-8852400D01*
X-29245655Y-763861D02*
X-29245655Y-1282623D01*
X-21390002Y11524416D02*
X-22432209Y10482209D01*
X-29245655Y-1282623D02*
X-29102400Y-1425878D01*
X-26225258Y-7352400D02*
X-24725258Y-8852400D01*
X-29102400Y-5625258D02*
X-27375258Y-7352400D01*
X-28000000Y-226200D02*
X-28707994Y-226200D01*
X-21390002Y11775000D02*
X-21390002Y11524416D01*
X-28707994Y-226200D02*
X-29245655Y-763861D01*
X-27375258Y-7352400D02*
X-26225258Y-7352400D01*
%TO.N,/Peripherals/GP21*%
X-18443017Y-14178599D02*
X-19052209Y-14787791D01*
X-15566552Y-14178599D02*
X-18443017Y-14178599D01*
%TO.N,/Peripherals/GP0*%
X22900000Y-11525000D02*
X20621400Y-11525000D01*
X29025000Y-2900000D02*
X29075000Y-2950000D01*
X29075000Y-2950000D02*
X29075000Y-5350000D01*
X28800000Y10600000D02*
X29025000Y10375000D01*
X29025000Y10375000D02*
X29025000Y-2900000D01*
X29075000Y-5350000D02*
X22900000Y-11525000D01*
%TO.N,/Peripherals/GP17{slash}ArrowDown*%
X-11588644Y-13940600D02*
X-12700000Y-12829244D01*
X-12700000Y-12829244D02*
X-12700000Y-10580000D01*
%TO.N,/Peripherals/GP16{slash}ArrowRight*%
X13175000Y-13821000D02*
X12563600Y-13821000D01*
X12563600Y-13821000D02*
X11502400Y-12759800D01*
X-8917600Y-9443800D02*
X-6444569Y-9443800D01*
X-14735820Y-4378599D02*
X-12700000Y-6414419D01*
X11502400Y-10361134D02*
X10585066Y-9443800D01*
X10585066Y-9443800D02*
X8321626Y-9443800D01*
X11502400Y-12759800D02*
X11502400Y-10361134D01*
X8321626Y-9443800D02*
X8077824Y-9199998D01*
X-6444569Y-9443800D02*
X-6382680Y-9381911D01*
X-9100000Y-9626200D02*
X-8917600Y-9443800D01*
X-12700000Y-6414419D02*
X-12700000Y-8040000D01*
%TO.N,/Peripherals/GP27*%
X-26100000Y-7050000D02*
X-27250000Y-7050000D01*
X-27250000Y-7050000D02*
X-28800000Y-5500000D01*
X-20542438Y-9314780D02*
X-20627658Y-9400000D01*
X-21983999Y-8550000D02*
X-24600000Y-8550000D01*
X-18825000Y-9443800D02*
X-18954020Y-9314780D01*
X-28800000Y-1203787D02*
X-28619455Y-1023242D01*
X-25267510Y8356193D02*
X-25242791Y8380912D01*
X-24600000Y-8550000D02*
X-26100000Y-7050000D01*
X-25242791Y8380912D02*
X-25242791Y11042791D01*
X-21133999Y-9400000D02*
X-21983999Y-8550000D01*
X-18954020Y-9314780D02*
X-20542438Y-9314780D01*
X-20627658Y-9400000D02*
X-21133999Y-9400000D01*
X-28800000Y-5500000D02*
X-28800000Y-1203787D01*
%TO.N,/Peripherals/GP22*%
X22123883Y-12852400D02*
X23283232Y-12852400D01*
X-13080985Y-9380985D02*
X-14213800Y-10513800D01*
X-18702400Y-13552400D02*
X-20350000Y-15200000D01*
X-14213800Y-12866200D02*
X-14900000Y-13552400D01*
X-14900000Y-13552400D02*
X-18702400Y-13552400D01*
X23283232Y-12852400D02*
X27135632Y-9000000D01*
X-10700000Y-9000000D02*
X-11080985Y-9380985D01*
X-6332706Y-8433224D02*
X-6899482Y-9000000D01*
X-6899482Y-9000000D02*
X-10700000Y-9000000D01*
X18944389Y-15001200D02*
X19975083Y-15001200D01*
X-11080985Y-9380985D02*
X-13080985Y-9380985D01*
X19975083Y-15001200D02*
X22123883Y-12852400D01*
X27135632Y-9000000D02*
X30200000Y-9000000D01*
X-14213800Y-10513800D02*
X-14213800Y-12866200D01*
X18589590Y-14646401D02*
X18944389Y-15001200D01*
%TO.N,/Peripherals/GP23*%
X-20240251Y-13168851D02*
X-20459102Y-12950000D01*
X-20459102Y-12950000D02*
X-23300000Y-12950000D01*
X-23300000Y-12950000D02*
X-23600000Y-13250000D01*
%TO.N,/Peripherals/GP2*%
X30500000Y175000D02*
X29679800Y-645200D01*
X23150516Y-12129800D02*
X21852184Y-12129800D01*
X31775000Y175000D02*
X30500000Y175000D01*
X20614578Y-13367406D02*
X20295638Y-13367406D01*
X29679800Y-645200D02*
X29679800Y-5600516D01*
X21852184Y-12129800D02*
X20614578Y-13367406D01*
X32600000Y1000000D02*
X31775000Y175000D01*
X29679800Y-5600516D02*
X23150516Y-12129800D01*
%TO.N,/Peripherals/GP14{slash}ArrowLeft*%
X-12310313Y-4439687D02*
X-13300000Y-3450000D01*
X-13300000Y-3450000D02*
X-19425000Y-3450000D01*
X-21850000Y-5875000D02*
X-21850000Y-7535582D01*
X-19425000Y-3450000D02*
X-21850000Y-5875000D01*
X-21850000Y-7535582D02*
X-22157209Y-7842791D01*
X-11755342Y-4439687D02*
X-12310313Y-4439687D01*
%TO.N,/Peripherals/GP3*%
X8871250Y-7423166D02*
X8871250Y-8092516D01*
X19500000Y-14375000D02*
X20173625Y-14375000D01*
X12478651Y-9578651D02*
X12700000Y-9800000D01*
X12450993Y-9578651D02*
X12478651Y-9578651D01*
X20173625Y-14375000D02*
X21998625Y-12550000D01*
X21998625Y-12550000D02*
X23157974Y-12550000D01*
X11572342Y-8700000D02*
X12450993Y-9578651D01*
X10585066Y-8956200D02*
X10841266Y-8700000D01*
X23157974Y-12550000D02*
X31507974Y-4200000D01*
X10841266Y-8700000D02*
X11572342Y-8700000D01*
X9734934Y-8956200D02*
X10585066Y-8956200D01*
X12700000Y-9800000D02*
X12700000Y-10470000D01*
X8871250Y-8092516D02*
X9734934Y-8956200D01*
X31507974Y-4200000D02*
X32200000Y-4200000D01*
%TO.N,/SWD*%
X-17502400Y-3752400D02*
X-17780000Y-4030000D01*
X-14406638Y-3752400D02*
X-17502400Y-3752400D01*
X-17780000Y-4030000D02*
X-17780000Y-6675000D01*
X-13785833Y-4373205D02*
X-14406638Y-3752400D01*
X-17780000Y-5211728D02*
X-17780000Y-7930000D01*
%TO.N,/Peripherals/GP15{slash}ArrowUp*%
X-15325258Y789884D02*
X-15325258Y1777658D01*
X-15647600Y2100000D02*
X-17200000Y2100000D01*
X-12188986Y-3578386D02*
X-11731062Y-3578386D01*
X-12650000Y-677658D02*
X-12925258Y-402400D01*
X-15325258Y1777658D02*
X-15647600Y2100000D01*
X-17200000Y2100000D02*
X-17550000Y1750000D01*
X-17550000Y1750000D02*
X-17550000Y200000D01*
X-10160000Y-5149448D02*
X-10160000Y-7930000D01*
X-11731062Y-3578386D02*
X-10160000Y-5149448D01*
X-12925258Y-402400D02*
X-14132974Y-402400D01*
X-12650000Y-3117372D02*
X-12650000Y-677658D01*
X-12188986Y-3578386D02*
X-12650000Y-3117372D01*
X-14132974Y-402400D02*
X-15325258Y789884D01*
%TO.N,/Peripherals/GP1*%
X29377400Y-2824742D02*
X29375000Y-2822342D01*
X20621400Y-12475003D02*
X21269003Y-11827400D01*
X29375000Y-2822342D02*
X29375000Y3975000D01*
X29375000Y3975000D02*
X31400000Y6000000D01*
X23025258Y-11827400D02*
X29377400Y-5475258D01*
X21269003Y-11827400D02*
X23025258Y-11827400D01*
X29377400Y-5475258D02*
X29377400Y-2824742D01*
%TO.N,/Peripherals/GP18*%
X-17256200Y-8956200D02*
X-16650000Y-8350000D01*
X-16650000Y-8350000D02*
X-16650000Y-5100000D01*
X-18205066Y-8956200D02*
X-17256200Y-8956200D01*
X-20592791Y-8632209D02*
X-18529057Y-8632209D01*
X-18529057Y-8632209D02*
X-18205066Y-8956200D01*
%TO.N,/Peripherals/GP24*%
X-16510000Y-12710000D02*
X-17050000Y-13250000D01*
X-16510000Y-9095581D02*
X-16510000Y-12710000D01*
X-16245376Y-8830957D02*
X-16510000Y-9095581D01*
X-17050000Y-13250000D02*
X-18725000Y-13250000D01*
X-20529551Y-11445449D02*
X-24595449Y-11445449D01*
X-18725000Y-13250000D02*
X-20529551Y-11445449D01*
%TO.N,/Peripherals/GP28*%
X-29916736Y-1466858D02*
X-29707200Y-1676394D01*
X-23275619Y-9457200D02*
X-22489439Y-10243380D01*
X-26475774Y-7957200D02*
X-24975774Y-9457200D01*
X-25921953Y8049608D02*
X-25921953Y10378529D01*
X-27625774Y-7957200D02*
X-26475774Y-7957200D01*
X-24975774Y-9457200D02*
X-23275619Y-9457200D01*
X-22489439Y-10243380D02*
X-20043380Y-10243380D01*
X-29707200Y-1676394D02*
X-29707200Y-5875774D01*
X-29707200Y-5875774D02*
X-27625774Y-7957200D01*
X-25278600Y7406255D02*
X-25921953Y8049608D01*
X-29916736Y-1183967D02*
X-29916736Y-1466858D01*
X-30240536Y-860167D02*
X-29916736Y-1183967D01*
%TO.N,/Peripherals/GP20{slash}Buzzer*%
X-13962500Y-2563816D02*
X-13962500Y-2912500D01*
X-15419107Y-1107209D02*
X-13962500Y-2563816D01*
X-15807209Y-1107209D02*
X-15419107Y-1107209D01*
D48*
%TO.N,/N_USBBOOT*%
X19711543Y6550000D02*
X18834143Y5672600D01*
X18834143Y5672600D02*
X18065857Y5672600D01*
X10750000Y7400000D02*
X10750000Y7650000D01*
X22849528Y6550000D02*
X19711543Y6550000D01*
X23374764Y7075236D02*
X22849528Y6550000D01*
X-12350000Y10600000D02*
X-11950000Y11000000D01*
X18065857Y5672600D02*
X17915858Y5822600D01*
X-11950000Y11000000D02*
X-11950000Y14050000D01*
X12327400Y5822600D02*
X10750000Y7400000D01*
X17915858Y5822600D02*
X12327400Y5822600D01*
D45*
%TO.N,Net-(U101-RUN)*%
X-11550000Y5002400D02*
X-11550000Y4013239D01*
X-13256980Y5720219D02*
X-12862961Y5326200D01*
X-13256980Y5928600D02*
X-13256980Y5720219D01*
X-11873800Y5326200D02*
X-11550000Y5002400D01*
X-12862961Y5326200D02*
X-11873800Y5326200D01*
%TO.N,/Peripherals/GP6{slash}IMU_SDA*%
X-27438700Y4201200D02*
X-27200000Y3962500D01*
X-30000166Y3900000D02*
X-30253600Y3646566D01*
X-20417180Y-9617180D02*
X-19782820Y-9617180D01*
X-22452761Y-9852400D02*
X-20652400Y-9852400D01*
X-29404800Y-5750516D02*
X-27500516Y-7654800D01*
X-19400000Y-10000000D02*
X-19400000Y-11000000D01*
X-29250000Y3900000D02*
X-30000166Y3900000D01*
X-29614336Y-704884D02*
X-29614336Y-1341600D01*
X-29404800Y-1551136D02*
X-29404800Y-5750516D01*
X-29614336Y-1341600D02*
X-29404800Y-1551136D01*
X-24555317Y-10600000D02*
X-25000000Y-10600000D01*
X-27500516Y-7654800D02*
X-26350516Y-7654800D01*
X-26350516Y-7654800D02*
X-24850516Y-9154800D01*
X-25221649Y-12603038D02*
X-23224687Y-14600000D01*
X-28948800Y4201200D02*
X-27438700Y4201200D01*
X-24012268Y-11143049D02*
X-24555317Y-10600000D01*
X-25221649Y-10821649D02*
X-25221649Y-12603038D01*
X-23224687Y-14600000D02*
X-22200000Y-14600000D01*
X-29550000Y4200000D02*
X-29250000Y3900000D01*
X-24850516Y-9154800D02*
X-23150361Y-9154800D01*
X-20652400Y-9852400D02*
X-20417180Y-9617180D01*
X-19543049Y-11143049D02*
X-24012268Y-11143049D01*
X-30253600Y3646566D02*
X-30253600Y1561920D01*
X-29600000Y908320D02*
X-29600000Y-690548D01*
X-25000000Y-10600000D02*
X-25221649Y-10821649D01*
X-19782820Y-9617180D02*
X-19400000Y-10000000D01*
X-19400000Y-11000000D02*
X-19543049Y-11143049D01*
X-23150361Y-9154800D02*
X-22452761Y-9852400D01*
X-30253600Y1561920D02*
X-29600000Y908320D01*
X-29600000Y-690548D02*
X-29614336Y-704884D01*
X-29250000Y3900000D02*
X-28948800Y4201200D01*
%TO.N,/Peripherals/GP7{slash}IMU_SCL*%
X-27300000Y5225000D02*
X-26700000Y4625000D01*
X-30866736Y-1133264D02*
X-30009600Y-1990400D01*
X-25524049Y-13186219D02*
X-24255134Y-14455134D01*
X-30632975Y-367025D02*
X-30866736Y-600786D01*
X-29102824Y5225000D02*
X-30632975Y3694849D01*
X-27751032Y-8259600D02*
X-26601032Y-8259600D01*
X-30009600Y-6001032D02*
X-27751032Y-8259600D01*
X-27475000Y5400000D02*
X-27300000Y5225000D01*
X-30632975Y3694849D02*
X-30632975Y-367025D01*
X-27300000Y5225000D02*
X-29102824Y5225000D01*
X-25524049Y-9336583D02*
X-25524049Y-13186219D01*
X-26601032Y-8259600D02*
X-25524049Y-9336583D01*
X-30866736Y-600786D02*
X-30866736Y-1133264D01*
X-30009600Y-1990400D02*
X-30009600Y-6001032D01*
X-26700000Y4625000D02*
X-26700000Y3962500D01*
%TO.N,+1V1*%
X-6374656Y371676D02*
X-5303613Y371676D01*
X-8086200Y-1286200D02*
X-6401490Y398510D01*
X-5303613Y371676D02*
X-5249090Y426199D01*
X-10311766Y-1286200D02*
X-8086200Y-1286200D01*
X-10749499Y-1445863D02*
X-10471429Y-1445863D01*
X-10471429Y-1445863D02*
X-10311766Y-1286200D01*
X-5249090Y426199D02*
X-4867811Y426199D01*
X-6401490Y398510D02*
X-6374656Y371676D01*
%TO.N,/Peripherals/GP13{slash}INTR*%
X-14418058Y1165658D02*
X-14418058Y2153432D01*
X-14450000Y10092658D02*
X-14450000Y10235289D01*
X-11742800Y-2283674D02*
X-11742800Y-257200D01*
X-12550000Y550000D02*
X-13802400Y550000D01*
X-9450018Y-4576456D02*
X-11742800Y-2283674D01*
X-11742800Y-257200D02*
X-12550000Y550000D01*
X-14450000Y10235289D02*
X-14209998Y10475291D01*
X-14450000Y2185374D02*
X-14450000Y7627361D01*
X-28250000Y1912500D02*
X-27862500Y2300000D01*
X-4925290Y-3304524D02*
X-5360383Y-3739617D01*
X-4925290Y-3202209D02*
X-4925290Y-3304524D01*
X-7250000Y-4576456D02*
X-9450018Y-4576456D01*
X-6413161Y-3739617D02*
X-7250000Y-4576456D01*
X-28250000Y1550000D02*
X-28250000Y1912500D01*
X-14418058Y2153432D02*
X-14450000Y2185374D01*
X-14500000Y10042658D02*
X-14450000Y10092658D01*
X-5360383Y-3739617D02*
X-6413161Y-3739617D01*
X-13802400Y550000D02*
X-14418058Y1165658D01*
X-14447600Y8475258D02*
X-14500000Y8527658D01*
X-14500000Y8527658D02*
X-14500000Y10042658D01*
X-14450000Y7627361D02*
X-14447600Y7629761D01*
X-14447600Y7629761D02*
X-14447600Y8475258D01*
%TO.N,/FLASH_SD3*%
X15926200Y-4576200D02*
X15926200Y-2576200D01*
X15926200Y-2576200D02*
X15050000Y-1700000D01*
X15050000Y-1700000D02*
X14750000Y-1700000D01*
X15323802Y-4576200D02*
X15926200Y-4576200D01*
X15000000Y-4900002D02*
X15323802Y-4576200D01*
D46*
%TO.N,/Peripherals/GP25{slash}LED*%
X18797200Y-13977800D02*
X14897200Y-13977800D01*
X18675000Y-1775000D02*
X20225000Y-1775000D01*
X19525000Y-3325000D02*
X19175000Y-3675000D01*
X14897200Y-13977800D02*
X14100000Y-14775000D01*
X19227800Y-13547200D02*
X18797200Y-13977800D01*
X19175000Y-7410154D02*
X20325400Y-8560554D01*
X22800000Y9175000D02*
X22800000Y8950000D01*
X22800000Y8950000D02*
X24150000Y7600000D01*
X18222832Y4496232D02*
X18222832Y-1322832D01*
X-542970Y-13598400D02*
X-2540000Y-11601370D01*
X23700000Y6225000D02*
X23075000Y6225000D01*
X23075000Y6225000D02*
X23073400Y6223400D01*
X19950000Y6223400D02*
X18222832Y4496232D01*
X20225000Y-1775000D02*
X20675000Y-2225000D01*
D45*
X-2540000Y-11725000D02*
X-2540000Y-10470000D01*
D46*
X20675000Y-2225000D02*
X20675000Y-2800000D01*
X12611420Y-14775000D02*
X11434820Y-13598400D01*
X18222832Y-1322832D02*
X18675000Y-1775000D01*
D45*
X-21154551Y-12254551D02*
X-21509102Y-11900000D01*
D46*
X20325400Y-8560554D02*
X20325400Y-10639460D01*
X14100000Y-14775000D02*
X12611420Y-14775000D01*
X23073400Y6223400D02*
X19950000Y6223400D01*
X20150000Y-3325000D02*
X19525000Y-3325000D01*
X20325400Y-10639460D02*
X19227800Y-11737060D01*
D45*
X-24050884Y-11900000D02*
X-24544995Y-12394111D01*
D46*
X19175000Y-3675000D02*
X19175000Y-7410154D01*
D45*
X-21509102Y-11900000D02*
X-24050884Y-11900000D01*
D46*
X24150000Y6675000D02*
X23700000Y6225000D01*
X19227800Y-11737060D02*
X19227800Y-13547200D01*
X11434820Y-13598400D02*
X-542970Y-13598400D01*
X24150000Y7600000D02*
X24150000Y6675000D01*
X-2540000Y-11601370D02*
X-2540000Y-10470000D01*
X20675000Y-2800000D02*
X20150000Y-3325000D01*
%TD*%
%TA.AperFunction,Conductor*%
%TO.N,/VBUS*%
G36*
X16651809Y17280315D02*
G01*
X16697564Y17227511D01*
X16707508Y17158353D01*
X16706387Y17151808D01*
X16700000Y17119700D01*
X16700000Y15925000D01*
X18100000Y15925000D01*
X18100000Y17119699D01*
X18099999Y17119700D01*
X18093613Y17151808D01*
X18099840Y17221400D01*
X18142703Y17276577D01*
X18208592Y17299822D01*
X18215230Y17300000D01*
X18976000Y17300000D01*
X19043039Y17280315D01*
X19088794Y17227511D01*
X19100000Y17176000D01*
X19100000Y6736384D01*
X19080315Y6669345D01*
X19063681Y6648703D01*
X18651797Y6236819D01*
X18590474Y6203334D01*
X18564116Y6200500D01*
X18335884Y6200500D01*
X18268845Y6220185D01*
X18248203Y6236819D01*
X18169035Y6315987D01*
X18085714Y6350500D01*
X18085713Y6350500D01*
X18085712Y6350500D01*
X16124000Y6350500D01*
X16056961Y6370185D01*
X16011206Y6422989D01*
X16000000Y6474500D01*
X16000000Y8880298D01*
X16700000Y8880298D01*
X16711602Y8821967D01*
X16711603Y8821966D01*
X16755808Y8755809D01*
X16821965Y8711604D01*
X16821966Y8711603D01*
X16880297Y8700001D01*
X16880301Y8700000D01*
X17000000Y8700000D01*
X17800000Y8700000D01*
X17919699Y8700000D01*
X17919702Y8700001D01*
X17978033Y8711603D01*
X17978034Y8711604D01*
X18044191Y8755809D01*
X18088396Y8821966D01*
X18088397Y8821967D01*
X18099999Y8880298D01*
X18100000Y8880301D01*
X18100000Y10075000D01*
X17800000Y10075000D01*
X17800000Y8700000D01*
X17000000Y8700000D01*
X17000000Y10075000D01*
X16700000Y10075000D01*
X16700000Y8880298D01*
X16000000Y8880298D01*
X16000000Y12069703D01*
X16700000Y12069703D01*
X16700000Y10875000D01*
X17000000Y10875000D01*
X17800000Y10875000D01*
X18100000Y10875000D01*
X18100000Y12069699D01*
X18099999Y12069703D01*
X18088397Y12128034D01*
X18088396Y12128035D01*
X18044191Y12194192D01*
X17978034Y12238397D01*
X17978033Y12238398D01*
X17919702Y12250000D01*
X17800000Y12250000D01*
X17800000Y10875000D01*
X17000000Y10875000D01*
X17000000Y12250000D01*
X16880297Y12250000D01*
X16821966Y12238398D01*
X16821965Y12238397D01*
X16755808Y12194192D01*
X16711603Y12128035D01*
X16711602Y12128034D01*
X16700000Y12069703D01*
X16000000Y12069703D01*
X16000000Y14186006D01*
X16019685Y14253045D01*
X16072489Y14298800D01*
X16107812Y14308945D01*
X16143709Y14313670D01*
X16277625Y14369139D01*
X16392621Y14457379D01*
X16477626Y14568160D01*
X16534052Y14609360D01*
X16603798Y14613515D01*
X16664719Y14579302D01*
X16697471Y14517585D01*
X16700000Y14492671D01*
X16700000Y13930298D01*
X16711602Y13871967D01*
X16711603Y13871966D01*
X16755808Y13805809D01*
X16821965Y13761604D01*
X16821966Y13761603D01*
X16880297Y13750001D01*
X16880301Y13750000D01*
X17000000Y13750000D01*
X17800000Y13750000D01*
X17919699Y13750000D01*
X17919702Y13750001D01*
X17978033Y13761603D01*
X17978034Y13761604D01*
X18044191Y13805809D01*
X18088396Y13871966D01*
X18088397Y13871967D01*
X18099999Y13930298D01*
X18100000Y13930301D01*
X18100000Y15125000D01*
X17800000Y15125000D01*
X17800000Y13750000D01*
X17000000Y13750000D01*
X17000000Y15125000D01*
X16700000Y15125000D01*
X16676300Y15101300D01*
X16614976Y15067816D01*
X16545284Y15072801D01*
X16489351Y15114672D01*
X16481231Y15126984D01*
X16480863Y15127622D01*
X16480861Y15127625D01*
X16392621Y15242621D01*
X16277625Y15330861D01*
X16277624Y15330862D01*
X16277622Y15330863D01*
X16143712Y15386329D01*
X16143710Y15386330D01*
X16143709Y15386330D01*
X16124487Y15388861D01*
X16107813Y15391056D01*
X16043917Y15419323D01*
X16005447Y15477648D01*
X16000000Y15513995D01*
X16000000Y17176000D01*
X16019685Y17243039D01*
X16072489Y17288794D01*
X16124000Y17300000D01*
X16584770Y17300000D01*
X16651809Y17280315D01*
G37*
%TD.AperFunction*%
%TD*%
%TA.AperFunction,Conductor*%
%TO.N,/VBUS*%
G36*
X-22056961Y15480315D02*
G01*
X-22011206Y15427511D01*
X-22000000Y15376000D01*
X-22000000Y11824000D01*
X-22019685Y11756961D01*
X-22072489Y11711206D01*
X-22124000Y11700000D01*
X-24576000Y11700000D01*
X-24643039Y11719685D01*
X-24688794Y11772489D01*
X-24700000Y11824000D01*
X-24700000Y15376000D01*
X-24680315Y15443039D01*
X-24627511Y15488794D01*
X-24576000Y15500000D01*
X-22124000Y15500000D01*
X-22056961Y15480315D01*
G37*
%TD.AperFunction*%
%TD*%
M02*
