%TF.GenerationSoftware,KiCad,Pcbnew,8.0.5-8.0.5-0~ubuntu22.04.1*%
%TF.CreationDate,2024-11-27T13:58:37+01:00*%
%TF.ProjectId,nerdYcontroller,6e657264-5963-46f6-9e74-726f6c6c6572,rev?*%
%TF.SameCoordinates,Original*%
%TF.FileFunction,Copper,L2,Inr*%
%TF.FilePolarity,Positive*%
%FSLAX46Y46*%
G04 Gerber Fmt 4.6, Leading zero omitted, Abs format (unit mm)*
G04 Created by KiCad (PCBNEW 8.0.5-8.0.5-0~ubuntu22.04.1) date 2024-11-27 13:58:37*
%MOMM*%
%LPD*%
G01*
G04 APERTURE LIST*
G04 Aperture macros list*
%AMFreePoly0*
4,1,16,2.068441,2.822910,2.098225,2.768757,2.100000,2.750000,2.100000,-2.750000,2.080902,-2.808779,2.030902,-2.845106,1.969098,-2.845106,1.951808,-2.837622,-3.048192,-0.087622,-3.090491,-0.042561,-3.098225,0.018757,-3.068441,0.072910,-3.048192,0.087622,1.951808,2.837622,2.012515,2.849214,2.068441,2.822910,2.068441,2.822910,$1*%
%AMFreePoly1*
4,1,26,6.500000,-2.000000,0.000000,-2.000000,-0.284630,-1.979643,-0.563465,-1.918986,-0.830830,-1.819264,-1.081282,-1.682507,-1.309721,-1.511499,-1.511499,-1.309721,-1.682507,-1.081283,-1.819264,-0.830830,-1.918986,-0.563465,-1.979643,-0.284630,-2.000000,0.000000,-1.979643,0.284630,-1.918986,0.563465,-1.819264,0.830830,-1.682507,1.081282,-1.511499,1.309721,-1.309721,1.511499,-1.081283,1.682507,
-0.830830,1.819264,-0.563465,1.918986,-0.284630,1.979643,0.000000,2.000000,6.500000,2.000000,6.500000,-2.000000,6.500000,-2.000000,$1*%
%AMFreePoly2*
4,1,35,6.858779,1.980902,6.895106,1.930901,6.900000,1.900000,6.900000,-1.900000,6.880902,-1.958779,6.830902,-1.995106,6.800000,-2.000000,0.000000,-2.000000,-0.284630,-1.979643,-0.563465,-1.918986,-0.830830,-1.819264,-1.081282,-1.682507,-1.309721,-1.511499,-1.511499,-1.309721,-1.682507,-1.081283,-1.819264,-0.830830,-1.918986,-0.563465,-1.979643,-0.284630,-2.000000,0.000000,-1.979643,0.284630,
-1.918986,0.563465,-1.819264,0.830830,-1.682507,1.081282,-1.511499,1.309721,-1.309721,1.511499,-1.081283,1.682507,-0.830830,1.819264,-0.563465,1.918986,-0.284630,1.979643,-0.267027,1.980902,-0.138852,1.990069,-0.133394,1.994260,-0.100000,2.000000,6.800000,2.000000,6.858779,1.980902,6.858779,1.980902,$1*%
G04 Aperture macros list end*
%TA.AperFunction,ComponentPad*%
%ADD10FreePoly0,270.000000*%
%TD*%
%TA.AperFunction,ComponentPad*%
%ADD11R,3.000000X3.700200*%
%TD*%
%TA.AperFunction,ComponentPad*%
%ADD12C,1.600000*%
%TD*%
%TA.AperFunction,CastellatedPad*%
%ADD13FreePoly1,40.000000*%
%TD*%
%TA.AperFunction,ComponentPad*%
%ADD14FreePoly2,220.000000*%
%TD*%
%TA.AperFunction,ComponentPad*%
%ADD15FreePoly0,0.000000*%
%TD*%
%TA.AperFunction,ComponentPad*%
%ADD16R,3.700200X3.000000*%
%TD*%
%TA.AperFunction,CastellatedPad*%
%ADD17FreePoly1,315.000000*%
%TD*%
%TA.AperFunction,ComponentPad*%
%ADD18FreePoly2,145.000000*%
%TD*%
%TA.AperFunction,CastellatedPad*%
%ADD19FreePoly1,350.000000*%
%TD*%
%TA.AperFunction,ComponentPad*%
%ADD20FreePoly0,90.000000*%
%TD*%
%TA.AperFunction,ComponentPad*%
%ADD21FreePoly2,180.000000*%
%TD*%
%TA.AperFunction,CastellatedPad*%
%ADD22FreePoly1,20.000000*%
%TD*%
%TA.AperFunction,CastellatedPad*%
%ADD23FreePoly1,5.000000*%
%TD*%
%TA.AperFunction,ComponentPad*%
%ADD24FreePoly0,180.000000*%
%TD*%
%TA.AperFunction,CastellatedPad*%
%ADD25FreePoly1,330.000000*%
%TD*%
%TA.AperFunction,ViaPad*%
%ADD26C,0.800000*%
%TD*%
%TA.AperFunction,Conductor*%
%ADD27C,0.152400*%
%TD*%
%TA.AperFunction,Conductor*%
%ADD28C,0.304800*%
%TD*%
G04 APERTURE END LIST*
D10*
%TO.N,/Peripherals/GP15{slash}ArrowUp*%
%TO.C,A302*%
X-21200000Y2350000D03*
D11*
X-21200000Y-1450100D03*
%TD*%
D12*
%TO.N,GND*%
%TO.C,J304*%
X17780000Y-10470000D03*
%TO.N,+3V3*%
X17780000Y-7930000D03*
%TO.N,/Peripherals/GP1*%
X15240000Y-10470000D03*
%TO.N,/Peripherals/GP0*%
X15240000Y-7930000D03*
%TO.N,/Peripherals/GP3*%
X12700000Y-10470000D03*
%TO.N,/Peripherals/GP2*%
X12700000Y-7930000D03*
%TO.N,GND*%
X10160000Y-10470000D03*
%TO.N,+3V3*%
X10160000Y-7930000D03*
%TO.N,/Peripherals/GP19*%
X7620000Y-10470000D03*
%TO.N,/Peripherals/GP22*%
X7620000Y-7930000D03*
%TO.N,/Peripherals/GP21*%
X5080000Y-10470000D03*
%TO.N,/Peripherals/GP18*%
X5080000Y-7930000D03*
%TO.N,GND*%
X2540000Y-10470000D03*
%TO.N,+3V3*%
X2540000Y-7930000D03*
%TO.N,/Peripherals/GP23*%
X0Y-10470000D03*
%TO.N,/Peripherals/GP24*%
X0Y-7930000D03*
%TO.N,/Peripherals/GP25{slash}LED*%
X-2540000Y-10470000D03*
%TO.N,/Peripherals/GP27*%
X-2540000Y-7930000D03*
%TO.N,GND*%
X-5080000Y-10470000D03*
%TO.N,+3V3*%
X-5080000Y-7930000D03*
%TO.N,/Peripherals/GP26*%
X-7620000Y-10470000D03*
%TO.N,/Peripherals/GP28*%
X-7620000Y-7930000D03*
%TO.N,/Peripherals/GP14{slash}ArrowLeft*%
X-10160000Y-10470000D03*
%TO.N,/Peripherals/GP15{slash}ArrowUp*%
X-10160000Y-7930000D03*
%TO.N,/Peripherals/GP17{slash}ArrowDown*%
X-12700000Y-10580000D03*
%TO.N,/Peripherals/GP16{slash}ArrowRight*%
X-12700000Y-8040000D03*
%TO.N,GND*%
X-15240000Y-10470000D03*
%TO.N,/VBUS*%
X-15240000Y-7930000D03*
%TO.N,/SWCLK*%
X-17780000Y-10470000D03*
%TO.N,/SWD*%
X-17780000Y-7930000D03*
%TD*%
D13*
%TO.N,/Peripherals/GP0*%
%TO.C,GP0*%
X28800000Y10600000D03*
%TD*%
D14*
%TO.N,/VBUS*%
%TO.C,VBUS301*%
X-28134019Y-11703993D03*
X-30448055Y-8946233D03*
%TD*%
D15*
%TO.N,/Peripherals/GP14{slash}ArrowLeft*%
%TO.C,A301*%
X-25350000Y-5308000D03*
D16*
X-21549900Y-5308000D03*
%TD*%
D17*
%TO.N,/Peripherals/GP19*%
%TO.C,GP19*%
X26600000Y-13200000D03*
%TD*%
D18*
%TO.N,GND*%
%TO.C,GND301*%
X-30832438Y7525526D03*
X-28767562Y10474474D03*
%TD*%
D19*
%TO.N,/Peripherals/GP3*%
%TO.C,GP3*%
X32200000Y-4200000D03*
%TD*%
D20*
%TO.N,/Peripherals/GP17{slash}ArrowDown*%
%TO.C,A304*%
X21600000Y75000D03*
D11*
X21600000Y3875100D03*
%TD*%
D21*
%TO.N,+3V3*%
%TO.C,3V3*%
X-32900901Y-2600000D03*
X-32900901Y1000000D03*
%TD*%
D22*
%TO.N,/Peripherals/GP1*%
%TO.C,GP1*%
X31400000Y6000000D03*
%TD*%
D23*
%TO.N,/Peripherals/GP2*%
%TO.C,GP2*%
X32600000Y1000000D03*
%TD*%
D24*
%TO.N,/Peripherals/GP16{slash}ArrowRight*%
%TO.C,A303*%
X25350000Y-5308000D03*
D16*
X21549900Y-5308000D03*
%TD*%
D25*
%TO.N,/Peripherals/GP22*%
%TO.C,GP22*%
X30200000Y-9000000D03*
%TD*%
D26*
%TO.N,GND*%
X1143000Y8204200D03*
%TO.N,+3V3*%
X-895292Y2250000D03*
X17500000Y-300000D03*
X-31075000Y-4900000D03*
X-11200000Y10600000D03*
X850000Y-2150002D03*
X17450000Y1750000D03*
X17500000Y700000D03*
X-7518400Y11709400D03*
X-2400000Y-50000D03*
X10174999Y13591117D03*
X15650000Y-450000D03*
X7100000Y6150000D03*
X-15889249Y3010751D03*
X-26800000Y-3200000D03*
X-23200000Y3550000D03*
X12750000Y11550000D03*
X3074712Y14300000D03*
X-19500000Y4200000D03*
X20800000Y13350000D03*
X-27800000Y-3800000D03*
X-26278962Y6635456D03*
X13700000Y12000000D03*
X13700000Y11050000D03*
X-30961402Y4252004D03*
X7775000Y-4350000D03*
%TO.N,GND*%
X-13475000Y11525000D03*
X-10607953Y-506466D03*
X9207109Y6105452D03*
X2152609Y-52849D03*
X-925288Y-2150000D03*
X22150000Y16150000D03*
X15750000Y-1500000D03*
X1082270Y2343418D03*
X-24400000Y-600000D03*
X15671800Y5197600D03*
X-7000000Y2400000D03*
X10876305Y12894624D03*
X-2950000Y14350000D03*
X-26439499Y7571796D03*
X4325000Y-4375200D03*
X22600000Y7625000D03*
X-25500000Y12650000D03*
X3475134Y4078016D03*
X23650000Y-8800000D03*
X-8850000Y9800000D03*
X-12800000Y8412493D03*
X-21350000Y10550000D03*
X-17800000Y-1800000D03*
X19925000Y8150000D03*
X-4925290Y6039378D03*
X16000000Y14850000D03*
X21073800Y12440309D03*
X-2350000Y-1000000D03*
X-22550000Y16100000D03*
X11717791Y8867791D03*
X-6734469Y12351458D03*
X1200000Y13250000D03*
X9800000Y8300000D03*
X-16650000Y12000000D03*
X13550000Y8600000D03*
X-33150000Y5650000D03*
X-18900000Y3400000D03*
X-15212464Y-366410D03*
%TO.N,/VBUS*%
X12639222Y14364746D03*
X-24150000Y14100000D03*
X18450000Y7700000D03*
X18450000Y6600000D03*
X-22550000Y14050000D03*
X12200000Y15100000D03*
X18500000Y11150000D03*
%TO.N,/Peripherals/GP29{slash}MIC_OUT*%
X1303603Y6573800D03*
X21700000Y14300000D03*
%TO.N,/Peripherals/GP12{slash}NEOPIXEL*%
X12500000Y13425000D03*
X-6377170Y-5444523D03*
%TO.N,/Peripherals/GP11{slash}SERVO_1*%
X-4276200Y-4423063D03*
%TO.N,/Peripherals/GP10{slash}SERVO_0*%
X-5382209Y-4917791D03*
%TO.N,/Peripherals/GP5{slash}SERVO_3*%
X1354998Y-5670619D03*
X14200000Y13400000D03*
X13331241Y-9276251D03*
X19673800Y-10369558D03*
X19532842Y-9117158D03*
%TO.N,/Peripherals/GP4{slash}SERVO_2*%
X11900000Y-3950000D03*
X750000Y-4677600D03*
X15200000Y12950000D03*
%TO.N,/Peripherals/GP8{slash}Grove_D1*%
X-1185000Y-6520495D03*
%TO.N,/Peripherals/GP9{slash}Grove_D0*%
X19860113Y-2578792D03*
X-2785652Y-4727400D03*
X-3800000Y-13029600D03*
%TO.N,/Peripherals/GP19*%
X-19118028Y-4195864D03*
X17400000Y-14646400D03*
X-20784946Y-7701842D03*
%TO.N,/Peripherals/GP26*%
X-22193380Y-9226200D03*
X-21390002Y11775000D03*
X-28000000Y-226200D03*
X-22432209Y10482209D03*
%TO.N,/Peripherals/GP21*%
X-19052209Y-14787791D03*
X-15566552Y-14178599D03*
%TO.N,/Peripherals/GP0*%
X20621400Y-11525000D03*
%TO.N,/Peripherals/GP17{slash}ArrowDown*%
X-11588644Y-13940600D03*
%TO.N,/Peripherals/GP16{slash}ArrowRight*%
X-14735820Y-4378599D03*
X-9100000Y-9626200D03*
X13175000Y-13821000D03*
X8077824Y-9199998D03*
X-6382680Y-9381911D03*
%TO.N,/Peripherals/GP27*%
X-25267510Y8356193D03*
X-25242791Y11042791D03*
X-18825000Y-9443800D03*
X-28619455Y-1023242D03*
%TO.N,/Peripherals/GP22*%
X-20350000Y-15200000D03*
X-6332706Y-8433224D03*
X18589590Y-14646401D03*
%TO.N,/Peripherals/GP23*%
X-23600000Y-13250000D03*
X-20240251Y-13168851D03*
%TO.N,/Peripherals/GP2*%
X20295638Y-13367406D03*
%TO.N,/Peripherals/GP14{slash}ArrowLeft*%
X-11755342Y-4439687D03*
X-22157209Y-7842791D03*
%TO.N,/Peripherals/GP3*%
X19500000Y-14375000D03*
X8871250Y-7423166D03*
%TO.N,/SWD*%
X-13785833Y-4373205D03*
%TO.N,/Peripherals/GP15{slash}ArrowUp*%
X-17550000Y200000D03*
X-12188986Y-3578386D03*
%TO.N,/Peripherals/GP1*%
X20621400Y-12475003D03*
%TO.N,/Peripherals/GP18*%
X-16650000Y-5100000D03*
X-20592791Y-8632209D03*
%TO.N,/Peripherals/GP24*%
X-16245376Y-8830957D03*
X-24595449Y-11445449D03*
%TO.N,/Peripherals/GP28*%
X-25921953Y10378529D03*
X-20043380Y-10243380D03*
X-30240536Y-860167D03*
X-25278600Y7406255D03*
%TO.N,/Peripherals/GP20{slash}Buzzer*%
X-15807209Y-1107209D03*
%TO.N,/N_USBBOOT*%
X-12350000Y10600000D03*
X-11950000Y14050000D03*
X23374764Y7075236D03*
X10750000Y7650000D03*
%TO.N,Net-(U101-RUN)*%
X-13256980Y5928600D03*
X-11550000Y4013239D03*
%TO.N,/Peripherals/GP6{slash}IMU_SDA*%
X-22200000Y-14600000D03*
X-522005Y-4677600D03*
%TO.N,/Peripherals/GP7{slash}IMU_SCL*%
X-24255134Y-14455134D03*
X-1476149Y-5185634D03*
%TO.N,+1V1*%
X-10749499Y-1445863D03*
X-4867811Y426199D03*
X4950000Y-450000D03*
%TO.N,/Peripherals/GP13{slash}INTR*%
X-28250000Y1550000D03*
X-4925290Y-3202209D03*
X-14209998Y10475291D03*
%TO.N,/FLASH_SD3*%
X14750000Y-1700000D03*
X15000000Y-4900002D03*
%TO.N,/FLASH_SD0*%
X12210100Y-2500001D03*
X5279552Y-2520448D03*
%TO.N,/Peripherals/GP25{slash}LED*%
X-24544995Y-12394111D03*
X-21154551Y-12254551D03*
%TO.N,/power-and-usb/usb_vcc*%
X4741053Y8206417D03*
X-2129850Y12011938D03*
X1609780Y11918717D03*
%TO.N,/usb_d+*%
X13433760Y4513797D03*
X17571232Y3728768D03*
%TO.N,/usb_d-*%
X16828768Y4471232D03*
X14483760Y4513797D03*
%TD*%
D27*
%TO.N,+3V3*%
X-31075000Y-4900000D02*
X-32900901Y-3074099D01*
X-30961402Y4252004D02*
X-32900901Y2312505D01*
X-32900901Y-3074099D02*
X-32900901Y-2600000D01*
X-32900901Y2312505D02*
X-32900901Y1000000D01*
D28*
%TO.N,GND*%
X-26439499Y8146411D02*
X-28767562Y10474474D01*
X-26439499Y7571796D02*
X-26439499Y8146411D01*
X-32707964Y5650000D02*
X-33150000Y5650000D01*
X-30832438Y7525526D02*
X-32707964Y5650000D01*
%TD*%
%TA.AperFunction,Conductor*%
%TO.N,+3V3*%
G36*
X-26118368Y4505381D02*
G01*
X-26052293Y4482673D01*
X-26008983Y4427846D01*
X-26000000Y4381509D01*
X-26000000Y-3644880D01*
X-26019685Y-3711919D01*
X-26064242Y-3753531D01*
X-28475547Y-5079749D01*
X-28492007Y-5090198D01*
X-28513267Y-5105645D01*
X-28558115Y-5156508D01*
X-28558117Y-5156510D01*
X-28589392Y-5213374D01*
X-28589395Y-5213382D01*
X-28596473Y-5228015D01*
X-28596475Y-5228024D01*
X-28607414Y-5307763D01*
X-28607415Y-5307766D01*
X-28599296Y-5372132D01*
X-28596413Y-5388171D01*
X-28558392Y-5459113D01*
X-28558390Y-5459115D01*
X-28513976Y-5506429D01*
X-28475539Y-5536255D01*
X-28475537Y-5536256D01*
X-27146277Y-6267349D01*
X-27097022Y-6316905D01*
X-27082378Y-6385223D01*
X-27106995Y-6450612D01*
X-27163055Y-6492313D01*
X-27206035Y-6500000D01*
X-33857260Y-6500000D01*
X-33924299Y-6480315D01*
X-33970054Y-6427511D01*
X-33976492Y-6410053D01*
X-34384557Y-4981280D01*
X-34387447Y-4968726D01*
X-34424984Y-4755499D01*
X-34417221Y-4686062D01*
X-34373149Y-4631845D01*
X-34306762Y-4610061D01*
X-34302862Y-4610000D01*
X-32906161Y-4610000D01*
X-32901737Y-4610079D01*
X-32901261Y-4610096D01*
X-32900541Y-4610096D01*
X-32900065Y-4610079D01*
X-32895641Y-4610000D01*
X-32800896Y-4610000D01*
X-32800067Y-4609929D01*
X-32800056Y-4609928D01*
X-32765002Y-4603903D01*
X-32762798Y-4603242D01*
X-32736002Y-4598326D01*
X-32615184Y-4589687D01*
X-32614504Y-4589589D01*
X-32614481Y-4589585D01*
X-32334934Y-4528773D01*
X-32334267Y-4528577D01*
X-32334242Y-4528569D01*
X-32066203Y-4428596D01*
X-32065544Y-4428294D01*
X-31814472Y-4291198D01*
X-31814470Y-4291197D01*
X-31813854Y-4290802D01*
X-31813852Y-4290800D01*
X-31584826Y-4119353D01*
X-31584304Y-4118901D01*
X-31584292Y-4118891D01*
X-31382010Y-3916609D01*
X-31382000Y-3916597D01*
X-31381548Y-3916075D01*
X-31210101Y-3687049D01*
X-31210099Y-3687047D01*
X-31209704Y-3686431D01*
X-31209703Y-3686429D01*
X-31072607Y-3435357D01*
X-31072305Y-3434698D01*
X-30972332Y-3166659D01*
X-30972324Y-3166634D01*
X-30972128Y-3165967D01*
X-30911316Y-2886420D01*
X-30911312Y-2886397D01*
X-30911215Y-2885719D01*
X-30890806Y-2600359D01*
X-30890805Y-2600357D01*
X-30890805Y-2599643D01*
X-30890806Y-2599640D01*
X-30911215Y-2314280D01*
X-30911312Y-2313602D01*
X-30911316Y-2313579D01*
X-30972128Y-2034032D01*
X-30972324Y-2033365D01*
X-30972332Y-2033340D01*
X-31072305Y-1765301D01*
X-31072607Y-1764642D01*
X-31209703Y-1513570D01*
X-31209704Y-1513568D01*
X-31210099Y-1512952D01*
X-31210101Y-1512950D01*
X-31381549Y-1283924D01*
X-31381548Y-1283924D01*
X-31382000Y-1283402D01*
X-31382010Y-1283391D01*
X-31584292Y-1081109D01*
X-31584304Y-1081098D01*
X-31584826Y-1080646D01*
X-31813852Y-909199D01*
X-31813854Y-909197D01*
X-31814470Y-908802D01*
X-31816354Y-907685D01*
X-31816057Y-907183D01*
X-31863092Y-860166D01*
X-30795786Y-860166D01*
X-30795786Y-860167D01*
X-30776866Y-1003875D01*
X-30776865Y-1003879D01*
X-30721399Y-1137789D01*
X-30721398Y-1137791D01*
X-30721397Y-1137792D01*
X-30633157Y-1252788D01*
X-30518161Y-1341028D01*
X-30384245Y-1396497D01*
X-30257256Y-1413215D01*
X-30240537Y-1415417D01*
X-30240536Y-1415417D01*
X-30240535Y-1415417D01*
X-30225559Y-1413445D01*
X-30096827Y-1396497D01*
X-29962911Y-1341028D01*
X-29847915Y-1252788D01*
X-29759675Y-1137792D01*
X-29712228Y-1023242D01*
X-29174705Y-1023242D01*
X-29167087Y-1081109D01*
X-29155785Y-1166950D01*
X-29155784Y-1166954D01*
X-29100318Y-1300864D01*
X-29100317Y-1300866D01*
X-29100316Y-1300867D01*
X-29012076Y-1415863D01*
X-28897080Y-1504103D01*
X-28897079Y-1504103D01*
X-28897078Y-1504104D01*
X-28852442Y-1522592D01*
X-28763164Y-1559572D01*
X-28636175Y-1576290D01*
X-28619456Y-1578492D01*
X-28619455Y-1578492D01*
X-28619454Y-1578492D01*
X-28604478Y-1576520D01*
X-28475746Y-1559572D01*
X-28341830Y-1504103D01*
X-28226834Y-1415863D01*
X-28138594Y-1300867D01*
X-28083125Y-1166951D01*
X-28064205Y-1023242D01*
X-28078217Y-916814D01*
X-28067452Y-847782D01*
X-28021072Y-795526D01*
X-27971468Y-777693D01*
X-27856291Y-762530D01*
X-27722375Y-707061D01*
X-27607379Y-618821D01*
X-27519139Y-503825D01*
X-27463670Y-369909D01*
X-27444750Y-226200D01*
X-27463670Y-82491D01*
X-27519139Y51425D01*
X-27607379Y166421D01*
X-27722375Y254661D01*
X-27722376Y254662D01*
X-27722378Y254663D01*
X-27856288Y310129D01*
X-27856290Y310130D01*
X-27856291Y310130D01*
X-27928146Y319590D01*
X-27999999Y329050D01*
X-28000001Y329050D01*
X-28143709Y310130D01*
X-28143713Y310129D01*
X-28277623Y254663D01*
X-28392621Y166421D01*
X-28480863Y51423D01*
X-28536329Y-82487D01*
X-28536330Y-82491D01*
X-28555250Y-226199D01*
X-28555250Y-226200D01*
X-28541239Y-332623D01*
X-28552004Y-401659D01*
X-28598384Y-453915D01*
X-28647991Y-471748D01*
X-28763164Y-486912D01*
X-28763168Y-486913D01*
X-28897078Y-542379D01*
X-29012076Y-630621D01*
X-29100318Y-745619D01*
X-29155784Y-879529D01*
X-29155785Y-879533D01*
X-29174705Y-1023242D01*
X-29712228Y-1023242D01*
X-29704206Y-1003876D01*
X-29685286Y-860167D01*
X-29704206Y-716458D01*
X-29759675Y-582542D01*
X-29847915Y-467546D01*
X-29962911Y-379306D01*
X-29962912Y-379305D01*
X-29962914Y-379304D01*
X-30096824Y-323838D01*
X-30096826Y-323837D01*
X-30096827Y-323837D01*
X-30168682Y-314377D01*
X-30240535Y-304917D01*
X-30240537Y-304917D01*
X-30384245Y-323837D01*
X-30384249Y-323838D01*
X-30518159Y-379304D01*
X-30633157Y-467546D01*
X-30721399Y-582544D01*
X-30776865Y-716454D01*
X-30776866Y-716458D01*
X-30795786Y-860166D01*
X-31863092Y-860166D01*
X-31863810Y-859448D01*
X-31878675Y-791178D01*
X-31854270Y-725709D01*
X-31816144Y-692670D01*
X-31816354Y-692315D01*
X-31814470Y-691197D01*
X-31813854Y-690802D01*
X-31813852Y-690800D01*
X-31584826Y-519353D01*
X-31584304Y-518901D01*
X-31584292Y-518891D01*
X-31382010Y-316609D01*
X-31382000Y-316597D01*
X-31381548Y-316075D01*
X-31210101Y-87049D01*
X-31210099Y-87047D01*
X-31209704Y-86431D01*
X-31209703Y-86429D01*
X-31072607Y164643D01*
X-31072305Y165302D01*
X-30972332Y433341D01*
X-30972324Y433366D01*
X-30972128Y434033D01*
X-30911316Y713580D01*
X-30911312Y713603D01*
X-30911215Y714281D01*
X-30890806Y999641D01*
X-30890805Y999643D01*
X-30890805Y1000357D01*
X-30890806Y1000360D01*
X-30911215Y1285720D01*
X-30911312Y1286398D01*
X-30911316Y1286421D01*
X-30968655Y1550001D01*
X-28805250Y1550001D01*
X-28805250Y1550000D01*
X-28786330Y1406292D01*
X-28786329Y1406288D01*
X-28730863Y1272378D01*
X-28730862Y1272376D01*
X-28730861Y1272375D01*
X-28642621Y1157379D01*
X-28527625Y1069139D01*
X-28393709Y1013670D01*
X-28266720Y996952D01*
X-28250001Y994750D01*
X-28250000Y994750D01*
X-28249999Y994750D01*
X-28235023Y996722D01*
X-28106291Y1013670D01*
X-27972375Y1069139D01*
X-27857379Y1157379D01*
X-27769139Y1272375D01*
X-27713670Y1406291D01*
X-27694750Y1550000D01*
X-27713670Y1693709D01*
X-27769139Y1827625D01*
X-27857379Y1942621D01*
X-27972375Y2030861D01*
X-27972376Y2030862D01*
X-27972378Y2030863D01*
X-28106288Y2086329D01*
X-28106290Y2086330D01*
X-28106291Y2086330D01*
X-28178146Y2095790D01*
X-28249999Y2105250D01*
X-28250001Y2105250D01*
X-28393709Y2086330D01*
X-28393713Y2086329D01*
X-28527623Y2030863D01*
X-28642621Y1942621D01*
X-28730863Y1827623D01*
X-28786329Y1693713D01*
X-28786330Y1693709D01*
X-28805250Y1550001D01*
X-30968655Y1550001D01*
X-30972128Y1565968D01*
X-30972324Y1566635D01*
X-30972332Y1566660D01*
X-31072305Y1834699D01*
X-31072607Y1835358D01*
X-31209703Y2086430D01*
X-31209704Y2086432D01*
X-31210099Y2087048D01*
X-31210101Y2087050D01*
X-31381549Y2316076D01*
X-31381548Y2316076D01*
X-31382000Y2316598D01*
X-31382010Y2316609D01*
X-31584292Y2518891D01*
X-31584304Y2518902D01*
X-31584826Y2519354D01*
X-31813852Y2690801D01*
X-31813854Y2690803D01*
X-31814470Y2691198D01*
X-31814472Y2691199D01*
X-32065544Y2828295D01*
X-32066203Y2828597D01*
X-32334242Y2928570D01*
X-32334267Y2928578D01*
X-32334934Y2928774D01*
X-32614481Y2989586D01*
X-32614504Y2989590D01*
X-32615182Y2989687D01*
X-32900542Y3010096D01*
X-32901261Y3010096D01*
X-32901737Y3010079D01*
X-32906161Y3010000D01*
X-34434767Y3010000D01*
X-34501806Y3029685D01*
X-34547561Y3082489D01*
X-34557505Y3151647D01*
X-34555951Y3160277D01*
X-34291143Y4381509D01*
X-34250800Y4567561D01*
X-34247546Y4579604D01*
X-34182134Y4780772D01*
X-34142684Y4838439D01*
X-34078319Y4865623D01*
X-34058589Y4866300D01*
X-26118368Y4505381D01*
G37*
%TD.AperFunction*%
%TD*%
%TA.AperFunction,Conductor*%
%TO.N,GND*%
G36*
X-13844931Y17594973D02*
G01*
X-13843035Y17594952D01*
X-13323122Y17585129D01*
X-13319436Y17585003D01*
X-12926310Y17565487D01*
X-12919346Y17564941D01*
X-12638630Y17534860D01*
X-12625205Y17532670D01*
X-12444670Y17492944D01*
X-12419291Y17484398D01*
X-12326990Y17441731D01*
X-12288439Y17413856D01*
X-12254465Y17377513D01*
X-12226954Y17330642D01*
X-12217634Y17301529D01*
X-12210907Y17280516D01*
X-12205189Y17249487D01*
X-12200348Y17161017D01*
X-12200306Y17148294D01*
X-12202505Y17102507D01*
X-12203252Y17093621D01*
X-12211988Y17021124D01*
X-12218269Y16952507D01*
X-12218269Y16952504D01*
X-12211198Y16891726D01*
X-12211197Y16891722D01*
X-12180402Y16838299D01*
X-12180401Y16838298D01*
X-12115512Y16791764D01*
X-12006160Y16751648D01*
X-11841977Y16717479D01*
X-11612594Y16688787D01*
X-11307641Y16665099D01*
X-11307638Y16665099D01*
X-11307614Y16665097D01*
X-10916798Y16645946D01*
X-10916776Y16645946D01*
X-10916749Y16645944D01*
X-10429550Y16630850D01*
X-9835674Y16619347D01*
X-9835597Y16619347D01*
X-9835592Y16619346D01*
X-9770644Y16618581D01*
X-9124751Y16610963D01*
X-8286414Y16605226D01*
X-7598747Y16602718D01*
X-7310417Y16601665D01*
X-7310416Y16601665D01*
X-6599016Y16600491D01*
X-6186017Y16599809D01*
X-4903219Y16599185D01*
X-3451530Y16599324D01*
X-1820580Y16599753D01*
X-1Y16600000D01*
X210935Y16600002D01*
X2006047Y16600223D01*
X3612670Y16600904D01*
X5041164Y16602180D01*
X6301893Y16604187D01*
X7405217Y16607059D01*
X8361498Y16610932D01*
X9181100Y16615940D01*
X9572546Y16619486D01*
X9874408Y16622219D01*
X10131538Y16625642D01*
X10451709Y16629903D01*
X10923440Y16639128D01*
X11299938Y16650028D01*
X11493429Y16658462D01*
X11591567Y16662739D01*
X11700124Y16670068D01*
X11808683Y16677396D01*
X11961654Y16694133D01*
X12060839Y16713086D01*
X12116601Y16734390D01*
X12139301Y16758179D01*
X12167849Y16854990D01*
X12198010Y17090353D01*
X12205781Y17120409D01*
X12260778Y17258655D01*
X12289356Y17301526D01*
X12441577Y17450175D01*
X12465639Y17468513D01*
X12487151Y17481084D01*
X12504300Y17489408D01*
X12573053Y17516466D01*
X12592423Y17522314D01*
X12701057Y17545639D01*
X12713737Y17547680D01*
X12884357Y17566154D01*
X12891587Y17566724D01*
X13140385Y17578971D01*
X13144367Y17579101D01*
X13487445Y17584760D01*
X13489692Y17584776D01*
X13944193Y17583895D01*
X13945166Y17583888D01*
X14528364Y17576637D01*
X14528642Y17576632D01*
X15258285Y17563217D01*
X16151930Y17543862D01*
X16151928Y17543816D01*
X16152131Y17543858D01*
X17227262Y17518793D01*
X17227478Y17518724D01*
X17227480Y17518787D01*
X18334765Y17491003D01*
X19349644Y17461748D01*
X19350238Y17461728D01*
X20194544Y17432443D01*
X20195562Y17432403D01*
X20885535Y17402289D01*
X20887167Y17402207D01*
X21437891Y17370522D01*
X21440512Y17370343D01*
X21867172Y17336388D01*
X21871605Y17335955D01*
X21902507Y17332375D01*
X22188843Y17299194D01*
X22196353Y17298089D01*
X22421038Y17257921D01*
X22428001Y17256467D01*
X22533700Y17231192D01*
X22539751Y17229582D01*
X23211061Y17032416D01*
X23217772Y17030235D01*
X24038187Y16737611D01*
X24042609Y16735937D01*
X24994110Y16354416D01*
X24997484Y16353005D01*
X25709341Y16042829D01*
X26060417Y15889856D01*
X26062872Y15888755D01*
X26415507Y15725892D01*
X26420413Y15723493D01*
X26589029Y15636330D01*
X26838146Y15507554D01*
X26851504Y15499548D01*
X27115948Y15317553D01*
X27139754Y15296153D01*
X27184750Y15243713D01*
X27283265Y15128896D01*
X27305778Y15090289D01*
X27373350Y14903283D01*
X27380382Y14870425D01*
X27399726Y14612691D01*
X27400058Y14605398D01*
X27400321Y14588969D01*
X27400321Y14588965D01*
X27400322Y14588963D01*
X27434596Y14431390D01*
X27524821Y14300001D01*
X27546606Y14268278D01*
X27546608Y14268276D01*
X27766540Y14065454D01*
X27766541Y14065453D01*
X28122736Y13790171D01*
X28126360Y13787260D01*
X28573412Y13414056D01*
X28612260Y13355985D01*
X28613544Y13286127D01*
X28576857Y13226664D01*
X28573651Y13223879D01*
X27476842Y12303546D01*
X27469864Y12298103D01*
X27419947Y12261957D01*
X27402940Y12247687D01*
X27402935Y12247682D01*
X27197468Y12048633D01*
X27197463Y12048628D01*
X27182686Y12032111D01*
X27182677Y12032101D01*
X27182673Y12032095D01*
X27055899Y11868230D01*
X27007616Y11805820D01*
X26995328Y11787350D01*
X26995327Y11787349D01*
X26854258Y11538473D01*
X26844723Y11518441D01*
X26844719Y11518432D01*
X26800852Y11406288D01*
X26740503Y11252008D01*
X26740500Y11251999D01*
X26733914Y11230819D01*
X26668675Y10952273D01*
X26665169Y10930359D01*
X26640235Y10645366D01*
X26639883Y10623192D01*
X26648105Y10475292D01*
X26654621Y10358057D01*
X26655762Y10337541D01*
X26655763Y10337529D01*
X26658568Y10315540D01*
X26714593Y10036776D01*
X26714940Y10035052D01*
X26714942Y10035046D01*
X26720847Y10013682D01*
X26720852Y10013668D01*
X26816563Y9744067D01*
X26825459Y9723741D01*
X26825463Y9723733D01*
X26958567Y9470501D01*
X26958570Y9470496D01*
X26970249Y9451673D01*
X26970259Y9451658D01*
X27138046Y9219945D01*
X27152313Y9202941D01*
X27152318Y9202936D01*
X27351367Y8997469D01*
X27351370Y8997466D01*
X27367905Y8982673D01*
X27594179Y8807617D01*
X27612651Y8795328D01*
X27861527Y8654259D01*
X27861532Y8654257D01*
X27861535Y8654255D01*
X27881568Y8644719D01*
X28147996Y8540502D01*
X28169182Y8533914D01*
X28447730Y8468675D01*
X28469637Y8465170D01*
X28754634Y8440236D01*
X28754629Y8440236D01*
X28776808Y8439884D01*
X28776809Y8439885D01*
X28776817Y8439884D01*
X29062461Y8455762D01*
X29084470Y8458570D01*
X29364948Y8514940D01*
X29386332Y8520852D01*
X29655933Y8616563D01*
X29676259Y8625459D01*
X29929493Y8758564D01*
X29948345Y8770261D01*
X30180060Y8938050D01*
X30197056Y8952311D01*
X30241348Y8995222D01*
X30247891Y9001122D01*
X31517502Y10066452D01*
X31581507Y10094463D01*
X31650500Y10083424D01*
X31702571Y10036837D01*
X31702609Y10036776D01*
X32447843Y8834129D01*
X32466422Y8766775D01*
X32445638Y8700068D01*
X32392088Y8655188D01*
X32384850Y8652292D01*
X31749101Y8420898D01*
X30739279Y8053354D01*
X30730865Y8050627D01*
X30671603Y8033735D01*
X30671593Y8033732D01*
X30671588Y8033730D01*
X30650739Y8026142D01*
X30430404Y7927623D01*
X30389570Y7909365D01*
X30370021Y7898892D01*
X30128132Y7746137D01*
X30128116Y7746126D01*
X30110267Y7732985D01*
X29892574Y7547355D01*
X29892569Y7547351D01*
X29876766Y7531795D01*
X29876760Y7531789D01*
X29780422Y7422375D01*
X29687702Y7317071D01*
X29674271Y7299425D01*
X29517697Y7059990D01*
X29506902Y7040588D01*
X29386008Y6781331D01*
X29386002Y6781316D01*
X29378086Y6760596D01*
X29378075Y6760565D01*
X29295312Y6486757D01*
X29295305Y6486728D01*
X29290419Y6465097D01*
X29290417Y6465086D01*
X29247460Y6182250D01*
X29247458Y6182229D01*
X29245703Y6160143D01*
X29245702Y6160119D01*
X29243432Y5874063D01*
X29243432Y5874059D01*
X29244839Y5851930D01*
X29244840Y5851912D01*
X29283306Y5568430D01*
X29283309Y5568414D01*
X29287427Y5548737D01*
X29287850Y5546715D01*
X29316062Y5447738D01*
X29366269Y5271589D01*
X29366271Y5271583D01*
X29373854Y5250748D01*
X29373857Y5250740D01*
X29373858Y5250739D01*
X29490634Y4989572D01*
X29490635Y4989571D01*
X29501108Y4970022D01*
X29541276Y4906416D01*
X29653867Y4728126D01*
X29667022Y4710259D01*
X29852648Y4492571D01*
X29868211Y4476760D01*
X30082927Y4287704D01*
X30100582Y4274267D01*
X30223924Y4193610D01*
X30334691Y4121176D01*
X30340018Y4117693D01*
X30359406Y4106906D01*
X30359409Y4106905D01*
X30359412Y4106903D01*
X30618669Y3986009D01*
X30618674Y3986007D01*
X30618687Y3986001D01*
X30639412Y3978083D01*
X30639434Y3978077D01*
X30639435Y3978076D01*
X30913243Y3895313D01*
X30913250Y3895312D01*
X30913261Y3895308D01*
X30934903Y3890420D01*
X30934914Y3890418D01*
X31020459Y3877426D01*
X31217745Y3847461D01*
X31239861Y3845703D01*
X31512315Y3843542D01*
X31525937Y3843433D01*
X31525938Y3843433D01*
X31525941Y3843433D01*
X31531047Y3843758D01*
X31548080Y3844840D01*
X31548086Y3844841D01*
X31548088Y3844841D01*
X31577861Y3848881D01*
X31831568Y3883306D01*
X31853285Y3887850D01*
X32128413Y3966270D01*
X32149262Y3973859D01*
X32205525Y3999017D01*
X32213711Y4002334D01*
X34030592Y4663624D01*
X34100316Y4668054D01*
X34161372Y4634084D01*
X34192648Y4579655D01*
X34435990Y3685278D01*
X34438494Y3674041D01*
X34475339Y3462909D01*
X34467472Y3393484D01*
X34423320Y3339332D01*
X34363992Y3318064D01*
X32493236Y3154393D01*
X32484397Y3153937D01*
X32422783Y3152960D01*
X32400680Y3151027D01*
X32400671Y3151026D01*
X32118214Y3105831D01*
X32118182Y3105824D01*
X32096575Y3100763D01*
X32096573Y3100762D01*
X31823413Y3015825D01*
X31823386Y3015816D01*
X31802748Y3007744D01*
X31544426Y2884783D01*
X31535739Y2879859D01*
X31525119Y2873839D01*
X31525112Y2873835D01*
X31525104Y2873830D01*
X31286932Y2715372D01*
X31269389Y2701800D01*
X31269386Y2701798D01*
X31056178Y2511044D01*
X31056155Y2511022D01*
X31040746Y2495116D01*
X30856839Y2275944D01*
X30855820Y2274536D01*
X30843833Y2257982D01*
X30843829Y2257978D01*
X30843827Y2257973D01*
X30693000Y2014888D01*
X30692985Y2014861D01*
X30682687Y1995269D01*
X30567979Y1733166D01*
X30560552Y1712246D01*
X30484323Y1436524D01*
X30484318Y1436501D01*
X30479950Y1414768D01*
X30479947Y1414750D01*
X30443733Y1130990D01*
X30442501Y1108816D01*
X30447040Y822784D01*
X30448973Y800681D01*
X30448974Y800672D01*
X30494169Y518215D01*
X30494175Y518186D01*
X30494176Y518182D01*
X30499236Y496580D01*
X30505130Y477625D01*
X30584175Y223414D01*
X30584184Y223387D01*
X30592256Y202749D01*
X30715217Y-55573D01*
X30715221Y-55580D01*
X30726161Y-74881D01*
X30726168Y-74892D01*
X30726170Y-74895D01*
X30884628Y-313067D01*
X30898200Y-330610D01*
X30898202Y-330613D01*
X30971308Y-412324D01*
X31088960Y-543826D01*
X31088970Y-543836D01*
X31088978Y-543844D01*
X31104884Y-559253D01*
X31104889Y-559257D01*
X31104895Y-559263D01*
X31324049Y-743155D01*
X31342018Y-756167D01*
X31481355Y-842621D01*
X31585112Y-906999D01*
X31585139Y-907014D01*
X31604731Y-917312D01*
X31604742Y-917317D01*
X31604752Y-917322D01*
X31866838Y-1032022D01*
X31887745Y-1039444D01*
X31887747Y-1039444D01*
X31887754Y-1039447D01*
X32132847Y-1107208D01*
X32163487Y-1115679D01*
X32185239Y-1120051D01*
X32307769Y-1135688D01*
X32469010Y-1156266D01*
X32469017Y-1156266D01*
X32469022Y-1156267D01*
X32491174Y-1157498D01*
X32491181Y-1157497D01*
X32491184Y-1157498D01*
X32751219Y-1153371D01*
X32777224Y-1152959D01*
X32799325Y-1151026D01*
X32860192Y-1141286D01*
X32868967Y-1140201D01*
X34740965Y-976422D01*
X34809461Y-990189D01*
X34859644Y-1038804D01*
X34875758Y-1101559D01*
X34867801Y-1714680D01*
X34867097Y-1726361D01*
X34801424Y-2335586D01*
X34774668Y-2400129D01*
X34717264Y-2439961D01*
X34656606Y-2444412D01*
X32661495Y-2092621D01*
X32654472Y-2091382D01*
X32645825Y-2089537D01*
X32622335Y-2083641D01*
X32586045Y-2074532D01*
X32575945Y-2072751D01*
X32564193Y-2070679D01*
X32564187Y-2070678D01*
X32564185Y-2070678D01*
X32564180Y-2070677D01*
X32279641Y-2041227D01*
X32279630Y-2041226D01*
X32279627Y-2041226D01*
X32279622Y-2041225D01*
X32279609Y-2041225D01*
X32257470Y-2040521D01*
X32257443Y-2040522D01*
X31971625Y-2051865D01*
X31971577Y-2051869D01*
X31949561Y-2054324D01*
X31949554Y-2054325D01*
X31949544Y-2054326D01*
X31949542Y-2054327D01*
X31840041Y-2074532D01*
X31668188Y-2106242D01*
X31646741Y-2111807D01*
X31646718Y-2111814D01*
X31375657Y-2203227D01*
X31375655Y-2203227D01*
X31355180Y-2211803D01*
X31099865Y-2340874D01*
X31099855Y-2340880D01*
X31080831Y-2352270D01*
X30846479Y-2516365D01*
X30846476Y-2516367D01*
X30829260Y-2530354D01*
X30620650Y-2726128D01*
X30605603Y-2742419D01*
X30605599Y-2742423D01*
X30426981Y-2965884D01*
X30426965Y-2965906D01*
X30414398Y-2984158D01*
X30269385Y-3230789D01*
X30269384Y-3230792D01*
X30259540Y-3250655D01*
X30259538Y-3250659D01*
X30151114Y-3515380D01*
X30151102Y-3515413D01*
X30144184Y-3536476D01*
X30074535Y-3813943D01*
X30070678Y-3835814D01*
X30041227Y-4120358D01*
X30041225Y-4120390D01*
X30040521Y-4142529D01*
X30040522Y-4142556D01*
X30051865Y-4428374D01*
X30051869Y-4428422D01*
X30054324Y-4450438D01*
X30054325Y-4450445D01*
X30054326Y-4450452D01*
X30054327Y-4450458D01*
X30098342Y-4688997D01*
X30106242Y-4731811D01*
X30111807Y-4753258D01*
X30111814Y-4753281D01*
X30203227Y-5024342D01*
X30203227Y-5024344D01*
X30211803Y-5044819D01*
X30340874Y-5300134D01*
X30340880Y-5300144D01*
X30352270Y-5319168D01*
X30516365Y-5553520D01*
X30516367Y-5553523D01*
X30530354Y-5570739D01*
X30672272Y-5721962D01*
X30726126Y-5779347D01*
X30742424Y-5794401D01*
X30965894Y-5973026D01*
X30965906Y-5973034D01*
X30984158Y-5985601D01*
X30984166Y-5985606D01*
X30984168Y-5985607D01*
X31230783Y-6130611D01*
X31250662Y-6140463D01*
X31515402Y-6248894D01*
X31536481Y-6255817D01*
X31813958Y-6325468D01*
X31835807Y-6329321D01*
X31897115Y-6335666D01*
X31905876Y-6336890D01*
X33743993Y-6661000D01*
X33806594Y-6692026D01*
X33842485Y-6751973D01*
X33840268Y-6821807D01*
X33840164Y-6822120D01*
X33610756Y-7514397D01*
X33606195Y-7526131D01*
X33323461Y-8156606D01*
X33278068Y-8209722D01*
X33211165Y-8229864D01*
X33148317Y-8213254D01*
X31348259Y-7173990D01*
X31340766Y-7169300D01*
X31289713Y-7134747D01*
X31270500Y-7123655D01*
X31255759Y-7116494D01*
X31013161Y-6998647D01*
X30992579Y-6990407D01*
X30992563Y-6990401D01*
X30720071Y-6903295D01*
X30720055Y-6903291D01*
X30698523Y-6898068D01*
X30698491Y-6898061D01*
X30416397Y-6850626D01*
X30416392Y-6850625D01*
X30416384Y-6850624D01*
X30416368Y-6850622D01*
X30416356Y-6850621D01*
X30394310Y-6848515D01*
X30108290Y-6841705D01*
X30086146Y-6842760D01*
X30086117Y-6842763D01*
X29802067Y-6876726D01*
X29780285Y-6880924D01*
X29780275Y-6880927D01*
X29503944Y-6954970D01*
X29482978Y-6962226D01*
X29482970Y-6962229D01*
X29220007Y-7074836D01*
X29220002Y-7074838D01*
X29200268Y-7085012D01*
X28955996Y-7233904D01*
X28955996Y-7233905D01*
X28937918Y-7246778D01*
X28937911Y-7246783D01*
X28717323Y-7428915D01*
X28717312Y-7428925D01*
X28701250Y-7444240D01*
X28508824Y-7655915D01*
X28508813Y-7655929D01*
X28495102Y-7673362D01*
X28334745Y-7910290D01*
X28323654Y-7929501D01*
X28323647Y-7929515D01*
X28198656Y-8186818D01*
X28198648Y-8186835D01*
X28190407Y-8207420D01*
X28190401Y-8207436D01*
X28103295Y-8479928D01*
X28103291Y-8479944D01*
X28098068Y-8501476D01*
X28098061Y-8501508D01*
X28050626Y-8783602D01*
X28050621Y-8783643D01*
X28048515Y-8805687D01*
X28048515Y-8805690D01*
X28041705Y-9091709D01*
X28042760Y-9113853D01*
X28042763Y-9113882D01*
X28076726Y-9397932D01*
X28080924Y-9419714D01*
X28080927Y-9419724D01*
X28154970Y-9696055D01*
X28162226Y-9717021D01*
X28162229Y-9717029D01*
X28274836Y-9979992D01*
X28274838Y-9979997D01*
X28285012Y-9999731D01*
X28338002Y-10086666D01*
X28433909Y-10244010D01*
X28446778Y-10262082D01*
X28446783Y-10262088D01*
X28555422Y-10393666D01*
X28628926Y-10482689D01*
X28644236Y-10498746D01*
X28855925Y-10691184D01*
X28873365Y-10704899D01*
X29110286Y-10865252D01*
X29129500Y-10876345D01*
X29184960Y-10903285D01*
X29192738Y-10907413D01*
X30890871Y-11887831D01*
X30939085Y-11938396D01*
X30952308Y-12007003D01*
X30926340Y-12071868D01*
X30920465Y-12078800D01*
X29866023Y-13234312D01*
X29806293Y-13270563D01*
X29736447Y-13268768D01*
X29686746Y-13238409D01*
X28181744Y-11733407D01*
X28175712Y-11726929D01*
X28135345Y-11680343D01*
X28119657Y-11664655D01*
X27903448Y-11477308D01*
X27903443Y-11477304D01*
X27903437Y-11477299D01*
X27885697Y-11464019D01*
X27885680Y-11464007D01*
X27756964Y-11381287D01*
X27645017Y-11309343D01*
X27645010Y-11309339D01*
X27625547Y-11298711D01*
X27365309Y-11179865D01*
X27365302Y-11179862D01*
X27358849Y-11177456D01*
X27344527Y-11172114D01*
X27344505Y-11172107D01*
X27070027Y-11091513D01*
X27070017Y-11091510D01*
X27048352Y-11086797D01*
X26805626Y-11051899D01*
X26765173Y-11046083D01*
X26765175Y-11046083D01*
X26743043Y-11044500D01*
X26456957Y-11044500D01*
X26434825Y-11046083D01*
X26151647Y-11086797D01*
X26129982Y-11091510D01*
X26129972Y-11091513D01*
X25855494Y-11172107D01*
X25855472Y-11172114D01*
X25834702Y-11179861D01*
X25834690Y-11179865D01*
X25574452Y-11298711D01*
X25554989Y-11309339D01*
X25314319Y-11464007D01*
X25314302Y-11464019D01*
X25296562Y-11477299D01*
X25080353Y-11664646D01*
X25080328Y-11664669D01*
X25064669Y-11680328D01*
X25064646Y-11680353D01*
X24877299Y-11896562D01*
X24864019Y-11914302D01*
X24864007Y-11914319D01*
X24709339Y-12154989D01*
X24698711Y-12174452D01*
X24579865Y-12434690D01*
X24579861Y-12434702D01*
X24572114Y-12455472D01*
X24572107Y-12455494D01*
X24491513Y-12729972D01*
X24491510Y-12729982D01*
X24486797Y-12751647D01*
X24446084Y-13034820D01*
X24444500Y-13056957D01*
X24444500Y-13343042D01*
X24446083Y-13365174D01*
X24486797Y-13648352D01*
X24491510Y-13670014D01*
X24491513Y-13670027D01*
X24572107Y-13944505D01*
X24572113Y-13944523D01*
X24579641Y-13964709D01*
X24579861Y-13965297D01*
X24579865Y-13965309D01*
X24698711Y-14225547D01*
X24705945Y-14238794D01*
X24709343Y-14245017D01*
X24745875Y-14301862D01*
X24864007Y-14485680D01*
X24864019Y-14485697D01*
X24877299Y-14503437D01*
X24877304Y-14503443D01*
X24877308Y-14503448D01*
X25064655Y-14719657D01*
X25080343Y-14735345D01*
X25126929Y-14775712D01*
X25133407Y-14781744D01*
X26209803Y-15858140D01*
X26243288Y-15919463D01*
X26238304Y-15989155D01*
X26196432Y-16045088D01*
X26174641Y-16058150D01*
X24922086Y-16643779D01*
X24908556Y-16649161D01*
X23469502Y-17125813D01*
X23456556Y-17129336D01*
X21904404Y-17462756D01*
X21897952Y-17463964D01*
X21889695Y-17465285D01*
X21864274Y-17469352D01*
X21857950Y-17470197D01*
X21196335Y-17541360D01*
X21188370Y-17541958D01*
X20405503Y-17575424D01*
X20399775Y-17575536D01*
X19558296Y-17572605D01*
X19553098Y-17572478D01*
X18718167Y-17534530D01*
X18712259Y-17534120D01*
X17949177Y-17462807D01*
X17940658Y-17461712D01*
X17312162Y-17358697D01*
X17304864Y-17357275D01*
X17113654Y-17314027D01*
X17105792Y-17311976D01*
X15497570Y-16835614D01*
X15483784Y-16830627D01*
X13955182Y-16173023D01*
X13942078Y-16166441D01*
X12520351Y-15343708D01*
X12496423Y-15329861D01*
X12484355Y-15321904D01*
X11579481Y-14646400D01*
X16844750Y-14646400D01*
X16863670Y-14790109D01*
X16863670Y-14790110D01*
X16863671Y-14790112D01*
X16919137Y-14924022D01*
X16919138Y-14924024D01*
X16919139Y-14924025D01*
X17007379Y-15039021D01*
X17122375Y-15127261D01*
X17122376Y-15127261D01*
X17122377Y-15127262D01*
X17144265Y-15136328D01*
X17256291Y-15182730D01*
X17383280Y-15199448D01*
X17399999Y-15201650D01*
X17400000Y-15201650D01*
X17400001Y-15201650D01*
X17414977Y-15199678D01*
X17543709Y-15182730D01*
X17677625Y-15127261D01*
X17792621Y-15039021D01*
X17880861Y-14924025D01*
X17880863Y-14924019D01*
X17884925Y-14916986D01*
X17886430Y-14917855D01*
X17924056Y-14871147D01*
X17990347Y-14849071D01*
X18058049Y-14866338D01*
X18105668Y-14917467D01*
X18108421Y-14923493D01*
X18108726Y-14924021D01*
X18108727Y-14924022D01*
X18108729Y-14924026D01*
X18196969Y-15039022D01*
X18311965Y-15127262D01*
X18311966Y-15127262D01*
X18311967Y-15127263D01*
X18333855Y-15136329D01*
X18445881Y-15182731D01*
X18572870Y-15199449D01*
X18589589Y-15201651D01*
X18589590Y-15201651D01*
X18589591Y-15201651D01*
X18604567Y-15199679D01*
X18733299Y-15182731D01*
X18867215Y-15127262D01*
X18982211Y-15039022D01*
X19070451Y-14924026D01*
X19070453Y-14924020D01*
X19074515Y-14916987D01*
X19076325Y-14918032D01*
X19113180Y-14872292D01*
X19179472Y-14850222D01*
X19231356Y-14859581D01*
X19356291Y-14911330D01*
X19483280Y-14928048D01*
X19499999Y-14930250D01*
X19500000Y-14930250D01*
X19500001Y-14930250D01*
X19514977Y-14928278D01*
X19643709Y-14911330D01*
X19777625Y-14855861D01*
X19892621Y-14767621D01*
X19980861Y-14652625D01*
X20036330Y-14518709D01*
X20055250Y-14375000D01*
X20054430Y-14368775D01*
X20052923Y-14357328D01*
X20036330Y-14231291D01*
X19980861Y-14097375D01*
X19965060Y-14076783D01*
X19939866Y-14011618D01*
X19953903Y-13943173D01*
X20002716Y-13893182D01*
X20070807Y-13877517D01*
X20110886Y-13886735D01*
X20151929Y-13903736D01*
X20278918Y-13920454D01*
X20295637Y-13922656D01*
X20295638Y-13922656D01*
X20295639Y-13922656D01*
X20310615Y-13920684D01*
X20439347Y-13903736D01*
X20573263Y-13848267D01*
X20688259Y-13760027D01*
X20776499Y-13645031D01*
X20831968Y-13511115D01*
X20850888Y-13367406D01*
X20849656Y-13358052D01*
X20845566Y-13326982D01*
X20831968Y-13223697D01*
X20794548Y-13133355D01*
X20787079Y-13063886D01*
X20818355Y-13001407D01*
X20861655Y-12971342D01*
X20899025Y-12955864D01*
X21014021Y-12867624D01*
X21102261Y-12752628D01*
X21157730Y-12618712D01*
X21176650Y-12475003D01*
X21157730Y-12331294D01*
X21102261Y-12197378D01*
X21014021Y-12082382D01*
X21014018Y-12082380D01*
X21009073Y-12075935D01*
X21011757Y-12073874D01*
X20985807Y-12026223D01*
X20990870Y-11956537D01*
X21010888Y-11925463D01*
X21009073Y-11924070D01*
X21056754Y-11861930D01*
X21102261Y-11802625D01*
X21157730Y-11668709D01*
X21176650Y-11525000D01*
X21175563Y-11516747D01*
X21170370Y-11477299D01*
X21157730Y-11381291D01*
X21102261Y-11247375D01*
X21014021Y-11132379D01*
X20899025Y-11044139D01*
X20899024Y-11044138D01*
X20899022Y-11044137D01*
X20765112Y-10988671D01*
X20765110Y-10988670D01*
X20765109Y-10988670D01*
X20693254Y-10979210D01*
X20621401Y-10969750D01*
X20621399Y-10969750D01*
X20477691Y-10988670D01*
X20477687Y-10988671D01*
X20343777Y-11044137D01*
X20228779Y-11132379D01*
X20140537Y-11247377D01*
X20085071Y-11381287D01*
X20085070Y-11381291D01*
X20067237Y-11516747D01*
X20066150Y-11525000D01*
X20084206Y-11662150D01*
X20085070Y-11668708D01*
X20085071Y-11668712D01*
X20140537Y-11802622D01*
X20140538Y-11802623D01*
X20140539Y-11802625D01*
X20228779Y-11917621D01*
X20228781Y-11917622D01*
X20233727Y-11924068D01*
X20231025Y-11926141D01*
X20256963Y-11973643D01*
X20251979Y-12043335D01*
X20231935Y-12074560D01*
X20233727Y-12075935D01*
X20228781Y-12082380D01*
X20228779Y-12082382D01*
X20173070Y-12154983D01*
X20140537Y-12197380D01*
X20085071Y-12331290D01*
X20085070Y-12331294D01*
X20071458Y-12434689D01*
X20066150Y-12475003D01*
X20085070Y-12618712D01*
X20102089Y-12659799D01*
X20122490Y-12709054D01*
X20129958Y-12778523D01*
X20098682Y-12841002D01*
X20055382Y-12871065D01*
X20018016Y-12886542D01*
X19903017Y-12974785D01*
X19814775Y-13089783D01*
X19759309Y-13223693D01*
X19759308Y-13223697D01*
X19740388Y-13367405D01*
X19740388Y-13367406D01*
X19759308Y-13511114D01*
X19759309Y-13511118D01*
X19814776Y-13645029D01*
X19814777Y-13645032D01*
X19830575Y-13665619D01*
X19855771Y-13730788D01*
X19841734Y-13799233D01*
X19792921Y-13849223D01*
X19724830Y-13864888D01*
X19684751Y-13855669D01*
X19643712Y-13838671D01*
X19643710Y-13838670D01*
X19643709Y-13838670D01*
X19509495Y-13821000D01*
X19500001Y-13819750D01*
X19499999Y-13819750D01*
X19356291Y-13838670D01*
X19356287Y-13838671D01*
X19222377Y-13894137D01*
X19107379Y-13982379D01*
X19019136Y-14097379D01*
X19015075Y-14104414D01*
X19013267Y-14103370D01*
X18976384Y-14149125D01*
X18910086Y-14171179D01*
X18858229Y-14161818D01*
X18733302Y-14110072D01*
X18733300Y-14110071D01*
X18733299Y-14110071D01*
X18646337Y-14098622D01*
X18589591Y-14091151D01*
X18589589Y-14091151D01*
X18445881Y-14110071D01*
X18445877Y-14110072D01*
X18311967Y-14165538D01*
X18233763Y-14225547D01*
X18196969Y-14253780D01*
X18136012Y-14333221D01*
X18108726Y-14368780D01*
X18104665Y-14375815D01*
X18103163Y-14374947D01*
X18065512Y-14421667D01*
X17999217Y-14443730D01*
X17931518Y-14426449D01*
X17883909Y-14375310D01*
X17881169Y-14369309D01*
X17880863Y-14368779D01*
X17880862Y-14368778D01*
X17880861Y-14368775D01*
X17792621Y-14253779D01*
X17677625Y-14165539D01*
X17677624Y-14165538D01*
X17677622Y-14165537D01*
X17543712Y-14110071D01*
X17543710Y-14110070D01*
X17543709Y-14110070D01*
X17456777Y-14098625D01*
X17400001Y-14091150D01*
X17399999Y-14091150D01*
X17256291Y-14110070D01*
X17256287Y-14110071D01*
X17122377Y-14165537D01*
X17007379Y-14253779D01*
X16919137Y-14368777D01*
X16863671Y-14502687D01*
X16863670Y-14502691D01*
X16844750Y-14646400D01*
X11579481Y-14646400D01*
X11125238Y-14307300D01*
X11119698Y-14302912D01*
X10545744Y-13821000D01*
X12619750Y-13821000D01*
X12636012Y-13944523D01*
X12638670Y-13964708D01*
X12638671Y-13964712D01*
X12694137Y-14098622D01*
X12694138Y-14098624D01*
X12694139Y-14098625D01*
X12782379Y-14213621D01*
X12897375Y-14301861D01*
X13031291Y-14357330D01*
X13158280Y-14374048D01*
X13174999Y-14376250D01*
X13175000Y-14376250D01*
X13175001Y-14376250D01*
X13189977Y-14374278D01*
X13318709Y-14357330D01*
X13452625Y-14301861D01*
X13567621Y-14213621D01*
X13655861Y-14098625D01*
X13711330Y-13964709D01*
X13730250Y-13821000D01*
X13730085Y-13819750D01*
X13727075Y-13796887D01*
X13711330Y-13677291D01*
X13673040Y-13584850D01*
X13655862Y-13543377D01*
X13655861Y-13543376D01*
X13655861Y-13543375D01*
X13567621Y-13428379D01*
X13452625Y-13340139D01*
X13452624Y-13340138D01*
X13452622Y-13340137D01*
X13318712Y-13284671D01*
X13318710Y-13284670D01*
X13318709Y-13284670D01*
X13197924Y-13268768D01*
X13175001Y-13265750D01*
X13174999Y-13265750D01*
X13031291Y-13284670D01*
X13031287Y-13284671D01*
X12897377Y-13340137D01*
X12782379Y-13428379D01*
X12694137Y-13543377D01*
X12638671Y-13677287D01*
X12638670Y-13677291D01*
X12619915Y-13819750D01*
X12619750Y-13821000D01*
X10545744Y-13821000D01*
X10401634Y-13700000D01*
X10401633Y-13700000D01*
X-3404095Y-13700000D01*
X-3471134Y-13680315D01*
X-3516889Y-13627511D01*
X-3526833Y-13558353D01*
X-3497808Y-13494797D01*
X-3479582Y-13477625D01*
X-3438985Y-13446473D01*
X-3407379Y-13422221D01*
X-3319139Y-13307225D01*
X-3263670Y-13173309D01*
X-3244750Y-13029600D01*
X-3263670Y-12885891D01*
X-3309092Y-12776230D01*
X-3319138Y-12751977D01*
X-3319139Y-12751976D01*
X-3319139Y-12751975D01*
X-3407379Y-12636979D01*
X-3522375Y-12548739D01*
X-3522376Y-12548738D01*
X-3522378Y-12548737D01*
X-3656288Y-12493271D01*
X-3656290Y-12493270D01*
X-3656291Y-12493270D01*
X-3728146Y-12483810D01*
X-3799999Y-12474350D01*
X-3800001Y-12474350D01*
X-3943709Y-12493270D01*
X-3943713Y-12493271D01*
X-4077623Y-12548737D01*
X-4192621Y-12636979D01*
X-4280863Y-12751977D01*
X-4336329Y-12885887D01*
X-4336330Y-12885891D01*
X-4355250Y-13029599D01*
X-4355250Y-13029600D01*
X-4336330Y-13173308D01*
X-4336329Y-13173312D01*
X-4280863Y-13307222D01*
X-4280862Y-13307224D01*
X-4280861Y-13307225D01*
X-4192621Y-13422221D01*
X-4161015Y-13446473D01*
X-4120418Y-13477625D01*
X-4079216Y-13534053D01*
X-4075061Y-13603799D01*
X-4109274Y-13664719D01*
X-4170991Y-13697471D01*
X-4195905Y-13700000D01*
X-10416748Y-13700000D01*
X-10830699Y-14039939D01*
X-10895000Y-14067273D01*
X-10963872Y-14055503D01*
X-11015447Y-14008367D01*
X-11032132Y-13948631D01*
X-11032333Y-13948658D01*
X-11032520Y-13947242D01*
X-11033394Y-13944111D01*
X-11033394Y-13940599D01*
X-11038247Y-13903736D01*
X-11052314Y-13796891D01*
X-11093385Y-13697736D01*
X-11107782Y-13662977D01*
X-11107783Y-13662976D01*
X-11107783Y-13662975D01*
X-11196023Y-13547979D01*
X-11311019Y-13459739D01*
X-11311020Y-13459738D01*
X-11311022Y-13459737D01*
X-11444932Y-13404271D01*
X-11444934Y-13404270D01*
X-11444935Y-13404270D01*
X-11545341Y-13391051D01*
X-11588643Y-13385350D01*
X-11588645Y-13385350D01*
X-11732353Y-13404270D01*
X-11732357Y-13404271D01*
X-11866267Y-13459737D01*
X-11981265Y-13547979D01*
X-12069507Y-13662977D01*
X-12124973Y-13796887D01*
X-12124974Y-13796891D01*
X-12141024Y-13918804D01*
X-12143894Y-13940600D01*
X-12127844Y-14062513D01*
X-12124974Y-14084308D01*
X-12124973Y-14084312D01*
X-12069507Y-14218222D01*
X-12069506Y-14218224D01*
X-12069505Y-14218225D01*
X-11981265Y-14333221D01*
X-11866269Y-14421461D01*
X-11732353Y-14476930D01*
X-11722226Y-14478263D01*
X-11658329Y-14506528D01*
X-11619857Y-14564852D01*
X-11619025Y-14634717D01*
X-11656097Y-14693941D01*
X-11667883Y-14703192D01*
X-12920211Y-15569189D01*
X-12931988Y-15576398D01*
X-14318331Y-16322265D01*
X-14331630Y-16328436D01*
X-15773558Y-16896496D01*
X-15787430Y-16901037D01*
X-17305382Y-17300796D01*
X-17315547Y-17303022D01*
X-17739909Y-17377426D01*
X-17746378Y-17378385D01*
X-18507869Y-17470838D01*
X-18513724Y-17471408D01*
X-19336677Y-17531896D01*
X-19341904Y-17532170D01*
X-20161736Y-17557720D01*
X-20167614Y-17557764D01*
X-20918667Y-17545559D01*
X-20927141Y-17545131D01*
X-21546344Y-17492564D01*
X-21553636Y-17491727D01*
X-21731723Y-17465924D01*
X-21739699Y-17464500D01*
X-23365307Y-17119301D01*
X-23379353Y-17115444D01*
X-24939518Y-16586663D01*
X-24952915Y-16581233D01*
X-26439854Y-15874979D01*
X-26452389Y-15868113D01*
X-27521019Y-15199999D01*
X-20905250Y-15199999D01*
X-20905250Y-15200000D01*
X-20886330Y-15343708D01*
X-20886329Y-15343712D01*
X-20830863Y-15477622D01*
X-20830862Y-15477624D01*
X-20830861Y-15477625D01*
X-20742621Y-15592621D01*
X-20627625Y-15680861D01*
X-20493709Y-15736330D01*
X-20366720Y-15753048D01*
X-20350001Y-15755250D01*
X-20350000Y-15755250D01*
X-20349999Y-15755250D01*
X-20335023Y-15753278D01*
X-20206291Y-15736330D01*
X-20072375Y-15680861D01*
X-19957379Y-15592621D01*
X-19869139Y-15477625D01*
X-19813670Y-15343709D01*
X-19794750Y-15200000D01*
X-19813670Y-15056291D01*
X-19868455Y-14924026D01*
X-19869138Y-14922377D01*
X-19869139Y-14922376D01*
X-19869139Y-14922375D01*
X-19957379Y-14807379D01*
X-19982906Y-14787791D01*
X-19607459Y-14787791D01*
X-19588704Y-14930250D01*
X-19588539Y-14931499D01*
X-19588538Y-14931503D01*
X-19533072Y-15065413D01*
X-19533071Y-15065415D01*
X-19533070Y-15065416D01*
X-19444830Y-15180412D01*
X-19329834Y-15268652D01*
X-19195918Y-15324121D01*
X-19068929Y-15340839D01*
X-19052210Y-15343041D01*
X-19052209Y-15343041D01*
X-19052208Y-15343041D01*
X-19037232Y-15341069D01*
X-18908500Y-15324121D01*
X-18774584Y-15268652D01*
X-18659588Y-15180412D01*
X-18571348Y-15065416D01*
X-18515879Y-14931500D01*
X-18496959Y-14787791D01*
X-18515879Y-14644082D01*
X-18571348Y-14510166D01*
X-18659588Y-14395170D01*
X-18774584Y-14306930D01*
X-18774585Y-14306929D01*
X-18774587Y-14306928D01*
X-18908497Y-14251462D01*
X-18908499Y-14251461D01*
X-18908500Y-14251461D01*
X-18980355Y-14242001D01*
X-19052208Y-14232541D01*
X-19052210Y-14232541D01*
X-19195918Y-14251461D01*
X-19195922Y-14251462D01*
X-19329832Y-14306928D01*
X-19444830Y-14395170D01*
X-19533072Y-14510168D01*
X-19588538Y-14644078D01*
X-19588539Y-14644082D01*
X-19604803Y-14767620D01*
X-19607459Y-14787791D01*
X-19982906Y-14787791D01*
X-20072375Y-14719139D01*
X-20072376Y-14719138D01*
X-20072378Y-14719137D01*
X-20206288Y-14663671D01*
X-20206290Y-14663670D01*
X-20206291Y-14663670D01*
X-20278146Y-14654210D01*
X-20349999Y-14644750D01*
X-20350001Y-14644750D01*
X-20493709Y-14663670D01*
X-20493713Y-14663671D01*
X-20627623Y-14719137D01*
X-20742621Y-14807379D01*
X-20830863Y-14922377D01*
X-20886329Y-15056287D01*
X-20886330Y-15056291D01*
X-20905250Y-15199999D01*
X-27521019Y-15199999D01*
X-27855073Y-14991146D01*
X-27866576Y-14983011D01*
X-27956605Y-14911329D01*
X-28165622Y-14744907D01*
X-28205805Y-14687752D01*
X-28208709Y-14617942D01*
X-28173410Y-14557645D01*
X-28168123Y-14552942D01*
X-28051560Y-14455134D01*
X-24810384Y-14455134D01*
X-24803139Y-14510168D01*
X-24791464Y-14598842D01*
X-24791463Y-14598846D01*
X-24735997Y-14732756D01*
X-24735996Y-14732758D01*
X-24735995Y-14732759D01*
X-24647755Y-14847755D01*
X-24532759Y-14935995D01*
X-24398843Y-14991464D01*
X-24271854Y-15008182D01*
X-24255135Y-15010384D01*
X-24255134Y-15010384D01*
X-24255133Y-15010384D01*
X-24240157Y-15008412D01*
X-24111425Y-14991464D01*
X-23977509Y-14935995D01*
X-23862513Y-14847755D01*
X-23774273Y-14732759D01*
X-23719283Y-14600000D01*
X-22755250Y-14600000D01*
X-22737772Y-14732759D01*
X-22736330Y-14743708D01*
X-22736329Y-14743712D01*
X-22680863Y-14877622D01*
X-22680862Y-14877624D01*
X-22680861Y-14877625D01*
X-22592621Y-14992621D01*
X-22477625Y-15080861D01*
X-22343709Y-15136330D01*
X-22216720Y-15153048D01*
X-22200001Y-15155250D01*
X-22200000Y-15155250D01*
X-22199999Y-15155250D01*
X-22185023Y-15153278D01*
X-22056291Y-15136330D01*
X-21922375Y-15080861D01*
X-21807379Y-14992621D01*
X-21719139Y-14877625D01*
X-21663670Y-14743709D01*
X-21644750Y-14600000D01*
X-21663670Y-14456291D01*
X-21704661Y-14357328D01*
X-21719138Y-14322377D01*
X-21719139Y-14322376D01*
X-21719139Y-14322375D01*
X-21807379Y-14207379D01*
X-21844886Y-14178599D01*
X-16121802Y-14178599D01*
X-16104907Y-14306930D01*
X-16102882Y-14322307D01*
X-16102881Y-14322311D01*
X-16047415Y-14456221D01*
X-16047414Y-14456223D01*
X-16047413Y-14456224D01*
X-15959173Y-14571220D01*
X-15844177Y-14659460D01*
X-15710261Y-14714929D01*
X-15583272Y-14731647D01*
X-15566553Y-14733849D01*
X-15566552Y-14733849D01*
X-15566551Y-14733849D01*
X-15551575Y-14731877D01*
X-15422843Y-14714929D01*
X-15288927Y-14659460D01*
X-15173931Y-14571220D01*
X-15085691Y-14456224D01*
X-15030222Y-14322308D01*
X-15011302Y-14178599D01*
X-15011446Y-14177509D01*
X-15016706Y-14137551D01*
X-15030222Y-14034890D01*
X-15085691Y-13900974D01*
X-15173931Y-13785978D01*
X-15288927Y-13697738D01*
X-15288928Y-13697737D01*
X-15288930Y-13697736D01*
X-15422840Y-13642270D01*
X-15422842Y-13642269D01*
X-15422843Y-13642269D01*
X-15494698Y-13632809D01*
X-15566551Y-13623349D01*
X-15566553Y-13623349D01*
X-15710261Y-13642269D01*
X-15710265Y-13642270D01*
X-15844175Y-13697736D01*
X-15959173Y-13785978D01*
X-16047415Y-13900976D01*
X-16102881Y-14034886D01*
X-16102882Y-14034890D01*
X-16121658Y-14177509D01*
X-16121802Y-14178599D01*
X-21844886Y-14178599D01*
X-21922375Y-14119139D01*
X-21922376Y-14119138D01*
X-21922378Y-14119137D01*
X-22056288Y-14063671D01*
X-22056290Y-14063670D01*
X-22056291Y-14063670D01*
X-22128146Y-14054210D01*
X-22199999Y-14044750D01*
X-22200001Y-14044750D01*
X-22343709Y-14063670D01*
X-22343713Y-14063671D01*
X-22477623Y-14119137D01*
X-22592621Y-14207379D01*
X-22680863Y-14322377D01*
X-22736329Y-14456287D01*
X-22736330Y-14456291D01*
X-22755250Y-14600000D01*
X-23719283Y-14600000D01*
X-23718804Y-14598843D01*
X-23699884Y-14455134D01*
X-23718804Y-14311425D01*
X-23761901Y-14207379D01*
X-23774272Y-14177511D01*
X-23774273Y-14177510D01*
X-23774273Y-14177509D01*
X-23862513Y-14062513D01*
X-23977509Y-13974273D01*
X-23977510Y-13974272D01*
X-23977512Y-13974271D01*
X-24111422Y-13918805D01*
X-24111424Y-13918804D01*
X-24111425Y-13918804D01*
X-24183280Y-13909344D01*
X-24255133Y-13899884D01*
X-24255135Y-13899884D01*
X-24398843Y-13918804D01*
X-24398847Y-13918805D01*
X-24532757Y-13974271D01*
X-24647755Y-14062513D01*
X-24735997Y-14177511D01*
X-24791463Y-14311421D01*
X-24791464Y-14311425D01*
X-24806607Y-14426449D01*
X-24810384Y-14455134D01*
X-28051560Y-14455134D01*
X-26755256Y-13367406D01*
X-26721002Y-13338664D01*
X-26721001Y-13338663D01*
X-26707084Y-13326985D01*
X-26707081Y-13326982D01*
X-26689897Y-13312563D01*
X-26668671Y-13294752D01*
X-26649935Y-13276097D01*
X-26626950Y-13248942D01*
X-26626950Y-13248940D01*
X-26622092Y-13243202D01*
X-26622067Y-13243223D01*
X-26610185Y-13228863D01*
X-26531485Y-13152623D01*
X-26516692Y-13136088D01*
X-26341636Y-12909814D01*
X-26329347Y-12891342D01*
X-26188274Y-12642458D01*
X-26178738Y-12622425D01*
X-26074521Y-12355997D01*
X-26067933Y-12334811D01*
X-26002694Y-12056263D01*
X-25999189Y-12034356D01*
X-25974255Y-11749359D01*
X-25973903Y-11727176D01*
X-25989563Y-11445448D01*
X-25150699Y-11445448D01*
X-25150699Y-11445449D01*
X-25131779Y-11589157D01*
X-25131778Y-11589161D01*
X-25076312Y-11723071D01*
X-25076311Y-11723072D01*
X-25076310Y-11723074D01*
X-24988070Y-11838070D01*
X-24975764Y-11847513D01*
X-24934561Y-11903938D01*
X-24930406Y-11973684D01*
X-24952874Y-12021374D01*
X-25025856Y-12116485D01*
X-25025857Y-12116487D01*
X-25081324Y-12250398D01*
X-25081325Y-12250402D01*
X-25095227Y-12356000D01*
X-25100245Y-12394111D01*
X-25092167Y-12455472D01*
X-25081325Y-12537819D01*
X-25081324Y-12537823D01*
X-25025858Y-12671733D01*
X-25025857Y-12671735D01*
X-25025856Y-12671736D01*
X-24937616Y-12786732D01*
X-24822620Y-12874972D01*
X-24822619Y-12874972D01*
X-24822618Y-12874973D01*
X-24796259Y-12885891D01*
X-24688704Y-12930441D01*
X-24561715Y-12947159D01*
X-24544996Y-12949361D01*
X-24544995Y-12949361D01*
X-24544994Y-12949361D01*
X-24530018Y-12947389D01*
X-24401286Y-12930441D01*
X-24270106Y-12876104D01*
X-24200637Y-12868636D01*
X-24138158Y-12899911D01*
X-24102506Y-12960000D01*
X-24105000Y-13029825D01*
X-24108092Y-13038117D01*
X-24118766Y-13063886D01*
X-24136330Y-13106291D01*
X-24155250Y-13250000D01*
X-24137431Y-13385350D01*
X-24136330Y-13393708D01*
X-24136329Y-13393712D01*
X-24080863Y-13527622D01*
X-24080862Y-13527624D01*
X-24080861Y-13527625D01*
X-23992621Y-13642621D01*
X-23877625Y-13730861D01*
X-23743709Y-13786330D01*
X-23616720Y-13803048D01*
X-23600001Y-13805250D01*
X-23600000Y-13805250D01*
X-23599999Y-13805250D01*
X-23585023Y-13803278D01*
X-23456291Y-13786330D01*
X-23322375Y-13730861D01*
X-23207379Y-13642621D01*
X-23119139Y-13527625D01*
X-23063670Y-13393709D01*
X-23044750Y-13250000D01*
X-23063670Y-13106291D01*
X-23119139Y-12972375D01*
X-23207379Y-12857379D01*
X-23322375Y-12769139D01*
X-23322376Y-12769138D01*
X-23322378Y-12769137D01*
X-23456288Y-12713671D01*
X-23456290Y-12713670D01*
X-23456291Y-12713670D01*
X-23528146Y-12704210D01*
X-23599999Y-12694750D01*
X-23600001Y-12694750D01*
X-23743709Y-12713670D01*
X-23874891Y-12768006D01*
X-23944360Y-12775474D01*
X-24006839Y-12744198D01*
X-24042491Y-12684109D01*
X-24039996Y-12614284D01*
X-24036913Y-12606016D01*
X-24008665Y-12537820D01*
X-23989745Y-12394111D01*
X-24008119Y-12254550D01*
X-21709801Y-12254550D01*
X-21709801Y-12254551D01*
X-21690881Y-12398259D01*
X-21690880Y-12398263D01*
X-21635414Y-12532173D01*
X-21635413Y-12532175D01*
X-21635412Y-12532176D01*
X-21547172Y-12647172D01*
X-21432176Y-12735412D01*
X-21432175Y-12735412D01*
X-21432174Y-12735413D01*
X-21392981Y-12751647D01*
X-21298260Y-12790881D01*
X-21171271Y-12807599D01*
X-21154552Y-12809801D01*
X-21154551Y-12809801D01*
X-21154550Y-12809801D01*
X-21139574Y-12807829D01*
X-21010842Y-12790881D01*
X-20887507Y-12739794D01*
X-20818040Y-12732326D01*
X-20755561Y-12763601D01*
X-20719909Y-12823690D01*
X-20722403Y-12893515D01*
X-20725495Y-12901808D01*
X-20776582Y-13025144D01*
X-20793365Y-13152623D01*
X-20795501Y-13168851D01*
X-20778926Y-13294752D01*
X-20776581Y-13312559D01*
X-20776580Y-13312563D01*
X-20721114Y-13446473D01*
X-20721113Y-13446475D01*
X-20721112Y-13446476D01*
X-20632872Y-13561472D01*
X-20517876Y-13649712D01*
X-20383960Y-13705181D01*
X-20256971Y-13721899D01*
X-20240252Y-13724101D01*
X-20240251Y-13724101D01*
X-20240250Y-13724101D01*
X-20225274Y-13722129D01*
X-20096542Y-13705181D01*
X-19962626Y-13649712D01*
X-19847630Y-13561472D01*
X-19759390Y-13446476D01*
X-19703921Y-13312560D01*
X-19685001Y-13168851D01*
X-19703921Y-13025142D01*
X-19751691Y-12909814D01*
X-19759389Y-12891228D01*
X-19759390Y-12891227D01*
X-19759390Y-12891226D01*
X-19847630Y-12776230D01*
X-19962626Y-12687990D01*
X-19962627Y-12687989D01*
X-19962629Y-12687988D01*
X-20096539Y-12632522D01*
X-20096541Y-12632521D01*
X-20096542Y-12632521D01*
X-20168397Y-12623061D01*
X-20240250Y-12613601D01*
X-20240252Y-12613601D01*
X-20383958Y-12632520D01*
X-20419329Y-12647171D01*
X-20478627Y-12671733D01*
X-20507294Y-12683607D01*
X-20576764Y-12691075D01*
X-20639243Y-12659799D01*
X-20674895Y-12599710D01*
X-20672400Y-12529885D01*
X-20669316Y-12521615D01*
X-20618221Y-12398260D01*
X-20599301Y-12254551D01*
X-20618221Y-12110842D01*
X-20664132Y-12000001D01*
X-20673689Y-11976928D01*
X-20673690Y-11976927D01*
X-20673690Y-11976926D01*
X-20761930Y-11861930D01*
X-20876926Y-11773690D01*
X-20876927Y-11773689D01*
X-20876929Y-11773688D01*
X-21010839Y-11718222D01*
X-21010841Y-11718221D01*
X-21010842Y-11718221D01*
X-21118525Y-11704044D01*
X-21154550Y-11699301D01*
X-21154552Y-11699301D01*
X-21298260Y-11718221D01*
X-21298264Y-11718222D01*
X-21432174Y-11773688D01*
X-21547172Y-11861930D01*
X-21635414Y-11976928D01*
X-21690880Y-12110838D01*
X-21690881Y-12110842D01*
X-21709801Y-12254550D01*
X-24008119Y-12254550D01*
X-24008665Y-12250402D01*
X-24064134Y-12116486D01*
X-24152374Y-12001490D01*
X-24154314Y-12000001D01*
X-24164682Y-11992045D01*
X-24205884Y-11935617D01*
X-24210037Y-11865871D01*
X-24187569Y-11818184D01*
X-24175630Y-11802625D01*
X-24114588Y-11723074D01*
X-24059119Y-11589158D01*
X-24040199Y-11445449D01*
X-24040715Y-11441533D01*
X-24045294Y-11406747D01*
X-24059119Y-11301740D01*
X-24109600Y-11179866D01*
X-24114587Y-11167826D01*
X-24114588Y-11167825D01*
X-24114588Y-11167824D01*
X-24202828Y-11052828D01*
X-24317824Y-10964588D01*
X-24317825Y-10964587D01*
X-24317827Y-10964586D01*
X-24451737Y-10909120D01*
X-24451739Y-10909119D01*
X-24451740Y-10909119D01*
X-24523595Y-10899659D01*
X-24595448Y-10890199D01*
X-24595450Y-10890199D01*
X-24739158Y-10909119D01*
X-24739162Y-10909120D01*
X-24873072Y-10964586D01*
X-24988070Y-11052828D01*
X-25076312Y-11167826D01*
X-25131778Y-11301736D01*
X-25131779Y-11301740D01*
X-25150699Y-11445448D01*
X-25989563Y-11445448D01*
X-25989781Y-11441532D01*
X-25992589Y-11419523D01*
X-26048959Y-11139045D01*
X-26054871Y-11117661D01*
X-26150582Y-10848060D01*
X-26159478Y-10827734D01*
X-26292583Y-10574500D01*
X-26304280Y-10555648D01*
X-26472069Y-10323933D01*
X-26486330Y-10306937D01*
X-26486333Y-10306933D01*
X-26486338Y-10306928D01*
X-26547902Y-10243379D01*
X-20598630Y-10243379D01*
X-20598630Y-10243380D01*
X-20579710Y-10387088D01*
X-20579709Y-10387092D01*
X-20524243Y-10521002D01*
X-20524242Y-10521004D01*
X-20524241Y-10521005D01*
X-20436001Y-10636001D01*
X-20321005Y-10724241D01*
X-20187089Y-10779710D01*
X-20060100Y-10796428D01*
X-20043381Y-10798630D01*
X-20043380Y-10798630D01*
X-20043379Y-10798630D01*
X-20028403Y-10796658D01*
X-19899671Y-10779710D01*
X-19765755Y-10724241D01*
X-19650759Y-10636001D01*
X-19562519Y-10521005D01*
X-19507050Y-10387089D01*
X-19488130Y-10243380D01*
X-19507050Y-10099671D01*
X-19556565Y-9980129D01*
X-19562518Y-9965757D01*
X-19562519Y-9965756D01*
X-19562519Y-9965755D01*
X-19650759Y-9850759D01*
X-19765755Y-9762519D01*
X-19765756Y-9762518D01*
X-19765758Y-9762517D01*
X-19899668Y-9707051D01*
X-19899670Y-9707050D01*
X-19899671Y-9707050D01*
X-19983192Y-9696054D01*
X-20043379Y-9688130D01*
X-20043381Y-9688130D01*
X-20187089Y-9707050D01*
X-20187093Y-9707051D01*
X-20321003Y-9762517D01*
X-20436001Y-9850759D01*
X-20524243Y-9965757D01*
X-20579709Y-10099667D01*
X-20579710Y-10099671D01*
X-20598630Y-10243379D01*
X-26547902Y-10243379D01*
X-26685387Y-10101461D01*
X-26685392Y-10101456D01*
X-26701909Y-10086679D01*
X-26701913Y-10086676D01*
X-26701924Y-10086666D01*
X-26928198Y-9911610D01*
X-26946670Y-9899321D01*
X-26946671Y-9899320D01*
X-27195547Y-9758251D01*
X-27215579Y-9748716D01*
X-27215577Y-9748716D01*
X-27215587Y-9748712D01*
X-27451074Y-9656598D01*
X-27482012Y-9644496D01*
X-27482021Y-9644493D01*
X-27503201Y-9637907D01*
X-27781748Y-9572668D01*
X-27781747Y-9572668D01*
X-27803661Y-9569162D01*
X-28088659Y-9544228D01*
X-28088649Y-9544228D01*
X-28110829Y-9543876D01*
X-28212286Y-9549515D01*
X-28280315Y-9533581D01*
X-28328929Y-9483397D01*
X-28342695Y-9414897D01*
X-28339900Y-9397428D01*
X-28316730Y-9298503D01*
X-28313225Y-9276596D01*
X-28308816Y-9226200D01*
X-22748630Y-9226200D01*
X-22730863Y-9361155D01*
X-22729710Y-9369908D01*
X-22729709Y-9369912D01*
X-22674243Y-9503822D01*
X-22674242Y-9503824D01*
X-22674241Y-9503825D01*
X-22586001Y-9618821D01*
X-22471005Y-9707061D01*
X-22337089Y-9762530D01*
X-22210100Y-9779248D01*
X-22193381Y-9781450D01*
X-22193380Y-9781450D01*
X-22193379Y-9781450D01*
X-22178403Y-9779478D01*
X-22049671Y-9762530D01*
X-21915755Y-9707061D01*
X-21800759Y-9618821D01*
X-21712519Y-9503825D01*
X-21687656Y-9443800D01*
X-19380250Y-9443800D01*
X-19367075Y-9543876D01*
X-19361330Y-9587508D01*
X-19361329Y-9587512D01*
X-19305863Y-9721422D01*
X-19305862Y-9721424D01*
X-19305861Y-9721425D01*
X-19217621Y-9836421D01*
X-19102625Y-9924661D01*
X-18968709Y-9980130D01*
X-18825000Y-9999050D01*
X-18812989Y-9997468D01*
X-18743956Y-10008232D01*
X-18691699Y-10054610D01*
X-18672811Y-10121878D01*
X-18678141Y-10156402D01*
X-18716748Y-10283670D01*
X-18735099Y-10470000D01*
X-18716748Y-10656331D01*
X-18716747Y-10656333D01*
X-18662396Y-10835502D01*
X-18574138Y-11000623D01*
X-18574136Y-11000626D01*
X-18455358Y-11145357D01*
X-18310627Y-11264135D01*
X-18310624Y-11264137D01*
X-18145503Y-11352395D01*
X-18145501Y-11352396D01*
X-17966334Y-11406746D01*
X-17966332Y-11406747D01*
X-17949626Y-11408392D01*
X-17780000Y-11425099D01*
X-17593669Y-11406747D01*
X-17414499Y-11352396D01*
X-17249375Y-11264136D01*
X-17104643Y-11145357D01*
X-16985864Y-11000625D01*
X-16897604Y-10835501D01*
X-16843253Y-10656331D01*
X-16835735Y-10580000D01*
X-13655099Y-10580000D01*
X-13636748Y-10766331D01*
X-13636747Y-10766333D01*
X-13582396Y-10945502D01*
X-13494138Y-11110623D01*
X-13494136Y-11110626D01*
X-13375358Y-11255357D01*
X-13230627Y-11374135D01*
X-13230624Y-11374137D01*
X-13097209Y-11445448D01*
X-13065501Y-11462396D01*
X-12886334Y-11516746D01*
X-12886332Y-11516747D01*
X-12869626Y-11518392D01*
X-12700000Y-11535099D01*
X-12513669Y-11516747D01*
X-12334499Y-11462396D01*
X-12169375Y-11374136D01*
X-12024643Y-11255357D01*
X-11905864Y-11110625D01*
X-11817604Y-10945501D01*
X-11763253Y-10766331D01*
X-11744901Y-10580000D01*
X-11755735Y-10470000D01*
X-11115099Y-10470000D01*
X-11096748Y-10656331D01*
X-11096747Y-10656333D01*
X-11042396Y-10835502D01*
X-10954138Y-11000623D01*
X-10954136Y-11000626D01*
X-10835358Y-11145357D01*
X-10690627Y-11264135D01*
X-10690624Y-11264137D01*
X-10525503Y-11352395D01*
X-10525501Y-11352396D01*
X-10346334Y-11406746D01*
X-10346332Y-11406747D01*
X-10329626Y-11408392D01*
X-10160000Y-11425099D01*
X-9973669Y-11406747D01*
X-9794499Y-11352396D01*
X-9629375Y-11264136D01*
X-9484643Y-11145357D01*
X-9365864Y-11000625D01*
X-9277604Y-10835501D01*
X-9223253Y-10656331D01*
X-9204901Y-10470000D01*
X-9219911Y-10317602D01*
X-9206892Y-10248958D01*
X-9158827Y-10198248D01*
X-9107798Y-10184492D01*
X-9108058Y-10182511D01*
X-9100000Y-10181450D01*
X-8956291Y-10162530D01*
X-8822375Y-10107061D01*
X-8712505Y-10022753D01*
X-8647341Y-9997561D01*
X-8578896Y-10011599D01*
X-8528905Y-10060412D01*
X-8513241Y-10128503D01*
X-8518361Y-10157126D01*
X-8556748Y-10283670D01*
X-8575099Y-10470000D01*
X-8556748Y-10656331D01*
X-8556747Y-10656333D01*
X-8502396Y-10835502D01*
X-8414138Y-11000623D01*
X-8414136Y-11000626D01*
X-8295358Y-11145357D01*
X-8150627Y-11264135D01*
X-8150624Y-11264137D01*
X-7985503Y-11352395D01*
X-7985501Y-11352396D01*
X-7806334Y-11406746D01*
X-7806332Y-11406747D01*
X-7789626Y-11408392D01*
X-7620000Y-11425099D01*
X-7433669Y-11406747D01*
X-7254499Y-11352396D01*
X-7089375Y-11264136D01*
X-6944643Y-11145357D01*
X-6825864Y-11000625D01*
X-6737604Y-10835501D01*
X-6683253Y-10656331D01*
X-6664901Y-10470000D01*
X-3495099Y-10470000D01*
X-3476748Y-10656331D01*
X-3476747Y-10656333D01*
X-3422396Y-10835502D01*
X-3334138Y-11000623D01*
X-3334136Y-11000626D01*
X-3215358Y-11145357D01*
X-3070627Y-11264135D01*
X-3070624Y-11264137D01*
X-2905503Y-11352395D01*
X-2905501Y-11352396D01*
X-2726334Y-11406746D01*
X-2726332Y-11406747D01*
X-2709626Y-11408392D01*
X-2540000Y-11425099D01*
X-2353669Y-11406747D01*
X-2174499Y-11352396D01*
X-2009375Y-11264136D01*
X-1864643Y-11145357D01*
X-1745864Y-11000625D01*
X-1657604Y-10835501D01*
X-1603253Y-10656331D01*
X-1584901Y-10470000D01*
X-955099Y-10470000D01*
X-936748Y-10656331D01*
X-936747Y-10656333D01*
X-882396Y-10835502D01*
X-794138Y-11000623D01*
X-794136Y-11000626D01*
X-675358Y-11145357D01*
X-530627Y-11264135D01*
X-530624Y-11264137D01*
X-365503Y-11352395D01*
X-365501Y-11352396D01*
X-186334Y-11406746D01*
X-186332Y-11406747D01*
X-169626Y-11408392D01*
X0Y-11425099D01*
X186331Y-11406747D01*
X365501Y-11352396D01*
X530625Y-11264136D01*
X675357Y-11145357D01*
X794136Y-11000625D01*
X882396Y-10835501D01*
X936747Y-10656331D01*
X955099Y-10470000D01*
X4124901Y-10470000D01*
X4143252Y-10656331D01*
X4143253Y-10656333D01*
X4197604Y-10835502D01*
X4285862Y-11000623D01*
X4285864Y-11000626D01*
X4404642Y-11145357D01*
X4549373Y-11264135D01*
X4549376Y-11264137D01*
X4714497Y-11352395D01*
X4714499Y-11352396D01*
X4893666Y-11406746D01*
X4893668Y-11406747D01*
X4910374Y-11408392D01*
X5080000Y-11425099D01*
X5266331Y-11406747D01*
X5445501Y-11352396D01*
X5610625Y-11264136D01*
X5755357Y-11145357D01*
X5874136Y-11000625D01*
X5962396Y-10835501D01*
X6016747Y-10656331D01*
X6035099Y-10470000D01*
X6016747Y-10283669D01*
X5962396Y-10104499D01*
X5960771Y-10101459D01*
X5874137Y-9939376D01*
X5874135Y-9939373D01*
X5755357Y-9794642D01*
X5610626Y-9675864D01*
X5610623Y-9675862D01*
X5445502Y-9587604D01*
X5266333Y-9533253D01*
X5266331Y-9533252D01*
X5080000Y-9514901D01*
X4893668Y-9533252D01*
X4893666Y-9533253D01*
X4714497Y-9587604D01*
X4549376Y-9675862D01*
X4549373Y-9675864D01*
X4404642Y-9794642D01*
X4285864Y-9939373D01*
X4285862Y-9939376D01*
X4197604Y-10104497D01*
X4143253Y-10283666D01*
X4143252Y-10283668D01*
X4124901Y-10470000D01*
X955099Y-10470000D01*
X936747Y-10283669D01*
X882396Y-10104499D01*
X880771Y-10101459D01*
X794137Y-9939376D01*
X794135Y-9939373D01*
X675357Y-9794642D01*
X530626Y-9675864D01*
X530623Y-9675862D01*
X365502Y-9587604D01*
X186333Y-9533253D01*
X186331Y-9533252D01*
X0Y-9514901D01*
X-186332Y-9533252D01*
X-186334Y-9533253D01*
X-365503Y-9587604D01*
X-530624Y-9675862D01*
X-530627Y-9675864D01*
X-675358Y-9794642D01*
X-794136Y-9939373D01*
X-794138Y-9939376D01*
X-882396Y-10104497D01*
X-936747Y-10283666D01*
X-936748Y-10283668D01*
X-955099Y-10470000D01*
X-1584901Y-10470000D01*
X-1603253Y-10283669D01*
X-1657604Y-10104499D01*
X-1659229Y-10101459D01*
X-1745863Y-9939376D01*
X-1745865Y-9939373D01*
X-1864643Y-9794642D01*
X-2009374Y-9675864D01*
X-2009377Y-9675862D01*
X-2174498Y-9587604D01*
X-2353667Y-9533253D01*
X-2353669Y-9533252D01*
X-2540000Y-9514901D01*
X-2726332Y-9533252D01*
X-2726334Y-9533253D01*
X-2905503Y-9587604D01*
X-3070624Y-9675862D01*
X-3070627Y-9675864D01*
X-3215358Y-9794642D01*
X-3334136Y-9939373D01*
X-3334138Y-9939376D01*
X-3422396Y-10104497D01*
X-3476747Y-10283666D01*
X-3476748Y-10283668D01*
X-3495099Y-10470000D01*
X-6664901Y-10470000D01*
X-6683253Y-10283669D01*
X-6737604Y-10104499D01*
X-6762167Y-10058546D01*
X-6776408Y-9990144D01*
X-6751408Y-9924900D01*
X-6695103Y-9883529D01*
X-6625370Y-9879167D01*
X-6605363Y-9885529D01*
X-6526389Y-9918241D01*
X-6399400Y-9934959D01*
X-6382681Y-9937161D01*
X-6382680Y-9937161D01*
X-6382679Y-9937161D01*
X-6367703Y-9935189D01*
X-6238971Y-9918241D01*
X-6105055Y-9862772D01*
X-5990059Y-9774532D01*
X-5901819Y-9659536D01*
X-5846350Y-9525620D01*
X-5827430Y-9381911D01*
X-5846350Y-9238202D01*
X-5901819Y-9104286D01*
X-5974992Y-9008925D01*
X-6000186Y-8943759D01*
X-5986148Y-8875314D01*
X-5952104Y-8835067D01*
X-5940085Y-8825845D01*
X-5851845Y-8710849D01*
X-5851845Y-8710846D01*
X-5846898Y-8704401D01*
X-5845561Y-8705427D01*
X-5802018Y-8663903D01*
X-5733412Y-8650675D01*
X-5668545Y-8676637D01*
X-5666524Y-8678261D01*
X-5610627Y-8724135D01*
X-5610624Y-8724137D01*
X-5477321Y-8795388D01*
X-5445501Y-8812396D01*
X-5356036Y-8839535D01*
X-5266334Y-8866746D01*
X-5266332Y-8866747D01*
X-5249626Y-8868392D01*
X-5080000Y-8885099D01*
X-4893669Y-8866747D01*
X-4714499Y-8812396D01*
X-4549375Y-8724136D01*
X-4404643Y-8605357D01*
X-4285864Y-8460625D01*
X-4197604Y-8295501D01*
X-4143253Y-8116331D01*
X-4124901Y-7930000D01*
X-3495099Y-7930000D01*
X-3476748Y-8116331D01*
X-3476747Y-8116333D01*
X-3422396Y-8295502D01*
X-3334138Y-8460623D01*
X-3334136Y-8460626D01*
X-3215358Y-8605357D01*
X-3070627Y-8724135D01*
X-3070624Y-8724137D01*
X-2937321Y-8795388D01*
X-2905501Y-8812396D01*
X-2816036Y-8839535D01*
X-2726334Y-8866746D01*
X-2726332Y-8866747D01*
X-2709626Y-8868392D01*
X-2540000Y-8885099D01*
X-2353669Y-8866747D01*
X-2174499Y-8812396D01*
X-2009375Y-8724136D01*
X-1864643Y-8605357D01*
X-1745864Y-8460625D01*
X-1657604Y-8295501D01*
X-1603253Y-8116331D01*
X-1584901Y-7930000D01*
X-955099Y-7930000D01*
X-936748Y-8116331D01*
X-936747Y-8116333D01*
X-882396Y-8295502D01*
X-794138Y-8460623D01*
X-794136Y-8460626D01*
X-675358Y-8605357D01*
X-530627Y-8724135D01*
X-530624Y-8724137D01*
X-397321Y-8795388D01*
X-365501Y-8812396D01*
X-276036Y-8839535D01*
X-186334Y-8866746D01*
X-186332Y-8866747D01*
X-169626Y-8868392D01*
X0Y-8885099D01*
X186331Y-8866747D01*
X365501Y-8812396D01*
X530625Y-8724136D01*
X675357Y-8605357D01*
X794136Y-8460625D01*
X882396Y-8295501D01*
X936747Y-8116331D01*
X955099Y-7930000D01*
X1584901Y-7930000D01*
X1603252Y-8116331D01*
X1603253Y-8116333D01*
X1657604Y-8295502D01*
X1745862Y-8460623D01*
X1745864Y-8460626D01*
X1864642Y-8605357D01*
X2009373Y-8724135D01*
X2009376Y-8724137D01*
X2142679Y-8795388D01*
X2174499Y-8812396D01*
X2263964Y-8839535D01*
X2353666Y-8866746D01*
X2353668Y-8866747D01*
X2370374Y-8868392D01*
X2540000Y-8885099D01*
X2726331Y-8866747D01*
X2905501Y-8812396D01*
X3070625Y-8724136D01*
X3215357Y-8605357D01*
X3334136Y-8460625D01*
X3422396Y-8295501D01*
X3476747Y-8116331D01*
X3495099Y-7930000D01*
X4124901Y-7930000D01*
X4143252Y-8116331D01*
X4143253Y-8116333D01*
X4197604Y-8295502D01*
X4285862Y-8460623D01*
X4285864Y-8460626D01*
X4404642Y-8605357D01*
X4549373Y-8724135D01*
X4549376Y-8724137D01*
X4682679Y-8795388D01*
X4714499Y-8812396D01*
X4803964Y-8839535D01*
X4893666Y-8866746D01*
X4893668Y-8866747D01*
X4910374Y-8868392D01*
X5080000Y-8885099D01*
X5266331Y-8866747D01*
X5445501Y-8812396D01*
X5610625Y-8724136D01*
X5755357Y-8605357D01*
X5874136Y-8460625D01*
X5962396Y-8295501D01*
X6016747Y-8116331D01*
X6035099Y-7930000D01*
X6664901Y-7930000D01*
X6683252Y-8116331D01*
X6683253Y-8116333D01*
X6737604Y-8295502D01*
X6825862Y-8460623D01*
X6825864Y-8460626D01*
X6944642Y-8605357D01*
X7089373Y-8724135D01*
X7089376Y-8724137D01*
X7222679Y-8795388D01*
X7254499Y-8812396D01*
X7343964Y-8839535D01*
X7433666Y-8866746D01*
X7433669Y-8866747D01*
X7446309Y-8867992D01*
X7511097Y-8894152D01*
X7551457Y-8951186D01*
X7554575Y-9020986D01*
X7548719Y-9038845D01*
X7541495Y-9056285D01*
X7541494Y-9056289D01*
X7534019Y-9113070D01*
X7522574Y-9199998D01*
X7526023Y-9226199D01*
X7541494Y-9343706D01*
X7541496Y-9343713D01*
X7548720Y-9361155D01*
X7556187Y-9430624D01*
X7524910Y-9493103D01*
X7464820Y-9528753D01*
X7446316Y-9532007D01*
X7433666Y-9533253D01*
X7254497Y-9587604D01*
X7089376Y-9675862D01*
X7089373Y-9675864D01*
X6944642Y-9794642D01*
X6825864Y-9939373D01*
X6825862Y-9939376D01*
X6737604Y-10104497D01*
X6683253Y-10283666D01*
X6683252Y-10283668D01*
X6664901Y-10470000D01*
X6683252Y-10656331D01*
X6683253Y-10656333D01*
X6737604Y-10835502D01*
X6825862Y-11000623D01*
X6825864Y-11000626D01*
X6944642Y-11145357D01*
X7089373Y-11264135D01*
X7089376Y-11264137D01*
X7254497Y-11352395D01*
X7254499Y-11352396D01*
X7433666Y-11406746D01*
X7433668Y-11406747D01*
X7450374Y-11408392D01*
X7620000Y-11425099D01*
X7806331Y-11406747D01*
X7985501Y-11352396D01*
X8150625Y-11264136D01*
X8295357Y-11145357D01*
X8414136Y-11000625D01*
X8502396Y-10835501D01*
X8556747Y-10656331D01*
X8575099Y-10470000D01*
X8556747Y-10283669D01*
X8502396Y-10104499D01*
X8500771Y-10101459D01*
X8414137Y-9939376D01*
X8414135Y-9939373D01*
X8342561Y-9852160D01*
X8315248Y-9787850D01*
X8327039Y-9718982D01*
X8362925Y-9675122D01*
X8470445Y-9592619D01*
X8558685Y-9477623D01*
X8614154Y-9343707D01*
X8633074Y-9199998D01*
X8614154Y-9056289D01*
X8565912Y-8939820D01*
X8558686Y-8922375D01*
X8558685Y-8922374D01*
X8558685Y-8922373D01*
X8470445Y-8807377D01*
X8389596Y-8745339D01*
X8362929Y-8724876D01*
X8321727Y-8668448D01*
X8317572Y-8598702D01*
X8342561Y-8547838D01*
X8414136Y-8460625D01*
X8502396Y-8295501D01*
X8556747Y-8116331D01*
X8561895Y-8064060D01*
X8588055Y-7999273D01*
X8645090Y-7958914D01*
X8714890Y-7955797D01*
X8720029Y-7957482D01*
X8727534Y-7959493D01*
X8727541Y-7959496D01*
X8854530Y-7976214D01*
X8871249Y-7978416D01*
X8871250Y-7978416D01*
X8871251Y-7978416D01*
X8886227Y-7976444D01*
X9014959Y-7959496D01*
X9045780Y-7946729D01*
X9115245Y-7939260D01*
X9177725Y-7970533D01*
X9213379Y-8030621D01*
X9216634Y-8049135D01*
X9223252Y-8116331D01*
X9223253Y-8116333D01*
X9277604Y-8295502D01*
X9365862Y-8460623D01*
X9365864Y-8460626D01*
X9484642Y-8605357D01*
X9629373Y-8724135D01*
X9629376Y-8724137D01*
X9762679Y-8795388D01*
X9794499Y-8812396D01*
X9883964Y-8839535D01*
X9973666Y-8866746D01*
X9973668Y-8866747D01*
X9990374Y-8868392D01*
X10160000Y-8885099D01*
X10346331Y-8866747D01*
X10525501Y-8812396D01*
X10690625Y-8724136D01*
X10835357Y-8605357D01*
X10954136Y-8460625D01*
X11042396Y-8295501D01*
X11096747Y-8116331D01*
X11115099Y-7930000D01*
X11744901Y-7930000D01*
X11763252Y-8116331D01*
X11763253Y-8116333D01*
X11817604Y-8295502D01*
X11905862Y-8460623D01*
X11905864Y-8460626D01*
X12024642Y-8605357D01*
X12169373Y-8724135D01*
X12169376Y-8724137D01*
X12302679Y-8795388D01*
X12334499Y-8812396D01*
X12423964Y-8839535D01*
X12513666Y-8866746D01*
X12513668Y-8866747D01*
X12700000Y-8885099D01*
X12706092Y-8885099D01*
X12706092Y-8886280D01*
X12768555Y-8898123D01*
X12819268Y-8946185D01*
X12835946Y-9014035D01*
X12826631Y-9055961D01*
X12794911Y-9132542D01*
X12775991Y-9276250D01*
X12775991Y-9276252D01*
X12789311Y-9377427D01*
X12778546Y-9446462D01*
X12732166Y-9498718D01*
X12678527Y-9517015D01*
X12513667Y-9533253D01*
X12513666Y-9533253D01*
X12334497Y-9587604D01*
X12169376Y-9675862D01*
X12169373Y-9675864D01*
X12024642Y-9794642D01*
X11905864Y-9939373D01*
X11905862Y-9939376D01*
X11817604Y-10104497D01*
X11763253Y-10283666D01*
X11763252Y-10283668D01*
X11744901Y-10470000D01*
X11763252Y-10656331D01*
X11763253Y-10656333D01*
X11817604Y-10835502D01*
X11905862Y-11000623D01*
X11905864Y-11000626D01*
X12024642Y-11145357D01*
X12169373Y-11264135D01*
X12169376Y-11264137D01*
X12334497Y-11352395D01*
X12334499Y-11352396D01*
X12513666Y-11406746D01*
X12513668Y-11406747D01*
X12530374Y-11408392D01*
X12700000Y-11425099D01*
X12886331Y-11406747D01*
X13065501Y-11352396D01*
X13230625Y-11264136D01*
X13375357Y-11145357D01*
X13494136Y-11000625D01*
X13582396Y-10835501D01*
X13636747Y-10656331D01*
X13655099Y-10470000D01*
X14284901Y-10470000D01*
X14303252Y-10656331D01*
X14303253Y-10656333D01*
X14357604Y-10835502D01*
X14445862Y-11000623D01*
X14445864Y-11000626D01*
X14564642Y-11145357D01*
X14709373Y-11264135D01*
X14709376Y-11264137D01*
X14874497Y-11352395D01*
X14874499Y-11352396D01*
X15053666Y-11406746D01*
X15053668Y-11406747D01*
X15070374Y-11408392D01*
X15240000Y-11425099D01*
X15426331Y-11406747D01*
X15605501Y-11352396D01*
X15770625Y-11264136D01*
X15915357Y-11145357D01*
X16034136Y-11000625D01*
X16122396Y-10835501D01*
X16176747Y-10656331D01*
X16195099Y-10470000D01*
X16176747Y-10283669D01*
X16122396Y-10104499D01*
X16120771Y-10101459D01*
X16034137Y-9939376D01*
X16034135Y-9939373D01*
X15915357Y-9794642D01*
X15770626Y-9675864D01*
X15770623Y-9675862D01*
X15605502Y-9587604D01*
X15426333Y-9533253D01*
X15426331Y-9533252D01*
X15240000Y-9514901D01*
X15053668Y-9533252D01*
X15053666Y-9533253D01*
X14874497Y-9587604D01*
X14709376Y-9675862D01*
X14709373Y-9675864D01*
X14564642Y-9794642D01*
X14445864Y-9939373D01*
X14445862Y-9939376D01*
X14357604Y-10104497D01*
X14303253Y-10283666D01*
X14303252Y-10283668D01*
X14284901Y-10470000D01*
X13655099Y-10470000D01*
X13636747Y-10283669D01*
X13582396Y-10104499D01*
X13580771Y-10101459D01*
X13499664Y-9949716D01*
X13485422Y-9881313D01*
X13510422Y-9816069D01*
X13561568Y-9776703D01*
X13608866Y-9757112D01*
X13723862Y-9668872D01*
X13812102Y-9553876D01*
X13867571Y-9419960D01*
X13886491Y-9276251D01*
X13867571Y-9132542D01*
X13861199Y-9117158D01*
X18977592Y-9117158D01*
X18992919Y-9233579D01*
X18996512Y-9260866D01*
X18996513Y-9260870D01*
X19051979Y-9394780D01*
X19051980Y-9394782D01*
X19051981Y-9394783D01*
X19140221Y-9509779D01*
X19255217Y-9598019D01*
X19255218Y-9598019D01*
X19255219Y-9598020D01*
X19396641Y-9656598D01*
X19395729Y-9658797D01*
X19445019Y-9688837D01*
X19475551Y-9751683D01*
X19467260Y-9821059D01*
X19422777Y-9874939D01*
X19400727Y-9886811D01*
X19396177Y-9888695D01*
X19281179Y-9976937D01*
X19192937Y-10091935D01*
X19137471Y-10225845D01*
X19137470Y-10225849D01*
X19118550Y-10369557D01*
X19118550Y-10369558D01*
X19137470Y-10513266D01*
X19137471Y-10513270D01*
X19192937Y-10647180D01*
X19192938Y-10647182D01*
X19192939Y-10647183D01*
X19281179Y-10762179D01*
X19396175Y-10850419D01*
X19396176Y-10850419D01*
X19396177Y-10850420D01*
X19431990Y-10865254D01*
X19530091Y-10905888D01*
X19657080Y-10922606D01*
X19673799Y-10924808D01*
X19673800Y-10924808D01*
X19673801Y-10924808D01*
X19688777Y-10922836D01*
X19817509Y-10905888D01*
X19951425Y-10850419D01*
X20066421Y-10762179D01*
X20154661Y-10647183D01*
X20210130Y-10513267D01*
X20229050Y-10369558D01*
X20210130Y-10225849D01*
X20158607Y-10101459D01*
X20154662Y-10091935D01*
X20154661Y-10091934D01*
X20154661Y-10091933D01*
X20066421Y-9976937D01*
X19951425Y-9888697D01*
X19951424Y-9888696D01*
X19951422Y-9888695D01*
X19810001Y-9830118D01*
X19810910Y-9827921D01*
X19761609Y-9797862D01*
X19731087Y-9735012D01*
X19739389Y-9665637D01*
X19783881Y-9611765D01*
X19805914Y-9599904D01*
X19810467Y-9598019D01*
X19925463Y-9509779D01*
X20013703Y-9394783D01*
X20069172Y-9260867D01*
X20088092Y-9117158D01*
X20069172Y-8973449D01*
X20013703Y-8839533D01*
X19925463Y-8724537D01*
X19810467Y-8636297D01*
X19810466Y-8636296D01*
X19810464Y-8636295D01*
X19676554Y-8580829D01*
X19676552Y-8580828D01*
X19676551Y-8580828D01*
X19599038Y-8570623D01*
X19532843Y-8561908D01*
X19532841Y-8561908D01*
X19389133Y-8580828D01*
X19389129Y-8580829D01*
X19255219Y-8636295D01*
X19140221Y-8724537D01*
X19051979Y-8839535D01*
X18996513Y-8973445D01*
X18996512Y-8973449D01*
X18979287Y-9104287D01*
X18977592Y-9117158D01*
X13861199Y-9117158D01*
X13822956Y-9024830D01*
X13812103Y-8998628D01*
X13812102Y-8998627D01*
X13812102Y-8998626D01*
X13723862Y-8883630D01*
X13608866Y-8795390D01*
X13608865Y-8795389D01*
X13608863Y-8795388D01*
X13472674Y-8738978D01*
X13418270Y-8695138D01*
X13396205Y-8628844D01*
X13413484Y-8561144D01*
X13424263Y-8545764D01*
X13494136Y-8460625D01*
X13582396Y-8295501D01*
X13636747Y-8116331D01*
X13655099Y-7930000D01*
X14284901Y-7930000D01*
X14303252Y-8116331D01*
X14303253Y-8116333D01*
X14357604Y-8295502D01*
X14445862Y-8460623D01*
X14445864Y-8460626D01*
X14564642Y-8605357D01*
X14709373Y-8724135D01*
X14709376Y-8724137D01*
X14842679Y-8795388D01*
X14874499Y-8812396D01*
X14963964Y-8839535D01*
X15053666Y-8866746D01*
X15053668Y-8866747D01*
X15070374Y-8868392D01*
X15240000Y-8885099D01*
X15426331Y-8866747D01*
X15605501Y-8812396D01*
X15770625Y-8724136D01*
X15915357Y-8605357D01*
X16034136Y-8460625D01*
X16122396Y-8295501D01*
X16176747Y-8116331D01*
X16195099Y-7930000D01*
X16824901Y-7930000D01*
X16843252Y-8116331D01*
X16843253Y-8116333D01*
X16897604Y-8295502D01*
X16985862Y-8460623D01*
X16985864Y-8460626D01*
X17104642Y-8605357D01*
X17249373Y-8724135D01*
X17249376Y-8724137D01*
X17382679Y-8795388D01*
X17414499Y-8812396D01*
X17503964Y-8839535D01*
X17593666Y-8866746D01*
X17593668Y-8866747D01*
X17610374Y-8868392D01*
X17780000Y-8885099D01*
X17966331Y-8866747D01*
X18145501Y-8812396D01*
X18310625Y-8724136D01*
X18455357Y-8605357D01*
X18574136Y-8460625D01*
X18662396Y-8295501D01*
X18716747Y-8116331D01*
X18735099Y-7930000D01*
X18716747Y-7743669D01*
X18716746Y-7743667D01*
X18716746Y-7743666D01*
X18704059Y-7701842D01*
X18662396Y-7564499D01*
X18654204Y-7549173D01*
X18574137Y-7399376D01*
X18574135Y-7399373D01*
X18455357Y-7254642D01*
X18310626Y-7135864D01*
X18310623Y-7135862D01*
X18145502Y-7047604D01*
X17966333Y-6993253D01*
X17966331Y-6993252D01*
X17780000Y-6974901D01*
X17593668Y-6993252D01*
X17593666Y-6993253D01*
X17414497Y-7047604D01*
X17249376Y-7135862D01*
X17249373Y-7135864D01*
X17104642Y-7254642D01*
X16985864Y-7399373D01*
X16985862Y-7399376D01*
X16897604Y-7564497D01*
X16843253Y-7743666D01*
X16843252Y-7743668D01*
X16824901Y-7930000D01*
X16195099Y-7930000D01*
X16176747Y-7743669D01*
X16176746Y-7743667D01*
X16176746Y-7743666D01*
X16164059Y-7701842D01*
X16122396Y-7564499D01*
X16114204Y-7549173D01*
X16034137Y-7399376D01*
X16034135Y-7399373D01*
X15915357Y-7254642D01*
X15770626Y-7135864D01*
X15770623Y-7135862D01*
X15605502Y-7047604D01*
X15426333Y-6993253D01*
X15426331Y-6993252D01*
X15240000Y-6974901D01*
X15053668Y-6993252D01*
X15053666Y-6993253D01*
X14874497Y-7047604D01*
X14709376Y-7135862D01*
X14709373Y-7135864D01*
X14564642Y-7254642D01*
X14445864Y-7399373D01*
X14445862Y-7399376D01*
X14357604Y-7564497D01*
X14303253Y-7743666D01*
X14303252Y-7743668D01*
X14284901Y-7930000D01*
X13655099Y-7930000D01*
X13636747Y-7743669D01*
X13636746Y-7743667D01*
X13636746Y-7743666D01*
X13624059Y-7701842D01*
X13582396Y-7564499D01*
X13574204Y-7549173D01*
X13494137Y-7399376D01*
X13494135Y-7399373D01*
X13375357Y-7254642D01*
X13230626Y-7135864D01*
X13230623Y-7135862D01*
X13065502Y-7047604D01*
X12886333Y-6993253D01*
X12886331Y-6993252D01*
X12700000Y-6974901D01*
X12513668Y-6993252D01*
X12513666Y-6993253D01*
X12334497Y-7047604D01*
X12169376Y-7135862D01*
X12169373Y-7135864D01*
X12024642Y-7254642D01*
X11905864Y-7399373D01*
X11905862Y-7399376D01*
X11817604Y-7564497D01*
X11763253Y-7743666D01*
X11763252Y-7743668D01*
X11744901Y-7930000D01*
X11115099Y-7930000D01*
X11096747Y-7743669D01*
X11096746Y-7743667D01*
X11096746Y-7743666D01*
X11084059Y-7701842D01*
X11042396Y-7564499D01*
X11034204Y-7549173D01*
X10954137Y-7399376D01*
X10954135Y-7399373D01*
X10835357Y-7254642D01*
X10690626Y-7135864D01*
X10690623Y-7135862D01*
X10525502Y-7047604D01*
X10346333Y-6993253D01*
X10346331Y-6993252D01*
X10160000Y-6974901D01*
X9973668Y-6993252D01*
X9973666Y-6993253D01*
X9794497Y-7047604D01*
X9629378Y-7135861D01*
X9548703Y-7202070D01*
X9484392Y-7229382D01*
X9415525Y-7217591D01*
X9363965Y-7170438D01*
X9355480Y-7153676D01*
X9352111Y-7145541D01*
X9263871Y-7030545D01*
X9148875Y-6942305D01*
X9148874Y-6942304D01*
X9148872Y-6942303D01*
X9014962Y-6886837D01*
X9014960Y-6886836D01*
X9014959Y-6886836D01*
X8938167Y-6876726D01*
X8871251Y-6867916D01*
X8871249Y-6867916D01*
X8727541Y-6886836D01*
X8727537Y-6886837D01*
X8593627Y-6942303D01*
X8516667Y-7001357D01*
X8478629Y-7030545D01*
X8397815Y-7135864D01*
X8390384Y-7145548D01*
X8390169Y-7145921D01*
X8389905Y-7146172D01*
X8385442Y-7151989D01*
X8384534Y-7151292D01*
X8339599Y-7194134D01*
X8270991Y-7207352D01*
X8206128Y-7181379D01*
X8204121Y-7179767D01*
X8150626Y-7135864D01*
X8150623Y-7135862D01*
X7985502Y-7047604D01*
X7806333Y-6993253D01*
X7806331Y-6993252D01*
X7620000Y-6974901D01*
X7433668Y-6993252D01*
X7433666Y-6993253D01*
X7254497Y-7047604D01*
X7089376Y-7135862D01*
X7089373Y-7135864D01*
X6944642Y-7254642D01*
X6825864Y-7399373D01*
X6825862Y-7399376D01*
X6737604Y-7564497D01*
X6683253Y-7743666D01*
X6683252Y-7743668D01*
X6664901Y-7930000D01*
X6035099Y-7930000D01*
X6016747Y-7743669D01*
X6016746Y-7743667D01*
X6016746Y-7743666D01*
X6004059Y-7701842D01*
X5962396Y-7564499D01*
X5954204Y-7549173D01*
X5874137Y-7399376D01*
X5874135Y-7399373D01*
X5755357Y-7254642D01*
X5610626Y-7135864D01*
X5610623Y-7135862D01*
X5445502Y-7047604D01*
X5266333Y-6993253D01*
X5266331Y-6993252D01*
X5080000Y-6974901D01*
X4893668Y-6993252D01*
X4893666Y-6993253D01*
X4714497Y-7047604D01*
X4549376Y-7135862D01*
X4549373Y-7135864D01*
X4404642Y-7254642D01*
X4285864Y-7399373D01*
X4285862Y-7399376D01*
X4197604Y-7564497D01*
X4143253Y-7743666D01*
X4143252Y-7743668D01*
X4124901Y-7930000D01*
X3495099Y-7930000D01*
X3476747Y-7743669D01*
X3476746Y-7743667D01*
X3476746Y-7743666D01*
X3464059Y-7701842D01*
X3422396Y-7564499D01*
X3414204Y-7549173D01*
X3334137Y-7399376D01*
X3334135Y-7399373D01*
X3215357Y-7254642D01*
X3070626Y-7135864D01*
X3070623Y-7135862D01*
X2905502Y-7047604D01*
X2726333Y-6993253D01*
X2726331Y-6993252D01*
X2540000Y-6974901D01*
X2353668Y-6993252D01*
X2353666Y-6993253D01*
X2174497Y-7047604D01*
X2009376Y-7135862D01*
X2009373Y-7135864D01*
X1864642Y-7254642D01*
X1745864Y-7399373D01*
X1745862Y-7399376D01*
X1657604Y-7564497D01*
X1603253Y-7743666D01*
X1603252Y-7743668D01*
X1584901Y-7930000D01*
X955099Y-7930000D01*
X936747Y-7743669D01*
X936746Y-7743667D01*
X936746Y-7743666D01*
X924059Y-7701842D01*
X882396Y-7564499D01*
X874204Y-7549173D01*
X794137Y-7399376D01*
X794135Y-7399373D01*
X675357Y-7254642D01*
X530626Y-7135864D01*
X530623Y-7135862D01*
X365502Y-7047604D01*
X186333Y-6993253D01*
X186331Y-6993252D01*
X0Y-6974901D01*
X-186332Y-6993252D01*
X-186334Y-6993253D01*
X-365503Y-7047604D01*
X-530624Y-7135862D01*
X-530627Y-7135864D01*
X-675358Y-7254642D01*
X-794136Y-7399373D01*
X-794138Y-7399376D01*
X-882396Y-7564497D01*
X-936747Y-7743666D01*
X-936748Y-7743668D01*
X-955099Y-7930000D01*
X-1584901Y-7930000D01*
X-1603253Y-7743669D01*
X-1603254Y-7743667D01*
X-1603254Y-7743666D01*
X-1615941Y-7701842D01*
X-1657604Y-7564499D01*
X-1665796Y-7549173D01*
X-1745863Y-7399376D01*
X-1745865Y-7399373D01*
X-1864643Y-7254642D01*
X-2009374Y-7135864D01*
X-2009377Y-7135862D01*
X-2174498Y-7047604D01*
X-2353667Y-6993253D01*
X-2353669Y-6993252D01*
X-2540000Y-6974901D01*
X-2726332Y-6993252D01*
X-2726334Y-6993253D01*
X-2905503Y-7047604D01*
X-3070624Y-7135862D01*
X-3070627Y-7135864D01*
X-3215358Y-7254642D01*
X-3334136Y-7399373D01*
X-3334138Y-7399376D01*
X-3422396Y-7564497D01*
X-3476747Y-7743666D01*
X-3476748Y-7743668D01*
X-3495099Y-7930000D01*
X-4124901Y-7930000D01*
X-4143253Y-7743669D01*
X-4143254Y-7743667D01*
X-4143254Y-7743666D01*
X-4155941Y-7701842D01*
X-4197604Y-7564499D01*
X-4205796Y-7549173D01*
X-4285863Y-7399376D01*
X-4285865Y-7399373D01*
X-4404643Y-7254642D01*
X-4549374Y-7135864D01*
X-4549377Y-7135862D01*
X-4714498Y-7047604D01*
X-4893667Y-6993253D01*
X-4893669Y-6993252D01*
X-5080000Y-6974901D01*
X-5266332Y-6993252D01*
X-5266334Y-6993253D01*
X-5445503Y-7047604D01*
X-5610624Y-7135862D01*
X-5610627Y-7135864D01*
X-5755358Y-7254642D01*
X-5874136Y-7399373D01*
X-5874138Y-7399376D01*
X-5962396Y-7564497D01*
X-6016747Y-7743666D01*
X-6016747Y-7743667D01*
X-6021611Y-7793051D01*
X-6047772Y-7857838D01*
X-6104807Y-7898196D01*
X-6174607Y-7901313D01*
X-6183999Y-7898233D01*
X-6188996Y-7896894D01*
X-6188997Y-7896894D01*
X-6276187Y-7885415D01*
X-6332705Y-7877974D01*
X-6332707Y-7877974D01*
X-6476415Y-7896894D01*
X-6487083Y-7901313D01*
X-6506180Y-7909223D01*
X-6575649Y-7916691D01*
X-6638128Y-7885415D01*
X-6673780Y-7825325D01*
X-6677034Y-7806814D01*
X-6683253Y-7743669D01*
X-6683254Y-7743666D01*
X-6695941Y-7701842D01*
X-6737604Y-7564499D01*
X-6745796Y-7549173D01*
X-6825863Y-7399376D01*
X-6825865Y-7399373D01*
X-6944643Y-7254642D01*
X-7089374Y-7135864D01*
X-7089377Y-7135862D01*
X-7254498Y-7047604D01*
X-7433667Y-6993253D01*
X-7433669Y-6993252D01*
X-7620000Y-6974901D01*
X-7806332Y-6993252D01*
X-7806334Y-6993253D01*
X-7985503Y-7047604D01*
X-8150624Y-7135862D01*
X-8150627Y-7135864D01*
X-8295358Y-7254642D01*
X-8414136Y-7399373D01*
X-8414138Y-7399376D01*
X-8502396Y-7564497D01*
X-8556747Y-7743666D01*
X-8556748Y-7743668D01*
X-8575099Y-7930000D01*
X-8556748Y-8116331D01*
X-8556747Y-8116333D01*
X-8502396Y-8295502D01*
X-8414138Y-8460623D01*
X-8414136Y-8460626D01*
X-8295358Y-8605357D01*
X-8150627Y-8724135D01*
X-8150624Y-8724137D01*
X-8017321Y-8795388D01*
X-7985501Y-8812396D01*
X-7896036Y-8839535D01*
X-7806334Y-8866746D01*
X-7806332Y-8866747D01*
X-7789626Y-8868392D01*
X-7620000Y-8885099D01*
X-7433669Y-8866747D01*
X-7254499Y-8812396D01*
X-7089375Y-8724136D01*
X-7008675Y-8657906D01*
X-6944366Y-8630593D01*
X-6875499Y-8642383D01*
X-6823938Y-8689535D01*
X-6815450Y-8706304D01*
X-6813568Y-8710847D01*
X-6813567Y-8710850D01*
X-6787102Y-8745339D01*
X-6740396Y-8806207D01*
X-6715201Y-8871375D01*
X-6729239Y-8939820D01*
X-6763281Y-8980066D01*
X-6775299Y-8989288D01*
X-6775300Y-8989289D01*
X-6775301Y-8989290D01*
X-6799622Y-9020986D01*
X-6863543Y-9104288D01*
X-6919009Y-9238198D01*
X-6919010Y-9238202D01*
X-6936004Y-9367285D01*
X-6937930Y-9381911D01*
X-6921096Y-9509779D01*
X-6919010Y-9525619D01*
X-6917573Y-9530983D01*
X-6919240Y-9600833D01*
X-6958406Y-9658693D01*
X-7022636Y-9686194D01*
X-7091537Y-9674603D01*
X-7095803Y-9672428D01*
X-7254498Y-9587604D01*
X-7433667Y-9533253D01*
X-7433669Y-9533252D01*
X-7620000Y-9514901D01*
X-7806332Y-9533252D01*
X-7806334Y-9533253D01*
X-7985503Y-9587604D01*
X-8150624Y-9675862D01*
X-8150627Y-9675864D01*
X-8295359Y-9794643D01*
X-8343347Y-9853116D01*
X-8401093Y-9892450D01*
X-8470938Y-9894319D01*
X-8530706Y-9858131D01*
X-8561421Y-9795375D01*
X-8562138Y-9758271D01*
X-8544750Y-9626200D01*
X-8563670Y-9482491D01*
X-8619139Y-9348575D01*
X-8707379Y-9233579D01*
X-8822375Y-9145339D01*
X-8822376Y-9145338D01*
X-8822378Y-9145337D01*
X-8956288Y-9089871D01*
X-8956290Y-9089870D01*
X-8956291Y-9089870D01*
X-9028146Y-9080410D01*
X-9099999Y-9070950D01*
X-9100001Y-9070950D01*
X-9243709Y-9089870D01*
X-9243713Y-9089871D01*
X-9377623Y-9145337D01*
X-9492621Y-9233579D01*
X-9580863Y-9348577D01*
X-9636329Y-9482487D01*
X-9636331Y-9482495D01*
X-9636636Y-9484812D01*
X-9637437Y-9486620D01*
X-9638433Y-9490341D01*
X-9639014Y-9490185D01*
X-9664906Y-9548706D01*
X-9723233Y-9587174D01*
X-9793098Y-9588001D01*
X-9795570Y-9587279D01*
X-9973667Y-9533253D01*
X-9973669Y-9533252D01*
X-10160000Y-9514901D01*
X-10346332Y-9533252D01*
X-10346334Y-9533253D01*
X-10525503Y-9587604D01*
X-10690624Y-9675862D01*
X-10690627Y-9675864D01*
X-10835358Y-9794642D01*
X-10954136Y-9939373D01*
X-10954138Y-9939376D01*
X-11042396Y-10104497D01*
X-11096747Y-10283666D01*
X-11096748Y-10283668D01*
X-11115099Y-10470000D01*
X-11755735Y-10470000D01*
X-11763253Y-10393669D01*
X-11817604Y-10214499D01*
X-11863569Y-10128503D01*
X-11905863Y-10049376D01*
X-11905865Y-10049373D01*
X-12024643Y-9904642D01*
X-12169374Y-9785864D01*
X-12169377Y-9785862D01*
X-12334498Y-9697604D01*
X-12513667Y-9643253D01*
X-12513669Y-9643252D01*
X-12700000Y-9624901D01*
X-12886332Y-9643252D01*
X-12886334Y-9643253D01*
X-13065503Y-9697604D01*
X-13230624Y-9785862D01*
X-13230627Y-9785864D01*
X-13375358Y-9904642D01*
X-13494136Y-10049373D01*
X-13494138Y-10049376D01*
X-13582396Y-10214497D01*
X-13636747Y-10393666D01*
X-13636748Y-10393668D01*
X-13655099Y-10580000D01*
X-16835735Y-10580000D01*
X-16824901Y-10470000D01*
X-16843253Y-10283669D01*
X-16897604Y-10104499D01*
X-16899229Y-10101459D01*
X-16985863Y-9939376D01*
X-16985865Y-9939373D01*
X-17104643Y-9794642D01*
X-17249374Y-9675864D01*
X-17249377Y-9675862D01*
X-17414498Y-9587604D01*
X-17593667Y-9533253D01*
X-17593669Y-9533252D01*
X-17780000Y-9514901D01*
X-17966330Y-9533252D01*
X-18110602Y-9577017D01*
X-18180469Y-9577640D01*
X-18239582Y-9540392D01*
X-18269173Y-9477098D01*
X-18269433Y-9451928D01*
X-18269750Y-9451928D01*
X-18269750Y-9443799D01*
X-18275855Y-9397428D01*
X-18288670Y-9300091D01*
X-18343160Y-9168538D01*
X-18344138Y-9166177D01*
X-18344139Y-9166176D01*
X-18344139Y-9166175D01*
X-18432379Y-9051179D01*
X-18547375Y-8962939D01*
X-18547376Y-8962938D01*
X-18547378Y-8962937D01*
X-18681288Y-8907471D01*
X-18681290Y-8907470D01*
X-18681291Y-8907470D01*
X-18797458Y-8892176D01*
X-18824999Y-8888550D01*
X-18825001Y-8888550D01*
X-18968709Y-8907470D01*
X-18968713Y-8907471D01*
X-19102623Y-8962937D01*
X-19217621Y-9051179D01*
X-19305863Y-9166177D01*
X-19361329Y-9300087D01*
X-19361330Y-9300091D01*
X-19380250Y-9443800D01*
X-21687656Y-9443800D01*
X-21657050Y-9369909D01*
X-21638130Y-9226200D01*
X-21657050Y-9082491D01*
X-21703883Y-8969424D01*
X-21712518Y-8948577D01*
X-21712519Y-8948576D01*
X-21712519Y-8948575D01*
X-21800759Y-8833579D01*
X-21915755Y-8745339D01*
X-21915756Y-8745338D01*
X-21915758Y-8745337D01*
X-22049668Y-8689871D01*
X-22049670Y-8689870D01*
X-22049671Y-8689870D01*
X-22137848Y-8678261D01*
X-22193379Y-8670950D01*
X-22193381Y-8670950D01*
X-22337089Y-8689870D01*
X-22337093Y-8689871D01*
X-22471003Y-8745337D01*
X-22586001Y-8833579D01*
X-22674243Y-8948577D01*
X-22729709Y-9082487D01*
X-22729710Y-9082491D01*
X-22736299Y-9132542D01*
X-22748630Y-9226200D01*
X-28308816Y-9226200D01*
X-28288291Y-8991599D01*
X-28287939Y-8969416D01*
X-28303817Y-8683772D01*
X-28306625Y-8661763D01*
X-28362995Y-8381285D01*
X-28368907Y-8359901D01*
X-28464618Y-8090300D01*
X-28473514Y-8069974D01*
X-28606619Y-7816740D01*
X-28606626Y-7816728D01*
X-28618305Y-7797905D01*
X-28618315Y-7797890D01*
X-28657579Y-7743667D01*
X-28786105Y-7566173D01*
X-28800366Y-7549177D01*
X-28800369Y-7549173D01*
X-28800374Y-7549168D01*
X-28999423Y-7343701D01*
X-28999428Y-7343696D01*
X-29015945Y-7328919D01*
X-29015949Y-7328916D01*
X-29015960Y-7328906D01*
X-29242234Y-7153850D01*
X-29260706Y-7141561D01*
X-29260707Y-7141560D01*
X-29509583Y-7000491D01*
X-29529615Y-6990956D01*
X-29529613Y-6990956D01*
X-29529623Y-6990952D01*
X-29774976Y-6894979D01*
X-29830236Y-6852226D01*
X-29853611Y-6786382D01*
X-29837678Y-6718354D01*
X-29787495Y-6669739D01*
X-29729802Y-6655500D01*
X-27206040Y-6655500D01*
X-27206035Y-6655500D01*
X-27178658Y-6653071D01*
X-27135678Y-6645384D01*
X-27070246Y-6617080D01*
X-27014186Y-6575379D01*
X-27008357Y-6570823D01*
X-26961466Y-6505399D01*
X-26961466Y-6505396D01*
X-26956732Y-6498793D01*
X-26954317Y-6500524D01*
X-26915346Y-6460831D01*
X-26847212Y-6445352D01*
X-26795166Y-6460460D01*
X-24888048Y-7509375D01*
X-23475536Y-8286257D01*
X-23475525Y-8286262D01*
X-23462380Y-8292704D01*
X-23462372Y-8292708D01*
X-23455875Y-8295520D01*
X-23444217Y-8300566D01*
X-23444210Y-8300567D01*
X-23444208Y-8300568D01*
X-23416918Y-8306220D01*
X-23382450Y-8313360D01*
X-23382448Y-8313361D01*
X-23382447Y-8313361D01*
X-23317572Y-8313361D01*
X-23317553Y-8313361D01*
X-23301298Y-8312509D01*
X-23226152Y-8283663D01*
X-23173652Y-8245519D01*
X-23161003Y-8235276D01*
X-23117164Y-8167769D01*
X-23111828Y-8151348D01*
X-23110315Y-8146689D01*
X-23097111Y-8106052D01*
X-23089500Y-8058000D01*
X-23089500Y-7842791D01*
X-22712459Y-7842791D01*
X-22700978Y-7930000D01*
X-22693539Y-7986499D01*
X-22693538Y-7986503D01*
X-22638072Y-8120413D01*
X-22638071Y-8120415D01*
X-22638070Y-8120416D01*
X-22549830Y-8235412D01*
X-22434834Y-8323652D01*
X-22300918Y-8379121D01*
X-22173929Y-8395839D01*
X-22157210Y-8398041D01*
X-22157209Y-8398041D01*
X-22157208Y-8398041D01*
X-22142232Y-8396069D01*
X-22013500Y-8379121D01*
X-21879584Y-8323652D01*
X-21764588Y-8235412D01*
X-21676348Y-8120416D01*
X-21620879Y-7986500D01*
X-21601959Y-7842791D01*
X-21620879Y-7699082D01*
X-21676348Y-7565166D01*
X-21764588Y-7450170D01*
X-21879584Y-7361930D01*
X-21879585Y-7361929D01*
X-21879587Y-7361928D01*
X-22013497Y-7306462D01*
X-22013499Y-7306461D01*
X-22013500Y-7306461D01*
X-22122026Y-7292173D01*
X-22157208Y-7287541D01*
X-22157210Y-7287541D01*
X-22300918Y-7306461D01*
X-22300922Y-7306462D01*
X-22434832Y-7361928D01*
X-22549830Y-7450170D01*
X-22638072Y-7565168D01*
X-22693538Y-7699078D01*
X-22693539Y-7699082D01*
X-22707722Y-7806814D01*
X-22712459Y-7842791D01*
X-23089500Y-7842791D01*
X-23089500Y-7082500D01*
X-23069815Y-7015461D01*
X-23017011Y-6969706D01*
X-22965500Y-6958500D01*
X-21052275Y-6958500D01*
X-20985236Y-6978185D01*
X-20939481Y-7030989D01*
X-20929537Y-7100147D01*
X-20958562Y-7163703D01*
X-21004823Y-7197061D01*
X-21062569Y-7220979D01*
X-21177567Y-7309221D01*
X-21265809Y-7424219D01*
X-21321274Y-7558127D01*
X-21321276Y-7558133D01*
X-21336446Y-7673362D01*
X-21340196Y-7701842D01*
X-21334690Y-7743667D01*
X-21321276Y-7845550D01*
X-21321275Y-7845554D01*
X-21265809Y-7979464D01*
X-21265808Y-7979465D01*
X-21265807Y-7979467D01*
X-21177567Y-8094463D01*
X-21142922Y-8121047D01*
X-21084909Y-8165563D01*
X-21043707Y-8221991D01*
X-21039552Y-8291737D01*
X-21062019Y-8339423D01*
X-21073653Y-8354584D01*
X-21073653Y-8354585D01*
X-21129120Y-8488496D01*
X-21129121Y-8488500D01*
X-21141276Y-8580828D01*
X-21148041Y-8632209D01*
X-21135886Y-8724537D01*
X-21129121Y-8775917D01*
X-21129120Y-8775921D01*
X-21073654Y-8909831D01*
X-21073653Y-8909833D01*
X-21073652Y-8909834D01*
X-20985412Y-9024830D01*
X-20870416Y-9113070D01*
X-20870415Y-9113070D01*
X-20870414Y-9113071D01*
X-20868456Y-9113882D01*
X-20736500Y-9168539D01*
X-20609511Y-9185257D01*
X-20592792Y-9187459D01*
X-20592791Y-9187459D01*
X-20592790Y-9187459D01*
X-20577814Y-9185487D01*
X-20449082Y-9168539D01*
X-20315166Y-9113070D01*
X-20200170Y-9024830D01*
X-20111930Y-8909834D01*
X-20056461Y-8775918D01*
X-20037541Y-8632209D01*
X-20056461Y-8488500D01*
X-20111930Y-8354584D01*
X-20200170Y-8239588D01*
X-20239092Y-8209722D01*
X-20292829Y-8168487D01*
X-20334032Y-8112059D01*
X-20338186Y-8042313D01*
X-20315717Y-7994625D01*
X-20304085Y-7979467D01*
X-20300485Y-7970777D01*
X-20287431Y-7939260D01*
X-20283595Y-7930000D01*
X-18735099Y-7930000D01*
X-18716748Y-8116331D01*
X-18716747Y-8116333D01*
X-18662396Y-8295502D01*
X-18574138Y-8460623D01*
X-18574136Y-8460626D01*
X-18455358Y-8605357D01*
X-18310627Y-8724135D01*
X-18310624Y-8724137D01*
X-18177321Y-8795388D01*
X-18145501Y-8812396D01*
X-18056036Y-8839535D01*
X-17966334Y-8866746D01*
X-17966332Y-8866747D01*
X-17949626Y-8868392D01*
X-17780000Y-8885099D01*
X-17593669Y-8866747D01*
X-17475686Y-8830957D01*
X-16800626Y-8830957D01*
X-16788513Y-8922958D01*
X-16781706Y-8974665D01*
X-16781705Y-8974669D01*
X-16726239Y-9108579D01*
X-16726238Y-9108581D01*
X-16726237Y-9108582D01*
X-16637997Y-9223578D01*
X-16523001Y-9311818D01*
X-16389085Y-9367287D01*
X-16262096Y-9384005D01*
X-16245377Y-9386207D01*
X-16245376Y-9386207D01*
X-16245375Y-9386207D01*
X-16230399Y-9384235D01*
X-16101667Y-9367287D01*
X-15967751Y-9311818D01*
X-15852755Y-9223578D01*
X-15764515Y-9108582D01*
X-15709046Y-8974666D01*
X-15703603Y-8933322D01*
X-15675339Y-8869428D01*
X-15617015Y-8830956D01*
X-15547150Y-8830124D01*
X-15544698Y-8830840D01*
X-15426334Y-8866746D01*
X-15426332Y-8866747D01*
X-15409626Y-8868392D01*
X-15240000Y-8885099D01*
X-15053669Y-8866747D01*
X-14874499Y-8812396D01*
X-14709375Y-8724136D01*
X-14564643Y-8605357D01*
X-14445864Y-8460625D01*
X-14357604Y-8295501D01*
X-14303253Y-8116331D01*
X-14295735Y-8040000D01*
X-13655099Y-8040000D01*
X-13636748Y-8226331D01*
X-13636747Y-8226333D01*
X-13582396Y-8405502D01*
X-13494138Y-8570623D01*
X-13494136Y-8570626D01*
X-13375358Y-8715357D01*
X-13230627Y-8834135D01*
X-13230624Y-8834137D01*
X-13110913Y-8898123D01*
X-13065501Y-8922396D01*
X-12893194Y-8974665D01*
X-12886334Y-8976746D01*
X-12886332Y-8976747D01*
X-12869626Y-8978392D01*
X-12700000Y-8995099D01*
X-12513669Y-8976747D01*
X-12334499Y-8922396D01*
X-12169375Y-8834136D01*
X-12024643Y-8715357D01*
X-11905864Y-8570625D01*
X-11817604Y-8405501D01*
X-11763253Y-8226331D01*
X-11744901Y-8040000D01*
X-11755735Y-7930000D01*
X-11115099Y-7930000D01*
X-11096748Y-8116331D01*
X-11096747Y-8116333D01*
X-11042396Y-8295502D01*
X-10954138Y-8460623D01*
X-10954136Y-8460626D01*
X-10835358Y-8605357D01*
X-10690627Y-8724135D01*
X-10690624Y-8724137D01*
X-10557321Y-8795388D01*
X-10525501Y-8812396D01*
X-10436036Y-8839535D01*
X-10346334Y-8866746D01*
X-10346332Y-8866747D01*
X-10329626Y-8868392D01*
X-10160000Y-8885099D01*
X-9973669Y-8866747D01*
X-9794499Y-8812396D01*
X-9629375Y-8724136D01*
X-9484643Y-8605357D01*
X-9365864Y-8460625D01*
X-9277604Y-8295501D01*
X-9223253Y-8116331D01*
X-9204901Y-7930000D01*
X-9223253Y-7743669D01*
X-9223254Y-7743667D01*
X-9223254Y-7743666D01*
X-9235941Y-7701842D01*
X-9277604Y-7564499D01*
X-9285796Y-7549173D01*
X-9365863Y-7399376D01*
X-9365865Y-7399373D01*
X-9484643Y-7254642D01*
X-9629374Y-7135864D01*
X-9629377Y-7135862D01*
X-9794498Y-7047604D01*
X-9973667Y-6993253D01*
X-9973669Y-6993252D01*
X-10160000Y-6974901D01*
X-10346332Y-6993252D01*
X-10346334Y-6993253D01*
X-10525503Y-7047604D01*
X-10690624Y-7135862D01*
X-10690627Y-7135864D01*
X-10835358Y-7254642D01*
X-10954136Y-7399373D01*
X-10954138Y-7399376D01*
X-11042396Y-7564497D01*
X-11096747Y-7743666D01*
X-11096748Y-7743668D01*
X-11115099Y-7930000D01*
X-11755735Y-7930000D01*
X-11763253Y-7853669D01*
X-11817604Y-7674499D01*
X-11876043Y-7565166D01*
X-11905863Y-7509376D01*
X-11905865Y-7509373D01*
X-12024643Y-7364642D01*
X-12169374Y-7245864D01*
X-12169377Y-7245862D01*
X-12334498Y-7157604D01*
X-12513667Y-7103253D01*
X-12513669Y-7103252D01*
X-12700000Y-7084901D01*
X-12886332Y-7103252D01*
X-12886334Y-7103253D01*
X-13065503Y-7157604D01*
X-13230624Y-7245862D01*
X-13230627Y-7245864D01*
X-13375358Y-7364642D01*
X-13494136Y-7509373D01*
X-13494138Y-7509376D01*
X-13582396Y-7674497D01*
X-13636747Y-7853666D01*
X-13636748Y-7853668D01*
X-13655099Y-8040000D01*
X-14295735Y-8040000D01*
X-14284901Y-7930000D01*
X-14303253Y-7743669D01*
X-14303254Y-7743667D01*
X-14303254Y-7743666D01*
X-14315941Y-7701842D01*
X-14357604Y-7564499D01*
X-14365796Y-7549173D01*
X-14445863Y-7399376D01*
X-14445865Y-7399373D01*
X-14564643Y-7254642D01*
X-14709374Y-7135864D01*
X-14709377Y-7135862D01*
X-14874498Y-7047604D01*
X-15053667Y-6993253D01*
X-15053669Y-6993252D01*
X-15240000Y-6974901D01*
X-15426332Y-6993252D01*
X-15426334Y-6993253D01*
X-15605503Y-7047604D01*
X-15770624Y-7135862D01*
X-15770627Y-7135864D01*
X-15915358Y-7254642D01*
X-16034136Y-7399373D01*
X-16034138Y-7399376D01*
X-16122396Y-7564497D01*
X-16176747Y-7743666D01*
X-16176748Y-7743668D01*
X-16195099Y-7929999D01*
X-16176747Y-8116332D01*
X-16175317Y-8121047D01*
X-16174698Y-8190914D01*
X-16211950Y-8250024D01*
X-16275245Y-8279612D01*
X-16277793Y-8279974D01*
X-16389085Y-8294627D01*
X-16389089Y-8294628D01*
X-16522999Y-8350094D01*
X-16637997Y-8438336D01*
X-16726239Y-8553334D01*
X-16781705Y-8687244D01*
X-16781706Y-8687248D01*
X-16797367Y-8806206D01*
X-16800626Y-8830957D01*
X-17475686Y-8830957D01*
X-17414499Y-8812396D01*
X-17249375Y-8724136D01*
X-17104643Y-8605357D01*
X-16985864Y-8460625D01*
X-16897604Y-8295501D01*
X-16843253Y-8116331D01*
X-16824901Y-7930000D01*
X-16843253Y-7743669D01*
X-16843254Y-7743667D01*
X-16843254Y-7743666D01*
X-16855941Y-7701842D01*
X-16897604Y-7564499D01*
X-16905796Y-7549173D01*
X-16985863Y-7399376D01*
X-16985865Y-7399373D01*
X-17104643Y-7254642D01*
X-17249374Y-7135864D01*
X-17249377Y-7135862D01*
X-17414498Y-7047604D01*
X-17593667Y-6993253D01*
X-17593669Y-6993252D01*
X-17780000Y-6974901D01*
X-17966332Y-6993252D01*
X-17966334Y-6993253D01*
X-18145503Y-7047604D01*
X-18310624Y-7135862D01*
X-18310627Y-7135864D01*
X-18455358Y-7254642D01*
X-18574136Y-7399373D01*
X-18574138Y-7399376D01*
X-18662396Y-7564497D01*
X-18716747Y-7743666D01*
X-18716748Y-7743668D01*
X-18735099Y-7930000D01*
X-20283595Y-7930000D01*
X-20248616Y-7845551D01*
X-20229696Y-7701842D01*
X-20248616Y-7558133D01*
X-20252326Y-7549177D01*
X-20304084Y-7424219D01*
X-20304085Y-7424218D01*
X-20304085Y-7424217D01*
X-20392325Y-7309221D01*
X-20507321Y-7220981D01*
X-20507322Y-7220980D01*
X-20507324Y-7220979D01*
X-20565069Y-7197061D01*
X-20619473Y-7153220D01*
X-20641538Y-7086926D01*
X-20624259Y-7019227D01*
X-20573122Y-6971616D01*
X-20517617Y-6958500D01*
X-19684978Y-6958500D01*
X-19641083Y-6949768D01*
X-19641083Y-6949767D01*
X-19641078Y-6949767D01*
X-19591296Y-6916504D01*
X-19558033Y-6866722D01*
X-19553057Y-6841706D01*
X-19549300Y-6822822D01*
X-19549300Y-6520495D01*
X-1740250Y-6520495D01*
X-1731413Y-6587621D01*
X-1721330Y-6664203D01*
X-1721329Y-6664207D01*
X-1665863Y-6798117D01*
X-1665862Y-6798119D01*
X-1665861Y-6798120D01*
X-1577621Y-6913116D01*
X-1462625Y-7001356D01*
X-1328709Y-7056825D01*
X-1201720Y-7073543D01*
X-1185001Y-7075745D01*
X-1185000Y-7075745D01*
X-1184999Y-7075745D01*
X-1170023Y-7073773D01*
X-1041291Y-7056825D01*
X-907375Y-7001356D01*
X-792379Y-6913116D01*
X-723094Y-6822822D01*
X19549299Y-6822822D01*
X19558031Y-6866717D01*
X19558034Y-6866724D01*
X19589032Y-6913116D01*
X19591296Y-6916504D01*
X19641078Y-6949767D01*
X19641081Y-6949767D01*
X19641082Y-6949768D01*
X19684977Y-6958500D01*
X19684980Y-6958500D01*
X22965500Y-6958500D01*
X23032539Y-6978185D01*
X23078294Y-7030989D01*
X23089500Y-7082500D01*
X23089500Y-8058017D01*
X23090191Y-8072650D01*
X23090192Y-8072661D01*
X23092055Y-8092345D01*
X23099439Y-8116332D01*
X23110612Y-8152631D01*
X23141885Y-8209492D01*
X23150464Y-8223324D01*
X23211954Y-8275268D01*
X23249025Y-8292704D01*
X23270674Y-8302887D01*
X23278933Y-8306255D01*
X23285750Y-8309035D01*
X23366027Y-8314915D01*
X23429768Y-8302743D01*
X23475539Y-8286255D01*
X28475539Y-5536255D01*
X28492003Y-5525804D01*
X28513265Y-5510356D01*
X28558115Y-5459492D01*
X28589388Y-5402631D01*
X28596474Y-5387980D01*
X28607414Y-5308234D01*
X28606392Y-5300135D01*
X28599295Y-5243867D01*
X28599293Y-5243851D01*
X28596413Y-5227831D01*
X28596412Y-5227829D01*
X28596412Y-5227828D01*
X28558391Y-5156886D01*
X28513978Y-5109573D01*
X28513977Y-5109572D01*
X28513976Y-5109571D01*
X28475539Y-5079745D01*
X28475537Y-5079744D01*
X28475536Y-5079743D01*
X23475535Y-2329742D01*
X23475524Y-2329737D01*
X23462379Y-2323295D01*
X23462371Y-2323291D01*
X23444223Y-2315436D01*
X23444207Y-2315431D01*
X23382449Y-2302639D01*
X23382447Y-2302639D01*
X23317553Y-2302639D01*
X23317535Y-2302639D01*
X23301298Y-2303491D01*
X23226151Y-2332337D01*
X23173651Y-2370481D01*
X23161004Y-2380723D01*
X23117162Y-2448232D01*
X23097111Y-2509946D01*
X23097110Y-2509951D01*
X23089500Y-2558000D01*
X23089500Y-3533500D01*
X23069815Y-3600539D01*
X23017011Y-3646294D01*
X22965500Y-3657500D01*
X19684978Y-3657500D01*
X19641082Y-3666231D01*
X19641075Y-3666234D01*
X19591296Y-3699495D01*
X19591295Y-3699496D01*
X19558034Y-3749275D01*
X19558031Y-3749282D01*
X19549300Y-3793177D01*
X19549300Y-3793180D01*
X19549300Y-6822820D01*
X19549300Y-6822822D01*
X19549299Y-6822822D01*
X-723094Y-6822822D01*
X-704139Y-6798120D01*
X-648670Y-6664204D01*
X-629750Y-6520495D01*
X-648670Y-6376786D01*
X-698777Y-6255815D01*
X-704138Y-6242872D01*
X-704139Y-6242871D01*
X-704139Y-6242870D01*
X-792379Y-6127874D01*
X-907375Y-6039634D01*
X-907376Y-6039633D01*
X-907378Y-6039632D01*
X-1041288Y-5984166D01*
X-1041290Y-5984165D01*
X-1041291Y-5984165D01*
X-1125838Y-5973034D01*
X-1184999Y-5965245D01*
X-1185001Y-5965245D01*
X-1328709Y-5984165D01*
X-1328713Y-5984166D01*
X-1462623Y-6039632D01*
X-1577621Y-6127874D01*
X-1665863Y-6242872D01*
X-1721329Y-6376782D01*
X-1721330Y-6376786D01*
X-1735091Y-6481313D01*
X-1740250Y-6520495D01*
X-19549300Y-6520495D01*
X-19549300Y-5100000D01*
X-17205250Y-5100000D01*
X-17190251Y-5213930D01*
X-17186330Y-5243708D01*
X-17186329Y-5243712D01*
X-17130863Y-5377622D01*
X-17130862Y-5377624D01*
X-17130861Y-5377625D01*
X-17042621Y-5492621D01*
X-16927625Y-5580861D01*
X-16927624Y-5580861D01*
X-16927623Y-5580862D01*
X-16882987Y-5599350D01*
X-16793709Y-5636330D01*
X-16666720Y-5653048D01*
X-16650001Y-5655250D01*
X-16650000Y-5655250D01*
X-16649999Y-5655250D01*
X-16635023Y-5653278D01*
X-16506291Y-5636330D01*
X-16372375Y-5580861D01*
X-16257379Y-5492621D01*
X-16220472Y-5444523D01*
X-6932420Y-5444523D01*
X-6914814Y-5578255D01*
X-6913500Y-5588231D01*
X-6913499Y-5588235D01*
X-6858033Y-5722145D01*
X-6858032Y-5722147D01*
X-6858031Y-5722148D01*
X-6769791Y-5837144D01*
X-6654795Y-5925384D01*
X-6520879Y-5980853D01*
X-6393890Y-5997571D01*
X-6377171Y-5999773D01*
X-6377170Y-5999773D01*
X-6377169Y-5999773D01*
X-6362193Y-5997801D01*
X-6233461Y-5980853D01*
X-6099545Y-5925384D01*
X-5984549Y-5837144D01*
X-5896309Y-5722148D01*
X-5840840Y-5588232D01*
X-5828905Y-5497573D01*
X-5800639Y-5433678D01*
X-5742314Y-5395207D01*
X-5672450Y-5394376D01*
X-5658514Y-5399199D01*
X-5603124Y-5422141D01*
X-5525918Y-5454121D01*
X-5398929Y-5470839D01*
X-5382210Y-5473041D01*
X-5382209Y-5473041D01*
X-5382208Y-5473041D01*
X-5367232Y-5471069D01*
X-5238500Y-5454121D01*
X-5104584Y-5398652D01*
X-4989588Y-5310412D01*
X-4901348Y-5195416D01*
X-4845879Y-5061500D01*
X-4828274Y-4927777D01*
X-4800007Y-4863882D01*
X-4741683Y-4825411D01*
X-4671818Y-4824580D01*
X-4629849Y-4845588D01*
X-4614646Y-4857254D01*
X-4553827Y-4903923D01*
X-4553826Y-4903923D01*
X-4553825Y-4903924D01*
X-4419909Y-4959393D01*
X-4292920Y-4976111D01*
X-4276201Y-4978313D01*
X-4276200Y-4978313D01*
X-4276199Y-4978313D01*
X-4261223Y-4976341D01*
X-4132491Y-4959393D01*
X-3998575Y-4903924D01*
X-3883579Y-4815684D01*
X-3815836Y-4727400D01*
X-3340902Y-4727400D01*
X-3322821Y-4864740D01*
X-3321982Y-4871108D01*
X-3321981Y-4871112D01*
X-3266515Y-5005022D01*
X-3266514Y-5005024D01*
X-3266513Y-5005025D01*
X-3178273Y-5120021D01*
X-3063277Y-5208261D01*
X-3063276Y-5208261D01*
X-3063275Y-5208262D01*
X-3049593Y-5213929D01*
X-2929361Y-5263730D01*
X-2802372Y-5280448D01*
X-2785653Y-5282650D01*
X-2785652Y-5282650D01*
X-2785651Y-5282650D01*
X-2770675Y-5280678D01*
X-2641943Y-5263730D01*
X-2508027Y-5208261D01*
X-2478539Y-5185634D01*
X-2031399Y-5185634D01*
X-2013819Y-5319168D01*
X-2012479Y-5329342D01*
X-2012478Y-5329346D01*
X-1957012Y-5463256D01*
X-1957011Y-5463258D01*
X-1957010Y-5463259D01*
X-1868770Y-5578255D01*
X-1753774Y-5666495D01*
X-1619858Y-5721964D01*
X-1492869Y-5738682D01*
X-1476150Y-5740884D01*
X-1476149Y-5740884D01*
X-1476148Y-5740884D01*
X-1461172Y-5738912D01*
X-1332440Y-5721964D01*
X-1198524Y-5666495D01*
X-1083528Y-5578255D01*
X-995288Y-5463259D01*
X-939819Y-5329343D01*
X-932329Y-5272447D01*
X-904063Y-5208552D01*
X-845738Y-5170081D01*
X-775874Y-5169250D01*
X-761948Y-5174069D01*
X-665714Y-5213930D01*
X-538725Y-5230648D01*
X-522006Y-5232850D01*
X-522005Y-5232850D01*
X-522004Y-5232850D01*
X-507028Y-5230878D01*
X-378296Y-5213930D01*
X-244380Y-5158461D01*
X-129384Y-5070221D01*
X-41144Y-4955225D01*
X-563Y-4857250D01*
X43276Y-4802850D01*
X109569Y-4780784D01*
X177269Y-4798062D01*
X224880Y-4849199D01*
X228558Y-4857253D01*
X269137Y-4955222D01*
X269138Y-4955223D01*
X269139Y-4955225D01*
X357379Y-5070221D01*
X472375Y-5158461D01*
X472376Y-5158461D01*
X472377Y-5158462D01*
X510066Y-5174073D01*
X606291Y-5213930D01*
X733280Y-5230648D01*
X749999Y-5232850D01*
X754892Y-5232850D01*
X821931Y-5252535D01*
X867686Y-5305339D01*
X877630Y-5374497D01*
X869453Y-5404302D01*
X818669Y-5526906D01*
X818668Y-5526910D01*
X799748Y-5670618D01*
X799748Y-5670619D01*
X818668Y-5814327D01*
X818669Y-5814331D01*
X874135Y-5948241D01*
X874136Y-5948243D01*
X874137Y-5948244D01*
X962377Y-6063240D01*
X1077373Y-6151480D01*
X1211289Y-6206949D01*
X1338278Y-6223667D01*
X1354997Y-6225869D01*
X1354998Y-6225869D01*
X1354999Y-6225869D01*
X1369975Y-6223897D01*
X1498707Y-6206949D01*
X1632623Y-6151480D01*
X1747619Y-6063240D01*
X1835859Y-5948244D01*
X1891328Y-5814328D01*
X1910248Y-5670619D01*
X1891328Y-5526910D01*
X1836776Y-5395207D01*
X1835860Y-5392996D01*
X1835859Y-5392995D01*
X1835859Y-5392994D01*
X1747619Y-5277998D01*
X1632623Y-5189758D01*
X1632622Y-5189757D01*
X1632620Y-5189756D01*
X1498710Y-5134290D01*
X1498708Y-5134289D01*
X1498707Y-5134289D01*
X1390333Y-5120021D01*
X1354999Y-5115369D01*
X1350106Y-5115369D01*
X1283067Y-5095684D01*
X1237312Y-5042880D01*
X1227368Y-4973722D01*
X1235545Y-4943917D01*
X1249786Y-4909535D01*
X1286330Y-4821309D01*
X1305250Y-4677600D01*
X1286330Y-4533891D01*
X1230861Y-4399975D01*
X1192514Y-4350000D01*
X7219750Y-4350000D01*
X7237698Y-4486329D01*
X7238670Y-4493708D01*
X7238671Y-4493712D01*
X7294137Y-4627622D01*
X7294138Y-4627624D01*
X7294139Y-4627625D01*
X7382379Y-4742621D01*
X7497375Y-4830861D01*
X7631291Y-4886330D01*
X7758280Y-4903048D01*
X7774999Y-4905250D01*
X7775000Y-4905250D01*
X7775001Y-4905250D01*
X7789977Y-4903278D01*
X7814861Y-4900002D01*
X14444750Y-4900002D01*
X14460043Y-5016165D01*
X14463670Y-5043710D01*
X14463671Y-5043714D01*
X14519137Y-5177624D01*
X14519138Y-5177626D01*
X14519139Y-5177627D01*
X14607379Y-5292623D01*
X14722375Y-5380863D01*
X14856291Y-5436332D01*
X14983280Y-5453050D01*
X14999999Y-5455252D01*
X15000000Y-5455252D01*
X15000001Y-5455252D01*
X15014977Y-5453280D01*
X15143709Y-5436332D01*
X15277625Y-5380863D01*
X15392621Y-5292623D01*
X15480861Y-5177627D01*
X15536330Y-5043711D01*
X15555250Y-4900002D01*
X15553837Y-4889273D01*
X15551446Y-4871108D01*
X15536330Y-4756293D01*
X15494242Y-4654682D01*
X15480862Y-4622379D01*
X15480861Y-4622378D01*
X15480861Y-4622377D01*
X15392621Y-4507381D01*
X15277625Y-4419141D01*
X15277624Y-4419140D01*
X15277622Y-4419139D01*
X15143712Y-4363673D01*
X15143710Y-4363672D01*
X15143709Y-4363672D01*
X15039862Y-4350000D01*
X15000001Y-4344752D01*
X14999999Y-4344752D01*
X14856291Y-4363672D01*
X14856287Y-4363673D01*
X14722377Y-4419139D01*
X14607379Y-4507381D01*
X14519137Y-4622379D01*
X14463671Y-4756289D01*
X14463670Y-4756293D01*
X14446163Y-4889273D01*
X14444750Y-4900002D01*
X7814861Y-4900002D01*
X7918709Y-4886330D01*
X8052625Y-4830861D01*
X8167621Y-4742621D01*
X8255861Y-4627625D01*
X8311330Y-4493709D01*
X8330250Y-4350000D01*
X8311330Y-4206291D01*
X8255861Y-4072375D01*
X8167621Y-3957379D01*
X8158003Y-3949999D01*
X11344750Y-3949999D01*
X11344750Y-3950000D01*
X11363670Y-4093708D01*
X11363671Y-4093712D01*
X11419137Y-4227622D01*
X11419138Y-4227624D01*
X11419139Y-4227625D01*
X11507379Y-4342621D01*
X11622375Y-4430861D01*
X11756291Y-4486330D01*
X11883280Y-4503048D01*
X11899999Y-4505250D01*
X11900000Y-4505250D01*
X11900001Y-4505250D01*
X11914977Y-4503278D01*
X12043709Y-4486330D01*
X12177625Y-4430861D01*
X12292621Y-4342621D01*
X12380861Y-4227625D01*
X12436330Y-4093709D01*
X12455250Y-3950000D01*
X12436330Y-3806291D01*
X12380861Y-3672375D01*
X12292621Y-3557379D01*
X12177625Y-3469139D01*
X12177624Y-3469138D01*
X12177622Y-3469137D01*
X12043712Y-3413671D01*
X12043710Y-3413670D01*
X12043709Y-3413670D01*
X11971854Y-3404210D01*
X11900001Y-3394750D01*
X11899999Y-3394750D01*
X11756291Y-3413670D01*
X11756287Y-3413671D01*
X11622377Y-3469137D01*
X11507379Y-3557379D01*
X11419137Y-3672377D01*
X11363671Y-3806287D01*
X11363670Y-3806291D01*
X11344750Y-3949999D01*
X8158003Y-3949999D01*
X8052625Y-3869139D01*
X8052624Y-3869138D01*
X8052622Y-3869137D01*
X7918712Y-3813671D01*
X7918710Y-3813670D01*
X7918709Y-3813670D01*
X7812029Y-3799625D01*
X7775001Y-3794750D01*
X7774999Y-3794750D01*
X7631291Y-3813670D01*
X7631287Y-3813671D01*
X7497377Y-3869137D01*
X7382379Y-3957379D01*
X7294137Y-4072377D01*
X7238671Y-4206287D01*
X7238670Y-4206291D01*
X7220722Y-4342620D01*
X7219750Y-4350000D01*
X1192514Y-4350000D01*
X1142621Y-4284979D01*
X1027625Y-4196739D01*
X1027624Y-4196738D01*
X1027622Y-4196737D01*
X893712Y-4141271D01*
X893710Y-4141270D01*
X893709Y-4141270D01*
X812649Y-4130598D01*
X750001Y-4122350D01*
X749999Y-4122350D01*
X606291Y-4141270D01*
X606287Y-4141271D01*
X472377Y-4196737D01*
X357379Y-4284979D01*
X269138Y-4399976D01*
X228558Y-4497947D01*
X184717Y-4552350D01*
X118423Y-4574415D01*
X50724Y-4557136D01*
X3113Y-4505999D01*
X-551Y-4497976D01*
X-41144Y-4399975D01*
X-129384Y-4284979D01*
X-244380Y-4196739D01*
X-244381Y-4196738D01*
X-244383Y-4196737D01*
X-378293Y-4141271D01*
X-378295Y-4141270D01*
X-378296Y-4141270D01*
X-459356Y-4130598D01*
X-522004Y-4122350D01*
X-522006Y-4122350D01*
X-665714Y-4141270D01*
X-665718Y-4141271D01*
X-799628Y-4196737D01*
X-914626Y-4284979D01*
X-1002868Y-4399977D01*
X-1058334Y-4533887D01*
X-1058335Y-4533891D01*
X-1065826Y-4590786D01*
X-1094094Y-4654682D01*
X-1152419Y-4693153D01*
X-1222283Y-4693983D01*
X-1236217Y-4689160D01*
X-1332437Y-4649305D01*
X-1332439Y-4649304D01*
X-1332440Y-4649304D01*
X-1404295Y-4639844D01*
X-1476148Y-4630384D01*
X-1476150Y-4630384D01*
X-1619858Y-4649304D01*
X-1619862Y-4649305D01*
X-1753772Y-4704771D01*
X-1868770Y-4793013D01*
X-1957012Y-4908011D01*
X-2012478Y-5041921D01*
X-2012479Y-5041925D01*
X-2030344Y-5177624D01*
X-2031399Y-5185634D01*
X-2478539Y-5185634D01*
X-2393031Y-5120021D01*
X-2304791Y-5005025D01*
X-2249322Y-4871109D01*
X-2230402Y-4727400D01*
X-2231731Y-4717309D01*
X-2234911Y-4693153D01*
X-2249322Y-4583691D01*
X-2304791Y-4449775D01*
X-2393031Y-4334779D01*
X-2508027Y-4246539D01*
X-2508028Y-4246538D01*
X-2508030Y-4246537D01*
X-2641940Y-4191071D01*
X-2641942Y-4191070D01*
X-2641943Y-4191070D01*
X-2713798Y-4181610D01*
X-2785651Y-4172150D01*
X-2785653Y-4172150D01*
X-2929361Y-4191070D01*
X-2929365Y-4191071D01*
X-3063275Y-4246537D01*
X-3178273Y-4334779D01*
X-3266515Y-4449777D01*
X-3321981Y-4583687D01*
X-3321982Y-4583691D01*
X-3339573Y-4717309D01*
X-3340902Y-4727400D01*
X-3815836Y-4727400D01*
X-3795339Y-4700688D01*
X-3739870Y-4566772D01*
X-3720950Y-4423063D01*
X-3739870Y-4279354D01*
X-3795339Y-4145438D01*
X-3883579Y-4030442D01*
X-3998575Y-3942202D01*
X-3998576Y-3942201D01*
X-3998578Y-3942200D01*
X-4132488Y-3886734D01*
X-4132490Y-3886733D01*
X-4132491Y-3886733D01*
X-4204346Y-3877273D01*
X-4276199Y-3867813D01*
X-4276201Y-3867813D01*
X-4419909Y-3886733D01*
X-4419913Y-3886734D01*
X-4553823Y-3942200D01*
X-4668821Y-4030442D01*
X-4757063Y-4145440D01*
X-4812529Y-4279350D01*
X-4812530Y-4279354D01*
X-4830136Y-4413076D01*
X-4858403Y-4476972D01*
X-4916728Y-4515442D01*
X-4986593Y-4516273D01*
X-5028559Y-4495266D01*
X-5104584Y-4436930D01*
X-5104585Y-4436929D01*
X-5104587Y-4436928D01*
X-5238497Y-4381462D01*
X-5238499Y-4381461D01*
X-5238500Y-4381461D01*
X-5310355Y-4372001D01*
X-5382208Y-4362541D01*
X-5382210Y-4362541D01*
X-5525918Y-4381461D01*
X-5525922Y-4381462D01*
X-5659832Y-4436928D01*
X-5774830Y-4525170D01*
X-5863072Y-4640168D01*
X-5918538Y-4774078D01*
X-5918539Y-4774082D01*
X-5930475Y-4864740D01*
X-5958742Y-4928636D01*
X-6017067Y-4967106D01*
X-6086932Y-4967937D01*
X-6100866Y-4963115D01*
X-6233461Y-4908193D01*
X-6233462Y-4908192D01*
X-6233464Y-4908192D01*
X-6377169Y-4889273D01*
X-6377171Y-4889273D01*
X-6520879Y-4908193D01*
X-6520883Y-4908194D01*
X-6654793Y-4963660D01*
X-6769791Y-5051902D01*
X-6858033Y-5166900D01*
X-6913499Y-5300810D01*
X-6913500Y-5300814D01*
X-6931341Y-5436331D01*
X-6932420Y-5444523D01*
X-16220472Y-5444523D01*
X-16169139Y-5377625D01*
X-16113670Y-5243709D01*
X-16094750Y-5100000D01*
X-16113670Y-4956291D01*
X-16165498Y-4831165D01*
X-16169138Y-4822377D01*
X-16169139Y-4822376D01*
X-16169139Y-4822375D01*
X-16257379Y-4707379D01*
X-16372375Y-4619139D01*
X-16372376Y-4619138D01*
X-16372378Y-4619137D01*
X-16506288Y-4563671D01*
X-16506290Y-4563670D01*
X-16506291Y-4563670D01*
X-16592273Y-4552350D01*
X-16649999Y-4544750D01*
X-16650001Y-4544750D01*
X-16793709Y-4563670D01*
X-16793713Y-4563671D01*
X-16927623Y-4619137D01*
X-17042621Y-4707379D01*
X-17130863Y-4822377D01*
X-17186329Y-4956287D01*
X-17186330Y-4956291D01*
X-17201329Y-5070221D01*
X-17205250Y-5100000D01*
X-19549300Y-5100000D01*
X-19549300Y-4798661D01*
X-19529615Y-4731622D01*
X-19476811Y-4685867D01*
X-19407653Y-4675923D01*
X-19377848Y-4684100D01*
X-19261737Y-4732194D01*
X-19134748Y-4748912D01*
X-19118029Y-4751114D01*
X-19118028Y-4751114D01*
X-19118027Y-4751114D01*
X-19103051Y-4749142D01*
X-18974319Y-4732194D01*
X-18840403Y-4676725D01*
X-18725407Y-4588485D01*
X-18637167Y-4473489D01*
X-18597863Y-4378599D01*
X-15291070Y-4378599D01*
X-15272945Y-4516273D01*
X-15272150Y-4522307D01*
X-15272149Y-4522311D01*
X-15216683Y-4656221D01*
X-15216682Y-4656223D01*
X-15216681Y-4656224D01*
X-15128441Y-4771220D01*
X-15013445Y-4859460D01*
X-15013444Y-4859460D01*
X-15013443Y-4859461D01*
X-14985314Y-4871112D01*
X-14879529Y-4914929D01*
X-14752540Y-4931647D01*
X-14735821Y-4933849D01*
X-14735820Y-4933849D01*
X-14735819Y-4933849D01*
X-14720843Y-4931877D01*
X-14592111Y-4914929D01*
X-14458195Y-4859460D01*
X-14355663Y-4780784D01*
X-14336750Y-4766272D01*
X-14335409Y-4768020D01*
X-14284208Y-4740053D01*
X-14214515Y-4745027D01*
X-14182345Y-4762840D01*
X-14178455Y-4765825D01*
X-14178454Y-4765826D01*
X-14143023Y-4793013D01*
X-14063460Y-4854065D01*
X-14063459Y-4854065D01*
X-14063458Y-4854066D01*
X-13929542Y-4909535D01*
X-13802553Y-4926253D01*
X-13785834Y-4928455D01*
X-13785833Y-4928455D01*
X-13785832Y-4928455D01*
X-13770856Y-4926483D01*
X-13642124Y-4909535D01*
X-13508208Y-4854066D01*
X-13393212Y-4765826D01*
X-13304972Y-4650830D01*
X-13249503Y-4516914D01*
X-13230583Y-4373205D01*
X-13249503Y-4229496D01*
X-13293884Y-4122350D01*
X-13304971Y-4095582D01*
X-13304972Y-4095581D01*
X-13304972Y-4095580D01*
X-13393212Y-3980584D01*
X-13508208Y-3892344D01*
X-13508209Y-3892343D01*
X-13508211Y-3892342D01*
X-13642121Y-3836876D01*
X-13642123Y-3836875D01*
X-13642124Y-3836875D01*
X-13744862Y-3823349D01*
X-13785832Y-3817955D01*
X-13785834Y-3817955D01*
X-13929542Y-3836875D01*
X-13929546Y-3836876D01*
X-14063456Y-3892342D01*
X-14101586Y-3921600D01*
X-14178454Y-3980584D01*
X-14178456Y-3980586D01*
X-14184901Y-3985532D01*
X-14186240Y-3983787D01*
X-14237481Y-4011758D01*
X-14307171Y-4006763D01*
X-14339307Y-3988964D01*
X-14458195Y-3897738D01*
X-14458197Y-3897737D01*
X-14592108Y-3842270D01*
X-14592110Y-3842269D01*
X-14592111Y-3842269D01*
X-14663966Y-3832809D01*
X-14735819Y-3823349D01*
X-14735821Y-3823349D01*
X-14879529Y-3842269D01*
X-14879533Y-3842270D01*
X-15013443Y-3897736D01*
X-15128441Y-3985978D01*
X-15216683Y-4100976D01*
X-15272149Y-4234886D01*
X-15272150Y-4234890D01*
X-15285932Y-4339576D01*
X-15291070Y-4378599D01*
X-18597863Y-4378599D01*
X-18581698Y-4339573D01*
X-18562778Y-4195864D01*
X-18581698Y-4052155D01*
X-18637167Y-3918239D01*
X-18725407Y-3803243D01*
X-18840403Y-3715003D01*
X-18840404Y-3715002D01*
X-18840406Y-3715001D01*
X-18974316Y-3659535D01*
X-18974318Y-3659534D01*
X-18974319Y-3659534D01*
X-19074885Y-3646294D01*
X-19118027Y-3640614D01*
X-19118029Y-3640614D01*
X-19261737Y-3659534D01*
X-19261741Y-3659535D01*
X-19395652Y-3715002D01*
X-19395654Y-3715003D01*
X-19413102Y-3728392D01*
X-19478271Y-3753586D01*
X-19546716Y-3739548D01*
X-19582101Y-3707572D01*
X-19582660Y-3708132D01*
X-19591297Y-3699495D01*
X-19651232Y-3659448D01*
X-19649646Y-3657074D01*
X-19689728Y-3624767D01*
X-19705159Y-3578386D01*
X-12744236Y-3578386D01*
X-12732671Y-3666233D01*
X-12725316Y-3722094D01*
X-12725315Y-3722098D01*
X-12669849Y-3856008D01*
X-12669848Y-3856010D01*
X-12669847Y-3856011D01*
X-12581607Y-3971007D01*
X-12466611Y-4059247D01*
X-12466610Y-4059247D01*
X-12466609Y-4059248D01*
X-12348156Y-4108312D01*
X-12293752Y-4152152D01*
X-12271687Y-4218446D01*
X-12281046Y-4270324D01*
X-12291672Y-4295977D01*
X-12291672Y-4295978D01*
X-12302549Y-4378599D01*
X-12310592Y-4439687D01*
X-12298190Y-4533891D01*
X-12291672Y-4583395D01*
X-12291671Y-4583399D01*
X-12236205Y-4717309D01*
X-12236204Y-4717311D01*
X-12236203Y-4717312D01*
X-12147963Y-4832308D01*
X-12032967Y-4920548D01*
X-11899051Y-4976017D01*
X-11772062Y-4992735D01*
X-11755343Y-4994937D01*
X-11755342Y-4994937D01*
X-11755341Y-4994937D01*
X-11740365Y-4992965D01*
X-11611633Y-4976017D01*
X-11477717Y-4920548D01*
X-11362721Y-4832308D01*
X-11274481Y-4717312D01*
X-11219012Y-4583396D01*
X-11200092Y-4439687D01*
X-11219012Y-4295978D01*
X-11256163Y-4206287D01*
X-11274480Y-4162064D01*
X-11274481Y-4162063D01*
X-11274481Y-4162062D01*
X-11362721Y-4047066D01*
X-11477717Y-3958826D01*
X-11477721Y-3958824D01*
X-11596173Y-3909760D01*
X-11650577Y-3865919D01*
X-11672642Y-3799625D01*
X-11663282Y-3747748D01*
X-11652656Y-3722095D01*
X-11633736Y-3578386D01*
X-11652656Y-3434677D01*
X-11702219Y-3315020D01*
X-11708124Y-3300763D01*
X-11708125Y-3300762D01*
X-11708125Y-3300761D01*
X-11783747Y-3202209D01*
X-5480540Y-3202209D01*
X-5475568Y-3239978D01*
X-5461620Y-3345917D01*
X-5461619Y-3345921D01*
X-5406153Y-3479831D01*
X-5406152Y-3479833D01*
X-5406151Y-3479834D01*
X-5317911Y-3594830D01*
X-5202915Y-3683070D01*
X-5068999Y-3738539D01*
X-4942010Y-3755257D01*
X-4925291Y-3757459D01*
X-4925290Y-3757459D01*
X-4925289Y-3757459D01*
X-4910313Y-3755487D01*
X-4781581Y-3738539D01*
X-4647665Y-3683070D01*
X-4532669Y-3594830D01*
X-4444429Y-3479834D01*
X-4388960Y-3345918D01*
X-4370040Y-3202209D01*
X-4388960Y-3058500D01*
X-4444429Y-2924584D01*
X-4532669Y-2809588D01*
X-4647665Y-2721348D01*
X-4647666Y-2721347D01*
X-4647668Y-2721346D01*
X-4781578Y-2665880D01*
X-4781580Y-2665879D01*
X-4781581Y-2665879D01*
X-4853436Y-2656419D01*
X-4925289Y-2646959D01*
X-4925291Y-2646959D01*
X-5068999Y-2665879D01*
X-5069003Y-2665880D01*
X-5202913Y-2721346D01*
X-5317911Y-2809588D01*
X-5406153Y-2924586D01*
X-5461619Y-3058496D01*
X-5461620Y-3058500D01*
X-5476485Y-3171412D01*
X-5480540Y-3202209D01*
X-11783747Y-3202209D01*
X-11796365Y-3185765D01*
X-11911361Y-3097525D01*
X-11911362Y-3097524D01*
X-11911364Y-3097523D01*
X-12045274Y-3042057D01*
X-12045276Y-3042056D01*
X-12045277Y-3042056D01*
X-12117132Y-3032596D01*
X-12188985Y-3023136D01*
X-12188987Y-3023136D01*
X-12332695Y-3042056D01*
X-12332699Y-3042057D01*
X-12466609Y-3097523D01*
X-12581607Y-3185765D01*
X-12669849Y-3300763D01*
X-12725315Y-3434673D01*
X-12725316Y-3434677D01*
X-12736871Y-3522448D01*
X-12744236Y-3578386D01*
X-19705159Y-3578386D01*
X-19711785Y-3558470D01*
X-19694499Y-3490773D01*
X-19650636Y-3449943D01*
X-19651432Y-3448752D01*
X-19644072Y-3443833D01*
X-19643356Y-3443168D01*
X-19642469Y-3442762D01*
X-19641280Y-3441967D01*
X-19641278Y-3441967D01*
X-19591496Y-3408704D01*
X-19558233Y-3358922D01*
X-19549500Y-3315020D01*
X-19549500Y-2150002D01*
X294750Y-2150002D01*
X308606Y-2255250D01*
X313670Y-2293710D01*
X313671Y-2293714D01*
X369137Y-2427624D01*
X369138Y-2427626D01*
X369139Y-2427627D01*
X457379Y-2542623D01*
X572375Y-2630863D01*
X706291Y-2686332D01*
X833280Y-2703050D01*
X849999Y-2705252D01*
X850000Y-2705252D01*
X850001Y-2705252D01*
X864977Y-2703280D01*
X993709Y-2686332D01*
X1127625Y-2630863D01*
X1242621Y-2542623D01*
X1259637Y-2520448D01*
X4724302Y-2520448D01*
X4740530Y-2643713D01*
X4743222Y-2664156D01*
X4743223Y-2664160D01*
X4798689Y-2798070D01*
X4798690Y-2798072D01*
X4798691Y-2798073D01*
X4886931Y-2913069D01*
X5001927Y-3001309D01*
X5135843Y-3056778D01*
X5262832Y-3073496D01*
X5279551Y-3075698D01*
X5279552Y-3075698D01*
X5279553Y-3075698D01*
X5294529Y-3073726D01*
X5423261Y-3056778D01*
X5557177Y-3001309D01*
X5672173Y-2913069D01*
X5760413Y-2798073D01*
X5815882Y-2664157D01*
X5834802Y-2520448D01*
X5834264Y-2516365D01*
X5832110Y-2500000D01*
X11654850Y-2500000D01*
X11654850Y-2500001D01*
X11673770Y-2643709D01*
X11673771Y-2643713D01*
X11729237Y-2777623D01*
X11729238Y-2777625D01*
X11729239Y-2777626D01*
X11817479Y-2892622D01*
X11932475Y-2980862D01*
X11932476Y-2980862D01*
X11932477Y-2980863D01*
X11977113Y-2999351D01*
X12066391Y-3036331D01*
X12193380Y-3053049D01*
X12210099Y-3055251D01*
X12210100Y-3055251D01*
X12210101Y-3055251D01*
X12225077Y-3053279D01*
X12353809Y-3036331D01*
X12487725Y-2980862D01*
X12602721Y-2892622D01*
X12690961Y-2777626D01*
X12746430Y-2643710D01*
X12754977Y-2578792D01*
X19304863Y-2578792D01*
X19316328Y-2665879D01*
X19323783Y-2722500D01*
X19323784Y-2722504D01*
X19379250Y-2856414D01*
X19379251Y-2856416D01*
X19379252Y-2856417D01*
X19467492Y-2971413D01*
X19582488Y-3059653D01*
X19582489Y-3059653D01*
X19582490Y-3059654D01*
X19600240Y-3067006D01*
X19716404Y-3115122D01*
X19843393Y-3131840D01*
X19860112Y-3134042D01*
X19860113Y-3134042D01*
X19860114Y-3134042D01*
X19875090Y-3132070D01*
X20003822Y-3115122D01*
X20137738Y-3059653D01*
X20252734Y-2971413D01*
X20340974Y-2856417D01*
X20396443Y-2722501D01*
X20415363Y-2578792D01*
X20396443Y-2435083D01*
X20346884Y-2315436D01*
X20340975Y-2301169D01*
X20340974Y-2301168D01*
X20340974Y-2301167D01*
X20252734Y-2186171D01*
X20137738Y-2097931D01*
X20137737Y-2097930D01*
X20137735Y-2097929D01*
X20003825Y-2042463D01*
X20003823Y-2042462D01*
X20003822Y-2042462D01*
X19931967Y-2033002D01*
X19860114Y-2023542D01*
X19860112Y-2023542D01*
X19716404Y-2042462D01*
X19716400Y-2042463D01*
X19582490Y-2097929D01*
X19467492Y-2186171D01*
X19379250Y-2301169D01*
X19323784Y-2435079D01*
X19323783Y-2435083D01*
X19312532Y-2520545D01*
X19304863Y-2578792D01*
X12754977Y-2578792D01*
X12765350Y-2500001D01*
X12746430Y-2356292D01*
X12696741Y-2236330D01*
X12690962Y-2222378D01*
X12690961Y-2222377D01*
X12690961Y-2222376D01*
X12602721Y-2107380D01*
X12487725Y-2019140D01*
X12487724Y-2019139D01*
X12487722Y-2019138D01*
X12353812Y-1963672D01*
X12353810Y-1963671D01*
X12353809Y-1963671D01*
X12281954Y-1954211D01*
X12210101Y-1944751D01*
X12210099Y-1944751D01*
X12066391Y-1963671D01*
X12066387Y-1963672D01*
X11932477Y-2019138D01*
X11817479Y-2107380D01*
X11729237Y-2222378D01*
X11673771Y-2356288D01*
X11673770Y-2356292D01*
X11654850Y-2500000D01*
X5832110Y-2500000D01*
X5823563Y-2435083D01*
X5815882Y-2376739D01*
X5760413Y-2242823D01*
X5672173Y-2127827D01*
X5557177Y-2039587D01*
X5557176Y-2039586D01*
X5557174Y-2039585D01*
X5423264Y-1984119D01*
X5423262Y-1984118D01*
X5423261Y-1984118D01*
X5351406Y-1974658D01*
X5279553Y-1965198D01*
X5279551Y-1965198D01*
X5135843Y-1984118D01*
X5135839Y-1984119D01*
X5001929Y-2039585D01*
X4886931Y-2127827D01*
X4798689Y-2242825D01*
X4743223Y-2376735D01*
X4743222Y-2376739D01*
X4724840Y-2516365D01*
X4724302Y-2520448D01*
X1259637Y-2520448D01*
X1330861Y-2427627D01*
X1386330Y-2293711D01*
X1405250Y-2150002D01*
X1386330Y-2006293D01*
X1330861Y-1872377D01*
X1242621Y-1757381D01*
X1167841Y-1700000D01*
X14194750Y-1700000D01*
X14202304Y-1757381D01*
X14213670Y-1843708D01*
X14213671Y-1843712D01*
X14269137Y-1977622D01*
X14269138Y-1977624D01*
X14269139Y-1977625D01*
X14357379Y-2092621D01*
X14472375Y-2180861D01*
X14472376Y-2180861D01*
X14472377Y-2180862D01*
X14517013Y-2199350D01*
X14606291Y-2236330D01*
X14733280Y-2253048D01*
X14749999Y-2255250D01*
X14750000Y-2255250D01*
X14750001Y-2255250D01*
X14764977Y-2253278D01*
X14893709Y-2236330D01*
X15027625Y-2180861D01*
X15142621Y-2092621D01*
X15230861Y-1977625D01*
X15286330Y-1843709D01*
X15305250Y-1700000D01*
X15286330Y-1556291D01*
X15240590Y-1445863D01*
X15230862Y-1422377D01*
X15230861Y-1422376D01*
X15230861Y-1422375D01*
X15142621Y-1307379D01*
X15027625Y-1219139D01*
X15027624Y-1219138D01*
X15027622Y-1219137D01*
X14893712Y-1163671D01*
X14893710Y-1163670D01*
X14893709Y-1163670D01*
X14821854Y-1154210D01*
X14750001Y-1144750D01*
X14749999Y-1144750D01*
X14606291Y-1163670D01*
X14606287Y-1163671D01*
X14472377Y-1219137D01*
X14357379Y-1307379D01*
X14269137Y-1422377D01*
X14213671Y-1556287D01*
X14213670Y-1556291D01*
X14202184Y-1643538D01*
X14194750Y-1700000D01*
X1167841Y-1700000D01*
X1127625Y-1669141D01*
X1127624Y-1669140D01*
X1127622Y-1669139D01*
X993712Y-1613673D01*
X993710Y-1613672D01*
X993709Y-1613672D01*
X921854Y-1604212D01*
X850001Y-1594752D01*
X849999Y-1594752D01*
X706291Y-1613672D01*
X706287Y-1613673D01*
X572377Y-1669139D01*
X457379Y-1757381D01*
X369137Y-1872379D01*
X313671Y-2006289D01*
X313670Y-2006293D01*
X299779Y-2111807D01*
X294750Y-2150002D01*
X-19549500Y-2150002D01*
X-19549500Y-1107208D01*
X-16362459Y-1107208D01*
X-16362459Y-1107209D01*
X-16343539Y-1250917D01*
X-16343538Y-1250921D01*
X-16288072Y-1384831D01*
X-16288071Y-1384833D01*
X-16288070Y-1384834D01*
X-16199830Y-1499830D01*
X-16084834Y-1588070D01*
X-16084833Y-1588070D01*
X-16084832Y-1588071D01*
X-16081208Y-1589572D01*
X-15950918Y-1643539D01*
X-15823929Y-1660257D01*
X-15807210Y-1662459D01*
X-15807209Y-1662459D01*
X-15807208Y-1662459D01*
X-15792232Y-1660487D01*
X-15663500Y-1643539D01*
X-15529584Y-1588070D01*
X-15414588Y-1499830D01*
X-15373177Y-1445863D01*
X-11304749Y-1445863D01*
X-11286027Y-1588071D01*
X-11285829Y-1589571D01*
X-11285828Y-1589575D01*
X-11230362Y-1723485D01*
X-11230361Y-1723487D01*
X-11230360Y-1723488D01*
X-11142120Y-1838484D01*
X-11027124Y-1926724D01*
X-10893208Y-1982193D01*
X-10766219Y-1998911D01*
X-10749500Y-2001113D01*
X-10749499Y-2001113D01*
X-10749498Y-2001113D01*
X-10734522Y-1999141D01*
X-10605790Y-1982193D01*
X-10471874Y-1926724D01*
X-10356878Y-1838484D01*
X-10268638Y-1723488D01*
X-10213169Y-1589572D01*
X-10194249Y-1445863D01*
X-10213169Y-1302154D01*
X-10268638Y-1168238D01*
X-10356878Y-1053242D01*
X-10471874Y-965002D01*
X-10471875Y-965001D01*
X-10471877Y-965000D01*
X-10605787Y-909534D01*
X-10605789Y-909533D01*
X-10605790Y-909533D01*
X-10677645Y-900073D01*
X-10749498Y-890613D01*
X-10749500Y-890613D01*
X-10893208Y-909533D01*
X-10893212Y-909534D01*
X-11027122Y-965000D01*
X-11142120Y-1053242D01*
X-11230362Y-1168240D01*
X-11285828Y-1302150D01*
X-11285829Y-1302154D01*
X-11304749Y-1445863D01*
X-15373177Y-1445863D01*
X-15326348Y-1384834D01*
X-15270879Y-1250918D01*
X-15251959Y-1107209D01*
X-15270879Y-963500D01*
X-15323554Y-836329D01*
X-15326347Y-829586D01*
X-15326348Y-829585D01*
X-15326348Y-829584D01*
X-15414588Y-714588D01*
X-15529584Y-626348D01*
X-15529585Y-626347D01*
X-15529587Y-626346D01*
X-15663497Y-570880D01*
X-15663499Y-570879D01*
X-15663500Y-570879D01*
X-15735355Y-561419D01*
X-15807208Y-551959D01*
X-15807210Y-551959D01*
X-15950918Y-570879D01*
X-15950922Y-570880D01*
X-16084832Y-626346D01*
X-16199830Y-714588D01*
X-16288072Y-829586D01*
X-16343538Y-963496D01*
X-16343539Y-963500D01*
X-16362459Y-1107208D01*
X-19549500Y-1107208D01*
X-19549500Y-34500D01*
X-19529815Y32539D01*
X-19477011Y78294D01*
X-19425500Y89500D01*
X-18450020Y89500D01*
X-18450000Y89500D01*
X-18435348Y90192D01*
X-18415654Y92056D01*
X-18355369Y110612D01*
X-18298508Y141885D01*
X-18284676Y150464D01*
X-18284676Y150465D01*
X-18276380Y155609D01*
X-18274310Y152270D01*
X-18228379Y173285D01*
X-18159213Y163389D01*
X-18106377Y117671D01*
X-18087708Y66751D01*
X-18086332Y56297D01*
X-18086329Y56288D01*
X-18030863Y-77622D01*
X-18030862Y-77624D01*
X-18030861Y-77625D01*
X-17942621Y-192621D01*
X-17827625Y-280861D01*
X-17693709Y-336330D01*
X-17566720Y-353048D01*
X-17550001Y-355250D01*
X-17550000Y-355250D01*
X-17549999Y-355250D01*
X-17535023Y-353278D01*
X-17406291Y-336330D01*
X-17272375Y-280861D01*
X-17157379Y-192621D01*
X-17069139Y-77625D01*
X-17013670Y56291D01*
X-16994750Y200000D01*
X-17013670Y343709D01*
X-17047838Y426199D01*
X-5423061Y426199D01*
X-5406233Y298377D01*
X-5404141Y282491D01*
X-5404140Y282487D01*
X-5348674Y148577D01*
X-5348673Y148575D01*
X-5348672Y148574D01*
X-5260432Y33578D01*
X-5145436Y-54662D01*
X-5145435Y-54662D01*
X-5145434Y-54663D01*
X-5100798Y-73151D01*
X-5011520Y-110131D01*
X-4884531Y-126849D01*
X-4867812Y-129051D01*
X-4867811Y-129051D01*
X-4867810Y-129051D01*
X-4852834Y-127079D01*
X-4724102Y-110131D01*
X-4590186Y-54662D01*
X-4584110Y-50000D01*
X-2955250Y-50000D01*
X-2944843Y-129051D01*
X-2936330Y-193708D01*
X-2936329Y-193712D01*
X-2880863Y-327622D01*
X-2880862Y-327624D01*
X-2880861Y-327625D01*
X-2792621Y-442621D01*
X-2677625Y-530861D01*
X-2543709Y-586330D01*
X-2416720Y-603048D01*
X-2400001Y-605250D01*
X-2400000Y-605250D01*
X-2399999Y-605250D01*
X-2385023Y-603278D01*
X-2256291Y-586330D01*
X-2122375Y-530861D01*
X-2016995Y-450000D01*
X4394750Y-450000D01*
X4412698Y-586329D01*
X4413670Y-593708D01*
X4413671Y-593712D01*
X4469137Y-727622D01*
X4469138Y-727624D01*
X4469139Y-727625D01*
X4557379Y-842621D01*
X4672375Y-930861D01*
X4806291Y-986330D01*
X4933280Y-1003048D01*
X4949999Y-1005250D01*
X4950000Y-1005250D01*
X4950001Y-1005250D01*
X4964977Y-1003278D01*
X5093709Y-986330D01*
X5227625Y-930861D01*
X5342621Y-842621D01*
X5430861Y-727625D01*
X5486330Y-593709D01*
X5505250Y-450000D01*
X15094750Y-450000D01*
X15112698Y-586329D01*
X15113670Y-593708D01*
X15113671Y-593712D01*
X15169137Y-727622D01*
X15169138Y-727624D01*
X15169139Y-727625D01*
X15257379Y-842621D01*
X15372375Y-930861D01*
X15506291Y-986330D01*
X15633280Y-1003048D01*
X15649999Y-1005250D01*
X15650000Y-1005250D01*
X15650001Y-1005250D01*
X15664977Y-1003278D01*
X15793709Y-986330D01*
X15927625Y-930861D01*
X16042621Y-842621D01*
X16130861Y-727625D01*
X16186330Y-593709D01*
X16205250Y-450000D01*
X16186330Y-306291D01*
X16130861Y-172375D01*
X16042621Y-57379D01*
X15927625Y30861D01*
X15927624Y30862D01*
X15927622Y30863D01*
X15793712Y86329D01*
X15793710Y86330D01*
X15793709Y86330D01*
X15711813Y97112D01*
X15650001Y105250D01*
X15649999Y105250D01*
X15506291Y86330D01*
X15506287Y86329D01*
X15372377Y30863D01*
X15257379Y-57379D01*
X15169137Y-172377D01*
X15113671Y-306287D01*
X15113670Y-306291D01*
X15095722Y-442620D01*
X15094750Y-450000D01*
X5505250Y-450000D01*
X5486330Y-306291D01*
X5430861Y-172375D01*
X5342621Y-57379D01*
X5227625Y30861D01*
X5227624Y30862D01*
X5227622Y30863D01*
X5093712Y86329D01*
X5093710Y86330D01*
X5093709Y86330D01*
X5011813Y97112D01*
X4950001Y105250D01*
X4949999Y105250D01*
X4806291Y86330D01*
X4806287Y86329D01*
X4672377Y30863D01*
X4557379Y-57379D01*
X4469137Y-172377D01*
X4413671Y-306287D01*
X4413670Y-306291D01*
X4395722Y-442620D01*
X4394750Y-450000D01*
X-2016995Y-450000D01*
X-2007379Y-442621D01*
X-1919139Y-327625D01*
X-1863670Y-193709D01*
X-1844750Y-50000D01*
X-1863670Y93709D01*
X-1900650Y182987D01*
X-1919138Y227623D01*
X-1919139Y227624D01*
X-1919139Y227625D01*
X-2007379Y342621D01*
X-2122375Y430861D01*
X-2122376Y430862D01*
X-2122378Y430863D01*
X-2256288Y486329D01*
X-2256290Y486330D01*
X-2256291Y486330D01*
X-2346223Y498170D01*
X-2399999Y505250D01*
X-2400001Y505250D01*
X-2543709Y486330D01*
X-2543713Y486329D01*
X-2677623Y430863D01*
X-2792621Y342621D01*
X-2880863Y227623D01*
X-2936329Y93713D01*
X-2936330Y93709D01*
X-2941255Y56297D01*
X-2955250Y-50000D01*
X-4584110Y-50000D01*
X-4475190Y33578D01*
X-4386950Y148574D01*
X-4331481Y282490D01*
X-4312561Y426199D01*
X-4331481Y569908D01*
X-4368461Y659186D01*
X-4386949Y703822D01*
X-4386950Y703823D01*
X-4386950Y703824D01*
X-4475190Y818820D01*
X-4590186Y907060D01*
X-4590187Y907061D01*
X-4590189Y907062D01*
X-4724099Y962528D01*
X-4724101Y962529D01*
X-4724102Y962529D01*
X-4838765Y977625D01*
X-4867810Y981449D01*
X-4867812Y981449D01*
X-5011520Y962529D01*
X-5011524Y962528D01*
X-5145434Y907062D01*
X-5260432Y818820D01*
X-5348674Y703822D01*
X-5404140Y569912D01*
X-5404141Y569908D01*
X-5415656Y482441D01*
X-5423061Y426199D01*
X-17047838Y426199D01*
X-17069139Y477625D01*
X-17157379Y592621D01*
X-17272375Y680861D01*
X-17272376Y680862D01*
X-17272378Y680863D01*
X-17406288Y736329D01*
X-17406290Y736330D01*
X-17406291Y736330D01*
X-17478146Y745790D01*
X-17549999Y755250D01*
X-17550001Y755250D01*
X-17693709Y736330D01*
X-17693713Y736329D01*
X-17827623Y680863D01*
X-17885123Y636741D01*
X-17942621Y592621D01*
X-17942622Y592620D01*
X-17942623Y592619D01*
X-18027166Y482441D01*
X-18083594Y441239D01*
X-18153340Y437084D01*
X-18214260Y471297D01*
X-18234192Y498170D01*
X-19197698Y2250000D01*
X-1450542Y2250000D01*
X-1431777Y2107465D01*
X-1431622Y2106292D01*
X-1431621Y2106288D01*
X-1376155Y1972378D01*
X-1376154Y1972376D01*
X-1376153Y1972375D01*
X-1287913Y1857379D01*
X-1172917Y1769139D01*
X-1039001Y1713670D01*
X-912012Y1696952D01*
X-895293Y1694750D01*
X-895292Y1694750D01*
X-895291Y1694750D01*
X-880315Y1696722D01*
X-751583Y1713670D01*
X-663871Y1750001D01*
X16894750Y1750001D01*
X16894750Y1750000D01*
X16913670Y1606292D01*
X16913671Y1606288D01*
X16969137Y1472378D01*
X16969138Y1472376D01*
X16969139Y1472375D01*
X17057379Y1357379D01*
X17089277Y1332903D01*
X17126693Y1304192D01*
X17167895Y1247764D01*
X17172050Y1178018D01*
X17137837Y1117098D01*
X17126695Y1107443D01*
X17107380Y1092623D01*
X17019137Y977623D01*
X16963671Y843713D01*
X16963670Y843709D01*
X16944750Y700001D01*
X16944750Y700000D01*
X16963670Y556292D01*
X16963671Y556288D01*
X17019137Y422378D01*
X17019138Y422376D01*
X17019139Y422375D01*
X17107379Y307379D01*
X17115303Y301299D01*
X17119113Y298375D01*
X17160316Y241947D01*
X17164470Y172201D01*
X17130257Y111281D01*
X17119113Y101625D01*
X17107381Y92623D01*
X17107380Y92622D01*
X17107379Y92621D01*
X17079503Y56292D01*
X17019137Y-22377D01*
X16963671Y-156287D01*
X16963670Y-156291D01*
X16944750Y-299999D01*
X16944750Y-300000D01*
X16963670Y-443708D01*
X16963671Y-443712D01*
X17019137Y-577622D01*
X17019138Y-577624D01*
X17019139Y-577625D01*
X17107379Y-692621D01*
X17222375Y-780861D01*
X17356291Y-836330D01*
X17483280Y-853048D01*
X17499999Y-855250D01*
X17500000Y-855250D01*
X17500001Y-855250D01*
X17514977Y-853278D01*
X17643709Y-836330D01*
X17777625Y-780861D01*
X17892621Y-692621D01*
X17980861Y-577625D01*
X18036330Y-443709D01*
X18055250Y-300000D01*
X18036330Y-156291D01*
X17994235Y-54662D01*
X17980862Y-22377D01*
X17980861Y-22376D01*
X17980861Y-22375D01*
X17892621Y92621D01*
X17880886Y101626D01*
X17839685Y158050D01*
X17835529Y227796D01*
X17869740Y288717D01*
X17880876Y298368D01*
X17892621Y307379D01*
X17980861Y422375D01*
X18036330Y556291D01*
X18055250Y700000D01*
X18036330Y843709D01*
X17980861Y977625D01*
X17892621Y1092621D01*
X17860722Y1117098D01*
X17823306Y1145809D01*
X17782104Y1202237D01*
X17777949Y1271983D01*
X17812162Y1332903D01*
X17823301Y1342555D01*
X17842621Y1357379D01*
X17930861Y1472375D01*
X17986330Y1606291D01*
X18005250Y1750000D01*
X17986330Y1893709D01*
X17930861Y2027625D01*
X17906809Y2058970D01*
X18593085Y2058970D01*
X18605258Y1995228D01*
X18621744Y1949464D01*
X18621746Y1949459D01*
X18810490Y1606288D01*
X21363929Y-3036329D01*
X21371749Y-3050546D01*
X21382198Y-3067006D01*
X21397645Y-3088266D01*
X21403023Y-3093008D01*
X21448508Y-3133115D01*
X21464752Y-3142049D01*
X21505374Y-3164391D01*
X21505379Y-3164393D01*
X21511342Y-3167277D01*
X21520015Y-3171472D01*
X21520016Y-3171472D01*
X21520020Y-3171474D01*
X21599766Y-3182414D01*
X21664149Y-3174293D01*
X21680169Y-3171413D01*
X21751115Y-3133390D01*
X21798429Y-3088976D01*
X21828255Y-3050539D01*
X24578255Y1949461D01*
X24584708Y1962629D01*
X24592566Y1980783D01*
X24605361Y2042553D01*
X24605361Y2107447D01*
X24604509Y2123702D01*
X24575663Y2198848D01*
X24537519Y2251348D01*
X24527276Y2263997D01*
X24497849Y2283107D01*
X24459767Y2307838D01*
X24398053Y2327889D01*
X24398048Y2327890D01*
X24364500Y2333204D01*
X24350000Y2335500D01*
X24349999Y2335500D01*
X23374500Y2335500D01*
X23307461Y2355185D01*
X23261706Y2407989D01*
X23250500Y2459500D01*
X23250500Y5740023D01*
X23241768Y5783918D01*
X23241767Y5783919D01*
X23241767Y5783922D01*
X23208504Y5833704D01*
X23181227Y5851930D01*
X23158724Y5866966D01*
X23158717Y5866969D01*
X23114822Y5875700D01*
X23114820Y5875700D01*
X20085180Y5875700D01*
X20085178Y5875700D01*
X20041282Y5866969D01*
X20041275Y5866966D01*
X19991496Y5833705D01*
X19991495Y5833704D01*
X19958234Y5783925D01*
X19958231Y5783918D01*
X19949500Y5740023D01*
X19949500Y2459500D01*
X19929815Y2392461D01*
X19877011Y2346706D01*
X19825500Y2335500D01*
X18849982Y2335500D01*
X18835349Y2334809D01*
X18835338Y2334808D01*
X18815654Y2332945D01*
X18755371Y2314389D01*
X18755369Y2314389D01*
X18755369Y2314388D01*
X18698508Y2283115D01*
X18698503Y2283113D01*
X18698494Y2283107D01*
X18684678Y2274538D01*
X18684676Y2274536D01*
X18632732Y2213046D01*
X18605112Y2154326D01*
X18598965Y2139252D01*
X18593085Y2058970D01*
X17906809Y2058970D01*
X17842621Y2142621D01*
X17727625Y2230861D01*
X17727624Y2230862D01*
X17727622Y2230863D01*
X17593712Y2286329D01*
X17593710Y2286330D01*
X17593709Y2286330D01*
X17521854Y2295790D01*
X17450001Y2305250D01*
X17449999Y2305250D01*
X17306291Y2286330D01*
X17306287Y2286329D01*
X17172377Y2230863D01*
X17057379Y2142621D01*
X16969137Y2027623D01*
X16913671Y1893713D01*
X16913670Y1893709D01*
X16894750Y1750001D01*
X-663871Y1750001D01*
X-617667Y1769139D01*
X-502671Y1857379D01*
X-414431Y1972375D01*
X-358962Y2106291D01*
X-340042Y2250000D01*
X-340220Y2251349D01*
X-347316Y2305250D01*
X-358962Y2393709D01*
X-400961Y2495105D01*
X-414430Y2527623D01*
X-414431Y2527624D01*
X-414431Y2527625D01*
X-502671Y2642621D01*
X-617667Y2730861D01*
X-617668Y2730862D01*
X-617670Y2730863D01*
X-751580Y2786329D01*
X-751582Y2786330D01*
X-751583Y2786330D01*
X-823438Y2795790D01*
X-895291Y2805250D01*
X-895293Y2805250D01*
X-1039001Y2786330D01*
X-1039005Y2786329D01*
X-1172915Y2730863D01*
X-1287913Y2642621D01*
X-1376155Y2527623D01*
X-1431621Y2393713D01*
X-1431622Y2393709D01*
X-1450364Y2251349D01*
X-1450542Y2250000D01*
X-19197698Y2250000D01*
X-19616112Y3010752D01*
X-16444499Y3010752D01*
X-16444499Y3010751D01*
X-16425579Y2867043D01*
X-16425578Y2867039D01*
X-16370112Y2733129D01*
X-16370111Y2733127D01*
X-16370110Y2733126D01*
X-16281870Y2618130D01*
X-16166874Y2529890D01*
X-16032958Y2474421D01*
X-15905969Y2457703D01*
X-15889250Y2455501D01*
X-15889249Y2455501D01*
X-15889248Y2455501D01*
X-15874272Y2457473D01*
X-15745540Y2474421D01*
X-15611624Y2529890D01*
X-15496628Y2618130D01*
X-15408388Y2733126D01*
X-15352919Y2867042D01*
X-15333999Y3010751D01*
X-15334384Y3013672D01*
X-15341686Y3069139D01*
X-15352919Y3154460D01*
X-15401760Y3272375D01*
X-15408387Y3288374D01*
X-15408388Y3288375D01*
X-15408388Y3288376D01*
X-15496628Y3403372D01*
X-15611624Y3491612D01*
X-15611625Y3491613D01*
X-15611627Y3491614D01*
X-15745537Y3547080D01*
X-15745539Y3547081D01*
X-15745540Y3547081D01*
X-15817395Y3556541D01*
X-15889248Y3566001D01*
X-15889250Y3566001D01*
X-16032958Y3547081D01*
X-16032962Y3547080D01*
X-16166872Y3491614D01*
X-16281870Y3403372D01*
X-16370112Y3288374D01*
X-16425578Y3154464D01*
X-16425579Y3154460D01*
X-16444499Y3010752D01*
X-19616112Y3010752D01*
X-19902805Y3532012D01*
X-19917864Y3600239D01*
X-19893647Y3665778D01*
X-19837841Y3707819D01*
X-19768165Y3713016D01*
X-19746711Y3706334D01*
X-19643709Y3663670D01*
X-19525392Y3648093D01*
X-19500001Y3644750D01*
X-19500000Y3644750D01*
X-19499999Y3644750D01*
X-19485023Y3646722D01*
X-19356291Y3663670D01*
X-19222375Y3719139D01*
X-19107379Y3807379D01*
X-19019139Y3922375D01*
X-18981502Y4013239D01*
X-12105250Y4013239D01*
X-12086719Y3872481D01*
X-12086330Y3869531D01*
X-12086329Y3869527D01*
X-12030863Y3735617D01*
X-12030862Y3735615D01*
X-12030861Y3735614D01*
X-11942621Y3620618D01*
X-11827625Y3532378D01*
X-11827624Y3532378D01*
X-11827623Y3532377D01*
X-11782987Y3513889D01*
X-11693709Y3476909D01*
X-11566720Y3460191D01*
X-11550001Y3457989D01*
X-11550000Y3457989D01*
X-11549999Y3457989D01*
X-11535023Y3459961D01*
X-11406291Y3476909D01*
X-11272375Y3532378D01*
X-11157379Y3620618D01*
X-11069139Y3735614D01*
X-11013670Y3869530D01*
X-10994750Y4013239D01*
X-11013670Y4156948D01*
X-11058466Y4265097D01*
X-11069138Y4290862D01*
X-11069139Y4290863D01*
X-11069139Y4290864D01*
X-11157379Y4405860D01*
X-11272375Y4494100D01*
X-11272376Y4494101D01*
X-11272378Y4494102D01*
X-11319927Y4513797D01*
X12878510Y4513797D01*
X12892720Y4405860D01*
X12897430Y4370089D01*
X12897431Y4370085D01*
X12952897Y4236175D01*
X12952898Y4236173D01*
X12952899Y4236172D01*
X13041139Y4121176D01*
X13156135Y4032936D01*
X13156136Y4032936D01*
X13156137Y4032935D01*
X13200773Y4014447D01*
X13290051Y3977467D01*
X13417040Y3960749D01*
X13433759Y3958547D01*
X13433760Y3958547D01*
X13433761Y3958547D01*
X13448737Y3960519D01*
X13577469Y3977467D01*
X13711385Y4032936D01*
X13826381Y4121176D01*
X13860385Y4165491D01*
X13916812Y4206693D01*
X13986558Y4210848D01*
X14047478Y4176636D01*
X14057131Y4165496D01*
X14063687Y4156952D01*
X14090975Y4121389D01*
X14091139Y4121176D01*
X14206135Y4032936D01*
X14206136Y4032936D01*
X14206137Y4032935D01*
X14250773Y4014447D01*
X14340051Y3977467D01*
X14467040Y3960749D01*
X14483759Y3958547D01*
X14483760Y3958547D01*
X14483761Y3958547D01*
X14498737Y3960519D01*
X14627469Y3977467D01*
X14761385Y4032936D01*
X14876381Y4121176D01*
X14964621Y4236172D01*
X15020090Y4370088D01*
X15033406Y4471232D01*
X16273518Y4471232D01*
X16285330Y4381509D01*
X16292438Y4327524D01*
X16292439Y4327520D01*
X16347905Y4193610D01*
X16347906Y4193608D01*
X16347907Y4193607D01*
X16436147Y4078611D01*
X16551143Y3990371D01*
X16551144Y3990371D01*
X16551145Y3990370D01*
X16580800Y3978087D01*
X16685059Y3934902D01*
X16828768Y3915982D01*
X16884150Y3923274D01*
X16953182Y3912509D01*
X17005439Y3866130D01*
X17024325Y3798862D01*
X17023273Y3784150D01*
X17016884Y3735617D01*
X17015982Y3728768D01*
X17032903Y3600239D01*
X17034902Y3585060D01*
X17034903Y3585056D01*
X17090369Y3451146D01*
X17090370Y3451144D01*
X17090371Y3451143D01*
X17178611Y3336147D01*
X17293607Y3247907D01*
X17427523Y3192438D01*
X17554512Y3175720D01*
X17571231Y3173518D01*
X17571232Y3173518D01*
X17571233Y3173518D01*
X17586209Y3175490D01*
X17714941Y3192438D01*
X17848857Y3247907D01*
X17963853Y3336147D01*
X18052093Y3451143D01*
X18107562Y3585059D01*
X18126482Y3728768D01*
X18107562Y3872477D01*
X18070582Y3961755D01*
X18052094Y4006391D01*
X18052093Y4006392D01*
X18052093Y4006393D01*
X17963853Y4121389D01*
X17848857Y4209629D01*
X17848856Y4209630D01*
X17848854Y4209631D01*
X17714944Y4265097D01*
X17714942Y4265098D01*
X17714941Y4265098D01*
X17626612Y4276727D01*
X17571233Y4284018D01*
X17571230Y4284018D01*
X17515850Y4276727D01*
X17446815Y4287493D01*
X17394559Y4333872D01*
X17375674Y4401141D01*
X17376724Y4415834D01*
X17384018Y4471232D01*
X17365098Y4614941D01*
X17309629Y4748857D01*
X17221389Y4863853D01*
X17106393Y4952093D01*
X17106392Y4952094D01*
X17106390Y4952095D01*
X16972480Y5007561D01*
X16972478Y5007562D01*
X16972477Y5007562D01*
X16900622Y5017022D01*
X16828769Y5026482D01*
X16828767Y5026482D01*
X16685059Y5007562D01*
X16685055Y5007561D01*
X16551145Y4952095D01*
X16436147Y4863853D01*
X16347905Y4748855D01*
X16292439Y4614945D01*
X16292438Y4614941D01*
X16274247Y4476766D01*
X16273518Y4471232D01*
X15033406Y4471232D01*
X15039010Y4513797D01*
X15020090Y4657506D01*
X14964621Y4791422D01*
X14876381Y4906418D01*
X14761385Y4994658D01*
X14761384Y4994659D01*
X14761382Y4994660D01*
X14627472Y5050126D01*
X14627470Y5050127D01*
X14627469Y5050127D01*
X14555614Y5059587D01*
X14483761Y5069047D01*
X14483759Y5069047D01*
X14340051Y5050127D01*
X14340047Y5050126D01*
X14206137Y4994660D01*
X14148637Y4950538D01*
X14091139Y4906418D01*
X14091138Y4906417D01*
X14091137Y4906416D01*
X14057135Y4862104D01*
X14000707Y4820901D01*
X13930961Y4816747D01*
X13870041Y4850960D01*
X13860385Y4862104D01*
X13844083Y4883349D01*
X13826381Y4906418D01*
X13711385Y4994658D01*
X13711384Y4994659D01*
X13711382Y4994660D01*
X13577472Y5050126D01*
X13577470Y5050127D01*
X13577469Y5050127D01*
X13505614Y5059587D01*
X13433761Y5069047D01*
X13433759Y5069047D01*
X13290051Y5050127D01*
X13290047Y5050126D01*
X13156137Y4994660D01*
X13041139Y4906418D01*
X12952897Y4791420D01*
X12897431Y4657510D01*
X12897430Y4657506D01*
X12883220Y4549569D01*
X12878510Y4513797D01*
X-11319927Y4513797D01*
X-11406288Y4549568D01*
X-11406290Y4549569D01*
X-11406291Y4549569D01*
X-11478146Y4559029D01*
X-11549999Y4568489D01*
X-11550001Y4568489D01*
X-11693709Y4549569D01*
X-11693713Y4549568D01*
X-11827623Y4494102D01*
X-11942621Y4405860D01*
X-12030863Y4290862D01*
X-12086329Y4156952D01*
X-12086330Y4156948D01*
X-12096643Y4078611D01*
X-12105250Y4013239D01*
X-18981502Y4013239D01*
X-18963670Y4056291D01*
X-18944750Y4200000D01*
X-18963670Y4343709D01*
X-19018783Y4476766D01*
X-19019138Y4477623D01*
X-19019139Y4477624D01*
X-19019139Y4477625D01*
X-19107379Y4592621D01*
X-19222375Y4680861D01*
X-19222376Y4680862D01*
X-19222378Y4680863D01*
X-19356288Y4736329D01*
X-19356290Y4736330D01*
X-19356291Y4736330D01*
X-19451441Y4748857D01*
X-19499999Y4755250D01*
X-19500001Y4755250D01*
X-19643709Y4736330D01*
X-19643713Y4736329D01*
X-19777623Y4680863D01*
X-19892621Y4592621D01*
X-19980863Y4477623D01*
X-20036329Y4343713D01*
X-20036330Y4343709D01*
X-20047408Y4259569D01*
X-20075675Y4195673D01*
X-20134000Y4157203D01*
X-20203865Y4156372D01*
X-20263088Y4193445D01*
X-20278996Y4215995D01*
X-20971745Y5475539D01*
X-20982196Y5492003D01*
X-20997644Y5513265D01*
X-20998454Y5513979D01*
X-21023405Y5535980D01*
X-21048508Y5558115D01*
X-21048511Y5558117D01*
X-21105375Y5589392D01*
X-21105383Y5589395D01*
X-21120016Y5596473D01*
X-21120025Y5596475D01*
X-21199764Y5607414D01*
X-21199767Y5607415D01*
X-21264133Y5599296D01*
X-21280172Y5596413D01*
X-21351114Y5558392D01*
X-21398427Y5513979D01*
X-21428257Y5475537D01*
X-22432109Y3650351D01*
X-22481665Y3601096D01*
X-22549983Y3586452D01*
X-22615372Y3611069D01*
X-22657073Y3667129D01*
X-22663341Y3692477D01*
X-22663670Y3693703D01*
X-22663670Y3693709D01*
X-22719139Y3827625D01*
X-22807379Y3942621D01*
X-22922375Y4030861D01*
X-22922376Y4030862D01*
X-22922378Y4030863D01*
X-23056288Y4086329D01*
X-23056290Y4086330D01*
X-23056291Y4086330D01*
X-23128146Y4095790D01*
X-23199999Y4105250D01*
X-23200001Y4105250D01*
X-23343709Y4086330D01*
X-23343713Y4086329D01*
X-23477623Y4030863D01*
X-23592621Y3942621D01*
X-23680863Y3827623D01*
X-23736329Y3693713D01*
X-23736330Y3693709D01*
X-23755250Y3550001D01*
X-23755250Y3550000D01*
X-23736330Y3406292D01*
X-23736329Y3406288D01*
X-23680863Y3272378D01*
X-23680862Y3272376D01*
X-23680861Y3272375D01*
X-23592621Y3157379D01*
X-23477625Y3069139D01*
X-23343709Y3013670D01*
X-23216720Y2996952D01*
X-23200001Y2994750D01*
X-23200000Y2994750D01*
X-23199999Y2994750D01*
X-23164073Y2999480D01*
X-23056291Y3013670D01*
X-23027761Y3025488D01*
X-22958296Y3032956D01*
X-22895816Y3001682D01*
X-22860163Y2941593D01*
X-22862656Y2871768D01*
X-22871660Y2851168D01*
X-24178258Y475536D01*
X-24178263Y475525D01*
X-24184705Y462380D01*
X-24184709Y462372D01*
X-24192564Y444224D01*
X-24192569Y444208D01*
X-24205361Y382451D01*
X-24205361Y317536D01*
X-24204828Y307379D01*
X-24204509Y301298D01*
X-24175663Y226152D01*
X-24137519Y173652D01*
X-24127276Y161003D01*
X-24097850Y141894D01*
X-24059768Y117163D01*
X-24019132Y103961D01*
X-23998052Y97111D01*
X-23950000Y89500D01*
X-22974500Y89500D01*
X-22907461Y69815D01*
X-22861706Y17011D01*
X-22850500Y-34500D01*
X-22850500Y-2484066D01*
X-22870185Y-2551105D01*
X-22922989Y-2596860D01*
X-22992147Y-2606804D01*
X-23055703Y-2577779D01*
X-23093013Y-2520545D01*
X-23110612Y-2463369D01*
X-23141885Y-2406508D01*
X-23150464Y-2392676D01*
X-23211954Y-2340732D01*
X-23235311Y-2329746D01*
X-23270675Y-2313112D01*
X-23285749Y-2306965D01*
X-23301806Y-2305789D01*
X-23366027Y-2301085D01*
X-23366029Y-2301085D01*
X-23366031Y-2301085D01*
X-23426212Y-2312577D01*
X-23429008Y-2313112D01*
X-23429773Y-2313258D01*
X-23475537Y-2329744D01*
X-23475542Y-2329746D01*
X-25660742Y-3531606D01*
X-25728970Y-3546665D01*
X-25794508Y-3522448D01*
X-25836549Y-3466642D01*
X-25844500Y-3422955D01*
X-25844500Y4381510D01*
X-25844944Y4386126D01*
X-25847342Y4411104D01*
X-25856325Y4457441D01*
X-25862650Y4471232D01*
X-25886959Y4524233D01*
X-25906973Y4549569D01*
X-25930271Y4579063D01*
X-25934996Y4584759D01*
X-26001754Y4629731D01*
X-26067829Y4652439D01*
X-26111307Y4660721D01*
X-26111310Y4660722D01*
X-26111316Y4660722D01*
X-33940417Y5016590D01*
X-34006493Y5039298D01*
X-34049803Y5094125D01*
X-34056596Y5163664D01*
X-34052716Y5178782D01*
X-33714668Y6218410D01*
X-33710393Y6229660D01*
X-33682426Y6293713D01*
X-33511005Y6686329D01*
X-33484367Y6747339D01*
X-33439502Y6800901D01*
X-33372802Y6821705D01*
X-33305442Y6803145D01*
X-33299604Y6799297D01*
X-31989647Y5882055D01*
X-31986072Y5879456D01*
X-31985678Y5879159D01*
X-31985091Y5878748D01*
X-31984667Y5878473D01*
X-31981008Y5876007D01*
X-31903412Y5821674D01*
X-31902680Y5821249D01*
X-31870505Y5806075D01*
X-31868310Y5805349D01*
X-31843557Y5794013D01*
X-31739618Y5731784D01*
X-31738996Y5731469D01*
X-31475125Y5620942D01*
X-31475121Y5620941D01*
X-31474463Y5620719D01*
X-31197523Y5548862D01*
X-31196842Y5548737D01*
X-31196827Y5548735D01*
X-30912522Y5517027D01*
X-30912491Y5517025D01*
X-30911810Y5516998D01*
X-30625856Y5526075D01*
X-30625138Y5526149D01*
X-30343423Y5575823D01*
X-30343398Y5575828D01*
X-30342712Y5576000D01*
X-30070913Y5665268D01*
X-30070243Y5665542D01*
X-29813928Y5792575D01*
X-29813924Y5792576D01*
X-29813312Y5792937D01*
X-29616257Y5928600D01*
X-13812230Y5928600D01*
X-13805631Y5878473D01*
X-13793310Y5784892D01*
X-13793309Y5784888D01*
X-13737843Y5650978D01*
X-13737842Y5650976D01*
X-13737841Y5650975D01*
X-13649601Y5535979D01*
X-13534605Y5447739D01*
X-13400689Y5392270D01*
X-13273700Y5375552D01*
X-13256981Y5373350D01*
X-13256980Y5373350D01*
X-13256979Y5373350D01*
X-13242003Y5375322D01*
X-13113271Y5392270D01*
X-12979355Y5447739D01*
X-12864359Y5535979D01*
X-12776119Y5650975D01*
X-12720650Y5784891D01*
X-12701730Y5928600D01*
X-12720650Y6072309D01*
X-12776119Y6206225D01*
X-12864359Y6321221D01*
X-12979355Y6409461D01*
X-12979356Y6409462D01*
X-12979358Y6409463D01*
X-13113268Y6464929D01*
X-13113270Y6464930D01*
X-13113271Y6464930D01*
X-13185126Y6474390D01*
X-13256979Y6483850D01*
X-13256981Y6483850D01*
X-13400689Y6464930D01*
X-13400693Y6464929D01*
X-13534603Y6409463D01*
X-13649601Y6321221D01*
X-13737843Y6206223D01*
X-13793309Y6072313D01*
X-13793310Y6072309D01*
X-13808674Y5955607D01*
X-13812230Y5928600D01*
X-29616257Y5928600D01*
X-29577652Y5955178D01*
X-29577114Y5955607D01*
X-29577097Y5955621D01*
X-29366954Y6149721D01*
X-29366935Y6149739D01*
X-29366472Y6150233D01*
X-29186065Y6372295D01*
X-29185664Y6372868D01*
X-29185662Y6372871D01*
X-29038702Y6618335D01*
X-29038697Y6618346D01*
X-29038381Y6618969D01*
X-29031475Y6635457D01*
X-26834212Y6635457D01*
X-26834212Y6635456D01*
X-26815292Y6491748D01*
X-26815291Y6491744D01*
X-26759825Y6357834D01*
X-26759824Y6357832D01*
X-26759823Y6357831D01*
X-26671583Y6242835D01*
X-26556587Y6154595D01*
X-26556586Y6154595D01*
X-26556585Y6154594D01*
X-26544820Y6149721D01*
X-26422671Y6099126D01*
X-26295682Y6082408D01*
X-26278963Y6080206D01*
X-26278962Y6080206D01*
X-26278961Y6080206D01*
X-26263985Y6082178D01*
X-26135253Y6099126D01*
X-26001337Y6154595D01*
X-25886341Y6242835D01*
X-25798101Y6357831D01*
X-25742632Y6491747D01*
X-25731829Y6573800D01*
X748353Y6573800D01*
X762686Y6464929D01*
X767273Y6430092D01*
X767274Y6430088D01*
X822740Y6296178D01*
X822741Y6296176D01*
X822742Y6296175D01*
X910982Y6181179D01*
X1025978Y6092939D01*
X1159894Y6037470D01*
X1286883Y6020752D01*
X1303602Y6018550D01*
X1303603Y6018550D01*
X1303604Y6018550D01*
X1318580Y6020522D01*
X1447312Y6037470D01*
X1581228Y6092939D01*
X1655591Y6150000D01*
X6544750Y6150000D01*
X6552262Y6092938D01*
X6563670Y6006292D01*
X6563671Y6006288D01*
X6619137Y5872378D01*
X6619138Y5872376D01*
X6619139Y5872375D01*
X6707379Y5757379D01*
X6822375Y5669139D01*
X6822376Y5669139D01*
X6822377Y5669138D01*
X6866220Y5650978D01*
X6956291Y5613670D01*
X7083280Y5596952D01*
X7099999Y5594750D01*
X7100000Y5594750D01*
X7100001Y5594750D01*
X7114977Y5596722D01*
X7243709Y5613670D01*
X7377625Y5669139D01*
X7492621Y5757379D01*
X7580861Y5872375D01*
X7636330Y6006291D01*
X7655250Y6150000D01*
X7636330Y6293709D01*
X7580861Y6427625D01*
X7492621Y6542621D01*
X7377625Y6630861D01*
X7377624Y6630862D01*
X7377622Y6630863D01*
X7243712Y6686329D01*
X7243710Y6686330D01*
X7243709Y6686330D01*
X7171854Y6695790D01*
X7100001Y6705250D01*
X7099999Y6705250D01*
X6956291Y6686330D01*
X6956287Y6686329D01*
X6822377Y6630863D01*
X6707379Y6542621D01*
X6619137Y6427623D01*
X6563671Y6293713D01*
X6563670Y6293709D01*
X6548997Y6182255D01*
X6544750Y6150000D01*
X1655591Y6150000D01*
X1696224Y6181179D01*
X1784464Y6296175D01*
X1839933Y6430091D01*
X1858853Y6573800D01*
X1839933Y6717509D01*
X1784464Y6851425D01*
X1696224Y6966421D01*
X1581228Y7054661D01*
X1581227Y7054662D01*
X1581225Y7054663D01*
X1447315Y7110129D01*
X1447313Y7110130D01*
X1447312Y7110130D01*
X1375457Y7119590D01*
X1303604Y7129050D01*
X1303602Y7129050D01*
X1159894Y7110130D01*
X1159890Y7110129D01*
X1025980Y7054663D01*
X910982Y6966421D01*
X822740Y6851423D01*
X767274Y6717513D01*
X767273Y6717509D01*
X748353Y6573800D01*
X-25731829Y6573800D01*
X-25723712Y6635456D01*
X-25742632Y6779165D01*
X-25742635Y6779172D01*
X-25744736Y6787016D01*
X-25742466Y6787625D01*
X-25748650Y6845119D01*
X-25717380Y6907601D01*
X-25657293Y6943257D01*
X-25587468Y6940768D01*
X-25563943Y6928283D01*
X-25563264Y6929458D01*
X-25556229Y6925397D01*
X-25556225Y6925394D01*
X-25422309Y6869925D01*
X-25295320Y6853207D01*
X-25278601Y6851005D01*
X-25278600Y6851005D01*
X-25278599Y6851005D01*
X-25263623Y6852977D01*
X-25134891Y6869925D01*
X-25000975Y6925394D01*
X-24885979Y7013634D01*
X-24797739Y7128630D01*
X-24742270Y7262546D01*
X-24723350Y7406255D01*
X-24742270Y7549964D01*
X-24783706Y7650000D01*
X10194750Y7650000D01*
X10210312Y7531794D01*
X10213670Y7506292D01*
X10213671Y7506288D01*
X10269137Y7372378D01*
X10269138Y7372376D01*
X10269139Y7372375D01*
X10357379Y7257379D01*
X10472375Y7169139D01*
X10472376Y7169139D01*
X10472377Y7169138D01*
X10493372Y7160442D01*
X10606291Y7113670D01*
X10721889Y7098451D01*
X10749999Y7094750D01*
X10750000Y7094750D01*
X10750001Y7094750D01*
X10764977Y7096722D01*
X10893709Y7113670D01*
X11027625Y7169139D01*
X11142621Y7257379D01*
X11230861Y7372375D01*
X11286330Y7506291D01*
X11305250Y7650000D01*
X11298667Y7700001D01*
X17894750Y7700001D01*
X17894750Y7700000D01*
X17913670Y7556292D01*
X17913671Y7556288D01*
X17969137Y7422378D01*
X17969138Y7422376D01*
X17969139Y7422375D01*
X18057379Y7307379D01*
X18067745Y7299425D01*
X18134273Y7248375D01*
X18175476Y7191947D01*
X18179630Y7122201D01*
X18145417Y7061281D01*
X18134273Y7051625D01*
X18057381Y6992623D01*
X18057380Y6992622D01*
X18057379Y6992621D01*
X18017591Y6940768D01*
X17969137Y6877623D01*
X17913671Y6743713D01*
X17913670Y6743709D01*
X17894750Y6600000D01*
X17909002Y6491744D01*
X17913670Y6456292D01*
X17913671Y6456288D01*
X17969137Y6322378D01*
X17969138Y6322376D01*
X17969139Y6322375D01*
X18057379Y6207379D01*
X18172375Y6119139D01*
X18306291Y6063670D01*
X18433280Y6046952D01*
X18449999Y6044750D01*
X18450000Y6044750D01*
X18450001Y6044750D01*
X18464977Y6046722D01*
X18593709Y6063670D01*
X18727625Y6119139D01*
X18842621Y6207379D01*
X18930861Y6322375D01*
X18986330Y6456291D01*
X19005250Y6600000D01*
X18986330Y6743709D01*
X18941713Y6851425D01*
X18930862Y6877623D01*
X18930861Y6877624D01*
X18930861Y6877625D01*
X18842621Y6992621D01*
X18765724Y7051627D01*
X18748485Y7075237D01*
X22819514Y7075237D01*
X22819514Y7075236D01*
X22838434Y6931528D01*
X22838435Y6931524D01*
X22893901Y6797614D01*
X22893902Y6797612D01*
X22893903Y6797611D01*
X22982143Y6682615D01*
X23097139Y6594375D01*
X23231055Y6538906D01*
X23358044Y6522188D01*
X23374763Y6519986D01*
X23374764Y6519986D01*
X23374765Y6519986D01*
X23389741Y6521958D01*
X23518473Y6538906D01*
X23652389Y6594375D01*
X23767385Y6682615D01*
X23855625Y6797611D01*
X23911094Y6931527D01*
X23930014Y7075236D01*
X23929273Y7080861D01*
X23926629Y7100949D01*
X23911094Y7218945D01*
X23874114Y7308223D01*
X23855626Y7352859D01*
X23855625Y7352860D01*
X23855625Y7352861D01*
X23767385Y7467857D01*
X23652389Y7556097D01*
X23652388Y7556098D01*
X23652386Y7556099D01*
X23518476Y7611565D01*
X23518474Y7611566D01*
X23518473Y7611566D01*
X23446618Y7621026D01*
X23374765Y7630486D01*
X23374763Y7630486D01*
X23231055Y7611566D01*
X23231051Y7611565D01*
X23097141Y7556099D01*
X22982143Y7467857D01*
X22893901Y7352859D01*
X22838435Y7218949D01*
X22838434Y7218945D01*
X22819514Y7075237D01*
X18748485Y7075237D01*
X18724524Y7108052D01*
X18720369Y7177798D01*
X18754582Y7238719D01*
X18765716Y7248368D01*
X18842621Y7307379D01*
X18930861Y7422375D01*
X18986330Y7556291D01*
X19005250Y7700000D01*
X18986330Y7843709D01*
X18930861Y7977625D01*
X18842621Y8092621D01*
X18727625Y8180861D01*
X18727624Y8180862D01*
X18727622Y8180863D01*
X18593712Y8236329D01*
X18593710Y8236330D01*
X18593709Y8236330D01*
X18521854Y8245790D01*
X18450001Y8255250D01*
X18449999Y8255250D01*
X18306291Y8236330D01*
X18306287Y8236329D01*
X18172377Y8180863D01*
X18057379Y8092621D01*
X17969137Y7977623D01*
X17913671Y7843713D01*
X17913670Y7843709D01*
X17894750Y7700001D01*
X11298667Y7700001D01*
X11286330Y7793709D01*
X11242762Y7898892D01*
X11230862Y7927623D01*
X11230861Y7927624D01*
X11230861Y7927625D01*
X11142621Y8042621D01*
X11027625Y8130861D01*
X11027624Y8130862D01*
X11027622Y8130863D01*
X10893712Y8186329D01*
X10893710Y8186330D01*
X10893709Y8186330D01*
X10821854Y8195790D01*
X10750001Y8205250D01*
X10749999Y8205250D01*
X10606291Y8186330D01*
X10606287Y8186329D01*
X10472377Y8130863D01*
X10357379Y8042621D01*
X10269137Y7927623D01*
X10213671Y7793713D01*
X10213670Y7793709D01*
X10197395Y7670087D01*
X10194750Y7650000D01*
X-24783706Y7650000D01*
X-24797739Y7683880D01*
X-24885979Y7798876D01*
X-24885982Y7798878D01*
X-24886471Y7799516D01*
X-24911666Y7864685D01*
X-24897628Y7933130D01*
X-24875771Y7962691D01*
X-24874898Y7963566D01*
X-24874889Y7963572D01*
X-24786649Y8078568D01*
X-24733693Y8206418D01*
X4185803Y8206418D01*
X4185803Y8206417D01*
X4204723Y8062709D01*
X4204724Y8062705D01*
X4260190Y7928795D01*
X4260191Y7928793D01*
X4260192Y7928792D01*
X4348432Y7813796D01*
X4463428Y7725556D01*
X4597344Y7670087D01*
X4724333Y7653369D01*
X4741052Y7651167D01*
X4741053Y7651167D01*
X4741054Y7651167D01*
X4756030Y7653139D01*
X4884762Y7670087D01*
X5018678Y7725556D01*
X5133674Y7813796D01*
X5221914Y7928792D01*
X5277383Y8062708D01*
X5296303Y8206417D01*
X5277383Y8350126D01*
X5232465Y8458570D01*
X5221915Y8484040D01*
X5221914Y8484041D01*
X5221914Y8484042D01*
X5133674Y8599038D01*
X5018678Y8687278D01*
X5018677Y8687279D01*
X5018675Y8687280D01*
X4884765Y8742746D01*
X4884763Y8742747D01*
X4884762Y8742747D01*
X4812907Y8752207D01*
X4741054Y8761667D01*
X4741052Y8761667D01*
X4597344Y8742747D01*
X4597340Y8742746D01*
X4463430Y8687280D01*
X4348432Y8599038D01*
X4260190Y8484040D01*
X4204724Y8350130D01*
X4204723Y8350126D01*
X4185803Y8206418D01*
X-24733693Y8206418D01*
X-24731180Y8212484D01*
X-24712260Y8356193D01*
X-24731180Y8499902D01*
X-24786649Y8633818D01*
X-24874889Y8748814D01*
X-24989885Y8837054D01*
X-24989886Y8837055D01*
X-24989888Y8837056D01*
X-25123798Y8892522D01*
X-25123800Y8892523D01*
X-25123801Y8892523D01*
X-25215191Y8904555D01*
X-25267509Y8911443D01*
X-25267511Y8911443D01*
X-25411219Y8892523D01*
X-25411223Y8892522D01*
X-25545133Y8837056D01*
X-25660131Y8748814D01*
X-25748373Y8633816D01*
X-25803839Y8499906D01*
X-25803840Y8499902D01*
X-25822760Y8356194D01*
X-25822760Y8356193D01*
X-25803840Y8212485D01*
X-25803839Y8212481D01*
X-25748373Y8078571D01*
X-25748372Y8078570D01*
X-25748371Y8078568D01*
X-25660131Y7963572D01*
X-25660129Y7963571D01*
X-25659639Y7962932D01*
X-25634445Y7897763D01*
X-25648483Y7829318D01*
X-25670327Y7799770D01*
X-25671218Y7798880D01*
X-25759463Y7683878D01*
X-25814929Y7549968D01*
X-25814930Y7549964D01*
X-25833850Y7406255D01*
X-25829390Y7372375D01*
X-25814930Y7262547D01*
X-25812826Y7254695D01*
X-25815095Y7254088D01*
X-25808915Y7196577D01*
X-25840194Y7134100D01*
X-25900285Y7098451D01*
X-25970110Y7100949D01*
X-25993621Y7113428D01*
X-25994298Y7112253D01*
X-26001339Y7116318D01*
X-26135250Y7171785D01*
X-26135252Y7171786D01*
X-26135253Y7171786D01*
X-26207108Y7181246D01*
X-26278961Y7190706D01*
X-26278963Y7190706D01*
X-26422671Y7171786D01*
X-26422675Y7171785D01*
X-26556585Y7116319D01*
X-26671583Y7028077D01*
X-26759825Y6913079D01*
X-26815291Y6779169D01*
X-26815292Y6779165D01*
X-26834212Y6635457D01*
X-29031475Y6635457D01*
X-28927854Y6882840D01*
X-28927853Y6882844D01*
X-28927631Y6883502D01*
X-28855774Y7160442D01*
X-28855649Y7161123D01*
X-28855647Y7161138D01*
X-28823939Y7445443D01*
X-28823937Y7445474D01*
X-28823910Y7446155D01*
X-28832987Y7732109D01*
X-28833061Y7732827D01*
X-28882735Y8014542D01*
X-28882740Y8014567D01*
X-28882912Y8015253D01*
X-28972180Y8287052D01*
X-28972457Y8287729D01*
X-28973364Y8289738D01*
X-28973292Y8289771D01*
X-28973297Y8289784D01*
X-28972929Y8289935D01*
X-28972828Y8289981D01*
X-28984563Y8356447D01*
X-28957584Y8420898D01*
X-28900043Y8460531D01*
X-28849895Y8465728D01*
X-28849863Y8466141D01*
X-28847621Y8465973D01*
X-28846934Y8465946D01*
X-28560980Y8475023D01*
X-28560262Y8475097D01*
X-28278547Y8524771D01*
X-28278522Y8524776D01*
X-28277836Y8524948D01*
X-28006037Y8614216D01*
X-28005367Y8614490D01*
X-27749052Y8741523D01*
X-27749048Y8741524D01*
X-27748436Y8741885D01*
X-27512776Y8904126D01*
X-27512238Y8904555D01*
X-27512221Y8904569D01*
X-27302078Y9098669D01*
X-27302059Y9098687D01*
X-27301596Y9099181D01*
X-27121189Y9321243D01*
X-27120788Y9321816D01*
X-27120786Y9321819D01*
X-26973826Y9567283D01*
X-26973821Y9567294D01*
X-26973505Y9567917D01*
X-26862978Y9831788D01*
X-26862977Y9831792D01*
X-26862755Y9832450D01*
X-26790898Y10109390D01*
X-26790773Y10110071D01*
X-26790771Y10110086D01*
X-26760832Y10378530D01*
X-26477203Y10378530D01*
X-26477203Y10378529D01*
X-26458283Y10234821D01*
X-26458282Y10234817D01*
X-26402816Y10100907D01*
X-26402815Y10100905D01*
X-26402814Y10100904D01*
X-26314574Y9985908D01*
X-26199578Y9897668D01*
X-26065662Y9842199D01*
X-25938673Y9825481D01*
X-25921954Y9823279D01*
X-25921953Y9823279D01*
X-25921952Y9823279D01*
X-25906976Y9825251D01*
X-25778244Y9842199D01*
X-25644328Y9897668D01*
X-25529332Y9985908D01*
X-25441092Y10100904D01*
X-25385623Y10234820D01*
X-25366703Y10378529D01*
X-25366703Y10378530D01*
X-25366545Y10379727D01*
X-25338278Y10443623D01*
X-25279953Y10482094D01*
X-25279179Y10482210D01*
X-22987459Y10482210D01*
X-22987459Y10482209D01*
X-22968539Y10338501D01*
X-22968538Y10338497D01*
X-22913072Y10204587D01*
X-22913071Y10204585D01*
X-22913070Y10204584D01*
X-22824830Y10089588D01*
X-22709834Y10001348D01*
X-22575918Y9945879D01*
X-22448929Y9929161D01*
X-22432210Y9926959D01*
X-22432209Y9926959D01*
X-22432208Y9926959D01*
X-22417232Y9928931D01*
X-22288500Y9945879D01*
X-22154584Y10001348D01*
X-22039588Y10089588D01*
X-21951348Y10204584D01*
X-21895879Y10338500D01*
X-21877870Y10475291D01*
X-14765248Y10475291D01*
X-14747113Y10337541D01*
X-14746328Y10331583D01*
X-14746327Y10331579D01*
X-14690861Y10197669D01*
X-14690860Y10197667D01*
X-14690859Y10197666D01*
X-14602619Y10082670D01*
X-14487623Y9994430D01*
X-14353707Y9938961D01*
X-14226718Y9922243D01*
X-14209999Y9920041D01*
X-14209998Y9920041D01*
X-14209997Y9920041D01*
X-14195021Y9922013D01*
X-14066289Y9938961D01*
X-13932373Y9994430D01*
X-13817377Y10082670D01*
X-13729137Y10197666D01*
X-13673668Y10331582D01*
X-13654748Y10475291D01*
X-13656245Y10486658D01*
X-13660929Y10522238D01*
X-13671167Y10600000D01*
X-12905250Y10600000D01*
X-12888832Y10475292D01*
X-12886330Y10456292D01*
X-12886329Y10456288D01*
X-12830863Y10322378D01*
X-12830862Y10322376D01*
X-12830861Y10322375D01*
X-12742621Y10207379D01*
X-12627625Y10119139D01*
X-12627624Y10119139D01*
X-12627623Y10119138D01*
X-12583608Y10100907D01*
X-12493709Y10063670D01*
X-12366720Y10046952D01*
X-12350001Y10044750D01*
X-12350000Y10044750D01*
X-12349999Y10044750D01*
X-12335023Y10046722D01*
X-12206291Y10063670D01*
X-12072375Y10119139D01*
X-11957379Y10207379D01*
X-11873375Y10316855D01*
X-11816948Y10358057D01*
X-11747202Y10362212D01*
X-11686282Y10328000D01*
X-11676629Y10316860D01*
X-11630549Y10256807D01*
X-11613678Y10234820D01*
X-11592621Y10207379D01*
X-11477625Y10119139D01*
X-11477624Y10119139D01*
X-11477623Y10119138D01*
X-11433608Y10100907D01*
X-11343709Y10063670D01*
X-11216720Y10046952D01*
X-11200001Y10044750D01*
X-11200000Y10044750D01*
X-11199999Y10044750D01*
X-11185023Y10046722D01*
X-11056291Y10063670D01*
X-10922375Y10119139D01*
X-10807379Y10207379D01*
X-10719139Y10322375D01*
X-10663670Y10456291D01*
X-10644750Y10600000D01*
X-10663670Y10743709D01*
X-10719139Y10877625D01*
X-10807379Y10992621D01*
X-10922375Y11080861D01*
X-10922376Y11080862D01*
X-10922378Y11080863D01*
X-11056288Y11136329D01*
X-11056290Y11136330D01*
X-11056291Y11136330D01*
X-11160123Y11150000D01*
X-11199999Y11155250D01*
X-11200001Y11155250D01*
X-11343709Y11136330D01*
X-11343713Y11136329D01*
X-11477623Y11080863D01*
X-11517844Y11050000D01*
X-11592621Y10992621D01*
X-11592622Y10992620D01*
X-11592623Y10992619D01*
X-11676625Y10883146D01*
X-11733053Y10841944D01*
X-11802799Y10837789D01*
X-11863719Y10872002D01*
X-11873375Y10883146D01*
X-11916407Y10939226D01*
X-11957379Y10992621D01*
X-12072375Y11080861D01*
X-12072376Y11080862D01*
X-12072378Y11080863D01*
X-12206288Y11136329D01*
X-12206290Y11136330D01*
X-12206291Y11136330D01*
X-12310123Y11150000D01*
X-12349999Y11155250D01*
X-12350001Y11155250D01*
X-12493709Y11136330D01*
X-12493713Y11136329D01*
X-12627623Y11080863D01*
X-12742621Y10992621D01*
X-12830863Y10877623D01*
X-12886329Y10743713D01*
X-12886330Y10743709D01*
X-12894578Y10681057D01*
X-12905250Y10600000D01*
X-13671167Y10600000D01*
X-13673668Y10619000D01*
X-13729137Y10752916D01*
X-13817377Y10867912D01*
X-13932373Y10956152D01*
X-13932374Y10956153D01*
X-13932376Y10956154D01*
X-14066286Y11011620D01*
X-14066288Y11011621D01*
X-14066289Y11011621D01*
X-14138144Y11021081D01*
X-14209997Y11030541D01*
X-14209999Y11030541D01*
X-14353707Y11011621D01*
X-14353711Y11011620D01*
X-14487621Y10956154D01*
X-14602619Y10867912D01*
X-14690861Y10752914D01*
X-14746327Y10619004D01*
X-14746328Y10619000D01*
X-14763751Y10486658D01*
X-14765248Y10475291D01*
X-21877870Y10475291D01*
X-21876959Y10482209D01*
X-21895879Y10625918D01*
X-21944669Y10743709D01*
X-21951347Y10759832D01*
X-21951348Y10759833D01*
X-21951348Y10759834D01*
X-22039588Y10874830D01*
X-22154584Y10963070D01*
X-22154585Y10963071D01*
X-22154587Y10963072D01*
X-22288497Y11018538D01*
X-22288499Y11018539D01*
X-22288500Y11018539D01*
X-22364228Y11028509D01*
X-22432208Y11037459D01*
X-22432210Y11037459D01*
X-22575918Y11018539D01*
X-22575922Y11018538D01*
X-22709832Y10963072D01*
X-22824830Y10874830D01*
X-22913072Y10759832D01*
X-22968538Y10625922D01*
X-22968539Y10625918D01*
X-22987459Y10482210D01*
X-25279179Y10482210D01*
X-25250847Y10486456D01*
X-25250850Y10486480D01*
X-25249500Y10486658D01*
X-25243606Y10487541D01*
X-25242791Y10487541D01*
X-25099082Y10506461D01*
X-24965166Y10561930D01*
X-24850170Y10650170D01*
X-24761930Y10765166D01*
X-24706461Y10899082D01*
X-24687541Y11042791D01*
X-24706461Y11186500D01*
X-24751046Y11294139D01*
X-24761929Y11320414D01*
X-24761930Y11320415D01*
X-24761930Y11320416D01*
X-24850170Y11435412D01*
X-24965166Y11523652D01*
X-24965167Y11523653D01*
X-24965169Y11523654D01*
X-25099079Y11579120D01*
X-25099081Y11579121D01*
X-25099082Y11579121D01*
X-25170937Y11588581D01*
X-25242790Y11598041D01*
X-25242792Y11598041D01*
X-25386500Y11579121D01*
X-25386504Y11579120D01*
X-25520414Y11523654D01*
X-25635412Y11435412D01*
X-25723654Y11320414D01*
X-25779120Y11186504D01*
X-25779121Y11186499D01*
X-25798199Y11041593D01*
X-25826466Y10977697D01*
X-25884791Y10939226D01*
X-25913899Y10934864D01*
X-25913895Y10934840D01*
X-25915238Y10934664D01*
X-25921138Y10933779D01*
X-25921954Y10933779D01*
X-26065662Y10914859D01*
X-26065666Y10914858D01*
X-26199576Y10859392D01*
X-26314574Y10771150D01*
X-26402816Y10656152D01*
X-26458282Y10522242D01*
X-26458283Y10522238D01*
X-26477203Y10378530D01*
X-26760832Y10378530D01*
X-26759063Y10394391D01*
X-26759061Y10394422D01*
X-26759034Y10395103D01*
X-26768111Y10681057D01*
X-26768185Y10681775D01*
X-26817859Y10963490D01*
X-26817864Y10963515D01*
X-26818036Y10964201D01*
X-26907304Y11236000D01*
X-26907578Y11236670D01*
X-27034611Y11492985D01*
X-27034612Y11492989D01*
X-27034973Y11493601D01*
X-27197214Y11729261D01*
X-27197643Y11729799D01*
X-27197657Y11729816D01*
X-27239392Y11775001D01*
X-21945252Y11775001D01*
X-21945252Y11775000D01*
X-21926332Y11631292D01*
X-21926331Y11631288D01*
X-21870865Y11497378D01*
X-21870864Y11497376D01*
X-21870863Y11497375D01*
X-21782623Y11382379D01*
X-21667627Y11294139D01*
X-21533711Y11238670D01*
X-21406722Y11221952D01*
X-21390003Y11219750D01*
X-21390002Y11219750D01*
X-21390001Y11219750D01*
X-21375025Y11221722D01*
X-21246293Y11238670D01*
X-21112377Y11294139D01*
X-20997381Y11382379D01*
X-20909141Y11497375D01*
X-20853672Y11631291D01*
X-20843389Y11709400D01*
X-8073650Y11709400D01*
X-8061707Y11618682D01*
X-8054730Y11565692D01*
X-8054729Y11565688D01*
X-7999263Y11431778D01*
X-7999262Y11431776D01*
X-7999261Y11431775D01*
X-7911021Y11316779D01*
X-7796025Y11228539D01*
X-7662109Y11173070D01*
X-7542926Y11157379D01*
X-7518401Y11154150D01*
X-7518400Y11154150D01*
X-7518399Y11154150D01*
X-7493874Y11157379D01*
X-7374691Y11173070D01*
X-7240775Y11228539D01*
X-7125779Y11316779D01*
X-7037539Y11431775D01*
X-7021170Y11471293D01*
X-3469500Y11471293D01*
X-3469500Y11318707D01*
X-3430476Y11173070D01*
X-3430007Y11171319D01*
X-3353718Y11039183D01*
X-3353716Y11039181D01*
X-3353715Y11039179D01*
X-3245821Y10931285D01*
X-3245820Y10931284D01*
X-3245818Y10931283D01*
X-3113682Y10854994D01*
X-3113681Y10854994D01*
X-3113678Y10854992D01*
X-2966293Y10815500D01*
X-2966290Y10815500D01*
X-2813710Y10815500D01*
X-2813707Y10815500D01*
X-2666322Y10854992D01*
X-2534179Y10931285D01*
X-2426285Y11039179D01*
X-2349992Y11171322D01*
X-2310500Y11318707D01*
X-2310500Y11339077D01*
X-2290815Y11406116D01*
X-2238011Y11451871D01*
X-2170316Y11462016D01*
X-2129850Y11456688D01*
X-1986141Y11475608D01*
X-1852225Y11531077D01*
X-1737229Y11619317D01*
X-1648989Y11734313D01*
X-1593520Y11868229D01*
X-1586873Y11918717D01*
X1054530Y11918717D01*
X1069393Y11805820D01*
X1073450Y11775009D01*
X1073451Y11775005D01*
X1128917Y11641095D01*
X1128918Y11641093D01*
X1128919Y11641092D01*
X1217159Y11526096D01*
X1332155Y11437856D01*
X1466071Y11382387D01*
X1593060Y11365669D01*
X1609779Y11363467D01*
X1609780Y11363467D01*
X1609781Y11363467D01*
X1624757Y11365439D01*
X1753489Y11382387D01*
X1887405Y11437856D01*
X1930981Y11471293D01*
X2310500Y11471293D01*
X2310500Y11318707D01*
X2349524Y11173070D01*
X2349993Y11171319D01*
X2426282Y11039183D01*
X2426284Y11039181D01*
X2426285Y11039179D01*
X2534179Y10931285D01*
X2534180Y10931284D01*
X2534182Y10931283D01*
X2666318Y10854994D01*
X2666319Y10854994D01*
X2666322Y10854992D01*
X2813707Y10815500D01*
X2813710Y10815500D01*
X2966290Y10815500D01*
X2966293Y10815500D01*
X3113678Y10854992D01*
X3245821Y10931285D01*
X3353715Y11039179D01*
X3430008Y11171322D01*
X3469500Y11318707D01*
X3469500Y11471293D01*
X3448410Y11550000D01*
X12194750Y11550000D01*
X12209514Y11437855D01*
X12213670Y11406292D01*
X12213671Y11406288D01*
X12269137Y11272378D01*
X12269138Y11272376D01*
X12269139Y11272375D01*
X12357379Y11157379D01*
X12472375Y11069139D01*
X12606291Y11013670D01*
X12733280Y10996952D01*
X12749999Y10994750D01*
X12750000Y10994750D01*
X12750001Y10994750D01*
X12764977Y10996722D01*
X12893709Y11013670D01*
X12987008Y11052316D01*
X13056474Y11059784D01*
X13118954Y11028509D01*
X13154606Y10968420D01*
X13157396Y10953944D01*
X13162490Y10915255D01*
X13163670Y10906292D01*
X13163671Y10906288D01*
X13219137Y10772378D01*
X13219138Y10772376D01*
X13219139Y10772375D01*
X13307379Y10657379D01*
X13422375Y10569139D01*
X13422376Y10569139D01*
X13422377Y10569138D01*
X13467013Y10550650D01*
X13556291Y10513670D01*
X13683280Y10496952D01*
X13699999Y10494750D01*
X13700000Y10494750D01*
X13700001Y10494750D01*
X13714977Y10496722D01*
X13843709Y10513670D01*
X13977625Y10569139D01*
X14092621Y10657379D01*
X14180861Y10772375D01*
X14236330Y10906291D01*
X14255250Y11050000D01*
X14242085Y11150000D01*
X17944750Y11150000D01*
X17962968Y11011620D01*
X17963670Y11006292D01*
X17963671Y11006288D01*
X18019137Y10872378D01*
X18019138Y10872376D01*
X18019139Y10872375D01*
X18107379Y10757379D01*
X18222375Y10669139D01*
X18222376Y10669139D01*
X18222377Y10669138D01*
X18253724Y10656154D01*
X18356291Y10613670D01*
X18483280Y10596952D01*
X18499999Y10594750D01*
X18500000Y10594750D01*
X18500001Y10594750D01*
X18514977Y10596722D01*
X18643709Y10613670D01*
X18777625Y10669139D01*
X18892621Y10757379D01*
X18980861Y10872375D01*
X19036330Y11006291D01*
X19055250Y11150000D01*
X19036330Y11293709D01*
X18980861Y11427625D01*
X18892621Y11542621D01*
X18777625Y11630861D01*
X18777624Y11630862D01*
X18777622Y11630863D01*
X18643712Y11686329D01*
X18643710Y11686330D01*
X18643709Y11686330D01*
X18571854Y11695790D01*
X18500001Y11705250D01*
X18499999Y11705250D01*
X18356291Y11686330D01*
X18356287Y11686329D01*
X18222377Y11630863D01*
X18107379Y11542621D01*
X18019137Y11427623D01*
X17963671Y11293713D01*
X17963670Y11293709D01*
X17945722Y11157380D01*
X17944750Y11150000D01*
X14242085Y11150000D01*
X14236330Y11193709D01*
X14194731Y11294139D01*
X14180862Y11327623D01*
X14180861Y11327624D01*
X14180861Y11327625D01*
X14092621Y11442621D01*
X14092618Y11442623D01*
X14087673Y11449068D01*
X14090375Y11451142D01*
X14064438Y11498642D01*
X14069422Y11568334D01*
X14089480Y11599545D01*
X14087673Y11600932D01*
X14092618Y11607378D01*
X14092621Y11607379D01*
X14180861Y11722375D01*
X14236330Y11856291D01*
X14255250Y12000000D01*
X14236330Y12143709D01*
X14180861Y12277625D01*
X14092621Y12392621D01*
X13977625Y12480861D01*
X13977624Y12480862D01*
X13977622Y12480863D01*
X13843712Y12536329D01*
X13843710Y12536330D01*
X13843709Y12536330D01*
X13753033Y12548268D01*
X13700001Y12555250D01*
X13699999Y12555250D01*
X13556291Y12536330D01*
X13556287Y12536329D01*
X13422377Y12480863D01*
X13307379Y12392621D01*
X13219137Y12277623D01*
X13163671Y12143713D01*
X13163669Y12143705D01*
X13163638Y12143468D01*
X13163556Y12143284D01*
X13161567Y12135859D01*
X13160408Y12136170D01*
X13135367Y12079573D01*
X13077040Y12041106D01*
X13007175Y12040280D01*
X12993251Y12045099D01*
X12893709Y12086330D01*
X12893708Y12086331D01*
X12893706Y12086331D01*
X12750001Y12105250D01*
X12749999Y12105250D01*
X12606291Y12086330D01*
X12606287Y12086329D01*
X12472377Y12030863D01*
X12357379Y11942621D01*
X12269137Y11827623D01*
X12213671Y11693713D01*
X12213670Y11693709D01*
X12194750Y11550000D01*
X3448410Y11550000D01*
X3430008Y11618678D01*
X3429638Y11619318D01*
X3353717Y11750818D01*
X3353712Y11750824D01*
X3245823Y11858713D01*
X3245817Y11858718D01*
X3113681Y11935007D01*
X3113682Y11935007D01*
X3095130Y11939978D01*
X2966293Y11974500D01*
X2813707Y11974500D01*
X2684870Y11939978D01*
X2666318Y11935007D01*
X2534182Y11858718D01*
X2534176Y11858713D01*
X2426287Y11750824D01*
X2426282Y11750818D01*
X2349993Y11618682D01*
X2349992Y11618678D01*
X2310500Y11471293D01*
X1930981Y11471293D01*
X2002401Y11526096D01*
X2090641Y11641092D01*
X2146110Y11775008D01*
X2165030Y11918717D01*
X2146110Y12062426D01*
X2107496Y12155651D01*
X2090642Y12196340D01*
X2090641Y12196341D01*
X2090641Y12196342D01*
X2002401Y12311338D01*
X1887405Y12399578D01*
X1887404Y12399579D01*
X1887402Y12399580D01*
X1753492Y12455046D01*
X1753490Y12455047D01*
X1753489Y12455047D01*
X1681634Y12464507D01*
X1609781Y12473967D01*
X1609779Y12473967D01*
X1466071Y12455047D01*
X1466067Y12455046D01*
X1332157Y12399580D01*
X1217159Y12311338D01*
X1128917Y12196340D01*
X1073451Y12062430D01*
X1073450Y12062426D01*
X1054530Y11918717D01*
X-1586873Y11918717D01*
X-1574600Y12011938D01*
X-1593520Y12155647D01*
X-1648989Y12289563D01*
X-1737229Y12404559D01*
X-1852225Y12492799D01*
X-1852226Y12492800D01*
X-1852228Y12492801D01*
X-1986138Y12548267D01*
X-1986140Y12548268D01*
X-1986141Y12548268D01*
X-2057996Y12557728D01*
X-2129849Y12567188D01*
X-2129851Y12567188D01*
X-2273559Y12548268D01*
X-2273563Y12548267D01*
X-2407473Y12492801D01*
X-2522471Y12404559D01*
X-2610713Y12289561D01*
X-2666179Y12155651D01*
X-2666180Y12155647D01*
X-2675951Y12081433D01*
X-2704218Y12017537D01*
X-2762543Y11979067D01*
X-2805580Y11975472D01*
X-2805580Y11974500D01*
X-2813707Y11974500D01*
X-2966293Y11974500D01*
X-3095130Y11939978D01*
X-3113682Y11935007D01*
X-3245818Y11858718D01*
X-3245824Y11858713D01*
X-3353713Y11750824D01*
X-3353718Y11750818D01*
X-3430007Y11618682D01*
X-3430008Y11618678D01*
X-3469500Y11471293D01*
X-7021170Y11471293D01*
X-6982070Y11565691D01*
X-6963150Y11709400D01*
X-6982070Y11853109D01*
X-7037539Y11987025D01*
X-7125779Y12102021D01*
X-7240775Y12190261D01*
X-7240776Y12190262D01*
X-7240778Y12190263D01*
X-7374688Y12245729D01*
X-7374690Y12245730D01*
X-7374691Y12245730D01*
X-7451657Y12255863D01*
X-7518399Y12264650D01*
X-7518401Y12264650D01*
X-7662109Y12245730D01*
X-7662113Y12245729D01*
X-7796023Y12190263D01*
X-7911021Y12102021D01*
X-7999263Y11987023D01*
X-8054729Y11853113D01*
X-8054730Y11853109D01*
X-8071941Y11722378D01*
X-8073650Y11709400D01*
X-20843389Y11709400D01*
X-20834752Y11775000D01*
X-20853672Y11918709D01*
X-20900644Y12032111D01*
X-20909140Y12052623D01*
X-20909141Y12052624D01*
X-20909141Y12052625D01*
X-20997381Y12167621D01*
X-21112377Y12255861D01*
X-21112378Y12255862D01*
X-21112380Y12255863D01*
X-21246290Y12311329D01*
X-21246292Y12311330D01*
X-21246293Y12311330D01*
X-21318148Y12320790D01*
X-21390001Y12330250D01*
X-21390003Y12330250D01*
X-21533711Y12311330D01*
X-21533715Y12311329D01*
X-21667625Y12255863D01*
X-21782623Y12167621D01*
X-21870865Y12052623D01*
X-21926331Y11918713D01*
X-21926332Y11918709D01*
X-21945252Y11775001D01*
X-27239392Y11775001D01*
X-27391757Y11939959D01*
X-27391775Y11939978D01*
X-27392275Y11940447D01*
X-27614322Y12120841D01*
X-27614930Y12121266D01*
X-27615384Y12121561D01*
X-27618991Y12123994D01*
X-28871456Y13000979D01*
X-28915081Y13055556D01*
X-28922275Y13125054D01*
X-28890752Y13187409D01*
X-28879508Y13197986D01*
X-28207193Y13755576D01*
X-28201638Y13759921D01*
X-28196553Y13763671D01*
X-28187036Y13770689D01*
X-27824366Y14043768D01*
X-27758117Y14100000D01*
X-24705250Y14100000D01*
X-24689944Y13983738D01*
X-24686330Y13956292D01*
X-24686329Y13956288D01*
X-24630863Y13822378D01*
X-24630862Y13822376D01*
X-24630861Y13822375D01*
X-24542621Y13707379D01*
X-24427625Y13619139D01*
X-24293709Y13563670D01*
X-24166720Y13546952D01*
X-24150001Y13544750D01*
X-24150000Y13544750D01*
X-24149999Y13544750D01*
X-24135023Y13546722D01*
X-24006291Y13563670D01*
X-23872375Y13619139D01*
X-23757379Y13707379D01*
X-23669139Y13822375D01*
X-23613670Y13956291D01*
X-23601333Y14050000D01*
X-23105250Y14050000D01*
X-23093095Y13957672D01*
X-23086330Y13906292D01*
X-23086329Y13906288D01*
X-23030863Y13772378D01*
X-23030862Y13772376D01*
X-23030861Y13772375D01*
X-22942621Y13657379D01*
X-22827625Y13569139D01*
X-22827624Y13569139D01*
X-22827623Y13569138D01*
X-22782987Y13550650D01*
X-22693709Y13513670D01*
X-22566720Y13496952D01*
X-22550001Y13494750D01*
X-22550000Y13494750D01*
X-22549999Y13494750D01*
X-22535023Y13496722D01*
X-22406291Y13513670D01*
X-22272375Y13569139D01*
X-22157379Y13657379D01*
X-22069139Y13772375D01*
X-22013670Y13906291D01*
X-21994750Y14050000D01*
X-12505250Y14050000D01*
X-12493095Y13957672D01*
X-12486330Y13906292D01*
X-12486329Y13906288D01*
X-12430863Y13772378D01*
X-12430862Y13772376D01*
X-12430861Y13772375D01*
X-12342621Y13657379D01*
X-12227625Y13569139D01*
X-12227624Y13569139D01*
X-12227623Y13569138D01*
X-12182987Y13550650D01*
X-12093709Y13513670D01*
X-11966720Y13496952D01*
X-11950001Y13494750D01*
X-11950000Y13494750D01*
X-11949999Y13494750D01*
X-11935023Y13496722D01*
X-11806291Y13513670D01*
X-11672375Y13569139D01*
X-11643733Y13591117D01*
X9619749Y13591117D01*
X9625990Y13543709D01*
X9638669Y13447409D01*
X9638670Y13447405D01*
X9694136Y13313495D01*
X9694137Y13313493D01*
X9694138Y13313492D01*
X9782378Y13198496D01*
X9897374Y13110256D01*
X10031290Y13054787D01*
X10158279Y13038069D01*
X10174998Y13035867D01*
X10174999Y13035867D01*
X10175000Y13035867D01*
X10189976Y13037839D01*
X10318708Y13054787D01*
X10452624Y13110256D01*
X10567620Y13198496D01*
X10655860Y13313492D01*
X10711329Y13447408D01*
X10730249Y13591117D01*
X10711329Y13734826D01*
X10655860Y13868742D01*
X10567620Y13983738D01*
X10452624Y14071978D01*
X10452623Y14071979D01*
X10452621Y14071980D01*
X10318711Y14127446D01*
X10318709Y14127447D01*
X10318708Y14127447D01*
X10246853Y14136907D01*
X10175000Y14146367D01*
X10174998Y14146367D01*
X10031290Y14127447D01*
X10031286Y14127446D01*
X9897376Y14071980D01*
X9782378Y13983738D01*
X9694136Y13868740D01*
X9638670Y13734830D01*
X9638669Y13734826D01*
X9619749Y13591117D01*
X-11643733Y13591117D01*
X-11557379Y13657379D01*
X-11469139Y13772375D01*
X-11413670Y13906291D01*
X-11394750Y14050000D01*
X-11413670Y14193709D01*
X-11450650Y14282987D01*
X-11457697Y14300000D01*
X2519462Y14300000D01*
X2526872Y14243713D01*
X2538382Y14156292D01*
X2538383Y14156288D01*
X2593849Y14022378D01*
X2593850Y14022377D01*
X2593851Y14022375D01*
X2682091Y13907379D01*
X2797087Y13819139D01*
X2797088Y13819139D01*
X2797089Y13819138D01*
X2801761Y13817203D01*
X2931003Y13763670D01*
X3057992Y13746952D01*
X3074711Y13744750D01*
X3074712Y13744750D01*
X3074713Y13744750D01*
X3089689Y13746722D01*
X3218421Y13763670D01*
X3352337Y13819139D01*
X3467333Y13907379D01*
X3555573Y14022375D01*
X3611042Y14156291D01*
X3629962Y14300000D01*
X3611042Y14443709D01*
X3555573Y14577625D01*
X3467333Y14692621D01*
X3352337Y14780861D01*
X3352336Y14780862D01*
X3352334Y14780863D01*
X3218424Y14836329D01*
X3218422Y14836330D01*
X3218421Y14836330D01*
X3146566Y14845790D01*
X3074713Y14855250D01*
X3074711Y14855250D01*
X2931003Y14836330D01*
X2930999Y14836329D01*
X2797089Y14780863D01*
X2682091Y14692621D01*
X2593849Y14577623D01*
X2538383Y14443713D01*
X2538382Y14443709D01*
X2527987Y14364749D01*
X2519462Y14300000D01*
X-11457697Y14300000D01*
X-11469138Y14327623D01*
X-11469139Y14327624D01*
X-11469139Y14327625D01*
X-11557379Y14442621D01*
X-11672375Y14530861D01*
X-11672376Y14530862D01*
X-11672378Y14530863D01*
X-11806288Y14586329D01*
X-11806290Y14586330D01*
X-11806291Y14586330D01*
X-11878146Y14595790D01*
X-11949999Y14605250D01*
X-11950001Y14605250D01*
X-12093709Y14586330D01*
X-12093713Y14586329D01*
X-12227623Y14530863D01*
X-12342621Y14442621D01*
X-12430863Y14327623D01*
X-12486329Y14193713D01*
X-12486330Y14193709D01*
X-12503215Y14065454D01*
X-12505250Y14050000D01*
X-21994750Y14050000D01*
X-22013670Y14193709D01*
X-22050650Y14282987D01*
X-22069138Y14327623D01*
X-22069139Y14327624D01*
X-22069139Y14327625D01*
X-22157379Y14442621D01*
X-22272375Y14530861D01*
X-22272376Y14530862D01*
X-22272378Y14530863D01*
X-22406288Y14586329D01*
X-22406290Y14586330D01*
X-22406291Y14586330D01*
X-22478146Y14595790D01*
X-22549999Y14605250D01*
X-22550001Y14605250D01*
X-22693709Y14586330D01*
X-22693713Y14586329D01*
X-22827623Y14530863D01*
X-22942621Y14442621D01*
X-23030863Y14327623D01*
X-23086329Y14193713D01*
X-23086330Y14193709D01*
X-23103215Y14065454D01*
X-23105250Y14050000D01*
X-23601333Y14050000D01*
X-23594750Y14100000D01*
X-23613670Y14243709D01*
X-23669139Y14377625D01*
X-23757379Y14492621D01*
X-23872375Y14580861D01*
X-23872376Y14580862D01*
X-23872378Y14580863D01*
X-24006288Y14636329D01*
X-24006290Y14636330D01*
X-24006291Y14636330D01*
X-24078146Y14645790D01*
X-24149999Y14655250D01*
X-24150001Y14655250D01*
X-24293709Y14636330D01*
X-24293713Y14636329D01*
X-24427623Y14580863D01*
X-24542621Y14492621D01*
X-24630863Y14377623D01*
X-24686329Y14243713D01*
X-24686330Y14243709D01*
X-24701636Y14127447D01*
X-24705250Y14100000D01*
X-27758117Y14100000D01*
X-27594326Y14239024D01*
X-27466979Y14392065D01*
X-27412387Y14538496D01*
X-27400616Y14713922D01*
X-27400410Y14726706D01*
X-27398477Y14746586D01*
X-27348249Y15026491D01*
X-27337315Y15059625D01*
X-27317313Y15100001D01*
X11644750Y15100001D01*
X11644750Y15100000D01*
X11663670Y14956292D01*
X11663671Y14956288D01*
X11719137Y14822378D01*
X11719138Y14822376D01*
X11719139Y14822375D01*
X11807379Y14707379D01*
X11922375Y14619139D01*
X11922376Y14619139D01*
X11922377Y14619138D01*
X12019468Y14578922D01*
X12073872Y14535081D01*
X12095937Y14468787D01*
X12094955Y14448176D01*
X12085667Y14377623D01*
X12083972Y14364746D01*
X12096672Y14268278D01*
X12102892Y14221038D01*
X12102893Y14221034D01*
X12141658Y14127446D01*
X12158361Y14087121D01*
X12186844Y14050001D01*
X12194139Y14040495D01*
X12219334Y13975327D01*
X12205296Y13906882D01*
X12171252Y13866633D01*
X12109357Y13819139D01*
X12107379Y13817621D01*
X12088196Y13792621D01*
X12019137Y13702623D01*
X11963671Y13568713D01*
X11963670Y13568709D01*
X11944750Y13425001D01*
X11944750Y13425000D01*
X11963670Y13281292D01*
X11963671Y13281288D01*
X12019137Y13147378D01*
X12019138Y13147376D01*
X12019139Y13147375D01*
X12107379Y13032379D01*
X12222375Y12944139D01*
X12222376Y12944139D01*
X12222377Y12944138D01*
X12267013Y12925650D01*
X12356291Y12888670D01*
X12483280Y12871952D01*
X12499999Y12869750D01*
X12500000Y12869750D01*
X12500001Y12869750D01*
X12514977Y12871722D01*
X12643709Y12888670D01*
X12777625Y12944139D01*
X12892621Y13032379D01*
X12980861Y13147375D01*
X13036330Y13281291D01*
X13051959Y13400000D01*
X13644750Y13400000D01*
X13660378Y13281292D01*
X13663670Y13256292D01*
X13663671Y13256288D01*
X13719137Y13122378D01*
X13719138Y13122376D01*
X13719139Y13122375D01*
X13807379Y13007379D01*
X13922375Y12919139D01*
X14056291Y12863670D01*
X14183280Y12846952D01*
X14199999Y12844750D01*
X14200000Y12844750D01*
X14200001Y12844750D01*
X14214977Y12846722D01*
X14343709Y12863670D01*
X14477623Y12919138D01*
X14485134Y12922249D01*
X14485824Y12920584D01*
X14543888Y12934677D01*
X14609918Y12911834D01*
X14653116Y12856918D01*
X14660943Y12827004D01*
X14663670Y12806292D01*
X14663671Y12806288D01*
X14719137Y12672378D01*
X14719138Y12672376D01*
X14719139Y12672375D01*
X14807379Y12557379D01*
X14922375Y12469139D01*
X15056291Y12413670D01*
X15183280Y12396952D01*
X15199999Y12394750D01*
X15200000Y12394750D01*
X15200001Y12394750D01*
X15214977Y12396722D01*
X15343709Y12413670D01*
X15477625Y12469139D01*
X15592621Y12557379D01*
X15680861Y12672375D01*
X15736330Y12806291D01*
X15755250Y12950000D01*
X15736330Y13093709D01*
X15693138Y13197986D01*
X15680862Y13227623D01*
X15680861Y13227624D01*
X15680861Y13227625D01*
X15592621Y13342621D01*
X15583005Y13350000D01*
X20244750Y13350000D01*
X20261354Y13223879D01*
X20263670Y13206292D01*
X20263671Y13206288D01*
X20319137Y13072378D01*
X20319138Y13072376D01*
X20319139Y13072375D01*
X20407379Y12957379D01*
X20522375Y12869139D01*
X20522376Y12869139D01*
X20522377Y12869138D01*
X20567013Y12850650D01*
X20656291Y12813670D01*
X20783280Y12796952D01*
X20799999Y12794750D01*
X20800000Y12794750D01*
X20800001Y12794750D01*
X20814977Y12796722D01*
X20943709Y12813670D01*
X21077625Y12869139D01*
X21192621Y12957379D01*
X21280861Y13072375D01*
X21336330Y13206291D01*
X21355250Y13350000D01*
X21336330Y13493709D01*
X21280861Y13627625D01*
X21280858Y13627629D01*
X21276797Y13634664D01*
X21278040Y13635383D01*
X21256027Y13692326D01*
X21270066Y13760771D01*
X21318880Y13810760D01*
X21386972Y13826423D01*
X21427048Y13817204D01*
X21556291Y13763670D01*
X21683280Y13746952D01*
X21699999Y13744750D01*
X21700000Y13744750D01*
X21700001Y13744750D01*
X21714977Y13746722D01*
X21843709Y13763670D01*
X21977625Y13819139D01*
X22092621Y13907379D01*
X22180861Y14022375D01*
X22236330Y14156291D01*
X22255250Y14300000D01*
X22236330Y14443709D01*
X22180861Y14577625D01*
X22092621Y14692621D01*
X21977625Y14780861D01*
X21977624Y14780862D01*
X21977622Y14780863D01*
X21843712Y14836329D01*
X21843710Y14836330D01*
X21843709Y14836330D01*
X21771854Y14845790D01*
X21700001Y14855250D01*
X21699999Y14855250D01*
X21556291Y14836330D01*
X21556287Y14836329D01*
X21422377Y14780863D01*
X21307379Y14692621D01*
X21219137Y14577623D01*
X21163671Y14443713D01*
X21163670Y14443709D01*
X21153275Y14364749D01*
X21144750Y14300000D01*
X21152160Y14243713D01*
X21163670Y14156292D01*
X21163671Y14156288D01*
X21219138Y14022377D01*
X21223203Y14015336D01*
X21221959Y14014618D01*
X21243972Y13957672D01*
X21229932Y13889228D01*
X21181116Y13839240D01*
X21113024Y13823579D01*
X21072950Y13832798D01*
X20943712Y13886329D01*
X20943710Y13886330D01*
X20943709Y13886330D01*
X20871854Y13895790D01*
X20800001Y13905250D01*
X20799999Y13905250D01*
X20656291Y13886330D01*
X20656287Y13886329D01*
X20522377Y13830863D01*
X20407379Y13742621D01*
X20319137Y13627623D01*
X20263671Y13493713D01*
X20263670Y13493709D01*
X20244750Y13350000D01*
X15583005Y13350000D01*
X15477625Y13430861D01*
X15477624Y13430862D01*
X15477622Y13430863D01*
X15343712Y13486329D01*
X15343710Y13486330D01*
X15343709Y13486330D01*
X15271854Y13495790D01*
X15200001Y13505250D01*
X15199999Y13505250D01*
X15056291Y13486330D01*
X15056287Y13486329D01*
X14914866Y13427751D01*
X14914177Y13429413D01*
X14856084Y13415325D01*
X14790059Y13438183D01*
X14746873Y13493108D01*
X14739056Y13523000D01*
X14736330Y13543708D01*
X14736328Y13543713D01*
X14735898Y13544750D01*
X14680861Y13677625D01*
X14592621Y13792621D01*
X14477625Y13880861D01*
X14477624Y13880862D01*
X14477622Y13880863D01*
X14343712Y13936329D01*
X14343710Y13936330D01*
X14343709Y13936330D01*
X14271854Y13945790D01*
X14200001Y13955250D01*
X14199999Y13955250D01*
X14056291Y13936330D01*
X14056287Y13936329D01*
X13922377Y13880863D01*
X13807379Y13792621D01*
X13719137Y13677623D01*
X13663671Y13543713D01*
X13663670Y13543709D01*
X13646601Y13414056D01*
X13644750Y13400000D01*
X13051959Y13400000D01*
X13055250Y13425000D01*
X13036330Y13568709D01*
X12980861Y13702625D01*
X12945080Y13749255D01*
X12919887Y13814420D01*
X12933925Y13882865D01*
X12967968Y13923113D01*
X13031843Y13972125D01*
X13120083Y14087121D01*
X13175552Y14221037D01*
X13194472Y14364746D01*
X13175552Y14508455D01*
X13135459Y14605250D01*
X13120084Y14642369D01*
X13120083Y14642370D01*
X13120083Y14642371D01*
X13031843Y14757367D01*
X12916847Y14845607D01*
X12916845Y14845608D01*
X12819752Y14885825D01*
X12765349Y14929666D01*
X12743284Y14995960D01*
X12744266Y15016572D01*
X12755250Y15100000D01*
X12755250Y15100001D01*
X12751446Y15128896D01*
X12736330Y15243709D01*
X12680861Y15377625D01*
X12592621Y15492621D01*
X12477625Y15580861D01*
X12477624Y15580862D01*
X12477622Y15580863D01*
X12343712Y15636329D01*
X12343710Y15636330D01*
X12343709Y15636330D01*
X12271854Y15645790D01*
X12200001Y15655250D01*
X12199999Y15655250D01*
X12056291Y15636330D01*
X12056287Y15636329D01*
X11922377Y15580863D01*
X11807379Y15492621D01*
X11719137Y15377623D01*
X11663671Y15243713D01*
X11663670Y15243709D01*
X11644750Y15100001D01*
X-27317313Y15100001D01*
X-27237296Y15261521D01*
X-27203316Y15303563D01*
X-27099809Y15385783D01*
X-27084975Y15395903D01*
X-26790358Y15566995D01*
X-26784060Y15570411D01*
X-26350272Y15789585D01*
X-26346693Y15791321D01*
X-25807208Y16042226D01*
X-25804604Y16043400D01*
X-25190086Y16311715D01*
X-25187925Y16312632D01*
X-24528427Y16584440D01*
X-24526044Y16585393D01*
X-23850688Y16847191D01*
X-23849532Y16847631D01*
X-23783459Y16872280D01*
X-23782139Y16872763D01*
X-23377282Y17017786D01*
X-23373181Y17019173D01*
X-22993844Y17140119D01*
X-22987951Y17141836D01*
X-22610885Y17241572D01*
X-22603999Y17243185D01*
X-22205866Y17324445D01*
X-22199202Y17325616D01*
X-21756661Y17390899D01*
X-21751120Y17391588D01*
X-21241235Y17443156D01*
X-21237027Y17443509D01*
X-20637364Y17483538D01*
X-20634580Y17483691D01*
X-19922926Y17514386D01*
X-19921300Y17514444D01*
X-19075604Y17538060D01*
X-19074702Y17538081D01*
X-18072912Y17556908D01*
X-16893154Y17573259D01*
X-16892955Y17573203D01*
X-16892955Y17573261D01*
X-16326166Y17580200D01*
X-15329640Y17591022D01*
X-15329536Y17591023D01*
X-14508432Y17596443D01*
X-14507368Y17596445D01*
X-13844931Y17594973D01*
G37*
%TD.AperFunction*%
%TD*%
M02*
