%TF.GenerationSoftware,KiCad,Pcbnew,8.0.5-8.0.5-0~ubuntu22.04.1*%
%TF.CreationDate,2024-11-27T13:58:37+01:00*%
%TF.ProjectId,nerdYcontroller,6e657264-5963-46f6-9e74-726f6c6c6572,rev?*%
%TF.SameCoordinates,Original*%
%TF.FileFunction,Legend,Bot*%
%TF.FilePolarity,Positive*%
%FSLAX46Y46*%
G04 Gerber Fmt 4.6, Leading zero omitted, Abs format (unit mm)*
G04 Created by KiCad (PCBNEW 8.0.5-8.0.5-0~ubuntu22.04.1) date 2024-11-27 13:58:37*
%MOMM*%
%LPD*%
G01*
G04 APERTURE LIST*
G04 Aperture macros list*
%AMRoundRect*
0 Rectangle with rounded corners*
0 $1 Rounding radius*
0 $2 $3 $4 $5 $6 $7 $8 $9 X,Y pos of 4 corners*
0 Add a 4 corners polygon primitive as box body*
4,1,4,$2,$3,$4,$5,$6,$7,$8,$9,$2,$3,0*
0 Add four circle primitives for the rounded corners*
1,1,$1+$1,$2,$3*
1,1,$1+$1,$4,$5*
1,1,$1+$1,$6,$7*
1,1,$1+$1,$8,$9*
0 Add four rect primitives between the rounded corners*
20,1,$1+$1,$2,$3,$4,$5,0*
20,1,$1+$1,$4,$5,$6,$7,0*
20,1,$1+$1,$6,$7,$8,$9,0*
20,1,$1+$1,$8,$9,$2,$3,0*%
%AMFreePoly0*
4,1,16,2.068441,2.822910,2.098225,2.768757,2.100000,2.750000,2.100000,-2.750000,2.080902,-2.808779,2.030902,-2.845106,1.969098,-2.845106,1.951808,-2.837622,-3.048192,-0.087622,-3.090491,-0.042561,-3.098225,0.018757,-3.068441,0.072910,-3.048192,0.087622,1.951808,2.837622,2.012515,2.849214,2.068441,2.822910,2.068441,2.822910,$1*%
%AMFreePoly1*
4,1,26,6.500000,-2.000000,0.000000,-2.000000,-0.284630,-1.979643,-0.563465,-1.918986,-0.830830,-1.819264,-1.081282,-1.682507,-1.309721,-1.511499,-1.511499,-1.309721,-1.682507,-1.081283,-1.819264,-0.830830,-1.918986,-0.563465,-1.979643,-0.284630,-2.000000,0.000000,-1.979643,0.284630,-1.918986,0.563465,-1.819264,0.830830,-1.682507,1.081282,-1.511499,1.309721,-1.309721,1.511499,-1.081283,1.682507,
-0.830830,1.819264,-0.563465,1.918986,-0.284630,1.979643,0.000000,2.000000,6.500000,2.000000,6.500000,-2.000000,6.500000,-2.000000,$1*%
%AMFreePoly2*
4,1,35,6.858779,1.980902,6.895106,1.930901,6.900000,1.900000,6.900000,-1.900000,6.880902,-1.958779,6.830902,-1.995106,6.800000,-2.000000,0.000000,-2.000000,-0.284630,-1.979643,-0.563465,-1.918986,-0.830830,-1.819264,-1.081282,-1.682507,-1.309721,-1.511499,-1.511499,-1.309721,-1.682507,-1.081283,-1.819264,-0.830830,-1.918986,-0.563465,-1.979643,-0.284630,-2.000000,0.000000,-1.979643,0.284630,
-1.918986,0.563465,-1.819264,0.830830,-1.682507,1.081282,-1.511499,1.309721,-1.309721,1.511499,-1.081283,1.682507,-0.830830,1.819264,-0.563465,1.918986,-0.284630,1.979643,-0.267027,1.980902,-0.138852,1.990069,-0.133394,1.994260,-0.100000,2.000000,6.800000,2.000000,6.858779,1.980902,6.858779,1.980902,$1*%
G04 Aperture macros list end*
%ADD10C,0.150000*%
%ADD11C,0.075000*%
%ADD12C,0.120000*%
%ADD13C,0.127000*%
%ADD14C,0.200000*%
%ADD15C,0.277185*%
%ADD16FreePoly0,270.000000*%
%ADD17R,3.000000X3.700200*%
%ADD18C,1.600000*%
%ADD19FreePoly1,40.000000*%
%ADD20FreePoly2,220.000000*%
%ADD21FreePoly0,0.000000*%
%ADD22R,3.700200X3.000000*%
%ADD23FreePoly1,315.000000*%
%ADD24FreePoly2,145.000000*%
%ADD25FreePoly1,350.000000*%
%ADD26FreePoly0,90.000000*%
%ADD27FreePoly2,180.000000*%
%ADD28FreePoly1,20.000000*%
%ADD29FreePoly1,5.000000*%
%ADD30FreePoly0,180.000000*%
%ADD31FreePoly1,330.000000*%
%ADD32RoundRect,0.200000X-0.200000X-0.275000X0.200000X-0.275000X0.200000X0.275000X-0.200000X0.275000X0*%
%ADD33RoundRect,0.140000X-0.140000X-0.170000X0.140000X-0.170000X0.140000X0.170000X-0.140000X0.170000X0*%
%ADD34RoundRect,0.225000X-0.225000X-0.250000X0.225000X-0.250000X0.225000X0.250000X-0.225000X0.250000X0*%
%ADD35RoundRect,0.200000X0.200000X0.275000X-0.200000X0.275000X-0.200000X-0.275000X0.200000X-0.275000X0*%
%ADD36RoundRect,0.150000X-0.650000X-0.150000X0.650000X-0.150000X0.650000X0.150000X-0.650000X0.150000X0*%
%ADD37RoundRect,0.140000X-0.170000X0.140000X-0.170000X-0.140000X0.170000X-0.140000X0.170000X0.140000X0*%
%ADD38RoundRect,0.200000X0.275000X-0.200000X0.275000X0.200000X-0.275000X0.200000X-0.275000X-0.200000X0*%
%ADD39RoundRect,0.050000X0.050000X-0.387500X0.050000X0.387500X-0.050000X0.387500X-0.050000X-0.387500X0*%
%ADD40RoundRect,0.050000X0.387500X-0.050000X0.387500X0.050000X-0.387500X0.050000X-0.387500X-0.050000X0*%
%ADD41R,3.200000X3.200000*%
%ADD42RoundRect,0.200000X-0.275000X0.200000X-0.275000X-0.200000X0.275000X-0.200000X0.275000X0.200000X0*%
%ADD43RoundRect,0.225000X0.225000X0.250000X-0.225000X0.250000X-0.225000X-0.250000X0.225000X-0.250000X0*%
%ADD44RoundRect,0.225000X0.250000X-0.225000X0.250000X0.225000X-0.250000X0.225000X-0.250000X-0.225000X0*%
%ADD45RoundRect,0.102000X-0.375000X0.500000X-0.375000X-0.500000X0.375000X-0.500000X0.375000X0.500000X0*%
%ADD46R,1.400000X1.200000*%
%ADD47RoundRect,0.250000X-0.250000X-1.500000X0.250000X-1.500000X0.250000X1.500000X-0.250000X1.500000X0*%
%ADD48RoundRect,0.250001X-0.499999X-1.449999X0.499999X-1.449999X0.499999X1.449999X-0.499999X1.449999X0*%
%ADD49RoundRect,0.250000X-0.250000X-0.475000X0.250000X-0.475000X0.250000X0.475000X-0.250000X0.475000X0*%
%ADD50C,0.650000*%
%ADD51RoundRect,0.150000X-0.150000X-0.425000X0.150000X-0.425000X0.150000X0.425000X-0.150000X0.425000X0*%
%ADD52RoundRect,0.075000X-0.075000X-0.500000X0.075000X-0.500000X0.075000X0.500000X-0.075000X0.500000X0*%
%ADD53RoundRect,0.250000X-0.840000X-0.750000X0.840000X-0.750000X0.840000X0.750000X-0.840000X0.750000X0*%
%ADD54RoundRect,0.225000X-0.250000X0.225000X-0.250000X-0.225000X0.250000X-0.225000X0.250000X0.225000X0*%
%ADD55RoundRect,0.375000X-0.375000X0.625000X-0.375000X-0.625000X0.375000X-0.625000X0.375000X0.625000X0*%
%ADD56RoundRect,0.500000X-1.400000X0.500000X-1.400000X-0.500000X1.400000X-0.500000X1.400000X0.500000X0*%
%ADD57RoundRect,0.250000X0.250000X0.475000X-0.250000X0.475000X-0.250000X-0.475000X0.250000X-0.475000X0*%
%ADD58RoundRect,0.225000X-0.375000X0.225000X-0.375000X-0.225000X0.375000X-0.225000X0.375000X0.225000X0*%
%ADD59C,0.700000*%
%ADD60RoundRect,0.070000X0.355000X-0.070000X0.355000X0.070000X-0.355000X0.070000X-0.355000X-0.070000X0*%
%ADD61RoundRect,0.070000X0.305000X-0.070000X0.305000X0.070000X-0.305000X0.070000X-0.305000X-0.070000X0*%
G04 APERTURE END LIST*
D10*
X28543492Y5396951D02*
X28602058Y5458807D01*
X28602058Y5458807D02*
X28709452Y5497895D01*
X28709452Y5497895D02*
X28829874Y5501185D01*
X28829874Y5501185D02*
X28927529Y5455648D01*
X28927529Y5455648D02*
X28989385Y5397082D01*
X28989385Y5397082D02*
X29077300Y5266920D01*
X29077300Y5266920D02*
X29116388Y5159527D01*
X29116388Y5159527D02*
X29132708Y5003306D01*
X29132708Y5003306D02*
X29122969Y4918681D01*
X29122969Y4918681D02*
X29077432Y4821027D01*
X29077432Y4821027D02*
X28983068Y4746141D01*
X28983068Y4746141D02*
X28911472Y4720082D01*
X28911472Y4720082D02*
X28791049Y4716792D01*
X28791049Y4716792D02*
X28742222Y4739561D01*
X28742222Y4739561D02*
X28651017Y4990145D01*
X28651017Y4990145D02*
X28794208Y5042263D01*
X28446100Y4550701D02*
X28172484Y5302455D01*
X28172484Y5302455D02*
X27886102Y5198220D01*
X27886102Y5198220D02*
X27827536Y5136364D01*
X27827536Y5136364D02*
X27804767Y5087537D01*
X27804767Y5087537D02*
X27795028Y5002912D01*
X27795028Y5002912D02*
X27834116Y4895518D01*
X27834116Y4895518D02*
X27895972Y4836952D01*
X27895972Y4836952D02*
X27944800Y4814183D01*
X27944800Y4814183D02*
X28029425Y4804444D01*
X28029425Y4804444D02*
X28315807Y4908679D01*
X27300570Y4133762D02*
X27730144Y4290114D01*
X27515357Y4211938D02*
X27241741Y4963692D01*
X27241741Y4963692D02*
X27352425Y4882357D01*
X27352425Y4882357D02*
X27450079Y4836820D01*
X27450079Y4836820D02*
X27534704Y4827081D01*
D11*
X-10012408Y-12100284D02*
X-10073017Y-12080081D01*
X-10073017Y-12080081D02*
X-10133626Y-12019472D01*
X-10133626Y-12019472D02*
X-10174032Y-11938660D01*
X-10174032Y-11938660D02*
X-10174032Y-11857848D01*
X-10174032Y-11857848D02*
X-10153829Y-11797239D01*
X-10153829Y-11797239D02*
X-10093220Y-11696223D01*
X-10093220Y-11696223D02*
X-10032611Y-11635614D01*
X-10032611Y-11635614D02*
X-9931596Y-11575005D01*
X-9931596Y-11575005D02*
X-9870986Y-11554802D01*
X-9870986Y-11554802D02*
X-9790174Y-11554802D01*
X-9790174Y-11554802D02*
X-9709362Y-11595208D01*
X-9709362Y-11595208D02*
X-9668956Y-11635614D01*
X-9668956Y-11635614D02*
X-9628550Y-11716427D01*
X-9628550Y-11716427D02*
X-9628550Y-11756833D01*
X-9628550Y-11756833D02*
X-9769971Y-11898254D01*
X-9769971Y-11898254D02*
X-9850783Y-11817442D01*
X-9406316Y-11898254D02*
X-9830580Y-12322518D01*
X-9830580Y-12322518D02*
X-9668956Y-12484142D01*
X-9668956Y-12484142D02*
X-9608347Y-12504345D01*
X-9608347Y-12504345D02*
X-9567941Y-12504345D01*
X-9567941Y-12504345D02*
X-9507331Y-12484142D01*
X-9507331Y-12484142D02*
X-9446722Y-12423533D01*
X-9446722Y-12423533D02*
X-9426519Y-12362924D01*
X-9426519Y-12362924D02*
X-9426519Y-12322518D01*
X-9426519Y-12322518D02*
X-9446722Y-12261909D01*
X-9446722Y-12261909D02*
X-9608347Y-12100284D01*
X-8759819Y-12544752D02*
X-9002255Y-12302315D01*
X-8881037Y-12423533D02*
X-9305301Y-12847797D01*
X-9305301Y-12847797D02*
X-9285098Y-12746782D01*
X-9285098Y-12746782D02*
X-9285098Y-12665970D01*
X-9285098Y-12665970D02*
X-9305301Y-12605361D01*
X-8679006Y-13191250D02*
X-8396163Y-12908407D01*
X-8941646Y-13251859D02*
X-8739615Y-12847798D01*
X-8739615Y-12847798D02*
X-8476976Y-13110437D01*
X-7650208Y-12252684D02*
X-7710817Y-12232481D01*
X-7710817Y-12232481D02*
X-7771426Y-12171872D01*
X-7771426Y-12171872D02*
X-7811832Y-12091060D01*
X-7811832Y-12091060D02*
X-7811832Y-12010248D01*
X-7811832Y-12010248D02*
X-7791629Y-11949639D01*
X-7791629Y-11949639D02*
X-7731020Y-11848623D01*
X-7731020Y-11848623D02*
X-7670411Y-11788014D01*
X-7670411Y-11788014D02*
X-7569396Y-11727405D01*
X-7569396Y-11727405D02*
X-7508786Y-11707202D01*
X-7508786Y-11707202D02*
X-7427974Y-11707202D01*
X-7427974Y-11707202D02*
X-7347162Y-11747608D01*
X-7347162Y-11747608D02*
X-7306756Y-11788014D01*
X-7306756Y-11788014D02*
X-7266350Y-11868827D01*
X-7266350Y-11868827D02*
X-7266350Y-11909233D01*
X-7266350Y-11909233D02*
X-7407771Y-12050654D01*
X-7407771Y-12050654D02*
X-7488583Y-11969842D01*
X-7044116Y-12050654D02*
X-7468380Y-12474918D01*
X-7468380Y-12474918D02*
X-7306756Y-12636542D01*
X-7306756Y-12636542D02*
X-7246147Y-12656745D01*
X-7246147Y-12656745D02*
X-7205741Y-12656745D01*
X-7205741Y-12656745D02*
X-7145131Y-12636542D01*
X-7145131Y-12636542D02*
X-7084522Y-12575933D01*
X-7084522Y-12575933D02*
X-7064319Y-12515324D01*
X-7064319Y-12515324D02*
X-7064319Y-12474918D01*
X-7064319Y-12474918D02*
X-7084522Y-12414309D01*
X-7084522Y-12414309D02*
X-7246147Y-12252684D01*
X-7023913Y-12838573D02*
X-7023913Y-12878979D01*
X-7023913Y-12878979D02*
X-7003710Y-12939588D01*
X-7003710Y-12939588D02*
X-6902695Y-13040603D01*
X-6902695Y-13040603D02*
X-6842086Y-13060807D01*
X-6842086Y-13060807D02*
X-6801680Y-13060807D01*
X-6801680Y-13060807D02*
X-6741070Y-13040603D01*
X-6741070Y-13040603D02*
X-6700664Y-13000197D01*
X-6700664Y-13000197D02*
X-6660258Y-12919385D01*
X-6660258Y-12919385D02*
X-6660258Y-12434512D01*
X-6660258Y-12434512D02*
X-6397619Y-12697152D01*
X-6458227Y-13485071D02*
X-6539040Y-13404259D01*
X-6539040Y-13404259D02*
X-6559243Y-13343650D01*
X-6559243Y-13343650D02*
X-6559243Y-13303243D01*
X-6559243Y-13303243D02*
X-6539040Y-13202228D01*
X-6539040Y-13202228D02*
X-6478430Y-13101213D01*
X-6478430Y-13101213D02*
X-6316806Y-12939589D01*
X-6316806Y-12939589D02*
X-6256197Y-12919385D01*
X-6256197Y-12919385D02*
X-6215791Y-12919385D01*
X-6215791Y-12919385D02*
X-6155182Y-12939589D01*
X-6155182Y-12939589D02*
X-6074369Y-13020401D01*
X-6074369Y-13020401D02*
X-6054166Y-13081010D01*
X-6054166Y-13081010D02*
X-6054166Y-13121416D01*
X-6054166Y-13121416D02*
X-6074369Y-13182025D01*
X-6074369Y-13182025D02*
X-6175385Y-13283040D01*
X-6175385Y-13283040D02*
X-6235994Y-13303243D01*
X-6235994Y-13303243D02*
X-6276400Y-13303243D01*
X-6276400Y-13303243D02*
X-6337009Y-13283040D01*
X-6337009Y-13283040D02*
X-6417821Y-13202228D01*
X-6417821Y-13202228D02*
X-6438024Y-13141619D01*
X-6438024Y-13141619D02*
X-6438024Y-13101213D01*
X-6438024Y-13101213D02*
X-6417821Y-13040604D01*
X-2621008Y-12201884D02*
X-2681617Y-12181681D01*
X-2681617Y-12181681D02*
X-2742226Y-12121072D01*
X-2742226Y-12121072D02*
X-2782632Y-12040260D01*
X-2782632Y-12040260D02*
X-2782632Y-11959448D01*
X-2782632Y-11959448D02*
X-2762429Y-11898839D01*
X-2762429Y-11898839D02*
X-2701820Y-11797823D01*
X-2701820Y-11797823D02*
X-2641211Y-11737214D01*
X-2641211Y-11737214D02*
X-2540196Y-11676605D01*
X-2540196Y-11676605D02*
X-2479586Y-11656402D01*
X-2479586Y-11656402D02*
X-2398774Y-11656402D01*
X-2398774Y-11656402D02*
X-2317962Y-11696808D01*
X-2317962Y-11696808D02*
X-2277556Y-11737214D01*
X-2277556Y-11737214D02*
X-2237150Y-11818027D01*
X-2237150Y-11818027D02*
X-2237150Y-11858433D01*
X-2237150Y-11858433D02*
X-2378571Y-11999854D01*
X-2378571Y-11999854D02*
X-2459383Y-11919042D01*
X-2014916Y-11999854D02*
X-2439180Y-12424118D01*
X-2439180Y-12424118D02*
X-2277556Y-12585742D01*
X-2277556Y-12585742D02*
X-2216947Y-12605945D01*
X-2216947Y-12605945D02*
X-2176541Y-12605945D01*
X-2176541Y-12605945D02*
X-2115931Y-12585742D01*
X-2115931Y-12585742D02*
X-2055322Y-12525133D01*
X-2055322Y-12525133D02*
X-2035119Y-12464524D01*
X-2035119Y-12464524D02*
X-2035119Y-12424118D01*
X-2035119Y-12424118D02*
X-2055322Y-12363509D01*
X-2055322Y-12363509D02*
X-2216947Y-12201884D01*
X-1994713Y-12787773D02*
X-1994713Y-12828179D01*
X-1994713Y-12828179D02*
X-1974510Y-12888788D01*
X-1974510Y-12888788D02*
X-1873495Y-12989803D01*
X-1873495Y-12989803D02*
X-1812886Y-13010007D01*
X-1812886Y-13010007D02*
X-1772480Y-13010007D01*
X-1772480Y-13010007D02*
X-1711870Y-12989803D01*
X-1711870Y-12989803D02*
X-1671464Y-12949397D01*
X-1671464Y-12949397D02*
X-1631058Y-12868585D01*
X-1631058Y-12868585D02*
X-1631058Y-12383712D01*
X-1631058Y-12383712D02*
X-1368419Y-12646352D01*
X-1408824Y-13454474D02*
X-1610855Y-13252443D01*
X-1610855Y-13252443D02*
X-1429027Y-13030210D01*
X-1429027Y-13030210D02*
X-1429027Y-13070616D01*
X-1429027Y-13070616D02*
X-1408824Y-13131225D01*
X-1408824Y-13131225D02*
X-1307809Y-13232240D01*
X-1307809Y-13232240D02*
X-1247200Y-13252443D01*
X-1247200Y-13252443D02*
X-1206794Y-13252443D01*
X-1206794Y-13252443D02*
X-1146185Y-13232240D01*
X-1146185Y-13232240D02*
X-1045169Y-13131225D01*
X-1045169Y-13131225D02*
X-1024966Y-13070616D01*
X-1024966Y-13070616D02*
X-1024966Y-13030210D01*
X-1024966Y-13030210D02*
X-1045169Y-12969601D01*
X-1045169Y-12969601D02*
X-1146185Y-12868585D01*
X-1146185Y-12868585D02*
X-1206794Y-12848382D01*
X-1206794Y-12848382D02*
X-1247200Y-12848382D01*
D10*
X24273201Y-11871668D02*
X24354014Y-11898605D01*
X24354014Y-11898605D02*
X24434826Y-11979418D01*
X24434826Y-11979418D02*
X24488701Y-12087167D01*
X24488701Y-12087167D02*
X24488701Y-12194917D01*
X24488701Y-12194917D02*
X24461763Y-12275729D01*
X24461763Y-12275729D02*
X24380951Y-12410416D01*
X24380951Y-12410416D02*
X24300139Y-12491228D01*
X24300139Y-12491228D02*
X24165452Y-12572041D01*
X24165452Y-12572041D02*
X24084639Y-12598978D01*
X24084639Y-12598978D02*
X23976890Y-12598978D01*
X23976890Y-12598978D02*
X23869140Y-12545103D01*
X23869140Y-12545103D02*
X23815265Y-12491228D01*
X23815265Y-12491228D02*
X23761391Y-12383479D01*
X23761391Y-12383479D02*
X23761391Y-12329604D01*
X23761391Y-12329604D02*
X23949952Y-12141042D01*
X23949952Y-12141042D02*
X24057702Y-12248792D01*
X23465079Y-12141042D02*
X24030765Y-11575357D01*
X24030765Y-11575357D02*
X23815265Y-11359857D01*
X23815265Y-11359857D02*
X23734453Y-11332920D01*
X23734453Y-11332920D02*
X23680578Y-11332920D01*
X23680578Y-11332920D02*
X23599766Y-11359857D01*
X23599766Y-11359857D02*
X23518954Y-11440670D01*
X23518954Y-11440670D02*
X23492017Y-11521482D01*
X23492017Y-11521482D02*
X23492017Y-11575357D01*
X23492017Y-11575357D02*
X23518954Y-11656169D01*
X23518954Y-11656169D02*
X23734453Y-11871668D01*
X22603082Y-11279045D02*
X22926331Y-11602294D01*
X22764707Y-11440670D02*
X23330392Y-10874984D01*
X23330392Y-10874984D02*
X23303455Y-11009671D01*
X23303455Y-11009671D02*
X23303455Y-11117421D01*
X23303455Y-11117421D02*
X23330392Y-11198233D01*
X22333708Y-11009671D02*
X22225959Y-10901921D01*
X22225959Y-10901921D02*
X22199021Y-10821109D01*
X22199021Y-10821109D02*
X22199021Y-10767234D01*
X22199021Y-10767234D02*
X22225959Y-10632547D01*
X22225959Y-10632547D02*
X22306771Y-10497860D01*
X22306771Y-10497860D02*
X22522270Y-10282361D01*
X22522270Y-10282361D02*
X22603082Y-10255424D01*
X22603082Y-10255424D02*
X22656957Y-10255424D01*
X22656957Y-10255424D02*
X22737769Y-10282361D01*
X22737769Y-10282361D02*
X22845519Y-10390111D01*
X22845519Y-10390111D02*
X22872456Y-10470923D01*
X22872456Y-10470923D02*
X22872456Y-10524798D01*
X22872456Y-10524798D02*
X22845519Y-10605610D01*
X22845519Y-10605610D02*
X22710832Y-10740297D01*
X22710832Y-10740297D02*
X22630020Y-10767234D01*
X22630020Y-10767234D02*
X22576145Y-10767234D01*
X22576145Y-10767234D02*
X22495333Y-10740297D01*
X22495333Y-10740297D02*
X22387583Y-10632547D01*
X22387583Y-10632547D02*
X22360646Y-10551735D01*
X22360646Y-10551735D02*
X22360646Y-10497860D01*
X22360646Y-10497860D02*
X22387583Y-10417048D01*
D11*
X-17087391Y-5902414D02*
X-17127797Y-5983226D01*
X-17127797Y-5983226D02*
X-17228812Y-6084241D01*
X-17228812Y-6084241D02*
X-17289421Y-6104444D01*
X-17289421Y-6104444D02*
X-17329828Y-6104444D01*
X-17329828Y-6104444D02*
X-17390437Y-6084241D01*
X-17390437Y-6084241D02*
X-17430843Y-6043835D01*
X-17430843Y-6043835D02*
X-17451046Y-5983226D01*
X-17451046Y-5983226D02*
X-17451046Y-5942820D01*
X-17451046Y-5942820D02*
X-17430843Y-5882211D01*
X-17430843Y-5882211D02*
X-17370234Y-5781195D01*
X-17370234Y-5781195D02*
X-17350031Y-5720586D01*
X-17350031Y-5720586D02*
X-17350031Y-5680180D01*
X-17350031Y-5680180D02*
X-17370234Y-5619571D01*
X-17370234Y-5619571D02*
X-17410640Y-5579165D01*
X-17410640Y-5579165D02*
X-17471249Y-5558962D01*
X-17471249Y-5558962D02*
X-17511655Y-5558962D01*
X-17511655Y-5558962D02*
X-17572264Y-5579165D01*
X-17572264Y-5579165D02*
X-17673279Y-5680180D01*
X-17673279Y-5680180D02*
X-17713685Y-5760992D01*
X-17875310Y-5882211D02*
X-17552061Y-6407490D01*
X-17552061Y-6407490D02*
X-17935919Y-6185257D01*
X-17935919Y-6185257D02*
X-17713686Y-6569115D01*
X-17713686Y-6569115D02*
X-18238965Y-6245866D01*
X-17976325Y-6831754D02*
X-18400589Y-6407490D01*
X-18400589Y-6407490D02*
X-18501605Y-6508505D01*
X-18501605Y-6508505D02*
X-18542011Y-6589317D01*
X-18542011Y-6589317D02*
X-18542011Y-6670130D01*
X-18542011Y-6670130D02*
X-18521808Y-6730739D01*
X-18521808Y-6730739D02*
X-18461198Y-6831754D01*
X-18461198Y-6831754D02*
X-18400589Y-6892363D01*
X-18400589Y-6892363D02*
X-18299574Y-6952972D01*
X-18299574Y-6952972D02*
X-18238965Y-6973175D01*
X-18238965Y-6973175D02*
X-18158153Y-6973175D01*
X-18158153Y-6973175D02*
X-18077340Y-6932769D01*
X-18077340Y-6932769D02*
X-17976325Y-6831754D01*
X15724115Y-8871642D02*
X15781258Y-8843071D01*
X15781258Y-8843071D02*
X15866972Y-8843071D01*
X15866972Y-8843071D02*
X15952686Y-8871642D01*
X15952686Y-8871642D02*
X16009829Y-8928785D01*
X16009829Y-8928785D02*
X16038400Y-8985928D01*
X16038400Y-8985928D02*
X16066972Y-9100214D01*
X16066972Y-9100214D02*
X16066972Y-9185928D01*
X16066972Y-9185928D02*
X16038400Y-9300214D01*
X16038400Y-9300214D02*
X16009829Y-9357357D01*
X16009829Y-9357357D02*
X15952686Y-9414500D01*
X15952686Y-9414500D02*
X15866972Y-9443071D01*
X15866972Y-9443071D02*
X15809829Y-9443071D01*
X15809829Y-9443071D02*
X15724115Y-9414500D01*
X15724115Y-9414500D02*
X15695543Y-9385928D01*
X15695543Y-9385928D02*
X15695543Y-9185928D01*
X15695543Y-9185928D02*
X15809829Y-9185928D01*
X15438400Y-9443071D02*
X15438400Y-8843071D01*
X15438400Y-8843071D02*
X15209829Y-8843071D01*
X15209829Y-8843071D02*
X15152686Y-8871642D01*
X15152686Y-8871642D02*
X15124115Y-8900214D01*
X15124115Y-8900214D02*
X15095543Y-8957357D01*
X15095543Y-8957357D02*
X15095543Y-9043071D01*
X15095543Y-9043071D02*
X15124115Y-9100214D01*
X15124115Y-9100214D02*
X15152686Y-9128785D01*
X15152686Y-9128785D02*
X15209829Y-9157357D01*
X15209829Y-9157357D02*
X15438400Y-9157357D01*
X14724115Y-8843071D02*
X14666972Y-8843071D01*
X14666972Y-8843071D02*
X14609829Y-8871642D01*
X14609829Y-8871642D02*
X14581258Y-8900214D01*
X14581258Y-8900214D02*
X14552686Y-8957357D01*
X14552686Y-8957357D02*
X14524115Y-9071642D01*
X14524115Y-9071642D02*
X14524115Y-9214500D01*
X14524115Y-9214500D02*
X14552686Y-9328785D01*
X14552686Y-9328785D02*
X14581258Y-9385928D01*
X14581258Y-9385928D02*
X14609829Y-9414500D01*
X14609829Y-9414500D02*
X14666972Y-9443071D01*
X14666972Y-9443071D02*
X14724115Y-9443071D01*
X14724115Y-9443071D02*
X14781258Y-9414500D01*
X14781258Y-9414500D02*
X14809829Y-9385928D01*
X14809829Y-9385928D02*
X14838400Y-9328785D01*
X14838400Y-9328785D02*
X14866972Y-9214500D01*
X14866972Y-9214500D02*
X14866972Y-9071642D01*
X14866972Y-9071642D02*
X14838400Y-8957357D01*
X14838400Y-8957357D02*
X14809829Y-8900214D01*
X14809829Y-8900214D02*
X14781258Y-8871642D01*
X14781258Y-8871642D02*
X14724115Y-8843071D01*
X7691392Y-12024084D02*
X7630783Y-12003881D01*
X7630783Y-12003881D02*
X7570174Y-11943272D01*
X7570174Y-11943272D02*
X7529768Y-11862460D01*
X7529768Y-11862460D02*
X7529768Y-11781648D01*
X7529768Y-11781648D02*
X7549971Y-11721039D01*
X7549971Y-11721039D02*
X7610580Y-11620023D01*
X7610580Y-11620023D02*
X7671189Y-11559414D01*
X7671189Y-11559414D02*
X7772204Y-11498805D01*
X7772204Y-11498805D02*
X7832814Y-11478602D01*
X7832814Y-11478602D02*
X7913626Y-11478602D01*
X7913626Y-11478602D02*
X7994438Y-11519008D01*
X7994438Y-11519008D02*
X8034844Y-11559414D01*
X8034844Y-11559414D02*
X8075250Y-11640227D01*
X8075250Y-11640227D02*
X8075250Y-11680633D01*
X8075250Y-11680633D02*
X7933829Y-11822054D01*
X7933829Y-11822054D02*
X7853017Y-11741242D01*
X8297484Y-11822054D02*
X7873220Y-12246318D01*
X7873220Y-12246318D02*
X8034844Y-12407942D01*
X8034844Y-12407942D02*
X8095453Y-12428145D01*
X8095453Y-12428145D02*
X8135859Y-12428145D01*
X8135859Y-12428145D02*
X8196469Y-12407942D01*
X8196469Y-12407942D02*
X8257078Y-12347333D01*
X8257078Y-12347333D02*
X8277281Y-12286724D01*
X8277281Y-12286724D02*
X8277281Y-12246318D01*
X8277281Y-12246318D02*
X8257078Y-12185709D01*
X8257078Y-12185709D02*
X8095453Y-12024084D01*
X8943981Y-12468552D02*
X8701545Y-12226115D01*
X8822763Y-12347333D02*
X8398499Y-12771597D01*
X8398499Y-12771597D02*
X8418702Y-12670582D01*
X8418702Y-12670582D02*
X8418702Y-12589770D01*
X8418702Y-12589770D02*
X8398499Y-12529161D01*
X9146012Y-12670582D02*
X9226824Y-12751395D01*
X9226824Y-12751395D02*
X9247028Y-12812004D01*
X9247028Y-12812004D02*
X9247028Y-12852410D01*
X9247028Y-12852410D02*
X9226824Y-12953425D01*
X9226824Y-12953425D02*
X9166215Y-13054440D01*
X9166215Y-13054440D02*
X9004591Y-13216065D01*
X9004591Y-13216065D02*
X8943982Y-13236268D01*
X8943982Y-13236268D02*
X8903576Y-13236268D01*
X8903576Y-13236268D02*
X8842966Y-13216065D01*
X8842966Y-13216065D02*
X8762154Y-13135253D01*
X8762154Y-13135253D02*
X8741951Y-13074643D01*
X8741951Y-13074643D02*
X8741951Y-13034237D01*
X8741951Y-13034237D02*
X8762154Y-12973628D01*
X8762154Y-12973628D02*
X8863170Y-12872613D01*
X8863170Y-12872613D02*
X8923779Y-12852410D01*
X8923779Y-12852410D02*
X8964185Y-12852410D01*
X8964185Y-12852410D02*
X9024794Y-12872613D01*
X9024794Y-12872613D02*
X9105606Y-12953425D01*
X9105606Y-12953425D02*
X9125809Y-13014034D01*
X9125809Y-13014034D02*
X9125809Y-13054440D01*
X9125809Y-13054440D02*
X9105606Y-13115050D01*
X-4441049Y-5528950D02*
X-4703689Y-5791589D01*
X-4703689Y-5791589D02*
X-4400643Y-5811792D01*
X-4400643Y-5811792D02*
X-4461252Y-5872401D01*
X-4461252Y-5872401D02*
X-4481455Y-5933011D01*
X-4481455Y-5933011D02*
X-4481455Y-5973417D01*
X-4481455Y-5973417D02*
X-4461252Y-6034026D01*
X-4461252Y-6034026D02*
X-4360237Y-6135041D01*
X-4360237Y-6135041D02*
X-4299628Y-6155244D01*
X-4299628Y-6155244D02*
X-4259221Y-6155244D01*
X-4259221Y-6155244D02*
X-4198612Y-6135041D01*
X-4198612Y-6135041D02*
X-4077394Y-6013823D01*
X-4077394Y-6013823D02*
X-4057191Y-5953214D01*
X-4057191Y-5953214D02*
X-4057191Y-5912808D01*
X-4824907Y-5912808D02*
X-4542064Y-6478493D01*
X-4542064Y-6478493D02*
X-5107750Y-6195651D01*
X-5208765Y-6296666D02*
X-5471405Y-6559306D01*
X-5471405Y-6559306D02*
X-5168359Y-6579509D01*
X-5168359Y-6579509D02*
X-5228968Y-6640118D01*
X-5228968Y-6640118D02*
X-5249171Y-6700727D01*
X-5249171Y-6700727D02*
X-5249171Y-6741133D01*
X-5249171Y-6741133D02*
X-5228968Y-6801742D01*
X-5228968Y-6801742D02*
X-5127953Y-6902758D01*
X-5127953Y-6902758D02*
X-5067344Y-6922961D01*
X-5067344Y-6922961D02*
X-5026938Y-6922961D01*
X-5026938Y-6922961D02*
X-4966329Y-6902758D01*
X-4966329Y-6902758D02*
X-4845110Y-6781539D01*
X-4845110Y-6781539D02*
X-4824907Y-6720930D01*
X-4824907Y-6720930D02*
X-4824907Y-6680524D01*
D10*
X-8439286Y7549753D02*
X-8553572Y7511658D01*
X-8553572Y7511658D02*
X-8591667Y7473562D01*
X-8591667Y7473562D02*
X-8629763Y7397372D01*
X-8629763Y7397372D02*
X-8629763Y7283086D01*
X-8629763Y7283086D02*
X-8591667Y7206896D01*
X-8591667Y7206896D02*
X-8553572Y7168800D01*
X-8553572Y7168800D02*
X-8477382Y7130705D01*
X-8477382Y7130705D02*
X-8172620Y7130705D01*
X-8172620Y7130705D02*
X-8172620Y7930705D01*
X-8172620Y7930705D02*
X-8439286Y7930705D01*
X-8439286Y7930705D02*
X-8515477Y7892610D01*
X-8515477Y7892610D02*
X-8553572Y7854515D01*
X-8553572Y7854515D02*
X-8591667Y7778324D01*
X-8591667Y7778324D02*
X-8591667Y7702134D01*
X-8591667Y7702134D02*
X-8553572Y7625943D01*
X-8553572Y7625943D02*
X-8515477Y7587848D01*
X-8515477Y7587848D02*
X-8439286Y7549753D01*
X-8439286Y7549753D02*
X-8172620Y7549753D01*
X-9125001Y7930705D02*
X-9277382Y7930705D01*
X-9277382Y7930705D02*
X-9353572Y7892610D01*
X-9353572Y7892610D02*
X-9429763Y7816420D01*
X-9429763Y7816420D02*
X-9467858Y7664039D01*
X-9467858Y7664039D02*
X-9467858Y7397372D01*
X-9467858Y7397372D02*
X-9429763Y7244991D01*
X-9429763Y7244991D02*
X-9353572Y7168800D01*
X-9353572Y7168800D02*
X-9277382Y7130705D01*
X-9277382Y7130705D02*
X-9125001Y7130705D01*
X-9125001Y7130705D02*
X-9048810Y7168800D01*
X-9048810Y7168800D02*
X-8972620Y7244991D01*
X-8972620Y7244991D02*
X-8934524Y7397372D01*
X-8934524Y7397372D02*
X-8934524Y7664039D01*
X-8934524Y7664039D02*
X-8972620Y7816420D01*
X-8972620Y7816420D02*
X-9048810Y7892610D01*
X-9048810Y7892610D02*
X-9125001Y7930705D01*
X-9963096Y7930705D02*
X-10115477Y7930705D01*
X-10115477Y7930705D02*
X-10191667Y7892610D01*
X-10191667Y7892610D02*
X-10267858Y7816420D01*
X-10267858Y7816420D02*
X-10305953Y7664039D01*
X-10305953Y7664039D02*
X-10305953Y7397372D01*
X-10305953Y7397372D02*
X-10267858Y7244991D01*
X-10267858Y7244991D02*
X-10191667Y7168800D01*
X-10191667Y7168800D02*
X-10115477Y7130705D01*
X-10115477Y7130705D02*
X-9963096Y7130705D01*
X-9963096Y7130705D02*
X-9886905Y7168800D01*
X-9886905Y7168800D02*
X-9810715Y7244991D01*
X-9810715Y7244991D02*
X-9772619Y7397372D01*
X-9772619Y7397372D02*
X-9772619Y7664039D01*
X-9772619Y7664039D02*
X-9810715Y7816420D01*
X-9810715Y7816420D02*
X-9886905Y7892610D01*
X-9886905Y7892610D02*
X-9963096Y7930705D01*
X-10534524Y7930705D02*
X-10991667Y7930705D01*
X-10763095Y7130705D02*
X-10763095Y7930705D01*
D11*
X-12552408Y-12201884D02*
X-12613017Y-12181681D01*
X-12613017Y-12181681D02*
X-12673626Y-12121072D01*
X-12673626Y-12121072D02*
X-12714032Y-12040260D01*
X-12714032Y-12040260D02*
X-12714032Y-11959448D01*
X-12714032Y-11959448D02*
X-12693829Y-11898839D01*
X-12693829Y-11898839D02*
X-12633220Y-11797823D01*
X-12633220Y-11797823D02*
X-12572611Y-11737214D01*
X-12572611Y-11737214D02*
X-12471596Y-11676605D01*
X-12471596Y-11676605D02*
X-12410986Y-11656402D01*
X-12410986Y-11656402D02*
X-12330174Y-11656402D01*
X-12330174Y-11656402D02*
X-12249362Y-11696808D01*
X-12249362Y-11696808D02*
X-12208956Y-11737214D01*
X-12208956Y-11737214D02*
X-12168550Y-11818027D01*
X-12168550Y-11818027D02*
X-12168550Y-11858433D01*
X-12168550Y-11858433D02*
X-12309971Y-11999854D01*
X-12309971Y-11999854D02*
X-12390783Y-11919042D01*
X-11946316Y-11999854D02*
X-12370580Y-12424118D01*
X-12370580Y-12424118D02*
X-12208956Y-12585742D01*
X-12208956Y-12585742D02*
X-12148347Y-12605945D01*
X-12148347Y-12605945D02*
X-12107941Y-12605945D01*
X-12107941Y-12605945D02*
X-12047331Y-12585742D01*
X-12047331Y-12585742D02*
X-11986722Y-12525133D01*
X-11986722Y-12525133D02*
X-11966519Y-12464524D01*
X-11966519Y-12464524D02*
X-11966519Y-12424118D01*
X-11966519Y-12424118D02*
X-11986722Y-12363509D01*
X-11986722Y-12363509D02*
X-12148347Y-12201884D01*
X-11299819Y-12646352D02*
X-11542255Y-12403915D01*
X-11421037Y-12525133D02*
X-11845301Y-12949397D01*
X-11845301Y-12949397D02*
X-11825098Y-12848382D01*
X-11825098Y-12848382D02*
X-11825098Y-12767570D01*
X-11825098Y-12767570D02*
X-11845301Y-12706961D01*
X-11582661Y-13212037D02*
X-11299818Y-13494880D01*
X-11299818Y-13494880D02*
X-11057382Y-12888789D01*
X6086115Y-5354592D02*
X6106318Y-5293983D01*
X6106318Y-5293983D02*
X6166927Y-5233374D01*
X6166927Y-5233374D02*
X6247739Y-5192968D01*
X6247739Y-5192968D02*
X6328551Y-5192968D01*
X6328551Y-5192968D02*
X6389160Y-5213171D01*
X6389160Y-5213171D02*
X6490176Y-5273780D01*
X6490176Y-5273780D02*
X6550785Y-5334389D01*
X6550785Y-5334389D02*
X6611394Y-5435404D01*
X6611394Y-5435404D02*
X6631597Y-5496014D01*
X6631597Y-5496014D02*
X6631597Y-5576826D01*
X6631597Y-5576826D02*
X6591191Y-5657638D01*
X6591191Y-5657638D02*
X6550785Y-5698044D01*
X6550785Y-5698044D02*
X6469972Y-5738450D01*
X6469972Y-5738450D02*
X6429566Y-5738450D01*
X6429566Y-5738450D02*
X6288145Y-5597029D01*
X6288145Y-5597029D02*
X6368957Y-5516217D01*
X6288145Y-5960684D02*
X5863881Y-5536420D01*
X5863881Y-5536420D02*
X5702257Y-5698044D01*
X5702257Y-5698044D02*
X5682054Y-5758653D01*
X5682054Y-5758653D02*
X5682054Y-5799059D01*
X5682054Y-5799059D02*
X5702257Y-5859669D01*
X5702257Y-5859669D02*
X5762866Y-5920278D01*
X5762866Y-5920278D02*
X5823475Y-5940481D01*
X5823475Y-5940481D02*
X5863881Y-5940481D01*
X5863881Y-5940481D02*
X5924490Y-5920278D01*
X5924490Y-5920278D02*
X6086115Y-5758653D01*
X5641647Y-6607181D02*
X5884084Y-6364745D01*
X5762866Y-6485963D02*
X5338602Y-6061699D01*
X5338602Y-6061699D02*
X5439617Y-6081902D01*
X5439617Y-6081902D02*
X5520429Y-6081902D01*
X5520429Y-6081902D02*
X5581038Y-6061699D01*
X5156774Y-6607182D02*
X5176977Y-6546573D01*
X5176977Y-6546573D02*
X5176977Y-6506166D01*
X5176977Y-6506166D02*
X5156774Y-6445557D01*
X5156774Y-6445557D02*
X5136571Y-6425354D01*
X5136571Y-6425354D02*
X5075962Y-6405151D01*
X5075962Y-6405151D02*
X5035556Y-6405151D01*
X5035556Y-6405151D02*
X4974946Y-6425354D01*
X4974946Y-6425354D02*
X4894134Y-6506166D01*
X4894134Y-6506166D02*
X4873931Y-6566776D01*
X4873931Y-6566776D02*
X4873931Y-6607182D01*
X4873931Y-6607182D02*
X4894134Y-6667791D01*
X4894134Y-6667791D02*
X4914337Y-6687994D01*
X4914337Y-6687994D02*
X4974946Y-6708197D01*
X4974946Y-6708197D02*
X5015353Y-6708197D01*
X5015353Y-6708197D02*
X5075962Y-6687994D01*
X5075962Y-6687994D02*
X5156774Y-6607182D01*
X5156774Y-6607182D02*
X5217383Y-6586979D01*
X5217383Y-6586979D02*
X5257789Y-6586979D01*
X5257789Y-6586979D02*
X5318398Y-6607182D01*
X5318398Y-6607182D02*
X5399210Y-6687994D01*
X5399210Y-6687994D02*
X5419414Y-6748603D01*
X5419414Y-6748603D02*
X5419414Y-6789009D01*
X5419414Y-6789009D02*
X5399210Y-6849618D01*
X5399210Y-6849618D02*
X5318398Y-6930431D01*
X5318398Y-6930431D02*
X5257789Y-6950634D01*
X5257789Y-6950634D02*
X5217383Y-6950634D01*
X5217383Y-6950634D02*
X5156774Y-6930431D01*
X5156774Y-6930431D02*
X5075962Y-6849618D01*
X5075962Y-6849618D02*
X5055759Y-6789009D01*
X5055759Y-6789009D02*
X5055759Y-6748603D01*
X5055759Y-6748603D02*
X5075962Y-6687994D01*
D10*
X-31912170Y4385505D02*
X-32407408Y4385505D01*
X-32407408Y4385505D02*
X-32140742Y4080743D01*
X-32140742Y4080743D02*
X-32255027Y4080743D01*
X-32255027Y4080743D02*
X-32331218Y4042648D01*
X-32331218Y4042648D02*
X-32369313Y4004553D01*
X-32369313Y4004553D02*
X-32407408Y3928362D01*
X-32407408Y3928362D02*
X-32407408Y3737886D01*
X-32407408Y3737886D02*
X-32369313Y3661696D01*
X-32369313Y3661696D02*
X-32331218Y3623600D01*
X-32331218Y3623600D02*
X-32255027Y3585505D01*
X-32255027Y3585505D02*
X-32026456Y3585505D01*
X-32026456Y3585505D02*
X-31950265Y3623600D01*
X-31950265Y3623600D02*
X-31912170Y3661696D01*
X-32635980Y4385505D02*
X-32902647Y3585505D01*
X-32902647Y3585505D02*
X-33169313Y4385505D01*
X-33359789Y4385505D02*
X-33855027Y4385505D01*
X-33855027Y4385505D02*
X-33588361Y4080743D01*
X-33588361Y4080743D02*
X-33702646Y4080743D01*
X-33702646Y4080743D02*
X-33778837Y4042648D01*
X-33778837Y4042648D02*
X-33816932Y4004553D01*
X-33816932Y4004553D02*
X-33855027Y3928362D01*
X-33855027Y3928362D02*
X-33855027Y3737886D01*
X-33855027Y3737886D02*
X-33816932Y3661696D01*
X-33816932Y3661696D02*
X-33778837Y3623600D01*
X-33778837Y3623600D02*
X-33702646Y3585505D01*
X-33702646Y3585505D02*
X-33474075Y3585505D01*
X-33474075Y3585505D02*
X-33397884Y3623600D01*
X-33397884Y3623600D02*
X-33359789Y3661696D01*
X26248588Y9076604D02*
X26268379Y9159456D01*
X26268379Y9159456D02*
X26341841Y9247004D01*
X26341841Y9247004D02*
X26444485Y9310065D01*
X26444485Y9310065D02*
X26551825Y9319456D01*
X26551825Y9319456D02*
X26634677Y9299664D01*
X26634677Y9299664D02*
X26775895Y9230899D01*
X26775895Y9230899D02*
X26863443Y9157437D01*
X26863443Y9157437D02*
X26955686Y9030306D01*
X26955686Y9030306D02*
X26989564Y8952149D01*
X26989564Y8952149D02*
X26998955Y8844809D01*
X26998955Y8844809D02*
X26954676Y8732774D01*
X26954676Y8732774D02*
X26905702Y8674409D01*
X26905702Y8674409D02*
X26803058Y8611348D01*
X26803058Y8611348D02*
X26749388Y8606653D01*
X26749388Y8606653D02*
X26545110Y8778063D01*
X26545110Y8778063D02*
X26643058Y8894793D01*
X26587369Y8295035D02*
X25974534Y8809265D01*
X25974534Y8809265D02*
X25778637Y8575803D01*
X25778637Y8575803D02*
X25758845Y8492951D01*
X25758845Y8492951D02*
X25763540Y8439281D01*
X25763540Y8439281D02*
X25797419Y8361124D01*
X25797419Y8361124D02*
X25884966Y8287663D01*
X25884966Y8287663D02*
X25967819Y8267871D01*
X25967819Y8267871D02*
X26021489Y8272567D01*
X26021489Y8272567D02*
X26099646Y8306445D01*
X26099646Y8306445D02*
X26295543Y8539906D01*
X25362355Y8079698D02*
X25313381Y8021333D01*
X25313381Y8021333D02*
X25293589Y7938481D01*
X25293589Y7938481D02*
X25298285Y7884811D01*
X25298285Y7884811D02*
X25332163Y7806654D01*
X25332163Y7806654D02*
X25424406Y7679523D01*
X25424406Y7679523D02*
X25570319Y7557087D01*
X25570319Y7557087D02*
X25711537Y7488321D01*
X25711537Y7488321D02*
X25794390Y7468529D01*
X25794390Y7468529D02*
X25848059Y7473225D01*
X25848059Y7473225D02*
X25926216Y7507103D01*
X25926216Y7507103D02*
X25975191Y7565468D01*
X25975191Y7565468D02*
X25994982Y7648321D01*
X25994982Y7648321D02*
X25990287Y7701991D01*
X25990287Y7701991D02*
X25956409Y7780148D01*
X25956409Y7780148D02*
X25864165Y7907279D01*
X25864165Y7907279D02*
X25718252Y8029715D01*
X25718252Y8029715D02*
X25577034Y8098480D01*
X25577034Y8098480D02*
X25494182Y8118272D01*
X25494182Y8118272D02*
X25440512Y8113577D01*
X25440512Y8113577D02*
X25362355Y8079698D01*
D11*
X-5465808Y-12074884D02*
X-5526417Y-12054681D01*
X-5526417Y-12054681D02*
X-5587026Y-11994072D01*
X-5587026Y-11994072D02*
X-5627432Y-11913260D01*
X-5627432Y-11913260D02*
X-5627432Y-11832448D01*
X-5627432Y-11832448D02*
X-5607229Y-11771839D01*
X-5607229Y-11771839D02*
X-5546620Y-11670823D01*
X-5546620Y-11670823D02*
X-5486011Y-11610214D01*
X-5486011Y-11610214D02*
X-5384996Y-11549605D01*
X-5384996Y-11549605D02*
X-5324386Y-11529402D01*
X-5324386Y-11529402D02*
X-5243574Y-11529402D01*
X-5243574Y-11529402D02*
X-5162762Y-11569808D01*
X-5162762Y-11569808D02*
X-5122356Y-11610214D01*
X-5122356Y-11610214D02*
X-5081950Y-11691027D01*
X-5081950Y-11691027D02*
X-5081950Y-11731433D01*
X-5081950Y-11731433D02*
X-5223371Y-11872854D01*
X-5223371Y-11872854D02*
X-5304183Y-11792042D01*
X-4859716Y-11872854D02*
X-5283980Y-12297118D01*
X-5283980Y-12297118D02*
X-4617280Y-12115291D01*
X-4617280Y-12115291D02*
X-5041544Y-12539555D01*
X-4415249Y-12317321D02*
X-4839513Y-12741585D01*
X-4839513Y-12741585D02*
X-4738498Y-12842600D01*
X-4738498Y-12842600D02*
X-4657686Y-12883006D01*
X-4657686Y-12883006D02*
X-4576874Y-12883006D01*
X-4576874Y-12883006D02*
X-4516265Y-12862803D01*
X-4516265Y-12862803D02*
X-4415249Y-12802194D01*
X-4415249Y-12802194D02*
X-4354640Y-12741585D01*
X-4354640Y-12741585D02*
X-4294031Y-12640570D01*
X-4294031Y-12640570D02*
X-4273828Y-12579960D01*
X-4273828Y-12579960D02*
X-4273828Y-12499148D01*
X-4273828Y-12499148D02*
X-4314234Y-12418336D01*
X-4314234Y-12418336D02*
X-4415249Y-12317321D01*
X-14174446Y-5026147D02*
X-13891603Y-5591832D01*
X-13891603Y-5591832D02*
X-14457289Y-5308989D01*
X-14538101Y-5793863D02*
X-14578507Y-5874675D01*
X-14578507Y-5874675D02*
X-14578507Y-5915081D01*
X-14578507Y-5915081D02*
X-14558304Y-5975690D01*
X-14558304Y-5975690D02*
X-14497695Y-6036299D01*
X-14497695Y-6036299D02*
X-14437086Y-6056502D01*
X-14437086Y-6056502D02*
X-14396680Y-6056502D01*
X-14396680Y-6056502D02*
X-14336070Y-6036299D01*
X-14336070Y-6036299D02*
X-14174446Y-5874675D01*
X-14174446Y-5874675D02*
X-14598710Y-5450411D01*
X-14598710Y-5450411D02*
X-14740131Y-5591832D01*
X-14740131Y-5591832D02*
X-14760334Y-5652441D01*
X-14760334Y-5652441D02*
X-14760334Y-5692847D01*
X-14760334Y-5692847D02*
X-14740131Y-5753457D01*
X-14740131Y-5753457D02*
X-14699725Y-5793863D01*
X-14699725Y-5793863D02*
X-14639116Y-5814066D01*
X-14639116Y-5814066D02*
X-14598710Y-5814066D01*
X-14598710Y-5814066D02*
X-14538101Y-5793863D01*
X-14538101Y-5793863D02*
X-14396680Y-5652441D01*
X-15022974Y-5874675D02*
X-14679522Y-6218127D01*
X-14679522Y-6218127D02*
X-14659319Y-6278736D01*
X-14659319Y-6278736D02*
X-14659319Y-6319142D01*
X-14659319Y-6319142D02*
X-14679522Y-6379751D01*
X-14679522Y-6379751D02*
X-14760334Y-6460563D01*
X-14760334Y-6460563D02*
X-14820944Y-6480766D01*
X-14820944Y-6480766D02*
X-14861350Y-6480766D01*
X-14861350Y-6480766D02*
X-14921959Y-6460563D01*
X-14921959Y-6460563D02*
X-15265411Y-6117111D01*
X-15043177Y-6703000D02*
X-15083583Y-6783812D01*
X-15083583Y-6783812D02*
X-15184598Y-6884827D01*
X-15184598Y-6884827D02*
X-15245207Y-6905030D01*
X-15245207Y-6905030D02*
X-15285614Y-6905030D01*
X-15285614Y-6905030D02*
X-15346223Y-6884827D01*
X-15346223Y-6884827D02*
X-15386629Y-6844421D01*
X-15386629Y-6844421D02*
X-15406832Y-6783812D01*
X-15406832Y-6783812D02*
X-15406832Y-6743406D01*
X-15406832Y-6743406D02*
X-15386629Y-6682797D01*
X-15386629Y-6682797D02*
X-15326020Y-6581781D01*
X-15326020Y-6581781D02*
X-15305817Y-6521172D01*
X-15305817Y-6521172D02*
X-15305817Y-6480766D01*
X-15305817Y-6480766D02*
X-15326020Y-6420157D01*
X-15326020Y-6420157D02*
X-15366426Y-6379751D01*
X-15366426Y-6379751D02*
X-15427035Y-6359548D01*
X-15427035Y-6359548D02*
X-15467441Y-6359548D01*
X-15467441Y-6359548D02*
X-15528050Y-6379751D01*
X-15528050Y-6379751D02*
X-15629065Y-6480766D01*
X-15629065Y-6480766D02*
X-15669471Y-6561578D01*
X-15092408Y-12176484D02*
X-15153017Y-12156281D01*
X-15153017Y-12156281D02*
X-15213626Y-12095672D01*
X-15213626Y-12095672D02*
X-15254032Y-12014860D01*
X-15254032Y-12014860D02*
X-15254032Y-11934048D01*
X-15254032Y-11934048D02*
X-15233829Y-11873439D01*
X-15233829Y-11873439D02*
X-15173220Y-11772423D01*
X-15173220Y-11772423D02*
X-15112611Y-11711814D01*
X-15112611Y-11711814D02*
X-15011596Y-11651205D01*
X-15011596Y-11651205D02*
X-14950986Y-11631002D01*
X-14950986Y-11631002D02*
X-14870174Y-11631002D01*
X-14870174Y-11631002D02*
X-14789362Y-11671408D01*
X-14789362Y-11671408D02*
X-14748956Y-11711814D01*
X-14748956Y-11711814D02*
X-14708550Y-11792627D01*
X-14708550Y-11792627D02*
X-14708550Y-11833033D01*
X-14708550Y-11833033D02*
X-14849971Y-11974454D01*
X-14849971Y-11974454D02*
X-14930783Y-11893642D01*
X-14486316Y-11974454D02*
X-14910580Y-12398718D01*
X-14910580Y-12398718D02*
X-14243880Y-12216891D01*
X-14243880Y-12216891D02*
X-14668144Y-12641155D01*
X-14041849Y-12418921D02*
X-14466113Y-12843185D01*
X-14466113Y-12843185D02*
X-14365098Y-12944200D01*
X-14365098Y-12944200D02*
X-14284286Y-12984606D01*
X-14284286Y-12984606D02*
X-14203474Y-12984606D01*
X-14203474Y-12984606D02*
X-14142865Y-12964403D01*
X-14142865Y-12964403D02*
X-14041849Y-12903794D01*
X-14041849Y-12903794D02*
X-13981240Y-12843185D01*
X-13981240Y-12843185D02*
X-13920631Y-12742170D01*
X-13920631Y-12742170D02*
X-13900428Y-12681560D01*
X-13900428Y-12681560D02*
X-13900428Y-12600748D01*
X-13900428Y-12600748D02*
X-13940834Y-12519936D01*
X-13940834Y-12519936D02*
X-14041849Y-12418921D01*
D10*
X27313591Y-8740718D02*
X27398621Y-8745822D01*
X27398621Y-8745822D02*
X27497595Y-8802965D01*
X27497595Y-8802965D02*
X27577522Y-8893099D01*
X27577522Y-8893099D02*
X27605410Y-8997177D01*
X27605410Y-8997177D02*
X27600306Y-9082208D01*
X27600306Y-9082208D02*
X27557107Y-9233221D01*
X27557107Y-9233221D02*
X27499964Y-9332195D01*
X27499964Y-9332195D02*
X27390782Y-9445114D01*
X27390782Y-9445114D02*
X27319695Y-9492049D01*
X27319695Y-9492049D02*
X27215617Y-9519936D01*
X27215617Y-9519936D02*
X27097595Y-9495785D01*
X27097595Y-9495785D02*
X27031613Y-9457690D01*
X27031613Y-9457690D02*
X26951686Y-9367556D01*
X26951686Y-9367556D02*
X26937742Y-9315516D01*
X26937742Y-9315516D02*
X27071075Y-9084576D01*
X27071075Y-9084576D02*
X27203041Y-9160767D01*
X26602724Y-9210071D02*
X27002724Y-8517250D01*
X27002724Y-8517250D02*
X26738792Y-8364870D01*
X26738792Y-8364870D02*
X26653762Y-8359766D01*
X26653762Y-8359766D02*
X26601723Y-8373710D01*
X26601723Y-8373710D02*
X26530636Y-8420645D01*
X26530636Y-8420645D02*
X26473493Y-8519619D01*
X26473493Y-8519619D02*
X26468389Y-8604650D01*
X26468389Y-8604650D02*
X26482333Y-8656689D01*
X26482333Y-8656689D02*
X26529268Y-8727775D01*
X26529268Y-8727775D02*
X26793200Y-8880156D01*
X26304800Y-8202281D02*
X26290856Y-8150242D01*
X26290856Y-8150242D02*
X26243921Y-8079155D01*
X26243921Y-8079155D02*
X26078963Y-7983917D01*
X26078963Y-7983917D02*
X25993933Y-7978813D01*
X25993933Y-7978813D02*
X25941894Y-7992757D01*
X25941894Y-7992757D02*
X25870807Y-8039692D01*
X25870807Y-8039692D02*
X25832712Y-8105675D01*
X25832712Y-8105675D02*
X25808560Y-8223697D01*
X25808560Y-8223697D02*
X25975886Y-8848166D01*
X25975886Y-8848166D02*
X25546998Y-8600547D01*
X25644971Y-7821328D02*
X25631027Y-7769289D01*
X25631027Y-7769289D02*
X25584091Y-7698203D01*
X25584091Y-7698203D02*
X25419134Y-7602965D01*
X25419134Y-7602965D02*
X25334104Y-7597861D01*
X25334104Y-7597861D02*
X25282065Y-7611805D01*
X25282065Y-7611805D02*
X25210978Y-7658740D01*
X25210978Y-7658740D02*
X25172883Y-7724723D01*
X25172883Y-7724723D02*
X25148731Y-7842745D01*
X25148731Y-7842745D02*
X25316057Y-8467214D01*
X25316057Y-8467214D02*
X24887168Y-8219594D01*
D11*
X17394192Y-12049484D02*
X17333583Y-12029281D01*
X17333583Y-12029281D02*
X17272974Y-11968672D01*
X17272974Y-11968672D02*
X17232568Y-11887860D01*
X17232568Y-11887860D02*
X17232568Y-11807048D01*
X17232568Y-11807048D02*
X17252771Y-11746439D01*
X17252771Y-11746439D02*
X17313380Y-11645423D01*
X17313380Y-11645423D02*
X17373989Y-11584814D01*
X17373989Y-11584814D02*
X17475004Y-11524205D01*
X17475004Y-11524205D02*
X17535614Y-11504002D01*
X17535614Y-11504002D02*
X17616426Y-11504002D01*
X17616426Y-11504002D02*
X17697238Y-11544408D01*
X17697238Y-11544408D02*
X17737644Y-11584814D01*
X17737644Y-11584814D02*
X17778050Y-11665627D01*
X17778050Y-11665627D02*
X17778050Y-11706033D01*
X17778050Y-11706033D02*
X17636629Y-11847454D01*
X17636629Y-11847454D02*
X17555817Y-11766642D01*
X18000284Y-11847454D02*
X17576020Y-12271718D01*
X17576020Y-12271718D02*
X18242720Y-12089891D01*
X18242720Y-12089891D02*
X17818456Y-12514155D01*
X18444751Y-12291921D02*
X18020487Y-12716185D01*
X18020487Y-12716185D02*
X18121502Y-12817200D01*
X18121502Y-12817200D02*
X18202314Y-12857606D01*
X18202314Y-12857606D02*
X18283126Y-12857606D01*
X18283126Y-12857606D02*
X18343735Y-12837403D01*
X18343735Y-12837403D02*
X18444751Y-12776794D01*
X18444751Y-12776794D02*
X18505360Y-12716185D01*
X18505360Y-12716185D02*
X18565969Y-12615170D01*
X18565969Y-12615170D02*
X18586172Y-12554560D01*
X18586172Y-12554560D02*
X18586172Y-12473748D01*
X18586172Y-12473748D02*
X18545766Y-12392936D01*
X18545766Y-12392936D02*
X18444751Y-12291921D01*
X-2499085Y-5430792D02*
X-2478882Y-5370183D01*
X-2478882Y-5370183D02*
X-2418273Y-5309574D01*
X-2418273Y-5309574D02*
X-2337461Y-5269168D01*
X-2337461Y-5269168D02*
X-2256649Y-5269168D01*
X-2256649Y-5269168D02*
X-2196040Y-5289371D01*
X-2196040Y-5289371D02*
X-2095024Y-5349980D01*
X-2095024Y-5349980D02*
X-2034415Y-5410589D01*
X-2034415Y-5410589D02*
X-1973806Y-5511604D01*
X-1973806Y-5511604D02*
X-1953603Y-5572214D01*
X-1953603Y-5572214D02*
X-1953603Y-5653026D01*
X-1953603Y-5653026D02*
X-1994009Y-5733838D01*
X-1994009Y-5733838D02*
X-2034415Y-5774244D01*
X-2034415Y-5774244D02*
X-2115228Y-5814650D01*
X-2115228Y-5814650D02*
X-2155634Y-5814650D01*
X-2155634Y-5814650D02*
X-2297055Y-5673229D01*
X-2297055Y-5673229D02*
X-2216243Y-5592417D01*
X-2297055Y-6036884D02*
X-2721319Y-5612620D01*
X-2721319Y-5612620D02*
X-2882943Y-5774244D01*
X-2882943Y-5774244D02*
X-2903146Y-5834853D01*
X-2903146Y-5834853D02*
X-2903146Y-5875259D01*
X-2903146Y-5875259D02*
X-2882943Y-5935869D01*
X-2882943Y-5935869D02*
X-2822334Y-5996478D01*
X-2822334Y-5996478D02*
X-2761725Y-6016681D01*
X-2761725Y-6016681D02*
X-2721319Y-6016681D01*
X-2721319Y-6016681D02*
X-2660710Y-5996478D01*
X-2660710Y-5996478D02*
X-2499085Y-5834853D01*
X-3084974Y-6057087D02*
X-3125380Y-6057087D01*
X-3125380Y-6057087D02*
X-3185989Y-6077290D01*
X-3185989Y-6077290D02*
X-3287004Y-6178305D01*
X-3287004Y-6178305D02*
X-3307208Y-6238914D01*
X-3307208Y-6238914D02*
X-3307208Y-6279320D01*
X-3307208Y-6279320D02*
X-3287004Y-6339930D01*
X-3287004Y-6339930D02*
X-3246598Y-6380336D01*
X-3246598Y-6380336D02*
X-3165786Y-6420742D01*
X-3165786Y-6420742D02*
X-2680913Y-6420742D01*
X-2680913Y-6420742D02*
X-2943553Y-6683381D01*
X-3509238Y-6400539D02*
X-3792081Y-6683382D01*
X-3792081Y-6683382D02*
X-3185990Y-6925818D01*
D10*
X-30858075Y-5723695D02*
X-31124742Y-6523695D01*
X-31124742Y-6523695D02*
X-31391408Y-5723695D01*
X-31924741Y-6104647D02*
X-32039027Y-6142742D01*
X-32039027Y-6142742D02*
X-32077122Y-6180838D01*
X-32077122Y-6180838D02*
X-32115218Y-6257028D01*
X-32115218Y-6257028D02*
X-32115218Y-6371314D01*
X-32115218Y-6371314D02*
X-32077122Y-6447504D01*
X-32077122Y-6447504D02*
X-32039027Y-6485600D01*
X-32039027Y-6485600D02*
X-31962837Y-6523695D01*
X-31962837Y-6523695D02*
X-31658075Y-6523695D01*
X-31658075Y-6523695D02*
X-31658075Y-5723695D01*
X-31658075Y-5723695D02*
X-31924741Y-5723695D01*
X-31924741Y-5723695D02*
X-32000932Y-5761790D01*
X-32000932Y-5761790D02*
X-32039027Y-5799885D01*
X-32039027Y-5799885D02*
X-32077122Y-5876076D01*
X-32077122Y-5876076D02*
X-32077122Y-5952266D01*
X-32077122Y-5952266D02*
X-32039027Y-6028457D01*
X-32039027Y-6028457D02*
X-32000932Y-6066552D01*
X-32000932Y-6066552D02*
X-31924741Y-6104647D01*
X-31924741Y-6104647D02*
X-31658075Y-6104647D01*
X-32458075Y-5723695D02*
X-32458075Y-6371314D01*
X-32458075Y-6371314D02*
X-32496170Y-6447504D01*
X-32496170Y-6447504D02*
X-32534265Y-6485600D01*
X-32534265Y-6485600D02*
X-32610456Y-6523695D01*
X-32610456Y-6523695D02*
X-32762837Y-6523695D01*
X-32762837Y-6523695D02*
X-32839027Y-6485600D01*
X-32839027Y-6485600D02*
X-32877122Y-6447504D01*
X-32877122Y-6447504D02*
X-32915218Y-6371314D01*
X-32915218Y-6371314D02*
X-32915218Y-5723695D01*
X-33258074Y-6485600D02*
X-33372360Y-6523695D01*
X-33372360Y-6523695D02*
X-33562836Y-6523695D01*
X-33562836Y-6523695D02*
X-33639027Y-6485600D01*
X-33639027Y-6485600D02*
X-33677122Y-6447504D01*
X-33677122Y-6447504D02*
X-33715217Y-6371314D01*
X-33715217Y-6371314D02*
X-33715217Y-6295123D01*
X-33715217Y-6295123D02*
X-33677122Y-6218933D01*
X-33677122Y-6218933D02*
X-33639027Y-6180838D01*
X-33639027Y-6180838D02*
X-33562836Y-6142742D01*
X-33562836Y-6142742D02*
X-33410455Y-6104647D01*
X-33410455Y-6104647D02*
X-33334265Y-6066552D01*
X-33334265Y-6066552D02*
X-33296170Y-6028457D01*
X-33296170Y-6028457D02*
X-33258074Y-5952266D01*
X-33258074Y-5952266D02*
X-33258074Y-5876076D01*
X-33258074Y-5876076D02*
X-33296170Y-5799885D01*
X-33296170Y-5799885D02*
X-33334265Y-5761790D01*
X-33334265Y-5761790D02*
X-33410455Y-5723695D01*
X-33410455Y-5723695D02*
X-33600932Y-5723695D01*
X-33600932Y-5723695D02*
X-33715217Y-5761790D01*
D11*
X4770392Y-12049484D02*
X4709783Y-12029281D01*
X4709783Y-12029281D02*
X4649174Y-11968672D01*
X4649174Y-11968672D02*
X4608768Y-11887860D01*
X4608768Y-11887860D02*
X4608768Y-11807048D01*
X4608768Y-11807048D02*
X4628971Y-11746439D01*
X4628971Y-11746439D02*
X4689580Y-11645423D01*
X4689580Y-11645423D02*
X4750189Y-11584814D01*
X4750189Y-11584814D02*
X4851204Y-11524205D01*
X4851204Y-11524205D02*
X4911814Y-11504002D01*
X4911814Y-11504002D02*
X4992626Y-11504002D01*
X4992626Y-11504002D02*
X5073438Y-11544408D01*
X5073438Y-11544408D02*
X5113844Y-11584814D01*
X5113844Y-11584814D02*
X5154250Y-11665627D01*
X5154250Y-11665627D02*
X5154250Y-11706033D01*
X5154250Y-11706033D02*
X5012829Y-11847454D01*
X5012829Y-11847454D02*
X4932017Y-11766642D01*
X5376484Y-11847454D02*
X4952220Y-12271718D01*
X4952220Y-12271718D02*
X5113844Y-12433342D01*
X5113844Y-12433342D02*
X5174453Y-12453545D01*
X5174453Y-12453545D02*
X5214859Y-12453545D01*
X5214859Y-12453545D02*
X5275469Y-12433342D01*
X5275469Y-12433342D02*
X5336078Y-12372733D01*
X5336078Y-12372733D02*
X5356281Y-12312124D01*
X5356281Y-12312124D02*
X5356281Y-12271718D01*
X5356281Y-12271718D02*
X5336078Y-12211109D01*
X5336078Y-12211109D02*
X5174453Y-12049484D01*
X5396687Y-12635373D02*
X5396687Y-12675779D01*
X5396687Y-12675779D02*
X5416890Y-12736388D01*
X5416890Y-12736388D02*
X5517905Y-12837403D01*
X5517905Y-12837403D02*
X5578514Y-12857607D01*
X5578514Y-12857607D02*
X5618920Y-12857607D01*
X5618920Y-12857607D02*
X5679530Y-12837403D01*
X5679530Y-12837403D02*
X5719936Y-12796997D01*
X5719936Y-12796997D02*
X5760342Y-12716185D01*
X5760342Y-12716185D02*
X5760342Y-12231312D01*
X5760342Y-12231312D02*
X6022981Y-12493952D01*
X6427043Y-12898013D02*
X6184606Y-12655576D01*
X6305824Y-12776795D02*
X5881560Y-13201059D01*
X5881560Y-13201059D02*
X5901763Y-13100043D01*
X5901763Y-13100043D02*
X5901763Y-13019231D01*
X5901763Y-13019231D02*
X5881560Y-12958622D01*
X18483143Y-8893871D02*
X18111715Y-8893871D01*
X18111715Y-8893871D02*
X18311715Y-9122442D01*
X18311715Y-9122442D02*
X18226000Y-9122442D01*
X18226000Y-9122442D02*
X18168858Y-9151014D01*
X18168858Y-9151014D02*
X18140286Y-9179585D01*
X18140286Y-9179585D02*
X18111715Y-9236728D01*
X18111715Y-9236728D02*
X18111715Y-9379585D01*
X18111715Y-9379585D02*
X18140286Y-9436728D01*
X18140286Y-9436728D02*
X18168858Y-9465300D01*
X18168858Y-9465300D02*
X18226000Y-9493871D01*
X18226000Y-9493871D02*
X18397429Y-9493871D01*
X18397429Y-9493871D02*
X18454572Y-9465300D01*
X18454572Y-9465300D02*
X18483143Y-9436728D01*
X17940286Y-8893871D02*
X17740286Y-9493871D01*
X17740286Y-9493871D02*
X17540286Y-8893871D01*
X17397428Y-8893871D02*
X17026000Y-8893871D01*
X17026000Y-8893871D02*
X17226000Y-9122442D01*
X17226000Y-9122442D02*
X17140285Y-9122442D01*
X17140285Y-9122442D02*
X17083143Y-9151014D01*
X17083143Y-9151014D02*
X17054571Y-9179585D01*
X17054571Y-9179585D02*
X17026000Y-9236728D01*
X17026000Y-9236728D02*
X17026000Y-9379585D01*
X17026000Y-9379585D02*
X17054571Y-9436728D01*
X17054571Y-9436728D02*
X17083143Y-9465300D01*
X17083143Y-9465300D02*
X17140285Y-9493871D01*
X17140285Y-9493871D02*
X17311714Y-9493871D01*
X17311714Y-9493871D02*
X17368857Y-9465300D01*
X17368857Y-9465300D02*
X17397428Y-9436728D01*
D10*
X29839481Y1161086D02*
X29918702Y1192396D01*
X29918702Y1192396D02*
X30032553Y1182435D01*
X30032553Y1182435D02*
X30143084Y1134524D01*
X30143084Y1134524D02*
X30212344Y1051983D01*
X30212344Y1051983D02*
X30243654Y972763D01*
X30243654Y972763D02*
X30268323Y817641D01*
X30268323Y817641D02*
X30258362Y703790D01*
X30258362Y703790D02*
X30207131Y555310D01*
X30207131Y555310D02*
X30162541Y482729D01*
X30162541Y482729D02*
X30080000Y413469D01*
X30080000Y413469D02*
X29962828Y385480D01*
X29962828Y385480D02*
X29886928Y392120D01*
X29886928Y392120D02*
X29776397Y440031D01*
X29776397Y440031D02*
X29741767Y481301D01*
X29741767Y481301D02*
X29765009Y746953D01*
X29765009Y746953D02*
X29916810Y733672D01*
X29393574Y435283D02*
X29463299Y1232239D01*
X29463299Y1232239D02*
X29159697Y1258800D01*
X29159697Y1258800D02*
X29080476Y1227491D01*
X29080476Y1227491D02*
X29039206Y1192860D01*
X29039206Y1192860D02*
X28994615Y1120280D01*
X28994615Y1120280D02*
X28984654Y1006429D01*
X28984654Y1006429D02*
X29015964Y927209D01*
X29015964Y927209D02*
X29050594Y885938D01*
X29050594Y885938D02*
X29123174Y841347D01*
X29123174Y841347D02*
X29426777Y814786D01*
X28697653Y1222742D02*
X28663023Y1264013D01*
X28663023Y1264013D02*
X28590443Y1308604D01*
X28590443Y1308604D02*
X28400691Y1325205D01*
X28400691Y1325205D02*
X28321471Y1293895D01*
X28321471Y1293895D02*
X28280200Y1259265D01*
X28280200Y1259265D02*
X28235609Y1186685D01*
X28235609Y1186685D02*
X28228969Y1110784D01*
X28228969Y1110784D02*
X28256959Y993613D01*
X28256959Y993613D02*
X28672519Y498367D01*
X28672519Y498367D02*
X28179166Y541530D01*
D11*
X12498315Y-8846242D02*
X12555458Y-8817671D01*
X12555458Y-8817671D02*
X12641172Y-8817671D01*
X12641172Y-8817671D02*
X12726886Y-8846242D01*
X12726886Y-8846242D02*
X12784029Y-8903385D01*
X12784029Y-8903385D02*
X12812600Y-8960528D01*
X12812600Y-8960528D02*
X12841172Y-9074814D01*
X12841172Y-9074814D02*
X12841172Y-9160528D01*
X12841172Y-9160528D02*
X12812600Y-9274814D01*
X12812600Y-9274814D02*
X12784029Y-9331957D01*
X12784029Y-9331957D02*
X12726886Y-9389100D01*
X12726886Y-9389100D02*
X12641172Y-9417671D01*
X12641172Y-9417671D02*
X12584029Y-9417671D01*
X12584029Y-9417671D02*
X12498315Y-9389100D01*
X12498315Y-9389100D02*
X12469743Y-9360528D01*
X12469743Y-9360528D02*
X12469743Y-9160528D01*
X12469743Y-9160528D02*
X12584029Y-9160528D01*
X12212600Y-9417671D02*
X12212600Y-8817671D01*
X12212600Y-8817671D02*
X11984029Y-8817671D01*
X11984029Y-8817671D02*
X11926886Y-8846242D01*
X11926886Y-8846242D02*
X11898315Y-8874814D01*
X11898315Y-8874814D02*
X11869743Y-8931957D01*
X11869743Y-8931957D02*
X11869743Y-9017671D01*
X11869743Y-9017671D02*
X11898315Y-9074814D01*
X11898315Y-9074814D02*
X11926886Y-9103385D01*
X11926886Y-9103385D02*
X11984029Y-9131957D01*
X11984029Y-9131957D02*
X12212600Y-9131957D01*
X11641172Y-8874814D02*
X11612600Y-8846242D01*
X11612600Y-8846242D02*
X11555458Y-8817671D01*
X11555458Y-8817671D02*
X11412600Y-8817671D01*
X11412600Y-8817671D02*
X11355458Y-8846242D01*
X11355458Y-8846242D02*
X11326886Y-8874814D01*
X11326886Y-8874814D02*
X11298315Y-8931957D01*
X11298315Y-8931957D02*
X11298315Y-8989100D01*
X11298315Y-8989100D02*
X11326886Y-9074814D01*
X11326886Y-9074814D02*
X11669743Y-9417671D01*
X11669743Y-9417671D02*
X11298315Y-9417671D01*
D10*
X-20376753Y8172315D02*
X-20338658Y8058029D01*
X-20338658Y8058029D02*
X-20300562Y8019934D01*
X-20300562Y8019934D02*
X-20224372Y7981838D01*
X-20224372Y7981838D02*
X-20110086Y7981838D01*
X-20110086Y7981838D02*
X-20033896Y8019934D01*
X-20033896Y8019934D02*
X-19995800Y8058029D01*
X-19995800Y8058029D02*
X-19957705Y8134219D01*
X-19957705Y8134219D02*
X-19957705Y8438981D01*
X-19957705Y8438981D02*
X-20757705Y8438981D01*
X-20757705Y8438981D02*
X-20757705Y8172315D01*
X-20757705Y8172315D02*
X-20719610Y8096124D01*
X-20719610Y8096124D02*
X-20681515Y8058029D01*
X-20681515Y8058029D02*
X-20605324Y8019934D01*
X-20605324Y8019934D02*
X-20529134Y8019934D01*
X-20529134Y8019934D02*
X-20452943Y8058029D01*
X-20452943Y8058029D02*
X-20414848Y8096124D01*
X-20414848Y8096124D02*
X-20376753Y8172315D01*
X-20376753Y8172315D02*
X-20376753Y8438981D01*
X-20186277Y7677077D02*
X-20186277Y7296124D01*
X-19957705Y7753267D02*
X-20757705Y7486600D01*
X-20757705Y7486600D02*
X-19957705Y7219934D01*
X-20757705Y7067553D02*
X-20757705Y6610410D01*
X-19957705Y6838982D02*
X-20757705Y6838982D01*
X-20262467Y6343743D02*
X-20262467Y5734219D01*
X-19957705Y6038981D02*
X-20567229Y6038981D01*
D11*
X2154192Y-12151084D02*
X2093583Y-12130881D01*
X2093583Y-12130881D02*
X2032974Y-12070272D01*
X2032974Y-12070272D02*
X1992568Y-11989460D01*
X1992568Y-11989460D02*
X1992568Y-11908648D01*
X1992568Y-11908648D02*
X2012771Y-11848039D01*
X2012771Y-11848039D02*
X2073380Y-11747023D01*
X2073380Y-11747023D02*
X2133989Y-11686414D01*
X2133989Y-11686414D02*
X2235004Y-11625805D01*
X2235004Y-11625805D02*
X2295614Y-11605602D01*
X2295614Y-11605602D02*
X2376426Y-11605602D01*
X2376426Y-11605602D02*
X2457238Y-11646008D01*
X2457238Y-11646008D02*
X2497644Y-11686414D01*
X2497644Y-11686414D02*
X2538050Y-11767227D01*
X2538050Y-11767227D02*
X2538050Y-11807633D01*
X2538050Y-11807633D02*
X2396629Y-11949054D01*
X2396629Y-11949054D02*
X2315817Y-11868242D01*
X2760284Y-11949054D02*
X2336020Y-12373318D01*
X2336020Y-12373318D02*
X3002720Y-12191491D01*
X3002720Y-12191491D02*
X2578456Y-12615755D01*
X3204751Y-12393521D02*
X2780487Y-12817785D01*
X2780487Y-12817785D02*
X2881502Y-12918800D01*
X2881502Y-12918800D02*
X2962314Y-12959206D01*
X2962314Y-12959206D02*
X3043126Y-12959206D01*
X3043126Y-12959206D02*
X3103735Y-12939003D01*
X3103735Y-12939003D02*
X3204751Y-12878394D01*
X3204751Y-12878394D02*
X3265360Y-12817785D01*
X3265360Y-12817785D02*
X3325969Y-12716770D01*
X3325969Y-12716770D02*
X3346172Y-12656160D01*
X3346172Y-12656160D02*
X3346172Y-12575348D01*
X3346172Y-12575348D02*
X3305766Y-12494536D01*
X3305766Y-12494536D02*
X3204751Y-12393521D01*
X12593592Y-12024084D02*
X12532983Y-12003881D01*
X12532983Y-12003881D02*
X12472374Y-11943272D01*
X12472374Y-11943272D02*
X12431968Y-11862460D01*
X12431968Y-11862460D02*
X12431968Y-11781648D01*
X12431968Y-11781648D02*
X12452171Y-11721039D01*
X12452171Y-11721039D02*
X12512780Y-11620023D01*
X12512780Y-11620023D02*
X12573389Y-11559414D01*
X12573389Y-11559414D02*
X12674404Y-11498805D01*
X12674404Y-11498805D02*
X12735014Y-11478602D01*
X12735014Y-11478602D02*
X12815826Y-11478602D01*
X12815826Y-11478602D02*
X12896638Y-11519008D01*
X12896638Y-11519008D02*
X12937044Y-11559414D01*
X12937044Y-11559414D02*
X12977450Y-11640227D01*
X12977450Y-11640227D02*
X12977450Y-11680633D01*
X12977450Y-11680633D02*
X12836029Y-11822054D01*
X12836029Y-11822054D02*
X12755217Y-11741242D01*
X13199684Y-11822054D02*
X12775420Y-12246318D01*
X12775420Y-12246318D02*
X12937044Y-12407942D01*
X12937044Y-12407942D02*
X12997653Y-12428145D01*
X12997653Y-12428145D02*
X13038059Y-12428145D01*
X13038059Y-12428145D02*
X13098669Y-12407942D01*
X13098669Y-12407942D02*
X13159278Y-12347333D01*
X13159278Y-12347333D02*
X13179481Y-12286724D01*
X13179481Y-12286724D02*
X13179481Y-12246318D01*
X13179481Y-12246318D02*
X13159278Y-12185709D01*
X13159278Y-12185709D02*
X12997653Y-12024084D01*
X13159278Y-12630176D02*
X13421917Y-12892816D01*
X13421917Y-12892816D02*
X13442120Y-12589770D01*
X13442120Y-12589770D02*
X13502730Y-12650379D01*
X13502730Y-12650379D02*
X13563339Y-12670582D01*
X13563339Y-12670582D02*
X13603745Y-12670582D01*
X13603745Y-12670582D02*
X13664354Y-12650379D01*
X13664354Y-12650379D02*
X13765369Y-12549364D01*
X13765369Y-12549364D02*
X13785572Y-12488755D01*
X13785572Y-12488755D02*
X13785572Y-12448349D01*
X13785572Y-12448349D02*
X13765369Y-12387739D01*
X13765369Y-12387739D02*
X13644151Y-12266521D01*
X13644151Y-12266521D02*
X13583542Y-12246318D01*
X13583542Y-12246318D02*
X13543136Y-12246318D01*
X8168915Y-5329192D02*
X8189118Y-5268583D01*
X8189118Y-5268583D02*
X8249727Y-5207974D01*
X8249727Y-5207974D02*
X8330539Y-5167568D01*
X8330539Y-5167568D02*
X8411351Y-5167568D01*
X8411351Y-5167568D02*
X8471960Y-5187771D01*
X8471960Y-5187771D02*
X8572976Y-5248380D01*
X8572976Y-5248380D02*
X8633585Y-5308989D01*
X8633585Y-5308989D02*
X8694194Y-5410004D01*
X8694194Y-5410004D02*
X8714397Y-5470614D01*
X8714397Y-5470614D02*
X8714397Y-5551426D01*
X8714397Y-5551426D02*
X8673991Y-5632238D01*
X8673991Y-5632238D02*
X8633585Y-5672644D01*
X8633585Y-5672644D02*
X8552772Y-5713050D01*
X8552772Y-5713050D02*
X8512366Y-5713050D01*
X8512366Y-5713050D02*
X8370945Y-5571629D01*
X8370945Y-5571629D02*
X8451757Y-5490817D01*
X8370945Y-5935284D02*
X7946681Y-5511020D01*
X7946681Y-5511020D02*
X7785057Y-5672644D01*
X7785057Y-5672644D02*
X7764854Y-5733253D01*
X7764854Y-5733253D02*
X7764854Y-5773659D01*
X7764854Y-5773659D02*
X7785057Y-5834269D01*
X7785057Y-5834269D02*
X7845666Y-5894878D01*
X7845666Y-5894878D02*
X7906275Y-5915081D01*
X7906275Y-5915081D02*
X7946681Y-5915081D01*
X7946681Y-5915081D02*
X8007290Y-5894878D01*
X8007290Y-5894878D02*
X8168915Y-5733253D01*
X7583026Y-5955487D02*
X7542620Y-5955487D01*
X7542620Y-5955487D02*
X7482011Y-5975690D01*
X7482011Y-5975690D02*
X7380996Y-6076705D01*
X7380996Y-6076705D02*
X7360792Y-6137314D01*
X7360792Y-6137314D02*
X7360792Y-6177720D01*
X7360792Y-6177720D02*
X7380996Y-6238330D01*
X7380996Y-6238330D02*
X7421402Y-6278736D01*
X7421402Y-6278736D02*
X7502214Y-6319142D01*
X7502214Y-6319142D02*
X7987087Y-6319142D01*
X7987087Y-6319142D02*
X7724447Y-6581781D01*
X7178965Y-6359548D02*
X7138559Y-6359548D01*
X7138559Y-6359548D02*
X7077949Y-6379751D01*
X7077949Y-6379751D02*
X6976934Y-6480766D01*
X6976934Y-6480766D02*
X6956731Y-6541376D01*
X6956731Y-6541376D02*
X6956731Y-6581782D01*
X6956731Y-6581782D02*
X6976934Y-6642391D01*
X6976934Y-6642391D02*
X7017340Y-6682797D01*
X7017340Y-6682797D02*
X7098153Y-6723203D01*
X7098153Y-6723203D02*
X7583026Y-6723203D01*
X7583026Y-6723203D02*
X7320386Y-6985843D01*
X345715Y-5608592D02*
X365918Y-5547983D01*
X365918Y-5547983D02*
X426527Y-5487374D01*
X426527Y-5487374D02*
X507339Y-5446968D01*
X507339Y-5446968D02*
X588151Y-5446968D01*
X588151Y-5446968D02*
X648760Y-5467171D01*
X648760Y-5467171D02*
X749776Y-5527780D01*
X749776Y-5527780D02*
X810385Y-5588389D01*
X810385Y-5588389D02*
X870994Y-5689404D01*
X870994Y-5689404D02*
X891197Y-5750014D01*
X891197Y-5750014D02*
X891197Y-5830826D01*
X891197Y-5830826D02*
X850791Y-5911638D01*
X850791Y-5911638D02*
X810385Y-5952044D01*
X810385Y-5952044D02*
X729572Y-5992450D01*
X729572Y-5992450D02*
X689166Y-5992450D01*
X689166Y-5992450D02*
X547745Y-5851029D01*
X547745Y-5851029D02*
X628557Y-5770217D01*
X547745Y-6214684D02*
X123481Y-5790420D01*
X123481Y-5790420D02*
X-38143Y-5952044D01*
X-38143Y-5952044D02*
X-58346Y-6012653D01*
X-58346Y-6012653D02*
X-58346Y-6053059D01*
X-58346Y-6053059D02*
X-38143Y-6113669D01*
X-38143Y-6113669D02*
X22466Y-6174278D01*
X22466Y-6174278D02*
X83075Y-6194481D01*
X83075Y-6194481D02*
X123481Y-6194481D01*
X123481Y-6194481D02*
X184090Y-6174278D01*
X184090Y-6174278D02*
X345715Y-6012653D01*
X-240174Y-6234887D02*
X-280580Y-6234887D01*
X-280580Y-6234887D02*
X-341189Y-6255090D01*
X-341189Y-6255090D02*
X-442204Y-6356105D01*
X-442204Y-6356105D02*
X-462408Y-6416714D01*
X-462408Y-6416714D02*
X-462408Y-6457120D01*
X-462408Y-6457120D02*
X-442204Y-6517730D01*
X-442204Y-6517730D02*
X-401798Y-6558136D01*
X-401798Y-6558136D02*
X-320986Y-6598542D01*
X-320986Y-6598542D02*
X163887Y-6598542D01*
X163887Y-6598542D02*
X-98753Y-6861181D01*
X-745251Y-6941994D02*
X-462408Y-7224837D01*
X-805860Y-6679354D02*
X-401799Y-6881385D01*
X-401799Y-6881385D02*
X-664438Y-7144024D01*
X3204351Y-5579750D02*
X2941711Y-5842389D01*
X2941711Y-5842389D02*
X3244757Y-5862592D01*
X3244757Y-5862592D02*
X3184148Y-5923201D01*
X3184148Y-5923201D02*
X3163945Y-5983811D01*
X3163945Y-5983811D02*
X3163945Y-6024217D01*
X3163945Y-6024217D02*
X3184148Y-6084826D01*
X3184148Y-6084826D02*
X3285163Y-6185841D01*
X3285163Y-6185841D02*
X3345772Y-6206044D01*
X3345772Y-6206044D02*
X3386179Y-6206044D01*
X3386179Y-6206044D02*
X3446788Y-6185841D01*
X3446788Y-6185841D02*
X3568006Y-6064623D01*
X3568006Y-6064623D02*
X3588209Y-6004014D01*
X3588209Y-6004014D02*
X3588209Y-5963608D01*
X2820493Y-5963608D02*
X3103336Y-6529293D01*
X3103336Y-6529293D02*
X2537650Y-6246451D01*
X2436635Y-6347466D02*
X2173995Y-6610106D01*
X2173995Y-6610106D02*
X2477041Y-6630309D01*
X2477041Y-6630309D02*
X2416432Y-6690918D01*
X2416432Y-6690918D02*
X2396229Y-6751527D01*
X2396229Y-6751527D02*
X2396229Y-6791933D01*
X2396229Y-6791933D02*
X2416432Y-6852542D01*
X2416432Y-6852542D02*
X2517447Y-6953558D01*
X2517447Y-6953558D02*
X2578056Y-6973761D01*
X2578056Y-6973761D02*
X2618462Y-6973761D01*
X2618462Y-6973761D02*
X2679071Y-6953558D01*
X2679071Y-6953558D02*
X2800290Y-6832339D01*
X2800290Y-6832339D02*
X2820493Y-6771730D01*
X2820493Y-6771730D02*
X2820493Y-6731324D01*
X10761543Y-8893871D02*
X10390115Y-8893871D01*
X10390115Y-8893871D02*
X10590115Y-9122442D01*
X10590115Y-9122442D02*
X10504400Y-9122442D01*
X10504400Y-9122442D02*
X10447258Y-9151014D01*
X10447258Y-9151014D02*
X10418686Y-9179585D01*
X10418686Y-9179585D02*
X10390115Y-9236728D01*
X10390115Y-9236728D02*
X10390115Y-9379585D01*
X10390115Y-9379585D02*
X10418686Y-9436728D01*
X10418686Y-9436728D02*
X10447258Y-9465300D01*
X10447258Y-9465300D02*
X10504400Y-9493871D01*
X10504400Y-9493871D02*
X10675829Y-9493871D01*
X10675829Y-9493871D02*
X10732972Y-9465300D01*
X10732972Y-9465300D02*
X10761543Y-9436728D01*
X10218686Y-8893871D02*
X10018686Y-9493871D01*
X10018686Y-9493871D02*
X9818686Y-8893871D01*
X9675828Y-8893871D02*
X9304400Y-8893871D01*
X9304400Y-8893871D02*
X9504400Y-9122442D01*
X9504400Y-9122442D02*
X9418685Y-9122442D01*
X9418685Y-9122442D02*
X9361543Y-9151014D01*
X9361543Y-9151014D02*
X9332971Y-9179585D01*
X9332971Y-9179585D02*
X9304400Y-9236728D01*
X9304400Y-9236728D02*
X9304400Y-9379585D01*
X9304400Y-9379585D02*
X9332971Y-9436728D01*
X9332971Y-9436728D02*
X9361543Y-9465300D01*
X9361543Y-9465300D02*
X9418685Y-9493871D01*
X9418685Y-9493871D02*
X9590114Y-9493871D01*
X9590114Y-9493871D02*
X9647257Y-9465300D01*
X9647257Y-9465300D02*
X9675828Y-9436728D01*
X-11719285Y-5456192D02*
X-11699082Y-5395583D01*
X-11699082Y-5395583D02*
X-11638473Y-5334974D01*
X-11638473Y-5334974D02*
X-11557661Y-5294568D01*
X-11557661Y-5294568D02*
X-11476849Y-5294568D01*
X-11476849Y-5294568D02*
X-11416240Y-5314771D01*
X-11416240Y-5314771D02*
X-11315224Y-5375380D01*
X-11315224Y-5375380D02*
X-11254615Y-5435989D01*
X-11254615Y-5435989D02*
X-11194006Y-5537004D01*
X-11194006Y-5537004D02*
X-11173803Y-5597614D01*
X-11173803Y-5597614D02*
X-11173803Y-5678426D01*
X-11173803Y-5678426D02*
X-11214209Y-5759238D01*
X-11214209Y-5759238D02*
X-11254615Y-5799644D01*
X-11254615Y-5799644D02*
X-11335428Y-5840050D01*
X-11335428Y-5840050D02*
X-11375834Y-5840050D01*
X-11375834Y-5840050D02*
X-11517255Y-5698629D01*
X-11517255Y-5698629D02*
X-11436443Y-5617817D01*
X-11517255Y-6062284D02*
X-11941519Y-5638020D01*
X-11941519Y-5638020D02*
X-12103143Y-5799644D01*
X-12103143Y-5799644D02*
X-12123346Y-5860253D01*
X-12123346Y-5860253D02*
X-12123346Y-5900659D01*
X-12123346Y-5900659D02*
X-12103143Y-5961269D01*
X-12103143Y-5961269D02*
X-12042534Y-6021878D01*
X-12042534Y-6021878D02*
X-11981925Y-6042081D01*
X-11981925Y-6042081D02*
X-11941519Y-6042081D01*
X-11941519Y-6042081D02*
X-11880910Y-6021878D01*
X-11880910Y-6021878D02*
X-11719285Y-5860253D01*
X-12163753Y-6708781D02*
X-11921316Y-6466345D01*
X-12042534Y-6587563D02*
X-12466798Y-6163299D01*
X-12466798Y-6163299D02*
X-12365783Y-6183502D01*
X-12365783Y-6183502D02*
X-12284971Y-6183502D01*
X-12284971Y-6183502D02*
X-12224362Y-6163299D01*
X-12951672Y-6648173D02*
X-12870860Y-6567360D01*
X-12870860Y-6567360D02*
X-12810251Y-6547157D01*
X-12810251Y-6547157D02*
X-12769844Y-6547157D01*
X-12769844Y-6547157D02*
X-12668829Y-6567360D01*
X-12668829Y-6567360D02*
X-12567814Y-6627970D01*
X-12567814Y-6627970D02*
X-12406190Y-6789594D01*
X-12406190Y-6789594D02*
X-12385986Y-6850203D01*
X-12385986Y-6850203D02*
X-12385986Y-6890609D01*
X-12385986Y-6890609D02*
X-12406190Y-6951218D01*
X-12406190Y-6951218D02*
X-12487002Y-7032031D01*
X-12487002Y-7032031D02*
X-12547611Y-7052234D01*
X-12547611Y-7052234D02*
X-12588017Y-7052234D01*
X-12588017Y-7052234D02*
X-12648626Y-7032031D01*
X-12648626Y-7032031D02*
X-12749641Y-6931015D01*
X-12749641Y-6931015D02*
X-12769844Y-6870406D01*
X-12769844Y-6870406D02*
X-12769844Y-6830000D01*
X-12769844Y-6830000D02*
X-12749641Y-6769391D01*
X-12749641Y-6769391D02*
X-12668829Y-6688579D01*
X-12668829Y-6688579D02*
X-12608220Y-6668376D01*
X-12608220Y-6668376D02*
X-12567814Y-6668376D01*
X-12567814Y-6668376D02*
X-12507205Y-6688579D01*
X9977392Y-11998684D02*
X9916783Y-11978481D01*
X9916783Y-11978481D02*
X9856174Y-11917872D01*
X9856174Y-11917872D02*
X9815768Y-11837060D01*
X9815768Y-11837060D02*
X9815768Y-11756248D01*
X9815768Y-11756248D02*
X9835971Y-11695639D01*
X9835971Y-11695639D02*
X9896580Y-11594623D01*
X9896580Y-11594623D02*
X9957189Y-11534014D01*
X9957189Y-11534014D02*
X10058204Y-11473405D01*
X10058204Y-11473405D02*
X10118814Y-11453202D01*
X10118814Y-11453202D02*
X10199626Y-11453202D01*
X10199626Y-11453202D02*
X10280438Y-11493608D01*
X10280438Y-11493608D02*
X10320844Y-11534014D01*
X10320844Y-11534014D02*
X10361250Y-11614827D01*
X10361250Y-11614827D02*
X10361250Y-11655233D01*
X10361250Y-11655233D02*
X10219829Y-11796654D01*
X10219829Y-11796654D02*
X10139017Y-11715842D01*
X10583484Y-11796654D02*
X10159220Y-12220918D01*
X10159220Y-12220918D02*
X10825920Y-12039091D01*
X10825920Y-12039091D02*
X10401656Y-12463355D01*
X11027951Y-12241121D02*
X10603687Y-12665385D01*
X10603687Y-12665385D02*
X10704702Y-12766400D01*
X10704702Y-12766400D02*
X10785514Y-12806806D01*
X10785514Y-12806806D02*
X10866326Y-12806806D01*
X10866326Y-12806806D02*
X10926935Y-12786603D01*
X10926935Y-12786603D02*
X11027951Y-12725994D01*
X11027951Y-12725994D02*
X11088560Y-12665385D01*
X11088560Y-12665385D02*
X11149169Y-12564370D01*
X11149169Y-12564370D02*
X11169372Y-12503760D01*
X11169372Y-12503760D02*
X11169372Y-12422948D01*
X11169372Y-12422948D02*
X11128966Y-12342136D01*
X11128966Y-12342136D02*
X11027951Y-12241121D01*
D10*
X-15614210Y7975524D02*
X-15652305Y8051714D01*
X-15652305Y8051714D02*
X-15652305Y8166000D01*
X-15652305Y8166000D02*
X-15614210Y8280286D01*
X-15614210Y8280286D02*
X-15538020Y8356476D01*
X-15538020Y8356476D02*
X-15461829Y8394571D01*
X-15461829Y8394571D02*
X-15309448Y8432667D01*
X-15309448Y8432667D02*
X-15195162Y8432667D01*
X-15195162Y8432667D02*
X-15042781Y8394571D01*
X-15042781Y8394571D02*
X-14966591Y8356476D01*
X-14966591Y8356476D02*
X-14890400Y8280286D01*
X-14890400Y8280286D02*
X-14852305Y8166000D01*
X-14852305Y8166000D02*
X-14852305Y8089809D01*
X-14852305Y8089809D02*
X-14890400Y7975524D01*
X-14890400Y7975524D02*
X-14928496Y7937428D01*
X-14928496Y7937428D02*
X-15195162Y7937428D01*
X-15195162Y7937428D02*
X-15195162Y8089809D01*
X-14852305Y7594571D02*
X-15652305Y7594571D01*
X-15652305Y7594571D02*
X-14852305Y7137428D01*
X-14852305Y7137428D02*
X-15652305Y7137428D01*
X-14852305Y6756476D02*
X-15652305Y6756476D01*
X-15652305Y6756476D02*
X-15652305Y6566000D01*
X-15652305Y6566000D02*
X-15614210Y6451714D01*
X-15614210Y6451714D02*
X-15538020Y6375524D01*
X-15538020Y6375524D02*
X-15461829Y6337429D01*
X-15461829Y6337429D02*
X-15309448Y6299333D01*
X-15309448Y6299333D02*
X-15195162Y6299333D01*
X-15195162Y6299333D02*
X-15042781Y6337429D01*
X-15042781Y6337429D02*
X-14966591Y6375524D01*
X-14966591Y6375524D02*
X-14890400Y6451714D01*
X-14890400Y6451714D02*
X-14852305Y6566000D01*
X-14852305Y6566000D02*
X-14852305Y6756476D01*
D11*
X14955792Y-12024084D02*
X14895183Y-12003881D01*
X14895183Y-12003881D02*
X14834574Y-11943272D01*
X14834574Y-11943272D02*
X14794168Y-11862460D01*
X14794168Y-11862460D02*
X14794168Y-11781648D01*
X14794168Y-11781648D02*
X14814371Y-11721039D01*
X14814371Y-11721039D02*
X14874980Y-11620023D01*
X14874980Y-11620023D02*
X14935589Y-11559414D01*
X14935589Y-11559414D02*
X15036604Y-11498805D01*
X15036604Y-11498805D02*
X15097214Y-11478602D01*
X15097214Y-11478602D02*
X15178026Y-11478602D01*
X15178026Y-11478602D02*
X15258838Y-11519008D01*
X15258838Y-11519008D02*
X15299244Y-11559414D01*
X15299244Y-11559414D02*
X15339650Y-11640227D01*
X15339650Y-11640227D02*
X15339650Y-11680633D01*
X15339650Y-11680633D02*
X15198229Y-11822054D01*
X15198229Y-11822054D02*
X15117417Y-11741242D01*
X15561884Y-11822054D02*
X15137620Y-12246318D01*
X15137620Y-12246318D02*
X15299244Y-12407942D01*
X15299244Y-12407942D02*
X15359853Y-12428145D01*
X15359853Y-12428145D02*
X15400259Y-12428145D01*
X15400259Y-12428145D02*
X15460869Y-12407942D01*
X15460869Y-12407942D02*
X15521478Y-12347333D01*
X15521478Y-12347333D02*
X15541681Y-12286724D01*
X15541681Y-12286724D02*
X15541681Y-12246318D01*
X15541681Y-12246318D02*
X15521478Y-12185709D01*
X15521478Y-12185709D02*
X15359853Y-12024084D01*
X16208381Y-12468552D02*
X15965945Y-12226115D01*
X16087163Y-12347333D02*
X15662899Y-12771597D01*
X15662899Y-12771597D02*
X15683102Y-12670582D01*
X15683102Y-12670582D02*
X15683102Y-12589770D01*
X15683102Y-12589770D02*
X15662899Y-12529161D01*
X-9280885Y-5354592D02*
X-9260682Y-5293983D01*
X-9260682Y-5293983D02*
X-9200073Y-5233374D01*
X-9200073Y-5233374D02*
X-9119261Y-5192968D01*
X-9119261Y-5192968D02*
X-9038449Y-5192968D01*
X-9038449Y-5192968D02*
X-8977840Y-5213171D01*
X-8977840Y-5213171D02*
X-8876824Y-5273780D01*
X-8876824Y-5273780D02*
X-8816215Y-5334389D01*
X-8816215Y-5334389D02*
X-8755606Y-5435404D01*
X-8755606Y-5435404D02*
X-8735403Y-5496014D01*
X-8735403Y-5496014D02*
X-8735403Y-5576826D01*
X-8735403Y-5576826D02*
X-8775809Y-5657638D01*
X-8775809Y-5657638D02*
X-8816215Y-5698044D01*
X-8816215Y-5698044D02*
X-8897028Y-5738450D01*
X-8897028Y-5738450D02*
X-8937434Y-5738450D01*
X-8937434Y-5738450D02*
X-9078855Y-5597029D01*
X-9078855Y-5597029D02*
X-8998043Y-5516217D01*
X-9078855Y-5960684D02*
X-9503119Y-5536420D01*
X-9503119Y-5536420D02*
X-9664743Y-5698044D01*
X-9664743Y-5698044D02*
X-9684946Y-5758653D01*
X-9684946Y-5758653D02*
X-9684946Y-5799059D01*
X-9684946Y-5799059D02*
X-9664743Y-5859669D01*
X-9664743Y-5859669D02*
X-9604134Y-5920278D01*
X-9604134Y-5920278D02*
X-9543525Y-5940481D01*
X-9543525Y-5940481D02*
X-9503119Y-5940481D01*
X-9503119Y-5940481D02*
X-9442510Y-5920278D01*
X-9442510Y-5920278D02*
X-9280885Y-5758653D01*
X-9725353Y-6607181D02*
X-9482916Y-6364745D01*
X-9604134Y-6485963D02*
X-10028398Y-6061699D01*
X-10028398Y-6061699D02*
X-9927383Y-6081902D01*
X-9927383Y-6081902D02*
X-9846571Y-6081902D01*
X-9846571Y-6081902D02*
X-9785962Y-6061699D01*
X-10533475Y-6566776D02*
X-10331444Y-6364745D01*
X-10331444Y-6364745D02*
X-10109211Y-6546573D01*
X-10109211Y-6546573D02*
X-10149617Y-6546573D01*
X-10149617Y-6546573D02*
X-10210226Y-6566776D01*
X-10210226Y-6566776D02*
X-10311241Y-6667791D01*
X-10311241Y-6667791D02*
X-10331444Y-6728400D01*
X-10331444Y-6728400D02*
X-10331444Y-6768806D01*
X-10331444Y-6768806D02*
X-10311241Y-6829415D01*
X-10311241Y-6829415D02*
X-10210226Y-6930431D01*
X-10210226Y-6930431D02*
X-10149617Y-6950634D01*
X-10149617Y-6950634D02*
X-10109211Y-6950634D01*
X-10109211Y-6950634D02*
X-10048602Y-6930431D01*
X-10048602Y-6930431D02*
X-9947586Y-6829415D01*
X-9947586Y-6829415D02*
X-9927383Y-6768806D01*
X-9927383Y-6768806D02*
X-9927383Y-6728400D01*
X-17643386Y-11473990D02*
X-17562574Y-11514396D01*
X-17562574Y-11514396D02*
X-17461559Y-11615411D01*
X-17461559Y-11615411D02*
X-17441356Y-11676020D01*
X-17441356Y-11676020D02*
X-17441356Y-11716427D01*
X-17441356Y-11716427D02*
X-17461559Y-11777036D01*
X-17461559Y-11777036D02*
X-17501965Y-11817442D01*
X-17501965Y-11817442D02*
X-17562574Y-11837645D01*
X-17562574Y-11837645D02*
X-17602980Y-11837645D01*
X-17602980Y-11837645D02*
X-17663589Y-11817442D01*
X-17663589Y-11817442D02*
X-17764605Y-11756833D01*
X-17764605Y-11756833D02*
X-17825214Y-11736630D01*
X-17825214Y-11736630D02*
X-17865620Y-11736630D01*
X-17865620Y-11736630D02*
X-17926229Y-11756833D01*
X-17926229Y-11756833D02*
X-17966635Y-11797239D01*
X-17966635Y-11797239D02*
X-17986838Y-11857848D01*
X-17986838Y-11857848D02*
X-17986838Y-11898254D01*
X-17986838Y-11898254D02*
X-17966635Y-11958863D01*
X-17966635Y-11958863D02*
X-17865620Y-12059878D01*
X-17865620Y-12059878D02*
X-17784808Y-12100284D01*
X-17663589Y-12261909D02*
X-17138310Y-11938660D01*
X-17138310Y-11938660D02*
X-17360543Y-12322518D01*
X-17360543Y-12322518D02*
X-16976685Y-12100285D01*
X-16976685Y-12100285D02*
X-17299934Y-12625564D01*
X-16512015Y-12645767D02*
X-16512015Y-12605361D01*
X-16512015Y-12605361D02*
X-16552422Y-12524549D01*
X-16552422Y-12524549D02*
X-16592828Y-12484143D01*
X-16592828Y-12484143D02*
X-16673640Y-12443736D01*
X-16673640Y-12443736D02*
X-16754452Y-12443736D01*
X-16754452Y-12443736D02*
X-16815061Y-12463939D01*
X-16815061Y-12463939D02*
X-16916076Y-12524549D01*
X-16916076Y-12524549D02*
X-16976686Y-12585158D01*
X-16976686Y-12585158D02*
X-17037295Y-12686173D01*
X-17037295Y-12686173D02*
X-17057498Y-12746782D01*
X-17057498Y-12746782D02*
X-17057498Y-12827594D01*
X-17057498Y-12827594D02*
X-17017092Y-12908407D01*
X-17017092Y-12908407D02*
X-16976686Y-12948813D01*
X-16976686Y-12948813D02*
X-16895873Y-12989219D01*
X-16895873Y-12989219D02*
X-16855467Y-12989219D01*
X-16087751Y-12989219D02*
X-16289782Y-12787188D01*
X-16289782Y-12787188D02*
X-16714046Y-13211452D01*
X-15946330Y-13130640D02*
X-16370594Y-13554904D01*
X-15703894Y-13373077D02*
X-16128158Y-13433686D01*
X-16128158Y-13797341D02*
X-16128158Y-13312467D01*
D10*
X-26413008Y13618410D02*
X-26336818Y13656505D01*
X-26336818Y13656505D02*
X-26222532Y13656505D01*
X-26222532Y13656505D02*
X-26108246Y13618410D01*
X-26108246Y13618410D02*
X-26032056Y13542220D01*
X-26032056Y13542220D02*
X-25993961Y13466029D01*
X-25993961Y13466029D02*
X-25955865Y13313648D01*
X-25955865Y13313648D02*
X-25955865Y13199362D01*
X-25955865Y13199362D02*
X-25993961Y13046981D01*
X-25993961Y13046981D02*
X-26032056Y12970791D01*
X-26032056Y12970791D02*
X-26108246Y12894600D01*
X-26108246Y12894600D02*
X-26222532Y12856505D01*
X-26222532Y12856505D02*
X-26298723Y12856505D01*
X-26298723Y12856505D02*
X-26413008Y12894600D01*
X-26413008Y12894600D02*
X-26451104Y12932696D01*
X-26451104Y12932696D02*
X-26451104Y13199362D01*
X-26451104Y13199362D02*
X-26298723Y13199362D01*
X-26793961Y12856505D02*
X-26793961Y13656505D01*
X-26793961Y13656505D02*
X-27251104Y12856505D01*
X-27251104Y12856505D02*
X-27251104Y13656505D01*
X-27632056Y12856505D02*
X-27632056Y13656505D01*
X-27632056Y13656505D02*
X-27822532Y13656505D01*
X-27822532Y13656505D02*
X-27936818Y13618410D01*
X-27936818Y13618410D02*
X-28013008Y13542220D01*
X-28013008Y13542220D02*
X-28051103Y13466029D01*
X-28051103Y13466029D02*
X-28089199Y13313648D01*
X-28089199Y13313648D02*
X-28089199Y13199362D01*
X-28089199Y13199362D02*
X-28051103Y13046981D01*
X-28051103Y13046981D02*
X-28013008Y12970791D01*
X-28013008Y12970791D02*
X-27936818Y12894600D01*
X-27936818Y12894600D02*
X-27822532Y12856505D01*
X-27822532Y12856505D02*
X-27632056Y12856505D01*
D11*
X-106408Y-12100284D02*
X-167017Y-12080081D01*
X-167017Y-12080081D02*
X-227626Y-12019472D01*
X-227626Y-12019472D02*
X-268032Y-11938660D01*
X-268032Y-11938660D02*
X-268032Y-11857848D01*
X-268032Y-11857848D02*
X-247829Y-11797239D01*
X-247829Y-11797239D02*
X-187220Y-11696223D01*
X-187220Y-11696223D02*
X-126611Y-11635614D01*
X-126611Y-11635614D02*
X-25596Y-11575005D01*
X-25596Y-11575005D02*
X35014Y-11554802D01*
X35014Y-11554802D02*
X115826Y-11554802D01*
X115826Y-11554802D02*
X196638Y-11595208D01*
X196638Y-11595208D02*
X237044Y-11635614D01*
X237044Y-11635614D02*
X277450Y-11716427D01*
X277450Y-11716427D02*
X277450Y-11756833D01*
X277450Y-11756833D02*
X136029Y-11898254D01*
X136029Y-11898254D02*
X55217Y-11817442D01*
X499684Y-11898254D02*
X75420Y-12322518D01*
X75420Y-12322518D02*
X237044Y-12484142D01*
X237044Y-12484142D02*
X297653Y-12504345D01*
X297653Y-12504345D02*
X338059Y-12504345D01*
X338059Y-12504345D02*
X398669Y-12484142D01*
X398669Y-12484142D02*
X459278Y-12423533D01*
X459278Y-12423533D02*
X479481Y-12362924D01*
X479481Y-12362924D02*
X479481Y-12322518D01*
X479481Y-12322518D02*
X459278Y-12261909D01*
X459278Y-12261909D02*
X297653Y-12100284D01*
X519887Y-12686173D02*
X519887Y-12726579D01*
X519887Y-12726579D02*
X540090Y-12787188D01*
X540090Y-12787188D02*
X641105Y-12888203D01*
X641105Y-12888203D02*
X701714Y-12908407D01*
X701714Y-12908407D02*
X742120Y-12908407D01*
X742120Y-12908407D02*
X802730Y-12888203D01*
X802730Y-12888203D02*
X843136Y-12847797D01*
X843136Y-12847797D02*
X883542Y-12766985D01*
X883542Y-12766985D02*
X883542Y-12282112D01*
X883542Y-12282112D02*
X1146181Y-12544752D01*
X863339Y-13110437D02*
X1125979Y-13373077D01*
X1125979Y-13373077D02*
X1146182Y-13070031D01*
X1146182Y-13070031D02*
X1206791Y-13130640D01*
X1206791Y-13130640D02*
X1267400Y-13150843D01*
X1267400Y-13150843D02*
X1307806Y-13150843D01*
X1307806Y-13150843D02*
X1368415Y-13130640D01*
X1368415Y-13130640D02*
X1469431Y-13029625D01*
X1469431Y-13029625D02*
X1489634Y-12969016D01*
X1489634Y-12969016D02*
X1489634Y-12928610D01*
X1489634Y-12928610D02*
X1469431Y-12868001D01*
X1469431Y-12868001D02*
X1348212Y-12746782D01*
X1348212Y-12746782D02*
X1287603Y-12726579D01*
X1287603Y-12726579D02*
X1247197Y-12726579D01*
D10*
X29553441Y-3248929D02*
X29638066Y-3239190D01*
X29638066Y-3239190D02*
X29745459Y-3278278D01*
X29745459Y-3278278D02*
X29839823Y-3353164D01*
X29839823Y-3353164D02*
X29885360Y-3450818D01*
X29885360Y-3450818D02*
X29895099Y-3535443D01*
X29895099Y-3535443D02*
X29878780Y-3691664D01*
X29878780Y-3691664D02*
X29839692Y-3799057D01*
X29839692Y-3799057D02*
X29751777Y-3929219D01*
X29751777Y-3929219D02*
X29689920Y-3987786D01*
X29689920Y-3987786D02*
X29592266Y-4033323D01*
X29592266Y-4033323D02*
X29471843Y-4030032D01*
X29471843Y-4030032D02*
X29400248Y-4003974D01*
X29400248Y-4003974D02*
X29305883Y-3929088D01*
X29305883Y-3929088D02*
X29283115Y-3880261D01*
X29283115Y-3880261D02*
X29374320Y-3629676D01*
X29374320Y-3629676D02*
X29517512Y-3681793D01*
X28934876Y-3834592D02*
X29208492Y-3082838D01*
X29208492Y-3082838D02*
X28922110Y-2978603D01*
X28922110Y-2978603D02*
X28837485Y-2988343D01*
X28837485Y-2988343D02*
X28788657Y-3011111D01*
X28788657Y-3011111D02*
X28726801Y-3069677D01*
X28726801Y-3069677D02*
X28687713Y-3177071D01*
X28687713Y-3177071D02*
X28697452Y-3261696D01*
X28697452Y-3261696D02*
X28720221Y-3310523D01*
X28720221Y-3310523D02*
X28778787Y-3372379D01*
X28778787Y-3372379D02*
X29065169Y-3476614D01*
X28528334Y-2835281D02*
X28062962Y-2665899D01*
X28062962Y-2665899D02*
X28209312Y-3043487D01*
X28209312Y-3043487D02*
X28101919Y-3004399D01*
X28101919Y-3004399D02*
X28017294Y-3014138D01*
X28017294Y-3014138D02*
X27968466Y-3036907D01*
X27968466Y-3036907D02*
X27906610Y-3095473D01*
X27906610Y-3095473D02*
X27841463Y-3274462D01*
X27841463Y-3274462D02*
X27851202Y-3359087D01*
X27851202Y-3359087D02*
X27873971Y-3407914D01*
X27873971Y-3407914D02*
X27932537Y-3469771D01*
X27932537Y-3469771D02*
X28147324Y-3547947D01*
X28147324Y-3547947D02*
X28231949Y-3538208D01*
X28231949Y-3538208D02*
X28280776Y-3515439D01*
D11*
X-7452085Y-5532392D02*
X-7431882Y-5471783D01*
X-7431882Y-5471783D02*
X-7371273Y-5411174D01*
X-7371273Y-5411174D02*
X-7290461Y-5370768D01*
X-7290461Y-5370768D02*
X-7209649Y-5370768D01*
X-7209649Y-5370768D02*
X-7149040Y-5390971D01*
X-7149040Y-5390971D02*
X-7048024Y-5451580D01*
X-7048024Y-5451580D02*
X-6987415Y-5512189D01*
X-6987415Y-5512189D02*
X-6926806Y-5613204D01*
X-6926806Y-5613204D02*
X-6906603Y-5673814D01*
X-6906603Y-5673814D02*
X-6906603Y-5754626D01*
X-6906603Y-5754626D02*
X-6947009Y-5835438D01*
X-6947009Y-5835438D02*
X-6987415Y-5875844D01*
X-6987415Y-5875844D02*
X-7068228Y-5916250D01*
X-7068228Y-5916250D02*
X-7108634Y-5916250D01*
X-7108634Y-5916250D02*
X-7250055Y-5774829D01*
X-7250055Y-5774829D02*
X-7169243Y-5694017D01*
X-7250055Y-6138484D02*
X-7674319Y-5714220D01*
X-7674319Y-5714220D02*
X-7835943Y-5875844D01*
X-7835943Y-5875844D02*
X-7856146Y-5936453D01*
X-7856146Y-5936453D02*
X-7856146Y-5976859D01*
X-7856146Y-5976859D02*
X-7835943Y-6037469D01*
X-7835943Y-6037469D02*
X-7775334Y-6098078D01*
X-7775334Y-6098078D02*
X-7714725Y-6118281D01*
X-7714725Y-6118281D02*
X-7674319Y-6118281D01*
X-7674319Y-6118281D02*
X-7613710Y-6098078D01*
X-7613710Y-6098078D02*
X-7452085Y-5936453D01*
X-8037974Y-6158687D02*
X-8078380Y-6158687D01*
X-8078380Y-6158687D02*
X-8138989Y-6178890D01*
X-8138989Y-6178890D02*
X-8240004Y-6279905D01*
X-8240004Y-6279905D02*
X-8260208Y-6340514D01*
X-8260208Y-6340514D02*
X-8260208Y-6380920D01*
X-8260208Y-6380920D02*
X-8240004Y-6441530D01*
X-8240004Y-6441530D02*
X-8199598Y-6481936D01*
X-8199598Y-6481936D02*
X-8118786Y-6522342D01*
X-8118786Y-6522342D02*
X-7633913Y-6522342D01*
X-7633913Y-6522342D02*
X-7896553Y-6784981D01*
X-8381426Y-6784982D02*
X-8361223Y-6724373D01*
X-8361223Y-6724373D02*
X-8361223Y-6683966D01*
X-8361223Y-6683966D02*
X-8381426Y-6623357D01*
X-8381426Y-6623357D02*
X-8401629Y-6603154D01*
X-8401629Y-6603154D02*
X-8462238Y-6582951D01*
X-8462238Y-6582951D02*
X-8502644Y-6582951D01*
X-8502644Y-6582951D02*
X-8563254Y-6603154D01*
X-8563254Y-6603154D02*
X-8644066Y-6683966D01*
X-8644066Y-6683966D02*
X-8664269Y-6744576D01*
X-8664269Y-6744576D02*
X-8664269Y-6784982D01*
X-8664269Y-6784982D02*
X-8644066Y-6845591D01*
X-8644066Y-6845591D02*
X-8623863Y-6865794D01*
X-8623863Y-6865794D02*
X-8563254Y-6885997D01*
X-8563254Y-6885997D02*
X-8522847Y-6885997D01*
X-8522847Y-6885997D02*
X-8462238Y-6865794D01*
X-8462238Y-6865794D02*
X-8381426Y-6784982D01*
X-8381426Y-6784982D02*
X-8320817Y-6764779D01*
X-8320817Y-6764779D02*
X-8280411Y-6764779D01*
X-8280411Y-6764779D02*
X-8219802Y-6784982D01*
X-8219802Y-6784982D02*
X-8138990Y-6865794D01*
X-8138990Y-6865794D02*
X-8118786Y-6926403D01*
X-8118786Y-6926403D02*
X-8118786Y-6966809D01*
X-8118786Y-6966809D02*
X-8138990Y-7027418D01*
X-8138990Y-7027418D02*
X-8219802Y-7108231D01*
X-8219802Y-7108231D02*
X-8280411Y-7128434D01*
X-8280411Y-7128434D02*
X-8320817Y-7128434D01*
X-8320817Y-7128434D02*
X-8381426Y-7108231D01*
X-8381426Y-7108231D02*
X-8462238Y-7027418D01*
X-8462238Y-7027418D02*
X-8482441Y-6966809D01*
X-8482441Y-6966809D02*
X-8482441Y-6926403D01*
X-8482441Y-6926403D02*
X-8462238Y-6865794D01*
D12*
%TO.C,R305*%
X21937258Y-7227500D02*
X21462742Y-7227500D01*
X21937258Y-8272500D02*
X21462742Y-8272500D01*
%TO.C,C104*%
X-2792164Y5660000D02*
X-3007836Y5660000D01*
X-2792164Y4940000D02*
X-3007836Y4940000D01*
%TO.C,C111*%
X7740581Y5510000D02*
X7459419Y5510000D01*
X7740581Y4490000D02*
X7459419Y4490000D01*
%TO.C,C113*%
X7490580Y-590000D02*
X7209420Y-590000D01*
X7490580Y-1610000D02*
X7209420Y-1610000D01*
%TO.C,R202*%
X8162742Y14272500D02*
X8637258Y14272500D01*
X8162742Y13227500D02*
X8637258Y13227500D01*
%TO.C,U102*%
X10875000Y-875000D02*
X13600000Y-875000D01*
X10875000Y-1135000D02*
X10875000Y-875000D01*
X10875000Y-6065000D02*
X10875000Y-6325000D01*
X10875000Y-6325000D02*
X13600000Y-6325000D01*
X16325000Y-875000D02*
X13600000Y-875000D01*
X16325000Y-1135000D02*
X16325000Y-875000D01*
X16325000Y-6065000D02*
X16325000Y-6325000D01*
X16325000Y-6325000D02*
X13600000Y-6325000D01*
X10332500Y-6395000D02*
X9852500Y-6395000D01*
X10092500Y-6065000D01*
X10332500Y-6395000D01*
G36*
X10332500Y-6395000D02*
G01*
X9852500Y-6395000D01*
X10092500Y-6065000D01*
X10332500Y-6395000D01*
G37*
%TO.C,C105*%
X2740000Y5892164D02*
X2740000Y6107836D01*
X3460000Y5892164D02*
X3460000Y6107836D01*
%TO.C,R308*%
X19196500Y14412258D02*
X19196500Y13937742D01*
X20241500Y14412258D02*
X20241500Y13937742D01*
%TO.C,R201*%
X8162742Y15822500D02*
X8637258Y15822500D01*
X8162742Y14777500D02*
X8637258Y14777500D01*
%TO.C,R105*%
X-11572500Y1487258D02*
X-11572500Y1012742D01*
X-10527500Y1487258D02*
X-10527500Y1012742D01*
%TO.C,U101*%
X-3610000Y3610000D02*
X-3610000Y2960001D01*
X-3610000Y-3610000D02*
X-3610000Y-2960001D01*
X-2960001Y3610000D02*
X-3610000Y3610000D01*
X-2960001Y-3610000D02*
X-3610000Y-3610000D01*
X2960001Y3610000D02*
X3610000Y3610000D01*
X3370000Y-3610000D02*
X2960001Y-3610000D01*
X3610000Y3610000D02*
X3610000Y2960001D01*
X3610000Y-3310000D02*
X3610000Y-2960001D01*
X3940000Y-3850000D02*
X3610000Y-3610000D01*
X3940000Y-3370000D01*
X3940000Y-3850000D01*
G36*
X3940000Y-3850000D02*
G01*
X3610000Y-3610000D01*
X3940000Y-3370000D01*
X3940000Y-3850000D01*
G37*
%TO.C,R203*%
X7177500Y11237742D02*
X7177500Y11712258D01*
X8222500Y11237742D02*
X8222500Y11712258D01*
%TO.C,C115*%
X-9140580Y-2890000D02*
X-8859420Y-2890000D01*
X-9140580Y-3910000D02*
X-8859420Y-3910000D01*
%TO.C,C203*%
X8690000Y11615580D02*
X8690000Y11334420D01*
X9710000Y11615580D02*
X9710000Y11334420D01*
%TO.C,R103*%
X7112742Y972500D02*
X7587258Y972500D01*
X7112742Y-72500D02*
X7587258Y-72500D01*
%TO.C,R304*%
X-17662742Y-577500D02*
X-18137258Y-577500D01*
X-17662742Y-1622500D02*
X-18137258Y-1622500D01*
D13*
%TO.C,S101*%
X-12100000Y14450000D02*
X-12100000Y9950000D01*
X-10730000Y9650000D02*
X-8370000Y9650000D01*
X-8370000Y14750000D02*
X-10730000Y14750000D01*
X-7000000Y14450000D02*
X-7000000Y9950000D01*
D14*
X-11325000Y16450000D02*
G75*
G02*
X-11525000Y16450000I-100000J0D01*
G01*
X-11525000Y16450000D02*
G75*
G02*
X-11325000Y16450000I100000J0D01*
G01*
D12*
%TO.C,Y101*%
X-10150000Y2200000D02*
X-10150000Y-1100000D01*
X-6150000Y2200000D02*
X-10150000Y2200000D01*
%TO.C,J201*%
X-21710000Y9290000D02*
X-21710000Y13540000D01*
X-20690000Y10890000D02*
X-20690000Y9290000D01*
X-20690000Y9290000D02*
X-21710000Y9290000D01*
X-19410000Y10890000D02*
X-20690000Y10890000D01*
X-19410000Y8000000D02*
X-19410000Y10890000D01*
X-15890000Y10890000D02*
X-14610000Y10890000D01*
X-15310000Y17110000D02*
X-19990000Y17110000D01*
X-14610000Y10890000D02*
X-14610000Y9290000D01*
X-14610000Y9290000D02*
X-13590000Y9290000D01*
X-13590000Y9290000D02*
X-13590000Y13540000D01*
%TO.C,C109*%
X6207836Y-4065000D02*
X5992164Y-4065000D01*
X6207836Y-4785000D02*
X5992164Y-4785000D01*
%TO.C,R306*%
X21362742Y7122500D02*
X21837258Y7122500D01*
X21362742Y6077500D02*
X21837258Y6077500D01*
%TO.C,C107*%
X5240000Y3592164D02*
X5240000Y3807836D01*
X5960000Y3592164D02*
X5960000Y3807836D01*
%TO.C,R307*%
X20746900Y15987058D02*
X20746900Y15512542D01*
X21791900Y15987058D02*
X21791900Y15512542D01*
%TO.C,C201*%
X18111252Y10335000D02*
X17588748Y10335000D01*
X18111252Y8865000D02*
X17588748Y8865000D01*
%TO.C,C303*%
X19097580Y17021800D02*
X18816420Y17021800D01*
X19097580Y16001800D02*
X18816420Y16001800D01*
%TO.C,C110*%
X3690000Y5892164D02*
X3690000Y6107836D01*
X4410000Y5892164D02*
X4410000Y6107836D01*
%TO.C,C112*%
X7740581Y4010000D02*
X7459419Y4010000D01*
X7740581Y2990000D02*
X7459419Y2990000D01*
%TO.C,P201*%
X-4580000Y12155000D02*
X-4580000Y13565000D01*
X-3760000Y9635000D02*
X-3760000Y9485000D01*
X-3760000Y9485000D02*
X-2960000Y9485000D01*
X4580000Y12155000D02*
X4580000Y13565000D01*
%TO.C,C304*%
X17685000Y14034420D02*
X17685000Y14315580D01*
X18705000Y14034420D02*
X18705000Y14315580D01*
%TO.C,R101*%
X21462742Y-8827500D02*
X21937258Y-8827500D01*
X21462742Y-9872500D02*
X21937258Y-9872500D01*
%TO.C,C103*%
X-9140581Y-1390000D02*
X-8859419Y-1390000D01*
X-9140581Y-2410000D02*
X-8859419Y-2410000D01*
%TO.C,C108*%
X-3142164Y6610000D02*
X-3357836Y6610000D01*
X-3142164Y5890000D02*
X-3357836Y5890000D01*
%TO.C,C102*%
X-8659419Y3510000D02*
X-8940581Y3510000D01*
X-8659419Y2490000D02*
X-8940581Y2490000D01*
%TO.C,R102*%
X-17087258Y5472500D02*
X-16612742Y5472500D01*
X-17087258Y4427500D02*
X-16612742Y4427500D01*
%TO.C,U201*%
X11290000Y2240000D02*
X11290000Y6000000D01*
X12550000Y2240000D02*
X11290000Y2240000D01*
X16850000Y2240000D02*
X18110000Y2240000D01*
X18110000Y2240000D02*
X18110000Y6000000D01*
X11390000Y7280000D02*
X11060000Y7040000D01*
X11060000Y7520000D01*
X11390000Y7280000D01*
G36*
X11390000Y7280000D02*
G01*
X11060000Y7040000D01*
X11060000Y7520000D01*
X11390000Y7280000D01*
G37*
%TO.C,R303*%
X-17662742Y-2077500D02*
X-18137258Y-2077500D01*
X-17662742Y-3122500D02*
X-18137258Y-3122500D01*
%TO.C,C202*%
X13388748Y10285000D02*
X13911252Y10285000D01*
X13388748Y8815000D02*
X13911252Y8815000D01*
%TO.C,D201*%
X10100000Y11500000D02*
X10100000Y15510000D01*
X12100000Y15510000D02*
X10100000Y15510000D01*
X12100000Y11500000D02*
X12100000Y15510000D01*
%TO.C,U302*%
D15*
X17606192Y17232200D02*
G75*
G02*
X17329008Y17232200I-138592J0D01*
G01*
X17329008Y17232200D02*
G75*
G02*
X17606192Y17232200I138592J0D01*
G01*
D12*
%TO.C,D203*%
X-24400000Y9700000D02*
X-24400000Y13710000D01*
X-22400000Y13710000D02*
X-24400000Y13710000D01*
X-22400000Y9700000D02*
X-22400000Y13710000D01*
%TO.C,C106*%
X4240000Y2792164D02*
X4240000Y3007836D01*
X4960000Y2792164D02*
X4960000Y3007836D01*
%TO.C,C114*%
X-7260000Y-2509420D02*
X-7260000Y-2790580D01*
X-6240000Y-2509420D02*
X-6240000Y-2790580D01*
%TO.C,D202*%
X3580000Y7300000D02*
X2220000Y7300000D01*
X3585000Y9100000D02*
X2015000Y9100000D01*
X1900000Y7020000D02*
X1620000Y7300000D01*
X1900000Y7300000D01*
X1900000Y7020000D01*
G36*
X1900000Y7020000D02*
G01*
X1620000Y7300000D01*
X1900000Y7300000D01*
X1900000Y7020000D01*
G37*
%TO.C,R104*%
X7112742Y2472500D02*
X7587258Y2472500D01*
X7112742Y1427500D02*
X7587258Y1427500D01*
%TD*%
%LPC*%
D16*
%TO.C,A302*%
X-21200000Y2350000D03*
D17*
X-21200000Y-1450100D03*
%TD*%
D18*
%TO.C,J304*%
X17780000Y-10470000D03*
X17780000Y-7930000D03*
X15240000Y-10470000D03*
X15240000Y-7930000D03*
X12700000Y-10470000D03*
X12700000Y-7930000D03*
X10160000Y-10470000D03*
X10160000Y-7930000D03*
X7620000Y-10470000D03*
X7620000Y-7930000D03*
X5080000Y-10470000D03*
X5080000Y-7930000D03*
X2540000Y-10470000D03*
X2540000Y-7930000D03*
X0Y-10470000D03*
X0Y-7930000D03*
X-2540000Y-10470000D03*
X-2540000Y-7930000D03*
X-5080000Y-10470000D03*
X-5080000Y-7930000D03*
X-7620000Y-10470000D03*
X-7620000Y-7930000D03*
X-10160000Y-10470000D03*
X-10160000Y-7930000D03*
X-12700000Y-10580000D03*
X-12700000Y-8040000D03*
X-15240000Y-10470000D03*
X-15240000Y-7930000D03*
X-17780000Y-10470000D03*
X-17780000Y-7930000D03*
%TD*%
D19*
%TO.C,GP0*%
X28800000Y10600000D03*
%TD*%
D20*
%TO.C,VBUS301*%
X-28134019Y-11703993D03*
X-30448055Y-8946233D03*
%TD*%
D21*
%TO.C,A301*%
X-25350000Y-5308000D03*
D22*
X-21549900Y-5308000D03*
%TD*%
D23*
%TO.C,GP19*%
X26600000Y-13200000D03*
%TD*%
D24*
%TO.C,GND301*%
X-30832438Y7525526D03*
X-28767562Y10474474D03*
%TD*%
D25*
%TO.C,GP3*%
X32200000Y-4200000D03*
%TD*%
D26*
%TO.C,A304*%
X21600000Y75000D03*
D17*
X21600000Y3875100D03*
%TD*%
D27*
%TO.C,3V3*%
X-32900901Y-2600000D03*
X-32900901Y1000000D03*
%TD*%
D28*
%TO.C,GP1*%
X31400000Y6000000D03*
%TD*%
D29*
%TO.C,GP2*%
X32600000Y1000000D03*
%TD*%
D30*
%TO.C,A303*%
X25350000Y-5308000D03*
D22*
X21549900Y-5308000D03*
%TD*%
D31*
%TO.C,GP22*%
X30200000Y-9000000D03*
%TD*%
D32*
%TO.C,R305*%
X20875000Y-7750000D03*
X22525000Y-7750000D03*
%TD*%
D33*
%TO.C,C104*%
X-3380000Y5300000D03*
X-2420000Y5300000D03*
%TD*%
D34*
%TO.C,C111*%
X6825000Y5000000D03*
X8375000Y5000000D03*
%TD*%
%TO.C,C113*%
X6575000Y-1100000D03*
X8125000Y-1100000D03*
%TD*%
D35*
%TO.C,R202*%
X9225000Y13750000D03*
X7575000Y13750000D03*
%TD*%
D36*
%TO.C,U102*%
X10000000Y-5505000D03*
X10000000Y-4235000D03*
X10000000Y-2965000D03*
X10000000Y-1695000D03*
X17200000Y-1695000D03*
X17200000Y-2965000D03*
X17200000Y-4235000D03*
X17200000Y-5505000D03*
%TD*%
D37*
%TO.C,C105*%
X3100000Y6480000D03*
X3100000Y5520000D03*
%TD*%
D38*
%TO.C,R308*%
X19719000Y13350000D03*
X19719000Y15000000D03*
%TD*%
D35*
%TO.C,R201*%
X9225000Y15300000D03*
X7575000Y15300000D03*
%TD*%
D38*
%TO.C,R105*%
X-11050000Y425000D03*
X-11050000Y2075000D03*
%TD*%
D39*
%TO.C,U101*%
X2600000Y-3437500D03*
X2199999Y-3437500D03*
X1800000Y-3437500D03*
X1400000Y-3437500D03*
X1000000Y-3437500D03*
X600001Y-3437500D03*
X200000Y-3437500D03*
X-200000Y-3437500D03*
X-600001Y-3437500D03*
X-1000000Y-3437500D03*
X-1400000Y-3437500D03*
X-1800000Y-3437500D03*
X-2199999Y-3437500D03*
X-2600000Y-3437500D03*
D40*
X-3437500Y-2600000D03*
X-3437500Y-2199999D03*
X-3437500Y-1800000D03*
X-3437500Y-1400000D03*
X-3437500Y-1000000D03*
X-3437500Y-600001D03*
X-3437500Y-200000D03*
X-3437500Y200000D03*
X-3437500Y600001D03*
X-3437500Y1000000D03*
X-3437500Y1400000D03*
X-3437500Y1800000D03*
X-3437500Y2199999D03*
X-3437500Y2600000D03*
D39*
X-2600000Y3437500D03*
X-2199999Y3437500D03*
X-1800000Y3437500D03*
X-1400000Y3437500D03*
X-1000000Y3437500D03*
X-600001Y3437500D03*
X-200000Y3437500D03*
X200000Y3437500D03*
X600001Y3437500D03*
X1000000Y3437500D03*
X1400000Y3437500D03*
X1800000Y3437500D03*
X2199999Y3437500D03*
X2600000Y3437500D03*
D40*
X3437500Y2600000D03*
X3437500Y2199999D03*
X3437500Y1800000D03*
X3437500Y1400000D03*
X3437500Y1000000D03*
X3437500Y600001D03*
X3437500Y200000D03*
X3437500Y-200000D03*
X3437500Y-600001D03*
X3437500Y-1000000D03*
X3437500Y-1400000D03*
X3437500Y-1800000D03*
X3437500Y-2199999D03*
X3437500Y-2600000D03*
D41*
X0Y0D03*
%TD*%
D42*
%TO.C,R203*%
X7700000Y12300000D03*
X7700000Y10650000D03*
%TD*%
D43*
%TO.C,C115*%
X-8225000Y-3400000D03*
X-9775000Y-3400000D03*
%TD*%
D44*
%TO.C,C203*%
X9200000Y10700000D03*
X9200000Y12250000D03*
%TD*%
D35*
%TO.C,R103*%
X8175000Y450000D03*
X6525000Y450000D03*
%TD*%
D32*
%TO.C,R304*%
X-18725000Y-1100000D03*
X-17075000Y-1100000D03*
%TD*%
D45*
%TO.C,S101*%
X-11425000Y15200000D03*
X-11425000Y9200000D03*
X-7675000Y15200000D03*
X-7675000Y9200000D03*
%TD*%
D46*
%TO.C,Y101*%
X-9250000Y1400000D03*
X-7050000Y1400000D03*
X-7050000Y-300000D03*
X-9250000Y-300000D03*
%TD*%
D47*
%TO.C,J201*%
X-18650000Y9750000D03*
X-16650000Y9750000D03*
D48*
X-21000000Y15500000D03*
X-14300000Y15500000D03*
%TD*%
D33*
%TO.C,C109*%
X5620000Y-4425000D03*
X6580000Y-4425000D03*
%TD*%
D35*
%TO.C,R306*%
X22425000Y6600000D03*
X20775000Y6600000D03*
%TD*%
D37*
%TO.C,C107*%
X5600000Y4180000D03*
X5600000Y3220000D03*
%TD*%
D38*
%TO.C,R307*%
X21269400Y14924800D03*
X21269400Y16574800D03*
%TD*%
D49*
%TO.C,C201*%
X16900000Y9600000D03*
X18800000Y9600000D03*
%TD*%
D34*
%TO.C,C303*%
X18182000Y16511800D03*
X19732000Y16511800D03*
%TD*%
D37*
%TO.C,C110*%
X4050000Y6480000D03*
X4050000Y5520000D03*
%TD*%
D34*
%TO.C,C112*%
X6825000Y3500000D03*
X8375000Y3500000D03*
%TD*%
D50*
%TO.C,P201*%
X-2890000Y11395000D03*
X2890000Y11395000D03*
D51*
X-3200000Y10320000D03*
X-2400000Y10320000D03*
D52*
X-1250000Y10320000D03*
X-250000Y10320000D03*
X250000Y10320000D03*
X1250000Y10320000D03*
D51*
X2400000Y10320000D03*
X3200000Y10320000D03*
X3200000Y10320000D03*
X2400000Y10320000D03*
D52*
X1750000Y10320000D03*
X750000Y10320000D03*
X-750000Y10320000D03*
X-1750000Y10320000D03*
D51*
X-2400000Y10320000D03*
X-3200000Y10320000D03*
D53*
X-5110000Y14825000D03*
X-5110000Y10895000D03*
X5110000Y14825000D03*
X5110000Y10895000D03*
%TD*%
D54*
%TO.C,C304*%
X18195000Y14950000D03*
X18195000Y13400000D03*
%TD*%
D35*
%TO.C,R101*%
X22525000Y-9350000D03*
X20875000Y-9350000D03*
%TD*%
D43*
%TO.C,C103*%
X-8225000Y-1900000D03*
X-9775000Y-1900000D03*
%TD*%
D33*
%TO.C,C108*%
X-3730000Y6250000D03*
X-2770000Y6250000D03*
%TD*%
D34*
%TO.C,C102*%
X-9575000Y3000000D03*
X-8025000Y3000000D03*
%TD*%
D35*
%TO.C,R102*%
X-16025000Y4950000D03*
X-17675000Y4950000D03*
%TD*%
D55*
%TO.C,U201*%
X12400000Y7300000D03*
X14700000Y7300000D03*
D56*
X14700000Y1000000D03*
D55*
X17000000Y7300000D03*
%TD*%
D32*
%TO.C,R303*%
X-18725000Y-2600000D03*
X-17075000Y-2600000D03*
%TD*%
D57*
%TO.C,C202*%
X14600000Y9550000D03*
X12700000Y9550000D03*
%TD*%
D58*
%TO.C,D201*%
X11100000Y14800000D03*
X11100000Y11500000D03*
%TD*%
D59*
%TO.C,U302*%
X16874200Y16530200D03*
X15724200Y16530200D03*
X15724200Y13870200D03*
X16874200Y13870200D03*
%TD*%
D58*
%TO.C,D203*%
X-23400000Y13000000D03*
X-23400000Y9700000D03*
%TD*%
D37*
%TO.C,C106*%
X4600000Y3380000D03*
X4600000Y2420000D03*
%TD*%
D44*
%TO.C,C114*%
X-6750000Y-3425000D03*
X-6750000Y-1875000D03*
%TD*%
D60*
%TO.C,D202*%
X2275000Y7700000D03*
D61*
X2225000Y8200000D03*
X2225000Y8700000D03*
X3375000Y8700000D03*
X3375000Y8200000D03*
X3375000Y7700000D03*
%TD*%
D35*
%TO.C,R104*%
X8175000Y1950000D03*
X6525000Y1950000D03*
%TD*%
%LPD*%
M02*
