M48
INCH
T1C0.0157
T2C0.0394
T3C0.0984
T4C0.1083
%
G90
G05
T1
X-1.3051Y0.2224
X-1.2234Y-0.1929
X-1.219Y0.1674
X-1.1906Y-0.0339
X-1.1268Y-0.0403
X-1.1122Y0.061
X-1.1024Y-0.0089
X-1.0945Y-0.1496
X-1.0551Y-0.126
X-1.0409Y0.2981
X-1.0346Y0.2612
X-1.0205Y0.4086
X-1.0039Y0.498
X-0.9952Y0.2916
X-0.9948Y0.329
X-0.9938Y0.4348
X-0.9683Y-0.4506
X-0.9663Y-0.488
X-0.9606Y-0.0236
X-0.9549Y-0.5691
X-0.9508Y0.5551
X-0.9291Y-0.5217
X-0.9134Y0.1398
X-0.8878Y0.6339
X-0.8878Y0.5531
X-0.8832Y0.4127
X-0.874Y-0.5748
X-0.8738Y-0.3632
X-0.8723Y-0.3088
X-0.8421Y0.4636
X-0.8406Y0.4154
X-0.8329Y-0.4825
X-0.8183Y-0.3032
X-0.8107Y-0.3399
X-0.8012Y-0.5984
X-0.7969Y-0.5185
X-0.7891Y-0.4033
X-0.7677Y0.1654
X-0.7527Y-0.1652
X-0.7501Y-0.5822
X-0.7441Y0.1339
X-0.7411Y-0.3718
X-0.7008Y-0.0709
X-0.6909Y0.0079
X-0.6555Y0.4724
X-0.6555Y-0.2008
X-0.6396Y-0.3477
X-0.6256Y0.1185
X-0.6223Y-0.0436
X-0.6129Y-0.5582
X-0.5989Y-0.0144
X-0.5802Y-0.1724
X-0.5594Y0.4124
X-0.5427Y-0.1722
X-0.5305Y0.4537
X-0.5219Y0.2334
X-0.5039Y0.3312
X-0.4862Y0.4173
X-0.4799Y-0.1409
X-0.4705Y0.5531
X-0.4628Y-0.1748
X-0.4562Y-0.5488
X-0.4547Y0.158
X-0.4409Y0.4173
X-0.4232Y-0.0569
X-0.4176Y-0.0199
X-0.3583Y-0.379
X-0.3484Y0.3858
X-0.296Y0.461
X-0.2756Y0.0945
X-0.2651Y0.4863
X-0.2513Y-0.3694
X-0.2511Y-0.2144
X-0.2493Y-0.332
X-0.2119Y-0.1936
X-0.1939Y0.2378
X-0.1939Y-0.1261
X-0.1916Y0.0168
X-0.1684Y-0.1741
X-0.1496Y-0.513
X-0.1161Y0.565
X-0.1097Y-0.1861
X-0.0945Y-0.002
X-0.0925Y-0.0394
X-0.0839Y0.4729
X-0.0581Y-0.2042
X-0.0467Y-0.2567
X-0.0364Y-0.0846
X-0.0352Y0.0886
X-0.0206Y-0.1842
X0.0295Y-0.1842
X0.0335Y-0.0846
X0.0426Y0.0923
X0.045Y0.323
X0.0472Y0.5217
X0.0513Y0.2588
X0.0533Y-0.2233
X0.0634Y0.4692
X0.0847Y-0.0021
X0.1211Y0.563
X0.1368Y0.1606
X0.1703Y-0.1723
X0.1867Y0.3231
X0.1949Y-0.0177
X0.2079Y-0.0992
X0.2795Y0.2421
X0.3061Y-0.1713
X0.318Y-0.3622
X0.3493Y-0.2923
X0.3625Y0.2404
X0.3858Y0.3268
X0.4006Y0.5351
X0.4232Y0.3012
X0.4282Y0.5077
X0.4613Y0.3491
X0.4685Y-0.1555
X0.4803Y0.5945
X0.4807Y-0.0984
X0.4921Y0.5285
X0.4976Y0.5655
X0.502Y0.4547
X0.5187Y-0.5441
X0.5249Y-0.3652
X0.5289Y0.1777
X0.5335Y0.3386
X0.5394Y0.4724
X0.5394Y0.435
X0.5591Y0.5276
X0.5702Y0.1777
X0.5807Y-0.0669
X0.5906Y-0.1929
X0.5984Y0.5098
X0.6161Y-0.0177
X0.617Y0.2046
X0.6201Y-0.0591
X0.6299Y0.5846
X0.6625Y0.176
X0.685Y-0.5766
X0.687Y0.0689
X0.689Y0.0276
X0.689Y-0.0118
X0.6918Y0.1468
X0.7264Y0.3031
X0.7264Y0.2598
X0.7283Y0.439
X0.7319Y-0.5766
X0.7677Y-0.5659
X0.769Y-0.3589
X0.7746Y-0.4083
X0.7819Y-0.1015
X0.7844Y0.3209
X0.799Y-0.5263
X0.8119Y-0.4537
X0.8119Y-0.4911
X0.8189Y0.5256
X0.8297Y0.4898
X0.8543Y0.563
X0.872Y0.6358
X0.8898Y0.3002
X0.9203Y0.2786
X0.9311Y-0.3465
T2
X-0.7Y-0.3122
X-0.7Y-0.4122
X-0.6Y-0.3122
X-0.6Y-0.4122
X-0.5Y-0.3165
X-0.5Y-0.4165
X-0.4Y-0.3122
X-0.4Y-0.4122
X-0.3Y-0.3122
X-0.3Y-0.4122
X-0.2Y-0.3122
X-0.2Y-0.4122
X-0.1Y-0.3122
X-0.1Y-0.4122
X0.0Y-0.3122
X0.0Y-0.4122
X0.1Y-0.3122
X0.1Y-0.4122
X0.2Y-0.3122
X0.2Y-0.4122
X0.3Y-0.3122
X0.3Y-0.4122
X0.4Y-0.3122
X0.4Y-0.4122
X0.5Y-0.3122
X0.5Y-0.4122
X0.6Y-0.3122
X0.6Y-0.4122
X0.7Y-0.3122
X0.7Y-0.4122
T3
X1.0472Y-0.5197
X1.1339Y0.4173
X1.189Y-0.3543
X1.2362Y0.2362
X1.2677Y-0.1654
X1.2835Y0.0394
T4
X-1.2953Y0.0394
X-1.2953Y-0.1024
X-1.2139Y0.2963
X-1.1987Y-0.3522
X-1.1326Y0.4124
X-1.1076Y-0.4608
X-0.998Y-0.209
X-0.8425Y-0.209
X-0.8346Y0.0925
X-0.8346Y-0.063
X0.8425Y-0.209
X0.8504Y0.1585
X0.8504Y0.003
X0.998Y-0.209
M30
