%TF.GenerationSoftware,KiCad,Pcbnew,8.0.5-8.0.5-0~ubuntu22.04.1*%
%TF.CreationDate,2024-11-27T13:58:37+01:00*%
%TF.ProjectId,nerdYcontroller,6e657264-5963-46f6-9e74-726f6c6c6572,rev?*%
%TF.SameCoordinates,Original*%
%TF.FileFunction,Profile,NP*%
%FSLAX46Y46*%
G04 Gerber Fmt 4.6, Leading zero omitted, Abs format (unit mm)*
G04 Created by KiCad (PCBNEW 8.0.5-8.0.5-0~ubuntu22.04.1) date 2024-11-27 13:58:37*
%MOMM*%
%LPD*%
G01*
G04 APERTURE LIST*
%TA.AperFunction,Profile*%
%ADD10C,0.100000*%
%TD*%
G04 APERTURE END LIST*
D10*
%TO.C,outline*%
X-34872869Y-779378D02*
X-34865030Y-1139644D01*
X-34865030Y-1139644D02*
X-34716726Y-3098312D01*
X-34824243Y1097324D02*
X-34872869Y-779378D01*
X-34716726Y-3098312D02*
X-34386329Y-4975075D01*
X-34618200Y2873202D02*
X-34824243Y1097324D01*
X-34386329Y-4975075D02*
X-33872892Y-6772795D01*
X-34249476Y4573666D02*
X-34618200Y2873202D01*
X-33872892Y-6772795D02*
X-33175468Y-8494334D01*
X-33712808Y6224128D02*
X-34249476Y4573666D01*
X-33175468Y-8494334D02*
X-32293110Y-10142557D01*
X-33002931Y7850000D02*
X-33712808Y6224128D01*
X-32768096Y8307286D02*
X-33002931Y7850000D01*
X-32293110Y-10142557D02*
X-31482102Y-11370457D01*
X-32020488Y9568770D02*
X-32768096Y8307286D01*
X-31482102Y-11370457D02*
X-30390155Y-12729772D01*
X-31159443Y10782584D02*
X-32020488Y9568770D01*
X-30390155Y-12729772D02*
X-29179407Y-13937722D01*
X-30215841Y11910710D02*
X-31159443Y10782584D01*
X-29220563Y12915128D02*
X-30215841Y11910710D01*
X-29179407Y-13937722D02*
X-27861060Y-14987403D01*
X-28204488Y13757819D02*
X-29220563Y12915128D01*
X-28187036Y13770689D02*
X-28204488Y13757819D01*
X-27861060Y-14987403D02*
X-26446316Y-15871910D01*
X-27824366Y14043768D02*
X-28187036Y13770689D01*
X-27594326Y14239024D02*
X-27824366Y14043768D01*
X-27466979Y14392065D02*
X-27594326Y14239024D01*
X-27412387Y14538496D02*
X-27466979Y14392065D01*
X-27400616Y14713922D02*
X-27412387Y14538496D01*
X-27400247Y14736721D02*
X-27400616Y14713922D01*
X-27345136Y15043837D02*
X-27400247Y14736721D01*
X-27225001Y15286337D02*
X-27345136Y15043837D01*
X-27092761Y15391381D02*
X-27225001Y15286337D01*
X-26787262Y15568792D02*
X-27092761Y15391381D01*
X-26446316Y-15871910D02*
X-24946377Y-16584339D01*
X-26348487Y15790486D02*
X-26787262Y15568792D01*
X-25805910Y16042829D02*
X-26348487Y15790486D01*
X-25189003Y16312187D02*
X-25805910Y16042829D01*
X-24946377Y-16584339D02*
X-23372445Y-17117786D01*
X-24527241Y16584928D02*
X-25189003Y16312187D01*
X-23850098Y16847419D02*
X-24527241Y16584928D01*
X-23782796Y16872527D02*
X-23850098Y16847419D01*
X-23375261Y17018509D02*
X-23782796Y16872527D01*
X-23372445Y-17117786D02*
X-21735723Y-17465345D01*
X-22990922Y17141050D02*
X-23375261Y17018509D01*
X-22607459Y17242478D02*
X-22990922Y17141050D01*
X-22202553Y17325121D02*
X-22607459Y17242478D01*
X-21753884Y17391308D02*
X-22202553Y17325121D01*
X-21735723Y-17465345D02*
X-21550000Y-17492254D01*
X-21550000Y-17492254D02*
X-20922912Y-17545491D01*
X-21239133Y17443368D02*
X-21753884Y17391308D01*
X-20922912Y-17545491D02*
X-20164678Y-17557812D01*
X-20635980Y17483630D02*
X-21239133Y17443368D01*
X-20164678Y-17557812D02*
X-19339301Y-17532089D01*
X-19922105Y17514421D02*
X-20635980Y17483630D01*
X-19339301Y-17532089D02*
X-18510783Y-17471192D01*
X-19075189Y17538071D02*
X-19922105Y17514421D01*
X-18510783Y-17471192D02*
X-17743128Y-17377991D01*
X-18072912Y17556908D02*
X-19075189Y17538071D01*
X-17743128Y-17377991D02*
X-17310423Y-17302124D01*
X-17310423Y-17302124D02*
X-15780355Y-16899174D01*
X-16892955Y17573261D02*
X-18072912Y17556908D01*
X-16326166Y17580200D02*
X-16892955Y17573261D01*
X-15780355Y-16899174D02*
X-14324799Y-16325745D01*
X-15329616Y17591022D02*
X-16326166Y17580200D01*
X-14507833Y17596446D02*
X-15329616Y17591022D01*
X-14324799Y-16325745D02*
X-12925897Y-15573122D01*
X-13843992Y17594970D02*
X-14507833Y17596446D01*
X-13321266Y17585093D02*
X-13843992Y17594970D01*
X-12925897Y-15573122D02*
X-11565790Y-14632594D01*
X-12922829Y17565314D02*
X-13321266Y17585093D01*
X-12631855Y17534133D02*
X-12922829Y17565314D01*
X-12431517Y17490049D02*
X-12631855Y17534133D01*
X-12304989Y17431560D02*
X-12431517Y17490049D01*
X-12235445Y17357167D02*
X-12304989Y17431560D01*
X-12218269Y16952510D02*
X-12211987Y17021129D01*
X-12211987Y17021129D02*
X-12202718Y17098053D01*
X-12211197Y16891723D02*
X-12218269Y16952510D01*
X-12206057Y17265367D02*
X-12235445Y17357167D01*
X-12202718Y17098053D02*
X-12200000Y17154661D01*
X-12200000Y17154661D02*
X-12206057Y17265367D01*
X-12180401Y16838298D02*
X-12211197Y16891723D01*
X-12115512Y16791764D02*
X-12180401Y16838298D01*
X-12006160Y16751648D02*
X-12115512Y16791764D01*
X-11841977Y16717479D02*
X-12006160Y16751648D01*
X-11612594Y16688787D02*
X-11841977Y16717479D01*
X-11565790Y-14632594D02*
X-11133374Y-14288498D01*
X-11307641Y16665099D02*
X-11612594Y16688787D01*
X-11133374Y-14288498D02*
X-10416748Y-13700000D01*
X-10916749Y16645944D02*
X-11307641Y16665099D01*
X-10429550Y16630850D02*
X-10916749Y16645944D01*
X-10416748Y-13700000D02*
X-7557Y-13700000D01*
X-9835674Y16619347D02*
X-10429550Y16630850D01*
X-9124751Y16610963D02*
X-9835674Y16619347D01*
X-8286414Y16605226D02*
X-9124751Y16610963D01*
X-7310292Y16601665D02*
X-8286414Y16605226D01*
X-6186017Y16599809D02*
X-7310292Y16601665D01*
X-4903219Y16599185D02*
X-6186017Y16599809D01*
X-3451530Y16599324D02*
X-4903219Y16599185D01*
X-1820580Y16599753D02*
X-3451530Y16599324D01*
X-7557Y-13700000D02*
X10401634Y-13700000D01*
X-1Y16600000D02*
X-1820580Y16599753D01*
X210935Y16600002D02*
X-1Y16600000D01*
X2006047Y16600223D02*
X210935Y16600002D01*
X3612670Y16600904D02*
X2006047Y16600223D01*
X5041164Y16602180D02*
X3612670Y16600904D01*
X6301893Y16604187D02*
X5041164Y16602180D01*
X7405217Y16607059D02*
X6301893Y16604187D01*
X8361498Y16610932D02*
X7405217Y16607059D01*
X9181100Y16615940D02*
X8361498Y16610932D01*
X9874383Y16622219D02*
X9181100Y16615940D01*
X10401634Y-13700000D02*
X11122405Y-14305185D01*
X10451709Y16629903D02*
X9874383Y16622219D01*
X10923440Y16639128D02*
X10451709Y16629903D01*
X11122405Y-14305185D02*
X12490157Y-15326235D01*
X11299938Y16650028D02*
X10923440Y16639128D01*
X11591565Y16662739D02*
X11299938Y16650028D01*
X11808683Y16677396D02*
X11591565Y16662739D01*
X11961654Y16694133D02*
X11808683Y16677396D01*
X12060839Y16713086D02*
X11961654Y16694133D01*
X12116601Y16734390D02*
X12060839Y16713086D01*
X12139301Y16758179D02*
X12116601Y16734390D01*
X12167849Y16854990D02*
X12139301Y16758179D01*
X12200000Y17105874D02*
X12167849Y16854990D01*
X12270513Y17283124D02*
X12200000Y17105874D01*
X12452480Y17460822D02*
X12270513Y17283124D01*
X12490157Y-15326235D02*
X13948440Y-16170123D01*
X12495405Y17485907D02*
X12452480Y17460822D01*
X12582500Y17520183D02*
X12495405Y17485907D01*
X12707347Y17546989D02*
X12582500Y17520183D01*
X12887965Y17566545D02*
X12707347Y17546989D01*
X13142373Y17579068D02*
X12887965Y17566545D01*
X13488589Y17584778D02*
X13142373Y17579068D01*
X13944634Y17583894D02*
X13488589Y17584778D01*
X13948440Y-16170123D02*
X15490527Y-16833528D01*
X14528526Y17576634D02*
X13944634Y17583894D01*
X15258285Y17563217D02*
X14528526Y17576634D01*
X15490527Y-16833528D02*
X17109691Y-17313131D01*
X16151930Y17543862D02*
X15258285Y17563217D01*
X17109691Y-17313131D02*
X17308487Y-17358095D01*
X17227480Y17518787D02*
X16151930Y17543862D01*
X17308487Y-17358095D02*
X17944901Y-17462408D01*
X17944901Y-17462408D02*
X18715207Y-17534396D01*
X18334765Y17491003D02*
X17227480Y17518787D01*
X18715207Y-17534396D02*
X19555693Y-17572596D01*
X19349805Y17461743D02*
X18334765Y17491003D01*
X19555693Y-17572596D02*
X20402649Y-17575547D01*
X20195098Y17432423D02*
X19349805Y17461743D01*
X20402649Y-17575547D02*
X21192362Y-17541788D01*
X20886335Y17402254D02*
X20195098Y17432423D01*
X21192362Y-17541788D02*
X21861121Y-17469857D01*
X21439208Y17370446D02*
X20886335Y17402254D01*
X21861121Y-17469857D02*
X21901189Y-17463447D01*
X21869405Y17336210D02*
X21439208Y17370446D01*
X21901189Y-17463447D02*
X23463128Y-17127925D01*
X22192617Y17298756D02*
X21869405Y17336210D01*
X22424536Y17257295D02*
X22192617Y17298756D01*
X22536752Y17230462D02*
X22424536Y17257295D01*
X23214445Y17031422D02*
X22536752Y17230462D01*
X23463128Y-17127925D02*
X24915481Y-16646868D01*
X24040419Y16736815D02*
X23214445Y17031422D01*
X24915481Y-16646868D02*
X26280143Y-16008824D01*
X24995793Y16353741D02*
X24040419Y16736815D01*
X26061686Y15889303D02*
X24995793Y16353741D01*
X26280143Y-16008824D02*
X27579008Y-15202336D01*
X26417978Y15724751D02*
X26061686Y15889303D01*
X26845082Y15503969D02*
X26417978Y15724751D01*
X27129245Y15308402D02*
X26845082Y15503969D01*
X27298058Y15111655D02*
X27129245Y15308402D01*
X27379113Y14887334D02*
X27298058Y15111655D01*
X27400000Y14609045D02*
X27379113Y14887334D01*
X27400322Y14588963D02*
X27400000Y14609045D01*
X27434596Y14431390D02*
X27400322Y14588963D01*
X27546605Y14268279D02*
X27434596Y14431390D01*
X27579008Y-15202336D02*
X28833972Y-14215951D01*
X27766536Y14065458D02*
X27546605Y14268279D01*
X28124575Y13788750D02*
X27766536Y14065458D01*
X28833972Y-14215951D02*
X29757225Y-13353540D01*
X29416986Y12709832D02*
X28124575Y13788750D01*
X29757225Y-13353540D02*
X30976680Y-12017197D01*
X30606391Y11469780D02*
X29416986Y12709832D01*
X30976680Y-12017197D02*
X32017737Y-10612493D01*
X31661243Y10103532D02*
X30606391Y11469780D01*
X32017737Y-10612493D02*
X32891424Y-9120023D01*
X32576662Y8626244D02*
X31661243Y10103532D01*
X32891424Y-9120023D02*
X33608773Y-7520383D01*
X33347766Y7053073D02*
X32576662Y8626244D01*
X33608773Y-7520383D02*
X34180812Y-5794166D01*
X33969674Y5399177D02*
X33347766Y7053073D01*
X34180812Y-5794166D02*
X34294669Y-5370674D01*
X34294669Y-5370674D02*
X34670439Y-3550712D01*
X34437505Y3679710D02*
X33969674Y5399177D01*
X34670439Y-3550712D02*
X34867726Y-1720536D01*
X34746378Y1909832D02*
X34437505Y3679710D01*
X34867726Y-1720536D02*
X34891412Y104697D01*
X34891412Y104697D02*
X34746378Y1909832D01*
%TD*%
M02*
