%TF.GenerationSoftware,KiCad,Pcbnew,8.0.5-8.0.5-0~ubuntu22.04.1*%
%TF.CreationDate,2024-11-27T13:58:37+01:00*%
%TF.ProjectId,nerdYcontroller,6e657264-5963-46f6-9e74-726f6c6c6572,rev?*%
%TF.SameCoordinates,Original*%
%TF.FileFunction,Copper,L4,Bot*%
%TF.FilePolarity,Positive*%
%FSLAX46Y46*%
G04 Gerber Fmt 4.6, Leading zero omitted, Abs format (unit mm)*
G04 Created by KiCad (PCBNEW 8.0.5-8.0.5-0~ubuntu22.04.1) date 2024-11-27 13:58:37*
%MOMM*%
%LPD*%
G01*
G04 APERTURE LIST*
G04 Aperture macros list*
%AMRoundRect*
0 Rectangle with rounded corners*
0 $1 Rounding radius*
0 $2 $3 $4 $5 $6 $7 $8 $9 X,Y pos of 4 corners*
0 Add a 4 corners polygon primitive as box body*
4,1,4,$2,$3,$4,$5,$6,$7,$8,$9,$2,$3,0*
0 Add four circle primitives for the rounded corners*
1,1,$1+$1,$2,$3*
1,1,$1+$1,$4,$5*
1,1,$1+$1,$6,$7*
1,1,$1+$1,$8,$9*
0 Add four rect primitives between the rounded corners*
20,1,$1+$1,$2,$3,$4,$5,0*
20,1,$1+$1,$4,$5,$6,$7,0*
20,1,$1+$1,$6,$7,$8,$9,0*
20,1,$1+$1,$8,$9,$2,$3,0*%
%AMFreePoly0*
4,1,16,2.068441,2.822910,2.098225,2.768757,2.100000,2.750000,2.100000,-2.750000,2.080902,-2.808779,2.030902,-2.845106,1.969098,-2.845106,1.951808,-2.837622,-3.048192,-0.087622,-3.090491,-0.042561,-3.098225,0.018757,-3.068441,0.072910,-3.048192,0.087622,1.951808,2.837622,2.012515,2.849214,2.068441,2.822910,2.068441,2.822910,$1*%
%AMFreePoly1*
4,1,26,6.500000,-2.000000,0.000000,-2.000000,-0.284630,-1.979643,-0.563465,-1.918986,-0.830830,-1.819264,-1.081282,-1.682507,-1.309721,-1.511499,-1.511499,-1.309721,-1.682507,-1.081283,-1.819264,-0.830830,-1.918986,-0.563465,-1.979643,-0.284630,-2.000000,0.000000,-1.979643,0.284630,-1.918986,0.563465,-1.819264,0.830830,-1.682507,1.081282,-1.511499,1.309721,-1.309721,1.511499,-1.081283,1.682507,
-0.830830,1.819264,-0.563465,1.918986,-0.284630,1.979643,0.000000,2.000000,6.500000,2.000000,6.500000,-2.000000,6.500000,-2.000000,$1*%
%AMFreePoly2*
4,1,35,6.858779,1.980902,6.895106,1.930901,6.900000,1.900000,6.900000,-1.900000,6.880902,-1.958779,6.830902,-1.995106,6.800000,-2.000000,0.000000,-2.000000,-0.284630,-1.979643,-0.563465,-1.918986,-0.830830,-1.819264,-1.081282,-1.682507,-1.309721,-1.511499,-1.511499,-1.309721,-1.682507,-1.081283,-1.819264,-0.830830,-1.918986,-0.563465,-1.979643,-0.284630,-2.000000,0.000000,-1.979643,0.284630,
-1.918986,0.563465,-1.819264,0.830830,-1.682507,1.081282,-1.511499,1.309721,-1.309721,1.511499,-1.081283,1.682507,-0.830830,1.819264,-0.563465,1.918986,-0.284630,1.979643,-0.267027,1.980902,-0.138852,1.990069,-0.133394,1.994260,-0.100000,2.000000,6.800000,2.000000,6.858779,1.980902,6.858779,1.980902,$1*%
G04 Aperture macros list end*
%TA.AperFunction,ComponentPad*%
%ADD10FreePoly0,270.000000*%
%TD*%
%TA.AperFunction,ComponentPad*%
%ADD11R,3.000000X3.700200*%
%TD*%
%TA.AperFunction,ComponentPad*%
%ADD12C,1.600000*%
%TD*%
%TA.AperFunction,CastellatedPad*%
%ADD13FreePoly1,40.000000*%
%TD*%
%TA.AperFunction,ComponentPad*%
%ADD14FreePoly2,220.000000*%
%TD*%
%TA.AperFunction,ComponentPad*%
%ADD15FreePoly0,0.000000*%
%TD*%
%TA.AperFunction,ComponentPad*%
%ADD16R,3.700200X3.000000*%
%TD*%
%TA.AperFunction,CastellatedPad*%
%ADD17FreePoly1,315.000000*%
%TD*%
%TA.AperFunction,ComponentPad*%
%ADD18FreePoly2,145.000000*%
%TD*%
%TA.AperFunction,CastellatedPad*%
%ADD19FreePoly1,350.000000*%
%TD*%
%TA.AperFunction,ComponentPad*%
%ADD20FreePoly0,90.000000*%
%TD*%
%TA.AperFunction,ComponentPad*%
%ADD21FreePoly2,180.000000*%
%TD*%
%TA.AperFunction,CastellatedPad*%
%ADD22FreePoly1,20.000000*%
%TD*%
%TA.AperFunction,CastellatedPad*%
%ADD23FreePoly1,5.000000*%
%TD*%
%TA.AperFunction,ComponentPad*%
%ADD24FreePoly0,180.000000*%
%TD*%
%TA.AperFunction,CastellatedPad*%
%ADD25FreePoly1,330.000000*%
%TD*%
%TA.AperFunction,SMDPad,CuDef*%
%ADD26RoundRect,0.200000X-0.200000X-0.275000X0.200000X-0.275000X0.200000X0.275000X-0.200000X0.275000X0*%
%TD*%
%TA.AperFunction,SMDPad,CuDef*%
%ADD27RoundRect,0.140000X-0.140000X-0.170000X0.140000X-0.170000X0.140000X0.170000X-0.140000X0.170000X0*%
%TD*%
%TA.AperFunction,SMDPad,CuDef*%
%ADD28RoundRect,0.225000X-0.225000X-0.250000X0.225000X-0.250000X0.225000X0.250000X-0.225000X0.250000X0*%
%TD*%
%TA.AperFunction,SMDPad,CuDef*%
%ADD29RoundRect,0.200000X0.200000X0.275000X-0.200000X0.275000X-0.200000X-0.275000X0.200000X-0.275000X0*%
%TD*%
%TA.AperFunction,SMDPad,CuDef*%
%ADD30RoundRect,0.150000X-0.650000X-0.150000X0.650000X-0.150000X0.650000X0.150000X-0.650000X0.150000X0*%
%TD*%
%TA.AperFunction,SMDPad,CuDef*%
%ADD31RoundRect,0.140000X-0.170000X0.140000X-0.170000X-0.140000X0.170000X-0.140000X0.170000X0.140000X0*%
%TD*%
%TA.AperFunction,SMDPad,CuDef*%
%ADD32RoundRect,0.200000X0.275000X-0.200000X0.275000X0.200000X-0.275000X0.200000X-0.275000X-0.200000X0*%
%TD*%
%TA.AperFunction,SMDPad,CuDef*%
%ADD33RoundRect,0.050000X0.050000X-0.387500X0.050000X0.387500X-0.050000X0.387500X-0.050000X-0.387500X0*%
%TD*%
%TA.AperFunction,SMDPad,CuDef*%
%ADD34RoundRect,0.050000X0.387500X-0.050000X0.387500X0.050000X-0.387500X0.050000X-0.387500X-0.050000X0*%
%TD*%
%TA.AperFunction,HeatsinkPad*%
%ADD35R,3.200000X3.200000*%
%TD*%
%TA.AperFunction,SMDPad,CuDef*%
%ADD36RoundRect,0.200000X-0.275000X0.200000X-0.275000X-0.200000X0.275000X-0.200000X0.275000X0.200000X0*%
%TD*%
%TA.AperFunction,SMDPad,CuDef*%
%ADD37RoundRect,0.225000X0.225000X0.250000X-0.225000X0.250000X-0.225000X-0.250000X0.225000X-0.250000X0*%
%TD*%
%TA.AperFunction,SMDPad,CuDef*%
%ADD38RoundRect,0.225000X0.250000X-0.225000X0.250000X0.225000X-0.250000X0.225000X-0.250000X-0.225000X0*%
%TD*%
%TA.AperFunction,SMDPad,CuDef*%
%ADD39R,0.750000X1.000000*%
%TD*%
%TA.AperFunction,SMDPad,CuDef*%
%ADD40R,1.400000X1.200000*%
%TD*%
%TA.AperFunction,SMDPad,CuDef*%
%ADD41RoundRect,0.250000X-0.250000X-1.500000X0.250000X-1.500000X0.250000X1.500000X-0.250000X1.500000X0*%
%TD*%
%TA.AperFunction,SMDPad,CuDef*%
%ADD42RoundRect,0.250001X-0.499999X-1.449999X0.499999X-1.449999X0.499999X1.449999X-0.499999X1.449999X0*%
%TD*%
%TA.AperFunction,SMDPad,CuDef*%
%ADD43RoundRect,0.250000X-0.250000X-0.475000X0.250000X-0.475000X0.250000X0.475000X-0.250000X0.475000X0*%
%TD*%
%TA.AperFunction,SMDPad,CuDef*%
%ADD44RoundRect,0.150000X-0.150000X-0.425000X0.150000X-0.425000X0.150000X0.425000X-0.150000X0.425000X0*%
%TD*%
%TA.AperFunction,SMDPad,CuDef*%
%ADD45RoundRect,0.075000X-0.075000X-0.500000X0.075000X-0.500000X0.075000X0.500000X-0.075000X0.500000X0*%
%TD*%
%TA.AperFunction,SMDPad,CuDef*%
%ADD46RoundRect,0.250000X-0.840000X-0.750000X0.840000X-0.750000X0.840000X0.750000X-0.840000X0.750000X0*%
%TD*%
%TA.AperFunction,SMDPad,CuDef*%
%ADD47RoundRect,0.225000X-0.250000X0.225000X-0.250000X-0.225000X0.250000X-0.225000X0.250000X0.225000X0*%
%TD*%
%TA.AperFunction,SMDPad,CuDef*%
%ADD48RoundRect,0.375000X-0.375000X0.625000X-0.375000X-0.625000X0.375000X-0.625000X0.375000X0.625000X0*%
%TD*%
%TA.AperFunction,SMDPad,CuDef*%
%ADD49RoundRect,0.500000X-1.400000X0.500000X-1.400000X-0.500000X1.400000X-0.500000X1.400000X0.500000X0*%
%TD*%
%TA.AperFunction,SMDPad,CuDef*%
%ADD50RoundRect,0.250000X0.250000X0.475000X-0.250000X0.475000X-0.250000X-0.475000X0.250000X-0.475000X0*%
%TD*%
%TA.AperFunction,SMDPad,CuDef*%
%ADD51RoundRect,0.225000X-0.375000X0.225000X-0.375000X-0.225000X0.375000X-0.225000X0.375000X0.225000X0*%
%TD*%
%TA.AperFunction,SMDPad,CuDef*%
%ADD52C,0.700000*%
%TD*%
%TA.AperFunction,SMDPad,CuDef*%
%ADD53RoundRect,0.070000X0.355000X-0.070000X0.355000X0.070000X-0.355000X0.070000X-0.355000X-0.070000X0*%
%TD*%
%TA.AperFunction,SMDPad,CuDef*%
%ADD54RoundRect,0.070000X0.305000X-0.070000X0.305000X0.070000X-0.305000X0.070000X-0.305000X-0.070000X0*%
%TD*%
%TA.AperFunction,ViaPad*%
%ADD55C,0.800000*%
%TD*%
%TA.AperFunction,Conductor*%
%ADD56C,0.250000*%
%TD*%
%TA.AperFunction,Conductor*%
%ADD57C,0.152400*%
%TD*%
%TA.AperFunction,Conductor*%
%ADD58C,0.203200*%
%TD*%
%TA.AperFunction,Conductor*%
%ADD59C,0.304800*%
%TD*%
%TA.AperFunction,Conductor*%
%ADD60C,0.254000*%
%TD*%
%TA.AperFunction,Conductor*%
%ADD61C,0.150000*%
%TD*%
G04 APERTURE END LIST*
D10*
%TO.P,A302,1,1*%
%TO.N,/Peripherals/GP15{slash}ArrowUp*%
X-21200000Y2350000D03*
D11*
X-21200000Y-1450100D03*
%TD*%
D12*
%TO.P,J304,01,01*%
%TO.N,GND*%
X17780000Y-10470000D03*
%TO.P,J304,02,02*%
%TO.N,+3V3*%
X17780000Y-7930000D03*
%TO.P,J304,03,03*%
%TO.N,/Peripherals/GP1*%
X15240000Y-10470000D03*
%TO.P,J304,04,04*%
%TO.N,/Peripherals/GP0*%
X15240000Y-7930000D03*
%TO.P,J304,05,05*%
%TO.N,/Peripherals/GP3*%
X12700000Y-10470000D03*
%TO.P,J304,06,06*%
%TO.N,/Peripherals/GP2*%
X12700000Y-7930000D03*
%TO.P,J304,07,07*%
%TO.N,GND*%
X10160000Y-10470000D03*
%TO.P,J304,08,08*%
%TO.N,+3V3*%
X10160000Y-7930000D03*
%TO.P,J304,09,09*%
%TO.N,/Peripherals/GP19*%
X7620000Y-10470000D03*
%TO.P,J304,10,10*%
%TO.N,/Peripherals/GP22*%
X7620000Y-7930000D03*
%TO.P,J304,11,11*%
%TO.N,/Peripherals/GP21*%
X5080000Y-10470000D03*
%TO.P,J304,12,12*%
%TO.N,/Peripherals/GP18*%
X5080000Y-7930000D03*
%TO.P,J304,13,13*%
%TO.N,GND*%
X2540000Y-10470000D03*
%TO.P,J304,14,14*%
%TO.N,+3V3*%
X2540000Y-7930000D03*
%TO.P,J304,15,15*%
%TO.N,/Peripherals/GP23*%
X0Y-10470000D03*
%TO.P,J304,16,16*%
%TO.N,/Peripherals/GP24*%
X0Y-7930000D03*
%TO.P,J304,17,17*%
%TO.N,/Peripherals/GP25{slash}LED*%
X-2540000Y-10470000D03*
%TO.P,J304,18,18*%
%TO.N,/Peripherals/GP27*%
X-2540000Y-7930000D03*
%TO.P,J304,19,19*%
%TO.N,GND*%
X-5080000Y-10470000D03*
%TO.P,J304,20,20*%
%TO.N,+3V3*%
X-5080000Y-7930000D03*
%TO.P,J304,21,21*%
%TO.N,/Peripherals/GP26*%
X-7620000Y-10470000D03*
%TO.P,J304,22,22*%
%TO.N,/Peripherals/GP28*%
X-7620000Y-7930000D03*
%TO.P,J304,23,23*%
%TO.N,/Peripherals/GP14{slash}ArrowLeft*%
X-10160000Y-10470000D03*
%TO.P,J304,24,24*%
%TO.N,/Peripherals/GP15{slash}ArrowUp*%
X-10160000Y-7930000D03*
%TO.P,J304,25,25*%
%TO.N,/Peripherals/GP17{slash}ArrowDown*%
X-12700000Y-10580000D03*
%TO.P,J304,26,26*%
%TO.N,/Peripherals/GP16{slash}ArrowRight*%
X-12700000Y-8040000D03*
%TO.P,J304,27,27*%
%TO.N,GND*%
X-15240000Y-10470000D03*
%TO.P,J304,28,28*%
%TO.N,/VBUS*%
X-15240000Y-7930000D03*
%TO.P,J304,29,29*%
%TO.N,/SWCLK*%
X-17780000Y-10470000D03*
%TO.P,J304,30,30*%
%TO.N,/SWD*%
X-17780000Y-7930000D03*
%TD*%
D13*
%TO.P,GP0,1,1*%
%TO.N,/Peripherals/GP0*%
X28800000Y10600000D03*
%TD*%
D14*
%TO.P,VBUS301,1,1*%
%TO.N,/VBUS*%
X-28134019Y-11703993D03*
X-30448055Y-8946233D03*
%TD*%
D15*
%TO.P,A301,1,1*%
%TO.N,/Peripherals/GP14{slash}ArrowLeft*%
X-25350000Y-5308000D03*
D16*
X-21549900Y-5308000D03*
%TD*%
D17*
%TO.P,GP19,1,1*%
%TO.N,/Peripherals/GP19*%
X26600000Y-13200000D03*
%TD*%
D18*
%TO.P,GND301,1,1*%
%TO.N,GND*%
X-30832438Y7525526D03*
X-28767562Y10474474D03*
%TD*%
D19*
%TO.P,GP3,1,1*%
%TO.N,/Peripherals/GP3*%
X32200000Y-4200000D03*
%TD*%
D20*
%TO.P,A304,1,1*%
%TO.N,/Peripherals/GP17{slash}ArrowDown*%
X21600000Y75000D03*
D11*
X21600000Y3875100D03*
%TD*%
D21*
%TO.P,3V3,1,1*%
%TO.N,+3V3*%
X-32900901Y-2600000D03*
X-32900901Y1000000D03*
%TD*%
D22*
%TO.P,GP1,1,1*%
%TO.N,/Peripherals/GP1*%
X31400000Y6000000D03*
%TD*%
D23*
%TO.P,GP2,1,1*%
%TO.N,/Peripherals/GP2*%
X32600000Y1000000D03*
%TD*%
D24*
%TO.P,A303,1,1*%
%TO.N,/Peripherals/GP16{slash}ArrowRight*%
X25350000Y-5308000D03*
D16*
X21549900Y-5308000D03*
%TD*%
D25*
%TO.P,GP22,1,1*%
%TO.N,/Peripherals/GP22*%
X30200000Y-9000000D03*
%TD*%
D26*
%TO.P,R305,1*%
%TO.N,/Peripherals/GP16{slash}ArrowRight*%
X20875000Y-7750000D03*
%TO.P,R305,2*%
%TO.N,GND*%
X22525000Y-7750000D03*
%TD*%
D27*
%TO.P,C104,1*%
%TO.N,GND*%
X-3380000Y5300000D03*
%TO.P,C104,2*%
%TO.N,+3V3*%
X-2420000Y5300000D03*
%TD*%
D28*
%TO.P,C111,1*%
%TO.N,+3V3*%
X6825000Y5000000D03*
%TO.P,C111,2*%
%TO.N,GND*%
X8375000Y5000000D03*
%TD*%
%TO.P,C113,1*%
%TO.N,+1V1*%
X6575000Y-1100000D03*
%TO.P,C113,2*%
%TO.N,GND*%
X8125000Y-1100000D03*
%TD*%
D29*
%TO.P,R202,1*%
%TO.N,GND*%
X9225000Y13750000D03*
%TO.P,R202,2*%
%TO.N,Net-(P201-VCONN)*%
X7575000Y13750000D03*
%TD*%
D30*
%TO.P,U102,1,~{CS}*%
%TO.N,/FLASH_CS*%
X10000000Y-5505000D03*
%TO.P,U102,2,DO(IO1)*%
%TO.N,/FLASH_SD1*%
X10000000Y-4235000D03*
%TO.P,U102,3,IO2*%
%TO.N,/FLASH_SD2*%
X10000000Y-2965000D03*
%TO.P,U102,4,GND*%
%TO.N,GND*%
X10000000Y-1695000D03*
%TO.P,U102,5,DI(IO0)*%
%TO.N,/FLASH_SD0*%
X17200000Y-1695000D03*
%TO.P,U102,6,CLK*%
%TO.N,/FLASH_SCLK*%
X17200000Y-2965000D03*
%TO.P,U102,7,IO3*%
%TO.N,/FLASH_SD3*%
X17200000Y-4235000D03*
%TO.P,U102,8,VCC*%
%TO.N,+3V3*%
X17200000Y-5505000D03*
%TD*%
D31*
%TO.P,C105,1*%
%TO.N,GND*%
X3100000Y6480000D03*
%TO.P,C105,2*%
%TO.N,+3V3*%
X3100000Y5520000D03*
%TD*%
D32*
%TO.P,R308,1*%
%TO.N,+3V3*%
X19719000Y13350000D03*
%TO.P,R308,2*%
%TO.N,/Peripherals/GP29{slash}MIC_OUT*%
X19719000Y15000000D03*
%TD*%
D29*
%TO.P,R201,1*%
%TO.N,GND*%
X9225000Y15300000D03*
%TO.P,R201,2*%
%TO.N,Net-(P201-CC)*%
X7575000Y15300000D03*
%TD*%
D32*
%TO.P,R105,1*%
%TO.N,Net-(U101-XOUT)*%
X-11050000Y425000D03*
%TO.P,R105,2*%
%TO.N,Net-(C102-Pad1)*%
X-11050000Y2075000D03*
%TD*%
D33*
%TO.P,U101,1,IOVDD*%
%TO.N,+3V3*%
X2600000Y-3437500D03*
%TO.P,U101,2,GPIO0*%
%TO.N,/Peripherals/GP0*%
X2199999Y-3437500D03*
%TO.P,U101,3,GPIO1*%
%TO.N,/Peripherals/GP1*%
X1800000Y-3437500D03*
%TO.P,U101,4,GPIO2*%
%TO.N,/Peripherals/GP2*%
X1400000Y-3437500D03*
%TO.P,U101,5,GPIO3*%
%TO.N,/Peripherals/GP3*%
X1000000Y-3437500D03*
%TO.P,U101,6,GPIO4*%
%TO.N,/Peripherals/GP4{slash}SERVO_2*%
X600001Y-3437500D03*
%TO.P,U101,7,GPIO5*%
%TO.N,/Peripherals/GP5{slash}SERVO_3*%
X200000Y-3437500D03*
%TO.P,U101,8,GPIO6*%
%TO.N,/Peripherals/GP6{slash}IMU_SDA*%
X-200000Y-3437500D03*
%TO.P,U101,9,GPIO7*%
%TO.N,/Peripherals/GP7{slash}IMU_SCL*%
X-600001Y-3437500D03*
%TO.P,U101,10,IOVDD*%
%TO.N,+3V3*%
X-1000000Y-3437500D03*
%TO.P,U101,11,GPIO8*%
%TO.N,/Peripherals/GP8{slash}Grove_D1*%
X-1400000Y-3437500D03*
%TO.P,U101,12,GPIO9*%
%TO.N,/Peripherals/GP9{slash}Grove_D0*%
X-1800000Y-3437500D03*
%TO.P,U101,13,GPIO10*%
%TO.N,/Peripherals/GP10{slash}SERVO_0*%
X-2199999Y-3437500D03*
%TO.P,U101,14,GPIO11*%
%TO.N,/Peripherals/GP11{slash}SERVO_1*%
X-2600000Y-3437500D03*
D34*
%TO.P,U101,15,GPIO12*%
%TO.N,/Peripherals/GP12{slash}NEOPIXEL*%
X-3437500Y-2600000D03*
%TO.P,U101,16,GPIO13*%
%TO.N,/Peripherals/GP13{slash}INTR*%
X-3437500Y-2199999D03*
%TO.P,U101,17,GPIO14*%
%TO.N,/Peripherals/GP14{slash}ArrowLeft*%
X-3437500Y-1800000D03*
%TO.P,U101,18,GPIO15*%
%TO.N,/Peripherals/GP15{slash}ArrowUp*%
X-3437500Y-1400000D03*
%TO.P,U101,19,TESTEN*%
%TO.N,GND*%
X-3437500Y-1000000D03*
%TO.P,U101,20,XIN*%
%TO.N,Net-(U101-XIN)*%
X-3437500Y-600001D03*
%TO.P,U101,21,XOUT*%
%TO.N,Net-(U101-XOUT)*%
X-3437500Y-200000D03*
%TO.P,U101,22,IOVDD*%
%TO.N,+3V3*%
X-3437500Y200000D03*
%TO.P,U101,23,DVDD*%
%TO.N,+1V1*%
X-3437500Y600001D03*
%TO.P,U101,24,SWCLK*%
%TO.N,/SWCLK*%
X-3437500Y1000000D03*
%TO.P,U101,25,SWD*%
%TO.N,/SWD*%
X-3437500Y1400000D03*
%TO.P,U101,26,RUN*%
%TO.N,Net-(U101-RUN)*%
X-3437500Y1800000D03*
%TO.P,U101,27,GPIO16*%
%TO.N,/Peripherals/GP16{slash}ArrowRight*%
X-3437500Y2199999D03*
%TO.P,U101,28,GPIO17*%
%TO.N,/Peripherals/GP17{slash}ArrowDown*%
X-3437500Y2600000D03*
D33*
%TO.P,U101,29,GPIO18*%
%TO.N,/Peripherals/GP18*%
X-2600000Y3437500D03*
%TO.P,U101,30,GPIO19*%
%TO.N,/Peripherals/GP19*%
X-2199999Y3437500D03*
%TO.P,U101,31,GPIO20*%
%TO.N,/Peripherals/GP20{slash}Buzzer*%
X-1800000Y3437500D03*
%TO.P,U101,32,GPIO21*%
%TO.N,/Peripherals/GP21*%
X-1400000Y3437500D03*
%TO.P,U101,33,IOVDD*%
%TO.N,+3V3*%
X-1000000Y3437500D03*
%TO.P,U101,34,GPIO22*%
%TO.N,/Peripherals/GP22*%
X-600001Y3437500D03*
%TO.P,U101,35,GPIO23*%
%TO.N,/Peripherals/GP23*%
X-200000Y3437500D03*
%TO.P,U101,36,GPIO24*%
%TO.N,/Peripherals/GP24*%
X200000Y3437500D03*
%TO.P,U101,37,GPIO25*%
%TO.N,/Peripherals/GP25{slash}LED*%
X600001Y3437500D03*
%TO.P,U101,38,GPIO26_ADC0*%
%TO.N,/Peripherals/GP26*%
X1000000Y3437500D03*
%TO.P,U101,39,GPIO27_ADC1*%
%TO.N,/Peripherals/GP27*%
X1400000Y3437500D03*
%TO.P,U101,40,GPIO28_ADC2*%
%TO.N,/Peripherals/GP28*%
X1800000Y3437500D03*
%TO.P,U101,41,GPIO29_ADC3*%
%TO.N,/Peripherals/GP29{slash}MIC_OUT*%
X2199999Y3437500D03*
%TO.P,U101,42,IOVDD*%
%TO.N,+3V3*%
X2600000Y3437500D03*
D34*
%TO.P,U101,43,ADC_AVDD*%
X3437500Y2600000D03*
%TO.P,U101,44,VREG_IN*%
X3437500Y2199999D03*
%TO.P,U101,45,VREG_VOUT*%
%TO.N,+1V1*%
X3437500Y1800000D03*
%TO.P,U101,46,USB_DM*%
%TO.N,/d-*%
X3437500Y1400000D03*
%TO.P,U101,47,USB_DP*%
%TO.N,/d+*%
X3437500Y1000000D03*
%TO.P,U101,48,USB_VDD*%
%TO.N,+3V3*%
X3437500Y600001D03*
%TO.P,U101,49,IOVDD*%
X3437500Y200000D03*
%TO.P,U101,50,DVDD*%
%TO.N,+1V1*%
X3437500Y-200000D03*
%TO.P,U101,51,QSPI_SD3*%
%TO.N,/FLASH_SD3*%
X3437500Y-600001D03*
%TO.P,U101,52,QSPI_SCLK*%
%TO.N,/FLASH_SCLK*%
X3437500Y-1000000D03*
%TO.P,U101,53,QSPI_SD0*%
%TO.N,/FLASH_SD0*%
X3437500Y-1400000D03*
%TO.P,U101,54,QSPI_SD2*%
%TO.N,/FLASH_SD2*%
X3437500Y-1800000D03*
%TO.P,U101,55,QSPI_SD1*%
%TO.N,/FLASH_SD1*%
X3437500Y-2199999D03*
%TO.P,U101,56,QSPI_SS*%
%TO.N,/FLASH_CS*%
X3437500Y-2600000D03*
D35*
%TO.P,U101,57,GND*%
%TO.N,GND*%
X0Y0D03*
%TD*%
D36*
%TO.P,R203,1*%
%TO.N,GND*%
X7700000Y12300000D03*
%TO.P,R203,2*%
%TO.N,Net-(P201-SHIELD)*%
X7700000Y10650000D03*
%TD*%
D37*
%TO.P,C115,1*%
%TO.N,+1V1*%
X-8225000Y-3400000D03*
%TO.P,C115,2*%
%TO.N,GND*%
X-9775000Y-3400000D03*
%TD*%
D38*
%TO.P,C203,1*%
%TO.N,Net-(P201-SHIELD)*%
X9200000Y10700000D03*
%TO.P,C203,2*%
%TO.N,GND*%
X9200000Y12250000D03*
%TD*%
D29*
%TO.P,R103,1*%
%TO.N,/usb_d+*%
X8175000Y450000D03*
%TO.P,R103,2*%
%TO.N,/d+*%
X6525000Y450000D03*
%TD*%
D26*
%TO.P,R304,1*%
%TO.N,/Peripherals/GP15{slash}ArrowUp*%
X-18725000Y-1100000D03*
%TO.P,R304,2*%
%TO.N,GND*%
X-17075000Y-1100000D03*
%TD*%
D39*
%TO.P,S101,A*%
%TO.N,/N_USBBOOT*%
X-11425000Y15200000D03*
%TO.P,S101,B*%
X-11425000Y9200000D03*
%TO.P,S101,C*%
%TO.N,GND*%
X-7675000Y15200000D03*
%TO.P,S101,D*%
X-7675000Y9200000D03*
%TD*%
D40*
%TO.P,Y101,1,1*%
%TO.N,Net-(C102-Pad1)*%
X-9250000Y1400000D03*
%TO.P,Y101,2,2*%
%TO.N,GND*%
X-7050000Y1400000D03*
%TO.P,Y101,3,3*%
%TO.N,Net-(U101-XIN)*%
X-7050000Y-300000D03*
%TO.P,Y101,4,4*%
%TO.N,GND*%
X-9250000Y-300000D03*
%TD*%
D41*
%TO.P,J201,1,Pin_1*%
%TO.N,Net-(D203-A)*%
X-18650000Y9750000D03*
%TO.P,J201,2,Pin_2*%
%TO.N,GND*%
X-16650000Y9750000D03*
D42*
%TO.P,J201,MP,MountPin*%
%TO.N,unconnected-(J201-MountPin-PadMP)*%
X-21000000Y15500000D03*
%TO.N,unconnected-(J201-MountPin-PadMP)_1*%
X-14300000Y15500000D03*
%TD*%
D27*
%TO.P,C109,1*%
%TO.N,GND*%
X5620000Y-4425000D03*
%TO.P,C109,2*%
%TO.N,+3V3*%
X6580000Y-4425000D03*
%TD*%
D29*
%TO.P,R306,1*%
%TO.N,/Peripherals/GP17{slash}ArrowDown*%
X22425000Y6600000D03*
%TO.P,R306,2*%
%TO.N,GND*%
X20775000Y6600000D03*
%TD*%
D31*
%TO.P,C107,1*%
%TO.N,GND*%
X5600000Y4180000D03*
%TO.P,C107,2*%
%TO.N,+3V3*%
X5600000Y3220000D03*
%TD*%
D32*
%TO.P,R307,1*%
%TO.N,/Peripherals/GP29{slash}MIC_OUT*%
X21269400Y14924800D03*
%TO.P,R307,2*%
%TO.N,GND*%
X21269400Y16574800D03*
%TD*%
D43*
%TO.P,C201,1*%
%TO.N,/VBUS*%
X16900000Y9600000D03*
%TO.P,C201,2*%
%TO.N,GND*%
X18800000Y9600000D03*
%TD*%
D28*
%TO.P,C303,1*%
%TO.N,Net-(U302-out)*%
X18182000Y16511800D03*
%TO.P,C303,2*%
%TO.N,/Peripherals/GP29{slash}MIC_OUT*%
X19732000Y16511800D03*
%TD*%
D31*
%TO.P,C110,1*%
%TO.N,GND*%
X4050000Y6480000D03*
%TO.P,C110,2*%
%TO.N,+3V3*%
X4050000Y5520000D03*
%TD*%
D28*
%TO.P,C112,1*%
%TO.N,+3V3*%
X6825000Y3500000D03*
%TO.P,C112,2*%
%TO.N,GND*%
X8375000Y3500000D03*
%TD*%
D44*
%TO.P,P201,A1,GND*%
%TO.N,GND*%
X-3200000Y10320000D03*
%TO.P,P201,A4,VBUS*%
%TO.N,/power-and-usb/usb_vcc*%
X-2400000Y10320000D03*
D45*
%TO.P,P201,A5,CC*%
%TO.N,Net-(P201-CC)*%
X-1250000Y10320000D03*
%TO.P,P201,A6,D+*%
%TO.N,/power-and-usb/USBC-D+*%
X-250000Y10320000D03*
%TO.P,P201,A7,D-*%
%TO.N,/power-and-usb/USBC-D-*%
X250000Y10320000D03*
%TO.P,P201,A8*%
%TO.N,N/C*%
X1250000Y10320000D03*
D44*
%TO.P,P201,A9,VBUS*%
%TO.N,/power-and-usb/usb_vcc*%
X2400000Y10320000D03*
%TO.P,P201,A12,GND*%
%TO.N,GND*%
X3200000Y10320000D03*
%TO.P,P201,B1,GND*%
X3200000Y10320000D03*
%TO.P,P201,B4,VBUS*%
%TO.N,/power-and-usb/usb_vcc*%
X2400000Y10320000D03*
D45*
%TO.P,P201,B5,VCONN*%
%TO.N,Net-(P201-VCONN)*%
X1750000Y10320000D03*
%TO.P,P201,B6*%
%TO.N,N/C*%
X750000Y10320000D03*
%TO.P,P201,B7*%
X-750000Y10320000D03*
%TO.P,P201,B8*%
X-1750000Y10320000D03*
D44*
%TO.P,P201,B9,VBUS*%
%TO.N,/power-and-usb/usb_vcc*%
X-2400000Y10320000D03*
%TO.P,P201,B12,GND*%
%TO.N,GND*%
X-3200000Y10320000D03*
D46*
%TO.P,P201,S1,SHIELD*%
%TO.N,Net-(P201-SHIELD)*%
X-5110000Y14825000D03*
X-5110000Y10895000D03*
X5110000Y14825000D03*
X5110000Y10895000D03*
%TD*%
D47*
%TO.P,C304,1*%
%TO.N,+3V3*%
X18195000Y14950000D03*
%TO.P,C304,2*%
%TO.N,GND*%
X18195000Y13400000D03*
%TD*%
D29*
%TO.P,R101,1*%
%TO.N,/N_USBBOOT*%
X22525000Y-9350000D03*
%TO.P,R101,2*%
%TO.N,/FLASH_CS*%
X20875000Y-9350000D03*
%TD*%
D37*
%TO.P,C103,1*%
%TO.N,Net-(U101-XIN)*%
X-8225000Y-1900000D03*
%TO.P,C103,2*%
%TO.N,GND*%
X-9775000Y-1900000D03*
%TD*%
D27*
%TO.P,C108,1*%
%TO.N,GND*%
X-3730000Y6250000D03*
%TO.P,C108,2*%
%TO.N,+3V3*%
X-2770000Y6250000D03*
%TD*%
D28*
%TO.P,C102,1*%
%TO.N,Net-(C102-Pad1)*%
X-9575000Y3000000D03*
%TO.P,C102,2*%
%TO.N,GND*%
X-8025000Y3000000D03*
%TD*%
D29*
%TO.P,R102,1*%
%TO.N,Net-(U101-RUN)*%
X-16025000Y4950000D03*
%TO.P,R102,2*%
%TO.N,+3V3*%
X-17675000Y4950000D03*
%TD*%
D48*
%TO.P,U201,1,GND*%
%TO.N,GND*%
X12400000Y7300000D03*
%TO.P,U201,2,VO*%
%TO.N,+3V3*%
X14700000Y7300000D03*
D49*
X14700000Y1000000D03*
D48*
%TO.P,U201,3,VI*%
%TO.N,/VBUS*%
X17000000Y7300000D03*
%TD*%
D26*
%TO.P,R303,1*%
%TO.N,/Peripherals/GP14{slash}ArrowLeft*%
X-18725000Y-2600000D03*
%TO.P,R303,2*%
%TO.N,GND*%
X-17075000Y-2600000D03*
%TD*%
D50*
%TO.P,C202,1*%
%TO.N,+3V3*%
X14600000Y9550000D03*
%TO.P,C202,2*%
%TO.N,GND*%
X12700000Y9550000D03*
%TD*%
D51*
%TO.P,D201,1,K*%
%TO.N,/VBUS*%
X11100000Y14800000D03*
%TO.P,D201,2,A*%
%TO.N,/power-and-usb/usb_vcc*%
X11100000Y11500000D03*
%TD*%
D52*
%TO.P,U302,1,out*%
%TO.N,Net-(U302-out)*%
X16874200Y16530200D03*
%TO.P,U302,2,VDD*%
%TO.N,+3V3*%
X15724200Y16530200D03*
%TO.P,U302,3,GND*%
%TO.N,GND*%
X15724200Y13870200D03*
%TO.P,U302,4,GND*%
X16874200Y13870200D03*
%TD*%
D51*
%TO.P,D203,1,K*%
%TO.N,/VBUS*%
X-23400000Y13000000D03*
%TO.P,D203,2,A*%
%TO.N,Net-(D203-A)*%
X-23400000Y9700000D03*
%TD*%
D31*
%TO.P,C106,1*%
%TO.N,GND*%
X4600000Y3380000D03*
%TO.P,C106,2*%
%TO.N,+3V3*%
X4600000Y2420000D03*
%TD*%
D38*
%TO.P,C114,1*%
%TO.N,+1V1*%
X-6750000Y-3425000D03*
%TO.P,C114,2*%
%TO.N,GND*%
X-6750000Y-1875000D03*
%TD*%
D53*
%TO.P,D202,1,IO1*%
%TO.N,/power-and-usb/USBC-D+*%
X2275000Y7700000D03*
D54*
%TO.P,D202,2,GND*%
%TO.N,GND*%
X2225000Y8200000D03*
%TO.P,D202,3,IO2*%
%TO.N,/power-and-usb/USBC-D-*%
X2225000Y8700000D03*
%TO.P,D202,4,IO2*%
%TO.N,/usb_d-*%
X3375000Y8700000D03*
%TO.P,D202,5,VCC*%
%TO.N,/power-and-usb/usb_vcc*%
X3375000Y8200000D03*
%TO.P,D202,6,IO1*%
%TO.N,/usb_d+*%
X3375000Y7700000D03*
%TD*%
D29*
%TO.P,R104,1*%
%TO.N,/usb_d-*%
X8175000Y1950000D03*
%TO.P,R104,2*%
%TO.N,/d-*%
X6525000Y1950000D03*
%TD*%
D55*
%TO.N,GND*%
X1143000Y8204200D03*
%TO.N,+3V3*%
X-895292Y2250000D03*
X17500000Y-300000D03*
X-31075000Y-4900000D03*
X-11200000Y10600000D03*
X850000Y-2150002D03*
X17450000Y1750000D03*
X17500000Y700000D03*
X-7518400Y11709400D03*
X-2400000Y-50000D03*
X10174999Y13591117D03*
X15650000Y-450000D03*
X7100000Y6150000D03*
X-15889249Y3010751D03*
X-26800000Y-3200000D03*
X-23200000Y3550000D03*
X12750000Y11550000D03*
X3074712Y14300000D03*
X-19500000Y4200000D03*
X20800000Y13350000D03*
X-27800000Y-3800000D03*
X-26278962Y6635456D03*
X13700000Y12000000D03*
X13700000Y11050000D03*
X-30961402Y4252004D03*
X7775000Y-4350000D03*
%TO.N,GND*%
X-13475000Y11525000D03*
X-10607953Y-506466D03*
X9207109Y6105452D03*
X2152609Y-52849D03*
X-925288Y-2150000D03*
X22150000Y16150000D03*
X15750000Y-1500000D03*
X1082270Y2343418D03*
X-24400000Y-600000D03*
X15671800Y5197600D03*
X-7000000Y2400000D03*
X10876305Y12894624D03*
X-2950000Y14350000D03*
X-26439499Y7571796D03*
X4325000Y-4375200D03*
X22600000Y7625000D03*
X-25500000Y12650000D03*
X3475134Y4078016D03*
X23650000Y-8800000D03*
X-8850000Y9800000D03*
X-12800000Y8412493D03*
X-21350000Y10550000D03*
X-17800000Y-1800000D03*
X19925000Y8150000D03*
X-4925290Y6039378D03*
X16000000Y14850000D03*
X21073800Y12440309D03*
X-2350000Y-1000000D03*
X-22550000Y16100000D03*
X11717791Y8867791D03*
X-6734469Y12351458D03*
X1200000Y13250000D03*
X9800000Y8300000D03*
X-16650000Y12000000D03*
X13550000Y8600000D03*
X-33150000Y5650000D03*
X-18900000Y3400000D03*
X-15212464Y-366410D03*
%TO.N,/VBUS*%
X12639222Y14364746D03*
X-24150000Y14100000D03*
X18450000Y7700000D03*
X18450000Y6600000D03*
X-22550000Y14050000D03*
X12200000Y15100000D03*
X18500000Y11150000D03*
%TO.N,/Peripherals/GP29{slash}MIC_OUT*%
X1303603Y6573800D03*
X21700000Y14300000D03*
%TO.N,/Peripherals/GP12{slash}NEOPIXEL*%
X12500000Y13425000D03*
X-6377170Y-5444523D03*
%TO.N,/Peripherals/GP11{slash}SERVO_1*%
X-4276200Y-4423063D03*
%TO.N,/Peripherals/GP10{slash}SERVO_0*%
X-5382209Y-4917791D03*
%TO.N,/Peripherals/GP5{slash}SERVO_3*%
X1354998Y-5670619D03*
X14200000Y13400000D03*
X13331241Y-9276251D03*
X19673800Y-10369558D03*
X19532842Y-9117158D03*
%TO.N,/Peripherals/GP4{slash}SERVO_2*%
X11900000Y-3950000D03*
X750000Y-4677600D03*
X15200000Y12950000D03*
%TO.N,/Peripherals/GP8{slash}Grove_D1*%
X-1185000Y-6520495D03*
%TO.N,/Peripherals/GP9{slash}Grove_D0*%
X19860113Y-2578792D03*
X-2785652Y-4727400D03*
X-3800000Y-13029600D03*
%TO.N,/Peripherals/GP19*%
X-19118028Y-4195864D03*
X17400000Y-14646400D03*
X-20784946Y-7701842D03*
%TO.N,/Peripherals/GP26*%
X-22193380Y-9226200D03*
X-21390002Y11775000D03*
X-28000000Y-226200D03*
X-22432209Y10482209D03*
%TO.N,/Peripherals/GP21*%
X-19052209Y-14787791D03*
X-15566552Y-14178599D03*
%TO.N,/Peripherals/GP0*%
X20621400Y-11525000D03*
%TO.N,/Peripherals/GP17{slash}ArrowDown*%
X-11588644Y-13940600D03*
%TO.N,/Peripherals/GP16{slash}ArrowRight*%
X-14735820Y-4378599D03*
X-9100000Y-9626200D03*
X13175000Y-13821000D03*
X8077824Y-9199998D03*
X-6382680Y-9381911D03*
%TO.N,/Peripherals/GP27*%
X-25267510Y8356193D03*
X-25242791Y11042791D03*
X-18825000Y-9443800D03*
X-28619455Y-1023242D03*
%TO.N,/Peripherals/GP22*%
X-20350000Y-15200000D03*
X-6332706Y-8433224D03*
X18589590Y-14646401D03*
%TO.N,/Peripherals/GP23*%
X-23600000Y-13250000D03*
X-20240251Y-13168851D03*
%TO.N,/Peripherals/GP2*%
X20295638Y-13367406D03*
%TO.N,/Peripherals/GP14{slash}ArrowLeft*%
X-11755342Y-4439687D03*
X-22157209Y-7842791D03*
%TO.N,/Peripherals/GP3*%
X19500000Y-14375000D03*
X8871250Y-7423166D03*
%TO.N,/SWD*%
X-13785833Y-4373205D03*
%TO.N,/Peripherals/GP15{slash}ArrowUp*%
X-17550000Y200000D03*
X-12188986Y-3578386D03*
%TO.N,/Peripherals/GP1*%
X20621400Y-12475003D03*
%TO.N,/Peripherals/GP18*%
X-16650000Y-5100000D03*
X-20592791Y-8632209D03*
%TO.N,/Peripherals/GP24*%
X-16245376Y-8830957D03*
X-24595449Y-11445449D03*
%TO.N,/Peripherals/GP28*%
X-25921953Y10378529D03*
X-20043380Y-10243380D03*
X-30240536Y-860167D03*
X-25278600Y7406255D03*
%TO.N,/Peripherals/GP20{slash}Buzzer*%
X-15807209Y-1107209D03*
%TO.N,/N_USBBOOT*%
X-12350000Y10600000D03*
X-11950000Y14050000D03*
X23374764Y7075236D03*
X10750000Y7650000D03*
%TO.N,Net-(U101-RUN)*%
X-13256980Y5928600D03*
X-11550000Y4013239D03*
%TO.N,/Peripherals/GP6{slash}IMU_SDA*%
X-22200000Y-14600000D03*
X-522005Y-4677600D03*
%TO.N,/Peripherals/GP7{slash}IMU_SCL*%
X-24255134Y-14455134D03*
X-1476149Y-5185634D03*
%TO.N,+1V1*%
X-10749499Y-1445863D03*
X-4867811Y426199D03*
X4950000Y-450000D03*
%TO.N,/Peripherals/GP13{slash}INTR*%
X-28250000Y1550000D03*
X-4925290Y-3202209D03*
X-14209998Y10475291D03*
%TO.N,/FLASH_SD3*%
X14750000Y-1700000D03*
X15000000Y-4900002D03*
%TO.N,/FLASH_SD0*%
X12210100Y-2500001D03*
X5279552Y-2520448D03*
%TO.N,/Peripherals/GP25{slash}LED*%
X-24544995Y-12394111D03*
X-21154551Y-12254551D03*
%TO.N,/power-and-usb/usb_vcc*%
X4741053Y8206417D03*
X-2129850Y12011938D03*
X1609780Y11918717D03*
%TO.N,/usb_d+*%
X13433760Y4513797D03*
X17571232Y3728768D03*
%TO.N,/usb_d-*%
X16828768Y4471232D03*
X14483760Y4513797D03*
%TD*%
D56*
%TO.N,/d+*%
X6525000Y450000D02*
X5896672Y450000D01*
X5795472Y551200D02*
X5711299Y551200D01*
X5896672Y450000D02*
X5795472Y551200D01*
X5711299Y551200D02*
X5262499Y1000000D01*
X5262499Y1000000D02*
X3437500Y1000000D01*
%TO.N,/d-*%
X6525000Y1950000D02*
X5812499Y1950000D01*
X5812499Y1950000D02*
X5262499Y1400000D01*
X5262499Y1400000D02*
X3437500Y1400000D01*
%TO.N,/usb_d-*%
X9520344Y1400000D02*
X9725150Y1400000D01*
X8175000Y1950000D02*
X8804658Y1950000D01*
X11194440Y2393292D02*
G75*
G03*
X11533806Y2393338I169660J169708D01*
G01*
X10928448Y2659284D02*
X11194440Y2393292D01*
X16770189Y3953032D02*
G75*
G03*
X16828810Y4094454I-141389J141468D01*
G01*
X10770174Y1629618D02*
G75*
G03*
X10770151Y1969005I-169674J169682D01*
G01*
X12503307Y3171800D02*
X14248380Y3171800D01*
X8946079Y1891422D02*
X9378922Y1458579D01*
X9725150Y1400000D02*
X10375150Y1400000D01*
X16047535Y3230378D02*
X16770189Y3953032D01*
X12253777Y3113221D02*
G75*
G02*
X12395199Y3171801I141423J-141421D01*
G01*
X15906114Y3171800D02*
G75*
G03*
X16047528Y3230385I-14J200000D01*
G01*
X10589038Y2659285D02*
G75*
G02*
X10928405Y2659242I169662J-169685D01*
G01*
X10504184Y2235021D02*
G75*
G02*
X10504209Y2574404I169716J169679D01*
G01*
X10457713Y1400000D02*
G75*
G03*
X10599127Y1458585I-13J200000D01*
G01*
X9378922Y1458579D02*
G75*
G03*
X9520344Y1400031I141378J141421D01*
G01*
X14248380Y3171800D02*
X15906114Y3171800D01*
X8804658Y1950000D02*
G75*
G02*
X8946100Y1891443I42J-200000D01*
G01*
X10770175Y1969030D02*
X10504184Y2235021D01*
X10375150Y1400000D02*
X10457713Y1400000D01*
X10599134Y1458578D02*
X10770174Y1629618D01*
X10504183Y2574431D02*
X10589038Y2659285D01*
X16828768Y4094454D02*
X16828768Y4471232D01*
X12078323Y2937767D02*
X12243016Y3102460D01*
X11533852Y2393293D02*
X11618704Y2478147D01*
X11618704Y2478147D02*
X12078323Y2937767D01*
X12395199Y3171800D02*
X12503307Y3171800D01*
X12243016Y3102460D02*
X12253777Y3113221D01*
%TO.N,/usb_d+*%
X9378922Y941421D02*
G75*
G02*
X9520344Y999969I141378J-141421D01*
G01*
X8804658Y450000D02*
G75*
G03*
X8946100Y508557I42J200000D01*
G01*
X16213221Y2830378D02*
G75*
G02*
X16071800Y2771800I-141421J141422D01*
G01*
X17053032Y3670189D02*
G75*
G02*
X17194454Y3728810I141468J-141389D01*
G01*
X10764822Y1058578D02*
G75*
G02*
X10623401Y999999I-141422J141422D01*
G01*
X12419465Y2713221D02*
G75*
G02*
X12560887Y2771809I141435J-141421D01*
G01*
X8804658Y450000D02*
X8175000Y450000D01*
X9378922Y941421D02*
X8946079Y508578D01*
X10623401Y1000000D02*
X9520344Y1000000D01*
X16071800Y2771800D02*
X12560887Y2771800D01*
X17053032Y3670189D02*
X16213221Y2830378D01*
X17571232Y3728768D02*
X17194454Y3728768D01*
X12419465Y2713221D02*
X10764822Y1058578D01*
%TO.N,/usb_d-*%
X5357475Y8544590D02*
G75*
G02*
X5416016Y8403169I-141475J-141390D01*
G01*
X4937805Y8881417D02*
G75*
G02*
X5079228Y8822839I-5J-200017D01*
G01*
X13031136Y5966421D02*
G75*
G03*
X12889714Y6025010I-141436J-141421D01*
G01*
X4060340Y8822839D02*
G75*
G02*
X4201761Y8881440I141460J-141439D01*
G01*
X3854658Y8700000D02*
G75*
G03*
X3996101Y8758558I42J200000D01*
G01*
X10937866Y6083578D02*
G75*
G03*
X11079287Y6024991I141434J141422D01*
G01*
X8680023Y8341421D02*
G75*
G03*
X8538601Y8400001I-141423J-141421D01*
G01*
X3996080Y8758579D02*
X4060340Y8822839D01*
X3375000Y8700000D02*
X3854658Y8700000D01*
X5416053Y8400000D02*
X8538601Y8400000D01*
X5079227Y8822838D02*
X5357475Y8544590D01*
X4201761Y8881417D02*
X4937805Y8881417D01*
X5416053Y8403169D02*
X5416053Y8400000D01*
X8680023Y8341421D02*
X10937866Y6083578D01*
X11079287Y6025000D02*
X12889714Y6025000D01*
X13031136Y5966421D02*
X14483760Y4513797D01*
%TO.N,/power-and-usb/USBC-D-*%
X200000Y8903287D02*
G75*
G03*
X258586Y8761872I200000J13D01*
G01*
X643746Y8659541D02*
G75*
G02*
X360880Y8659515I-141446J141459D01*
G01*
X2057157Y8615000D02*
G75*
G03*
X2198600Y8673558I43J200000D01*
G01*
X946248Y8879200D02*
G75*
G03*
X804802Y8820645I-48J-200000D01*
G01*
X1716578Y8673578D02*
G75*
G03*
X1857999Y8614999I141422J141422D01*
G01*
X1569535Y8820621D02*
G75*
G03*
X1428113Y8879209I-141435J-141421D01*
G01*
%TO.N,/power-and-usb/USBC-D+*%
X1857999Y7785000D02*
G75*
G03*
X1716579Y7726421I1J-200000D01*
G01*
X2248579Y7726421D02*
G75*
G03*
X2107157Y7784970I-141379J-141421D01*
G01*
X-141421Y8596177D02*
G75*
G02*
X-200001Y8737599I141421J141423D01*
G01*
X1436513Y7529200D02*
G75*
G03*
X1577928Y7587786I-13J200000D01*
G01*
X946248Y7529200D02*
G75*
G02*
X804803Y7587754I-48J200000D01*
G01*
X429756Y7962849D02*
X804827Y7587778D01*
X-250000Y10320000D02*
X-250000Y9457499D01*
X429756Y8025000D02*
X429756Y7962849D01*
%TO.N,/power-and-usb/USBC-D-*%
X250000Y10320000D02*
X250000Y9457499D01*
%TO.N,/power-and-usb/USBC-D+*%
X-141421Y8596177D02*
X429756Y8025000D01*
X946248Y7529200D02*
X1436513Y7529200D01*
X-250000Y9457499D02*
X-200000Y9407499D01*
X-200000Y9407499D02*
X-200000Y8737599D01*
X1577935Y7587779D02*
X1716578Y7726422D01*
X1857999Y7785000D02*
X2107157Y7785000D01*
%TO.N,/power-and-usb/USBC-D-*%
X643746Y8659541D02*
X804826Y8820621D01*
%TO.N,/power-and-usb/USBC-D+*%
X2248579Y7726421D02*
X2275000Y7700000D01*
%TO.N,/power-and-usb/USBC-D-*%
X258579Y8761865D02*
X360904Y8659540D01*
X250000Y9457499D02*
X200000Y9407499D01*
X200000Y9407499D02*
X200000Y8903287D01*
X2198579Y8673579D02*
X2225000Y8700000D01*
X946248Y8879200D02*
X1428113Y8879200D01*
X1569535Y8820621D02*
X1716578Y8673578D01*
X1857999Y8615000D02*
X2057157Y8615000D01*
%TO.N,GND*%
X1147200Y8200000D02*
X1143000Y8204200D01*
X2225000Y8200000D02*
X1147200Y8200000D01*
D57*
%TO.N,+3V3*%
X6545000Y3220000D02*
X6825000Y3500000D01*
D58*
X-1000000Y3437500D02*
X-1000000Y2354708D01*
D57*
X17304400Y14950000D02*
X18195000Y14950000D01*
D56*
X15650000Y50000D02*
X14700000Y1000000D01*
D57*
X6150000Y-300000D02*
X13400000Y-300000D01*
X19719000Y13350000D02*
X19719000Y13750000D01*
X850000Y-2150002D02*
X226202Y-2773800D01*
X4800000Y2420000D02*
X5600000Y3220000D01*
X2600000Y-3850000D02*
X2600000Y-3437500D01*
D58*
X-17675000Y4796502D02*
X-15889249Y3010751D01*
D57*
X19719000Y13750000D02*
X18519000Y14950000D01*
X13400000Y-300000D02*
X14700000Y1000000D01*
X4600000Y2420000D02*
X4800000Y2420000D01*
X6825000Y5000000D02*
X6825000Y5875000D01*
D58*
X-17675000Y4950000D02*
X-17675000Y4796502D01*
D57*
X7309600Y-5265400D02*
X4015400Y-5265400D01*
X3437500Y600001D02*
X3437500Y200000D01*
X3437500Y200000D02*
X5650000Y200000D01*
D56*
X15650000Y-450000D02*
X15650000Y50000D01*
D57*
X17200000Y-5505000D02*
X17780000Y-6085000D01*
X3125200Y-4375200D02*
X2600000Y-3850000D01*
X7775000Y-4800000D02*
X7309600Y-5265400D01*
D58*
X-1000000Y2354708D02*
X-895292Y2250000D01*
D57*
X4420000Y2600000D02*
X4600000Y2420000D01*
X15724200Y16530200D02*
X17304400Y14950000D01*
X5650000Y200000D02*
X6150000Y-300000D01*
X4379999Y2199999D02*
X4600000Y2420000D01*
X6580000Y-4425000D02*
X7700000Y-4425000D01*
X-32900901Y1000000D02*
X-32900901Y-2600000D01*
X17780000Y-6085000D02*
X17780000Y-7930000D01*
X2600000Y5020000D02*
X3100000Y5520000D01*
X6825000Y3500000D02*
X6825000Y5000000D01*
X7700000Y-4425000D02*
X7775000Y-4350000D01*
X6470000Y5520000D02*
X7100000Y6150000D01*
X19719000Y13350000D02*
X20800000Y13350000D01*
D58*
X-2770000Y5650000D02*
X-2420000Y5300000D01*
D57*
X18519000Y14950000D02*
X18195000Y14950000D01*
X-2650000Y200000D02*
X-2400000Y-50000D01*
D58*
X-2420000Y5300000D02*
X-2286420Y5300000D01*
D57*
X5600000Y3220000D02*
X6545000Y3220000D01*
X7775000Y-4350000D02*
X7775000Y-4800000D01*
X5000000Y5520000D02*
X6470000Y5520000D01*
X-773800Y-2773800D02*
X-1000000Y-3000000D01*
X6825000Y5875000D02*
X7100000Y6150000D01*
D58*
X-2770000Y6250000D02*
X-2770000Y5650000D01*
D57*
X-3437500Y200000D02*
X-2650000Y200000D01*
X-1000000Y-3000000D02*
X-1000000Y-3437500D01*
X4015400Y-5265400D02*
X3125200Y-4375200D01*
X3437500Y2199999D02*
X4379999Y2199999D01*
X2600000Y3437500D02*
X2600000Y5020000D01*
X3437500Y2600000D02*
X4420000Y2600000D01*
D58*
X-1000000Y4013580D02*
X-1000000Y3437500D01*
D57*
X5000000Y5520000D02*
X3100000Y5520000D01*
X226202Y-2773800D02*
X-773800Y-2773800D01*
D58*
X-2286420Y5300000D02*
X-1000000Y4013580D01*
D57*
%TO.N,GND*%
X-7050000Y1400000D02*
X-7050000Y2350000D01*
X21269400Y16574800D02*
X21725200Y16574800D01*
D59*
X12400000Y7300000D02*
X12400000Y9250000D01*
D58*
X18800000Y9475000D02*
X18800000Y9600000D01*
D57*
X15724200Y14574200D02*
X16000000Y14850000D01*
X-10607953Y-506466D02*
X-10401487Y-300000D01*
X5000000Y6480000D02*
X5080000Y6480000D01*
X15116400Y-866400D02*
X15750000Y-1500000D01*
X-17075000Y-1850000D02*
X-17750000Y-1850000D01*
D60*
X-16650000Y10000000D02*
X-15125000Y11525000D01*
D57*
X18195000Y13400000D02*
X17344400Y13400000D01*
D60*
X-15125000Y11525000D02*
X-13475000Y11525000D01*
D58*
X9949990Y12894624D02*
X9225000Y13619614D01*
D57*
X0Y0D02*
X2099760Y0D01*
D61*
X-8850000Y9800000D02*
X-8250000Y9200000D01*
X-8250000Y9200000D02*
X-7675000Y9200000D01*
D56*
X21800000Y7625000D02*
X20775000Y6600000D01*
D57*
X15724200Y13870200D02*
X16874200Y13870200D01*
D58*
X19925000Y8350000D02*
X18800000Y9475000D01*
D61*
X23575000Y-8800000D02*
X23650000Y-8800000D01*
D57*
X-3025000Y10145000D02*
X-3200000Y10320000D01*
D59*
X-3717600Y11850000D02*
X-3717600Y11880740D01*
D57*
X0Y0D02*
X-925288Y-925288D01*
X-9775000Y-3400000D02*
X-9775000Y-1900000D01*
D59*
X11717791Y8867791D02*
X12400000Y9550000D01*
D58*
X9150000Y12300000D02*
X9200000Y12250000D01*
X9207109Y6105452D02*
X9207109Y5832109D01*
D57*
X-17750000Y-1850000D02*
X-17800000Y-1800000D01*
D56*
X-2350000Y-1000000D02*
X-1000000Y-1000000D01*
D61*
X22525000Y-7750000D02*
X23575000Y-8800000D01*
D57*
X-10401487Y-300000D02*
X-9250000Y-300000D01*
X-8600000Y-2698800D02*
X-9398800Y-1900000D01*
D56*
X22600000Y7625000D02*
X21800000Y7625000D01*
X-3437500Y-1000000D02*
X-2350000Y-1000000D01*
D58*
X-7675000Y13291989D02*
X-6734469Y12351458D01*
D57*
X-7050000Y1400000D02*
X-8025000Y2375000D01*
D58*
X3475134Y4078016D02*
X3901984Y4078016D01*
D57*
X8536361Y6776200D02*
X9207109Y6105452D01*
D59*
X-4188318Y12351458D02*
X-6734469Y12351458D01*
D57*
X17344400Y13400000D02*
X16874200Y13870200D01*
D58*
X2374400Y12075600D02*
X3171914Y12075600D01*
X9200000Y12250000D02*
X9305366Y12250000D01*
D57*
X12921880Y-2326200D02*
X15473800Y-2326200D01*
D59*
X12400000Y9550000D02*
X12700000Y9550000D01*
D58*
X-3380000Y5900000D02*
X-3730000Y6250000D01*
D57*
X-925288Y-925288D02*
X-925288Y-2150000D01*
D58*
X9207109Y5832109D02*
X8375000Y5000000D01*
X9225000Y15300000D02*
X9225000Y13750000D01*
X3901984Y4078016D02*
X4600000Y3380000D01*
D57*
X5080000Y6480000D02*
X5376200Y6776200D01*
X-6750000Y-1875000D02*
X-7573800Y-2698800D01*
D56*
X-1000000Y-1000000D02*
X0Y0D01*
D57*
X15473800Y-2326200D02*
X15750000Y-2050000D01*
X5620000Y-4425000D02*
X4374800Y-4425000D01*
D58*
X3171914Y12075600D02*
X3570600Y11676914D01*
D60*
X-16650000Y12000000D02*
X-16650000Y10000000D01*
D58*
X3570600Y11676914D02*
X3570600Y10690600D01*
X5400000Y4180000D02*
X4600000Y3380000D01*
D57*
X3100000Y6480000D02*
X5000000Y6480000D01*
X21725200Y16574800D02*
X22150000Y16150000D01*
X-7050000Y2350000D02*
X-7000000Y2400000D01*
D59*
X-3717600Y11880740D02*
X-4188318Y12351458D01*
D58*
X8375000Y5000000D02*
X8375000Y3500000D01*
X5600000Y4180000D02*
X5400000Y4180000D01*
D57*
X-9250000Y-300000D02*
X-9250000Y-1375000D01*
X15750000Y-2050000D02*
X15750000Y-1500000D01*
D58*
X-4664668Y6300000D02*
X-4925290Y6039378D01*
D59*
X12400000Y9250000D02*
X12700000Y9550000D01*
D58*
X10876305Y12894624D02*
X9949990Y12894624D01*
D57*
X10000000Y-1695000D02*
X12290680Y-1695000D01*
D59*
X-3717600Y11850000D02*
X-3717600Y13582400D01*
D58*
X3570600Y10690600D02*
X3200000Y10320000D01*
D57*
X-3410000Y5270000D02*
X-3380000Y5300000D01*
D59*
X-3200000Y10320000D02*
X-3717600Y10837600D01*
D57*
X8358600Y-866400D02*
X15116400Y-866400D01*
D58*
X19925000Y8150000D02*
X19925000Y8350000D01*
X9305366Y12250000D02*
X9949990Y12894624D01*
D57*
X4374800Y-4425000D02*
X4325000Y-4375200D01*
D58*
X1200000Y13250000D02*
X2374400Y12075600D01*
D57*
X-17075000Y-1850000D02*
X-17075000Y-2600000D01*
D58*
X9225000Y13619614D02*
X9225000Y13750000D01*
D57*
X5376200Y6776200D02*
X8536361Y6776200D01*
D58*
X-4714668Y6250000D02*
X-4925290Y6039378D01*
D57*
X-9398800Y-1900000D02*
X-9775000Y-1900000D01*
X-30832438Y8409598D02*
X-30832438Y7525526D01*
D59*
X-3717600Y13582400D02*
X-2950000Y14350000D01*
D58*
X-3380000Y5300000D02*
X-3380000Y5900000D01*
X-3730000Y6250000D02*
X-4714668Y6250000D01*
D57*
X15724200Y13870200D02*
X15724200Y14574200D01*
D58*
X7700000Y12300000D02*
X9150000Y12300000D01*
D57*
X-7573800Y-2698800D02*
X-8600000Y-2698800D01*
D59*
X12700000Y9550000D02*
X12700000Y9450000D01*
X-3717600Y10837600D02*
X-3717600Y11850000D01*
D57*
X-17075000Y-1100000D02*
X-17075000Y-1850000D01*
X-9250000Y-1375000D02*
X-9775000Y-1900000D01*
D59*
X12700000Y9450000D02*
X13550000Y8600000D01*
D57*
X0Y1261148D02*
X1082270Y2343418D01*
X2099760Y0D02*
X2152609Y-52849D01*
X-28767562Y10474474D02*
X-30832438Y8409598D01*
X0Y0D02*
X0Y1261148D01*
D58*
X-7675000Y15200000D02*
X-7675000Y13291989D01*
D57*
X12290680Y-1695000D02*
X12921880Y-2326200D01*
X8125000Y-1100000D02*
X8358600Y-866400D01*
X-8025000Y2375000D02*
X-8025000Y3000000D01*
D60*
%TO.N,Net-(C102-Pad1)*%
X-9575000Y2425000D02*
X-9925000Y2075000D01*
X-11050000Y2075000D02*
X-9925000Y2075000D01*
X-9925000Y2075000D02*
X-9250000Y1400000D01*
X-9575000Y3000000D02*
X-9575000Y2425000D01*
D57*
%TO.N,Net-(U101-XIN)*%
X-6749999Y-600001D02*
X-3437500Y-600001D01*
X-8225000Y-1900000D02*
X-8225000Y-1475000D01*
X-8225000Y-1475000D02*
X-7050000Y-300000D01*
X-7050000Y-300000D02*
X-6749999Y-600001D01*
D61*
%TO.N,/VBUS*%
X-23400000Y13900000D02*
X-23250000Y14050000D01*
X-23400000Y13000000D02*
X-23400000Y13900000D01*
D57*
X12203968Y14800000D02*
X11100000Y14800000D01*
X11100000Y14800000D02*
X11900000Y14800000D01*
D61*
X-23600000Y14100000D02*
X-24150000Y14100000D01*
D57*
X11900000Y14800000D02*
X12200000Y15100000D01*
D61*
X-23250000Y14050000D02*
X-22550000Y14050000D01*
X-23400000Y13900000D02*
X-23600000Y14100000D01*
D57*
X-28134019Y-11260269D02*
X-28134019Y-11703993D01*
X12639222Y14364746D02*
X12203968Y14800000D01*
X-30448055Y-8946233D02*
X-28134019Y-11260269D01*
D58*
%TO.N,Net-(P201-SHIELD)*%
X5305000Y10700000D02*
X5110000Y10895000D01*
X5110000Y10895000D02*
X5058710Y10895000D01*
X9200000Y10700000D02*
X5305000Y10700000D01*
D57*
%TO.N,Net-(U302-out)*%
X16874200Y16530200D02*
X18163600Y16530200D01*
X18163600Y16530200D02*
X18182000Y16511800D01*
%TO.N,/Peripherals/GP29{slash}MIC_OUT*%
X2199999Y5677404D02*
X1303603Y6573800D01*
X21194200Y15000000D02*
X21269400Y14924800D01*
X21269400Y14924800D02*
X21269400Y14730600D01*
X19719000Y15000000D02*
X21194200Y15000000D01*
X19732000Y16511800D02*
X19732000Y15013000D01*
X2199999Y3437500D02*
X2199999Y5677404D01*
X21269400Y14730600D02*
X21700000Y14300000D01*
X19732000Y15013000D02*
X19719000Y15000000D01*
%TO.N,/Peripherals/GP12{slash}NEOPIXEL*%
X-6008409Y-4658410D02*
X-5449999Y-4100000D01*
X-6008409Y-5075762D02*
X-6008409Y-4658410D01*
X-4850000Y-4012500D02*
X-3437500Y-2600000D01*
X-5449999Y-4100000D02*
X-4850000Y-4100000D01*
X-4850000Y-4100000D02*
X-4850000Y-4012500D01*
X-6377170Y-5444523D02*
X-6008409Y-5075762D01*
%TO.N,/Peripherals/GP11{slash}SERVO_1*%
X-3960228Y-3623174D02*
X-2785674Y-3623174D01*
X-4137370Y-3800316D02*
X-3960228Y-3623174D01*
X-4137370Y-4284233D02*
X-4137370Y-3800316D01*
X-4276200Y-4423063D02*
X-4137370Y-4284233D01*
X-2785674Y-3623174D02*
X-2600000Y-3437500D01*
%TO.N,/Peripherals/GP10{slash}SERVO_0*%
X-2199999Y-3866991D02*
X-2199999Y-3437500D01*
X-3650000Y-4350000D02*
X-3401200Y-4101200D01*
X-3401200Y-4101200D02*
X-2434208Y-4101200D01*
X-5382209Y-4917791D02*
X-5250737Y-5049263D01*
X-5250737Y-5049263D02*
X-4016819Y-5049263D01*
X-2434208Y-4101200D02*
X-2199999Y-3866991D01*
X-3650000Y-4682444D02*
X-3650000Y-4350000D01*
X-4016819Y-5049263D02*
X-3650000Y-4682444D01*
%TO.N,/Peripherals/GP5{slash}SERVO_3*%
X200000Y-4322414D02*
X104195Y-4418219D01*
X18514714Y1035286D02*
X18677400Y872600D01*
X600000Y-5670619D02*
X1354998Y-5670619D01*
X21247600Y-13327400D02*
X20581394Y-13993606D01*
X16350542Y15476200D02*
X17552942Y14273800D01*
X200000Y-3437500D02*
X200000Y-4322414D01*
X19400000Y3100106D02*
X18514714Y2214820D01*
X15740619Y15476200D02*
X16350542Y15476200D01*
X18677400Y872600D02*
X18677400Y-6948476D01*
X19400000Y6308280D02*
X19400000Y3100106D01*
X13726200Y-9671210D02*
X13331241Y-9276251D01*
X18677400Y-6948476D02*
X19108600Y-7379676D01*
X20401200Y7301200D02*
X20392920Y7301200D01*
X20392920Y7301200D02*
X19400000Y6308280D01*
X13726200Y-10835124D02*
X13726200Y-9671210D01*
X14200000Y13935581D02*
X15740619Y15476200D01*
X104195Y-5174814D02*
X600000Y-5670619D01*
X20581394Y-13993606D02*
X20036257Y-13993606D01*
X104195Y-4418219D02*
X104195Y-5174814D01*
X20036257Y-13993606D02*
X19242651Y-13200000D01*
X19108600Y-8692916D02*
X19532842Y-9117158D01*
X20853600Y11132120D02*
X20853600Y7753600D01*
X18896200Y13089520D02*
X20853600Y11132120D01*
X18514714Y2214820D02*
X18514714Y1035286D01*
X19242651Y-13200000D02*
X16091076Y-13200000D01*
X17552942Y14273800D02*
X18526200Y14273800D01*
X19108600Y-7379676D02*
X19108600Y-8692916D01*
X20744558Y-10369558D02*
X21247600Y-10872600D01*
X20853600Y7753600D02*
X20401200Y7301200D01*
X16091076Y-13200000D02*
X13726200Y-10835124D01*
X21247600Y-10872600D02*
X21247600Y-13327400D01*
X18896200Y13903800D02*
X18896200Y13089520D01*
X14200000Y13400000D02*
X14200000Y13935581D01*
X18526200Y14273800D02*
X18896200Y13903800D01*
X19673800Y-10369558D02*
X20744558Y-10369558D01*
%TO.N,/Peripherals/GP4{slash}SERVO_2*%
X18806200Y-7504934D02*
X18375000Y-7073734D01*
X600001Y-3437500D02*
X600001Y-4527601D01*
X15275000Y-5775000D02*
X16700000Y-7200000D01*
X19097600Y3225364D02*
X19097600Y6433538D01*
X20551200Y7878858D02*
X20551200Y11006862D01*
X11900000Y-3950000D02*
X12950000Y-3950000D01*
X20267662Y7603600D02*
X20275942Y7603600D01*
X16847600Y-9047600D02*
X18574742Y-9047600D01*
X16700000Y-7200000D02*
X16700000Y-8900000D01*
X14775000Y-5775000D02*
X15275000Y-5775000D01*
X20551200Y11006862D02*
X18834262Y12723800D01*
X16700000Y-8900000D02*
X16847600Y-9047600D01*
X18574742Y-9047600D02*
X18806200Y-8816142D01*
X18375000Y-7073734D02*
X18375000Y-175297D01*
X18212314Y2340078D02*
X19097600Y3225364D01*
X18212314Y-12611D02*
X18212314Y2340078D01*
X19097600Y6433538D02*
X20267662Y7603600D01*
X12950000Y-3950000D02*
X14775000Y-5775000D01*
X18375000Y-175297D02*
X18212314Y-12611D01*
X600001Y-4527601D02*
X750000Y-4677600D01*
X18834262Y12723800D02*
X15426200Y12723800D01*
X18806200Y-8816142D02*
X18806200Y-7504934D01*
X20275942Y7603600D02*
X20551200Y7878858D01*
X15426200Y12723800D02*
X15200000Y12950000D01*
%TO.N,/Peripherals/GP8{slash}Grove_D1*%
X-2150000Y-4672308D02*
X-1400000Y-3922308D01*
X-1185000Y-6520495D02*
X-2150000Y-5555495D01*
X-1400000Y-3922308D02*
X-1400000Y-3437500D01*
X-2150000Y-5555495D02*
X-2150000Y-4672308D01*
%TO.N,/Peripherals/GP9{slash}Grove_D0*%
X14246258Y-13518600D02*
X16000258Y-15272600D01*
X19525000Y-7777836D02*
X19525000Y-7368418D01*
X21151200Y-8451200D02*
X20198364Y-8451200D01*
X12591819Y-13518600D02*
X12915619Y-13194800D01*
X13758181Y-13518600D02*
X14246258Y-13518600D01*
X-3800000Y-13029600D02*
X-3205800Y-13623800D01*
X19824742Y-15272600D02*
X21550000Y-13547342D01*
X-3205800Y-13623800D02*
X-3100600Y-13518600D01*
X-2785652Y-4727400D02*
X-2605302Y-4547050D01*
X16000258Y-15272600D02*
X19824742Y-15272600D01*
X18979800Y-6823218D02*
X18979800Y-3295200D01*
X20198364Y-8451200D02*
X19525000Y-7777836D01*
X-1800000Y-3894650D02*
X-1800000Y-3437500D01*
X-2452400Y-4547050D02*
X-1800000Y-3894650D01*
X12915619Y-13194800D02*
X13434381Y-13194800D01*
X21550000Y-8850000D02*
X21151200Y-8451200D01*
X-3100600Y-13518600D02*
X12591819Y-13518600D01*
X-2605302Y-4547050D02*
X-2452400Y-4547050D01*
X19696208Y-2578792D02*
X19860113Y-2578792D01*
X19525000Y-7368418D02*
X18979800Y-6823218D01*
X21550000Y-13547342D02*
X21550000Y-8850000D01*
X13434381Y-13194800D02*
X13758181Y-13518600D01*
X18979800Y-3295200D02*
X19696208Y-2578792D01*
%TO.N,/Peripherals/GP19*%
X-21261788Y-7225000D02*
X-21889419Y-7225000D01*
X-15240000Y-14804799D02*
X-14592401Y-14157200D01*
X-20784946Y-7701842D02*
X-21261788Y-7225000D01*
X-18775000Y-4175000D02*
X-19097164Y-4175000D01*
X-4652916Y4772600D02*
X-5921072Y4772600D01*
X-8753768Y-13314400D02*
X-7842768Y-12403400D01*
X-7842768Y-12403400D02*
X5686600Y-12403400D01*
X-21897828Y-7216591D02*
X-22441591Y-7216591D01*
X-21889419Y-7225000D02*
X-21897828Y-7216591D01*
X-14592401Y-14157200D02*
X-13774226Y-14157200D01*
X-5921072Y4772600D02*
X-6695111Y5546639D01*
X14075913Y-12701229D02*
X16021084Y-14646400D01*
X-15423800Y-2613958D02*
X-15423800Y-3071881D01*
X16021084Y-14646400D02*
X17400000Y-14646400D01*
X-15423800Y-3071881D02*
X-15843519Y-3491600D01*
X-12931426Y-13314400D02*
X-8753768Y-13314400D01*
X7620000Y-10470000D02*
X9851229Y-12701229D01*
X-22819580Y-7594580D02*
X-22819580Y-10202762D01*
X-12325703Y5546639D02*
X-13604800Y4267542D01*
X-16977825Y-13900000D02*
X-16073026Y-14804799D01*
X-16073026Y-14804799D02*
X-15240000Y-14804799D01*
X9851229Y-12701229D02*
X14075913Y-12701229D01*
X-15843519Y-3491600D02*
X-18091600Y-3491600D01*
X-22819580Y-10202762D02*
X-21797600Y-11224742D01*
X-13774226Y-14157200D02*
X-12931426Y-13314400D01*
X-13604800Y4267542D02*
X-13604800Y-794958D01*
X5686600Y-12403400D02*
X7620000Y-10470000D01*
X-4039316Y4159000D02*
X-4652916Y4772600D01*
X-2199999Y3875000D02*
X-2483999Y4159000D01*
X-18775000Y-4175000D02*
X-18844800Y-4244800D01*
X-2483999Y4159000D02*
X-4039316Y4159000D01*
X-13604800Y-794958D02*
X-15423800Y-2613958D01*
X-2199999Y3437500D02*
X-2199999Y3875000D01*
X-21797600Y-11224742D02*
X-21797600Y-12497084D01*
X-21797600Y-12497084D02*
X-20394684Y-13900000D01*
X-20394684Y-13900000D02*
X-16977825Y-13900000D01*
X-19097164Y-4175000D02*
X-19118028Y-4195864D01*
X-6695111Y5546639D02*
X-12325703Y5546639D01*
X-22441591Y-7216591D02*
X-22819580Y-7594580D01*
X-18091600Y-3491600D02*
X-18775000Y-4175000D01*
%TO.N,/Peripherals/GP26*%
X-7483200Y8066800D02*
X-7076200Y8473800D01*
X-20528351Y-12121649D02*
X-20409749Y-12240251D01*
X-20440002Y12725000D02*
X-13528858Y12725000D01*
X-19148263Y-12947600D02*
X-14275258Y-12947600D01*
X-22193380Y-9226200D02*
X-22193380Y-9834278D01*
X-20409749Y-12240251D02*
X-19855612Y-12240251D01*
X-7076200Y8473800D02*
X-7068258Y8473800D01*
X-8566800Y8066800D02*
X-7483200Y8066800D01*
X-24350000Y10194684D02*
X-24350000Y6077658D01*
X-13528858Y12725000D02*
X-12275258Y11471400D01*
X-24350000Y6077658D02*
X-28251458Y2176200D01*
X-22782209Y10482209D02*
X-23150000Y10850000D01*
X-12275258Y11471400D02*
X-10671400Y11471400D01*
X-9650000Y10450000D02*
X-9650000Y9150000D01*
X-14275258Y-12947600D02*
X-13432458Y-12104800D01*
X-22432209Y10482209D02*
X-22782209Y10482209D01*
X-10671400Y11471400D02*
X-9650000Y10450000D01*
X1000000Y5044684D02*
X1000000Y3437500D01*
X-6813151Y8728907D02*
X-2684223Y8728907D01*
X-23150000Y10850000D02*
X-23694684Y10850000D01*
X-19855612Y-12240251D02*
X-19148263Y-12947600D01*
X-28251458Y2176200D02*
X-28509381Y2176200D01*
X-28311781Y-226200D02*
X-28000000Y-226200D01*
X-23694684Y10850000D02*
X-24350000Y10194684D01*
X-28876200Y338219D02*
X-28311781Y-226200D01*
X-28509381Y2176200D02*
X-28876200Y1809381D01*
X-9650000Y9150000D02*
X-8566800Y8066800D01*
X-28876200Y1809381D02*
X-28876200Y338219D01*
X-13432458Y-12104800D02*
X-9254800Y-12104800D01*
X-7068258Y8473800D02*
X-6813151Y8728907D01*
X-9254800Y-12104800D02*
X-7620000Y-10470000D01*
X-2684223Y8728907D02*
X1000000Y5044684D01*
X-20528351Y-11499307D02*
X-20528351Y-12121649D01*
X-22193380Y-9834278D02*
X-20528351Y-11499307D01*
X-21390002Y11775000D02*
X-20440002Y12725000D01*
%TO.N,/Peripherals/GP21*%
X-2213800Y4763800D02*
X-1400000Y3950000D01*
X-6738830Y6554800D02*
X-5584030Y5400000D01*
X-13899484Y-13854800D02*
X-13056684Y-13012000D01*
X-8879026Y-13012000D02*
X-7968026Y-12101000D01*
X-20519942Y-14202400D02*
X-22100000Y-12622342D01*
X-4425000Y5400000D02*
X-3788800Y4763800D01*
X-3788800Y4763800D02*
X-2213800Y4763800D01*
X-19052209Y-14787791D02*
X-19637600Y-14202400D01*
X-22100000Y-12622342D02*
X-22100000Y-11350000D01*
X3449000Y-12101000D02*
X5080000Y-10470000D01*
X-5584030Y5400000D02*
X-4425000Y5400000D01*
X-21800000Y6000000D02*
X-14071161Y6000000D01*
X-26450000Y-7000000D02*
X-27300000Y-7000000D01*
X-29150000Y-5150000D02*
X-29150000Y-4150000D01*
X-19637600Y-14202400D02*
X-20519942Y-14202400D01*
X-24150000Y3650000D02*
X-21800000Y6000000D01*
X-22100000Y-11350000D02*
X-26450000Y-7000000D01*
X-1400000Y3950000D02*
X-1400000Y3437500D01*
X-7968026Y-12101000D02*
X3449000Y-12101000D01*
X-14071161Y6000000D02*
X-13516361Y6554800D01*
X-13516361Y6554800D02*
X-6738830Y6554800D01*
X-15566552Y-14178599D02*
X-15242753Y-13854800D01*
X-27300000Y-7000000D02*
X-29150000Y-5150000D01*
X-13056684Y-13012000D02*
X-8879026Y-13012000D01*
X-29150000Y-4150000D02*
X-24150000Y850000D01*
X-24150000Y850000D02*
X-24150000Y3650000D01*
X-15242753Y-13854800D02*
X-13899484Y-13854800D01*
%TO.N,/Peripherals/GP0*%
X16694684Y-9750000D02*
X15240000Y-8295316D01*
X8617800Y-5567800D02*
X9242166Y-6192166D01*
X15240000Y-7554419D02*
X15240000Y-7930000D01*
X16694684Y-10835950D02*
X16694684Y-9750000D01*
X15240000Y-8295316D02*
X15240000Y-7930000D01*
X20621400Y-11525000D02*
X17383734Y-11525000D01*
X3867800Y-5567800D02*
X8617800Y-5567800D01*
X2199999Y-3899999D02*
X3867800Y-5567800D01*
X2199999Y-3437500D02*
X2199999Y-3899999D01*
X9242166Y-6192166D02*
X13877747Y-6192166D01*
X13877747Y-6192166D02*
X15240000Y-7554419D01*
X17383734Y-11525000D02*
X16694684Y-10835950D01*
%TO.N,/Peripherals/GP17{slash}ArrowDown*%
X-20947600Y-9872600D02*
X-19108600Y-8033600D01*
X-17768742Y-4096400D02*
X-15593003Y-4096400D01*
X-13000000Y-1045474D02*
X-13000000Y4017026D01*
X-4603787Y2600000D02*
X-3437500Y2600000D01*
X-19108600Y-8033600D02*
X-19108600Y-7379676D01*
X-12075187Y4941839D02*
X-6945626Y4941839D01*
X-18200000Y-4527658D02*
X-17768742Y-4096400D01*
X-14819000Y-2864474D02*
X-13000000Y-1045474D01*
X-12900000Y-11500000D02*
X-13682974Y-11500000D01*
X-13682974Y-11500000D02*
X-14525774Y-12342800D01*
D56*
X22425000Y6600000D02*
X22425000Y4400000D01*
D57*
X-18829542Y-12342800D02*
X-20947600Y-10224742D01*
X-12700000Y-10580000D02*
X-12700000Y-11300000D01*
X-13000000Y4017026D02*
X-12075187Y4941839D01*
X-19108600Y-7379676D02*
X-18200000Y-6471076D01*
X-14525774Y-12342800D02*
X-18829542Y-12342800D01*
X-14819000Y-3322397D02*
X-14819000Y-2864474D01*
X-20947600Y-10224742D02*
X-20947600Y-9872600D01*
D56*
X22425000Y4400000D02*
X21600000Y3575000D01*
D57*
X-15593003Y-4096400D02*
X-14819000Y-3322397D01*
X-18200000Y-6471076D02*
X-18200000Y-4527658D01*
X-12700000Y-11300000D02*
X-12900000Y-11500000D01*
X-6945626Y4941839D02*
X-4603787Y2600000D01*
%TO.N,/Peripherals/GP16{slash}ArrowRight*%
X21852400Y-8724742D02*
X20877658Y-7750000D01*
X-9100000Y-9626200D02*
X-8773800Y-9300000D01*
X-12697600Y-1170732D02*
X-12697600Y3891768D01*
X-12700000Y-8040000D02*
X-11296200Y-9443800D01*
X7895911Y-9381911D02*
X-6382680Y-9381911D01*
X-11296200Y-9443800D02*
X-9282400Y-9443800D01*
X-14735820Y-4378599D02*
X-14516600Y-4159379D01*
X-7070884Y4639439D02*
X-4631444Y2199999D01*
X-14516600Y-2989732D02*
X-12697600Y-1170732D01*
X-14516600Y-4159379D02*
X-14516600Y-2989732D01*
X13175000Y-13821000D02*
X14121000Y-13821000D01*
X14121000Y-13821000D02*
X15875000Y-15575000D01*
X20877658Y-7750000D02*
X20875000Y-7750000D01*
X15875000Y-15575000D02*
X19950000Y-15575000D01*
X-12697600Y3891768D02*
X-11949929Y4639439D01*
X21852400Y-13672600D02*
X21852400Y-8724742D01*
X-9282400Y-9443800D02*
X-9100000Y-9626200D01*
X-11949929Y4639439D02*
X-7070884Y4639439D01*
X-4631444Y2199999D02*
X-3437500Y2199999D01*
X20875000Y-6283000D02*
X21850000Y-5308000D01*
X19950000Y-15575000D02*
X21852400Y-13672600D01*
X20875000Y-7750000D02*
X20875000Y-6283000D01*
X8077824Y-9199998D02*
X7895911Y-9381911D01*
%TO.N,/Peripherals/GP27*%
X-5428905Y-6654800D02*
X-3779998Y-6654800D01*
X-6208965Y9031307D02*
X-8951458Y11773800D01*
X-21247600Y13027400D02*
X-22494000Y11781000D01*
X-3779998Y-6654800D02*
X-3339999Y-7094799D01*
X-8951458Y11773800D02*
X-12150000Y11773800D01*
X-7351590Y-6211000D02*
X-6887067Y-6675523D01*
X-22494000Y11781000D02*
X-24504582Y11781000D01*
X-13403600Y13027400D02*
X-21247600Y13027400D01*
X-24652400Y7741083D02*
X-25267510Y8356193D01*
X-24504582Y11781000D02*
X-25242791Y11042791D01*
X-13135477Y-6211000D02*
X-7351590Y-6211000D01*
X-6887067Y-6675523D02*
X-5449628Y-6675523D01*
X-15000000Y-9200000D02*
X-14213800Y-8413800D01*
X-14213800Y-7289323D02*
X-13135477Y-6211000D01*
X-15421266Y-9200000D02*
X-15000000Y-9200000D01*
X-24652400Y6460840D02*
X-24652400Y7741083D01*
X-3339999Y-7094799D02*
X-3339999Y-7130001D01*
X-12150000Y11773800D02*
X-13403600Y13027400D01*
X-3339999Y-7130001D02*
X-2540000Y-7930000D01*
X-18681200Y-9300000D02*
X-16825000Y-9300000D01*
X-14213800Y-8413800D02*
X-14213800Y-7289323D01*
X-15678423Y-9457157D02*
X-15421266Y-9200000D01*
X-16825000Y-9300000D02*
X-16667843Y-9457157D01*
X-5449628Y-6675523D02*
X-5428905Y-6654800D01*
X-29200000Y1913240D02*
X-24652400Y6460840D01*
X-29200000Y-442697D02*
X-29200000Y1913240D01*
X1400000Y5072342D02*
X-2558965Y9031307D01*
X-2558965Y9031307D02*
X-6208965Y9031307D01*
X-28619455Y-1023242D02*
X-29200000Y-442697D01*
X1400000Y3437500D02*
X1400000Y5072342D01*
X-18825000Y-9443800D02*
X-18681200Y-9300000D01*
X-16667843Y-9457157D02*
X-15678423Y-9457157D01*
%TO.N,/Peripherals/GP22*%
X9803734Y-9025000D02*
X10975000Y-9025000D01*
X-22402400Y-11475258D02*
X-22402400Y-12747600D01*
X-24452400Y3775258D02*
X-24452400Y975258D01*
X-20645200Y-14504800D02*
X-20645200Y-14904800D01*
X-13641619Y6857200D02*
X-14196419Y6302400D01*
X-22402400Y-12747600D02*
X-20645200Y-14504800D01*
X-14196419Y6302400D02*
X-21925258Y6302400D01*
X14201171Y-12398829D02*
X15677342Y-13875000D01*
X-27425258Y-7302400D02*
X-26575258Y-7302400D01*
X17818189Y-13875000D02*
X18589590Y-14646401D01*
X7739366Y-8049366D02*
X8828100Y-8049366D01*
X7620000Y-7930000D02*
X7739366Y-8049366D01*
X-24452400Y975258D02*
X-29452400Y-4024742D01*
X-29452400Y-5275258D02*
X-27425258Y-7302400D01*
X11673800Y-9723800D02*
X11673800Y-10923800D01*
X6502400Y-9047600D02*
X7620000Y-7930000D01*
X-600001Y3437500D02*
X-600001Y4934053D01*
X11673800Y-10923800D02*
X13148829Y-12398829D01*
X-29452400Y-4024742D02*
X-29452400Y-5275258D01*
X-5718330Y-9047600D02*
X6502400Y-9047600D01*
X-600001Y4934053D02*
X-3185255Y7519307D01*
X8828100Y-8049366D02*
X9803734Y-9025000D01*
X17150000Y-13875000D02*
X17818189Y-13875000D01*
X-6332706Y-8433224D02*
X-5718330Y-9047600D01*
X-6742800Y6857200D02*
X-13641619Y6857200D01*
X13148829Y-12398829D02*
X14201171Y-12398829D01*
X10975000Y-9025000D02*
X11673800Y-9723800D01*
X-20645200Y-14904800D02*
X-20350000Y-15200000D01*
X-26575258Y-7302400D02*
X-22402400Y-11475258D01*
X15677342Y-13875000D02*
X17150000Y-13875000D01*
X-3185255Y7519307D02*
X-6080693Y7519307D01*
X-6080693Y7519307D02*
X-6742800Y6857200D01*
X-21925258Y6302400D02*
X-24452400Y3775258D01*
%TO.N,/Peripherals/GP23*%
X-24754800Y3900516D02*
X-22050516Y6604800D01*
X-6950000Y7159600D02*
X-6287893Y7821707D01*
X-1328600Y-11798600D02*
X0Y-10470000D01*
X-22050516Y6604800D02*
X-14321677Y6604800D01*
X-6287893Y7821707D02*
X-3059997Y7821707D01*
X-13181942Y-12709600D02*
X-9004284Y-12709600D01*
X-23600000Y-10705316D02*
X-26700516Y-7604800D01*
X-24754800Y1100516D02*
X-24754800Y3900516D01*
X-13766877Y7159600D02*
X-6950000Y7159600D01*
X-14024742Y-13552400D02*
X-13181942Y-12709600D01*
X-26700516Y-7604800D02*
X-27550516Y-7604800D01*
X-200000Y4961710D02*
X-200000Y3437500D01*
X-9004284Y-12709600D02*
X-8093284Y-11798600D01*
X-27550516Y-7604800D02*
X-29754800Y-5400516D01*
X-23600000Y-13250000D02*
X-23600000Y-10705316D01*
X-20240251Y-13168851D02*
X-19856702Y-13552400D01*
X-3059997Y7821707D02*
X-200000Y4961710D01*
X-19856702Y-13552400D02*
X-14024742Y-13552400D01*
X-29754800Y-5400516D02*
X-29754800Y-3899484D01*
X-14321677Y6604800D02*
X-13766877Y7159600D01*
X-29754800Y-3899484D02*
X-24754800Y1100516D01*
X-8093284Y-11798600D02*
X-1328600Y-11798600D01*
%TO.N,/Peripherals/GP2*%
X8991650Y-6796966D02*
X11566966Y-6796966D01*
X1400000Y-3955316D02*
X3617284Y-6172600D01*
X12700000Y-7930000D02*
X13330000Y-7930000D01*
X8367284Y-6172600D02*
X8991650Y-6796966D01*
X14198600Y-10879866D02*
X16096137Y-12777403D01*
X16096137Y-12777403D02*
X19705635Y-12777403D01*
X14198600Y-8798600D02*
X14198600Y-10879866D01*
X11566966Y-6796966D02*
X12700000Y-7930000D01*
X19705635Y-12777403D02*
X20295638Y-13367406D01*
X13330000Y-7930000D02*
X14198600Y-8798600D01*
X1400000Y-3437500D02*
X1400000Y-3955316D01*
X3617284Y-6172600D02*
X8367284Y-6172600D01*
%TO.N,/Peripherals/GP14{slash}ArrowLeft*%
X-11492400Y-11802400D02*
X-10160000Y-10470000D01*
X-5747600Y-2880414D02*
X-5747600Y-2425258D01*
X-21250000Y-8550000D02*
X-21250000Y-10350000D01*
X-11316173Y-4878856D02*
X-6656870Y-4878856D01*
X-11755342Y-4439687D02*
X-11316173Y-4878856D01*
X-22157209Y-7842791D02*
X-21957209Y-7842791D01*
X-21957209Y-7842791D02*
X-21250000Y-8550000D01*
X-5746400Y-2881614D02*
X-5747600Y-2880414D01*
X-18725000Y-2875000D02*
X-18725000Y-2600000D01*
X-21158000Y-5308000D02*
X-18725000Y-2875000D01*
X-5747600Y-2425258D02*
X-5122342Y-1800000D01*
X-21250000Y-10350000D02*
X-18954800Y-12645200D01*
X-21850000Y-5308000D02*
X-21158000Y-5308000D01*
X-14400516Y-12645200D02*
X-13557716Y-11802400D01*
X-13557716Y-11802400D02*
X-11492400Y-11802400D01*
X-5122342Y-1800000D02*
X-3437500Y-1800000D01*
X-18954800Y-12645200D02*
X-14400516Y-12645200D01*
X-6656870Y-4878856D02*
X-5746400Y-3968386D01*
X-5746400Y-3968386D02*
X-5746400Y-2881614D01*
%TO.N,/Peripherals/GP3*%
X15732400Y-13502400D02*
X18627400Y-13502400D01*
X8871250Y-7423166D02*
X7923084Y-6475000D01*
X1000000Y-3982974D02*
X1000000Y-3437500D01*
X18627400Y-13502400D02*
X19500000Y-14375000D01*
X7923084Y-6475000D02*
X3492026Y-6475000D01*
X3492026Y-6475000D02*
X1000000Y-3982974D01*
X12700000Y-10470000D02*
X15732400Y-13502400D01*
%TO.N,/SWD*%
X-13785833Y-4373205D02*
X-13785833Y-2686623D01*
X-6071400Y2749058D02*
X-4722342Y1400000D01*
X-13785833Y-2686623D02*
X-12352400Y-1253190D01*
X-6071400Y2784639D02*
X-6071400Y2749058D01*
X-12352400Y-1253190D02*
X-12352400Y2325258D01*
X-12352400Y2325258D02*
X-10674058Y4003600D01*
X-10674058Y4003600D02*
X-7290361Y4003600D01*
X-7290361Y4003600D02*
X-6071400Y2784639D01*
X-4722342Y1400000D02*
X-3437500Y1400000D01*
%TO.N,/Peripherals/GP15{slash}ArrowUp*%
X-6048800Y-3843128D02*
X-6048800Y-3006872D01*
X-11636214Y-3578386D02*
X-10638144Y-4576456D01*
X-12188986Y-3578386D02*
X-11636214Y-3578386D01*
X-17550000Y75000D02*
X-18725000Y-1100000D01*
X-17550000Y200000D02*
X-17550000Y75000D01*
X-6782128Y-4576456D02*
X-6048800Y-3843128D01*
X-10638144Y-4576456D02*
X-6782128Y-4576456D01*
X-21150000Y-1100000D02*
X-21200000Y-1150000D01*
X-6050000Y-2300000D02*
X-5150000Y-1400000D01*
X-6048800Y-3006872D02*
X-6050000Y-3005672D01*
X-6050000Y-3005672D02*
X-6050000Y-2300000D01*
X-18725000Y-1100000D02*
X-21150000Y-1100000D01*
X-5150000Y-1400000D02*
X-3437500Y-1400000D01*
%TO.N,/Peripherals/GP1*%
X1800000Y-3437500D02*
X1800000Y-3927658D01*
X15240000Y-10470000D02*
X17245003Y-12475003D01*
X3742542Y-5870200D02*
X8492542Y-5870200D01*
X14213800Y-8355066D02*
X15050000Y-9191266D01*
X17245003Y-12475003D02*
X20621400Y-12475003D01*
X15050000Y-10280000D02*
X15240000Y-10470000D01*
X1800000Y-3927658D02*
X3742542Y-5870200D01*
X8492542Y-5870200D02*
X9116908Y-6494566D01*
X13606566Y-6494566D02*
X14213800Y-7101800D01*
X15050000Y-9191266D02*
X15050000Y-10280000D01*
X9116908Y-6494566D02*
X13606566Y-6494566D01*
X14213800Y-7101800D02*
X14213800Y-8355066D01*
%TO.N,/SWCLK*%
X-13527047Y-5000000D02*
X-13150000Y-4622953D01*
X-13150000Y-2478448D02*
X-12050000Y-1378448D01*
X-12050000Y2200000D02*
X-10548800Y3701200D01*
X-7415619Y3701200D02*
X-6373800Y2659381D01*
X-3489899Y1052399D02*
X-3437500Y1000000D01*
X-18806200Y-8331200D02*
X-18806200Y-7504934D01*
X-6373800Y2623800D02*
X-4802399Y1052399D01*
X-4802399Y1052399D02*
X-3489899Y1052399D01*
X-19500000Y-9025000D02*
X-18806200Y-8331200D01*
X-13150000Y-4622953D02*
X-13150000Y-2478448D01*
X-17897600Y-6596334D02*
X-17897600Y-4947600D01*
X-15601200Y-4398800D02*
X-14995201Y-5004799D01*
X-17780000Y-10470000D02*
X-18780000Y-10470000D01*
X-19500000Y-9750000D02*
X-19500000Y-9025000D01*
X-14471640Y-5000000D02*
X-13527047Y-5000000D01*
X-18806200Y-7504934D02*
X-17897600Y-6596334D01*
X-17348800Y-4398800D02*
X-15601200Y-4398800D01*
X-12050000Y-1378448D02*
X-12050000Y2200000D01*
X-14995201Y-5004799D02*
X-14476439Y-5004799D01*
X-14476439Y-5004799D02*
X-14471640Y-5000000D01*
X-17897600Y-4947600D02*
X-17348800Y-4398800D01*
X-18780000Y-10470000D02*
X-19500000Y-9750000D01*
X-6373800Y2659381D02*
X-6373800Y2623800D01*
X-10548800Y3701200D02*
X-7415619Y3701200D01*
%TO.N,/Peripherals/GP18*%
X-5700144Y-6070723D02*
X-5679421Y-6050000D01*
X-5679421Y-6050000D02*
X-2541076Y-6050000D01*
X-771266Y-7250000D02*
X-371266Y-6850000D01*
X-2541076Y-6050000D02*
X-1341076Y-7250000D01*
X-13302400Y-920216D02*
X-13302400Y4142284D01*
X-15121400Y-3197139D02*
X-15121400Y-2739216D01*
X-6636551Y-6070723D02*
X-5700144Y-6070723D01*
X-20592791Y-8632209D02*
X-20134867Y-8632209D01*
X-19411000Y-7908342D02*
X-19411000Y-7254418D01*
X-17894000Y-3794000D02*
X-15718261Y-3794000D01*
X-19411000Y-7254418D02*
X-18542400Y-6385818D01*
X-371266Y-6850000D02*
X4000000Y-6850000D01*
X-15121400Y-2739216D02*
X-13302400Y-920216D01*
X-20134867Y-8632209D02*
X-19411000Y-7908342D01*
X-15600000Y-5100000D02*
X-15093800Y-5606200D01*
X-1341076Y-7250000D02*
X-771266Y-7250000D01*
X-6820368Y5244239D02*
X-6046329Y4470200D01*
X-13302400Y4142284D02*
X-12200445Y5244239D01*
X-15093800Y-5606200D02*
X-7101074Y-5606200D01*
X4000000Y-6850000D02*
X5080000Y-7930000D01*
X-18542400Y-6385818D02*
X-18542400Y-4442400D01*
X-16650000Y-5100000D02*
X-15600000Y-5100000D01*
X-12200445Y5244239D02*
X-6820368Y5244239D01*
X-15718261Y-3794000D02*
X-15121400Y-3197139D01*
X-7101074Y-5606200D02*
X-6636551Y-6070723D01*
X-6046329Y4470200D02*
X-4778174Y4470200D01*
X-3019100Y3856600D02*
X-2600000Y3437500D01*
X-4778174Y4470200D02*
X-4164574Y3856600D01*
X-18542400Y-4442400D02*
X-17894000Y-3794000D01*
X-4164574Y3856600D02*
X-3019100Y3856600D01*
%TO.N,/Peripherals/GP24*%
X-230000Y-7700000D02*
X0Y-7930000D01*
X-30057200Y-3774226D02*
X-30057200Y-5525774D01*
X-6761809Y-6373123D02*
X-5574886Y-6373123D01*
X-14446935Y6907200D02*
X-22175774Y6907200D01*
X-24366487Y-10366487D02*
X-24366487Y-11216487D01*
X-22175774Y6907200D02*
X-25057200Y4025774D01*
X-13892135Y7462000D02*
X-14446935Y6907200D01*
X-5574886Y-6373123D02*
X-5554163Y-6352400D01*
X-2934739Y8124107D02*
X-6487893Y8124107D01*
X-26825774Y-7907200D02*
X-24366487Y-10366487D01*
X-16266200Y-7504934D02*
X-14669866Y-5908600D01*
X-25057200Y1225774D02*
X-30057200Y-3774226D01*
X-16245376Y-8375890D02*
X-16266200Y-8355066D01*
X-7150000Y7462000D02*
X-13892135Y7462000D01*
X200000Y4989368D02*
X-2934739Y8124107D01*
X-5554163Y-6352400D02*
X-2666334Y-6352400D01*
X-6487893Y8124107D02*
X-7150000Y7462000D01*
X-30057200Y-5525774D02*
X-27675774Y-7907200D01*
X-1318734Y-7700000D02*
X-230000Y-7700000D01*
X-24366487Y-11216487D02*
X-24316487Y-11266487D01*
X-25057200Y4025774D02*
X-25057200Y1225774D01*
X-2666334Y-6352400D02*
X-1318734Y-7700000D01*
X-7226332Y-5908600D02*
X-6761809Y-6373123D01*
X-24366487Y-11216487D02*
X-24595449Y-11445449D01*
X-14669866Y-5908600D02*
X-7226332Y-5908600D01*
X-16266200Y-8355066D02*
X-16266200Y-7504934D01*
X-27675774Y-7907200D02*
X-26825774Y-7907200D01*
X-16245376Y-8830957D02*
X-16245376Y-8375890D01*
X200000Y3437500D02*
X200000Y4989368D01*
%TO.N,/Peripherals/GP28*%
X-29502400Y2038498D02*
X-24954800Y6586098D01*
X-18246360Y-12040400D02*
X-20043380Y-10243380D01*
X-12700000Y-6550000D02*
X-13897600Y-7747600D01*
X-22402658Y12300000D02*
X-24871163Y12300000D01*
X-25921953Y11249210D02*
X-25921953Y10378529D01*
X-6083707Y9333707D02*
X-8850000Y12100000D01*
X-13229800Y13329800D02*
X-21372858Y13329800D01*
X-2433707Y9333707D02*
X-6083707Y9333707D01*
X-13897600Y-11238000D02*
X-14700000Y-12040400D01*
X1800000Y3437500D02*
X1800000Y5100000D01*
X-13897600Y-7747600D02*
X-13897600Y-11238000D01*
X-17398452Y-12040400D02*
X-18246360Y-12040400D01*
X-21372858Y13329800D02*
X-22402658Y12300000D01*
X-24954800Y7082455D02*
X-25278600Y7406255D01*
X-8850000Y12100000D02*
X-12000000Y12100000D01*
X-29502400Y-122031D02*
X-29502400Y2038498D01*
X-14700000Y-12040400D02*
X-17398452Y-12040400D01*
X-24871163Y12300000D02*
X-25921953Y11249210D01*
X-12000000Y12100000D02*
X-13229800Y13329800D01*
X-24954800Y6586098D02*
X-24954800Y7082455D01*
X-7620000Y-7930000D02*
X-9000000Y-6550000D01*
X-9000000Y-6550000D02*
X-12700000Y-6550000D01*
X1800000Y5100000D02*
X-2433707Y9333707D01*
X-30240536Y-860167D02*
X-29502400Y-122031D01*
D58*
%TO.N,Net-(P201-CC)*%
X7575000Y15300000D02*
X6923400Y14648400D01*
X3726312Y13902390D02*
X3726312Y14569902D01*
X6923400Y13597900D02*
X6325500Y13000000D01*
X6325500Y13000000D02*
X4628702Y13000000D01*
X3344614Y14951600D02*
X1451600Y14951600D01*
X1451600Y14951600D02*
X-1250000Y12250000D01*
X4628702Y13000000D02*
X3726312Y13902390D01*
X-1250000Y12250000D02*
X-1250000Y10320000D01*
X6923400Y14648400D02*
X6923400Y13597900D01*
X3726312Y14569902D02*
X3344614Y14951600D01*
%TO.N,Net-(P201-VCONN)*%
X1342345Y11267117D02*
X1339878Y11267117D01*
X2551610Y13901600D02*
X3853210Y12600000D01*
X548400Y13519902D02*
X930098Y13901600D01*
X548400Y12058595D02*
X548400Y13519902D01*
X1750000Y10320000D02*
X1750000Y10859462D01*
X1339878Y11267117D02*
X548400Y12058595D01*
X6425000Y12600000D02*
X7575000Y13750000D01*
X3853210Y12600000D02*
X6425000Y12600000D01*
X930098Y13901600D02*
X2551610Y13901600D01*
X1750000Y10859462D02*
X1342345Y11267117D01*
D57*
%TO.N,/Peripherals/GP20{slash}Buzzer*%
X-6460727Y5849039D02*
X-5686688Y5075000D01*
X-3914058Y4461400D02*
X-2358741Y4461400D01*
X-15807209Y-1107209D02*
X-14344709Y-1107209D01*
X-13907200Y4392800D02*
X-12450961Y5849039D01*
X-2358741Y4461400D02*
X-1800000Y3902659D01*
X-14344709Y-1107209D02*
X-13907200Y-669700D01*
X-5686688Y5075000D02*
X-4527658Y5075000D01*
X-12450961Y5849039D02*
X-6460727Y5849039D01*
X-13907200Y-669700D02*
X-13907200Y4392800D01*
X-4527658Y5075000D02*
X-3914058Y4461400D01*
X-1800000Y3902659D02*
X-1800000Y3437500D01*
D61*
%TO.N,/N_USBBOOT*%
X13000000Y15500000D02*
X13500000Y15000000D01*
X-11725000Y9975000D02*
X-11725000Y9200000D01*
X12800000Y12800000D02*
X12250000Y12800000D01*
X29050000Y-6200000D02*
X25825000Y-9425000D01*
X10750000Y9100000D02*
X10750000Y7650000D01*
X13500000Y15000000D02*
X13500000Y13500000D01*
X13500000Y13500000D02*
X12800000Y12800000D01*
X-11950000Y14050000D02*
X-11950000Y14975000D01*
X22600000Y-9425000D02*
X22525000Y-9350000D01*
X25825000Y-9425000D02*
X22600000Y-9425000D01*
X-10500000Y16200000D02*
X12400000Y16200000D01*
X29050000Y1400000D02*
X29050000Y-6200000D01*
X-11500000Y15200000D02*
X-10500000Y16200000D01*
X-11725000Y15200000D02*
X-11500000Y15200000D01*
X12400000Y16200000D02*
X13000000Y15600000D01*
X12250000Y12800000D02*
X11950000Y12500000D01*
X-11950000Y14975000D02*
X-11725000Y15200000D01*
X11950000Y12500000D02*
X11950000Y10300000D01*
X13000000Y15600000D02*
X13000000Y15500000D01*
X23374764Y7075236D02*
X29050000Y1400000D01*
X11950000Y10300000D02*
X10750000Y9100000D01*
X-12350000Y10600000D02*
X-11725000Y9975000D01*
D57*
%TO.N,/FLASH_CS*%
X8523558Y-3252400D02*
X6288497Y-3252400D01*
X15149742Y-6077400D02*
X16350000Y-7277658D01*
X20481642Y-9743358D02*
X20875000Y-9350000D01*
X18880103Y-9350000D02*
X19273461Y-9743358D01*
X10000000Y-5505000D02*
X14077342Y-5505000D01*
X16350000Y-7277658D02*
X16350000Y-8977658D01*
X3900000Y-2600000D02*
X3437500Y-2600000D01*
X8973800Y-4544984D02*
X8973800Y-3702642D01*
X14077342Y-5505000D02*
X14649742Y-6077400D01*
X8973800Y-3702642D02*
X8523558Y-3252400D01*
X10000000Y-5505000D02*
X9933816Y-5505000D01*
X5789449Y-3751448D02*
X4673790Y-3751448D01*
X9933816Y-5505000D02*
X8973800Y-4544984D01*
X4048552Y-3126210D02*
X4048552Y-2748552D01*
X4048552Y-2748552D02*
X3900000Y-2600000D01*
X6288497Y-3252400D02*
X5789449Y-3751448D01*
X16722342Y-9350000D02*
X18880103Y-9350000D01*
X19273461Y-9743358D02*
X20481642Y-9743358D01*
X14649742Y-6077400D02*
X15149742Y-6077400D01*
X4673790Y-3751448D02*
X4048552Y-3126210D01*
X16350000Y-8977658D02*
X16722342Y-9350000D01*
%TO.N,Net-(U101-RUN)*%
X-11257239Y4306000D02*
X-7165103Y4306000D01*
X-14235580Y4950000D02*
X-16025000Y4950000D01*
X-4694684Y1800000D02*
X-3437500Y1800000D01*
X-13256980Y5928600D02*
X-14235580Y4950000D01*
X-11550000Y4013239D02*
X-11257239Y4306000D01*
X-5769000Y2874316D02*
X-4694684Y1800000D01*
X-7165103Y4306000D02*
X-5769000Y2909897D01*
X-5769000Y2909897D02*
X-5769000Y2874316D01*
%TO.N,Net-(U101-XOUT)*%
X-10201200Y425000D02*
X-10100000Y526200D01*
X-5397600Y-200000D02*
X-3437500Y-200000D01*
X-10100000Y526200D02*
X-6123800Y526200D01*
X-11050000Y425000D02*
X-10201200Y425000D01*
X-6123800Y526200D02*
X-5397600Y-200000D01*
%TO.N,/Peripherals/GP6{slash}IMU_SDA*%
X-522005Y-4677600D02*
X-200000Y-4355595D01*
X-200000Y-4355595D02*
X-200000Y-3437500D01*
%TO.N,/Peripherals/GP7{slash}IMU_SCL*%
X-834208Y-4101200D02*
X-600001Y-3866993D01*
X-1476149Y-4476149D02*
X-1101200Y-4101200D01*
X-1476149Y-5185634D02*
X-1476149Y-4476149D01*
X-600001Y-3866993D02*
X-600001Y-3437500D01*
X-1101200Y-4101200D02*
X-834208Y-4101200D01*
%TO.N,+1V1*%
X4950000Y-450000D02*
X5600000Y-1100000D01*
X4950000Y-450000D02*
X4700000Y-200000D01*
X3437500Y1800000D02*
X3000000Y1800000D01*
X-10749499Y-1649499D02*
X-10972800Y-1872800D01*
X-10598800Y-4101200D02*
X-8926200Y-4101200D01*
X5600000Y-1100000D02*
X6575000Y-1100000D01*
X4700000Y-200000D02*
X3437500Y-200000D01*
X-8926200Y-4101200D02*
X-8225000Y-3400000D01*
X-10972800Y-1872800D02*
X-10972800Y-3727200D01*
X-3437500Y600001D02*
X-4694009Y600001D01*
X3000000Y-200000D02*
X3437500Y-200000D01*
X-4694009Y600001D02*
X-4867811Y426199D01*
X-8225000Y-3400000D02*
X-6775000Y-3400000D01*
X-6775000Y-3400000D02*
X-6750000Y-3425000D01*
X-10972800Y-3727200D02*
X-10598800Y-4101200D01*
X-10749499Y-1445863D02*
X-10749499Y-1649499D01*
X2773800Y1573800D02*
X2773800Y26200D01*
X2773800Y26200D02*
X3000000Y-200000D01*
X3000000Y1800000D02*
X2773800Y1573800D01*
%TO.N,/FLASH_SD1*%
X3949999Y-2199999D02*
X4350952Y-2600952D01*
X5664191Y-3449048D02*
X6163239Y-2950000D01*
X4350952Y-2600952D02*
X4350952Y-3000952D01*
X4799048Y-3449048D02*
X5664191Y-3449048D01*
X8648816Y-2950000D02*
X9933816Y-4235000D01*
X3437500Y-2199999D02*
X3949999Y-2199999D01*
X4350952Y-3000952D02*
X4799048Y-3449048D01*
X9933816Y-4235000D02*
X10000000Y-4235000D01*
X6163239Y-2950000D02*
X8648816Y-2950000D01*
%TO.N,/Peripherals/GP13{slash}INTR*%
X-28250000Y1750000D02*
X-28250000Y1550000D01*
X-14200000Y10465293D02*
X-14200000Y8009451D01*
X-22488000Y7512000D02*
X-28250000Y1750000D01*
X-14209998Y10475291D02*
X-14200000Y10465293D01*
X-14200000Y8009451D02*
X-14697451Y7512000D01*
X-4925290Y-3202209D02*
X-4925290Y-2375290D01*
X-14697451Y7512000D02*
X-22488000Y7512000D01*
X-4925290Y-2375290D02*
X-4749999Y-2199999D01*
X-4749999Y-2199999D02*
X-3437500Y-2199999D01*
%TO.N,/FLASH_SD3*%
X5873542Y-1801200D02*
X5148542Y-1076200D01*
X9175528Y-1168800D02*
X8543128Y-1801200D01*
X15000000Y-4900002D02*
X15665002Y-4235000D01*
X14218800Y-1168800D02*
X9175528Y-1168800D01*
X14750000Y-1700000D02*
X14218800Y-1168800D01*
X15665002Y-4235000D02*
X17200000Y-4235000D01*
X5148542Y-1076200D02*
X4690619Y-1076200D01*
X4690619Y-1076200D02*
X4214420Y-600001D01*
X4214420Y-600001D02*
X3437500Y-600001D01*
X8543128Y-1801200D02*
X5873542Y-1801200D01*
%TO.N,/FLASH_SD0*%
X5279552Y-2062526D02*
X4898026Y-1681000D01*
X4440103Y-1681000D02*
X4159103Y-1400000D01*
X17133816Y-1695000D02*
X17200000Y-1695000D01*
X15931216Y-2897600D02*
X17133816Y-1695000D01*
X5279552Y-2520448D02*
X5279552Y-2062526D01*
X12607699Y-2897600D02*
X15931216Y-2897600D01*
X4159103Y-1400000D02*
X3437500Y-1400000D01*
X4898026Y-1681000D02*
X4440103Y-1681000D01*
X12210100Y-2500001D02*
X12607699Y-2897600D01*
%TO.N,/FLASH_SCLK*%
X4186761Y-1000000D02*
X3437500Y-1000000D01*
X5865884Y-2221200D02*
X5023284Y-1378600D01*
X17200000Y-2965000D02*
X16965000Y-3200000D01*
X10971200Y-2221200D02*
X5865884Y-2221200D01*
X4565361Y-1378600D02*
X4186761Y-1000000D01*
X11950000Y-3200000D02*
X10971200Y-2221200D01*
X5023284Y-1378600D02*
X4565361Y-1378600D01*
X16965000Y-3200000D02*
X11950000Y-3200000D01*
%TO.N,/FLASH_SD2*%
X6060581Y-2625000D02*
X5538933Y-3146648D01*
X4653352Y-2253352D02*
X4434207Y-2034207D01*
X4653352Y-2779829D02*
X4653352Y-2253352D01*
X4365652Y-2034207D02*
X4131445Y-1800000D01*
X5020171Y-3146648D02*
X4653352Y-2779829D01*
X4131445Y-1800000D02*
X3437500Y-1800000D01*
X5538933Y-3146648D02*
X5020171Y-3146648D01*
X4434207Y-2034207D02*
X4365652Y-2034207D01*
X10000000Y-2965000D02*
X9660000Y-2625000D01*
X9660000Y-2625000D02*
X6060581Y-2625000D01*
%TO.N,/Peripherals/GP25{slash}LED*%
X-25221649Y-11717457D02*
X-24544995Y-12394111D01*
X-21154551Y-12254551D02*
X-20859102Y-12550000D01*
X-20506981Y-12550000D02*
X-20499632Y-12542651D01*
X-14572193Y7209600D02*
X-22340400Y7209600D01*
X-30359600Y-3648968D02*
X-30359600Y-5651032D01*
X-14150000Y-13250000D02*
X-13307200Y-12407200D01*
X-14017393Y7764400D02*
X-14572193Y7209600D01*
X-25221649Y-9978351D02*
X-25221649Y-11717457D01*
X-22340400Y7209600D02*
X-25380316Y4169684D01*
X-7350000Y7764400D02*
X-14017393Y7764400D01*
X-20499632Y-12542651D02*
X-19980870Y-12542651D01*
X-6687893Y8426507D02*
X-7350000Y7764400D01*
X-25380316Y1330316D02*
X-30359600Y-3648968D01*
X-19980870Y-12542651D02*
X-19273521Y-13250000D01*
X-8218542Y-11496200D02*
X-3566200Y-11496200D01*
X600001Y3437500D02*
X600001Y5017025D01*
X-13307200Y-12407200D02*
X-9129542Y-12407200D01*
X-30359600Y-5651032D02*
X-27801032Y-8209600D01*
X-27801032Y-8209600D02*
X-26990400Y-8209600D01*
X-25380316Y4169684D02*
X-25380316Y1330316D01*
X-19273521Y-13250000D02*
X-14150000Y-13250000D01*
X-3566200Y-11496200D02*
X-2540000Y-10470000D01*
X-2809481Y8426507D02*
X-6687893Y8426507D01*
X-20859102Y-12550000D02*
X-20506981Y-12550000D01*
X600001Y5017025D02*
X-2809481Y8426507D01*
X-26990400Y-8209600D02*
X-25221649Y-9978351D01*
X-9129542Y-12407200D02*
X-8218542Y-11496200D01*
D59*
%TO.N,/power-and-usb/usb_vcc*%
X-2129850Y11120794D02*
X-2129850Y12011938D01*
D58*
X1609780Y11499182D02*
X2400000Y10708962D01*
D57*
X4734636Y8200000D02*
X4741053Y8206417D01*
X3375000Y8200000D02*
X4734636Y8200000D01*
D58*
X1609780Y11918717D02*
X1609780Y11499182D01*
D59*
X-2400000Y10320000D02*
X-2400000Y10850644D01*
D58*
X2400000Y10708962D02*
X2400000Y10320000D01*
D59*
X-2400000Y10850644D02*
X-2129850Y11120794D01*
D56*
%TO.N,/usb_d+*%
X8372913Y8000000D02*
G75*
G02*
X8514328Y7941414I-13J-200000D01*
G01*
X4937805Y7531417D02*
G75*
G03*
X5079221Y7590002I-5J199983D01*
G01*
X3996080Y7641421D02*
G75*
G03*
X3854658Y7699971I-141380J-141421D01*
G01*
X13433760Y4915268D02*
X13433760Y4513797D01*
X5079227Y7589996D02*
X5416053Y7926822D01*
X5416053Y7926822D02*
X5416053Y8000000D01*
X10913599Y5625000D02*
X12724028Y5625000D01*
X8514335Y7941421D02*
X10772178Y5683578D01*
X3375000Y7700000D02*
X3854658Y7700000D01*
X4188927Y7531417D02*
X4937805Y7531417D01*
X3996080Y7641421D02*
X4047506Y7589995D01*
X12865450Y5566421D02*
X13375182Y5056689D01*
X5416053Y8000000D02*
X8372913Y8000000D01*
X12865450Y5566421D02*
G75*
G03*
X12724028Y5625020I-141450J-141421D01*
G01*
X13375182Y5056689D02*
G75*
G02*
X13433749Y4915268I-141382J-141389D01*
G01*
X4047506Y7589995D02*
G75*
G03*
X4188927Y7531431I141394J141405D01*
G01*
X10772178Y5683578D02*
G75*
G03*
X10913599Y5624999I141422J141422D01*
G01*
%TD*%
%TA.AperFunction,Conductor*%
%TO.N,/VBUS*%
G36*
X-22056961Y15480315D02*
G01*
X-22011206Y15427511D01*
X-22000000Y15376000D01*
X-22000000Y13074623D01*
X-22019685Y13007584D01*
X-22036319Y12986942D01*
X-22460242Y12563019D01*
X-22521565Y12529534D01*
X-22547923Y12526700D01*
X-22693960Y12526700D01*
X-22760999Y12546385D01*
X-22806754Y12599189D01*
X-22816698Y12668347D01*
X-22814846Y12675113D01*
X-22815437Y12675230D01*
X-22800001Y12752836D01*
X-22800000Y12752838D01*
X-22800000Y13247163D01*
X-22800001Y13247165D01*
X-22813054Y13312787D01*
X-22813056Y13312791D01*
X-22862785Y13387216D01*
X-22937210Y13436945D01*
X-22937214Y13436947D01*
X-23002837Y13450000D01*
X-23797163Y13450000D01*
X-23862787Y13436947D01*
X-23862791Y13436945D01*
X-23937216Y13387216D01*
X-23986945Y13312791D01*
X-23986947Y13312787D01*
X-24000000Y13247165D01*
X-24000000Y12752836D01*
X-23984563Y12675230D01*
X-23988910Y12674366D01*
X-23984033Y12628555D01*
X-24015374Y12566109D01*
X-24075501Y12530520D01*
X-24106040Y12526700D01*
X-24576000Y12526700D01*
X-24643039Y12546385D01*
X-24688794Y12599189D01*
X-24700000Y12650700D01*
X-24700000Y15376000D01*
X-24680315Y15443039D01*
X-24627511Y15488794D01*
X-24576000Y15500000D01*
X-22124000Y15500000D01*
X-22056961Y15480315D01*
G37*
%TD.AperFunction*%
%TD*%
%TA.AperFunction,Conductor*%
%TO.N,/power-and-usb/usb_vcc*%
G36*
X11667538Y12630315D02*
G01*
X11713293Y12577511D01*
X11724499Y12526000D01*
X11724499Y12440712D01*
X11724500Y12440703D01*
X11724500Y10444768D01*
X11704815Y10377729D01*
X11688181Y10357087D01*
X10558830Y9227737D01*
X10558830Y9227735D01*
X10524499Y9144856D01*
X10524499Y9124000D01*
X10504814Y9056961D01*
X10452010Y9011206D01*
X10400499Y9000000D01*
X5343045Y9000000D01*
X5276006Y9019685D01*
X5255366Y9036316D01*
X5236584Y9055097D01*
X5236575Y9055105D01*
X5235285Y9056395D01*
X5235283Y9056396D01*
X5235282Y9056397D01*
X5231743Y9058762D01*
X5217780Y9066225D01*
X5163042Y9102798D01*
X5163040Y9102799D01*
X5163037Y9102801D01*
X5163036Y9102801D01*
X5076504Y9138643D01*
X5076497Y9138645D01*
X5076499Y9138645D01*
X5011943Y9151486D01*
X4996773Y9156088D01*
X4992606Y9156917D01*
X4992605Y9156917D01*
X4992603Y9156917D01*
X4937813Y9156917D01*
X4937807Y9156918D01*
X4889234Y9156918D01*
X4889233Y9156918D01*
X4879246Y9156918D01*
X4879234Y9156917D01*
X4261070Y9156917D01*
X4260943Y9156928D01*
X4253092Y9156927D01*
X4253020Y9156948D01*
X4148870Y9156931D01*
X4148607Y9156917D01*
X4146959Y9156917D01*
X4142721Y9156075D01*
X4127737Y9151529D01*
X4063021Y9138645D01*
X3976504Y9102794D01*
X3976496Y9102790D01*
X3921797Y9066233D01*
X3907819Y9058760D01*
X3904277Y9056394D01*
X3901761Y9053877D01*
X3901713Y9053833D01*
X3898629Y9050748D01*
X3884207Y9036325D01*
X3822889Y9002836D01*
X3796521Y9000000D01*
X2124000Y9000000D01*
X2056961Y9019685D01*
X2011206Y9072489D01*
X2000000Y9124000D01*
X2000000Y9638402D01*
X2019685Y9705441D01*
X2020865Y9707244D01*
X2037417Y9732014D01*
X2050500Y9797789D01*
X2050499Y10842210D01*
X2037417Y10907986D01*
X2037385Y10908033D01*
X2037348Y10908152D01*
X2032744Y10919268D01*
X2033738Y10919681D01*
X2016509Y10974709D01*
X2034994Y11042089D01*
X2086973Y11088779D01*
X2139672Y11100919D01*
X2317556Y11102090D01*
X2384721Y11082847D01*
X2420823Y11045234D01*
X2421337Y11045628D01*
X2424892Y11040995D01*
X2425755Y11040096D01*
X2426280Y11039186D01*
X2426283Y11039182D01*
X2426285Y11039179D01*
X2534179Y10931285D01*
X2534180Y10931284D01*
X2534182Y10931283D01*
X2666316Y10854995D01*
X2666318Y10854994D01*
X2666322Y10854992D01*
X2666325Y10854992D01*
X2672946Y10852249D01*
X2727352Y10808411D01*
X2749421Y10742118D01*
X2749500Y10737685D01*
X2749500Y9850144D01*
X2749502Y9850118D01*
X2752413Y9825013D01*
X2752415Y9825009D01*
X2797793Y9722236D01*
X2797794Y9722235D01*
X2877235Y9642794D01*
X2980009Y9597415D01*
X3005135Y9594500D01*
X3394864Y9594501D01*
X3394879Y9594503D01*
X3394882Y9594503D01*
X3419987Y9597414D01*
X3419988Y9597415D01*
X3419991Y9597415D01*
X3522765Y9642794D01*
X3602206Y9722235D01*
X3647585Y9825009D01*
X3650500Y9850135D01*
X3650499Y9962167D01*
X3670183Y10029204D01*
X3722987Y10074959D01*
X3792145Y10084903D01*
X3855701Y10055879D01*
X3884983Y10018461D01*
X3941950Y9906658D01*
X3941952Y9906656D01*
X3941954Y9906653D01*
X4031652Y9816955D01*
X4031654Y9816954D01*
X4031658Y9816950D01*
X4144694Y9759355D01*
X4144698Y9759353D01*
X4238475Y9744501D01*
X4238481Y9744500D01*
X5981518Y9744501D01*
X6075304Y9759354D01*
X6188342Y9816950D01*
X6278050Y9906658D01*
X6335646Y10019696D01*
X6335646Y10019698D01*
X6335647Y10019699D01*
X6350500Y10113476D01*
X6350500Y10323900D01*
X6370185Y10390939D01*
X6422989Y10436694D01*
X6474500Y10447900D01*
X6962718Y10447900D01*
X7029757Y10428215D01*
X7075512Y10375411D01*
X7080771Y10357557D01*
X7081584Y10357807D01*
X7084425Y10348610D01*
X7135803Y10243515D01*
X7218514Y10160804D01*
X7218515Y10160804D01*
X7218517Y10160802D01*
X7323607Y10109427D01*
X7357673Y10104464D01*
X7391739Y10099500D01*
X7391740Y10099500D01*
X8008261Y10099500D01*
X8030971Y10102809D01*
X8076393Y10109427D01*
X8181483Y10160802D01*
X8264198Y10243517D01*
X8315573Y10348607D01*
X8315573Y10348609D01*
X8315574Y10348610D01*
X8318416Y10357807D01*
X8321499Y10356855D01*
X8343711Y10405266D01*
X8402554Y10442938D01*
X8437282Y10447900D01*
X8468474Y10447900D01*
X8535513Y10428215D01*
X8581268Y10375411D01*
X8583218Y10370291D01*
X8640172Y10253790D01*
X8728789Y10165173D01*
X8834527Y10113482D01*
X8841375Y10110134D01*
X8914364Y10099500D01*
X8914370Y10099500D01*
X9485630Y10099500D01*
X9485636Y10099500D01*
X9558625Y10110134D01*
X9616118Y10138241D01*
X9671210Y10165173D01*
X9759827Y10253790D01*
X9794101Y10323900D01*
X9814866Y10366375D01*
X9825500Y10439364D01*
X9825500Y10960636D01*
X9814866Y11033625D01*
X9808998Y11045628D01*
X9759827Y11146211D01*
X9671212Y11234826D01*
X9671210Y11234827D01*
X9669537Y11235645D01*
X9667650Y11237369D01*
X9662850Y11240796D01*
X9663264Y11241377D01*
X9617956Y11282774D01*
X9600000Y11347044D01*
X9600000Y11602957D01*
X9619685Y11669996D01*
X9663201Y11708717D01*
X9662852Y11709206D01*
X9667399Y11712453D01*
X9669539Y11714358D01*
X9671211Y11715174D01*
X9759826Y11803789D01*
X9759827Y11803790D01*
X9803691Y11893517D01*
X9814866Y11916375D01*
X9825500Y11989364D01*
X9825500Y12362249D01*
X9845185Y12429288D01*
X9861819Y12449930D01*
X10018094Y12606205D01*
X10079417Y12639690D01*
X10105775Y12642524D01*
X10314708Y12642524D01*
X10381747Y12622839D01*
X10413083Y12594011D01*
X10483684Y12502003D01*
X10598680Y12413763D01*
X10732596Y12358294D01*
X10859585Y12341576D01*
X10876304Y12339374D01*
X10876305Y12339374D01*
X10876306Y12339374D01*
X10891282Y12341346D01*
X11020014Y12358294D01*
X11153930Y12413763D01*
X11268926Y12502003D01*
X11326866Y12577511D01*
X11345264Y12601487D01*
X11401692Y12642690D01*
X11443639Y12650000D01*
X11600499Y12650000D01*
X11667538Y12630315D01*
G37*
%TD.AperFunction*%
%TD*%
%TA.AperFunction,Conductor*%
%TO.N,/VBUS*%
G36*
X12322272Y15954815D02*
G01*
X12342914Y15938181D01*
X12738180Y15542915D01*
X12771665Y15481592D01*
X12774499Y15455234D01*
X12774499Y15455145D01*
X12793683Y15408832D01*
X12793684Y15408828D01*
X12793685Y15408828D01*
X12808828Y15372266D01*
X12863681Y15317413D01*
X12897166Y15256090D01*
X12900000Y15229732D01*
X12900000Y14224000D01*
X12880315Y14156961D01*
X12827511Y14111206D01*
X12776000Y14100000D01*
X10409636Y14100000D01*
X10362184Y14109439D01*
X10318711Y14127446D01*
X10318709Y14127447D01*
X10318708Y14127447D01*
X10246853Y14136907D01*
X10175000Y14146367D01*
X10174998Y14146367D01*
X10031290Y14127447D01*
X10031286Y14127446D01*
X9987814Y14109439D01*
X9940362Y14100000D01*
X9855880Y14100000D01*
X9788841Y14119685D01*
X9744479Y14169541D01*
X9712599Y14234755D01*
X9700000Y14289214D01*
X9700000Y14760787D01*
X9712599Y14815247D01*
X9714198Y14818517D01*
X9765573Y14923607D01*
X9775500Y14991740D01*
X9775500Y15608260D01*
X9765573Y15676393D01*
X9714198Y15781483D01*
X9712599Y15784754D01*
X9700000Y15839214D01*
X9700000Y15850500D01*
X9719685Y15917539D01*
X9772489Y15963294D01*
X9824000Y15974500D01*
X12255233Y15974500D01*
X12322272Y15954815D01*
G37*
%TD.AperFunction*%
%TD*%
%TA.AperFunction,Conductor*%
%TO.N,+3V3*%
G36*
X14780564Y12580315D02*
G01*
X14800495Y12561982D01*
X14801636Y12563122D01*
X14807378Y12557379D01*
X14885936Y12497100D01*
X14922375Y12469139D01*
X15056291Y12413670D01*
X15183280Y12396952D01*
X15199999Y12394750D01*
X15200000Y12394750D01*
X15200001Y12394750D01*
X15214977Y12396722D01*
X15343709Y12413670D01*
X15477625Y12469139D01*
X15480672Y12471477D01*
X15483705Y12472650D01*
X15484664Y12473203D01*
X15484750Y12473054D01*
X15545842Y12496670D01*
X15556157Y12497100D01*
X15676000Y12497100D01*
X15743039Y12477415D01*
X15788794Y12424611D01*
X15800000Y12373100D01*
X15800000Y6124000D01*
X15780315Y6056961D01*
X15727511Y6011206D01*
X15676000Y6000000D01*
X13524000Y6000000D01*
X13456961Y6019685D01*
X13411206Y6072489D01*
X13400000Y6124000D01*
X13400000Y7923103D01*
X13419685Y7990142D01*
X13472489Y8035897D01*
X13540186Y8046042D01*
X13549999Y8044750D01*
X13550000Y8044750D01*
X13550001Y8044750D01*
X13564977Y8046722D01*
X13693709Y8063670D01*
X13827625Y8119139D01*
X13942621Y8207379D01*
X14030861Y8322375D01*
X14086330Y8456291D01*
X14105250Y8600000D01*
X14086330Y8743709D01*
X14030861Y8877625D01*
X13942621Y8992621D01*
X13827625Y9080861D01*
X13827624Y9080862D01*
X13827622Y9080863D01*
X13693712Y9136329D01*
X13693710Y9136330D01*
X13693709Y9136330D01*
X13559814Y9153958D01*
X13550001Y9155250D01*
X13549996Y9155250D01*
X13540178Y9153958D01*
X13471144Y9164728D01*
X13418890Y9211111D01*
X13400000Y9276898D01*
X13400000Y10400000D01*
X13125967Y10400000D01*
X13085274Y10409769D01*
X13084580Y10407632D01*
X13075302Y10410647D01*
X12981524Y10425500D01*
X12418481Y10425500D01*
X12318896Y10409728D01*
X12249602Y10418684D01*
X12196151Y10463682D01*
X12175513Y10530433D01*
X12175500Y10532202D01*
X12175500Y12355233D01*
X12195185Y12422272D01*
X12211819Y12442914D01*
X12307086Y12538181D01*
X12368409Y12571666D01*
X12394767Y12574500D01*
X12740703Y12574500D01*
X12740711Y12574499D01*
X12755145Y12574499D01*
X12844852Y12574499D01*
X12844855Y12574499D01*
X12883631Y12590562D01*
X12931084Y12600000D01*
X14713525Y12600000D01*
X14780564Y12580315D01*
G37*
%TD.AperFunction*%
%TD*%
%TA.AperFunction,Conductor*%
%TO.N,GND*%
G36*
X6119101Y5273063D02*
G01*
X6148686Y5221821D01*
X6150000Y5206800D01*
X6150000Y3599658D01*
X6129763Y3544057D01*
X6078521Y3514472D01*
X6020250Y3524747D01*
X6002339Y3538490D01*
X5937016Y3603813D01*
X5837662Y3647682D01*
X5813373Y3650500D01*
X5386628Y3650500D01*
X5362338Y3647682D01*
X5362337Y3647682D01*
X5262986Y3603814D01*
X5262984Y3603813D01*
X5186187Y3527016D01*
X5186186Y3527014D01*
X5142318Y3427663D01*
X5142318Y3427662D01*
X5139500Y3403374D01*
X5139500Y3115934D01*
X5119263Y3060333D01*
X5114165Y3054769D01*
X4927701Y2868306D01*
X4874075Y2843300D01*
X4843828Y2846005D01*
X4837666Y2847682D01*
X4813373Y2850500D01*
X4386628Y2850500D01*
X4362338Y2847682D01*
X4362334Y2847681D01*
X4331509Y2834070D01*
X4296571Y2826700D01*
X3947679Y2826700D01*
X3911905Y2837553D01*
X3911100Y2835607D01*
X3903231Y2838867D01*
X3903229Y2838868D01*
X3903228Y2838868D01*
X3844752Y2850500D01*
X3844748Y2850500D01*
X3030252Y2850500D01*
X3030247Y2850500D01*
X2971770Y2838868D01*
X2971767Y2838867D01*
X2932822Y2812844D01*
X2897045Y2804091D01*
X2887156Y2767178D01*
X2861133Y2728233D01*
X2861132Y2728230D01*
X2849500Y2669753D01*
X2849500Y2530248D01*
X2861132Y2471771D01*
X2861132Y2471770D01*
X2861133Y2471769D01*
X2876977Y2448057D01*
X2891041Y2390584D01*
X2876977Y2351944D01*
X2861135Y2328236D01*
X2861132Y2328229D01*
X2849500Y2269752D01*
X2849500Y2130247D01*
X2861132Y2071771D01*
X2864393Y2063899D01*
X2861237Y2062593D01*
X2871819Y2019348D01*
X2846998Y1967602D01*
X2581611Y1702214D01*
X2550335Y1626703D01*
X2550335Y1626702D01*
X2547100Y1618892D01*
X2547100Y-18896D01*
X2581612Y-102214D01*
X2581612Y-102215D01*
X2846999Y-367602D01*
X2872005Y-421228D01*
X2861390Y-462657D01*
X2864393Y-463901D01*
X2861132Y-471772D01*
X2849500Y-530248D01*
X2849500Y-669753D01*
X2861132Y-728230D01*
X2861134Y-728234D01*
X2876976Y-751943D01*
X2891040Y-809417D01*
X2876977Y-848056D01*
X2861133Y-871767D01*
X2861132Y-871770D01*
X2849500Y-930247D01*
X2849500Y-1069752D01*
X2861132Y-1128229D01*
X2861132Y-1128230D01*
X2861133Y-1128231D01*
X2876977Y-1151943D01*
X2891041Y-1209416D01*
X2876977Y-1248056D01*
X2871306Y-1256543D01*
X2861132Y-1271769D01*
X2861132Y-1271770D01*
X2849500Y-1330247D01*
X2849500Y-1469752D01*
X2861132Y-1528229D01*
X2861132Y-1528230D01*
X2861133Y-1528231D01*
X2876977Y-1551943D01*
X2891041Y-1609416D01*
X2876977Y-1648056D01*
X2876976Y-1648059D01*
X2861132Y-1671769D01*
X2861132Y-1671770D01*
X2849500Y-1730247D01*
X2849500Y-1869752D01*
X2861132Y-1928229D01*
X2861134Y-1928233D01*
X2876976Y-1951942D01*
X2891040Y-2009416D01*
X2876977Y-2048055D01*
X2861133Y-2071766D01*
X2861132Y-2071769D01*
X2849500Y-2130246D01*
X2849500Y-2269751D01*
X2861132Y-2328228D01*
X2861132Y-2328229D01*
X2861133Y-2328230D01*
X2876977Y-2351942D01*
X2891041Y-2409415D01*
X2876977Y-2448055D01*
X2861135Y-2471763D01*
X2861132Y-2471770D01*
X2849500Y-2530247D01*
X2849500Y-2669752D01*
X2861132Y-2728229D01*
X2861134Y-2728233D01*
X2887155Y-2767176D01*
X2895909Y-2802953D01*
X2932823Y-2812844D01*
X2939323Y-2817187D01*
X2971769Y-2838867D01*
X3030252Y-2850500D01*
X3735352Y-2850500D01*
X3790953Y-2870737D01*
X3820538Y-2921979D01*
X3821852Y-2937000D01*
X3821852Y-3171306D01*
X3856364Y-3254624D01*
X3856364Y-3254625D01*
X4545374Y-3943635D01*
X4628693Y-3978147D01*
X4628695Y-3978148D01*
X4628696Y-3978148D01*
X5834544Y-3978148D01*
X5834545Y-3978147D01*
X5917865Y-3943635D01*
X6002335Y-3859165D01*
X6055961Y-3834158D01*
X6113114Y-3849472D01*
X6147052Y-3897941D01*
X6150000Y-3920329D01*
X6150000Y-4202313D01*
X6149606Y-4209124D01*
X6149644Y-4209127D01*
X6149500Y-4211620D01*
X6149500Y-4638376D01*
X6149645Y-4640870D01*
X6149606Y-4640872D01*
X6150000Y-4647675D01*
X6150000Y-4952200D01*
X6129763Y-5007801D01*
X6078521Y-5037386D01*
X6063500Y-5038700D01*
X4145132Y-5038700D01*
X4089531Y-5018463D01*
X4083967Y-5013365D01*
X3669001Y-4598399D01*
X3253616Y-4183013D01*
X2875835Y-3805232D01*
X2850829Y-3751606D01*
X2850500Y-3744067D01*
X2850500Y-3030255D01*
X2850499Y-3030247D01*
X2838867Y-2971770D01*
X2838865Y-2971767D01*
X2812844Y-2932823D01*
X2804089Y-2897046D01*
X2767176Y-2887155D01*
X2728233Y-2861134D01*
X2728229Y-2861132D01*
X2669752Y-2849500D01*
X2669748Y-2849500D01*
X2530252Y-2849500D01*
X2530247Y-2849500D01*
X2471770Y-2861132D01*
X2471763Y-2861135D01*
X2448055Y-2876977D01*
X2390582Y-2891041D01*
X2351942Y-2876977D01*
X2328230Y-2861133D01*
X2328229Y-2861132D01*
X2328228Y-2861132D01*
X2269751Y-2849500D01*
X2269747Y-2849500D01*
X2130251Y-2849500D01*
X2130246Y-2849500D01*
X2071769Y-2861132D01*
X2071766Y-2861133D01*
X2048055Y-2876977D01*
X1990581Y-2891040D01*
X1951942Y-2876976D01*
X1928233Y-2861134D01*
X1928229Y-2861132D01*
X1869752Y-2849500D01*
X1869748Y-2849500D01*
X1730252Y-2849500D01*
X1730247Y-2849500D01*
X1671770Y-2861132D01*
X1671769Y-2861132D01*
X1657396Y-2870737D01*
X1648056Y-2876977D01*
X1590584Y-2891041D01*
X1551943Y-2876977D01*
X1528231Y-2861133D01*
X1528230Y-2861132D01*
X1528229Y-2861132D01*
X1469752Y-2849500D01*
X1469748Y-2849500D01*
X1330252Y-2849500D01*
X1330247Y-2849500D01*
X1271770Y-2861132D01*
X1271769Y-2861132D01*
X1257396Y-2870737D01*
X1248056Y-2876977D01*
X1190584Y-2891041D01*
X1151943Y-2876977D01*
X1128231Y-2861133D01*
X1128230Y-2861132D01*
X1128229Y-2861132D01*
X1069752Y-2849500D01*
X1069748Y-2849500D01*
X1034651Y-2849500D01*
X979050Y-2829263D01*
X949465Y-2778021D01*
X959740Y-2719750D01*
X1001547Y-2683085D01*
X1127625Y-2630863D01*
X1242621Y-2542623D01*
X1330861Y-2427627D01*
X1386330Y-2293711D01*
X1405250Y-2150002D01*
X1386330Y-2006293D01*
X1330861Y-1872377D01*
X1242621Y-1757381D01*
X1242619Y-1757379D01*
X1199207Y-1724068D01*
X1127625Y-1669141D01*
X993709Y-1613672D01*
X993708Y-1613671D01*
X993706Y-1613671D01*
X850000Y-1594752D01*
X706293Y-1613671D01*
X572375Y-1669141D01*
X457380Y-1757379D01*
X457377Y-1757382D01*
X369139Y-1872377D01*
X313669Y-2006295D01*
X294750Y-2150002D01*
X313669Y-2293708D01*
X315137Y-2299184D01*
X313019Y-2299751D01*
X315222Y-2350361D01*
X293894Y-2385502D01*
X157634Y-2521764D01*
X104009Y-2546771D01*
X96469Y-2547100D01*
X-818897Y-2547100D01*
X-902215Y-2581612D01*
X-902217Y-2581613D01*
X-1167602Y-2846998D01*
X-1221228Y-2872004D01*
X-1262652Y-2861387D01*
X-1263897Y-2864394D01*
X-1271771Y-2861132D01*
X-1330248Y-2849500D01*
X-1330252Y-2849500D01*
X-1469748Y-2849500D01*
X-1469753Y-2849500D01*
X-1528230Y-2861132D01*
X-1528231Y-2861132D01*
X-1542604Y-2870737D01*
X-1551944Y-2876977D01*
X-1609416Y-2891041D01*
X-1648057Y-2876977D01*
X-1671769Y-2861133D01*
X-1671770Y-2861132D01*
X-1671771Y-2861132D01*
X-1730248Y-2849500D01*
X-1730252Y-2849500D01*
X-1869748Y-2849500D01*
X-1869753Y-2849500D01*
X-1928230Y-2861132D01*
X-1928233Y-2861133D01*
X-1951944Y-2876977D01*
X-2009418Y-2891040D01*
X-2048057Y-2876976D01*
X-2071766Y-2861134D01*
X-2071770Y-2861132D01*
X-2130247Y-2849500D01*
X-2130251Y-2849500D01*
X-2269747Y-2849500D01*
X-2269752Y-2849500D01*
X-2328229Y-2861132D01*
X-2328236Y-2861135D01*
X-2351944Y-2876977D01*
X-2409417Y-2891041D01*
X-2448057Y-2876977D01*
X-2471769Y-2861133D01*
X-2471770Y-2861132D01*
X-2471771Y-2861132D01*
X-2530248Y-2849500D01*
X-2530252Y-2849500D01*
X-2669748Y-2849500D01*
X-2669753Y-2849500D01*
X-2728230Y-2861132D01*
X-2728233Y-2861133D01*
X-2767178Y-2887156D01*
X-2802955Y-2895909D01*
X-2812844Y-2932822D01*
X-2838867Y-2971767D01*
X-2838868Y-2971770D01*
X-2850500Y-3030247D01*
X-2850500Y-3309974D01*
X-2870737Y-3365575D01*
X-2921979Y-3395160D01*
X-2937000Y-3396474D01*
X-3704542Y-3396474D01*
X-3760143Y-3376237D01*
X-3789728Y-3324995D01*
X-3779453Y-3266724D01*
X-3765707Y-3248809D01*
X-3392733Y-2875835D01*
X-3339107Y-2850829D01*
X-3331568Y-2850500D01*
X-3030256Y-2850500D01*
X-3030252Y-2850500D01*
X-2971769Y-2838867D01*
X-2932825Y-2812844D01*
X-2897047Y-2804089D01*
X-2887155Y-2767175D01*
X-2861136Y-2728235D01*
X-2861133Y-2728231D01*
X-2849500Y-2669748D01*
X-2849500Y-2530252D01*
X-2861133Y-2471769D01*
X-2876977Y-2448057D01*
X-2891042Y-2390584D01*
X-2876979Y-2351944D01*
X-2861133Y-2328230D01*
X-2849500Y-2269747D01*
X-2849500Y-2130251D01*
X-2861133Y-2071768D01*
X-2876978Y-2048055D01*
X-2891041Y-1990583D01*
X-2876978Y-1951942D01*
X-2861133Y-1928231D01*
X-2849500Y-1869748D01*
X-2849500Y-1730252D01*
X-2861133Y-1671769D01*
X-2876978Y-1648056D01*
X-2891042Y-1590586D01*
X-2876979Y-1551945D01*
X-2861133Y-1528231D01*
X-2849500Y-1469748D01*
X-2849500Y-1330252D01*
X-2861133Y-1271769D01*
X-2876976Y-1248058D01*
X-2905447Y-1205449D01*
X-2905450Y-1205446D01*
X-2971767Y-1161134D01*
X-2971771Y-1161132D01*
X-3030248Y-1149500D01*
X-3030252Y-1149500D01*
X-3844748Y-1149500D01*
X-3844753Y-1149500D01*
X-3903229Y-1161132D01*
X-3911100Y-1164393D01*
X-3911906Y-1162447D01*
X-3947679Y-1173300D01*
X-5195095Y-1173300D01*
X-5205399Y-1177568D01*
X-5264512Y-1180148D01*
X-5311454Y-1144127D01*
X-5325000Y-1097652D01*
X-5325000Y-913201D01*
X-5304763Y-857600D01*
X-5253521Y-828015D01*
X-5238500Y-826701D01*
X-3947679Y-826701D01*
X-3911906Y-837553D01*
X-3911100Y-835608D01*
X-3903235Y-838865D01*
X-3903231Y-838868D01*
X-3844748Y-850501D01*
X-3844744Y-850501D01*
X-3030256Y-850501D01*
X-3030252Y-850501D01*
X-2971769Y-838868D01*
X-2905448Y-794553D01*
X-2861133Y-728232D01*
X-2849500Y-669749D01*
X-2849500Y-574381D01*
X-2829263Y-518780D01*
X-2778021Y-489195D01*
X-2719750Y-499470D01*
X-2710345Y-505754D01*
X-2677625Y-530861D01*
X-2543709Y-586330D01*
X-2400000Y-605250D01*
X-2256291Y-586330D01*
X-2122375Y-530861D01*
X-2007379Y-442621D01*
X-1919139Y-327625D01*
X-1863670Y-193709D01*
X-1844750Y-50000D01*
X-1863670Y93709D01*
X-1919139Y227625D01*
X-2007379Y342621D01*
X-2007381Y342623D01*
X-2050793Y375934D01*
X-2122375Y430861D01*
X-2256291Y486330D01*
X-2256292Y486331D01*
X-2256294Y486331D01*
X-2400000Y505250D01*
X-2543707Y486331D01*
X-2543709Y486330D01*
X-2671778Y433284D01*
X-2704875Y426700D01*
X-2764697Y426700D01*
X-2820298Y446937D01*
X-2849883Y498179D01*
X-2849581Y525989D01*
X-2849917Y526022D01*
X-2849539Y529869D01*
X-2849536Y530070D01*
X-2849523Y530140D01*
X-2849500Y530253D01*
X-2849500Y669749D01*
X-2861133Y728232D01*
X-2876978Y751945D01*
X-2891041Y809417D01*
X-2876978Y848058D01*
X-2861133Y871769D01*
X-2849500Y930252D01*
X-2849500Y1069748D01*
X-2861133Y1128231D01*
X-2876978Y1151944D01*
X-2891042Y1209414D01*
X-2876979Y1248055D01*
X-2861133Y1271769D01*
X-2849500Y1330252D01*
X-2849500Y1469748D01*
X-2861133Y1528231D01*
X-2876978Y1551944D01*
X-2891042Y1609414D01*
X-2876979Y1648055D01*
X-2861133Y1671769D01*
X-2849500Y1730252D01*
X-2849500Y1869748D01*
X-2861133Y1928231D01*
X-2876978Y1951944D01*
X-2891041Y2009416D01*
X-2876978Y2048057D01*
X-2861133Y2071768D01*
X-2849500Y2130251D01*
X-2849500Y2269747D01*
X-2861133Y2328230D01*
X-2876977Y2351942D01*
X-2891042Y2409415D01*
X-2876979Y2448055D01*
X-2861133Y2471769D01*
X-2849500Y2530252D01*
X-2849500Y2669748D01*
X-2861133Y2728231D01*
X-2872354Y2745024D01*
X-2887156Y2767177D01*
X-2895911Y2802954D01*
X-2932824Y2812845D01*
X-2971767Y2838866D01*
X-2971771Y2838868D01*
X-3030248Y2850500D01*
X-3030252Y2850500D01*
X-3844748Y2850500D01*
X-3844753Y2850500D01*
X-3903229Y2838868D01*
X-3911100Y2835607D01*
X-3911906Y2837553D01*
X-3947679Y2826700D01*
X-4474055Y2826700D01*
X-4529656Y2846937D01*
X-4535220Y2852035D01*
X-5299665Y3616481D01*
X-5324671Y3670107D01*
X-5325000Y3677646D01*
X-5325000Y4157000D01*
X-5304763Y4212601D01*
X-5253521Y4242186D01*
X-5238500Y4243500D01*
X-4907907Y4243500D01*
X-4852306Y4223263D01*
X-4846742Y4218165D01*
X-4356761Y3728185D01*
X-4356762Y3728185D01*
X-4306222Y3677646D01*
X-4292989Y3664413D01*
X-4292984Y3664411D01*
X-4244186Y3644199D01*
X-4244184Y3644197D01*
X-4244183Y3644197D01*
X-4209668Y3629900D01*
X-4209667Y3629900D01*
X-3148833Y3629900D01*
X-3093232Y3609663D01*
X-3087668Y3604565D01*
X-2875835Y3392733D01*
X-2850829Y3339107D01*
X-2850500Y3331568D01*
X-2850500Y3030248D01*
X-2838868Y2971771D01*
X-2838866Y2971767D01*
X-2812845Y2932824D01*
X-2804091Y2897047D01*
X-2767177Y2887156D01*
X-2748236Y2874500D01*
X-2728231Y2861133D01*
X-2669748Y2849500D01*
X-2669744Y2849500D01*
X-2530256Y2849500D01*
X-2530252Y2849500D01*
X-2471769Y2861133D01*
X-2448057Y2876978D01*
X-2390586Y2891042D01*
X-2351942Y2876977D01*
X-2348235Y2874500D01*
X-2328230Y2861133D01*
X-2269747Y2849500D01*
X-2269743Y2849500D01*
X-2130255Y2849500D01*
X-2130251Y2849500D01*
X-2071768Y2861133D01*
X-2048057Y2876977D01*
X-1990585Y2891041D01*
X-1951944Y2876978D01*
X-1928231Y2861133D01*
X-1869748Y2849500D01*
X-1869744Y2849500D01*
X-1730256Y2849500D01*
X-1730252Y2849500D01*
X-1671769Y2861133D01*
X-1648057Y2876978D01*
X-1590586Y2891042D01*
X-1551946Y2876979D01*
X-1528231Y2861133D01*
X-1469748Y2849500D01*
X-1469744Y2849500D01*
X-1338600Y2849500D01*
X-1282999Y2829263D01*
X-1253414Y2778021D01*
X-1252100Y2763000D01*
X-1252100Y2712759D01*
X-1272337Y2657158D01*
X-1285934Y2644140D01*
X-1287911Y2642624D01*
X-1287917Y2642618D01*
X-1376153Y2527625D01*
X-1431623Y2393707D01*
X-1450542Y2250000D01*
X-1431623Y2106294D01*
X-1431623Y2106292D01*
X-1431622Y2106291D01*
X-1376153Y1972375D01*
X-1360474Y1951942D01*
X-1297411Y1869756D01*
X-1287913Y1857379D01*
X-1172917Y1769139D01*
X-1039001Y1713670D01*
X-895292Y1694750D01*
X-751583Y1713670D01*
X-617667Y1769139D01*
X-502671Y1857379D01*
X-414431Y1972375D01*
X-358962Y2106291D01*
X-340042Y2250000D01*
X-358962Y2393709D01*
X-414431Y2527625D01*
X-486015Y2620915D01*
X-502670Y2642620D01*
X-502673Y2642623D01*
X-571090Y2695121D01*
X-602882Y2745024D01*
X-595158Y2803687D01*
X-551534Y2843662D01*
X-534283Y2847980D01*
X-534420Y2848671D01*
X-530253Y2849500D01*
X-530247Y2849501D01*
X-517509Y2852035D01*
X-471770Y2861133D01*
X-448058Y2876978D01*
X-390587Y2891042D01*
X-351943Y2876977D01*
X-348236Y2874500D01*
X-328231Y2861133D01*
X-269748Y2849500D01*
X-269744Y2849500D01*
X-130256Y2849500D01*
X-130252Y2849500D01*
X-71769Y2861133D01*
X-48057Y2876978D01*
X9414Y2891042D01*
X48054Y2876979D01*
X71769Y2861133D01*
X130252Y2849500D01*
X130256Y2849500D01*
X269744Y2849500D01*
X269748Y2849500D01*
X328231Y2861133D01*
X351943Y2876978D01*
X409414Y2891042D01*
X448058Y2876977D01*
X451765Y2874500D01*
X471770Y2861133D01*
X530253Y2849500D01*
X530257Y2849500D01*
X669745Y2849500D01*
X669749Y2849500D01*
X728232Y2861133D01*
X751943Y2876977D01*
X809415Y2891041D01*
X848056Y2876978D01*
X871769Y2861133D01*
X930252Y2849500D01*
X930256Y2849500D01*
X1069744Y2849500D01*
X1069748Y2849500D01*
X1128231Y2861133D01*
X1151943Y2876978D01*
X1209414Y2891042D01*
X1248054Y2876979D01*
X1271769Y2861133D01*
X1330252Y2849500D01*
X1330256Y2849500D01*
X1469744Y2849500D01*
X1469748Y2849500D01*
X1528231Y2861133D01*
X1551943Y2876978D01*
X1609414Y2891042D01*
X1648054Y2876979D01*
X1671769Y2861133D01*
X1730252Y2849500D01*
X1730256Y2849500D01*
X1869744Y2849500D01*
X1869748Y2849500D01*
X1928231Y2861133D01*
X1951942Y2876977D01*
X2009414Y2891041D01*
X2048055Y2876978D01*
X2071768Y2861133D01*
X2130251Y2849500D01*
X2130255Y2849500D01*
X2269743Y2849500D01*
X2269747Y2849500D01*
X2328230Y2861133D01*
X2351942Y2876978D01*
X2409413Y2891042D01*
X2448057Y2876977D01*
X2451764Y2874500D01*
X2471769Y2861133D01*
X2530252Y2849500D01*
X2530256Y2849500D01*
X2669744Y2849500D01*
X2669748Y2849500D01*
X2728231Y2861133D01*
X2767175Y2887156D01*
X2802953Y2895911D01*
X2812845Y2932825D01*
X2838867Y2971769D01*
X2850500Y3030252D01*
X2850500Y3844748D01*
X2838867Y3903231D01*
X2838864Y3903235D01*
X2835607Y3911100D01*
X2837549Y3911905D01*
X2826700Y3947680D01*
X2826700Y4890269D01*
X2846937Y4945870D01*
X2852025Y4951424D01*
X2964767Y5064167D01*
X3018393Y5089172D01*
X3025932Y5089501D01*
X3313372Y5089501D01*
X3337662Y5092318D01*
X3437016Y5136187D01*
X3513813Y5212984D01*
X3513813Y5212986D01*
X3513835Y5213007D01*
X3567461Y5238013D01*
X3624614Y5222699D01*
X3636165Y5213007D01*
X3636186Y5212986D01*
X3636187Y5212984D01*
X3712984Y5136187D01*
X3812338Y5092318D01*
X3836627Y5089500D01*
X4263372Y5089501D01*
X4287662Y5092318D01*
X4387016Y5136187D01*
X4463813Y5212984D01*
X4476509Y5241739D01*
X4517480Y5284428D01*
X4555639Y5293300D01*
X4954907Y5293300D01*
X6063500Y5293300D01*
X6119101Y5273063D01*
G37*
%TD.AperFunction*%
%TA.AperFunction,Conductor*%
G36*
X-2916780Y6929763D02*
G01*
X-2911216Y6924665D01*
X-2844716Y6858165D01*
X-2819710Y6804539D01*
X-2835024Y6747386D01*
X-2883493Y6713447D01*
X-2905879Y6710500D01*
X-2953372Y6710500D01*
X-2977662Y6707682D01*
X-2977663Y6707682D01*
X-3077014Y6663814D01*
X-3077016Y6663813D01*
X-3153813Y6587016D01*
X-3153814Y6587014D01*
X-3197682Y6487663D01*
X-3197682Y6487662D01*
X-3200500Y6463374D01*
X-3200500Y6036629D01*
X-3198303Y6017695D01*
X-3197682Y6012338D01*
X-3153813Y5912984D01*
X-3153811Y5912982D01*
X-3077021Y5836191D01*
X-3077018Y5836189D01*
X-3077016Y5836187D01*
X-3073664Y5834707D01*
X-3070696Y5831859D01*
X-3070406Y5831660D01*
X-3070439Y5831613D01*
X-3030974Y5793740D01*
X-3022100Y5755577D01*
X-3022100Y5599854D01*
X-2983720Y5507197D01*
X-2875835Y5399312D01*
X-2850829Y5345686D01*
X-2850500Y5338147D01*
X-2850500Y5086626D01*
X-2850355Y5084132D01*
X-2851229Y5084082D01*
X-2864227Y5029414D01*
X-2911714Y4994116D01*
X-2936462Y4990500D01*
X-3659068Y4990500D01*
X-3714669Y5010737D01*
X-3720233Y5015835D01*
X-3997698Y5293300D01*
X-4296584Y5592187D01*
X-4296585Y5592188D01*
X-4379904Y5626700D01*
X-4379906Y5626700D01*
X-4379907Y5626700D01*
X-5238500Y5626700D01*
X-5294101Y5646937D01*
X-5323686Y5698179D01*
X-5325000Y5713200D01*
X-5325000Y6863500D01*
X-5304763Y6919101D01*
X-5253521Y6948686D01*
X-5238500Y6950000D01*
X-2972381Y6950000D01*
X-2916780Y6929763D01*
G37*
%TD.AperFunction*%
%TA.AperFunction,Conductor*%
G36*
X6119101Y6929763D02*
G01*
X6148686Y6878521D01*
X6150000Y6863500D01*
X6150000Y5833200D01*
X6129763Y5777599D01*
X6078521Y5748014D01*
X6063500Y5746700D01*
X4555639Y5746700D01*
X4500038Y5766937D01*
X4476509Y5798262D01*
X4473172Y5805819D01*
X4463813Y5827016D01*
X4387016Y5903813D01*
X4287662Y5947682D01*
X4263373Y5950500D01*
X3836628Y5950500D01*
X3812338Y5947682D01*
X3812337Y5947682D01*
X3722840Y5908165D01*
X3712984Y5903813D01*
X3636187Y5827016D01*
X3636186Y5827015D01*
X3636165Y5826993D01*
X3582539Y5801987D01*
X3525386Y5817301D01*
X3513835Y5826993D01*
X3513813Y5827015D01*
X3513813Y5827016D01*
X3437016Y5903813D01*
X3337662Y5947682D01*
X3313373Y5950500D01*
X2886628Y5950500D01*
X2862338Y5947682D01*
X2862337Y5947682D01*
X2762986Y5903814D01*
X2762984Y5903813D01*
X2686187Y5827016D01*
X2686186Y5827014D01*
X2642318Y5727663D01*
X2642318Y5727662D01*
X2639500Y5703374D01*
X2639500Y5415934D01*
X2619263Y5360333D01*
X2614165Y5354769D01*
X2574364Y5314968D01*
X2520738Y5289962D01*
X2463585Y5305276D01*
X2429646Y5353745D01*
X2426699Y5376133D01*
X2426699Y5722498D01*
X2426698Y5722500D01*
X2392186Y5805818D01*
X2392186Y5805819D01*
X2328414Y5869591D01*
X1859708Y6338298D01*
X1834702Y6391924D01*
X1839686Y6424289D01*
X1838466Y6424615D01*
X1839932Y6430089D01*
X1839931Y6430089D01*
X1839933Y6430091D01*
X1858853Y6573800D01*
X1839933Y6717509D01*
X1793172Y6830400D01*
X1790593Y6889512D01*
X1826613Y6936454D01*
X1873089Y6950000D01*
X6063500Y6950000D01*
X6119101Y6929763D01*
G37*
%TD.AperFunction*%
%TD*%
%TA.AperFunction,Conductor*%
%TO.N,Net-(D203-A)*%
G36*
X-18056961Y11780315D02*
G01*
X-18011206Y11727511D01*
X-18000000Y11676000D01*
X-18000000Y8224000D01*
X-18019685Y8156961D01*
X-18072489Y8111206D01*
X-18124000Y8100000D01*
X-23876000Y8100000D01*
X-23943039Y8119685D01*
X-23988794Y8172489D01*
X-24000000Y8224000D01*
X-24000000Y10172720D01*
X-23980315Y10239759D01*
X-23963684Y10260398D01*
X-23637101Y10586982D01*
X-23575778Y10620466D01*
X-23549420Y10623300D01*
X-23295265Y10623300D01*
X-23228226Y10603615D01*
X-23207584Y10586981D01*
X-22992653Y10372050D01*
X-22965773Y10331821D01*
X-22913072Y10204587D01*
X-22913071Y10204585D01*
X-22913070Y10204584D01*
X-22824830Y10089588D01*
X-22709834Y10001348D01*
X-22575918Y9945879D01*
X-22448929Y9929161D01*
X-22432210Y9926959D01*
X-22432209Y9926959D01*
X-22432208Y9926959D01*
X-22417232Y9928931D01*
X-22288500Y9945879D01*
X-22154584Y10001348D01*
X-22039588Y10089588D01*
X-21963470Y10188787D01*
X-21907044Y10229988D01*
X-21837298Y10234143D01*
X-21776378Y10199931D01*
X-21766721Y10188786D01*
X-21742624Y10157382D01*
X-21742623Y10157381D01*
X-21742621Y10157379D01*
X-21627625Y10069139D01*
X-21493709Y10013670D01*
X-21366720Y9996952D01*
X-21350001Y9994750D01*
X-21350000Y9994750D01*
X-21349999Y9994750D01*
X-21335023Y9996722D01*
X-21206291Y10013670D01*
X-21072375Y10069139D01*
X-20957379Y10157379D01*
X-20869139Y10272375D01*
X-20813670Y10406291D01*
X-20794750Y10550000D01*
X-20813670Y10693709D01*
X-20869139Y10827625D01*
X-20869521Y10828548D01*
X-20876990Y10898017D01*
X-20845714Y10960496D01*
X-20785625Y10996148D01*
X-20754960Y11000000D01*
X-19850001Y11000000D01*
X-19850000Y11000000D01*
X-19136742Y11760810D01*
X-19076530Y11796253D01*
X-19046279Y11800000D01*
X-18124000Y11800000D01*
X-18056961Y11780315D01*
G37*
%TD.AperFunction*%
%TD*%
%TA.AperFunction,Conductor*%
%TO.N,+3V3*%
G36*
X17928653Y2180315D02*
G01*
X17974408Y2127511D01*
X17985614Y2076000D01*
X17985614Y-57706D01*
X18020127Y-141027D01*
X18111981Y-232880D01*
X18145466Y-294203D01*
X18148300Y-320562D01*
X18148300Y-976000D01*
X18128615Y-1043039D01*
X18075811Y-1088794D01*
X18024300Y-1100000D01*
X16175097Y-1100000D01*
X16108058Y-1080315D01*
X16099620Y-1074383D01*
X16027625Y-1019139D01*
X16027624Y-1019138D01*
X16027622Y-1019137D01*
X15893712Y-963671D01*
X15893710Y-963670D01*
X15893709Y-963670D01*
X15821854Y-954210D01*
X15750001Y-944750D01*
X15749998Y-944750D01*
X15603277Y-964066D01*
X15534242Y-953300D01*
X15499411Y-928808D01*
X15244816Y-674213D01*
X15161495Y-639700D01*
X15161494Y-639700D01*
X15161493Y-639700D01*
X12924000Y-639700D01*
X12856961Y-620015D01*
X12811206Y-567211D01*
X12800000Y-515700D01*
X12800000Y2076000D01*
X12819685Y2143039D01*
X12872489Y2188794D01*
X12924000Y2200000D01*
X17861614Y2200000D01*
X17928653Y2180315D01*
G37*
%TD.AperFunction*%
%TD*%
%TA.AperFunction,Conductor*%
%TO.N,/VBUS*%
G36*
X18756036Y12477415D02*
G01*
X18776678Y12460781D01*
X19163681Y12073778D01*
X19197166Y12012455D01*
X19200000Y11986097D01*
X19200000Y10599500D01*
X19180315Y10532461D01*
X19127511Y10486706D01*
X19076000Y10475500D01*
X18518482Y10475500D01*
X18437519Y10462677D01*
X18424696Y10460646D01*
X18311658Y10403050D01*
X18311657Y10403049D01*
X18311652Y10403046D01*
X18221954Y10313348D01*
X18221951Y10313343D01*
X18221950Y10313342D01*
X18212652Y10295094D01*
X18164352Y10200302D01*
X18149500Y10106525D01*
X18149500Y9093483D01*
X18156635Y9048434D01*
X18164354Y8999696D01*
X18221950Y8886658D01*
X18221952Y8886656D01*
X18221954Y8886653D01*
X18311652Y8796955D01*
X18311654Y8796954D01*
X18311658Y8796950D01*
X18422164Y8740644D01*
X18424698Y8739353D01*
X18518475Y8724501D01*
X18518481Y8724500D01*
X19076000Y8724501D01*
X19143039Y8704817D01*
X19188794Y8652013D01*
X19200000Y8600501D01*
X19200000Y6907903D01*
X19180315Y6840864D01*
X19163681Y6820222D01*
X18905415Y6561957D01*
X18905410Y6561949D01*
X18879945Y6500469D01*
X18879945Y6500468D01*
X18870900Y6478634D01*
X18870900Y6124000D01*
X18851215Y6056961D01*
X18798411Y6011206D01*
X18746900Y6000000D01*
X16079500Y6000000D01*
X16012461Y6019685D01*
X15966706Y6072489D01*
X15955500Y6124000D01*
X15955500Y12373100D01*
X15975185Y12440139D01*
X16027989Y12485894D01*
X16079500Y12497100D01*
X18688997Y12497100D01*
X18756036Y12477415D01*
G37*
%TD.AperFunction*%
%TD*%
M02*
