  0
SECTION
  2
HEADER
  9
$ACADVER
  1
AC1006
  9
$EXTMIN
 10
0.000000
 20
0.000000
 30
0.000000
  9
$EXTMAX
 10
359.000000
 20
503.000000
 30
0.000000
  0
ENDSEC
  0
SECTION
  2
ENTITIES
  0
POLYLINE
  8
0
 66
1
 70
1
  0
VERTEX
  8
0
 10
183.500000
 20
488.423289
 42
-0.004026
  0
VERTEX
  8
0
 10
181.779499
 20
488.195146
 42
-0.000735
  0
VERTEX
  8
0
 10
178.590625
 20
487.803155
 42
-0.000791
  0
VERTEX
  8
0
 10
174.857079
 20
487.355768
 42
-0.000718
  0
VERTEX
  8
0
 10
171.000000
 20
486.905377
 42
0.031053
  0
VERTEX
  8
0
 10
153.202115
 20
483.723792
 42
0.021463
  0
VERTEX
  8
0
 10
133.542727
 20
478.030232
 42
0.021263
  0
VERTEX
  8
0
 10
114.164308
 20
470.573364
 42
0.027765
  0
VERTEX
  8
0
 10
97.194665
 20
462.051906
 42
0.052432
  0
VERTEX
  8
0
 10
64.236451
 20
438.240086
 42
0.053130
  0
VERTEX
  8
0
 10
37.115107
 20
408.189594
 42
0.052982
  0
VERTEX
  8
0
 10
16.873742
 20
373.015658
 42
0.051579
  0
VERTEX
  8
0
 10
4.254830
 20
334.058365
 42
0.011203
  0
VERTEX
  8
0
 10
2.746242
 20
326.119204
 42
0.022807
  0
VERTEX
  8
0
 10
1.987795
 20
319.816972
 42
0.015634
  0
VERTEX
  8
0
 10
1.657894
 20
312.131439
 42
0.002908
  0
VERTEX
  8
0
 10
1.575694
 20
298.000000
 42
0.002908
  0
VERTEX
  8
0
 10
1.657894
 20
283.868561
 42
0.015634
  0
VERTEX
  8
0
 10
1.987795
 20
276.183028
 42
0.022807
  0
VERTEX
  8
0
 10
2.746242
 20
269.880796
 42
0.011203
  0
VERTEX
  8
0
 10
4.254830
 20
261.941635
 42
0.042947
  0
VERTEX
  8
0
 10
14.324805
 20
228.923866
 42
0.048665
  0
VERTEX
  8
0
 10
29.583877
 20
199.550870
 42
0.048124
  0
VERTEX
  8
0
 10
50.398905
 20
173.414738
 42
0.040444
  0
VERTEX
  8
0
 10
77.000000
 20
150.025691
 42
-0.003294
  0
VERTEX
  8
0
 10
86.660637
 20
142.727620
 42
-0.017960
  0
VERTEX
  8
0
 10
91.716072
 20
138.559607
 42
-0.031148
  0
VERTEX
  8
0
 10
95.080760
 20
135.179585
 42
-0.028586
  0
VERTEX
  8
0
 10
98.104320
 20
131.313333
 42
-0.064241
  0
VERTEX
  8
0
 10
101.493454
 20
124.775213
 42
-0.061640
  0
VERTEX
  8
0
 10
103.172696
 20
117.498599
 42
-0.030316
  0
VERTEX
  8
0
 10
103.650692
 20
106.405711
 42
-0.004372
  0
VERTEX
  8
0
 10
103.054529
 20
83.738498
 42
0.000000
  0
VERTEX
  8
0
 10
101.962900
 20
52.596118
 42
0.000000
  0
VERTEX
  8
0
 10
104.532540
 20
47.343963
 42
0.023813
  0
VERTEX
  8
0
 10
105.742761
 20
45.142456
 42
0.018585
  0
VERTEX
  8
0
 10
107.255466
 20
42.870498
 42
0.018941
  0
VERTEX
  8
0
 10
108.826289
 20
40.856741
 42
0.042766
  0
VERTEX
  8
0
 10
110.193645
 20
39.490512
 42
0.036063
  0
VERTEX
  8
0
 10
113.718485
 20
36.934450
 42
0.023644
  0
VERTEX
  8
0
 10
118.103264
 20
34.493078
 42
0.023836
  0
VERTEX
  8
0
 10
122.583886
 20
32.529157
 42
0.045027
  0
VERTEX
  8
0
 10
126.377443
 20
31.457014
 42
-0.072456
  0
VERTEX
  8
0
 10
129.059477
 20
30.538038
 42
-0.150082
  0
VERTEX
  8
0
 10
130.629240
 20
29.007633
 42
-0.074561
  0
VERTEX
  8
0
 10
131.685832
 20
26.124781
 42
-0.009049
  0
VERTEX
  8
0
 10
132.926029
 20
19.474235
 42
0.031134
  0
VERTEX
  8
0
 10
134.283660
 20
13.636873
 42
0.048787
  0
VERTEX
  8
0
 10
136.233359
 20
8.870128
 42
0.057814
  0
VERTEX
  8
0
 10
138.743883
 20
5.210379
 42
0.081541
  0
VERTEX
  8
0
 10
141.785550
 20
2.693237
 42
0.067612
  0
VERTEX
  8
0
 10
144.254071
 20
1.668201
 42
0.034315
  0
VERTEX
  8
0
 10
147.563118
 20
1.031957
 42
0.018786
  0
VERTEX
  8
0
 10
152.659121
 20
0.603983
 42
0.003688
  0
VERTEX
  8
0
 10
161.844318
 20
0.247031
 42
0.008444
  0
VERTEX
  8
0
 10
174.711378
 20
0.059440
 42
0.052755
  0
VERTEX
  8
0
 10
181.249396
 20
0.766464
 42
0.101897
  0
VERTEX
  8
0
 10
185.448817
 20
2.622838
 42
0.081319
  0
VERTEX
  8
0
 10
188.970275
 20
6.117663
 42
0.045462
  0
VERTEX
  8
0
 10
190.813226
 20
9.219889
 42
0.034801
  0
VERTEX
  8
0
 10
192.261290
 20
12.892035
 42
0.027150
  0
VERTEX
  8
0
 10
193.459238
 20
17.549458
 42
0.012332
  0
VERTEX
  8
0
 10
194.541532
 20
23.750000
 42
-0.020049
  0
VERTEX
  8
0
 10
194.942275
 20
25.853706
 42
-0.075868
  0
VERTEX
  8
0
 10
195.437555
 20
27.094528
 42
-0.132584
  0
VERTEX
  8
0
 10
196.113331
 20
27.757643
 42
-0.128783
  0
VERTEX
  8
0
 10
197.038677
 20
28.000000
 42
0.047565
  0
VERTEX
  8
0
 10
201.301010
 20
28.406394
 42
0.037401
  0
VERTEX
  8
0
 10
205.781010
 20
29.621628
 42
0.038222
  0
VERTEX
  8
0
 10
209.893669
 20
31.438818
 42
0.060636
  0
VERTEX
  8
0
 10
213.037967
 20
33.653266
 42
0.129677
  0
VERTEX
  8
0
 10
217.905237
 20
41.112041
 42
0.068577
  0
VERTEX
  8
0
 10
219.932971
 20
52.049260
 42
0.031601
  0
VERTEX
  8
0
 10
219.628233
 20
70.180456
 42
0.004862
  0
VERTEX
  8
0
 10
216.399159
 20
106.077988
 42
-0.067866
  0
VERTEX
  8
0
 10
216.680007
 20
113.856487
 42
-0.146789
  0
VERTEX
  8
0
 10
219.328737
 20
119.161053
 42
-0.096417
  0
VERTEX
  8
0
 10
225.334550
 20
123.484558
 42
-0.019639
  0
VERTEX
  8
0
 10
237.500000
 20
128.519903
 42
0.062753
  0
VERTEX
  8
0
 10
275.683675
 20
148.326162
 42
0.060273
  0
VERTEX
  8
0
 10
308.343224
 20
177.217031
 42
0.059351
  0
VERTEX
  8
0
 10
333.583833
 20
213.517080
 42
0.057444
  0
VERTEX
  8
0
 10
349.926427
 20
255.125182
 42
0.057277
  0
VERTEX
  8
0
 10
357.191078
 20
304.850041
 42
0.059095
  0
VERTEX
  8
0
 10
352.849955
 20
354.386378
 42
0.060784
  0
VERTEX
  8
0
 10
337.291305
 20
400.275800
 42
0.067630
  0
VERTEX
  8
0
 10
311.546659
 20
439.284220
 42
0.041404
  0
VERTEX
  8
0
 10
293.647042
 20
456.627898
 42
0.045000
  0
VERTEX
  8
0
 10
273.601398
 20
470.251567
 42
0.044540
  0
VERTEX
  8
0
 10
251.252499
 20
480.177441
 42
0.039074
  0
VERTEX
  8
0
 10
226.500000
 20
486.519788
 42
0.025568
  0
VERTEX
  8
0
 10
217.945874
 20
487.565143
 42
0.006560
  0
VERTEX
  8
0
 10
204.032440
 20
488.364069
 42
0.005670
  0
VERTEX
  8
0
 10
190.190885
 20
488.819608
 42
0.040383
  0
SEQEND
  0
POLYLINE
  8
0
 66
1
 70
1
  0
VERTEX
  8
0
 10
212.500000
 20
480.965195
 42
-0.060576
  0
VERTEX
  8
0
 10
250.492216
 20
472.682526
 42
-0.071534
  0
VERTEX
  8
0
 10
283.120513
 20
455.758882
 42
-0.070209
  0
VERTEX
  8
0
 10
310.115784
 20
430.024399
 42
-0.055515
  0
VERTEX
  8
0
 10
331.503988
 20
395.772736
 42
-0.015454
  0
VERTEX
  8
0
 10
336.243654
 20
385.055163
 42
-0.015617
  0
VERTEX
  8
0
 10
340.294403
 20
374.102446
 42
-0.015243
  0
VERTEX
  8
0
 10
343.738359
 20
362.666873
 42
-0.013258
  0
VERTEX
  8
0
 10
346.658120
 20
350.500000
 42
-0.010956
  0
VERTEX
  8
0
 10
348.234429
 20
342.173416
 42
-0.023153
  0
VERTEX
  8
0
 10
349.013654
 20
335.650016
 42
-0.015225
  0
VERTEX
  8
0
 10
349.353713
 20
327.585261
 42
-0.002509
  0
VERTEX
  8
0
 10
349.457743
 20
312.000000
 42
-0.005154
  0
VERTEX
  8
0
 10
349.303809
 20
294.207130
 42
-0.021695
  0
VERTEX
  8
0
 10
348.638482
 20
283.548874
 42
-0.024484
  0
VERTEX
  8
0
 10
347.087967
 20
273.605193
 42
-0.007846
  0
VERTEX
  8
0
 10
343.834312
 20
259.009636
 42
-0.034215
  0
VERTEX
  8
0
 10
336.331492
 20
235.046638
 42
-0.036091
  0
VERTEX
  8
0
 10
325.736599
 20
212.772560
 42
-0.035850
  0
VERTEX
  8
0
 10
311.975248
 20
192.121760
 42
-0.032858
  0
VERTEX
  8
0
 10
295.028579
 20
173.000000
 42
-0.027432
  0
VERTEX
  8
0
 10
281.156960
 20
160.708210
 42
-0.027177
  0
VERTEX
  8
0
 10
265.981113
 20
149.967729
 42
-0.026998
  0
VERTEX
  8
0
 10
249.629297
 20
140.873183
 42
-0.026261
  0
VERTEX
  8
0
 10
232.243323
 20
133.500335
 42
0.010926
  0
VERTEX
  8
0
 10
228.025678
 20
131.862419
 42
0.010556
  0
VERTEX
  8
0
 10
223.834485
 20
130.023906
 42
0.010528
  0
VERTEX
  8
0
 10
220.214869
 20
128.250584
 42
0.037594
  0
VERTEX
  8
0
 10
218.020485
 20
126.899879
 42
0.055689
  0
VERTEX
  8
0
 10
215.269414
 20
124.397092
 42
0.034421
  0
VERTEX
  8
0
 10
212.611839
 20
120.919614
 42
0.033876
  0
VERTEX
  8
0
 10
210.593938
 20
117.362380
 42
0.112541
  0
VERTEX
  8
0
 10
210.000000
 20
114.757035
 42
-0.362020
  0
VERTEX
  8
0
 10
209.522179
 20
114.183588
 42
-0.061122
  0
VERTEX
  8
0
 10
207.986334
 20
114.092353
 42
-0.027579
  0
VERTEX
  8
0
 10
205.189907
 20
114.423596
 42
-0.004835
  0
VERTEX
  8
0
 10
199.976454
 20
115.386921
 42
-0.005959
  0
VERTEX
  8
0
 10
194.430511
 20
116.536001
 42
-0.038191
  0
VERTEX
  8
0
 10
191.686627
 20
117.362481
 42
-0.087189
  0
VERTEX
  8
0
 10
190.223677
 20
118.245091
 42
-0.166642
  0
VERTEX
  8
0
 10
189.545248
 20
119.419724
 42
-0.002493
  0
VERTEX
  8
0
 10
189.269304
 20
120.866029
 42
-0.000109
  0
VERTEX
  8
0
 10
188.331854
 20
125.922239
 42
-0.000185
  0
VERTEX
  8
0
 10
187.223625
 20
131.919194
 42
-0.000132
  0
VERTEX
  8
0
 10
185.987003
 20
138.634705
 42
0.004212
  0
VERTEX
  8
0
 10
184.537596
 20
146.160443
 42
0.002944
  0
VERTEX
  8
0
 10
182.782208
 20
154.621073
 42
0.002970
  0
VERTEX
  8
0
 10
181.003671
 20
162.711079
 42
0.006171
  0
VERTEX
  8
0
 10
179.501290
 20
168.994884
 42
0.000000
  0
VERTEX
  8
0
 10
176.166163
 20
182.220359
 42
0.000000
  0
VERTEX
  8
0
 10
180.995510
 20
196.360179
 42
-0.002203
  0
VERTEX
  8
0
 10
183.370651
 20
203.215442
 42
-0.000940
  0
VERTEX
  8
0
 10
186.606416
 20
212.368303
 42
-0.000930
  0
VERTEX
  8
0
 10
190.093739
 20
222.116613
 42
-0.001222
  0
VERTEX
  8
0
 10
193.314830
 20
231.000000
 42
0.013343
  0
VERTEX
  8
0
 10
204.546338
 20
264.486622
 42
0.042479
  0
VERTEX
  8
0
 10
209.508040
 20
287.536939
 42
0.069596
  0
VERTEX
  8
0
 10
209.318938
 20
303.486125
 42
0.171151
  0
VERTEX
  8
0
 10
203.881919
 20
313.683388
 42
0.147335
  0
VERTEX
  8
0
 10
195.320402
 20
317.812456
 42
0.131322
  0
VERTEX
  8
0
 10
185.471365
 20
316.781044
 42
0.111356
  0
VERTEX
  8
0
 10
176.203616
 20
310.612076
 42
0.086040
  0
VERTEX
  8
0
 10
169.432277
 20
300.500000
 42
-0.006152
  0
VERTEX
  8
0
 10
167.835592
 20
297.024913
 42
-0.075759
  0
VERTEX
  8
0
 10
167.021562
 20
295.820196
 42
-0.339673
  0
VERTEX
  8
0
 10
166.350731
 20
295.704736
 42
-0.137134
  0
VERTEX
  8
0
 10
165.632197
 20
296.383594
 42
0.027888
  0
VERTEX
  8
0
 10
162.797296
 20
300.554363
 42
0.023656
  0
VERTEX
  8
0
 10
159.364522
 20
304.629572
 42
0.024217
  0
VERTEX
  8
0
 10
155.895561
 20
308.027343
 42
0.063802
  0
VERTEX
  8
0
 10
153.027792
 20
309.985822
 42
0.088611
  0
VERTEX
  8
0
 10
146.471897
 20
311.977817
 42
0.089248
  0
VERTEX
  8
0
 10
139.649034
 20
311.569316
 42
0.098234
  0
VERTEX
  8
0
 10
133.920260
 20
308.916535
 42
0.137231
  0
VERTEX
  8
0
 10
130.439824
 20
304.510222
 42
0.093096
  0
VERTEX
  8
0
 10
129.167950
 20
298.546529
 42
0.060074
  0
VERTEX
  8
0
 10
129.843712
 20
291.495022
 42
0.036476
  0
VERTEX
  8
0
 10
132.698754
 20
281.873703
 42
0.009686
  0
VERTEX
  8
0
 10
138.652540
 20
267.000000
 42
-0.005627
  0
VERTEX
  8
0
 10
145.874221
 20
249.374937
 42
-0.005323
  0
VERTEX
  8
0
 10
152.835869
 20
231.263865
 42
-0.005545
  0
VERTEX
  8
0
 10
159.030251
 20
214.040153
 42
-0.008820
  0
VERTEX
  8
0
 10
163.904555
 20
199.157747
 42
0.000000
  0
VERTEX
  8
0
 10
168.939597
 20
182.815495
 42
0.000000
  0
VERTEX
  8
0
 10
160.572351
 20
158.157747
 42
0.000407
  0
VERTEX
  8
0
 10
157.277407
 20
148.421728
 42
0.000542
  0
VERTEX
  8
0
 10
154.299831
 20
139.568213
 42
0.000380
  0
VERTEX
  8
0
 10
151.816268
 20
132.138311
 42
0.005519
  0
VERTEX
  8
0
 10
150.968840
 20
129.500000
 42
-0.023642
  0
VERTEX
  8
0
 10
148.788581
 20
123.471598
 42
-0.174854
  0
VERTEX
  8
0
 10
146.759821
 20
121.252012
 42
-0.104882
  0
VERTEX
  8
0
 10
143.322147
 20
120.281787
 42
-0.006023
  0
VERTEX
  8
0
 10
132.303901
 20
119.685871
 42
0.003108
  0
VERTEX
  8
0
 10
126.361012
 20
119.399189
 42
0.003679
  0
VERTEX
  8
0
 10
120.747083
 20
119.051941
 42
0.003214
  0
VERTEX
  8
0
 10
116.014562
 20
118.693668
 42
0.023244
  0
VERTEX
  8
0
 10
113.750000
 20
118.401136
 42
-0.015947
  0
VERTEX
  8
0
 10
111.852834
 20
118.127872
 42
-0.079644
  0
VERTEX
  8
0
 10
110.782514
 20
118.179061
 42
-0.180396
  0
VERTEX
  8
0
 10
110.220113
 20
118.534560
 42
-0.163984
  0
VERTEX
  8
0
 10
110.000000
 20
119.187656
 42
0.073219
  0
VERTEX
  8
0
 10
109.481966
 20
122.706243
 42
0.026547
  0
VERTEX
  8
0
 10
107.768578
 20
127.467425
 42
0.026173
  0
VERTEX
  8
0
 10
105.362317
 20
132.437951
 42
0.032861
  0
VERTEX
  8
0
 10
102.605809
 20
136.749068
 42
0.034436
  0
VERTEX
  8
0
 10
99.703796
 20
140.170589
 42
0.018295
  0
VERTEX
  8
0
 10
95.682008
 20
144.007967
 42
0.013874
  0
VERTEX
  8
0
 10
90.216462
 20
148.589209
 42
0.005997
  0
VERTEX
  8
0
 10
82.700832
 20
154.396460
 42
-0.030826
  0
VERTEX
  8
0
 10
59.908405
 20
173.888428
 42
-0.039441
  0
VERTEX
  8
0
 10
41.643828
 20
194.594917
 42
-0.041188
  0
VERTEX
  8
0
 10
27.470743
 20
217.118753
 42
-0.039184
  0
VERTEX
  8
0
 10
16.908152
 20
242.032836
 42
-0.038815
  0
VERTEX
  8
0
 10
9.723707
 20
270.759284
 42
-0.043551
  0
VERTEX
  8
0
 10
7.434618
 20
299.156808
 42
-0.043448
  0
VERTEX
  8
0
 10
10.098600
 20
327.580017
 42
-0.038304
  0
VERTEX
  8
0
 10
17.664203
 20
356.383181
 42
-0.078647
  0
VERTEX
  8
0
 10
44.314812
 20
406.299306
 42
-0.077094
  0
VERTEX
  8
0
 10
85.232809
 20
445.939402
 42
-0.075705
  0
VERTEX
  8
0
 10
136.950176
 20
471.855233
 42
-0.071790
  0
VERTEX
  8
0
 10
195.000000
 20
481.824457
 42
-0.013836
  0
VERTEX
  8
0
 10
198.248287
 20
481.821447
 42
-0.005116
  0
VERTEX
  8
0
 10
202.821875
 20
481.643771
 42
-0.005066
  0
VERTEX
  8
0
 10
207.812118
 20
481.348038
 42
-0.006081
  0
SEQEND
  0
POLYLINE
  8
0
 66
1
 70
1
  0
VERTEX
  8
0
 10
198.055391
 20
309.970356
 42
-0.236003
  0
VERTEX
  8
0
 10
202.439955
 20
303.774838
 42
-0.058634
  0
VERTEX
  8
0
 10
202.890575
 20
290.984140
 42
-0.042460
  0
VERTEX
  8
0
 10
199.898529
 20
273.211550
 42
-0.020147
  0
VERTEX
  8
0
 10
193.210254
 20
250.956869
 42
-0.001452
  0
VERTEX
  8
0
 10
185.953466
 20
230.120651
 42
-0.002161
  0
VERTEX
  8
0
 10
179.470192
 20
211.929684
 42
-0.000190
  0
VERTEX
  8
0
 10
173.477574
 20
195.362181
 42
-0.307206
  0
VERTEX
  8
0
 10
173.000000
 20
195.015990
 42
-0.323488
  0
VERTEX
  8
0
 10
172.740785
 20
195.191280
 42
-0.001787
  0
VERTEX
  8
0
 10
171.666551
 20
198.162744
 42
-0.006565
  0
VERTEX
  8
0
 10
170.478233
 20
201.629848
 42
-0.004012
  0
VERTEX
  8
0
 10
169.162728
 20
205.750210
 42
0.007859
  0
VERTEX
  8
0
 10
164.853144
 20
218.898462
 42
0.005947
  0
VERTEX
  8
0
 10
159.725931
 20
233.194959
 42
0.005598
  0
VERTEX
  8
0
 10
153.901115
 20
248.327608
 42
0.004915
  0
VERTEX
  8
0
 10
147.487028
 20
264.000000
 42
-0.006399
  0
VERTEX
  8
0
 10
142.462749
 20
276.381191
 42
-0.013020
  0
VERTEX
  8
0
 10
138.895486
 20
286.256064
 42
-0.015167
  0
VERTEX
  8
0
 10
136.614159
 20
293.892911
 42
-0.065081
  0
VERTEX
  8
0
 10
136.000000
 20
298.591383
 42
-0.096581
  0
VERTEX
  8
0
 10
136.507726
 20
301.195366
 42
-0.113730
  0
VERTEX
  8
0
 10
137.947238
 20
303.247919
 42
-0.106740
  0
VERTEX
  8
0
 10
140.222785
 20
304.550863
 42
-0.076987
  0
VERTEX
  8
0
 10
143.122445
 20
305.000000
 42
-0.076261
  0
VERTEX
  8
0
 10
148.097696
 20
304.236727
 42
-0.095612
  0
VERTEX
  8
0
 10
152.196847
 20
302.023368
 42
-0.065880
  0
VERTEX
  8
0
 10
156.209642
 20
297.745893
 42
-0.019608
  0
VERTEX
  8
0
 10
161.149711
 20
290.250000
 42
0.008115
  0
VERTEX
  8
0
 10
163.877584
 20
285.896275
 42
0.039635
  0
VERTEX
  8
0
 10
165.647710
 20
283.592646
 42
0.076587
  0
VERTEX
  8
0
 10
167.104760
 20
282.405890
 42
0.133444
  0
VERTEX
  8
0
 10
168.598506
 20
282.000000
 42
0.047696
  0
VERTEX
  8
0
 10
169.566625
 20
282.092561
 42
0.057141
  0
VERTEX
  8
0
 10
170.439564
 20
282.367188
 42
0.066979
  0
VERTEX
  8
0
 10
171.094555
 20
282.771216
 42
0.155416
  0
VERTEX
  8
0
 10
171.405482
 20
283.250000
 42
0.007678
  0
VERTEX
  8
0
 10
171.604587
 20
284.022541
 42
0.000905
  0
VERTEX
  8
0
 10
172.017937
 20
285.748438
 42
0.001084
  0
VERTEX
  8
0
 10
172.501249
 20
287.802498
 42
0.000888
  0
VERTEX
  8
0
 10
173.009178
 20
290.000000
 42
-0.035361
  0
VERTEX
  8
0
 10
175.050588
 20
296.692459
 42
-0.048860
  0
VERTEX
  8
0
 10
177.861235
 20
302.303188
 42
-0.055091
  0
VERTEX
  8
0
 10
181.371291
 20
306.714459
 42
-0.070970
  0
VERTEX
  8
0
 10
185.500000
 20
309.833022
 42
-0.092657
  0
VERTEX
  8
0
 10
187.975083
 20
310.654386
 42
-0.031183
  0
VERTEX
  8
0
 10
191.784634
 20
310.934067
 42
-0.031117
  0
VERTEX
  8
0
 10
195.593150
 20
310.738612
 42
-0.094759
  0
SEQEND
  0
POLYLINE
  8
0
 66
1
 70
1
  0
VERTEX
  8
0
 10
180.895673
 20
130.065801
 42
-0.003225
  0
VERTEX
  8
0
 10
181.558973
 20
125.975663
 42
-0.005012
  0
VERTEX
  8
0
 10
182.072808
 20
122.439445
 42
-0.001682
  0
VERTEX
  8
0
 10
182.474625
 20
119.387527
 42
-0.149273
  0
VERTEX
  8
0
 10
182.398490
 20
118.940821
 42
-0.281467
  0
VERTEX
  8
0
 10
182.081875
 20
118.743690
 42
-0.008835
  0
VERTEX
  8
0
 10
180.493907
 20
118.758809
 42
-0.014809
  0
VERTEX
  8
0
 10
178.555715
 20
118.869027
 42
-0.009428
  0
VERTEX
  8
0
 10
176.308917
 20
119.106438
 42
0.011129
  0
VERTEX
  8
0
 10
173.526978
 20
119.390833
 42
0.005130
  0
VERTEX
  8
0
 10
169.895546
 20
119.643113
 42
0.005078
  0
VERTEX
  8
0
 10
166.069761
 20
119.830519
 42
0.007016
  0
VERTEX
  8
0
 10
162.633369
 20
119.915617
 42
-0.005261
  0
VERTEX
  8
0
 10
158.045511
 20
120.013111
 42
-0.053473
  0
VERTEX
  8
0
 10
156.160696
 20
120.276056
 42
-0.202119
  0
VERTEX
  8
0
 10
155.414472
 20
120.836681
 42
-0.210266
  0
VERTEX
  8
0
 10
155.310717
 20
121.750000
 42
-0.007768
  0
VERTEX
  8
0
 10
156.472024
 20
125.290919
 42
-0.000118
  0
VERTEX
  8
0
 10
163.525321
 20
145.703954
 42
-0.000082
  0
VERTEX
  8
0
 10
170.732999
 20
166.536696
 42
-0.011467
  0
VERTEX
  8
0
 10
171.649479
 20
169.000000
 42
-0.728712
  0
VERTEX
  8
0
 10
172.406725
 20
168.948584
 42
-0.002591
  0
VERTEX
  8
0
 10
175.526074
 20
156.109834
 42
-0.007071
  0
VERTEX
  8
0
 10
178.553559
 20
142.508815
 42
-0.009415
  0
SEQEND
  0
POLYLINE
  8
0
 66
1
 70
1
  0
VERTEX
  8
0
 10
164.500000
 20
112.975825
 42
-0.008134
  0
VERTEX
  8
0
 10
175.053168
 20
112.044249
 42
-0.009708
  0
VERTEX
  8
0
 10
184.963742
 20
110.811714
 42
-0.010258
  0
VERTEX
  8
0
 10
194.298419
 20
109.270198
 42
-0.011854
  0
VERTEX
  8
0
 10
203.119685
 20
107.409510
 42
0.000000
  0
VERTEX
  8
0
 10
209.739369
 20
105.848432
 42
0.000000
  0
VERTEX
  8
0
 10
210.360992
 20
100.674216
 42
-0.006188
  0
VERTEX
  8
0
 10
210.599661
 20
98.456150
 42
-0.005001
  0
VERTEX
  8
0
 10
210.802567
 20
96.069455
 42
-0.005056
  0
VERTEX
  8
0
 10
210.945515
 20
93.863059
 42
-0.012975
  0
VERTEX
  8
0
 10
210.991308
 20
92.264354
 42
0.000000
  0
VERTEX
  8
0
 10
211.000000
 20
89.028708
 42
0.000000
  0
VERTEX
  8
0
 10
192.250000
 20
89.556512
 42
-0.004545
  0
VERTEX
  8
0
 10
168.075830
 20
90.456986
 42
-0.003045
  0
VERTEX
  8
0
 10
140.445809
 20
91.906468
 42
-0.000428
  0
VERTEX
  8
0
 10
112.146350
 20
93.588268
 42
-0.170944
  0
VERTEX
  8
0
 10
110.327804
 20
94.354632
 42
-0.222972
  0
VERTEX
  8
0
 10
110.263715
 20
94.508537
 42
-0.000588
  0
VERTEX
  8
0
 10
110.370678
 20
96.864922
 42
-0.003388
  0
VERTEX
  8
0
 10
110.513287
 20
99.537274
 42
-0.002086
  0
VERTEX
  8
0
 10
110.715564
 20
102.680638
 42
0.000000
  0
VERTEX
  8
0
 10
111.275520
 20
110.850218
 42
0.000000
  0
VERTEX
  8
0
 10
116.387760
 20
111.553745
 42
-0.012618
  0
VERTEX
  8
0
 10
128.420901
 20
112.901295
 42
-0.014185
  0
VERTEX
  8
0
 10
140.045869
 20
113.575341
 42
-0.013939
  0
VERTEX
  8
0
 10
151.868826
 20
113.595123
 42
-0.011394
  0
SEQEND
  0
POLYLINE
  8
0
 66
1
 70
1
  0
VERTEX
  8
0
 10
133.500000
 20
84.990868
 42
0.006573
  0
VERTEX
  8
0
 10
140.163926
 20
84.551339
 42
0.001430
  0
VERTEX
  8
0
 10
151.668750
 20
83.977286
 42
0.001490
  0
VERTEX
  8
0
 10
164.985923
 20
83.390746
 42
0.001427
  0
VERTEX
  8
0
 10
178.500000
 20
82.874507
 42
-0.000284
  0
VERTEX
  8
0
 10
191.161480
 20
82.419820
 42
-0.000471
  0
VERTEX
  8
0
 10
201.839058
 20
82.020229
 42
-0.000014
  0
VERTEX
  8
0
 10
211.503391
 20
81.649171
 42
-0.179871
  0
VERTEX
  8
0
 10
211.611687
 20
81.604105
 42
-0.183475
  0
VERTEX
  8
0
 10
211.662193
 20
81.501549
 42
-0.000269
  0
VERTEX
  8
0
 10
211.864268
 20
79.361664
 42
-0.002123
  0
VERTEX
  8
0
 10
212.079948
 20
76.954764
 42
-0.001302
  0
VERTEX
  8
0
 10
212.314701
 20
74.116455
 42
0.000000
  0
VERTEX
  8
0
 10
212.906027
 20
66.732909
 42
0.000000
  0
VERTEX
  8
0
 10
170.703014
 20
67.368023
 42
-0.001046
  0
VERTEX
  8
0
 10
153.865738
 20
67.656639
 42
-0.001293
  0
VERTEX
  8
0
 10
138.179948
 20
67.998917
 42
-0.001060
  0
VERTEX
  8
0
 10
125.004495
 20
68.348462
 42
-0.009591
  0
VERTEX
  8
0
 10
119.250000
 20
68.623887
 42
0.000000
  0
VERTEX
  8
0
 10
110.000000
 20
69.244639
 42
0.000000
  0
VERTEX
  8
0
 10
110.000000
 20
78.220506
 42
0.000000
  0
VERTEX
  8
0
 10
110.000000
 20
87.196374
 42
0.000000
  0
VERTEX
  8
0
 10
115.750000
 20
86.568652
 42
0.003865
  0
VERTEX
  8
0
 10
118.752712
 20
86.264319
 42
0.001155
  0
VERTEX
  8
0
 10
123.335938
 20
85.846243
 42
0.001158
  0
VERTEX
  8
0
 10
128.484018
 20
85.400653
 42
0.001254
  0
SEQEND
  0
POLYLINE
  8
0
 66
1
 70
1
  0
VERTEX
  8
0
 10
156.500000
 20
60.034460
 42
0.003176
  0
VERTEX
  8
0
 10
169.303516
 20
59.673456
 42
0.003155
  0
VERTEX
  8
0
 10
182.139063
 20
59.474145
 42
0.003092
  0
VERTEX
  8
0
 10
193.363892
 20
59.440100
 42
0.012297
  0
VERTEX
  8
0
 10
200.250000
 20
59.631197
 42
0.000000
  0
VERTEX
  8
0
 10
213.000000
 20
60.299100
 42
0.000000
  0
VERTEX
  8
0
 10
213.000000
 20
53.050679
 42
-0.031611
  0
VERTEX
  8
0
 10
212.631972
 20
47.235294
 42
-0.064252
  0
VERTEX
  8
0
 10
211.479719
 20
42.810128
 42
-0.081734
  0
VERTEX
  8
0
 10
209.490116
 20
39.536886
 42
-0.090372
  0
VERTEX
  8
0
 10
206.615155
 20
37.205949
 42
-0.122601
  0
VERTEX
  8
0
 10
200.237339
 20
35.529529
 42
-0.003626
  0
VERTEX
  8
0
 10
172.324551
 20
35.367597
 42
-0.006558
  0
VERTEX
  8
0
 10
145.564141
 20
35.757417
 42
-0.046054
  0
VERTEX
  8
0
 10
132.630605
 20
37.313306
 42
-0.040045
  0
VERTEX
  8
0
 10
122.551325
 20
40.341005
 42
-0.081248
  0
VERTEX
  8
0
 10
115.445229
 20
44.542862
 42
-0.102643
  0
VERTEX
  8
0
 10
111.089880
 20
50.039287
 42
-0.098646
  0
VERTEX
  8
0
 10
109.201328
 20
56.893424
 42
0.000000
  0
VERTEX
  8
0
 10
108.789180
 20
62.591307
 42
0.000000
  0
VERTEX
  8
0
 10
117.144590
 20
61.848467
 42
0.009279
  0
VERTEX
  8
0
 10
122.112057
 20
61.499602
 42
0.001374
  0
VERTEX
  8
0
 10
132.151848
 20
61.009181
 42
0.001548
  0
VERTEX
  8
0
 10
144.018635
 20
60.499026
 42
0.001332
  0
SEQEND
  0
POLYLINE
  8
0
 66
1
 70
1
  0
VERTEX
  8
0
 10
187.862444
 20
27.463874
 42
-0.241842
  0
VERTEX
  8
0
 10
187.969035
 20
27.142868
 42
-0.003037
  0
VERTEX
  8
0
 10
187.615174
 20
24.950856
 42
-0.008086
  0
VERTEX
  8
0
 10
187.142249
 20
22.385426
 42
-0.005111
  0
VERTEX
  8
0
 10
186.511710
 20
19.408033
 42
-0.014832
  0
VERTEX
  8
0
 10
185.597727
 20
15.807196
 42
-0.027996
  0
VERTEX
  8
0
 10
184.614982
 20
12.977048
 42
-0.034967
  0
VERTEX
  8
0
 10
183.537241
 20
10.802304
 42
-0.063936
  0
VERTEX
  8
0
 10
182.329006
 20
9.238097
 42
-0.078317
  0
VERTEX
  8
0
 10
180.352412
 20
7.799709
 42
-0.091023
  0
VERTEX
  8
0
 10
178.128043
 20
7.132970
 42
-0.031655
  0
VERTEX
  8
0
 10
174.343800
 20
6.957304
 42
-0.002200
  0
VERTEX
  8
0
 10
163.679741
 20
7.184491
 42
-0.004497
  0
VERTEX
  8
0
 10
155.862228
 20
7.455821
 42
-0.014259
  0
VERTEX
  8
0
 10
150.642162
 20
7.833387
 42
-0.018831
  0
VERTEX
  8
0
 10
147.074422
 20
8.330262
 42
-0.098649
  0
VERTEX
  8
0
 10
145.237974
 20
9.048262
 42
-0.108786
  0
VERTEX
  8
0
 10
143.359271
 20
10.929532
 42
-0.042471
  0
VERTEX
  8
0
 10
141.643681
 20
14.200034
 42
-0.036190
  0
VERTEX
  8
0
 10
140.199878
 20
18.472724
 42
-0.024613
  0
VERTEX
  8
0
 10
139.158253
 20
23.500000
 42
0.000000
  0
VERTEX
  8
0
 10
138.376536
 20
28.500000
 42
0.000000
  0
VERTEX
  8
0
 10
162.938268
 20
28.159652
 42
-0.001335
  0
VERTEX
  8
0
 10
172.381229
 20
28.003575
 42
-0.002178
  0
VERTEX
  8
0
 10
180.391459
 20
27.814874
 42
-0.000277
  0
VERTEX
  8
0
 10
187.514137
 20
27.612091
 42
-0.188851
  0
SEQEND
  0
ENDSEC
  0
EOF
