%TF.GenerationSoftware,KiCad,Pcbnew,7.0.8*%
%TF.CreationDate,2023-11-04T18:56:12+01:00*%
%TF.ProjectId,kidslab-lamp,6b696473-6c61-4622-9d6c-616d702e6b69,rev?*%
%TF.SameCoordinates,Original*%
%TF.FileFunction,Soldermask,Bot*%
%TF.FilePolarity,Negative*%
%FSLAX46Y46*%
G04 Gerber Fmt 4.6, Leading zero omitted, Abs format (unit mm)*
G04 Created by KiCad (PCBNEW 7.0.8) date 2023-11-04 18:56:12*
%MOMM*%
%LPD*%
G01*
G04 APERTURE LIST*
G04 Aperture macros list*
%AMFreePoly0*
4,1,34,6.500000,-3.000000,0.000000,-3.000001,0.000000,-2.994924,-0.174434,-2.994924,-0.520945,-2.954423,-0.860410,-2.873969,-1.188239,-2.754648,-1.500000,-2.598076,-1.791476,-2.406370,-2.058725,-2.182121,-2.298133,-1.928363,-2.506463,-1.648527,-2.680898,-1.346398,-2.819078,-1.026060,-2.919135,-0.691847,-2.979715,-0.348279,-3.000001,0.000000,-2.979715,0.348280,-2.919135,0.691848,-2.819078,1.026060,
-2.680897,1.346398,-2.506463,1.648527,-2.298132,1.928363,-2.058725,2.182121,-1.791476,2.406370,-1.500000,2.598076,-1.188239,2.754649,-0.860409,2.873969,-0.520945,2.954423,-0.174434,2.994924,0.000000,2.994924,0.000000,3.000001,6.500000,3.000000,6.500000,-3.000000,6.500000,-3.000000,$1*%
%AMFreePoly1*
4,1,48,0.468453,2.455718,0.772542,2.377641,1.064448,2.262068,1.339567,2.110820,1.593560,1.926283,1.822422,1.711368,1.955916,1.550000,3.250000,1.550000,3.285355,1.535355,3.300000,1.500000,3.300000,-1.500000,3.285355,-1.535355,3.250000,-1.550000,1.955916,-1.550000,1.822422,-1.711368,1.593560,-1.926283,1.339567,-2.110820,1.064448,-2.262068,0.772542,-2.377641,0.468453,-2.455718,
0.156976,-2.495067,-0.156976,-2.495067,-0.468453,-2.455718,-0.772542,-2.377641,-1.064448,-2.262068,-1.339567,-2.110820,-1.593560,-1.926283,-1.822422,-1.711368,-2.022542,-1.469463,-2.190767,-1.204384,-2.324441,-0.920311,-2.421458,-0.621725,-2.480287,-0.313333,-2.500000,0.000000,-2.480287,0.313333,-2.421458,0.621725,-2.324441,0.920311,-2.190767,1.204384,-2.022542,1.469463,-1.822422,1.711368,
-1.593560,1.926283,-1.339567,2.110820,-1.064448,2.262068,-0.772542,2.377641,-0.468453,2.455718,-0.156976,2.495067,0.156976,2.495067,0.468453,2.455718,0.468453,2.455718,$1*%
G04 Aperture macros list end*
%ADD10FreePoly0,124.500000*%
%ADD11FreePoly0,328.000000*%
%ADD12O,1.800000X1.800000*%
%ADD13O,1.500000X1.500000*%
%ADD14O,1.700000X1.700000*%
%ADD15R,1.700000X1.700000*%
%ADD16FreePoly0,0.000000*%
%ADD17FreePoly1,0.000000*%
%ADD18C,5.000000*%
%ADD19FreePoly0,11.000000*%
%ADD20FreePoly0,35.000000*%
%ADD21FreePoly0,324.500000*%
%ADD22FreePoly0,180.000000*%
%ADD23FreePoly0,280.000000*%
%ADD24FreePoly0,220.000000*%
%ADD25FreePoly0,215.000000*%
%ADD26FreePoly1,270.000000*%
%ADD27FreePoly0,191.500000*%
%ADD28FreePoly0,145.000000*%
%ADD29FreePoly0,260.000000*%
%ADD30C,1.500000*%
%ADD31FreePoly0,168.500000*%
%ADD32FreePoly0,58.000000*%
%ADD33FreePoly0,348.500000*%
%ADD34FreePoly1,90.000000*%
%ADD35FreePoly1,180.000000*%
G04 APERTURE END LIST*
D10*
%TO.C,GPIO0*%
X127994641Y-49236413D03*
%TD*%
D11*
%TO.C,E39*%
X171528000Y-118610000D03*
%TD*%
D12*
%TO.C,U1*%
X146913000Y-41424000D03*
D13*
X147213000Y-44454000D03*
X152063000Y-44454000D03*
D12*
X152363000Y-41424000D03*
D14*
X140748000Y-41294000D03*
X140748000Y-43834000D03*
D15*
X140748000Y-46374000D03*
D14*
X140748000Y-48914000D03*
X140748000Y-51454000D03*
X140748000Y-53994000D03*
X140748000Y-56534000D03*
D15*
X140748000Y-59074000D03*
D14*
X140748000Y-61614000D03*
X140748000Y-64154000D03*
X140748000Y-66694000D03*
X140748000Y-69234000D03*
D15*
X140748000Y-71774000D03*
D14*
X140748000Y-74314000D03*
X140748000Y-76854000D03*
X140748000Y-79394000D03*
X140748000Y-81934000D03*
D15*
X140748000Y-84474000D03*
D14*
X140748000Y-87014000D03*
X140748000Y-89554000D03*
X158528000Y-89554000D03*
X158528000Y-87014000D03*
D15*
X158528000Y-84474000D03*
D14*
X158528000Y-81934000D03*
X158528000Y-79394000D03*
X158528000Y-76854000D03*
X158528000Y-74314000D03*
D15*
X158528000Y-71774000D03*
D14*
X158528000Y-69234000D03*
X158528000Y-66694000D03*
X158528000Y-64154000D03*
X158528000Y-61614000D03*
D15*
X158528000Y-59074000D03*
D14*
X158528000Y-56534000D03*
X158528000Y-53994000D03*
X158528000Y-51454000D03*
X158528000Y-48914000D03*
D15*
X158528000Y-46374000D03*
D14*
X158528000Y-43834000D03*
X158528000Y-41294000D03*
X147098000Y-89324000D03*
D15*
X149638000Y-89324000D03*
D14*
X152178000Y-89324000D03*
%TD*%
D16*
%TO.C,E30*%
X168338000Y-146154000D03*
%TD*%
D17*
%TO.C,GPIO18*%
X174030000Y-87630000D03*
D18*
X179030000Y-87630000D03*
%TD*%
D19*
%TO.C,GPIO26*%
X188339837Y-73673081D03*
%TD*%
D20*
%TO.C,GPIO27*%
X182856085Y-60211358D03*
%TD*%
D21*
%TO.C,GPIO21*%
X182356588Y-105095930D03*
%TD*%
D22*
%TO.C,E34*%
X131038000Y-153654000D03*
%TD*%
D17*
%TO.C,B6*%
X154938000Y-139154000D03*
D18*
X159938000Y-139154000D03*
%TD*%
D23*
%TO.C,E37*%
X158920635Y-163055519D03*
%TD*%
D24*
%TO.C,E40*%
X127514604Y-116767721D03*
%TD*%
D25*
%TO.C,GPIO4*%
X118019915Y-105096642D03*
%TD*%
D26*
%TO.C,GPIO15*%
X149606000Y-97928000D03*
D18*
X149606000Y-102928000D03*
%TD*%
D16*
%TO.C,E31*%
X168338000Y-139154000D03*
%TD*%
D27*
%TO.C,GPIO3*%
X111535992Y-90634063D03*
%TD*%
D28*
%TO.C,GPIO1*%
X116519915Y-60211358D03*
%TD*%
D29*
%TO.C,E38*%
X140955365Y-163055519D03*
%TD*%
D30*
%TO.C,J1*%
X132657600Y-80314800D03*
X130657600Y-80314800D03*
X128657600Y-80314800D03*
X126657600Y-80314800D03*
%TD*%
D17*
%TO.C,B1*%
X154938000Y-153154000D03*
D18*
X159938000Y-153154000D03*
%TD*%
D22*
%TO.C,E33*%
X131098000Y-139654000D03*
%TD*%
D31*
%TO.C,GPIO2*%
X111535992Y-73673937D03*
%TD*%
D16*
%TO.C,E35*%
X168338000Y-153154000D03*
%TD*%
D17*
%TO.C,B2*%
X139438000Y-146654000D03*
D18*
X144438000Y-146654000D03*
%TD*%
D17*
%TO.C,B4*%
X139438000Y-153654000D03*
D18*
X144438000Y-153654000D03*
%TD*%
D17*
%TO.C,GPIO14*%
X134368000Y-110474000D03*
D18*
X139368000Y-110474000D03*
%TD*%
D17*
%TO.C,B3*%
X139438000Y-139654000D03*
D18*
X144438000Y-139654000D03*
%TD*%
D15*
%TO.C,J3*%
X127093000Y-72382000D03*
D14*
X129633000Y-72382000D03*
X132173000Y-72382000D03*
%TD*%
D22*
%TO.C,E32*%
X131038000Y-146654000D03*
%TD*%
D15*
%TO.C,J2*%
X127093000Y-68318000D03*
D14*
X129633000Y-68318000D03*
X132173000Y-68318000D03*
%TD*%
D32*
%TO.C,GPIO28*%
X172385008Y-49238805D03*
%TD*%
D17*
%TO.C,B5*%
X154938000Y-146154000D03*
D18*
X159938000Y-146154000D03*
%TD*%
D17*
%TO.C,GPIO13*%
X120650000Y-87630000D03*
D18*
X125650000Y-87630000D03*
%TD*%
D33*
%TO.C,GPIO22*%
X188340008Y-90634063D03*
%TD*%
D34*
%TO.C,GPIO17*%
X149606000Y-124364000D03*
D18*
X149606000Y-119364000D03*
%TD*%
D35*
%TO.C,GPIO16*%
X164688000Y-110474000D03*
D18*
X159688000Y-110474000D03*
%TD*%
M02*
