%TF.GenerationSoftware,KiCad,Pcbnew,7.0.8*%
%TF.CreationDate,2023-11-04T18:56:12+01:00*%
%TF.ProjectId,kidslab-lamp,6b696473-6c61-4622-9d6c-616d702e6b69,rev?*%
%TF.SameCoordinates,Original*%
%TF.FileFunction,Other,Comment*%
%FSLAX46Y46*%
G04 Gerber Fmt 4.6, Leading zero omitted, Abs format (unit mm)*
G04 Created by KiCad (PCBNEW 7.0.8) date 2023-11-04 18:56:12*
%MOMM*%
%LPD*%
G01*
G04 APERTURE LIST*
%ADD10C,0.150000*%
G04 APERTURE END LIST*
D10*
X135737997Y-35583580D02*
X135690378Y-35631200D01*
X135690378Y-35631200D02*
X135547521Y-35678819D01*
X135547521Y-35678819D02*
X135452283Y-35678819D01*
X135452283Y-35678819D02*
X135309426Y-35631200D01*
X135309426Y-35631200D02*
X135214188Y-35535961D01*
X135214188Y-35535961D02*
X135166569Y-35440723D01*
X135166569Y-35440723D02*
X135118950Y-35250247D01*
X135118950Y-35250247D02*
X135118950Y-35107390D01*
X135118950Y-35107390D02*
X135166569Y-34916914D01*
X135166569Y-34916914D02*
X135214188Y-34821676D01*
X135214188Y-34821676D02*
X135309426Y-34726438D01*
X135309426Y-34726438D02*
X135452283Y-34678819D01*
X135452283Y-34678819D02*
X135547521Y-34678819D01*
X135547521Y-34678819D02*
X135690378Y-34726438D01*
X135690378Y-34726438D02*
X135737997Y-34774057D01*
X136309426Y-35678819D02*
X136214188Y-35631200D01*
X136214188Y-35631200D02*
X136166569Y-35583580D01*
X136166569Y-35583580D02*
X136118950Y-35488342D01*
X136118950Y-35488342D02*
X136118950Y-35202628D01*
X136118950Y-35202628D02*
X136166569Y-35107390D01*
X136166569Y-35107390D02*
X136214188Y-35059771D01*
X136214188Y-35059771D02*
X136309426Y-35012152D01*
X136309426Y-35012152D02*
X136452283Y-35012152D01*
X136452283Y-35012152D02*
X136547521Y-35059771D01*
X136547521Y-35059771D02*
X136595140Y-35107390D01*
X136595140Y-35107390D02*
X136642759Y-35202628D01*
X136642759Y-35202628D02*
X136642759Y-35488342D01*
X136642759Y-35488342D02*
X136595140Y-35583580D01*
X136595140Y-35583580D02*
X136547521Y-35631200D01*
X136547521Y-35631200D02*
X136452283Y-35678819D01*
X136452283Y-35678819D02*
X136309426Y-35678819D01*
X137071331Y-35012152D02*
X137071331Y-36012152D01*
X137071331Y-35059771D02*
X137166569Y-35012152D01*
X137166569Y-35012152D02*
X137357045Y-35012152D01*
X137357045Y-35012152D02*
X137452283Y-35059771D01*
X137452283Y-35059771D02*
X137499902Y-35107390D01*
X137499902Y-35107390D02*
X137547521Y-35202628D01*
X137547521Y-35202628D02*
X137547521Y-35488342D01*
X137547521Y-35488342D02*
X137499902Y-35583580D01*
X137499902Y-35583580D02*
X137452283Y-35631200D01*
X137452283Y-35631200D02*
X137357045Y-35678819D01*
X137357045Y-35678819D02*
X137166569Y-35678819D01*
X137166569Y-35678819D02*
X137071331Y-35631200D01*
X137976093Y-35012152D02*
X137976093Y-36012152D01*
X137976093Y-35059771D02*
X138071331Y-35012152D01*
X138071331Y-35012152D02*
X138261807Y-35012152D01*
X138261807Y-35012152D02*
X138357045Y-35059771D01*
X138357045Y-35059771D02*
X138404664Y-35107390D01*
X138404664Y-35107390D02*
X138452283Y-35202628D01*
X138452283Y-35202628D02*
X138452283Y-35488342D01*
X138452283Y-35488342D02*
X138404664Y-35583580D01*
X138404664Y-35583580D02*
X138357045Y-35631200D01*
X138357045Y-35631200D02*
X138261807Y-35678819D01*
X138261807Y-35678819D02*
X138071331Y-35678819D01*
X138071331Y-35678819D02*
X137976093Y-35631200D01*
X139261807Y-35631200D02*
X139166569Y-35678819D01*
X139166569Y-35678819D02*
X138976093Y-35678819D01*
X138976093Y-35678819D02*
X138880855Y-35631200D01*
X138880855Y-35631200D02*
X138833236Y-35535961D01*
X138833236Y-35535961D02*
X138833236Y-35155009D01*
X138833236Y-35155009D02*
X138880855Y-35059771D01*
X138880855Y-35059771D02*
X138976093Y-35012152D01*
X138976093Y-35012152D02*
X139166569Y-35012152D01*
X139166569Y-35012152D02*
X139261807Y-35059771D01*
X139261807Y-35059771D02*
X139309426Y-35155009D01*
X139309426Y-35155009D02*
X139309426Y-35250247D01*
X139309426Y-35250247D02*
X138833236Y-35345485D01*
X139737998Y-35678819D02*
X139737998Y-35012152D01*
X139737998Y-35202628D02*
X139785617Y-35107390D01*
X139785617Y-35107390D02*
X139833236Y-35059771D01*
X139833236Y-35059771D02*
X139928474Y-35012152D01*
X139928474Y-35012152D02*
X140023712Y-35012152D01*
X141118951Y-35678819D02*
X141118951Y-34678819D01*
X141690379Y-35678819D02*
X141261808Y-35107390D01*
X141690379Y-34678819D02*
X141118951Y-35250247D01*
X142499903Y-35631200D02*
X142404665Y-35678819D01*
X142404665Y-35678819D02*
X142214189Y-35678819D01*
X142214189Y-35678819D02*
X142118951Y-35631200D01*
X142118951Y-35631200D02*
X142071332Y-35535961D01*
X142071332Y-35535961D02*
X142071332Y-35155009D01*
X142071332Y-35155009D02*
X142118951Y-35059771D01*
X142118951Y-35059771D02*
X142214189Y-35012152D01*
X142214189Y-35012152D02*
X142404665Y-35012152D01*
X142404665Y-35012152D02*
X142499903Y-35059771D01*
X142499903Y-35059771D02*
X142547522Y-35155009D01*
X142547522Y-35155009D02*
X142547522Y-35250247D01*
X142547522Y-35250247D02*
X142071332Y-35345485D01*
X143357046Y-35631200D02*
X143261808Y-35678819D01*
X143261808Y-35678819D02*
X143071332Y-35678819D01*
X143071332Y-35678819D02*
X142976094Y-35631200D01*
X142976094Y-35631200D02*
X142928475Y-35535961D01*
X142928475Y-35535961D02*
X142928475Y-35155009D01*
X142928475Y-35155009D02*
X142976094Y-35059771D01*
X142976094Y-35059771D02*
X143071332Y-35012152D01*
X143071332Y-35012152D02*
X143261808Y-35012152D01*
X143261808Y-35012152D02*
X143357046Y-35059771D01*
X143357046Y-35059771D02*
X143404665Y-35155009D01*
X143404665Y-35155009D02*
X143404665Y-35250247D01*
X143404665Y-35250247D02*
X142928475Y-35345485D01*
X143833237Y-35012152D02*
X143833237Y-36012152D01*
X143833237Y-35059771D02*
X143928475Y-35012152D01*
X143928475Y-35012152D02*
X144118951Y-35012152D01*
X144118951Y-35012152D02*
X144214189Y-35059771D01*
X144214189Y-35059771D02*
X144261808Y-35107390D01*
X144261808Y-35107390D02*
X144309427Y-35202628D01*
X144309427Y-35202628D02*
X144309427Y-35488342D01*
X144309427Y-35488342D02*
X144261808Y-35583580D01*
X144261808Y-35583580D02*
X144214189Y-35631200D01*
X144214189Y-35631200D02*
X144118951Y-35678819D01*
X144118951Y-35678819D02*
X143928475Y-35678819D01*
X143928475Y-35678819D02*
X143833237Y-35631200D01*
X144880856Y-35678819D02*
X144785618Y-35631200D01*
X144785618Y-35631200D02*
X144737999Y-35583580D01*
X144737999Y-35583580D02*
X144690380Y-35488342D01*
X144690380Y-35488342D02*
X144690380Y-35202628D01*
X144690380Y-35202628D02*
X144737999Y-35107390D01*
X144737999Y-35107390D02*
X144785618Y-35059771D01*
X144785618Y-35059771D02*
X144880856Y-35012152D01*
X144880856Y-35012152D02*
X145023713Y-35012152D01*
X145023713Y-35012152D02*
X145118951Y-35059771D01*
X145118951Y-35059771D02*
X145166570Y-35107390D01*
X145166570Y-35107390D02*
X145214189Y-35202628D01*
X145214189Y-35202628D02*
X145214189Y-35488342D01*
X145214189Y-35488342D02*
X145166570Y-35583580D01*
X145166570Y-35583580D02*
X145118951Y-35631200D01*
X145118951Y-35631200D02*
X145023713Y-35678819D01*
X145023713Y-35678819D02*
X144880856Y-35678819D01*
X146071332Y-35012152D02*
X146071332Y-35678819D01*
X145642761Y-35012152D02*
X145642761Y-35535961D01*
X145642761Y-35535961D02*
X145690380Y-35631200D01*
X145690380Y-35631200D02*
X145785618Y-35678819D01*
X145785618Y-35678819D02*
X145928475Y-35678819D01*
X145928475Y-35678819D02*
X146023713Y-35631200D01*
X146023713Y-35631200D02*
X146071332Y-35583580D01*
X146404666Y-35012152D02*
X146785618Y-35012152D01*
X146547523Y-34678819D02*
X146547523Y-35535961D01*
X146547523Y-35535961D02*
X146595142Y-35631200D01*
X146595142Y-35631200D02*
X146690380Y-35678819D01*
X146690380Y-35678819D02*
X146785618Y-35678819D01*
X147071333Y-35631200D02*
X147166571Y-35678819D01*
X147166571Y-35678819D02*
X147357047Y-35678819D01*
X147357047Y-35678819D02*
X147452285Y-35631200D01*
X147452285Y-35631200D02*
X147499904Y-35535961D01*
X147499904Y-35535961D02*
X147499904Y-35488342D01*
X147499904Y-35488342D02*
X147452285Y-35393104D01*
X147452285Y-35393104D02*
X147357047Y-35345485D01*
X147357047Y-35345485D02*
X147214190Y-35345485D01*
X147214190Y-35345485D02*
X147118952Y-35297866D01*
X147118952Y-35297866D02*
X147071333Y-35202628D01*
X147071333Y-35202628D02*
X147071333Y-35155009D01*
X147071333Y-35155009D02*
X147118952Y-35059771D01*
X147118952Y-35059771D02*
X147214190Y-35012152D01*
X147214190Y-35012152D02*
X147357047Y-35012152D01*
X147357047Y-35012152D02*
X147452285Y-35059771D01*
X148642762Y-35631200D02*
X148738000Y-35678819D01*
X148738000Y-35678819D02*
X148928476Y-35678819D01*
X148928476Y-35678819D02*
X149023714Y-35631200D01*
X149023714Y-35631200D02*
X149071333Y-35535961D01*
X149071333Y-35535961D02*
X149071333Y-35488342D01*
X149071333Y-35488342D02*
X149023714Y-35393104D01*
X149023714Y-35393104D02*
X148928476Y-35345485D01*
X148928476Y-35345485D02*
X148785619Y-35345485D01*
X148785619Y-35345485D02*
X148690381Y-35297866D01*
X148690381Y-35297866D02*
X148642762Y-35202628D01*
X148642762Y-35202628D02*
X148642762Y-35155009D01*
X148642762Y-35155009D02*
X148690381Y-35059771D01*
X148690381Y-35059771D02*
X148785619Y-35012152D01*
X148785619Y-35012152D02*
X148928476Y-35012152D01*
X148928476Y-35012152D02*
X149023714Y-35059771D01*
X149499905Y-35678819D02*
X149499905Y-34678819D01*
X149928476Y-35678819D02*
X149928476Y-35155009D01*
X149928476Y-35155009D02*
X149880857Y-35059771D01*
X149880857Y-35059771D02*
X149785619Y-35012152D01*
X149785619Y-35012152D02*
X149642762Y-35012152D01*
X149642762Y-35012152D02*
X149547524Y-35059771D01*
X149547524Y-35059771D02*
X149499905Y-35107390D01*
X150547524Y-35678819D02*
X150452286Y-35631200D01*
X150452286Y-35631200D02*
X150404667Y-35583580D01*
X150404667Y-35583580D02*
X150357048Y-35488342D01*
X150357048Y-35488342D02*
X150357048Y-35202628D01*
X150357048Y-35202628D02*
X150404667Y-35107390D01*
X150404667Y-35107390D02*
X150452286Y-35059771D01*
X150452286Y-35059771D02*
X150547524Y-35012152D01*
X150547524Y-35012152D02*
X150690381Y-35012152D01*
X150690381Y-35012152D02*
X150785619Y-35059771D01*
X150785619Y-35059771D02*
X150833238Y-35107390D01*
X150833238Y-35107390D02*
X150880857Y-35202628D01*
X150880857Y-35202628D02*
X150880857Y-35488342D01*
X150880857Y-35488342D02*
X150833238Y-35583580D01*
X150833238Y-35583580D02*
X150785619Y-35631200D01*
X150785619Y-35631200D02*
X150690381Y-35678819D01*
X150690381Y-35678819D02*
X150547524Y-35678819D01*
X151214191Y-35012152D02*
X151404667Y-35678819D01*
X151404667Y-35678819D02*
X151595143Y-35202628D01*
X151595143Y-35202628D02*
X151785619Y-35678819D01*
X151785619Y-35678819D02*
X151976095Y-35012152D01*
X152357048Y-35012152D02*
X152357048Y-35678819D01*
X152357048Y-35107390D02*
X152404667Y-35059771D01*
X152404667Y-35059771D02*
X152499905Y-35012152D01*
X152499905Y-35012152D02*
X152642762Y-35012152D01*
X152642762Y-35012152D02*
X152738000Y-35059771D01*
X152738000Y-35059771D02*
X152785619Y-35155009D01*
X152785619Y-35155009D02*
X152785619Y-35678819D01*
X154166572Y-35678819D02*
X154071334Y-35631200D01*
X154071334Y-35631200D02*
X154023715Y-35583580D01*
X154023715Y-35583580D02*
X153976096Y-35488342D01*
X153976096Y-35488342D02*
X153976096Y-35202628D01*
X153976096Y-35202628D02*
X154023715Y-35107390D01*
X154023715Y-35107390D02*
X154071334Y-35059771D01*
X154071334Y-35059771D02*
X154166572Y-35012152D01*
X154166572Y-35012152D02*
X154309429Y-35012152D01*
X154309429Y-35012152D02*
X154404667Y-35059771D01*
X154404667Y-35059771D02*
X154452286Y-35107390D01*
X154452286Y-35107390D02*
X154499905Y-35202628D01*
X154499905Y-35202628D02*
X154499905Y-35488342D01*
X154499905Y-35488342D02*
X154452286Y-35583580D01*
X154452286Y-35583580D02*
X154404667Y-35631200D01*
X154404667Y-35631200D02*
X154309429Y-35678819D01*
X154309429Y-35678819D02*
X154166572Y-35678819D01*
X154928477Y-35012152D02*
X154928477Y-35678819D01*
X154928477Y-35107390D02*
X154976096Y-35059771D01*
X154976096Y-35059771D02*
X155071334Y-35012152D01*
X155071334Y-35012152D02*
X155214191Y-35012152D01*
X155214191Y-35012152D02*
X155309429Y-35059771D01*
X155309429Y-35059771D02*
X155357048Y-35155009D01*
X155357048Y-35155009D02*
X155357048Y-35678819D01*
X156595144Y-35678819D02*
X156595144Y-34678819D01*
X156595144Y-34678819D02*
X156833239Y-34678819D01*
X156833239Y-34678819D02*
X156976096Y-34726438D01*
X156976096Y-34726438D02*
X157071334Y-34821676D01*
X157071334Y-34821676D02*
X157118953Y-34916914D01*
X157118953Y-34916914D02*
X157166572Y-35107390D01*
X157166572Y-35107390D02*
X157166572Y-35250247D01*
X157166572Y-35250247D02*
X157118953Y-35440723D01*
X157118953Y-35440723D02*
X157071334Y-35535961D01*
X157071334Y-35535961D02*
X156976096Y-35631200D01*
X156976096Y-35631200D02*
X156833239Y-35678819D01*
X156833239Y-35678819D02*
X156595144Y-35678819D01*
X157499906Y-35012152D02*
X157690382Y-35678819D01*
X157690382Y-35678819D02*
X157880858Y-35202628D01*
X157880858Y-35202628D02*
X158071334Y-35678819D01*
X158071334Y-35678819D02*
X158261810Y-35012152D01*
X159071334Y-35012152D02*
X159071334Y-35821676D01*
X159071334Y-35821676D02*
X159023715Y-35916914D01*
X159023715Y-35916914D02*
X158976096Y-35964533D01*
X158976096Y-35964533D02*
X158880858Y-36012152D01*
X158880858Y-36012152D02*
X158738001Y-36012152D01*
X158738001Y-36012152D02*
X158642763Y-35964533D01*
X159071334Y-35631200D02*
X158976096Y-35678819D01*
X158976096Y-35678819D02*
X158785620Y-35678819D01*
X158785620Y-35678819D02*
X158690382Y-35631200D01*
X158690382Y-35631200D02*
X158642763Y-35583580D01*
X158642763Y-35583580D02*
X158595144Y-35488342D01*
X158595144Y-35488342D02*
X158595144Y-35202628D01*
X158595144Y-35202628D02*
X158642763Y-35107390D01*
X158642763Y-35107390D02*
X158690382Y-35059771D01*
X158690382Y-35059771D02*
X158785620Y-35012152D01*
X158785620Y-35012152D02*
X158976096Y-35012152D01*
X158976096Y-35012152D02*
X159071334Y-35059771D01*
X159499906Y-35631200D02*
X159595144Y-35678819D01*
X159595144Y-35678819D02*
X159785620Y-35678819D01*
X159785620Y-35678819D02*
X159880858Y-35631200D01*
X159880858Y-35631200D02*
X159928477Y-35535961D01*
X159928477Y-35535961D02*
X159928477Y-35488342D01*
X159928477Y-35488342D02*
X159880858Y-35393104D01*
X159880858Y-35393104D02*
X159785620Y-35345485D01*
X159785620Y-35345485D02*
X159642763Y-35345485D01*
X159642763Y-35345485D02*
X159547525Y-35297866D01*
X159547525Y-35297866D02*
X159499906Y-35202628D01*
X159499906Y-35202628D02*
X159499906Y-35155009D01*
X159499906Y-35155009D02*
X159547525Y-35059771D01*
X159547525Y-35059771D02*
X159642763Y-35012152D01*
X159642763Y-35012152D02*
X159785620Y-35012152D01*
X159785620Y-35012152D02*
X159880858Y-35059771D01*
X161261811Y-35678819D02*
X161166573Y-35631200D01*
X161166573Y-35631200D02*
X161118954Y-35535961D01*
X161118954Y-35535961D02*
X161118954Y-34678819D01*
X162071335Y-35678819D02*
X162071335Y-35155009D01*
X162071335Y-35155009D02*
X162023716Y-35059771D01*
X162023716Y-35059771D02*
X161928478Y-35012152D01*
X161928478Y-35012152D02*
X161738002Y-35012152D01*
X161738002Y-35012152D02*
X161642764Y-35059771D01*
X162071335Y-35631200D02*
X161976097Y-35678819D01*
X161976097Y-35678819D02*
X161738002Y-35678819D01*
X161738002Y-35678819D02*
X161642764Y-35631200D01*
X161642764Y-35631200D02*
X161595145Y-35535961D01*
X161595145Y-35535961D02*
X161595145Y-35440723D01*
X161595145Y-35440723D02*
X161642764Y-35345485D01*
X161642764Y-35345485D02*
X161738002Y-35297866D01*
X161738002Y-35297866D02*
X161976097Y-35297866D01*
X161976097Y-35297866D02*
X162071335Y-35250247D01*
X162452288Y-35012152D02*
X162690383Y-35678819D01*
X162928478Y-35012152D02*
X162690383Y-35678819D01*
X162690383Y-35678819D02*
X162595145Y-35916914D01*
X162595145Y-35916914D02*
X162547526Y-35964533D01*
X162547526Y-35964533D02*
X162452288Y-36012152D01*
X163690383Y-35631200D02*
X163595145Y-35678819D01*
X163595145Y-35678819D02*
X163404669Y-35678819D01*
X163404669Y-35678819D02*
X163309431Y-35631200D01*
X163309431Y-35631200D02*
X163261812Y-35535961D01*
X163261812Y-35535961D02*
X163261812Y-35155009D01*
X163261812Y-35155009D02*
X163309431Y-35059771D01*
X163309431Y-35059771D02*
X163404669Y-35012152D01*
X163404669Y-35012152D02*
X163595145Y-35012152D01*
X163595145Y-35012152D02*
X163690383Y-35059771D01*
X163690383Y-35059771D02*
X163738002Y-35155009D01*
X163738002Y-35155009D02*
X163738002Y-35250247D01*
X163738002Y-35250247D02*
X163261812Y-35345485D01*
X164166574Y-35678819D02*
X164166574Y-35012152D01*
X164166574Y-35202628D02*
X164214193Y-35107390D01*
X164214193Y-35107390D02*
X164261812Y-35059771D01*
X164261812Y-35059771D02*
X164357050Y-35012152D01*
X164357050Y-35012152D02*
X164452288Y-35012152D01*
M02*
