%TF.GenerationSoftware,KiCad,Pcbnew,7.0.8*%
%TF.CreationDate,2023-11-04T18:56:12+01:00*%
%TF.ProjectId,kidslab-lamp,6b696473-6c61-4622-9d6c-616d702e6b69,rev?*%
%TF.SameCoordinates,Original*%
%TF.FileFunction,Copper,L1,Top*%
%TF.FilePolarity,Positive*%
%FSLAX46Y46*%
G04 Gerber Fmt 4.6, Leading zero omitted, Abs format (unit mm)*
G04 Created by KiCad (PCBNEW 7.0.8) date 2023-11-04 18:56:12*
%MOMM*%
%LPD*%
G01*
G04 APERTURE LIST*
G04 Aperture macros list*
%AMRoundRect*
0 Rectangle with rounded corners*
0 $1 Rounding radius*
0 $2 $3 $4 $5 $6 $7 $8 $9 X,Y pos of 4 corners*
0 Add a 4 corners polygon primitive as box body*
4,1,4,$2,$3,$4,$5,$6,$7,$8,$9,$2,$3,0*
0 Add four circle primitives for the rounded corners*
1,1,$1+$1,$2,$3*
1,1,$1+$1,$4,$5*
1,1,$1+$1,$6,$7*
1,1,$1+$1,$8,$9*
0 Add four rect primitives between the rounded corners*
20,1,$1+$1,$2,$3,$4,$5,0*
20,1,$1+$1,$4,$5,$6,$7,0*
20,1,$1+$1,$6,$7,$8,$9,0*
20,1,$1+$1,$8,$9,$2,$3,0*%
%AMFreePoly0*
4,1,34,6.500000,-3.000000,0.000000,-3.000001,0.000000,-2.994924,-0.174434,-2.994924,-0.520945,-2.954423,-0.860410,-2.873969,-1.188239,-2.754648,-1.500000,-2.598076,-1.791476,-2.406370,-2.058725,-2.182121,-2.298133,-1.928363,-2.506463,-1.648527,-2.680898,-1.346398,-2.819078,-1.026060,-2.919135,-0.691847,-2.979715,-0.348279,-3.000001,0.000000,-2.979715,0.348280,-2.919135,0.691848,-2.819078,1.026060,
-2.680897,1.346398,-2.506463,1.648527,-2.298132,1.928363,-2.058725,2.182121,-1.791476,2.406370,-1.500000,2.598076,-1.188239,2.754649,-0.860409,2.873969,-0.520945,2.954423,-0.174434,2.994924,0.000000,2.994924,0.000000,3.000001,6.500000,3.000000,6.500000,-3.000000,6.500000,-3.000000,$1*%
%AMFreePoly1*
4,1,48,0.468453,2.455718,0.772542,2.377641,1.064448,2.262068,1.339567,2.110820,1.593560,1.926283,1.822422,1.711368,1.955916,1.550000,3.250000,1.550000,3.285355,1.535355,3.300000,1.500000,3.300000,-1.500000,3.285355,-1.535355,3.250000,-1.550000,1.955916,-1.550000,1.822422,-1.711368,1.593560,-1.926283,1.339567,-2.110820,1.064448,-2.262068,0.772542,-2.377641,0.468453,-2.455718,
0.156976,-2.495067,-0.156976,-2.495067,-0.468453,-2.455718,-0.772542,-2.377641,-1.064448,-2.262068,-1.339567,-2.110820,-1.593560,-1.926283,-1.822422,-1.711368,-2.022542,-1.469463,-2.190767,-1.204384,-2.324441,-0.920311,-2.421458,-0.621725,-2.480287,-0.313333,-2.500000,0.000000,-2.480287,0.313333,-2.421458,0.621725,-2.324441,0.920311,-2.190767,1.204384,-2.022542,1.469463,-1.822422,1.711368,
-1.593560,1.926283,-1.339567,2.110820,-1.064448,2.262068,-0.772542,2.377641,-0.468453,2.455718,-0.156976,2.495067,0.156976,2.495067,0.468453,2.455718,0.468453,2.455718,$1*%
%AMFreePoly2*
4,1,66,4.411842,5.095106,4.430902,5.095106,4.441081,5.087710,4.453280,5.084625,4.465482,5.069981,4.480902,5.058779,4.484789,5.046813,4.492846,5.037146,4.494111,5.018123,4.500000,5.000000,4.500000,2.600000,10.900000,2.600000,10.915063,2.595106,10.930902,2.595106,10.943715,2.585796,10.958779,2.580902,10.968088,2.568088,10.980902,2.558779,10.985796,2.543715,10.995106,2.530902,
10.995106,2.515062,11.000000,2.500000,11.000000,-2.500000,10.995106,-2.515062,10.995106,-2.530902,10.985796,-2.543715,10.980902,-2.558779,10.968088,-2.568088,10.958779,-2.580902,10.943715,-2.585796,10.930902,-2.595106,10.915063,-2.595106,10.900000,-2.600000,4.500000,-2.600000,4.500000,-5.000000,4.494111,-5.018123,4.492846,-5.037146,4.484789,-5.046813,4.480902,-5.058779,4.465482,-5.069981,
4.453280,-5.084625,4.441081,-5.087710,4.430902,-5.095106,4.411842,-5.095106,4.393363,-5.099780,4.381681,-5.095106,4.369098,-5.095106,4.353676,-5.083901,4.335982,-5.076822,-1.664018,-0.076822,-1.677110,-0.056027,-1.692845,-0.037146,-1.693299,-0.030314,-1.696947,-0.024521,-1.695315,0.000000,-1.696947,0.024521,-1.693299,0.030314,-1.692845,0.037146,-1.677110,0.056027,-1.664018,0.076822,
4.335982,5.076822,4.353676,5.083901,4.369098,5.095106,4.381681,5.095106,4.393363,5.099780,4.411842,5.095106,4.411842,5.095106,$1*%
G04 Aperture macros list end*
%TA.AperFunction,SMDPad,CuDef*%
%ADD10RoundRect,0.200000X0.200000X0.275000X-0.200000X0.275000X-0.200000X-0.275000X0.200000X-0.275000X0*%
%TD*%
%TA.AperFunction,CastellatedPad*%
%ADD11FreePoly0,124.500000*%
%TD*%
%TA.AperFunction,CastellatedPad*%
%ADD12FreePoly0,328.000000*%
%TD*%
%TA.AperFunction,ComponentPad*%
%ADD13O,1.700000X1.700000*%
%TD*%
%TA.AperFunction,SMDPad,CuDef*%
%ADD14R,3.500000X1.700000*%
%TD*%
%TA.AperFunction,ComponentPad*%
%ADD15R,1.700000X1.700000*%
%TD*%
%TA.AperFunction,SMDPad,CuDef*%
%ADD16R,1.700000X3.500000*%
%TD*%
%TA.AperFunction,CastellatedPad*%
%ADD17FreePoly0,0.000000*%
%TD*%
%TA.AperFunction,ComponentPad*%
%ADD18FreePoly1,0.000000*%
%TD*%
%TA.AperFunction,ComponentPad*%
%ADD19C,5.000000*%
%TD*%
%TA.AperFunction,CastellatedPad*%
%ADD20FreePoly0,11.000000*%
%TD*%
%TA.AperFunction,CastellatedPad*%
%ADD21FreePoly0,35.000000*%
%TD*%
%TA.AperFunction,CastellatedPad*%
%ADD22FreePoly0,324.500000*%
%TD*%
%TA.AperFunction,CastellatedPad*%
%ADD23FreePoly0,180.000000*%
%TD*%
%TA.AperFunction,SMDPad,CuDef*%
%ADD24RoundRect,0.200000X-0.200000X-0.275000X0.200000X-0.275000X0.200000X0.275000X-0.200000X0.275000X0*%
%TD*%
%TA.AperFunction,SMDPad,CuDef*%
%ADD25R,0.900000X1.800000*%
%TD*%
%TA.AperFunction,CastellatedPad*%
%ADD26FreePoly0,280.000000*%
%TD*%
%TA.AperFunction,CastellatedPad*%
%ADD27FreePoly0,220.000000*%
%TD*%
%TA.AperFunction,SMDPad,CuDef*%
%ADD28RoundRect,0.225000X0.225000X0.250000X-0.225000X0.250000X-0.225000X-0.250000X0.225000X-0.250000X0*%
%TD*%
%TA.AperFunction,CastellatedPad*%
%ADD29FreePoly0,215.000000*%
%TD*%
%TA.AperFunction,SMDPad,CuDef*%
%ADD30FreePoly2,270.000000*%
%TD*%
%TA.AperFunction,ComponentPad*%
%ADD31FreePoly1,270.000000*%
%TD*%
%TA.AperFunction,SMDPad,CuDef*%
%ADD32R,0.950000X0.800000*%
%TD*%
%TA.AperFunction,CastellatedPad*%
%ADD33FreePoly0,191.500000*%
%TD*%
%TA.AperFunction,CastellatedPad*%
%ADD34FreePoly0,145.000000*%
%TD*%
%TA.AperFunction,CastellatedPad*%
%ADD35FreePoly0,260.000000*%
%TD*%
%TA.AperFunction,ComponentPad*%
%ADD36C,1.500000*%
%TD*%
%TA.AperFunction,CastellatedPad*%
%ADD37FreePoly0,168.500000*%
%TD*%
%TA.AperFunction,SMDPad,CuDef*%
%ADD38RoundRect,0.087500X0.225000X0.087500X-0.225000X0.087500X-0.225000X-0.087500X0.225000X-0.087500X0*%
%TD*%
%TA.AperFunction,SMDPad,CuDef*%
%ADD39RoundRect,0.087500X0.087500X0.225000X-0.087500X0.225000X-0.087500X-0.225000X0.087500X-0.225000X0*%
%TD*%
%TA.AperFunction,SMDPad,CuDef*%
%ADD40FreePoly2,0.000000*%
%TD*%
%TA.AperFunction,SMDPad,CuDef*%
%ADD41RoundRect,0.225000X0.250000X-0.225000X0.250000X0.225000X-0.250000X0.225000X-0.250000X-0.225000X0*%
%TD*%
%TA.AperFunction,CastellatedPad*%
%ADD42FreePoly0,58.000000*%
%TD*%
%TA.AperFunction,CastellatedPad*%
%ADD43FreePoly0,348.500000*%
%TD*%
%TA.AperFunction,SMDPad,CuDef*%
%ADD44FreePoly2,90.000000*%
%TD*%
%TA.AperFunction,ComponentPad*%
%ADD45FreePoly1,90.000000*%
%TD*%
%TA.AperFunction,SMDPad,CuDef*%
%ADD46FreePoly2,180.000000*%
%TD*%
%TA.AperFunction,ComponentPad*%
%ADD47FreePoly1,180.000000*%
%TD*%
%TA.AperFunction,ViaPad*%
%ADD48C,0.800000*%
%TD*%
%TA.AperFunction,Conductor*%
%ADD49C,0.200000*%
%TD*%
%TA.AperFunction,Conductor*%
%ADD50C,0.400000*%
%TD*%
%TA.AperFunction,Conductor*%
%ADD51C,0.800000*%
%TD*%
%TA.AperFunction,Conductor*%
%ADD52C,0.250000*%
%TD*%
G04 APERTURE END LIST*
D10*
%TO.P,R2,1*%
%TO.N,GPIO14*%
X134048000Y-86995000D03*
%TO.P,R2,2*%
%TO.N,+3V3*%
X132398000Y-86995000D03*
%TD*%
D11*
%TO.P,GPIO0,1,1*%
%TO.N,Net-(U1-GPIO0)*%
X127994641Y-49236413D03*
%TD*%
D12*
%TO.P,E39,1,1*%
%TO.N,+3V3*%
X171528000Y-118610000D03*
%TD*%
D13*
%TO.P,U1,1,GPIO0*%
%TO.N,Net-(U1-GPIO0)*%
X140748000Y-41294000D03*
D14*
X139848000Y-41294000D03*
D13*
%TO.P,U1,2,GPIO1*%
%TO.N,Net-(U1-GPIO1)*%
X140748000Y-43834000D03*
D14*
X139848000Y-43834000D03*
D15*
%TO.P,U1,3,GND*%
%TO.N,GND*%
X140748000Y-46374000D03*
D14*
X139848000Y-46374000D03*
D13*
%TO.P,U1,4,GPIO2*%
%TO.N,Net-(U1-GPIO2)*%
X140748000Y-48914000D03*
D14*
X139848000Y-48914000D03*
D13*
%TO.P,U1,5,GPIO3*%
%TO.N,Net-(U1-GPIO3)*%
X140748000Y-51454000D03*
D14*
X139848000Y-51454000D03*
D13*
%TO.P,U1,6,GPIO4*%
%TO.N,Net-(U1-GPIO4)*%
X140748000Y-53994000D03*
D14*
X139848000Y-53994000D03*
D13*
%TO.P,U1,7,GPIO5*%
%TO.N,GPIO5{slash}INTR*%
X140748000Y-56534000D03*
D14*
X139848000Y-56534000D03*
D15*
%TO.P,U1,8,GND*%
%TO.N,GND*%
X140748000Y-59074000D03*
D14*
X139848000Y-59074000D03*
D13*
%TO.P,U1,9,GPIO6*%
%TO.N,GPIO6{slash}SDA1*%
X140748000Y-61614000D03*
D14*
X139848000Y-61614000D03*
D13*
%TO.P,U1,10,GPIO7*%
%TO.N,GPIO7{slash}SCL1*%
X140748000Y-64154000D03*
D14*
X139848000Y-64154000D03*
D13*
%TO.P,U1,11,GPIO8*%
%TO.N,GPIO8{slash}GROVE_TX*%
X140748000Y-66694000D03*
D14*
X139848000Y-66694000D03*
D13*
%TO.P,U1,12,GPIO9*%
%TO.N,GPIO9{slash}GROVE_RX*%
X140748000Y-69234000D03*
D14*
X139848000Y-69234000D03*
D15*
%TO.P,U1,13,GND*%
%TO.N,GND*%
X140748000Y-71774000D03*
D14*
X139848000Y-71774000D03*
D13*
%TO.P,U1,14,GPIO10*%
%TO.N,GPIO10*%
X140748000Y-74314000D03*
D14*
X139848000Y-74314000D03*
D13*
%TO.P,U1,15,GPIO11*%
%TO.N,GPIO11*%
X140748000Y-76854000D03*
D14*
X139848000Y-76854000D03*
D13*
%TO.P,U1,16,GPIO12*%
%TO.N,GPIO12*%
X140748000Y-79394000D03*
D14*
X139848000Y-79394000D03*
D13*
%TO.P,U1,17,GPIO13*%
%TO.N,Net-(U1-GPIO13)*%
X140748000Y-81934000D03*
D14*
X139848000Y-81934000D03*
D15*
%TO.P,U1,18,GND*%
%TO.N,GND*%
X140748000Y-84474000D03*
D14*
X139848000Y-84474000D03*
D13*
%TO.P,U1,19,GPIO14*%
%TO.N,GPIO14*%
X140748000Y-87014000D03*
D14*
X139848000Y-87014000D03*
D13*
%TO.P,U1,20,GPIO15*%
%TO.N,GPIO15*%
X140748000Y-89554000D03*
D14*
X139848000Y-89554000D03*
D13*
%TO.P,U1,21,GPIO16*%
%TO.N,GPIO16*%
X158528000Y-89554000D03*
D14*
X159428000Y-89554000D03*
D13*
%TO.P,U1,22,GPIO17*%
%TO.N,GPIO17*%
X158528000Y-87014000D03*
D14*
X159428000Y-87014000D03*
D15*
%TO.P,U1,23,GND*%
%TO.N,GND*%
X158528000Y-84474000D03*
D14*
X159428000Y-84474000D03*
D13*
%TO.P,U1,24,GPIO18*%
%TO.N,Net-(U1-GPIO18)*%
X158528000Y-81934000D03*
D14*
X159428000Y-81934000D03*
D13*
%TO.P,U1,25,GPIO19*%
%TO.N,unconnected-(U1-GPIO19-Pad25)*%
X158528000Y-79394000D03*
D14*
X159428000Y-79394000D03*
D13*
%TO.P,U1,26,GPIO20*%
%TO.N,GPIO20{slash}Buzzer*%
X158528000Y-76854000D03*
D14*
X159428000Y-76854000D03*
D13*
%TO.P,U1,27,GPIO21*%
%TO.N,Net-(U1-GPIO21)*%
X158528000Y-74314000D03*
D14*
X159428000Y-74314000D03*
D15*
%TO.P,U1,28,GND*%
%TO.N,GND*%
X158528000Y-71774000D03*
D14*
X159428000Y-71774000D03*
D13*
%TO.P,U1,29,GPIO22*%
%TO.N,Net-(U1-GPIO22)*%
X158528000Y-69234000D03*
D14*
X159428000Y-69234000D03*
D13*
%TO.P,U1,30,RUN*%
%TO.N,unconnected-(U1-RUN-Pad30)*%
X158528000Y-66694000D03*
D14*
X159428000Y-66694000D03*
D13*
%TO.P,U1,31,GPIO26_ADC0*%
%TO.N,Net-(U1-GPIO26_ADC0)*%
X158528000Y-64154000D03*
D14*
X159428000Y-64154000D03*
D13*
%TO.P,U1,32,GPIO27_ADC1*%
%TO.N,Net-(U1-GPIO27_ADC1)*%
X158528000Y-61614000D03*
D14*
X159428000Y-61614000D03*
D15*
%TO.P,U1,33,AGND*%
%TO.N,unconnected-(U1-AGND-Pad33)*%
X158528000Y-59074000D03*
D14*
X159428000Y-59074000D03*
D13*
%TO.P,U1,34,GPIO28_ADC2*%
%TO.N,Net-(U1-GPIO28_ADC2)*%
X158528000Y-56534000D03*
D14*
X159428000Y-56534000D03*
D13*
%TO.P,U1,35,ADC_VREF*%
%TO.N,unconnected-(U1-ADC_VREF-Pad35)*%
X158528000Y-53994000D03*
D14*
X159428000Y-53994000D03*
D13*
%TO.P,U1,36,3V3*%
%TO.N,+3V3*%
X158528000Y-51454000D03*
D14*
X159428000Y-51454000D03*
D13*
%TO.P,U1,37,3V3_EN*%
%TO.N,unconnected-(U1-3V3_EN-Pad37)*%
X158528000Y-48914000D03*
D14*
X159428000Y-48914000D03*
D15*
%TO.P,U1,38,GND*%
%TO.N,GND*%
X158528000Y-46374000D03*
D14*
X159428000Y-46374000D03*
D13*
%TO.P,U1,39,VSYS*%
%TO.N,unconnected-(U1-VSYS-Pad39)*%
X158528000Y-43834000D03*
D14*
X159428000Y-43834000D03*
D13*
%TO.P,U1,40,VBUS*%
%TO.N,+5V*%
X158528000Y-41294000D03*
D14*
X159428000Y-41294000D03*
D13*
%TO.P,U1,41,SWCLK*%
%TO.N,unconnected-(U1-SWCLK-Pad41)*%
X147098000Y-89324000D03*
D16*
X147098000Y-90224000D03*
D15*
%TO.P,U1,42,GND*%
%TO.N,unconnected-(U1-GND-Pad42)*%
X149638000Y-89324000D03*
D16*
X149638000Y-90224000D03*
D13*
%TO.P,U1,43,SWDIO*%
%TO.N,unconnected-(U1-SWDIO-Pad43)*%
X152178000Y-89324000D03*
D16*
X152178000Y-90224000D03*
%TD*%
D17*
%TO.P,E30,1,1*%
%TO.N,GND*%
X168338000Y-146154000D03*
%TD*%
D18*
%TO.P,GPIO18,1,1*%
%TO.N,Net-(U1-GPIO18)*%
X174030000Y-87630000D03*
D19*
X179030000Y-87630000D03*
%TD*%
D20*
%TO.P,GPIO26,1,1*%
%TO.N,Net-(U1-GPIO26_ADC0)*%
X188339837Y-73673081D03*
%TD*%
D21*
%TO.P,GPIO27,1,1*%
%TO.N,Net-(U1-GPIO27_ADC1)*%
X182856085Y-60211358D03*
%TD*%
D22*
%TO.P,GPIO21,1,1*%
%TO.N,Net-(U1-GPIO21)*%
X182356588Y-105095930D03*
%TD*%
D23*
%TO.P,E34,1,1*%
%TO.N,GND*%
X131038000Y-153654000D03*
%TD*%
D24*
%TO.P,R6,1*%
%TO.N,+3V3*%
X132462000Y-64160400D03*
%TO.P,R6,2*%
%TO.N,GPIO7{slash}SCL1*%
X134112000Y-64160400D03*
%TD*%
D18*
%TO.P,B6,1,1*%
%TO.N,GND*%
X154938000Y-139154000D03*
D19*
X159938000Y-139154000D03*
%TD*%
D25*
%TO.P,BZ1,1,-*%
%TO.N,GPIO20{slash}Buzzer*%
X169214800Y-61747400D03*
%TO.P,BZ1,2,+*%
%TO.N,GND*%
X172714800Y-61747400D03*
%TD*%
D26*
%TO.P,E37,1,1*%
%TO.N,+5V*%
X158920635Y-163055519D03*
%TD*%
D27*
%TO.P,E40,1,1*%
%TO.N,+3V3*%
X127514604Y-116767721D03*
%TD*%
D28*
%TO.P,C7,1*%
%TO.N,+3V3*%
X146457000Y-134112000D03*
%TO.P,C7,2*%
%TO.N,GND*%
X144907000Y-134112000D03*
%TD*%
D29*
%TO.P,GPIO4,1,1*%
%TO.N,Net-(U1-GPIO4)*%
X118019915Y-105096642D03*
%TD*%
D30*
%TO.P,GPIO15,1,1*%
%TO.N,GPIO15*%
X149606000Y-94488000D03*
D31*
X149606000Y-97928000D03*
D19*
X149606000Y-102928000D03*
%TD*%
D28*
%TO.P,C4,1*%
%TO.N,+3V3*%
X150381000Y-107950000D03*
%TO.P,C4,2*%
%TO.N,GND*%
X148831000Y-107950000D03*
%TD*%
D17*
%TO.P,E31,1,1*%
%TO.N,GND*%
X168338000Y-139154000D03*
%TD*%
D28*
%TO.P,C9,1*%
%TO.N,+3V3*%
X166891000Y-134112000D03*
%TO.P,C9,2*%
%TO.N,GND*%
X165341000Y-134112000D03*
%TD*%
%TO.P,C6,1*%
%TO.N,+3V3*%
X136284000Y-134112000D03*
%TO.P,C6,2*%
%TO.N,GND*%
X134734000Y-134112000D03*
%TD*%
D32*
%TO.P,D4,1,VDD*%
%TO.N,+3V3*%
X165985000Y-132095000D03*
%TO.P,D4,2,DOUT*%
%TO.N,unconnected-(D4-DOUT-Pad2)*%
X165985000Y-130315000D03*
%TO.P,D4,3,VSS*%
%TO.N,GND*%
X163255000Y-130315000D03*
%TO.P,D4,4,DIN*%
%TO.N,Net-(D3-DOUT)*%
X163255000Y-132095000D03*
%TD*%
D33*
%TO.P,GPIO3,1,1*%
%TO.N,Net-(U1-GPIO3)*%
X111535992Y-90634063D03*
%TD*%
D34*
%TO.P,GPIO1,1,1*%
%TO.N,Net-(U1-GPIO1)*%
X116519915Y-60211358D03*
%TD*%
D35*
%TO.P,E38,1,1*%
%TO.N,+5V*%
X140955365Y-163055519D03*
%TD*%
D36*
%TO.P,J1,1,Pin_1*%
%TO.N,GPIO9{slash}GROVE_RX*%
X132657600Y-80314800D03*
%TO.P,J1,2,Pin_2*%
%TO.N,GPIO8{slash}GROVE_TX*%
X130657600Y-80314800D03*
%TO.P,J1,3,Pin_3*%
%TO.N,+5V*%
X128657600Y-80314800D03*
%TO.P,J1,4,Pin_4*%
%TO.N,GND*%
X126657600Y-80314800D03*
%TD*%
D18*
%TO.P,B1,1,1*%
%TO.N,GND*%
X154938000Y-153154000D03*
D19*
X159938000Y-153154000D03*
%TD*%
D23*
%TO.P,E33,1,1*%
%TO.N,GND*%
X131098000Y-139654000D03*
%TD*%
D32*
%TO.P,D1,1,VDD*%
%TO.N,+3V3*%
X135505000Y-132095000D03*
%TO.P,D1,2,DOUT*%
%TO.N,Net-(D1-DOUT)*%
X135505000Y-130315000D03*
%TO.P,D1,3,VSS*%
%TO.N,GND*%
X132775000Y-130315000D03*
%TO.P,D1,4,DIN*%
%TO.N,GPIO12*%
X132775000Y-132095000D03*
%TD*%
D37*
%TO.P,GPIO2,1,1*%
%TO.N,Net-(U1-GPIO2)*%
X111535992Y-73673937D03*
%TD*%
D17*
%TO.P,E35,1,1*%
%TO.N,GND*%
X168338000Y-153154000D03*
%TD*%
D24*
%TO.P,R3,1*%
%TO.N,GPIO17*%
X165164000Y-86995000D03*
%TO.P,R3,2*%
%TO.N,+3V3*%
X166814000Y-86995000D03*
%TD*%
D18*
%TO.P,B2,1,1*%
%TO.N,GND*%
X139438000Y-146654000D03*
D19*
X144438000Y-146654000D03*
%TD*%
D18*
%TO.P,B4,1,1*%
%TO.N,GND*%
X139438000Y-153654000D03*
D19*
X144438000Y-153654000D03*
%TD*%
D38*
%TO.P,U2,1,SDO/SA0*%
%TO.N,GND*%
X150768500Y-111224000D03*
%TO.P,U2,2,SDX*%
X150768500Y-110724000D03*
%TO.P,U2,3,SCX*%
X150768500Y-110224000D03*
%TO.P,U2,4,INT1*%
%TO.N,GPIO5{slash}INTR*%
X150768500Y-109724000D03*
D39*
%TO.P,U2,5,VDDIO*%
%TO.N,+3V3*%
X150106000Y-109561500D03*
%TO.P,U2,6,GND*%
%TO.N,GND*%
X149606000Y-109561500D03*
%TO.P,U2,7,GND*%
X149106000Y-109561500D03*
D38*
%TO.P,U2,8,VDD*%
%TO.N,+3V3*%
X148443500Y-109724000D03*
%TO.P,U2,9,INT2*%
%TO.N,unconnected-(U2-INT2-Pad9)*%
X148443500Y-110224000D03*
%TO.P,U2,10,NC*%
%TO.N,unconnected-(U2-NC-Pad10)*%
X148443500Y-110724000D03*
%TO.P,U2,11,NC*%
%TO.N,unconnected-(U2-NC-Pad11)*%
X148443500Y-111224000D03*
D39*
%TO.P,U2,12,CS*%
%TO.N,+3V3*%
X149106000Y-111386500D03*
%TO.P,U2,13,SCL*%
%TO.N,GPIO7{slash}SCL1*%
X149606000Y-111386500D03*
%TO.P,U2,14,SDA*%
%TO.N,GPIO6{slash}SDA1*%
X150106000Y-111386500D03*
%TD*%
D10*
%TO.P,R1,1*%
%TO.N,GPIO15*%
X134048000Y-89535000D03*
%TO.P,R1,2*%
%TO.N,+3V3*%
X132398000Y-89535000D03*
%TD*%
D32*
%TO.P,D3,1,VDD*%
%TO.N,+3V3*%
X155825000Y-132095000D03*
%TO.P,D3,2,DOUT*%
%TO.N,Net-(D3-DOUT)*%
X155825000Y-130315000D03*
%TO.P,D3,3,VSS*%
%TO.N,GND*%
X153095000Y-130315000D03*
%TO.P,D3,4,DIN*%
%TO.N,Net-(D2-DOUT)*%
X153095000Y-132095000D03*
%TD*%
D40*
%TO.P,GPIO14,1,1*%
%TO.N,GPIO14*%
X130928000Y-110474000D03*
D18*
X134368000Y-110474000D03*
D19*
X139368000Y-110474000D03*
%TD*%
D18*
%TO.P,B3,1,1*%
%TO.N,GND*%
X139438000Y-139654000D03*
D19*
X144438000Y-139654000D03*
%TD*%
D41*
%TO.P,C5,1*%
%TO.N,+3V3*%
X146812000Y-109500000D03*
%TO.P,C5,2*%
%TO.N,GND*%
X146812000Y-107950000D03*
%TD*%
D15*
%TO.P,J3,1,GND*%
%TO.N,GND*%
X127093000Y-72382000D03*
D13*
%TO.P,J3,2,5V*%
%TO.N,+5V*%
X129633000Y-72382000D03*
%TO.P,J3,3,S*%
%TO.N,GPIO11*%
X132173000Y-72382000D03*
%TD*%
D23*
%TO.P,E32,1,1*%
%TO.N,GND*%
X131038000Y-146654000D03*
%TD*%
D15*
%TO.P,J2,1,GND*%
%TO.N,GND*%
X127093000Y-68318000D03*
D13*
%TO.P,J2,2,5V*%
%TO.N,+5V*%
X129633000Y-68318000D03*
%TO.P,J2,3,S*%
%TO.N,GPIO10*%
X132173000Y-68318000D03*
%TD*%
D32*
%TO.P,D2,1,VDD*%
%TO.N,+3V3*%
X145665000Y-132095000D03*
%TO.P,D2,2,DOUT*%
%TO.N,Net-(D2-DOUT)*%
X145665000Y-130315000D03*
%TO.P,D2,3,VSS*%
%TO.N,GND*%
X142935000Y-130315000D03*
%TO.P,D2,4,DIN*%
%TO.N,Net-(D1-DOUT)*%
X142935000Y-132095000D03*
%TD*%
D42*
%TO.P,GPIO28,1,1*%
%TO.N,Net-(U1-GPIO28_ADC2)*%
X172385008Y-49238805D03*
%TD*%
D18*
%TO.P,B5,1,1*%
%TO.N,GND*%
X154938000Y-146154000D03*
D19*
X159938000Y-146154000D03*
%TD*%
D18*
%TO.P,GPIO13,1,1*%
%TO.N,Net-(U1-GPIO13)*%
X120650000Y-87630000D03*
D19*
X125650000Y-87630000D03*
%TD*%
D24*
%TO.P,R4,1*%
%TO.N,GPIO16*%
X165164000Y-89535000D03*
%TO.P,R4,2*%
%TO.N,+3V3*%
X166814000Y-89535000D03*
%TD*%
D43*
%TO.P,GPIO22,1,1*%
%TO.N,Net-(U1-GPIO22)*%
X188340008Y-90634063D03*
%TD*%
D24*
%TO.P,R5,1*%
%TO.N,+3V3*%
X132487400Y-61620400D03*
%TO.P,R5,2*%
%TO.N,GPIO6{slash}SDA1*%
X134137400Y-61620400D03*
%TD*%
D44*
%TO.P,GPIO17,1,1*%
%TO.N,GPIO17*%
X149606000Y-127804000D03*
D45*
X149606000Y-124364000D03*
D19*
X149606000Y-119364000D03*
%TD*%
D46*
%TO.P,GPIO16,1,1*%
%TO.N,GPIO16*%
X168128000Y-110474000D03*
D47*
X164688000Y-110474000D03*
D19*
X159688000Y-110474000D03*
%TD*%
D28*
%TO.P,C8,1*%
%TO.N,+3V3*%
X156604000Y-134112000D03*
%TO.P,C8,2*%
%TO.N,GND*%
X155054000Y-134112000D03*
%TD*%
D48*
%TO.N,GND*%
X151384000Y-134112000D03*
X161798000Y-134112000D03*
X140716000Y-130302000D03*
X130556000Y-130302000D03*
X141224000Y-134112000D03*
X171450000Y-61976000D03*
X131064000Y-134112000D03*
X151130000Y-130302000D03*
X161290000Y-130302000D03*
X135890000Y-68326000D03*
X147828000Y-107950000D03*
%TO.N,GPIO15*%
X145542000Y-101346000D03*
X142240000Y-100838000D03*
%TO.N,GPIO20{slash}Buzzer*%
X162560000Y-76454000D03*
X168656000Y-63754000D03*
%TO.N,+5V*%
X154348500Y-70358000D03*
X155956000Y-50038000D03*
X155956000Y-110998000D03*
X155448000Y-126746000D03*
X154178000Y-94996000D03*
X154348500Y-60960000D03*
%TO.N,+3V3*%
X157734000Y-93980000D03*
X147066000Y-110490000D03*
X150368000Y-82550000D03*
X145034000Y-93980000D03*
X150368000Y-58420000D03*
X150368000Y-54610000D03*
X151892000Y-108966000D03*
X138430000Y-133223000D03*
X140462000Y-99314000D03*
%TO.N,Net-(U1-GPIO18)*%
X170688000Y-85598000D03*
%TO.N,GPIO6{slash}SDA1*%
X145733500Y-110744000D03*
X150243669Y-112301542D03*
%TD*%
D49*
%TO.N,GPIO12*%
X133858000Y-130048000D02*
X135128000Y-128778000D01*
X133350000Y-132080000D02*
X133858000Y-131572000D01*
X143406220Y-127357780D02*
X143406220Y-82052220D01*
X143406220Y-82052220D02*
X140748000Y-79394000D01*
X135128000Y-128778000D02*
X141986000Y-128778000D01*
X133858000Y-131572000D02*
X133858000Y-130048000D01*
X132390000Y-132080000D02*
X133350000Y-132080000D01*
X141986000Y-128778000D02*
X143406220Y-127357780D01*
D50*
%TO.N,GND*%
X144907000Y-134112000D02*
X141224000Y-134112000D01*
X155054000Y-134112000D02*
X151384000Y-134112000D01*
D49*
X149606000Y-109922008D02*
X149606000Y-109561500D01*
D50*
X127093000Y-68318000D02*
X128863000Y-66548000D01*
D49*
X150768500Y-111224000D02*
X150768500Y-110224000D01*
D50*
X151158000Y-130330000D02*
X151130000Y-130302000D01*
X128863000Y-66548000D02*
X134112000Y-66548000D01*
X152710000Y-130330000D02*
X151158000Y-130330000D01*
D49*
X146812000Y-107950000D02*
X147828000Y-107950000D01*
X150768500Y-110224000D02*
X149907992Y-110224000D01*
D50*
X134734000Y-134112000D02*
X131064000Y-134112000D01*
D49*
X149907992Y-110224000D02*
X149606000Y-109922008D01*
D50*
X165341000Y-134112000D02*
X161798000Y-134112000D01*
X140744000Y-130330000D02*
X140716000Y-130302000D01*
X134112000Y-66548000D02*
X135890000Y-68326000D01*
X171678600Y-61747400D02*
X171450000Y-61976000D01*
D49*
X149606000Y-108725000D02*
X148831000Y-107950000D01*
D50*
X162870000Y-130330000D02*
X161318000Y-130330000D01*
X142550000Y-130330000D02*
X140744000Y-130330000D01*
X132390000Y-130330000D02*
X130584000Y-130330000D01*
D49*
X147828000Y-107950000D02*
X148831000Y-107950000D01*
D50*
X161318000Y-130330000D02*
X161290000Y-130302000D01*
D49*
X149106000Y-109561500D02*
X149106000Y-108225000D01*
X149106000Y-108225000D02*
X148831000Y-107950000D01*
X149606000Y-109561500D02*
X149606000Y-108725000D01*
D50*
X130584000Y-130330000D02*
X130556000Y-130302000D01*
X172714800Y-61747400D02*
X171678600Y-61747400D01*
D49*
%TO.N,GPIO14*%
X139368000Y-110474000D02*
X142940000Y-106902000D01*
X142940000Y-106902000D02*
X142940000Y-89206000D01*
D50*
X134048000Y-86995000D02*
X140729000Y-86995000D01*
D49*
X142940000Y-89206000D02*
X140748000Y-87014000D01*
D50*
X140729000Y-86995000D02*
X140748000Y-87014000D01*
D49*
%TO.N,GPIO15*%
X149606000Y-102928000D02*
X147124000Y-102928000D01*
D50*
X140729000Y-89535000D02*
X140748000Y-89554000D01*
D49*
X142240000Y-91046000D02*
X140748000Y-89554000D01*
D50*
X134048000Y-89535000D02*
X140729000Y-89535000D01*
D49*
X142240000Y-100838000D02*
X142240000Y-91046000D01*
X147124000Y-102928000D02*
X145542000Y-101346000D01*
%TO.N,GPIO16*%
X155848000Y-90786000D02*
X157080000Y-89554000D01*
D50*
X158547000Y-89535000D02*
X158528000Y-89554000D01*
X165164000Y-89535000D02*
X158547000Y-89535000D01*
D49*
X155848000Y-108350000D02*
X155848000Y-90786000D01*
X157080000Y-89554000D02*
X158528000Y-89554000D01*
X159688000Y-110474000D02*
X157972000Y-110474000D01*
X157972000Y-110474000D02*
X155848000Y-108350000D01*
%TO.N,GPIO17*%
X155448000Y-90094000D02*
X158528000Y-87014000D01*
X149606000Y-119364000D02*
X149606000Y-115570000D01*
X149606000Y-115570000D02*
X155448000Y-109728000D01*
X155448000Y-109728000D02*
X155448000Y-90094000D01*
D50*
X158547000Y-86995000D02*
X158528000Y-87014000D01*
X165164000Y-86995000D02*
X158547000Y-86995000D01*
D49*
%TO.N,GPIO20{slash}Buzzer*%
X168656000Y-63754000D02*
X169214800Y-63195200D01*
X162560000Y-76454000D02*
X162160000Y-76854000D01*
X169214800Y-63195200D02*
X169214800Y-61747400D01*
X162160000Y-76854000D02*
X158528000Y-76854000D01*
D50*
%TO.N,GPIO9{slash}GROVE_RX*%
X138030000Y-69234000D02*
X136398000Y-70866000D01*
X140748000Y-69234000D02*
X138030000Y-69234000D01*
X136398000Y-75692000D02*
X132657600Y-79432400D01*
X132657600Y-79432400D02*
X132657600Y-80314800D01*
X136398000Y-70866000D02*
X136398000Y-75692000D01*
%TO.N,GPIO8{slash}GROVE_TX*%
X135636000Y-70280314D02*
X135636000Y-75336400D01*
X139222314Y-66694000D02*
X135636000Y-70280314D01*
X135636000Y-75336400D02*
X130657600Y-80314800D01*
X140748000Y-66694000D02*
X139222314Y-66694000D01*
D51*
%TO.N,+5V*%
X154348500Y-94825500D02*
X154178000Y-94996000D01*
X155956000Y-43016000D02*
X155956000Y-50038000D01*
X155956000Y-126238000D02*
X155448000Y-126746000D01*
X155956000Y-110998000D02*
X155956000Y-126238000D01*
X157678000Y-41294000D02*
X155956000Y-43016000D01*
X154348500Y-70358000D02*
X154348500Y-94825500D01*
X154348500Y-60960000D02*
X154348500Y-70358000D01*
X158528000Y-41294000D02*
X157678000Y-41294000D01*
D49*
%TO.N,+3V3*%
X148537000Y-112268000D02*
X147828000Y-112268000D01*
D50*
X165227000Y-133223000D02*
X165227000Y-133237000D01*
X148971000Y-133223000D02*
X149098000Y-133350000D01*
X166891000Y-134112000D02*
X166002000Y-133223000D01*
X132487400Y-61620400D02*
X132487400Y-62992000D01*
D51*
X140462000Y-99314000D02*
X132398000Y-91250000D01*
X150368000Y-82550000D02*
X150368000Y-58420000D01*
D50*
X132487400Y-62992000D02*
X132487400Y-64135000D01*
D49*
X150106000Y-109561500D02*
X150106000Y-108225000D01*
D50*
X134070272Y-60364000D02*
X148424000Y-60364000D01*
D51*
X145034000Y-87884000D02*
X150368000Y-82550000D01*
D49*
X150381000Y-107950000D02*
X150876000Y-107950000D01*
X146812000Y-109500000D02*
X146812000Y-110236000D01*
X146812000Y-110236000D02*
X147066000Y-110490000D01*
D50*
X156577000Y-134112000D02*
X155702000Y-133237000D01*
D51*
X153524000Y-51454000D02*
X150368000Y-54610000D01*
D50*
X166370000Y-132080000D02*
X165227000Y-133223000D01*
X166002000Y-133223000D02*
X165227000Y-133223000D01*
D49*
X147828000Y-112268000D02*
X147066000Y-111506000D01*
D51*
X171528000Y-103139000D02*
X171528000Y-118610000D01*
D50*
X147193000Y-133376000D02*
X146457000Y-134112000D01*
D49*
X148219500Y-109500000D02*
X148443500Y-109724000D01*
D50*
X155053000Y-133237000D02*
X154813000Y-133237000D01*
X132487400Y-62992000D02*
X132487400Y-61946872D01*
D51*
X157734000Y-93980000D02*
X162369000Y-93980000D01*
D50*
X147193000Y-133223000D02*
X137033000Y-133223000D01*
X155702000Y-133237000D02*
X154813000Y-133237000D01*
D49*
X150876000Y-107950000D02*
X151892000Y-108966000D01*
D50*
X132487400Y-64135000D02*
X132462000Y-64160400D01*
X156210000Y-132080000D02*
X155053000Y-133237000D01*
D51*
X132398000Y-91250000D02*
X132398000Y-89535000D01*
D50*
X132487400Y-61946872D02*
X134070272Y-60364000D01*
X166814000Y-86995000D02*
X166814000Y-89535000D01*
D51*
X162369000Y-93980000D02*
X166814000Y-89535000D01*
D50*
X147193000Y-133223000D02*
X148971000Y-133223000D01*
D51*
X158528000Y-51454000D02*
X153524000Y-51454000D01*
X162369000Y-93980000D02*
X171528000Y-103139000D01*
D50*
X149098000Y-133350000D02*
X151130000Y-133350000D01*
X165227000Y-133237000D02*
X155702000Y-133237000D01*
D49*
X149106000Y-111699000D02*
X148537000Y-112268000D01*
D51*
X145034000Y-93980000D02*
X145034000Y-87884000D01*
D49*
X149106000Y-111386500D02*
X149106000Y-111699000D01*
X150106000Y-108225000D02*
X150381000Y-107950000D01*
D50*
X132398000Y-86995000D02*
X132398000Y-89535000D01*
X136284000Y-134112000D02*
X136284000Y-133972000D01*
X151130000Y-133350000D02*
X151243000Y-133237000D01*
X156604000Y-134112000D02*
X156577000Y-134112000D01*
X136284000Y-133972000D02*
X137033000Y-133223000D01*
X146050000Y-132080000D02*
X147193000Y-133223000D01*
D49*
X146812000Y-109500000D02*
X148219500Y-109500000D01*
D50*
X151243000Y-133237000D02*
X154813000Y-133237000D01*
X148424000Y-60364000D02*
X150622000Y-58166000D01*
X137033000Y-133223000D02*
X135890000Y-132080000D01*
X147193000Y-133223000D02*
X147193000Y-133376000D01*
D49*
X147066000Y-111506000D02*
X147066000Y-110490000D01*
D52*
%TO.N,Net-(D1-DOUT)*%
X136685620Y-131191000D02*
X139065000Y-131191000D01*
X139954000Y-132080000D02*
X142550000Y-132080000D01*
X135890000Y-130330000D02*
X135890000Y-130395380D01*
X139065000Y-131191000D02*
X139954000Y-132080000D01*
X135890000Y-130395380D02*
X136685620Y-131191000D01*
%TO.N,Net-(D2-DOUT)*%
X148364000Y-130330000D02*
X150114000Y-132080000D01*
X150114000Y-132080000D02*
X152710000Y-132080000D01*
X146050000Y-130330000D02*
X148364000Y-130330000D01*
%TO.N,Net-(D3-DOUT)*%
X160274000Y-132080000D02*
X162870000Y-132080000D01*
X156210000Y-130330000D02*
X158524000Y-130330000D01*
X158524000Y-130330000D02*
X160274000Y-132080000D01*
D50*
%TO.N,Net-(U1-GPIO13)*%
X131346000Y-81934000D02*
X140748000Y-81934000D01*
X125650000Y-87630000D02*
X131346000Y-81934000D01*
%TO.N,Net-(U1-GPIO0)*%
X136652000Y-43864314D02*
X139222314Y-41294000D01*
X127994641Y-49236413D02*
X132627587Y-49236413D01*
X136652000Y-45212000D02*
X136652000Y-43864314D01*
X132627587Y-49236413D02*
X136652000Y-45212000D01*
X139222314Y-41294000D02*
X140748000Y-41294000D01*
%TO.N,Net-(U1-GPIO1)*%
X123176642Y-60211358D02*
X137698000Y-45690000D01*
X137698000Y-45690000D02*
X137698000Y-45358314D01*
X116519915Y-60211358D02*
X123176642Y-60211358D01*
X139222314Y-43834000D02*
X140748000Y-43834000D01*
X137698000Y-45358314D02*
X139222314Y-43834000D01*
%TO.N,Net-(U1-GPIO2)*%
X135490000Y-48914000D02*
X140748000Y-48914000D01*
X111535992Y-72868008D02*
X135490000Y-48914000D01*
X111535992Y-73673937D02*
X111535992Y-72868008D01*
%TO.N,Net-(U1-GPIO3)*%
X115986000Y-69350264D02*
X133882264Y-51454000D01*
X111535992Y-90634063D02*
X115986000Y-86184055D01*
X115986000Y-86184055D02*
X115986000Y-69350264D01*
X133882264Y-51454000D02*
X140748000Y-51454000D01*
%TO.N,Net-(U1-GPIO4)*%
X118019915Y-105096642D02*
X116840000Y-103916727D01*
X116840000Y-69596000D02*
X132442000Y-53994000D01*
X116840000Y-103916727D02*
X116840000Y-69596000D01*
X132442000Y-53994000D02*
X140748000Y-53994000D01*
D49*
%TO.N,Net-(U1-GPIO28_ADC2)*%
X172385008Y-49238805D02*
X165089813Y-56534000D01*
X165089813Y-56534000D02*
X158528000Y-56534000D01*
%TO.N,Net-(U1-GPIO27_ADC1)*%
X162922000Y-61614000D02*
X158528000Y-61614000D01*
X182856085Y-60211358D02*
X164324642Y-60211358D01*
X164324642Y-60211358D02*
X162922000Y-61614000D01*
%TO.N,Net-(U1-GPIO26_ADC0)*%
X167653081Y-73673081D02*
X164338000Y-70358000D01*
X162706000Y-64154000D02*
X158528000Y-64154000D01*
X164338000Y-65786000D02*
X162706000Y-64154000D01*
X188339837Y-73673081D02*
X167653081Y-73673081D01*
X164338000Y-70358000D02*
X164338000Y-65786000D01*
%TO.N,Net-(U1-GPIO22)*%
X169164000Y-78485736D02*
X169164000Y-81788000D01*
X169164000Y-81788000D02*
X171196000Y-83820000D01*
X171196000Y-83820000D02*
X181525945Y-83820000D01*
X159912264Y-69234000D02*
X169164000Y-78485736D01*
X181525945Y-83820000D02*
X188340008Y-90634063D01*
X158528000Y-69234000D02*
X159912264Y-69234000D01*
%TO.N,Net-(U1-GPIO21)*%
X162452000Y-74314000D02*
X158528000Y-74314000D01*
X168656000Y-91395342D02*
X168656000Y-80518000D01*
X168656000Y-80518000D02*
X162452000Y-74314000D01*
X182356588Y-105095930D02*
X168656000Y-91395342D01*
%TO.N,Net-(U1-GPIO18)*%
X171998000Y-85598000D02*
X170688000Y-85598000D01*
X174030000Y-87630000D02*
X171998000Y-85598000D01*
%TO.N,GPIO6{slash}SDA1*%
X145733500Y-110744000D02*
X145733500Y-110173500D01*
X150243669Y-112301542D02*
X150243669Y-112217355D01*
X145542000Y-104387946D02*
X144206220Y-103052166D01*
X145380000Y-85451107D02*
X145380000Y-66246000D01*
X145542000Y-109982000D02*
X145542000Y-104387946D01*
X150106000Y-112079686D02*
X150106000Y-111386500D01*
X145733500Y-110173500D02*
X145542000Y-109982000D01*
X150243669Y-112217355D02*
X150106000Y-112079686D01*
D50*
X134137400Y-61620400D02*
X140741600Y-61620400D01*
X140741600Y-61620400D02*
X140748000Y-61614000D01*
D49*
X144206220Y-86624887D02*
X145380000Y-85451107D01*
X144206220Y-103052166D02*
X144206220Y-86624887D01*
X145380000Y-66246000D02*
X140748000Y-61614000D01*
%TO.N,GPIO7{slash}SCL1*%
X144980000Y-85144000D02*
X144980000Y-66411686D01*
X149606000Y-112014000D02*
X148952000Y-112668000D01*
X144980000Y-66411686D02*
X142722314Y-64154000D01*
X142722314Y-64154000D02*
X140748000Y-64154000D01*
X143806220Y-103420220D02*
X143806220Y-86317780D01*
D50*
X140741600Y-64160400D02*
X140748000Y-64154000D01*
D49*
X143806220Y-86317780D02*
X144980000Y-85144000D01*
X146450000Y-112668000D02*
X145034000Y-111252000D01*
X148952000Y-112668000D02*
X146450000Y-112668000D01*
D50*
X134112000Y-64160400D02*
X140741600Y-64160400D01*
D49*
X149606000Y-111386500D02*
X149606000Y-112014000D01*
X145034000Y-111252000D02*
X145034000Y-104648000D01*
X145034000Y-104648000D02*
X143806220Y-103420220D01*
%TO.N,GPIO5{slash}INTR*%
X154436000Y-109724000D02*
X150768500Y-109724000D01*
X155048000Y-109112000D02*
X154436000Y-109724000D01*
X151022000Y-56534000D02*
X155048000Y-60560000D01*
X155048000Y-60560000D02*
X155048000Y-109112000D01*
X140748000Y-56534000D02*
X151022000Y-56534000D01*
%TD*%
%TA.AperFunction,Conductor*%
%TO.N,GND*%
G36*
X170999609Y-135174002D02*
G01*
X171046102Y-135227658D01*
X171057483Y-135281172D01*
X171055191Y-135527499D01*
X171055091Y-135528318D01*
X171055058Y-135542072D01*
X171055096Y-135542162D01*
X171055177Y-135542245D01*
X171055389Y-135542332D01*
X171087745Y-135556199D01*
X171088981Y-135556317D01*
X171090546Y-135556955D01*
X171235602Y-135617292D01*
X171239860Y-135619254D01*
X171410070Y-135705507D01*
X171414152Y-135707771D01*
X171576121Y-135805614D01*
X171580002Y-135808158D01*
X171660317Y-135865172D01*
X171733286Y-135916972D01*
X171736960Y-135919787D01*
X171881141Y-136038976D01*
X171884554Y-136042015D01*
X172019164Y-136170944D01*
X172022332Y-136174207D01*
X172146956Y-136312286D01*
X172149875Y-136315766D01*
X172180455Y-136355032D01*
X172264011Y-136462324D01*
X172266683Y-136466024D01*
X172369924Y-136620473D01*
X172372324Y-136624362D01*
X172464217Y-136786090D01*
X172466333Y-136790151D01*
X172546432Y-136958533D01*
X172548238Y-136962719D01*
X172616095Y-137137125D01*
X172617612Y-137141491D01*
X172635632Y-137200224D01*
X172671823Y-137318182D01*
X172672784Y-137321312D01*
X172673981Y-137325798D01*
X172683345Y-137366915D01*
X172716028Y-137510439D01*
X172716897Y-137515035D01*
X172745368Y-137703853D01*
X172745896Y-137708529D01*
X172760349Y-137900924D01*
X172760526Y-137905645D01*
X172760526Y-151336143D01*
X172754548Y-151650847D01*
X172737992Y-151964514D01*
X172710931Y-152276910D01*
X172673436Y-152587768D01*
X172625577Y-152896848D01*
X172567423Y-153203906D01*
X172499056Y-153508635D01*
X172420542Y-153810814D01*
X172331952Y-154110182D01*
X172233366Y-154406464D01*
X172124844Y-154699438D01*
X172006465Y-154988834D01*
X171878306Y-155274374D01*
X171740415Y-155555860D01*
X171592893Y-155832975D01*
X171435803Y-156105481D01*
X171269415Y-156372552D01*
X171094487Y-156633339D01*
X170911184Y-156887686D01*
X170719745Y-157135347D01*
X170520306Y-157376206D01*
X170313089Y-157610038D01*
X170098290Y-157836656D01*
X169987173Y-157946288D01*
X169876056Y-158055920D01*
X169673060Y-158243206D01*
X169646608Y-158267611D01*
X169410114Y-158471563D01*
X169166811Y-158667557D01*
X168916821Y-158855463D01*
X168660380Y-159035058D01*
X168509116Y-159133580D01*
X168441118Y-159153998D01*
X168440349Y-159154000D01*
X131412846Y-159154000D01*
X131344725Y-159133998D01*
X131344237Y-159133682D01*
X131193674Y-159035936D01*
X131153550Y-159009887D01*
X130896525Y-158830491D01*
X130645912Y-158642782D01*
X130401955Y-158446977D01*
X130164780Y-158243206D01*
X129934648Y-158031705D01*
X129711689Y-157812600D01*
X129496145Y-157586116D01*
X129288206Y-157352434D01*
X129088030Y-157111695D01*
X128895843Y-156864116D01*
X128711842Y-156609885D01*
X128536191Y-156349143D01*
X128369121Y-156082121D01*
X128210919Y-155809545D01*
X128062341Y-155532395D01*
X127923417Y-155250853D01*
X127794240Y-154965224D01*
X127674857Y-154675706D01*
X127666748Y-154654000D01*
X136594628Y-154654000D01*
X136625843Y-154750067D01*
X136625843Y-154750068D01*
X136637716Y-154780055D01*
X136637715Y-154780054D01*
X136785394Y-155093887D01*
X136800929Y-155122145D01*
X136986767Y-155414978D01*
X136986768Y-155414979D01*
X137005733Y-155441085D01*
X137005732Y-155441084D01*
X137226806Y-155708316D01*
X137248891Y-155731834D01*
X137501724Y-155969261D01*
X137526573Y-155989818D01*
X137526574Y-155989818D01*
X137807166Y-156193679D01*
X137807167Y-156193680D01*
X137834409Y-156210968D01*
X138138320Y-156378045D01*
X138138320Y-156378046D01*
X138167513Y-156391782D01*
X138438000Y-156498875D01*
X138438000Y-154887620D01*
X138502005Y-154942286D01*
X138715061Y-155072847D01*
X138945919Y-155168471D01*
X139188892Y-155226804D01*
X139375625Y-155241500D01*
X139500375Y-155241500D01*
X139687108Y-155226804D01*
X139930081Y-155168471D01*
X140160939Y-155072847D01*
X140373995Y-154942286D01*
X140438000Y-154887620D01*
X140438000Y-156498875D01*
X140708487Y-156391782D01*
X140737680Y-156378046D01*
X140737680Y-156378045D01*
X141041591Y-156210968D01*
X141068833Y-156193680D01*
X141068834Y-156193679D01*
X141349426Y-155989818D01*
X141349427Y-155989818D01*
X141374276Y-155969261D01*
X141606301Y-155751374D01*
X141669651Y-155719323D01*
X141692554Y-155717224D01*
X142190701Y-155717224D01*
X141664727Y-155191250D01*
X141630702Y-155128937D01*
X141635766Y-155058122D01*
X141664727Y-155013059D01*
X142858591Y-153819194D01*
X142865196Y-153903108D01*
X142923529Y-154146081D01*
X143019153Y-154376939D01*
X143149714Y-154589995D01*
X143311997Y-154780003D01*
X143502005Y-154942286D01*
X143715061Y-155072847D01*
X143945919Y-155168471D01*
X144188892Y-155226804D01*
X144272803Y-155233407D01*
X143138705Y-156367505D01*
X143244576Y-156420676D01*
X143573825Y-156540513D01*
X143573830Y-156540514D01*
X143914779Y-156621321D01*
X143914785Y-156621322D01*
X144262801Y-156662000D01*
X144613199Y-156662000D01*
X144961214Y-156621322D01*
X144961220Y-156621321D01*
X145302169Y-156540514D01*
X145302174Y-156540513D01*
X145631426Y-156420675D01*
X145737293Y-156367505D01*
X144603195Y-155233407D01*
X144687108Y-155226804D01*
X144930081Y-155168471D01*
X145160939Y-155072847D01*
X145373995Y-154942286D01*
X145564003Y-154780003D01*
X145726286Y-154589995D01*
X145856847Y-154376939D01*
X145952471Y-154146081D01*
X146010804Y-153903108D01*
X146017407Y-153819195D01*
X147152867Y-154954655D01*
X147152869Y-154954655D01*
X147269384Y-154684542D01*
X147369879Y-154348868D01*
X147404240Y-154154000D01*
X152094628Y-154154000D01*
X152125843Y-154250067D01*
X152125843Y-154250068D01*
X152137716Y-154280055D01*
X152137715Y-154280054D01*
X152285394Y-154593887D01*
X152300929Y-154622145D01*
X152486767Y-154914978D01*
X152486768Y-154914979D01*
X152505733Y-154941085D01*
X152505732Y-154941084D01*
X152726806Y-155208316D01*
X152748891Y-155231834D01*
X153001724Y-155469261D01*
X153026573Y-155489818D01*
X153026574Y-155489818D01*
X153307166Y-155693679D01*
X153307167Y-155693680D01*
X153334409Y-155710968D01*
X153638320Y-155878045D01*
X153638320Y-155878046D01*
X153667513Y-155891782D01*
X153938000Y-155998875D01*
X153938000Y-154387620D01*
X154002005Y-154442286D01*
X154215061Y-154572847D01*
X154445919Y-154668471D01*
X154688892Y-154726804D01*
X154875625Y-154741500D01*
X155000375Y-154741500D01*
X155187108Y-154726804D01*
X155430081Y-154668471D01*
X155660939Y-154572847D01*
X155873995Y-154442286D01*
X155938000Y-154387620D01*
X155938000Y-155998875D01*
X156208487Y-155891782D01*
X156237680Y-155878046D01*
X156237680Y-155878045D01*
X156541591Y-155710968D01*
X156568833Y-155693680D01*
X156568834Y-155693679D01*
X156849426Y-155489818D01*
X156849427Y-155489818D01*
X156874276Y-155469261D01*
X157106301Y-155251374D01*
X157169651Y-155219323D01*
X157192554Y-155217224D01*
X157690701Y-155217224D01*
X157164727Y-154691250D01*
X157130702Y-154628937D01*
X157135766Y-154558122D01*
X157164727Y-154513059D01*
X158358591Y-153319194D01*
X158365196Y-153403108D01*
X158423529Y-153646081D01*
X158519153Y-153876939D01*
X158649714Y-154089995D01*
X158811997Y-154280003D01*
X159002005Y-154442286D01*
X159215061Y-154572847D01*
X159445919Y-154668471D01*
X159688892Y-154726804D01*
X159772803Y-154733407D01*
X158638705Y-155867505D01*
X158744576Y-155920676D01*
X159073825Y-156040513D01*
X159073830Y-156040514D01*
X159414779Y-156121321D01*
X159414785Y-156121322D01*
X159762801Y-156162000D01*
X160113199Y-156162000D01*
X160461214Y-156121322D01*
X160461220Y-156121321D01*
X160802169Y-156040514D01*
X160802174Y-156040513D01*
X161131426Y-155920675D01*
X161237293Y-155867505D01*
X160103195Y-154733407D01*
X160187108Y-154726804D01*
X160430081Y-154668471D01*
X160660939Y-154572847D01*
X160873995Y-154442286D01*
X161064003Y-154280003D01*
X161226286Y-154089995D01*
X161356847Y-153876939D01*
X161452471Y-153646081D01*
X161510804Y-153403108D01*
X161517407Y-153319195D01*
X162652867Y-154454655D01*
X162652869Y-154454655D01*
X162769384Y-154184542D01*
X162869879Y-153848868D01*
X162930725Y-153503794D01*
X162930725Y-153503788D01*
X162951097Y-153154000D01*
X162930725Y-152804211D01*
X162930725Y-152804205D01*
X162869879Y-152459131D01*
X162769384Y-152123457D01*
X162769385Y-152123457D01*
X162652869Y-151853343D01*
X162652867Y-151853343D01*
X161517407Y-152988803D01*
X161510804Y-152904892D01*
X161452471Y-152661919D01*
X161356847Y-152431061D01*
X161226286Y-152218005D01*
X161064003Y-152027997D01*
X160873995Y-151865714D01*
X160660939Y-151735153D01*
X160430081Y-151639529D01*
X160187108Y-151581196D01*
X160103194Y-151574591D01*
X161237293Y-150440493D01*
X161237293Y-150440492D01*
X161131429Y-150387326D01*
X161131417Y-150387321D01*
X160802174Y-150267486D01*
X160802169Y-150267485D01*
X160461220Y-150186678D01*
X160461214Y-150186677D01*
X160113199Y-150146000D01*
X159762801Y-150146000D01*
X159414785Y-150186677D01*
X159414779Y-150186678D01*
X159073830Y-150267485D01*
X159073825Y-150267486D01*
X158744582Y-150387321D01*
X158744570Y-150387326D01*
X158638706Y-150440493D01*
X158638706Y-150440494D01*
X159772804Y-151574592D01*
X159688892Y-151581196D01*
X159445919Y-151639529D01*
X159215061Y-151735153D01*
X159002005Y-151865714D01*
X158811997Y-152027997D01*
X158649714Y-152218005D01*
X158519153Y-152431061D01*
X158423529Y-152661919D01*
X158365196Y-152904892D01*
X158358591Y-152988804D01*
X157164727Y-151794940D01*
X157130701Y-151732628D01*
X157135766Y-151661813D01*
X157164727Y-151616749D01*
X157690702Y-151090776D01*
X157192554Y-151090776D01*
X157124433Y-151070774D01*
X157106301Y-151056626D01*
X156874276Y-150838739D01*
X156849427Y-150818182D01*
X156849426Y-150818182D01*
X156568834Y-150614321D01*
X156568833Y-150614320D01*
X156541591Y-150597032D01*
X156237680Y-150429955D01*
X156237680Y-150429954D01*
X156208481Y-150416215D01*
X156208482Y-150416216D01*
X155938000Y-150309123D01*
X155938000Y-151920379D01*
X155873995Y-151865714D01*
X155660939Y-151735153D01*
X155430081Y-151639529D01*
X155187108Y-151581196D01*
X155000375Y-151566500D01*
X154875625Y-151566500D01*
X154688892Y-151581196D01*
X154445919Y-151639529D01*
X154215061Y-151735153D01*
X154002005Y-151865714D01*
X153938000Y-151920379D01*
X153938000Y-150309123D01*
X153667518Y-150416216D01*
X153667519Y-150416215D01*
X153638320Y-150429954D01*
X153638320Y-150429955D01*
X153334409Y-150597032D01*
X153307167Y-150614320D01*
X153307166Y-150614321D01*
X153026574Y-150818182D01*
X153026573Y-150818182D01*
X153001724Y-150838739D01*
X152748891Y-151076166D01*
X152726806Y-151099684D01*
X152505732Y-151366916D01*
X152505733Y-151366915D01*
X152486768Y-151393021D01*
X152486767Y-151393022D01*
X152300929Y-151685855D01*
X152285394Y-151714113D01*
X152137715Y-152027946D01*
X152137716Y-152027945D01*
X152125843Y-152057932D01*
X152125843Y-152057933D01*
X152094628Y-152154000D01*
X153704380Y-152154000D01*
X153649714Y-152218005D01*
X153519153Y-152431061D01*
X153423529Y-152661919D01*
X153365196Y-152904892D01*
X153345591Y-153154000D01*
X153365196Y-153403108D01*
X153423529Y-153646081D01*
X153519153Y-153876939D01*
X153649714Y-154089995D01*
X153704380Y-154154000D01*
X152094628Y-154154000D01*
X147404240Y-154154000D01*
X147430725Y-154003794D01*
X147430725Y-154003788D01*
X147451097Y-153654000D01*
X147430725Y-153304211D01*
X147430725Y-153304205D01*
X147369879Y-152959131D01*
X147269384Y-152623457D01*
X147269385Y-152623457D01*
X147152869Y-152353343D01*
X147152867Y-152353343D01*
X146017407Y-153488803D01*
X146010804Y-153404892D01*
X145952471Y-153161919D01*
X145856847Y-152931061D01*
X145726286Y-152718005D01*
X145564003Y-152527997D01*
X145373995Y-152365714D01*
X145160939Y-152235153D01*
X144930081Y-152139529D01*
X144687108Y-152081196D01*
X144603194Y-152074591D01*
X145737293Y-150940493D01*
X145737293Y-150940492D01*
X145631429Y-150887326D01*
X145631417Y-150887321D01*
X145302174Y-150767486D01*
X145302169Y-150767485D01*
X144961220Y-150686678D01*
X144961214Y-150686677D01*
X144613199Y-150646000D01*
X144262801Y-150646000D01*
X143914785Y-150686677D01*
X143914779Y-150686678D01*
X143573830Y-150767485D01*
X143573825Y-150767486D01*
X143244582Y-150887321D01*
X143244570Y-150887326D01*
X143138706Y-150940493D01*
X143138706Y-150940494D01*
X144272804Y-152074592D01*
X144188892Y-152081196D01*
X143945919Y-152139529D01*
X143715061Y-152235153D01*
X143502005Y-152365714D01*
X143311997Y-152527997D01*
X143149714Y-152718005D01*
X143019153Y-152931061D01*
X142923529Y-153161919D01*
X142865196Y-153404892D01*
X142858591Y-153488804D01*
X141664727Y-152294940D01*
X141630701Y-152232628D01*
X141635766Y-152161813D01*
X141664727Y-152116749D01*
X142190702Y-151590776D01*
X141692554Y-151590776D01*
X141624433Y-151570774D01*
X141606301Y-151556626D01*
X141374276Y-151338739D01*
X141349427Y-151318182D01*
X141349426Y-151318182D01*
X141068834Y-151114321D01*
X141068833Y-151114320D01*
X141041591Y-151097032D01*
X140737680Y-150929955D01*
X140737680Y-150929954D01*
X140708481Y-150916215D01*
X140708482Y-150916216D01*
X140438000Y-150809123D01*
X140438000Y-152420379D01*
X140373995Y-152365714D01*
X140160939Y-152235153D01*
X139930081Y-152139529D01*
X139687108Y-152081196D01*
X139500375Y-152066500D01*
X139375625Y-152066500D01*
X139188892Y-152081196D01*
X138945919Y-152139529D01*
X138715061Y-152235153D01*
X138502005Y-152365714D01*
X138438000Y-152420379D01*
X138438000Y-150809123D01*
X138167518Y-150916216D01*
X138167519Y-150916215D01*
X138138320Y-150929954D01*
X138138320Y-150929955D01*
X137834409Y-151097032D01*
X137807167Y-151114320D01*
X137807166Y-151114321D01*
X137526574Y-151318182D01*
X137526573Y-151318182D01*
X137501724Y-151338739D01*
X137248891Y-151576166D01*
X137226806Y-151599684D01*
X137005732Y-151866916D01*
X137005733Y-151866915D01*
X136986768Y-151893021D01*
X136986767Y-151893022D01*
X136800929Y-152185855D01*
X136785394Y-152214113D01*
X136637715Y-152527946D01*
X136637716Y-152527945D01*
X136625843Y-152557932D01*
X136625843Y-152557933D01*
X136594628Y-152654000D01*
X138204380Y-152654000D01*
X138149714Y-152718005D01*
X138019153Y-152931061D01*
X137923529Y-153161919D01*
X137865196Y-153404892D01*
X137845591Y-153654000D01*
X137865196Y-153903108D01*
X137923529Y-154146081D01*
X138019153Y-154376939D01*
X138149714Y-154589995D01*
X138204380Y-154654000D01*
X136594628Y-154654000D01*
X127666748Y-154654000D01*
X127565368Y-154382637D01*
X127465817Y-154086201D01*
X127376289Y-153786690D01*
X127296850Y-153484364D01*
X127227562Y-153179427D01*
X127168509Y-152872200D01*
X127119758Y-152562923D01*
X127081378Y-152251850D01*
X127053439Y-151939232D01*
X127036010Y-151625300D01*
X127029166Y-151310357D01*
X127029166Y-147654000D01*
X136594628Y-147654000D01*
X136625843Y-147750067D01*
X136625843Y-147750068D01*
X136637716Y-147780055D01*
X136637715Y-147780054D01*
X136785394Y-148093887D01*
X136800929Y-148122145D01*
X136986767Y-148414978D01*
X136986768Y-148414979D01*
X137005733Y-148441085D01*
X137005732Y-148441084D01*
X137226806Y-148708316D01*
X137248891Y-148731834D01*
X137501724Y-148969261D01*
X137526573Y-148989818D01*
X137526574Y-148989818D01*
X137807166Y-149193679D01*
X137807167Y-149193680D01*
X137834409Y-149210968D01*
X138138320Y-149378045D01*
X138138320Y-149378046D01*
X138167513Y-149391782D01*
X138438000Y-149498875D01*
X138438000Y-147887620D01*
X138502005Y-147942286D01*
X138715061Y-148072847D01*
X138945919Y-148168471D01*
X139188892Y-148226804D01*
X139375625Y-148241500D01*
X139500375Y-148241500D01*
X139687108Y-148226804D01*
X139930081Y-148168471D01*
X140160939Y-148072847D01*
X140373995Y-147942286D01*
X140438000Y-147887620D01*
X140438000Y-149498875D01*
X140708487Y-149391782D01*
X140737680Y-149378046D01*
X140737680Y-149378045D01*
X141041591Y-149210968D01*
X141068833Y-149193680D01*
X141068834Y-149193679D01*
X141349426Y-148989818D01*
X141349427Y-148989818D01*
X141374276Y-148969261D01*
X141606301Y-148751374D01*
X141669651Y-148719323D01*
X141692554Y-148717224D01*
X142190701Y-148717224D01*
X141664727Y-148191250D01*
X141630702Y-148128937D01*
X141635766Y-148058122D01*
X141664727Y-148013059D01*
X142858591Y-146819194D01*
X142865196Y-146903108D01*
X142923529Y-147146081D01*
X143019153Y-147376939D01*
X143149714Y-147589995D01*
X143311997Y-147780003D01*
X143502005Y-147942286D01*
X143715061Y-148072847D01*
X143945919Y-148168471D01*
X144188892Y-148226804D01*
X144272803Y-148233407D01*
X143138705Y-149367505D01*
X143244576Y-149420676D01*
X143573825Y-149540513D01*
X143573830Y-149540514D01*
X143914779Y-149621321D01*
X143914785Y-149621322D01*
X144262801Y-149662000D01*
X144613199Y-149662000D01*
X144961214Y-149621322D01*
X144961220Y-149621321D01*
X145302169Y-149540514D01*
X145302174Y-149540513D01*
X145631426Y-149420675D01*
X145737293Y-149367505D01*
X144603195Y-148233407D01*
X144687108Y-148226804D01*
X144930081Y-148168471D01*
X145160939Y-148072847D01*
X145373995Y-147942286D01*
X145564003Y-147780003D01*
X145726286Y-147589995D01*
X145856847Y-147376939D01*
X145952471Y-147146081D01*
X146010804Y-146903108D01*
X146017407Y-146819195D01*
X147152867Y-147954655D01*
X147152869Y-147954655D01*
X147269384Y-147684542D01*
X147369879Y-147348868D01*
X147404240Y-147154000D01*
X152094628Y-147154000D01*
X152125843Y-147250067D01*
X152125843Y-147250068D01*
X152137716Y-147280055D01*
X152137715Y-147280054D01*
X152285394Y-147593887D01*
X152300929Y-147622145D01*
X152486767Y-147914978D01*
X152486768Y-147914979D01*
X152505733Y-147941085D01*
X152505732Y-147941084D01*
X152726806Y-148208316D01*
X152748891Y-148231834D01*
X153001724Y-148469261D01*
X153026573Y-148489818D01*
X153026574Y-148489818D01*
X153307166Y-148693679D01*
X153307167Y-148693680D01*
X153334409Y-148710968D01*
X153638320Y-148878045D01*
X153638320Y-148878046D01*
X153667513Y-148891782D01*
X153938000Y-148998875D01*
X153938000Y-147387620D01*
X154002005Y-147442286D01*
X154215061Y-147572847D01*
X154445919Y-147668471D01*
X154688892Y-147726804D01*
X154875625Y-147741500D01*
X155000375Y-147741500D01*
X155187108Y-147726804D01*
X155430081Y-147668471D01*
X155660939Y-147572847D01*
X155873995Y-147442286D01*
X155938000Y-147387620D01*
X155938000Y-148998875D01*
X156208487Y-148891782D01*
X156237680Y-148878046D01*
X156237680Y-148878045D01*
X156541591Y-148710968D01*
X156568833Y-148693680D01*
X156568834Y-148693679D01*
X156849426Y-148489818D01*
X156849427Y-148489818D01*
X156874276Y-148469261D01*
X157106301Y-148251374D01*
X157169651Y-148219323D01*
X157192554Y-148217224D01*
X157690701Y-148217224D01*
X157164727Y-147691250D01*
X157130702Y-147628937D01*
X157135766Y-147558122D01*
X157164727Y-147513059D01*
X158358591Y-146319194D01*
X158365196Y-146403108D01*
X158423529Y-146646081D01*
X158519153Y-146876939D01*
X158649714Y-147089995D01*
X158811997Y-147280003D01*
X159002005Y-147442286D01*
X159215061Y-147572847D01*
X159445919Y-147668471D01*
X159688892Y-147726804D01*
X159772803Y-147733407D01*
X158638705Y-148867505D01*
X158744576Y-148920676D01*
X159073825Y-149040513D01*
X159073830Y-149040514D01*
X159414779Y-149121321D01*
X159414785Y-149121322D01*
X159762801Y-149162000D01*
X160113199Y-149162000D01*
X160461214Y-149121322D01*
X160461220Y-149121321D01*
X160802169Y-149040514D01*
X160802174Y-149040513D01*
X161131426Y-148920675D01*
X161237293Y-148867505D01*
X160103195Y-147733407D01*
X160187108Y-147726804D01*
X160430081Y-147668471D01*
X160660939Y-147572847D01*
X160873995Y-147442286D01*
X161064003Y-147280003D01*
X161226286Y-147089995D01*
X161356847Y-146876939D01*
X161452471Y-146646081D01*
X161510804Y-146403108D01*
X161517407Y-146319195D01*
X162652867Y-147454655D01*
X162652869Y-147454655D01*
X162769384Y-147184542D01*
X162869879Y-146848868D01*
X162930725Y-146503794D01*
X162930725Y-146503788D01*
X162951097Y-146154000D01*
X162930725Y-145804211D01*
X162930725Y-145804205D01*
X162869879Y-145459131D01*
X162769384Y-145123457D01*
X162769385Y-145123457D01*
X162652869Y-144853343D01*
X162652867Y-144853343D01*
X161517407Y-145988803D01*
X161510804Y-145904892D01*
X161452471Y-145661919D01*
X161356847Y-145431061D01*
X161226286Y-145218005D01*
X161064003Y-145027997D01*
X160873995Y-144865714D01*
X160660939Y-144735153D01*
X160430081Y-144639529D01*
X160187108Y-144581196D01*
X160103194Y-144574591D01*
X161237293Y-143440493D01*
X161237293Y-143440492D01*
X161131429Y-143387326D01*
X161131417Y-143387321D01*
X160802174Y-143267486D01*
X160802169Y-143267485D01*
X160461220Y-143186678D01*
X160461214Y-143186677D01*
X160113199Y-143146000D01*
X159762801Y-143146000D01*
X159414785Y-143186677D01*
X159414779Y-143186678D01*
X159073830Y-143267485D01*
X159073825Y-143267486D01*
X158744582Y-143387321D01*
X158744570Y-143387326D01*
X158638706Y-143440493D01*
X158638706Y-143440494D01*
X159772804Y-144574592D01*
X159688892Y-144581196D01*
X159445919Y-144639529D01*
X159215061Y-144735153D01*
X159002005Y-144865714D01*
X158811997Y-145027997D01*
X158649714Y-145218005D01*
X158519153Y-145431061D01*
X158423529Y-145661919D01*
X158365196Y-145904892D01*
X158358591Y-145988804D01*
X157164727Y-144794940D01*
X157130701Y-144732628D01*
X157135766Y-144661813D01*
X157164727Y-144616749D01*
X157690702Y-144090776D01*
X157192554Y-144090776D01*
X157124433Y-144070774D01*
X157106301Y-144056626D01*
X156874276Y-143838739D01*
X156849427Y-143818182D01*
X156849426Y-143818182D01*
X156568834Y-143614321D01*
X156568833Y-143614320D01*
X156541591Y-143597032D01*
X156237680Y-143429955D01*
X156237680Y-143429954D01*
X156208481Y-143416215D01*
X156208482Y-143416216D01*
X155938000Y-143309123D01*
X155938000Y-144920379D01*
X155873995Y-144865714D01*
X155660939Y-144735153D01*
X155430081Y-144639529D01*
X155187108Y-144581196D01*
X155000375Y-144566500D01*
X154875625Y-144566500D01*
X154688892Y-144581196D01*
X154445919Y-144639529D01*
X154215061Y-144735153D01*
X154002005Y-144865714D01*
X153938000Y-144920379D01*
X153938000Y-143309123D01*
X153667518Y-143416216D01*
X153667519Y-143416215D01*
X153638320Y-143429954D01*
X153638320Y-143429955D01*
X153334409Y-143597032D01*
X153307167Y-143614320D01*
X153307166Y-143614321D01*
X153026574Y-143818182D01*
X153026573Y-143818182D01*
X153001724Y-143838739D01*
X152748891Y-144076166D01*
X152726806Y-144099684D01*
X152505732Y-144366916D01*
X152505733Y-144366915D01*
X152486768Y-144393021D01*
X152486767Y-144393022D01*
X152300929Y-144685855D01*
X152285394Y-144714113D01*
X152137715Y-145027946D01*
X152137716Y-145027945D01*
X152125843Y-145057932D01*
X152125843Y-145057933D01*
X152094628Y-145154000D01*
X153704380Y-145154000D01*
X153649714Y-145218005D01*
X153519153Y-145431061D01*
X153423529Y-145661919D01*
X153365196Y-145904892D01*
X153345591Y-146154000D01*
X153365196Y-146403108D01*
X153423529Y-146646081D01*
X153519153Y-146876939D01*
X153649714Y-147089995D01*
X153704380Y-147154000D01*
X152094628Y-147154000D01*
X147404240Y-147154000D01*
X147430725Y-147003794D01*
X147430725Y-147003788D01*
X147451097Y-146654000D01*
X147430725Y-146304211D01*
X147430725Y-146304205D01*
X147369879Y-145959131D01*
X147269384Y-145623457D01*
X147269385Y-145623457D01*
X147152869Y-145353343D01*
X147152867Y-145353343D01*
X146017407Y-146488803D01*
X146010804Y-146404892D01*
X145952471Y-146161919D01*
X145856847Y-145931061D01*
X145726286Y-145718005D01*
X145564003Y-145527997D01*
X145373995Y-145365714D01*
X145160939Y-145235153D01*
X144930081Y-145139529D01*
X144687108Y-145081196D01*
X144603194Y-145074591D01*
X145737293Y-143940493D01*
X145737293Y-143940492D01*
X145631429Y-143887326D01*
X145631417Y-143887321D01*
X145302174Y-143767486D01*
X145302169Y-143767485D01*
X144961220Y-143686678D01*
X144961214Y-143686677D01*
X144613199Y-143646000D01*
X144262801Y-143646000D01*
X143914785Y-143686677D01*
X143914779Y-143686678D01*
X143573830Y-143767485D01*
X143573825Y-143767486D01*
X143244582Y-143887321D01*
X143244570Y-143887326D01*
X143138706Y-143940493D01*
X143138706Y-143940494D01*
X144272804Y-145074592D01*
X144188892Y-145081196D01*
X143945919Y-145139529D01*
X143715061Y-145235153D01*
X143502005Y-145365714D01*
X143311997Y-145527997D01*
X143149714Y-145718005D01*
X143019153Y-145931061D01*
X142923529Y-146161919D01*
X142865196Y-146404892D01*
X142858591Y-146488804D01*
X141664727Y-145294940D01*
X141630701Y-145232628D01*
X141635766Y-145161813D01*
X141664727Y-145116749D01*
X142190702Y-144590776D01*
X141692554Y-144590776D01*
X141624433Y-144570774D01*
X141606301Y-144556626D01*
X141374276Y-144338739D01*
X141349427Y-144318182D01*
X141349426Y-144318182D01*
X141068834Y-144114321D01*
X141068833Y-144114320D01*
X141041591Y-144097032D01*
X140737680Y-143929955D01*
X140737680Y-143929954D01*
X140708481Y-143916215D01*
X140708482Y-143916216D01*
X140438000Y-143809123D01*
X140438000Y-145420379D01*
X140373995Y-145365714D01*
X140160939Y-145235153D01*
X139930081Y-145139529D01*
X139687108Y-145081196D01*
X139500375Y-145066500D01*
X139375625Y-145066500D01*
X139188892Y-145081196D01*
X138945919Y-145139529D01*
X138715061Y-145235153D01*
X138502005Y-145365714D01*
X138438000Y-145420379D01*
X138438000Y-143809123D01*
X138167518Y-143916216D01*
X138167519Y-143916215D01*
X138138320Y-143929954D01*
X138138320Y-143929955D01*
X137834409Y-144097032D01*
X137807167Y-144114320D01*
X137807166Y-144114321D01*
X137526574Y-144318182D01*
X137526573Y-144318182D01*
X137501724Y-144338739D01*
X137248891Y-144576166D01*
X137226806Y-144599684D01*
X137005732Y-144866916D01*
X137005733Y-144866915D01*
X136986768Y-144893021D01*
X136986767Y-144893022D01*
X136800929Y-145185855D01*
X136785394Y-145214113D01*
X136637715Y-145527946D01*
X136637716Y-145527945D01*
X136625843Y-145557932D01*
X136625843Y-145557933D01*
X136594628Y-145654000D01*
X138204380Y-145654000D01*
X138149714Y-145718005D01*
X138019153Y-145931061D01*
X137923529Y-146161919D01*
X137865196Y-146404892D01*
X137845591Y-146654000D01*
X137865196Y-146903108D01*
X137923529Y-147146081D01*
X138019153Y-147376939D01*
X138149714Y-147589995D01*
X138204380Y-147654000D01*
X136594628Y-147654000D01*
X127029166Y-147654000D01*
X127029166Y-140654000D01*
X136594628Y-140654000D01*
X136625843Y-140750067D01*
X136625843Y-140750068D01*
X136637716Y-140780055D01*
X136637715Y-140780054D01*
X136785394Y-141093887D01*
X136800929Y-141122145D01*
X136986767Y-141414978D01*
X136986768Y-141414979D01*
X137005733Y-141441085D01*
X137005732Y-141441084D01*
X137226806Y-141708316D01*
X137248891Y-141731834D01*
X137501724Y-141969261D01*
X137526573Y-141989818D01*
X137526574Y-141989818D01*
X137807166Y-142193679D01*
X137807167Y-142193680D01*
X137834409Y-142210968D01*
X138138320Y-142378045D01*
X138138320Y-142378046D01*
X138167513Y-142391782D01*
X138438000Y-142498875D01*
X138438000Y-140887620D01*
X138502005Y-140942286D01*
X138715061Y-141072847D01*
X138945919Y-141168471D01*
X139188892Y-141226804D01*
X139375625Y-141241500D01*
X139500375Y-141241500D01*
X139687108Y-141226804D01*
X139930081Y-141168471D01*
X140160939Y-141072847D01*
X140373995Y-140942286D01*
X140438000Y-140887620D01*
X140438000Y-142498875D01*
X140708487Y-142391782D01*
X140737680Y-142378046D01*
X140737680Y-142378045D01*
X141041591Y-142210968D01*
X141068833Y-142193680D01*
X141068834Y-142193679D01*
X141349426Y-141989818D01*
X141349427Y-141989818D01*
X141374276Y-141969261D01*
X141606301Y-141751374D01*
X141669651Y-141719323D01*
X141692554Y-141717224D01*
X142190701Y-141717224D01*
X141664727Y-141191250D01*
X141630702Y-141128937D01*
X141635766Y-141058122D01*
X141664727Y-141013059D01*
X142858591Y-139819194D01*
X142865196Y-139903108D01*
X142923529Y-140146081D01*
X143019153Y-140376939D01*
X143149714Y-140589995D01*
X143311997Y-140780003D01*
X143502005Y-140942286D01*
X143715061Y-141072847D01*
X143945919Y-141168471D01*
X144188892Y-141226804D01*
X144272803Y-141233407D01*
X143138705Y-142367505D01*
X143244576Y-142420676D01*
X143573825Y-142540513D01*
X143573830Y-142540514D01*
X143914779Y-142621321D01*
X143914785Y-142621322D01*
X144262801Y-142662000D01*
X144613199Y-142662000D01*
X144961214Y-142621322D01*
X144961220Y-142621321D01*
X145302169Y-142540514D01*
X145302174Y-142540513D01*
X145631426Y-142420675D01*
X145737293Y-142367505D01*
X144603195Y-141233407D01*
X144687108Y-141226804D01*
X144930081Y-141168471D01*
X145160939Y-141072847D01*
X145373995Y-140942286D01*
X145564003Y-140780003D01*
X145726286Y-140589995D01*
X145856847Y-140376939D01*
X145952471Y-140146081D01*
X146010804Y-139903108D01*
X146017407Y-139819195D01*
X147152867Y-140954655D01*
X147152869Y-140954655D01*
X147269384Y-140684542D01*
X147369879Y-140348868D01*
X147404240Y-140154000D01*
X152094628Y-140154000D01*
X152125843Y-140250067D01*
X152125843Y-140250068D01*
X152137716Y-140280055D01*
X152137715Y-140280054D01*
X152285394Y-140593887D01*
X152300929Y-140622145D01*
X152486767Y-140914978D01*
X152486768Y-140914979D01*
X152505733Y-140941085D01*
X152505732Y-140941084D01*
X152726806Y-141208316D01*
X152748891Y-141231834D01*
X153001724Y-141469261D01*
X153026573Y-141489818D01*
X153026574Y-141489818D01*
X153307166Y-141693679D01*
X153307167Y-141693680D01*
X153334409Y-141710968D01*
X153638320Y-141878045D01*
X153638320Y-141878046D01*
X153667513Y-141891782D01*
X153938000Y-141998875D01*
X153938000Y-140387620D01*
X154002005Y-140442286D01*
X154215061Y-140572847D01*
X154445919Y-140668471D01*
X154688892Y-140726804D01*
X154875625Y-140741500D01*
X155000375Y-140741500D01*
X155187108Y-140726804D01*
X155430081Y-140668471D01*
X155660939Y-140572847D01*
X155873995Y-140442286D01*
X155938000Y-140387620D01*
X155938000Y-141998875D01*
X156208487Y-141891782D01*
X156237680Y-141878046D01*
X156237680Y-141878045D01*
X156541591Y-141710968D01*
X156568833Y-141693680D01*
X156568834Y-141693679D01*
X156849426Y-141489818D01*
X156849427Y-141489818D01*
X156874276Y-141469261D01*
X157106301Y-141251374D01*
X157169651Y-141219323D01*
X157192554Y-141217224D01*
X157690701Y-141217224D01*
X157164727Y-140691250D01*
X157130702Y-140628937D01*
X157135766Y-140558122D01*
X157164727Y-140513059D01*
X158358591Y-139319194D01*
X158365196Y-139403108D01*
X158423529Y-139646081D01*
X158519153Y-139876939D01*
X158649714Y-140089995D01*
X158811997Y-140280003D01*
X159002005Y-140442286D01*
X159215061Y-140572847D01*
X159445919Y-140668471D01*
X159688892Y-140726804D01*
X159772803Y-140733407D01*
X158638705Y-141867505D01*
X158744576Y-141920676D01*
X159073825Y-142040513D01*
X159073830Y-142040514D01*
X159414779Y-142121321D01*
X159414785Y-142121322D01*
X159762801Y-142162000D01*
X160113199Y-142162000D01*
X160461214Y-142121322D01*
X160461220Y-142121321D01*
X160802169Y-142040514D01*
X160802174Y-142040513D01*
X161131426Y-141920675D01*
X161237293Y-141867505D01*
X160103195Y-140733407D01*
X160187108Y-140726804D01*
X160430081Y-140668471D01*
X160660939Y-140572847D01*
X160873995Y-140442286D01*
X161064003Y-140280003D01*
X161226286Y-140089995D01*
X161356847Y-139876939D01*
X161452471Y-139646081D01*
X161510804Y-139403108D01*
X161517407Y-139319195D01*
X162652867Y-140454655D01*
X162652869Y-140454655D01*
X162769384Y-140184542D01*
X162869879Y-139848868D01*
X162930725Y-139503794D01*
X162930725Y-139503788D01*
X162951097Y-139154000D01*
X162930725Y-138804211D01*
X162930725Y-138804205D01*
X162869879Y-138459131D01*
X162769384Y-138123457D01*
X162769385Y-138123457D01*
X162652869Y-137853343D01*
X162652867Y-137853343D01*
X161517407Y-138988803D01*
X161510804Y-138904892D01*
X161452471Y-138661919D01*
X161356847Y-138431061D01*
X161226286Y-138218005D01*
X161064003Y-138027997D01*
X160873995Y-137865714D01*
X160660939Y-137735153D01*
X160430081Y-137639529D01*
X160187108Y-137581196D01*
X160103194Y-137574591D01*
X161237293Y-136440493D01*
X161237293Y-136440492D01*
X161131429Y-136387326D01*
X161131417Y-136387321D01*
X160802174Y-136267486D01*
X160802169Y-136267485D01*
X160461220Y-136186678D01*
X160461214Y-136186677D01*
X160113199Y-136146000D01*
X159762801Y-136146000D01*
X159414785Y-136186677D01*
X159414779Y-136186678D01*
X159073830Y-136267485D01*
X159073825Y-136267486D01*
X158744582Y-136387321D01*
X158744570Y-136387326D01*
X158638706Y-136440493D01*
X158638706Y-136440494D01*
X159772804Y-137574592D01*
X159688892Y-137581196D01*
X159445919Y-137639529D01*
X159215061Y-137735153D01*
X159002005Y-137865714D01*
X158811997Y-138027997D01*
X158649714Y-138218005D01*
X158519153Y-138431061D01*
X158423529Y-138661919D01*
X158365196Y-138904892D01*
X158358591Y-138988804D01*
X157164727Y-137794940D01*
X157130701Y-137732628D01*
X157135766Y-137661813D01*
X157164727Y-137616749D01*
X157690702Y-137090776D01*
X157192554Y-137090776D01*
X157124433Y-137070774D01*
X157106301Y-137056626D01*
X156874276Y-136838739D01*
X156849427Y-136818182D01*
X156849426Y-136818182D01*
X156568834Y-136614321D01*
X156568833Y-136614320D01*
X156541591Y-136597032D01*
X156237680Y-136429955D01*
X156237680Y-136429954D01*
X156208481Y-136416215D01*
X156208482Y-136416216D01*
X155938000Y-136309123D01*
X155938000Y-137920379D01*
X155873995Y-137865714D01*
X155660939Y-137735153D01*
X155430081Y-137639529D01*
X155187108Y-137581196D01*
X155000375Y-137566500D01*
X154875625Y-137566500D01*
X154688892Y-137581196D01*
X154445919Y-137639529D01*
X154215061Y-137735153D01*
X154002005Y-137865714D01*
X153938000Y-137920379D01*
X153938000Y-136309123D01*
X153667518Y-136416216D01*
X153667519Y-136416215D01*
X153638320Y-136429954D01*
X153638320Y-136429955D01*
X153334409Y-136597032D01*
X153307167Y-136614320D01*
X153307166Y-136614321D01*
X153026574Y-136818182D01*
X153026573Y-136818182D01*
X153001724Y-136838739D01*
X152748891Y-137076166D01*
X152726806Y-137099684D01*
X152505732Y-137366916D01*
X152505733Y-137366915D01*
X152486768Y-137393021D01*
X152486767Y-137393022D01*
X152300929Y-137685855D01*
X152285394Y-137714113D01*
X152137715Y-138027946D01*
X152137716Y-138027945D01*
X152125843Y-138057932D01*
X152125843Y-138057933D01*
X152094628Y-138154000D01*
X153704380Y-138154000D01*
X153649714Y-138218005D01*
X153519153Y-138431061D01*
X153423529Y-138661919D01*
X153365196Y-138904892D01*
X153345591Y-139154000D01*
X153365196Y-139403108D01*
X153423529Y-139646081D01*
X153519153Y-139876939D01*
X153649714Y-140089995D01*
X153704380Y-140154000D01*
X152094628Y-140154000D01*
X147404240Y-140154000D01*
X147430725Y-140003794D01*
X147430725Y-140003788D01*
X147451097Y-139654000D01*
X147430725Y-139304211D01*
X147430725Y-139304205D01*
X147369879Y-138959131D01*
X147269384Y-138623457D01*
X147269385Y-138623457D01*
X147152869Y-138353343D01*
X147152867Y-138353343D01*
X146017407Y-139488803D01*
X146010804Y-139404892D01*
X145952471Y-139161919D01*
X145856847Y-138931061D01*
X145726286Y-138718005D01*
X145564003Y-138527997D01*
X145373995Y-138365714D01*
X145160939Y-138235153D01*
X144930081Y-138139529D01*
X144687108Y-138081196D01*
X144603194Y-138074591D01*
X145737293Y-136940493D01*
X145737293Y-136940492D01*
X145631429Y-136887326D01*
X145631417Y-136887321D01*
X145302174Y-136767486D01*
X145302169Y-136767485D01*
X144961220Y-136686678D01*
X144961214Y-136686677D01*
X144613199Y-136646000D01*
X144262801Y-136646000D01*
X143914785Y-136686677D01*
X143914779Y-136686678D01*
X143573830Y-136767485D01*
X143573825Y-136767486D01*
X143244582Y-136887321D01*
X143244570Y-136887326D01*
X143138706Y-136940493D01*
X143138706Y-136940494D01*
X144272804Y-138074592D01*
X144188892Y-138081196D01*
X143945919Y-138139529D01*
X143715061Y-138235153D01*
X143502005Y-138365714D01*
X143311997Y-138527997D01*
X143149714Y-138718005D01*
X143019153Y-138931061D01*
X142923529Y-139161919D01*
X142865196Y-139404892D01*
X142858591Y-139488804D01*
X141664727Y-138294940D01*
X141630701Y-138232628D01*
X141635766Y-138161813D01*
X141664727Y-138116749D01*
X142190702Y-137590776D01*
X141692554Y-137590776D01*
X141624433Y-137570774D01*
X141606301Y-137556626D01*
X141374276Y-137338739D01*
X141349427Y-137318182D01*
X141349426Y-137318182D01*
X141068834Y-137114321D01*
X141068833Y-137114320D01*
X141041591Y-137097032D01*
X140737680Y-136929955D01*
X140737680Y-136929954D01*
X140708481Y-136916215D01*
X140708482Y-136916216D01*
X140438000Y-136809123D01*
X140438000Y-138420379D01*
X140373995Y-138365714D01*
X140160939Y-138235153D01*
X139930081Y-138139529D01*
X139687108Y-138081196D01*
X139500375Y-138066500D01*
X139375625Y-138066500D01*
X139188892Y-138081196D01*
X138945919Y-138139529D01*
X138715061Y-138235153D01*
X138502005Y-138365714D01*
X138438000Y-138420379D01*
X138438000Y-136809123D01*
X138167518Y-136916216D01*
X138167519Y-136916215D01*
X138138320Y-136929954D01*
X138138320Y-136929955D01*
X137834409Y-137097032D01*
X137807167Y-137114320D01*
X137807166Y-137114321D01*
X137526574Y-137318182D01*
X137526573Y-137318182D01*
X137501724Y-137338739D01*
X137248891Y-137576166D01*
X137226806Y-137599684D01*
X137005732Y-137866916D01*
X137005733Y-137866915D01*
X136986768Y-137893021D01*
X136986767Y-137893022D01*
X136800929Y-138185855D01*
X136785394Y-138214113D01*
X136637715Y-138527946D01*
X136637716Y-138527945D01*
X136625843Y-138557932D01*
X136625843Y-138557933D01*
X136594628Y-138654000D01*
X138204380Y-138654000D01*
X138149714Y-138718005D01*
X138019153Y-138931061D01*
X137923529Y-139161919D01*
X137865196Y-139404892D01*
X137845591Y-139654000D01*
X137865196Y-139903108D01*
X137923529Y-140146081D01*
X138019153Y-140376939D01*
X138149714Y-140589995D01*
X138204380Y-140654000D01*
X136594628Y-140654000D01*
X127029166Y-140654000D01*
X127029166Y-137878185D01*
X127029278Y-137874437D01*
X127035093Y-137776809D01*
X127044716Y-137678157D01*
X127057975Y-137580440D01*
X127074815Y-137483715D01*
X127095168Y-137388126D01*
X127100518Y-137366915D01*
X127118984Y-137293695D01*
X127146199Y-137200528D01*
X127176754Y-137108708D01*
X127210595Y-137018291D01*
X127247667Y-136929370D01*
X127287900Y-136842033D01*
X127314146Y-136790151D01*
X127331231Y-136756379D01*
X127377625Y-136672433D01*
X127426987Y-136590346D01*
X127479308Y-136510119D01*
X127534480Y-136431899D01*
X127592473Y-136355735D01*
X127653230Y-136281700D01*
X127665791Y-136267485D01*
X127716675Y-136209900D01*
X127782741Y-136140418D01*
X127851414Y-136073293D01*
X127922591Y-136008646D01*
X127996225Y-135946544D01*
X128072281Y-135887054D01*
X128150651Y-135830292D01*
X128231316Y-135776307D01*
X128314233Y-135725172D01*
X128399276Y-135677007D01*
X128486448Y-135631858D01*
X128575690Y-135589807D01*
X128666912Y-135550949D01*
X128689468Y-135542332D01*
X128737761Y-135523882D01*
X128740776Y-135523337D01*
X128760064Y-135515364D01*
X128760254Y-135515291D01*
X128760264Y-135515280D01*
X128760268Y-135515279D01*
X128760269Y-135515275D01*
X128760336Y-135515208D01*
X128760376Y-135515119D01*
X128760379Y-135515117D01*
X128760379Y-135515113D01*
X128760385Y-135515101D01*
X128760385Y-135514891D01*
X128760877Y-135496368D01*
X128760385Y-135493444D01*
X128760385Y-135372375D01*
X128760520Y-135371187D01*
X128760385Y-135357928D01*
X128760385Y-135341047D01*
X128760198Y-135339829D01*
X128759598Y-135281291D01*
X128778900Y-135212969D01*
X128832077Y-135165929D01*
X128885591Y-135154000D01*
X170931488Y-135154000D01*
X170999609Y-135174002D01*
G37*
%TD.AperFunction*%
%TD*%
M02*
