%TF.GenerationSoftware,KiCad,Pcbnew,7.0.8*%
%TF.CreationDate,2023-11-04T18:56:12+01:00*%
%TF.ProjectId,kidslab-lamp,6b696473-6c61-4622-9d6c-616d702e6b69,rev?*%
%TF.SameCoordinates,Original*%
%TF.FileFunction,Soldermask,Top*%
%TF.FilePolarity,Negative*%
%FSLAX46Y46*%
G04 Gerber Fmt 4.6, Leading zero omitted, Abs format (unit mm)*
G04 Created by KiCad (PCBNEW 7.0.8) date 2023-11-04 18:56:12*
%MOMM*%
%LPD*%
G01*
G04 APERTURE LIST*
G04 Aperture macros list*
%AMRoundRect*
0 Rectangle with rounded corners*
0 $1 Rounding radius*
0 $2 $3 $4 $5 $6 $7 $8 $9 X,Y pos of 4 corners*
0 Add a 4 corners polygon primitive as box body*
4,1,4,$2,$3,$4,$5,$6,$7,$8,$9,$2,$3,0*
0 Add four circle primitives for the rounded corners*
1,1,$1+$1,$2,$3*
1,1,$1+$1,$4,$5*
1,1,$1+$1,$6,$7*
1,1,$1+$1,$8,$9*
0 Add four rect primitives between the rounded corners*
20,1,$1+$1,$2,$3,$4,$5,0*
20,1,$1+$1,$4,$5,$6,$7,0*
20,1,$1+$1,$6,$7,$8,$9,0*
20,1,$1+$1,$8,$9,$2,$3,0*%
%AMFreePoly0*
4,1,34,6.500000,-3.000000,0.000000,-3.000001,0.000000,-2.994924,-0.174434,-2.994924,-0.520945,-2.954423,-0.860410,-2.873969,-1.188239,-2.754648,-1.500000,-2.598076,-1.791476,-2.406370,-2.058725,-2.182121,-2.298133,-1.928363,-2.506463,-1.648527,-2.680898,-1.346398,-2.819078,-1.026060,-2.919135,-0.691847,-2.979715,-0.348279,-3.000001,0.000000,-2.979715,0.348280,-2.919135,0.691848,-2.819078,1.026060,
-2.680897,1.346398,-2.506463,1.648527,-2.298132,1.928363,-2.058725,2.182121,-1.791476,2.406370,-1.500000,2.598076,-1.188239,2.754649,-0.860409,2.873969,-0.520945,2.954423,-0.174434,2.994924,0.000000,2.994924,0.000000,3.000001,6.500000,3.000000,6.500000,-3.000000,6.500000,-3.000000,$1*%
%AMFreePoly1*
4,1,48,0.468453,2.455718,0.772542,2.377641,1.064448,2.262068,1.339567,2.110820,1.593560,1.926283,1.822422,1.711368,1.955916,1.550000,3.250000,1.550000,3.285355,1.535355,3.300000,1.500000,3.300000,-1.500000,3.285355,-1.535355,3.250000,-1.550000,1.955916,-1.550000,1.822422,-1.711368,1.593560,-1.926283,1.339567,-2.110820,1.064448,-2.262068,0.772542,-2.377641,0.468453,-2.455718,
0.156976,-2.495067,-0.156976,-2.495067,-0.468453,-2.455718,-0.772542,-2.377641,-1.064448,-2.262068,-1.339567,-2.110820,-1.593560,-1.926283,-1.822422,-1.711368,-2.022542,-1.469463,-2.190767,-1.204384,-2.324441,-0.920311,-2.421458,-0.621725,-2.480287,-0.313333,-2.500000,0.000000,-2.480287,0.313333,-2.421458,0.621725,-2.324441,0.920311,-2.190767,1.204384,-2.022542,1.469463,-1.822422,1.711368,
-1.593560,1.926283,-1.339567,2.110820,-1.064448,2.262068,-0.772542,2.377641,-0.468453,2.455718,-0.156976,2.495067,0.156976,2.495067,0.468453,2.455718,0.468453,2.455718,$1*%
%AMFreePoly2*
4,1,66,4.411842,5.095106,4.430902,5.095106,4.441081,5.087710,4.453280,5.084625,4.465482,5.069981,4.480902,5.058779,4.484789,5.046813,4.492846,5.037146,4.494111,5.018123,4.500000,5.000000,4.500000,2.600000,10.900000,2.600000,10.915063,2.595106,10.930902,2.595106,10.943715,2.585796,10.958779,2.580902,10.968088,2.568088,10.980902,2.558779,10.985796,2.543715,10.995106,2.530902,
10.995106,2.515062,11.000000,2.500000,11.000000,-2.500000,10.995106,-2.515062,10.995106,-2.530902,10.985796,-2.543715,10.980902,-2.558779,10.968088,-2.568088,10.958779,-2.580902,10.943715,-2.585796,10.930902,-2.595106,10.915063,-2.595106,10.900000,-2.600000,4.500000,-2.600000,4.500000,-5.000000,4.494111,-5.018123,4.492846,-5.037146,4.484789,-5.046813,4.480902,-5.058779,4.465482,-5.069981,
4.453280,-5.084625,4.441081,-5.087710,4.430902,-5.095106,4.411842,-5.095106,4.393363,-5.099780,4.381681,-5.095106,4.369098,-5.095106,4.353676,-5.083901,4.335982,-5.076822,-1.664018,-0.076822,-1.677110,-0.056027,-1.692845,-0.037146,-1.693299,-0.030314,-1.696947,-0.024521,-1.695315,0.000000,-1.696947,0.024521,-1.693299,0.030314,-1.692845,0.037146,-1.677110,0.056027,-1.664018,0.076822,
4.335982,5.076822,4.353676,5.083901,4.369098,5.095106,4.381681,5.095106,4.393363,5.099780,4.411842,5.095106,4.411842,5.095106,$1*%
G04 Aperture macros list end*
%ADD10C,0.200000*%
%ADD11RoundRect,0.200000X0.200000X0.275000X-0.200000X0.275000X-0.200000X-0.275000X0.200000X-0.275000X0*%
%ADD12FreePoly0,124.500000*%
%ADD13FreePoly0,328.000000*%
%ADD14O,1.800000X1.800000*%
%ADD15O,1.500000X1.500000*%
%ADD16O,1.700000X1.700000*%
%ADD17R,3.500000X1.700000*%
%ADD18R,1.700000X1.700000*%
%ADD19R,1.700000X3.500000*%
%ADD20FreePoly0,0.000000*%
%ADD21FreePoly1,0.000000*%
%ADD22C,5.000000*%
%ADD23FreePoly0,11.000000*%
%ADD24FreePoly0,35.000000*%
%ADD25FreePoly0,324.500000*%
%ADD26FreePoly0,180.000000*%
%ADD27RoundRect,0.200000X-0.200000X-0.275000X0.200000X-0.275000X0.200000X0.275000X-0.200000X0.275000X0*%
%ADD28R,0.900000X1.800000*%
%ADD29FreePoly0,280.000000*%
%ADD30FreePoly0,220.000000*%
%ADD31RoundRect,0.225000X0.225000X0.250000X-0.225000X0.250000X-0.225000X-0.250000X0.225000X-0.250000X0*%
%ADD32FreePoly0,215.000000*%
%ADD33FreePoly2,270.000000*%
%ADD34FreePoly1,270.000000*%
%ADD35R,0.950000X0.800000*%
%ADD36FreePoly0,191.500000*%
%ADD37FreePoly0,145.000000*%
%ADD38FreePoly0,260.000000*%
%ADD39C,1.500000*%
%ADD40FreePoly0,168.500000*%
%ADD41RoundRect,0.087500X0.225000X0.087500X-0.225000X0.087500X-0.225000X-0.087500X0.225000X-0.087500X0*%
%ADD42RoundRect,0.087500X0.087500X0.225000X-0.087500X0.225000X-0.087500X-0.225000X0.087500X-0.225000X0*%
%ADD43FreePoly2,0.000000*%
%ADD44RoundRect,0.225000X0.250000X-0.225000X0.250000X0.225000X-0.250000X0.225000X-0.250000X-0.225000X0*%
%ADD45FreePoly0,58.000000*%
%ADD46FreePoly0,348.500000*%
%ADD47FreePoly2,90.000000*%
%ADD48FreePoly1,90.000000*%
%ADD49FreePoly2,180.000000*%
%ADD50FreePoly1,180.000000*%
G04 APERTURE END LIST*
%TO.C,GPIO15*%
D10*
X154606000Y-98888000D02*
X152106000Y-98888000D01*
X152106000Y-105388000D01*
X147106000Y-105388000D01*
X147106000Y-98888000D01*
X144606000Y-98888000D01*
X149606000Y-92888000D01*
X154606000Y-98888000D01*
G36*
X154606000Y-98888000D02*
G01*
X152106000Y-98888000D01*
X152106000Y-105388000D01*
X147106000Y-105388000D01*
X147106000Y-98888000D01*
X144606000Y-98888000D01*
X149606000Y-92888000D01*
X154606000Y-98888000D01*
G37*
%TO.C,GPIO14*%
X135328000Y-107974000D02*
X141828000Y-107974000D01*
X141828000Y-112974000D01*
X135328000Y-112974000D01*
X135328000Y-115474000D01*
X129328000Y-110474000D01*
X135328000Y-105474000D01*
X135328000Y-107974000D01*
G36*
X135328000Y-107974000D02*
G01*
X141828000Y-107974000D01*
X141828000Y-112974000D01*
X135328000Y-112974000D01*
X135328000Y-115474000D01*
X129328000Y-110474000D01*
X135328000Y-105474000D01*
X135328000Y-107974000D01*
G37*
%TO.C,GPIO17*%
X152106000Y-123404000D02*
X154606000Y-123404000D01*
X149606000Y-129404000D01*
X144606000Y-123404000D01*
X147106000Y-123404000D01*
X147106000Y-116904000D01*
X152106000Y-116904000D01*
X152106000Y-123404000D01*
G36*
X152106000Y-123404000D02*
G01*
X154606000Y-123404000D01*
X149606000Y-129404000D01*
X144606000Y-123404000D01*
X147106000Y-123404000D01*
X147106000Y-116904000D01*
X152106000Y-116904000D01*
X152106000Y-123404000D01*
G37*
%TO.C,GPIO16*%
X169728000Y-110474000D02*
X163728000Y-115474000D01*
X163728000Y-112974000D01*
X157228000Y-112974000D01*
X157228000Y-107974000D01*
X163728000Y-107974000D01*
X163728000Y-105474000D01*
X169728000Y-110474000D01*
G36*
X169728000Y-110474000D02*
G01*
X163728000Y-115474000D01*
X163728000Y-112974000D01*
X157228000Y-112974000D01*
X157228000Y-107974000D01*
X163728000Y-107974000D01*
X163728000Y-105474000D01*
X169728000Y-110474000D01*
G37*
%TD*%
D11*
%TO.C,R2*%
X134048000Y-86995000D03*
X132398000Y-86995000D03*
%TD*%
D12*
%TO.C,GPIO0*%
X127994641Y-49236413D03*
%TD*%
D13*
%TO.C,E39*%
X171528000Y-118610000D03*
%TD*%
D14*
%TO.C,U1*%
X146913000Y-41424000D03*
D15*
X147213000Y-44454000D03*
X152063000Y-44454000D03*
D14*
X152363000Y-41424000D03*
D16*
X140748000Y-41294000D03*
D17*
X139848000Y-41294000D03*
D16*
X140748000Y-43834000D03*
D17*
X139848000Y-43834000D03*
D18*
X140748000Y-46374000D03*
D17*
X139848000Y-46374000D03*
D16*
X140748000Y-48914000D03*
D17*
X139848000Y-48914000D03*
D16*
X140748000Y-51454000D03*
D17*
X139848000Y-51454000D03*
D16*
X140748000Y-53994000D03*
D17*
X139848000Y-53994000D03*
D16*
X140748000Y-56534000D03*
D17*
X139848000Y-56534000D03*
D18*
X140748000Y-59074000D03*
D17*
X139848000Y-59074000D03*
D16*
X140748000Y-61614000D03*
D17*
X139848000Y-61614000D03*
D16*
X140748000Y-64154000D03*
D17*
X139848000Y-64154000D03*
D16*
X140748000Y-66694000D03*
D17*
X139848000Y-66694000D03*
D16*
X140748000Y-69234000D03*
D17*
X139848000Y-69234000D03*
D18*
X140748000Y-71774000D03*
D17*
X139848000Y-71774000D03*
D16*
X140748000Y-74314000D03*
D17*
X139848000Y-74314000D03*
D16*
X140748000Y-76854000D03*
D17*
X139848000Y-76854000D03*
D16*
X140748000Y-79394000D03*
D17*
X139848000Y-79394000D03*
D16*
X140748000Y-81934000D03*
D17*
X139848000Y-81934000D03*
D18*
X140748000Y-84474000D03*
D17*
X139848000Y-84474000D03*
D16*
X140748000Y-87014000D03*
D17*
X139848000Y-87014000D03*
D16*
X140748000Y-89554000D03*
D17*
X139848000Y-89554000D03*
D16*
X158528000Y-89554000D03*
D17*
X159428000Y-89554000D03*
D16*
X158528000Y-87014000D03*
D17*
X159428000Y-87014000D03*
D18*
X158528000Y-84474000D03*
D17*
X159428000Y-84474000D03*
D16*
X158528000Y-81934000D03*
D17*
X159428000Y-81934000D03*
D16*
X158528000Y-79394000D03*
D17*
X159428000Y-79394000D03*
D16*
X158528000Y-76854000D03*
D17*
X159428000Y-76854000D03*
D16*
X158528000Y-74314000D03*
D17*
X159428000Y-74314000D03*
D18*
X158528000Y-71774000D03*
D17*
X159428000Y-71774000D03*
D16*
X158528000Y-69234000D03*
D17*
X159428000Y-69234000D03*
D16*
X158528000Y-66694000D03*
D17*
X159428000Y-66694000D03*
D16*
X158528000Y-64154000D03*
D17*
X159428000Y-64154000D03*
D16*
X158528000Y-61614000D03*
D17*
X159428000Y-61614000D03*
D18*
X158528000Y-59074000D03*
D17*
X159428000Y-59074000D03*
D16*
X158528000Y-56534000D03*
D17*
X159428000Y-56534000D03*
D16*
X158528000Y-53994000D03*
D17*
X159428000Y-53994000D03*
D16*
X158528000Y-51454000D03*
D17*
X159428000Y-51454000D03*
D16*
X158528000Y-48914000D03*
D17*
X159428000Y-48914000D03*
D18*
X158528000Y-46374000D03*
D17*
X159428000Y-46374000D03*
D16*
X158528000Y-43834000D03*
D17*
X159428000Y-43834000D03*
D16*
X158528000Y-41294000D03*
D17*
X159428000Y-41294000D03*
D16*
X147098000Y-89324000D03*
D19*
X147098000Y-90224000D03*
D18*
X149638000Y-89324000D03*
D19*
X149638000Y-90224000D03*
D16*
X152178000Y-89324000D03*
D19*
X152178000Y-90224000D03*
%TD*%
D20*
%TO.C,E30*%
X168338000Y-146154000D03*
%TD*%
D21*
%TO.C,GPIO18*%
X174030000Y-87630000D03*
D22*
X179030000Y-87630000D03*
%TD*%
D23*
%TO.C,GPIO26*%
X188339837Y-73673081D03*
%TD*%
D24*
%TO.C,GPIO27*%
X182856085Y-60211358D03*
%TD*%
D25*
%TO.C,GPIO21*%
X182356588Y-105095930D03*
%TD*%
D26*
%TO.C,E34*%
X131038000Y-153654000D03*
%TD*%
D27*
%TO.C,R6*%
X132462000Y-64160400D03*
X134112000Y-64160400D03*
%TD*%
D21*
%TO.C,B6*%
X154938000Y-139154000D03*
D22*
X159938000Y-139154000D03*
%TD*%
D28*
%TO.C,BZ1*%
X169214800Y-61747400D03*
X172714800Y-61747400D03*
%TD*%
D29*
%TO.C,E37*%
X158920635Y-163055519D03*
%TD*%
D30*
%TO.C,E40*%
X127514604Y-116767721D03*
%TD*%
D31*
%TO.C,C7*%
X146457000Y-134112000D03*
X144907000Y-134112000D03*
%TD*%
D32*
%TO.C,GPIO4*%
X118019915Y-105096642D03*
%TD*%
D33*
%TO.C,GPIO15*%
X149606000Y-94488000D03*
D34*
X149606000Y-97928000D03*
D22*
X149606000Y-102928000D03*
%TD*%
D31*
%TO.C,C4*%
X150381000Y-107950000D03*
X148831000Y-107950000D03*
%TD*%
D20*
%TO.C,E31*%
X168338000Y-139154000D03*
%TD*%
D31*
%TO.C,C9*%
X166891000Y-134112000D03*
X165341000Y-134112000D03*
%TD*%
%TO.C,C6*%
X136284000Y-134112000D03*
X134734000Y-134112000D03*
%TD*%
D35*
%TO.C,D4*%
X165985000Y-132095000D03*
X165985000Y-130315000D03*
X163255000Y-130315000D03*
X163255000Y-132095000D03*
%TD*%
D36*
%TO.C,GPIO3*%
X111535992Y-90634063D03*
%TD*%
D37*
%TO.C,GPIO1*%
X116519915Y-60211358D03*
%TD*%
D38*
%TO.C,E38*%
X140955365Y-163055519D03*
%TD*%
D39*
%TO.C,J1*%
X132657600Y-80314800D03*
X130657600Y-80314800D03*
X128657600Y-80314800D03*
X126657600Y-80314800D03*
%TD*%
D21*
%TO.C,B1*%
X154938000Y-153154000D03*
D22*
X159938000Y-153154000D03*
%TD*%
D26*
%TO.C,E33*%
X131098000Y-139654000D03*
%TD*%
D35*
%TO.C,D1*%
X135505000Y-132095000D03*
X135505000Y-130315000D03*
X132775000Y-130315000D03*
X132775000Y-132095000D03*
%TD*%
D40*
%TO.C,GPIO2*%
X111535992Y-73673937D03*
%TD*%
D20*
%TO.C,E35*%
X168338000Y-153154000D03*
%TD*%
D27*
%TO.C,R3*%
X165164000Y-86995000D03*
X166814000Y-86995000D03*
%TD*%
D21*
%TO.C,B2*%
X139438000Y-146654000D03*
D22*
X144438000Y-146654000D03*
%TD*%
D21*
%TO.C,B4*%
X139438000Y-153654000D03*
D22*
X144438000Y-153654000D03*
%TD*%
D41*
%TO.C,U2*%
X150768500Y-111224000D03*
X150768500Y-110724000D03*
X150768500Y-110224000D03*
X150768500Y-109724000D03*
D42*
X150106000Y-109561500D03*
X149606000Y-109561500D03*
X149106000Y-109561500D03*
D41*
X148443500Y-109724000D03*
X148443500Y-110224000D03*
X148443500Y-110724000D03*
X148443500Y-111224000D03*
D42*
X149106000Y-111386500D03*
X149606000Y-111386500D03*
X150106000Y-111386500D03*
%TD*%
D11*
%TO.C,R1*%
X134048000Y-89535000D03*
X132398000Y-89535000D03*
%TD*%
D35*
%TO.C,D3*%
X155825000Y-132095000D03*
X155825000Y-130315000D03*
X153095000Y-130315000D03*
X153095000Y-132095000D03*
%TD*%
D43*
%TO.C,GPIO14*%
X130928000Y-110474000D03*
D21*
X134368000Y-110474000D03*
D22*
X139368000Y-110474000D03*
%TD*%
D21*
%TO.C,B3*%
X139438000Y-139654000D03*
D22*
X144438000Y-139654000D03*
%TD*%
D44*
%TO.C,C5*%
X146812000Y-109500000D03*
X146812000Y-107950000D03*
%TD*%
D18*
%TO.C,J3*%
X127093000Y-72382000D03*
D16*
X129633000Y-72382000D03*
X132173000Y-72382000D03*
%TD*%
D26*
%TO.C,E32*%
X131038000Y-146654000D03*
%TD*%
D18*
%TO.C,J2*%
X127093000Y-68318000D03*
D16*
X129633000Y-68318000D03*
X132173000Y-68318000D03*
%TD*%
D35*
%TO.C,D2*%
X145665000Y-132095000D03*
X145665000Y-130315000D03*
X142935000Y-130315000D03*
X142935000Y-132095000D03*
%TD*%
D45*
%TO.C,GPIO28*%
X172385008Y-49238805D03*
%TD*%
D21*
%TO.C,B5*%
X154938000Y-146154000D03*
D22*
X159938000Y-146154000D03*
%TD*%
D21*
%TO.C,GPIO13*%
X120650000Y-87630000D03*
D22*
X125650000Y-87630000D03*
%TD*%
D27*
%TO.C,R4*%
X165164000Y-89535000D03*
X166814000Y-89535000D03*
%TD*%
D46*
%TO.C,GPIO22*%
X188340008Y-90634063D03*
%TD*%
D27*
%TO.C,R5*%
X132487400Y-61620400D03*
X134137400Y-61620400D03*
%TD*%
D47*
%TO.C,GPIO17*%
X149606000Y-127804000D03*
D48*
X149606000Y-124364000D03*
D22*
X149606000Y-119364000D03*
%TD*%
D49*
%TO.C,GPIO16*%
X168128000Y-110474000D03*
D50*
X164688000Y-110474000D03*
D22*
X159688000Y-110474000D03*
%TD*%
D31*
%TO.C,C8*%
X156604000Y-134112000D03*
X155054000Y-134112000D03*
%TD*%
G36*
X171000110Y-135174002D02*
G01*
X171046603Y-135227658D01*
X171057984Y-135281172D01*
X171055559Y-135541861D01*
X171055558Y-135541861D01*
X171235781Y-135616824D01*
X171240065Y-135618797D01*
X171410293Y-135705059D01*
X171414392Y-135707332D01*
X171576391Y-135805193D01*
X171580285Y-135807746D01*
X171733588Y-135916572D01*
X171737261Y-135919388D01*
X171881457Y-136038588D01*
X171884895Y-136041649D01*
X172019511Y-136170583D01*
X172022703Y-136173871D01*
X172147328Y-136311951D01*
X172150265Y-136315454D01*
X172264426Y-136462041D01*
X172267099Y-136465742D01*
X172370350Y-136620212D01*
X172372749Y-136624099D01*
X172464662Y-136785862D01*
X172466778Y-136789923D01*
X172546881Y-136958312D01*
X172548703Y-136962533D01*
X172616572Y-137136976D01*
X172618089Y-137141341D01*
X172673270Y-137321189D01*
X172674469Y-137325681D01*
X172716519Y-137510338D01*
X172717388Y-137514935D01*
X172745864Y-137703794D01*
X172746392Y-137708469D01*
X172760849Y-137900907D01*
X172761026Y-137905629D01*
X172761026Y-151336147D01*
X172755049Y-151650858D01*
X172738492Y-151964549D01*
X172711429Y-152276964D01*
X172673930Y-152587848D01*
X172626069Y-152896942D01*
X172567917Y-153203992D01*
X172499546Y-153508742D01*
X172421028Y-153810935D01*
X172332435Y-154110317D01*
X172233839Y-154406630D01*
X172125312Y-154699618D01*
X172006926Y-154989027D01*
X171878754Y-155274599D01*
X171740866Y-155556077D01*
X171593336Y-155833210D01*
X171436234Y-156105737D01*
X171269835Y-156372825D01*
X171094892Y-156633632D01*
X170911594Y-156887974D01*
X170720130Y-157135667D01*
X170520690Y-157376528D01*
X170313461Y-157610374D01*
X170098634Y-157837022D01*
X169876396Y-158056287D01*
X169646937Y-158267988D01*
X169410445Y-158471939D01*
X169167110Y-158667959D01*
X168917121Y-158855864D01*
X168660666Y-159035470D01*
X168510035Y-159133580D01*
X168442038Y-159153998D01*
X168441268Y-159154000D01*
X131411928Y-159154000D01*
X131343807Y-159133998D01*
X131343318Y-159133682D01*
X131153275Y-159010304D01*
X130896236Y-158830899D01*
X130645624Y-158643192D01*
X130401635Y-158447361D01*
X130164462Y-158243592D01*
X129934300Y-158032064D01*
X129711342Y-157812960D01*
X129495784Y-157586461D01*
X129287818Y-157352750D01*
X129087640Y-157112008D01*
X128895443Y-156864416D01*
X128711422Y-156610157D01*
X128535771Y-156349413D01*
X128368684Y-156082366D01*
X128210494Y-155809810D01*
X128061900Y-155532631D01*
X127922973Y-155251084D01*
X127793783Y-154965426D01*
X127674401Y-154675914D01*
X127564897Y-154382804D01*
X127465342Y-154086354D01*
X127375806Y-153786821D01*
X127296359Y-153484461D01*
X127227073Y-153179531D01*
X127168018Y-152872289D01*
X127119263Y-152562991D01*
X127080880Y-152251893D01*
X127052940Y-151939254D01*
X127035511Y-151625329D01*
X127028666Y-151310375D01*
X127028666Y-137878174D01*
X127028778Y-137874427D01*
X127034595Y-137776771D01*
X127044220Y-137678098D01*
X127057482Y-137580360D01*
X127074322Y-137483641D01*
X127094680Y-137388019D01*
X127118499Y-137293574D01*
X127145719Y-137200388D01*
X127176283Y-137108539D01*
X127210131Y-137018110D01*
X127247203Y-136929182D01*
X127287442Y-136841832D01*
X127330790Y-136756144D01*
X127377186Y-136672195D01*
X127426572Y-136590068D01*
X127478891Y-136509843D01*
X127534082Y-136431599D01*
X127592086Y-136355419D01*
X127652846Y-136281381D01*
X127716304Y-136209566D01*
X127782398Y-136140056D01*
X127851071Y-136072929D01*
X127922265Y-136008266D01*
X127995919Y-135946149D01*
X128071977Y-135886658D01*
X128150379Y-135829873D01*
X128231066Y-135775874D01*
X128313979Y-135724741D01*
X128399060Y-135676556D01*
X128486250Y-135631399D01*
X128575490Y-135589349D01*
X128666721Y-135550488D01*
X128759884Y-135514896D01*
X128759885Y-135514896D01*
X128759885Y-135357934D01*
X128759099Y-135281293D01*
X128778401Y-135212970D01*
X128831577Y-135165929D01*
X128885092Y-135154000D01*
X170931989Y-135154000D01*
X171000110Y-135174002D01*
G37*
M02*
