%TF.GenerationSoftware,KiCad,Pcbnew,7.0.8*%
%TF.CreationDate,2023-11-04T18:56:12+01:00*%
%TF.ProjectId,kidslab-lamp,6b696473-6c61-4622-9d6c-616d702e6b69,rev?*%
%TF.SameCoordinates,Original*%
%TF.FileFunction,Paste,Top*%
%TF.FilePolarity,Positive*%
%FSLAX46Y46*%
G04 Gerber Fmt 4.6, Leading zero omitted, Abs format (unit mm)*
G04 Created by KiCad (PCBNEW 7.0.8) date 2023-11-04 18:56:12*
%MOMM*%
%LPD*%
G01*
G04 APERTURE LIST*
G04 Aperture macros list*
%AMRoundRect*
0 Rectangle with rounded corners*
0 $1 Rounding radius*
0 $2 $3 $4 $5 $6 $7 $8 $9 X,Y pos of 4 corners*
0 Add a 4 corners polygon primitive as box body*
4,1,4,$2,$3,$4,$5,$6,$7,$8,$9,$2,$3,0*
0 Add four circle primitives for the rounded corners*
1,1,$1+$1,$2,$3*
1,1,$1+$1,$4,$5*
1,1,$1+$1,$6,$7*
1,1,$1+$1,$8,$9*
0 Add four rect primitives between the rounded corners*
20,1,$1+$1,$2,$3,$4,$5,0*
20,1,$1+$1,$4,$5,$6,$7,0*
20,1,$1+$1,$6,$7,$8,$9,0*
20,1,$1+$1,$8,$9,$2,$3,0*%
G04 Aperture macros list end*
%ADD10RoundRect,0.200000X0.200000X0.275000X-0.200000X0.275000X-0.200000X-0.275000X0.200000X-0.275000X0*%
%ADD11RoundRect,0.200000X-0.200000X-0.275000X0.200000X-0.275000X0.200000X0.275000X-0.200000X0.275000X0*%
%ADD12R,0.900000X1.800000*%
%ADD13RoundRect,0.225000X0.225000X0.250000X-0.225000X0.250000X-0.225000X-0.250000X0.225000X-0.250000X0*%
%ADD14R,0.950000X0.800000*%
%ADD15RoundRect,0.087500X0.225000X0.087500X-0.225000X0.087500X-0.225000X-0.087500X0.225000X-0.087500X0*%
%ADD16RoundRect,0.087500X0.087500X0.225000X-0.087500X0.225000X-0.087500X-0.225000X0.087500X-0.225000X0*%
%ADD17RoundRect,0.225000X0.250000X-0.225000X0.250000X0.225000X-0.250000X0.225000X-0.250000X-0.225000X0*%
G04 APERTURE END LIST*
D10*
%TO.C,R2*%
X134048000Y-86995000D03*
X132398000Y-86995000D03*
%TD*%
D11*
%TO.C,R6*%
X132462000Y-64160400D03*
X134112000Y-64160400D03*
%TD*%
D12*
%TO.C,BZ1*%
X169214800Y-61747400D03*
X172714800Y-61747400D03*
%TD*%
D13*
%TO.C,C7*%
X146457000Y-134112000D03*
X144907000Y-134112000D03*
%TD*%
%TO.C,C4*%
X150381000Y-107950000D03*
X148831000Y-107950000D03*
%TD*%
%TO.C,C9*%
X166891000Y-134112000D03*
X165341000Y-134112000D03*
%TD*%
%TO.C,C6*%
X136284000Y-134112000D03*
X134734000Y-134112000D03*
%TD*%
D14*
%TO.C,D4*%
X165985000Y-132095000D03*
X165985000Y-130315000D03*
X163255000Y-130315000D03*
X163255000Y-132095000D03*
%TD*%
%TO.C,D1*%
X135505000Y-132095000D03*
X135505000Y-130315000D03*
X132775000Y-130315000D03*
X132775000Y-132095000D03*
%TD*%
D11*
%TO.C,R3*%
X165164000Y-86995000D03*
X166814000Y-86995000D03*
%TD*%
D15*
%TO.C,U2*%
X150768500Y-111224000D03*
X150768500Y-110724000D03*
X150768500Y-110224000D03*
X150768500Y-109724000D03*
D16*
X150106000Y-109561500D03*
X149606000Y-109561500D03*
X149106000Y-109561500D03*
D15*
X148443500Y-109724000D03*
X148443500Y-110224000D03*
X148443500Y-110724000D03*
X148443500Y-111224000D03*
D16*
X149106000Y-111386500D03*
X149606000Y-111386500D03*
X150106000Y-111386500D03*
%TD*%
D10*
%TO.C,R1*%
X134048000Y-89535000D03*
X132398000Y-89535000D03*
%TD*%
D14*
%TO.C,D3*%
X155825000Y-132095000D03*
X155825000Y-130315000D03*
X153095000Y-130315000D03*
X153095000Y-132095000D03*
%TD*%
D17*
%TO.C,C5*%
X146812000Y-109500000D03*
X146812000Y-107950000D03*
%TD*%
D14*
%TO.C,D2*%
X145665000Y-132095000D03*
X145665000Y-130315000D03*
X142935000Y-130315000D03*
X142935000Y-132095000D03*
%TD*%
D11*
%TO.C,R4*%
X165164000Y-89535000D03*
X166814000Y-89535000D03*
%TD*%
%TO.C,R5*%
X132487400Y-61620400D03*
X134137400Y-61620400D03*
%TD*%
D13*
%TO.C,C8*%
X156604000Y-134112000D03*
X155054000Y-134112000D03*
%TD*%
M02*
