M48
INCH
T1C0.0157
T2C0.0394
T3C0.0402
T4C0.1248
T5C0.1250
%
G90
G05
T1
X5.14Y-5.13
X5.16Y-5.28
X5.35Y-2.69
X5.45Y-5.245
X5.53Y-3.91
X5.54Y-5.13
X5.56Y-5.28
X5.6Y-3.97
X5.71Y-3.7
X5.73Y-3.99
X5.7375Y-4.36
X5.79Y-4.35
X5.82Y-4.25
X5.9151Y-4.4213
X5.92Y-2.15
X5.92Y-2.3
X5.92Y-3.25
X5.95Y-5.13
X5.96Y-5.28
X5.98Y-4.29
X6.07Y-3.74
X6.0767Y-2.4
X6.0767Y-2.77
X6.12Y-4.99
X6.14Y-1.97
X6.14Y-4.37
X6.21Y-3.7
X6.35Y-5.13
X6.37Y-5.28
X6.4Y-3.01
X6.64Y-2.51
X6.72Y-3.37
X6.75Y-2.44
T2
X4.9865Y-3.162
X5.0037Y-2.6897
X5.0037Y-2.8497
X5.0653Y-3.162
X5.1037Y-2.6897
X5.1037Y-2.8497
X5.144Y-3.162
X5.2037Y-2.6897
X5.2037Y-2.8497
X5.2227Y-3.162
T3
X5.5413Y-1.6257
X5.5413Y-1.7257
X5.5413Y-1.8257
X5.5413Y-1.9257
X5.5413Y-2.0257
X5.5413Y-2.1257
X5.5413Y-2.2257
X5.5413Y-2.3257
X5.5413Y-2.4257
X5.5413Y-2.5257
X5.5413Y-2.6257
X5.5413Y-2.7257
X5.5413Y-2.8257
X5.5413Y-2.9257
X5.5413Y-3.0257
X5.5413Y-3.1257
X5.5413Y-3.2257
X5.5413Y-3.3257
X5.5413Y-3.4257
X5.5413Y-3.5257
X5.7913Y-3.5167
X5.8913Y-3.5167
X5.9913Y-3.5167
X6.2413Y-1.6257
X6.2413Y-1.7257
X6.2413Y-1.8257
X6.2413Y-1.9257
X6.2413Y-2.0257
X6.2413Y-2.1257
X6.2413Y-2.2257
X6.2413Y-2.3257
X6.2413Y-2.4257
X6.2413Y-2.5257
X6.2413Y-2.6257
X6.2413Y-2.7257
X6.2413Y-2.8257
X6.2413Y-2.9257
X6.2413Y-3.0257
X6.2413Y-3.1257
X6.2413Y-3.2257
X6.2413Y-3.3257
X6.2413Y-3.4257
X6.2413Y-3.5257
T4
X4.3912Y-2.9005
X4.3912Y-3.5683
X4.5874Y-2.3705
X4.6465Y-4.1377
X5.0203Y-4.5972
X5.0392Y-1.9384
X5.159Y-5.7738
X5.159Y-6.0494
X5.1613Y-5.4982
X5.5494Y-6.4195
X6.2567Y-6.4195
X6.6275Y-5.4785
X6.6275Y-5.7541
X6.6275Y-6.0297
X6.7531Y-4.6697
X6.7868Y-1.9385
X7.1794Y-4.1376
X7.1991Y-2.3705
X7.415Y-2.9005
X7.415Y-3.5683
T5
X4.75Y-3.45
X4.9469Y-3.45
X5.2901Y-4.3494
X5.4869Y-4.3494
X5.4897Y-5.4982
X5.4897Y-5.7738
X5.4897Y-6.0494
X5.6865Y-5.4982
X5.6865Y-5.7738
X5.6865Y-6.0494
X5.89Y-3.8554
X5.89Y-4.0523
X5.89Y-4.6994
X5.89Y-4.8962
X6.0999Y-5.4785
X6.0999Y-5.7541
X6.0999Y-6.0297
X6.2869Y-4.3494
X6.2968Y-5.4785
X6.2968Y-5.7541
X6.2968Y-6.0297
X6.4838Y-4.3494
X6.8516Y-3.45
X7.0484Y-3.45
T0
M30
