%TF.GenerationSoftware,KiCad,Pcbnew,6.0.5-a6ca702e91~116~ubuntu20.04.1*%
%TF.CreationDate,2022-05-23T12:48:00+02:00*%
%TF.ProjectId,kidslab-lamp,6b696473-6c61-4622-9d6c-616d702e6b69,rev?*%
%TF.SameCoordinates,Original*%
%TF.FileFunction,Soldermask,Top*%
%TF.FilePolarity,Negative*%
%FSLAX46Y46*%
G04 Gerber Fmt 4.6, Leading zero omitted, Abs format (unit mm)*
G04 Created by KiCad (PCBNEW 6.0.5-a6ca702e91~116~ubuntu20.04.1) date 2022-05-23 12:48:00*
%MOMM*%
%LPD*%
G01*
G04 APERTURE LIST*
G04 Aperture macros list*
%AMFreePoly0*
4,1,66,4.411842,5.095106,4.430902,5.095106,4.441081,5.087711,4.453280,5.084625,4.465483,5.069982,4.480902,5.058779,4.484790,5.046813,4.492846,5.037146,4.494111,5.018124,4.500000,5.000000,4.500000,2.600000,10.900000,2.600000,10.915063,2.595106,10.930902,2.595106,10.943716,2.585796,10.958779,2.580902,10.968089,2.568089,10.980902,2.558779,10.985796,2.543716,10.995106,2.530902,
10.995106,2.515063,11.000000,2.500000,11.000000,-2.500000,10.995106,-2.515063,10.995106,-2.530902,10.985796,-2.543716,10.980902,-2.558779,10.968089,-2.568089,10.958779,-2.580902,10.943716,-2.585796,10.930902,-2.595106,10.915063,-2.595106,10.900000,-2.600000,4.500000,-2.600000,4.500000,-5.000000,4.494111,-5.018124,4.492846,-5.037146,4.484790,-5.046813,4.480902,-5.058779,4.465483,-5.069982,
4.453280,-5.084625,4.441081,-5.087711,4.430902,-5.095106,4.411842,-5.095106,4.393363,-5.099780,4.381681,-5.095106,4.369098,-5.095106,4.353676,-5.083901,4.335982,-5.076822,-1.664018,-0.076822,-1.677110,-0.056028,-1.692845,-0.037146,-1.693299,-0.030314,-1.696947,-0.024521,-1.695316,0.000000,-1.696947,0.024521,-1.693299,0.030314,-1.692845,0.037146,-1.677110,0.056028,-1.664018,0.076822,
4.335982,5.076822,4.353676,5.083901,4.369098,5.095106,4.381681,5.095106,4.393363,5.099780,4.411842,5.095106,4.411842,5.095106,$1*%
%AMFreePoly1*
4,1,48,0.468453,2.455718,0.772542,2.377641,1.064448,2.262068,1.339567,2.110820,1.593560,1.926283,1.822422,1.711368,1.955916,1.550000,3.250000,1.550000,3.285355,1.535355,3.300000,1.500000,3.300000,-1.500000,3.285355,-1.535355,3.250000,-1.550000,1.955916,-1.550000,1.822422,-1.711368,1.593560,-1.926283,1.339567,-2.110820,1.064448,-2.262068,0.772542,-2.377641,0.468453,-2.455718,
0.156976,-2.495067,-0.156976,-2.495067,-0.468453,-2.455718,-0.772542,-2.377641,-1.064448,-2.262068,-1.339567,-2.110820,-1.593560,-1.926283,-1.822422,-1.711368,-2.022542,-1.469463,-2.190767,-1.204384,-2.324441,-0.920311,-2.421458,-0.621725,-2.480287,-0.313333,-2.500000,0.000000,-2.480287,0.313333,-2.421458,0.621725,-2.324441,0.920311,-2.190767,1.204384,-2.022542,1.469463,-1.822422,1.711368,
-1.593560,1.926283,-1.339567,2.110820,-1.064448,2.262068,-0.772542,2.377641,-0.468453,2.455718,-0.156976,2.495067,0.156976,2.495067,0.468453,2.455718,0.468453,2.455718,$1*%
%AMFreePoly2*
4,1,34,6.500000,-3.000000,0.000000,-3.000000,0.000000,-2.998354,-0.313585,-2.983566,-0.654430,-2.927750,-0.986600,-2.833129,-1.305693,-2.700956,-1.607480,-2.532984,-1.887961,-2.331438,-2.143418,-2.098991,-2.370465,-1.838721,-2.566093,-1.554081,-2.727708,-1.248842,-2.853170,-0.927051,-2.940814,-0.592972,-2.989479,-0.251034,-2.998520,0.094232,-2.967817,0.438249,-2.897777,0.776457,-2.789329,1.104374,
-2.643910,1.417652,-2.463448,1.712141,-2.250333,1.983936,-2.007392,2.229434,-1.737844,2.445383,-1.445261,2.628920,-1.133522,2.777612,-0.806759,2.889488,-0.469303,2.963065,-0.125627,2.997368,0.000000,2.995395,0.000000,3.000000,6.500000,3.000000,6.500000,-3.000000,6.500000,-3.000000,$1*%
G04 Aperture macros list end*
%ADD10C,0.100000*%
%ADD11C,0.150000*%
%ADD12C,0.300000*%
%ADD13C,0.400000*%
%ADD14C,0.200000*%
%ADD15FreePoly0,270.000000*%
%ADD16FreePoly1,270.000000*%
%ADD17C,5.000000*%
%ADD18FreePoly0,0.000000*%
%ADD19FreePoly1,0.000000*%
%ADD20FreePoly0,180.000000*%
%ADD21FreePoly1,180.000000*%
%ADD22FreePoly0,90.000000*%
%ADD23FreePoly1,90.000000*%
%ADD24FreePoly2,355.000000*%
%ADD25FreePoly2,220.000000*%
%ADD26FreePoly2,0.000000*%
%ADD27FreePoly2,191.500000*%
%ADD28FreePoly2,215.000000*%
%ADD29FreePoly2,180.000000*%
%ADD30FreePoly2,280.000000*%
%ADD31FreePoly2,145.000000*%
%ADD32FreePoly2,185.000000*%
%ADD33FreePoly2,58.000000*%
%ADD34FreePoly2,328.000000*%
%ADD35FreePoly2,260.000000*%
%ADD36FreePoly2,348.500000*%
%ADD37FreePoly2,11.000000*%
%ADD38FreePoly2,35.000000*%
%ADD39FreePoly2,124.500000*%
%ADD40FreePoly2,168.500000*%
%ADD41FreePoly2,324.500000*%
%ADD42R,1.600000X3.000000*%
%ADD43R,1.000000X4.500000*%
%ADD44O,1.800000X1.800000*%
%ADD45O,1.500000X1.500000*%
%ADD46R,3.500000X1.700000*%
%ADD47O,1.700000X1.700000*%
%ADD48R,1.700000X1.700000*%
%ADD49R,1.700000X3.500000*%
%ADD50R,1.500000X1.000000*%
G04 APERTURE END LIST*
D10*
D11*
X177002200Y-166007200D02*
X177002200Y-198007200D01*
X285002200Y-198007200D01*
X285002200Y-166007200D01*
X177002200Y-166007200D01*
D10*
D11*
X10000000Y-10000000D02*
X10000000Y-200007200D01*
X287002200Y-200007200D01*
X287002200Y-10000000D01*
X10000000Y-10000000D01*
D10*
D11*
X12000000Y-12000000D02*
X12000000Y-198007200D01*
X285002200Y-198007200D01*
X285002200Y-12000000D01*
X12000000Y-12000000D01*
D10*
D11*
X60000000Y-12000000D02*
X60000000Y-10000000D01*
D10*
D11*
X110000000Y-12000000D02*
X110000000Y-10000000D01*
D10*
D11*
X160000000Y-12000000D02*
X160000000Y-10000000D01*
D10*
D11*
X210000000Y-12000000D02*
X210000000Y-10000000D01*
D10*
D11*
X260000000Y-12000000D02*
X260000000Y-10000000D01*
D10*
D11*
X36065476Y-11588095D02*
X35322619Y-11588095D01*
X35694047Y-11588095D02*
X35694047Y-10288095D01*
X35570238Y-10473809D01*
X35446428Y-10597619D01*
X35322619Y-10659523D01*
D10*
D11*
X85322619Y-10411904D02*
X85384523Y-10350000D01*
X85508333Y-10288095D01*
X85817857Y-10288095D01*
X85941666Y-10350000D01*
X86003571Y-10411904D01*
X86065476Y-10535714D01*
X86065476Y-10659523D01*
X86003571Y-10845238D01*
X85260714Y-11588095D01*
X86065476Y-11588095D01*
D10*
D11*
X135260714Y-10288095D02*
X136065476Y-10288095D01*
X135632142Y-10783333D01*
X135817857Y-10783333D01*
X135941666Y-10845238D01*
X136003571Y-10907142D01*
X136065476Y-11030952D01*
X136065476Y-11340476D01*
X136003571Y-11464285D01*
X135941666Y-11526190D01*
X135817857Y-11588095D01*
X135446428Y-11588095D01*
X135322619Y-11526190D01*
X135260714Y-11464285D01*
D10*
D11*
X185941666Y-10721428D02*
X185941666Y-11588095D01*
X185632142Y-10226190D02*
X185322619Y-11154761D01*
X186127380Y-11154761D01*
D10*
D11*
X236003571Y-10288095D02*
X235384523Y-10288095D01*
X235322619Y-10907142D01*
X235384523Y-10845238D01*
X235508333Y-10783333D01*
X235817857Y-10783333D01*
X235941666Y-10845238D01*
X236003571Y-10907142D01*
X236065476Y-11030952D01*
X236065476Y-11340476D01*
X236003571Y-11464285D01*
X235941666Y-11526190D01*
X235817857Y-11588095D01*
X235508333Y-11588095D01*
X235384523Y-11526190D01*
X235322619Y-11464285D01*
D10*
D11*
X285941666Y-10288095D02*
X285694047Y-10288095D01*
X285570238Y-10350000D01*
X285508333Y-10411904D01*
X285384523Y-10597619D01*
X285322619Y-10845238D01*
X285322619Y-11340476D01*
X285384523Y-11464285D01*
X285446428Y-11526190D01*
X285570238Y-11588095D01*
X285817857Y-11588095D01*
X285941666Y-11526190D01*
X286003571Y-11464285D01*
X286065476Y-11340476D01*
X286065476Y-11030952D01*
X286003571Y-10907142D01*
X285941666Y-10845238D01*
X285817857Y-10783333D01*
X285570238Y-10783333D01*
X285446428Y-10845238D01*
X285384523Y-10907142D01*
X285322619Y-11030952D01*
D10*
D11*
X60000000Y-198007200D02*
X60000000Y-200007200D01*
D10*
D11*
X110000000Y-198007200D02*
X110000000Y-200007200D01*
D10*
D11*
X160000000Y-198007200D02*
X160000000Y-200007200D01*
D10*
D11*
X210000000Y-198007200D02*
X210000000Y-200007200D01*
D10*
D11*
X260000000Y-198007200D02*
X260000000Y-200007200D01*
D10*
D11*
X36065476Y-199595295D02*
X35322619Y-199595295D01*
X35694047Y-199595295D02*
X35694047Y-198295295D01*
X35570238Y-198481009D01*
X35446428Y-198604819D01*
X35322619Y-198666723D01*
D10*
D11*
X85322619Y-198419104D02*
X85384523Y-198357200D01*
X85508333Y-198295295D01*
X85817857Y-198295295D01*
X85941666Y-198357200D01*
X86003571Y-198419104D01*
X86065476Y-198542914D01*
X86065476Y-198666723D01*
X86003571Y-198852438D01*
X85260714Y-199595295D01*
X86065476Y-199595295D01*
D10*
D11*
X135260714Y-198295295D02*
X136065476Y-198295295D01*
X135632142Y-198790533D01*
X135817857Y-198790533D01*
X135941666Y-198852438D01*
X136003571Y-198914342D01*
X136065476Y-199038152D01*
X136065476Y-199347676D01*
X136003571Y-199471485D01*
X135941666Y-199533390D01*
X135817857Y-199595295D01*
X135446428Y-199595295D01*
X135322619Y-199533390D01*
X135260714Y-199471485D01*
D10*
D11*
X185941666Y-198728628D02*
X185941666Y-199595295D01*
X185632142Y-198233390D02*
X185322619Y-199161961D01*
X186127380Y-199161961D01*
D10*
D11*
X236003571Y-198295295D02*
X235384523Y-198295295D01*
X235322619Y-198914342D01*
X235384523Y-198852438D01*
X235508333Y-198790533D01*
X235817857Y-198790533D01*
X235941666Y-198852438D01*
X236003571Y-198914342D01*
X236065476Y-199038152D01*
X236065476Y-199347676D01*
X236003571Y-199471485D01*
X235941666Y-199533390D01*
X235817857Y-199595295D01*
X235508333Y-199595295D01*
X235384523Y-199533390D01*
X235322619Y-199471485D01*
D10*
D11*
X285941666Y-198295295D02*
X285694047Y-198295295D01*
X285570238Y-198357200D01*
X285508333Y-198419104D01*
X285384523Y-198604819D01*
X285322619Y-198852438D01*
X285322619Y-199347676D01*
X285384523Y-199471485D01*
X285446428Y-199533390D01*
X285570238Y-199595295D01*
X285817857Y-199595295D01*
X285941666Y-199533390D01*
X286003571Y-199471485D01*
X286065476Y-199347676D01*
X286065476Y-199038152D01*
X286003571Y-198914342D01*
X285941666Y-198852438D01*
X285817857Y-198790533D01*
X285570238Y-198790533D01*
X285446428Y-198852438D01*
X285384523Y-198914342D01*
X285322619Y-199038152D01*
D10*
D11*
X10000000Y-60000000D02*
X12000000Y-60000000D01*
D10*
D11*
X10000000Y-110000000D02*
X12000000Y-110000000D01*
D10*
D11*
X10000000Y-160000000D02*
X12000000Y-160000000D01*
D10*
D11*
X10690476Y-35216666D02*
X11309523Y-35216666D01*
X10566666Y-35588095D02*
X11000000Y-34288095D01*
X11433333Y-35588095D01*
D10*
D11*
X11092857Y-84907142D02*
X11278571Y-84969047D01*
X11340476Y-85030952D01*
X11402380Y-85154761D01*
X11402380Y-85340476D01*
X11340476Y-85464285D01*
X11278571Y-85526190D01*
X11154761Y-85588095D01*
X10659523Y-85588095D01*
X10659523Y-84288095D01*
X11092857Y-84288095D01*
X11216666Y-84350000D01*
X11278571Y-84411904D01*
X11340476Y-84535714D01*
X11340476Y-84659523D01*
X11278571Y-84783333D01*
X11216666Y-84845238D01*
X11092857Y-84907142D01*
X10659523Y-84907142D01*
D10*
D11*
X11402380Y-135464285D02*
X11340476Y-135526190D01*
X11154761Y-135588095D01*
X11030952Y-135588095D01*
X10845238Y-135526190D01*
X10721428Y-135402380D01*
X10659523Y-135278571D01*
X10597619Y-135030952D01*
X10597619Y-134845238D01*
X10659523Y-134597619D01*
X10721428Y-134473809D01*
X10845238Y-134350000D01*
X11030952Y-134288095D01*
X11154761Y-134288095D01*
X11340476Y-134350000D01*
X11402380Y-134411904D01*
D10*
D11*
X10659523Y-185588095D02*
X10659523Y-184288095D01*
X10969047Y-184288095D01*
X11154761Y-184350000D01*
X11278571Y-184473809D01*
X11340476Y-184597619D01*
X11402380Y-184845238D01*
X11402380Y-185030952D01*
X11340476Y-185278571D01*
X11278571Y-185402380D01*
X11154761Y-185526190D01*
X10969047Y-185588095D01*
X10659523Y-185588095D01*
D10*
D11*
X287002200Y-60000000D02*
X285002200Y-60000000D01*
D10*
D11*
X287002200Y-110000000D02*
X285002200Y-110000000D01*
D10*
D11*
X287002200Y-160000000D02*
X285002200Y-160000000D01*
D10*
D11*
X285692676Y-35216666D02*
X286311723Y-35216666D01*
X285568866Y-35588095D02*
X286002200Y-34288095D01*
X286435533Y-35588095D01*
D10*
D11*
X286095057Y-84907142D02*
X286280771Y-84969047D01*
X286342676Y-85030952D01*
X286404580Y-85154761D01*
X286404580Y-85340476D01*
X286342676Y-85464285D01*
X286280771Y-85526190D01*
X286156961Y-85588095D01*
X285661723Y-85588095D01*
X285661723Y-84288095D01*
X286095057Y-84288095D01*
X286218866Y-84350000D01*
X286280771Y-84411904D01*
X286342676Y-84535714D01*
X286342676Y-84659523D01*
X286280771Y-84783333D01*
X286218866Y-84845238D01*
X286095057Y-84907142D01*
X285661723Y-84907142D01*
D10*
D11*
X286404580Y-135464285D02*
X286342676Y-135526190D01*
X286156961Y-135588095D01*
X286033152Y-135588095D01*
X285847438Y-135526190D01*
X285723628Y-135402380D01*
X285661723Y-135278571D01*
X285599819Y-135030952D01*
X285599819Y-134845238D01*
X285661723Y-134597619D01*
X285723628Y-134473809D01*
X285847438Y-134350000D01*
X286033152Y-134288095D01*
X286156961Y-134288095D01*
X286342676Y-134350000D01*
X286404580Y-134411904D01*
D10*
D11*
X285661723Y-185588095D02*
X285661723Y-184288095D01*
X285971247Y-184288095D01*
X286156961Y-184350000D01*
X286280771Y-184473809D01*
X286342676Y-184597619D01*
X286404580Y-184845238D01*
X286404580Y-185030952D01*
X286342676Y-185278571D01*
X286280771Y-185402380D01*
X286156961Y-185526190D01*
X285971247Y-185588095D01*
X285661723Y-185588095D01*
D10*
D11*
X200434342Y-193785771D02*
X200434342Y-192285771D01*
X200791485Y-192285771D01*
X201005771Y-192357200D01*
X201148628Y-192500057D01*
X201220057Y-192642914D01*
X201291485Y-192928628D01*
X201291485Y-193142914D01*
X201220057Y-193428628D01*
X201148628Y-193571485D01*
X201005771Y-193714342D01*
X200791485Y-193785771D01*
X200434342Y-193785771D01*
X202577200Y-193785771D02*
X202577200Y-193000057D01*
X202505771Y-192857200D01*
X202362914Y-192785771D01*
X202077200Y-192785771D01*
X201934342Y-192857200D01*
X202577200Y-193714342D02*
X202434342Y-193785771D01*
X202077200Y-193785771D01*
X201934342Y-193714342D01*
X201862914Y-193571485D01*
X201862914Y-193428628D01*
X201934342Y-193285771D01*
X202077200Y-193214342D01*
X202434342Y-193214342D01*
X202577200Y-193142914D01*
X203077200Y-192785771D02*
X203648628Y-192785771D01*
X203291485Y-192285771D02*
X203291485Y-193571485D01*
X203362914Y-193714342D01*
X203505771Y-193785771D01*
X203648628Y-193785771D01*
X204720057Y-193714342D02*
X204577200Y-193785771D01*
X204291485Y-193785771D01*
X204148628Y-193714342D01*
X204077200Y-193571485D01*
X204077200Y-193000057D01*
X204148628Y-192857200D01*
X204291485Y-192785771D01*
X204577200Y-192785771D01*
X204720057Y-192857200D01*
X204791485Y-193000057D01*
X204791485Y-193142914D01*
X204077200Y-193285771D01*
X205434342Y-193642914D02*
X205505771Y-193714342D01*
X205434342Y-193785771D01*
X205362914Y-193714342D01*
X205434342Y-193642914D01*
X205434342Y-193785771D01*
X205434342Y-192857200D02*
X205505771Y-192928628D01*
X205434342Y-193000057D01*
X205362914Y-192928628D01*
X205434342Y-192857200D01*
X205434342Y-193000057D01*
D10*
D11*
X177002200Y-194507200D02*
X285002200Y-194507200D01*
D10*
D11*
X178434342Y-196585771D02*
X178434342Y-195085771D01*
X179291485Y-196585771D02*
X178648628Y-195728628D01*
X179291485Y-195085771D02*
X178434342Y-195942914D01*
X179934342Y-196585771D02*
X179934342Y-195585771D01*
X179934342Y-195085771D02*
X179862914Y-195157200D01*
X179934342Y-195228628D01*
X180005771Y-195157200D01*
X179934342Y-195085771D01*
X179934342Y-195228628D01*
X181505771Y-196442914D02*
X181434342Y-196514342D01*
X181220057Y-196585771D01*
X181077200Y-196585771D01*
X180862914Y-196514342D01*
X180720057Y-196371485D01*
X180648628Y-196228628D01*
X180577200Y-195942914D01*
X180577200Y-195728628D01*
X180648628Y-195442914D01*
X180720057Y-195300057D01*
X180862914Y-195157200D01*
X181077200Y-195085771D01*
X181220057Y-195085771D01*
X181434342Y-195157200D01*
X181505771Y-195228628D01*
X182791485Y-196585771D02*
X182791485Y-195800057D01*
X182720057Y-195657200D01*
X182577200Y-195585771D01*
X182291485Y-195585771D01*
X182148628Y-195657200D01*
X182791485Y-196514342D02*
X182648628Y-196585771D01*
X182291485Y-196585771D01*
X182148628Y-196514342D01*
X182077200Y-196371485D01*
X182077200Y-196228628D01*
X182148628Y-196085771D01*
X182291485Y-196014342D01*
X182648628Y-196014342D01*
X182791485Y-195942914D01*
X184148628Y-196585771D02*
X184148628Y-195085771D01*
X184148628Y-196514342D02*
X184005771Y-196585771D01*
X183720057Y-196585771D01*
X183577200Y-196514342D01*
X183505771Y-196442914D01*
X183434342Y-196300057D01*
X183434342Y-195871485D01*
X183505771Y-195728628D01*
X183577200Y-195657200D01*
X183720057Y-195585771D01*
X184005771Y-195585771D01*
X184148628Y-195657200D01*
X186005771Y-195800057D02*
X186505771Y-195800057D01*
X186720057Y-196585771D02*
X186005771Y-196585771D01*
X186005771Y-195085771D01*
X186720057Y-195085771D01*
X187362914Y-196442914D02*
X187434342Y-196514342D01*
X187362914Y-196585771D01*
X187291485Y-196514342D01*
X187362914Y-196442914D01*
X187362914Y-196585771D01*
X188077200Y-196585771D02*
X188077200Y-195085771D01*
X188434342Y-195085771D01*
X188648628Y-195157200D01*
X188791485Y-195300057D01*
X188862914Y-195442914D01*
X188934342Y-195728628D01*
X188934342Y-195942914D01*
X188862914Y-196228628D01*
X188791485Y-196371485D01*
X188648628Y-196514342D01*
X188434342Y-196585771D01*
X188077200Y-196585771D01*
X189577200Y-196442914D02*
X189648628Y-196514342D01*
X189577200Y-196585771D01*
X189505771Y-196514342D01*
X189577200Y-196442914D01*
X189577200Y-196585771D01*
X190220057Y-196157200D02*
X190934342Y-196157200D01*
X190077200Y-196585771D02*
X190577200Y-195085771D01*
X191077200Y-196585771D01*
X191577200Y-196442914D02*
X191648628Y-196514342D01*
X191577200Y-196585771D01*
X191505771Y-196514342D01*
X191577200Y-196442914D01*
X191577200Y-196585771D01*
X194577200Y-196585771D02*
X194577200Y-195085771D01*
X194720057Y-196014342D02*
X195148628Y-196585771D01*
X195148628Y-195585771D02*
X194577200Y-196157200D01*
X195791485Y-196585771D02*
X195791485Y-195585771D01*
X195791485Y-195085771D02*
X195720057Y-195157200D01*
X195791485Y-195228628D01*
X195862914Y-195157200D01*
X195791485Y-195085771D01*
X195791485Y-195228628D01*
X197148628Y-196514342D02*
X197005771Y-196585771D01*
X196720057Y-196585771D01*
X196577200Y-196514342D01*
X196505771Y-196442914D01*
X196434342Y-196300057D01*
X196434342Y-195871485D01*
X196505771Y-195728628D01*
X196577200Y-195657200D01*
X196720057Y-195585771D01*
X197005771Y-195585771D01*
X197148628Y-195657200D01*
X198434342Y-196585771D02*
X198434342Y-195800057D01*
X198362914Y-195657200D01*
X198220057Y-195585771D01*
X197934342Y-195585771D01*
X197791485Y-195657200D01*
X198434342Y-196514342D02*
X198291485Y-196585771D01*
X197934342Y-196585771D01*
X197791485Y-196514342D01*
X197720057Y-196371485D01*
X197720057Y-196228628D01*
X197791485Y-196085771D01*
X197934342Y-196014342D01*
X198291485Y-196014342D01*
X198434342Y-195942914D01*
X199791485Y-196585771D02*
X199791485Y-195085771D01*
X199791485Y-196514342D02*
X199648628Y-196585771D01*
X199362914Y-196585771D01*
X199220057Y-196514342D01*
X199148628Y-196442914D01*
X199077200Y-196300057D01*
X199077200Y-195871485D01*
X199148628Y-195728628D01*
X199220057Y-195657200D01*
X199362914Y-195585771D01*
X199648628Y-195585771D01*
X199791485Y-195657200D01*
X202291485Y-195085771D02*
X202005771Y-195085771D01*
X201862914Y-195157200D01*
X201791485Y-195228628D01*
X201648628Y-195442914D01*
X201577200Y-195728628D01*
X201577200Y-196300057D01*
X201648628Y-196442914D01*
X201720057Y-196514342D01*
X201862914Y-196585771D01*
X202148628Y-196585771D01*
X202291485Y-196514342D01*
X202362914Y-196442914D01*
X202434342Y-196300057D01*
X202434342Y-195942914D01*
X202362914Y-195800057D01*
X202291485Y-195728628D01*
X202148628Y-195657200D01*
X201862914Y-195657200D01*
X201720057Y-195728628D01*
X201648628Y-195800057D01*
X201577200Y-195942914D01*
X203077200Y-196442914D02*
X203148628Y-196514342D01*
X203077200Y-196585771D01*
X203005771Y-196514342D01*
X203077200Y-196442914D01*
X203077200Y-196585771D01*
X204077200Y-195085771D02*
X204220057Y-195085771D01*
X204362914Y-195157200D01*
X204434342Y-195228628D01*
X204505771Y-195371485D01*
X204577200Y-195657200D01*
X204577200Y-196014342D01*
X204505771Y-196300057D01*
X204434342Y-196442914D01*
X204362914Y-196514342D01*
X204220057Y-196585771D01*
X204077200Y-196585771D01*
X203934342Y-196514342D01*
X203862914Y-196442914D01*
X203791485Y-196300057D01*
X203720057Y-196014342D01*
X203720057Y-195657200D01*
X203791485Y-195371485D01*
X203862914Y-195228628D01*
X203934342Y-195157200D01*
X204077200Y-195085771D01*
X205220057Y-196442914D02*
X205291485Y-196514342D01*
X205220057Y-196585771D01*
X205148628Y-196514342D01*
X205220057Y-196442914D01*
X205220057Y-196585771D01*
X206648628Y-195085771D02*
X205934342Y-195085771D01*
X205862914Y-195800057D01*
X205934342Y-195728628D01*
X206077200Y-195657200D01*
X206434342Y-195657200D01*
X206577200Y-195728628D01*
X206648628Y-195800057D01*
X206720057Y-195942914D01*
X206720057Y-196300057D01*
X206648628Y-196442914D01*
X206577200Y-196514342D01*
X206434342Y-196585771D01*
X206077200Y-196585771D01*
X205934342Y-196514342D01*
X205862914Y-196442914D01*
X207362914Y-196014342D02*
X208505771Y-196014342D01*
X209862914Y-196585771D02*
X209862914Y-195800057D01*
X209791485Y-195657200D01*
X209648628Y-195585771D01*
X209362914Y-195585771D01*
X209220057Y-195657200D01*
X209862914Y-196514342D02*
X209720057Y-196585771D01*
X209362914Y-196585771D01*
X209220057Y-196514342D01*
X209148628Y-196371485D01*
X209148628Y-196228628D01*
X209220057Y-196085771D01*
X209362914Y-196014342D01*
X209720057Y-196014342D01*
X209862914Y-195942914D01*
X211220057Y-195085771D02*
X210934342Y-195085771D01*
X210791485Y-195157200D01*
X210720057Y-195228628D01*
X210577200Y-195442914D01*
X210505771Y-195728628D01*
X210505771Y-196300057D01*
X210577200Y-196442914D01*
X210648628Y-196514342D01*
X210791485Y-196585771D01*
X211077200Y-196585771D01*
X211220057Y-196514342D01*
X211291485Y-196442914D01*
X211362914Y-196300057D01*
X211362914Y-195942914D01*
X211291485Y-195800057D01*
X211220057Y-195728628D01*
X211077200Y-195657200D01*
X210791485Y-195657200D01*
X210648628Y-195728628D01*
X210577200Y-195800057D01*
X210505771Y-195942914D01*
X212648628Y-196514342D02*
X212505771Y-196585771D01*
X212220057Y-196585771D01*
X212077200Y-196514342D01*
X212005771Y-196442914D01*
X211934342Y-196300057D01*
X211934342Y-195871485D01*
X212005771Y-195728628D01*
X212077200Y-195657200D01*
X212220057Y-195585771D01*
X212505771Y-195585771D01*
X212648628Y-195657200D01*
X213934342Y-196585771D02*
X213934342Y-195800057D01*
X213862914Y-195657200D01*
X213720057Y-195585771D01*
X213434342Y-195585771D01*
X213291485Y-195657200D01*
X213934342Y-196514342D02*
X213791485Y-196585771D01*
X213434342Y-196585771D01*
X213291485Y-196514342D01*
X213220057Y-196371485D01*
X213220057Y-196228628D01*
X213291485Y-196085771D01*
X213434342Y-196014342D01*
X213791485Y-196014342D01*
X213934342Y-195942914D01*
X214505771Y-195085771D02*
X215505771Y-195085771D01*
X214862914Y-196585771D01*
X216362914Y-195085771D02*
X216505771Y-195085771D01*
X216648628Y-195157200D01*
X216720057Y-195228628D01*
X216791485Y-195371485D01*
X216862914Y-195657200D01*
X216862914Y-196014342D01*
X216791485Y-196300057D01*
X216720057Y-196442914D01*
X216648628Y-196514342D01*
X216505771Y-196585771D01*
X216362914Y-196585771D01*
X216220057Y-196514342D01*
X216148628Y-196442914D01*
X216077200Y-196300057D01*
X216005771Y-196014342D01*
X216005771Y-195657200D01*
X216077200Y-195371485D01*
X216148628Y-195228628D01*
X216220057Y-195157200D01*
X216362914Y-195085771D01*
X217434342Y-195228628D02*
X217505771Y-195157200D01*
X217648628Y-195085771D01*
X218005771Y-195085771D01*
X218148628Y-195157200D01*
X218220057Y-195228628D01*
X218291485Y-195371485D01*
X218291485Y-195514342D01*
X218220057Y-195728628D01*
X217362914Y-196585771D01*
X218291485Y-196585771D01*
X219505771Y-196514342D02*
X219362914Y-196585771D01*
X219077200Y-196585771D01*
X218934342Y-196514342D01*
X218862914Y-196371485D01*
X218862914Y-195800057D01*
X218934342Y-195657200D01*
X219077200Y-195585771D01*
X219362914Y-195585771D01*
X219505771Y-195657200D01*
X219577200Y-195800057D01*
X219577200Y-195942914D01*
X218862914Y-196085771D01*
X220291485Y-196585771D02*
X220577200Y-196585771D01*
X220720057Y-196514342D01*
X220791485Y-196442914D01*
X220934342Y-196228628D01*
X221005771Y-195942914D01*
X221005771Y-195371485D01*
X220934342Y-195228628D01*
X220862914Y-195157200D01*
X220720057Y-195085771D01*
X220434342Y-195085771D01*
X220291485Y-195157200D01*
X220220057Y-195228628D01*
X220148628Y-195371485D01*
X220148628Y-195728628D01*
X220220057Y-195871485D01*
X220291485Y-195942914D01*
X220434342Y-196014342D01*
X220720057Y-196014342D01*
X220862914Y-195942914D01*
X220934342Y-195871485D01*
X221005771Y-195728628D01*
X222434342Y-196585771D02*
X221577199Y-196585771D01*
X222005771Y-196585771D02*
X222005771Y-195085771D01*
X221862914Y-195300057D01*
X221720057Y-195442914D01*
X221577199Y-195514342D01*
X222862914Y-196014342D02*
X222934342Y-195942914D01*
X223077199Y-195871485D01*
X223362914Y-196014342D01*
X223505771Y-195942914D01*
X223577199Y-195871485D01*
X224934342Y-196585771D02*
X224077199Y-196585771D01*
X224505771Y-196585771D02*
X224505771Y-195085771D01*
X224362914Y-195300057D01*
X224220057Y-195442914D01*
X224077199Y-195514342D01*
X226362914Y-196585771D02*
X225505771Y-196585771D01*
X225934342Y-196585771D02*
X225934342Y-195085771D01*
X225791485Y-195300057D01*
X225648628Y-195442914D01*
X225505771Y-195514342D01*
X227648628Y-195085771D02*
X227362914Y-195085771D01*
X227220057Y-195157200D01*
X227148628Y-195228628D01*
X227005771Y-195442914D01*
X226934342Y-195728628D01*
X226934342Y-196300057D01*
X227005771Y-196442914D01*
X227077199Y-196514342D01*
X227220057Y-196585771D01*
X227505771Y-196585771D01*
X227648628Y-196514342D01*
X227720057Y-196442914D01*
X227791485Y-196300057D01*
X227791485Y-195942914D01*
X227720057Y-195800057D01*
X227648628Y-195728628D01*
X227505771Y-195657200D01*
X227220057Y-195657200D01*
X227077199Y-195728628D01*
X227005771Y-195800057D01*
X226934342Y-195942914D01*
X228220057Y-196014342D02*
X228291485Y-195942914D01*
X228434342Y-195871485D01*
X228720057Y-196014342D01*
X228862914Y-195942914D01*
X228934342Y-195871485D01*
X230148628Y-195585771D02*
X230148628Y-196585771D01*
X229505771Y-195585771D02*
X229505771Y-196371485D01*
X229577199Y-196514342D01*
X229720057Y-196585771D01*
X229934342Y-196585771D01*
X230077199Y-196514342D01*
X230148628Y-196442914D01*
X230862914Y-196585771D02*
X230862914Y-195085771D01*
X230862914Y-195657200D02*
X231005771Y-195585771D01*
X231291485Y-195585771D01*
X231434342Y-195657200D01*
X231505771Y-195728628D01*
X231577199Y-195871485D01*
X231577199Y-196300057D01*
X231505771Y-196442914D01*
X231434342Y-196514342D01*
X231291485Y-196585771D01*
X231005771Y-196585771D01*
X230862914Y-196514342D01*
X232862914Y-195585771D02*
X232862914Y-196585771D01*
X232220057Y-195585771D02*
X232220057Y-196371485D01*
X232291485Y-196514342D01*
X232434342Y-196585771D01*
X232648628Y-196585771D01*
X232791485Y-196514342D01*
X232862914Y-196442914D01*
X233577199Y-195585771D02*
X233577199Y-196585771D01*
X233577199Y-195728628D02*
X233648628Y-195657200D01*
X233791485Y-195585771D01*
X234005771Y-195585771D01*
X234148628Y-195657200D01*
X234220057Y-195800057D01*
X234220057Y-196585771D01*
X234720057Y-195585771D02*
X235291485Y-195585771D01*
X234934342Y-195085771D02*
X234934342Y-196371485D01*
X235005771Y-196514342D01*
X235148628Y-196585771D01*
X235291485Y-196585771D01*
X236434342Y-195585771D02*
X236434342Y-196585771D01*
X235791485Y-195585771D02*
X235791485Y-196371485D01*
X235862914Y-196514342D01*
X236005771Y-196585771D01*
X236220057Y-196585771D01*
X236362914Y-196514342D01*
X236434342Y-196442914D01*
X237077199Y-195228628D02*
X237148628Y-195157200D01*
X237291485Y-195085771D01*
X237648628Y-195085771D01*
X237791485Y-195157200D01*
X237862914Y-195228628D01*
X237934342Y-195371485D01*
X237934342Y-195514342D01*
X237862914Y-195728628D01*
X237005771Y-196585771D01*
X237934342Y-196585771D01*
X238862914Y-195085771D02*
X239005771Y-195085771D01*
X239148628Y-195157200D01*
X239220057Y-195228628D01*
X239291485Y-195371485D01*
X239362914Y-195657200D01*
X239362914Y-196014342D01*
X239291485Y-196300057D01*
X239220057Y-196442914D01*
X239148628Y-196514342D01*
X239005771Y-196585771D01*
X238862914Y-196585771D01*
X238720057Y-196514342D01*
X238648628Y-196442914D01*
X238577199Y-196300057D01*
X238505771Y-196014342D01*
X238505771Y-195657200D01*
X238577199Y-195371485D01*
X238648628Y-195228628D01*
X238720057Y-195157200D01*
X238862914Y-195085771D01*
X240005771Y-196442914D02*
X240077199Y-196514342D01*
X240005771Y-196585771D01*
X239934342Y-196514342D01*
X240005771Y-196442914D01*
X240005771Y-196585771D01*
X241005771Y-195085771D02*
X241148628Y-195085771D01*
X241291485Y-195157200D01*
X241362914Y-195228628D01*
X241434342Y-195371485D01*
X241505771Y-195657200D01*
X241505771Y-196014342D01*
X241434342Y-196300057D01*
X241362914Y-196442914D01*
X241291485Y-196514342D01*
X241148628Y-196585771D01*
X241005771Y-196585771D01*
X240862914Y-196514342D01*
X240791485Y-196442914D01*
X240720057Y-196300057D01*
X240648628Y-196014342D01*
X240648628Y-195657200D01*
X240720057Y-195371485D01*
X240791485Y-195228628D01*
X240862914Y-195157200D01*
X241005771Y-195085771D01*
X242791485Y-195585771D02*
X242791485Y-196585771D01*
X242434342Y-195014342D02*
X242077199Y-196085771D01*
X243005771Y-196085771D01*
X243577199Y-196442914D02*
X243648628Y-196514342D01*
X243577199Y-196585771D01*
X243505771Y-196514342D01*
X243577199Y-196442914D01*
X243577199Y-196585771D01*
X245077199Y-196585771D02*
X244220057Y-196585771D01*
X244648628Y-196585771D02*
X244648628Y-195085771D01*
X244505771Y-195300057D01*
X244362914Y-195442914D01*
X244220057Y-195514342D01*
D10*
D11*
X177002200Y-191507200D02*
X285002200Y-191507200D01*
D10*
D12*
X264411485Y-193785771D02*
X263911485Y-193071485D01*
X263554342Y-193785771D02*
X263554342Y-192285771D01*
X264125771Y-192285771D01*
X264268628Y-192357200D01*
X264340057Y-192428628D01*
X264411485Y-192571485D01*
X264411485Y-192785771D01*
X264340057Y-192928628D01*
X264268628Y-193000057D01*
X264125771Y-193071485D01*
X263554342Y-193071485D01*
X265625771Y-193714342D02*
X265482914Y-193785771D01*
X265197200Y-193785771D01*
X265054342Y-193714342D01*
X264982914Y-193571485D01*
X264982914Y-193000057D01*
X265054342Y-192857200D01*
X265197200Y-192785771D01*
X265482914Y-192785771D01*
X265625771Y-192857200D01*
X265697200Y-193000057D01*
X265697200Y-193142914D01*
X264982914Y-193285771D01*
X266197200Y-192785771D02*
X266554342Y-193785771D01*
X266911485Y-192785771D01*
X267482914Y-193642914D02*
X267554342Y-193714342D01*
X267482914Y-193785771D01*
X267411485Y-193714342D01*
X267482914Y-193642914D01*
X267482914Y-193785771D01*
X267482914Y-192857200D02*
X267554342Y-192928628D01*
X267482914Y-193000057D01*
X267411485Y-192928628D01*
X267482914Y-192857200D01*
X267482914Y-193000057D01*
D10*
D11*
X178362914Y-193714342D02*
X178577200Y-193785771D01*
X178934342Y-193785771D01*
X179077200Y-193714342D01*
X179148628Y-193642914D01*
X179220057Y-193500057D01*
X179220057Y-193357200D01*
X179148628Y-193214342D01*
X179077200Y-193142914D01*
X178934342Y-193071485D01*
X178648628Y-193000057D01*
X178505771Y-192928628D01*
X178434342Y-192857200D01*
X178362914Y-192714342D01*
X178362914Y-192571485D01*
X178434342Y-192428628D01*
X178505771Y-192357200D01*
X178648628Y-192285771D01*
X179005771Y-192285771D01*
X179220057Y-192357200D01*
X179862914Y-193785771D02*
X179862914Y-192785771D01*
X179862914Y-192285771D02*
X179791485Y-192357200D01*
X179862914Y-192428628D01*
X179934342Y-192357200D01*
X179862914Y-192285771D01*
X179862914Y-192428628D01*
X180434342Y-192785771D02*
X181220057Y-192785771D01*
X180434342Y-193785771D01*
X181220057Y-193785771D01*
X182362914Y-193714342D02*
X182220057Y-193785771D01*
X181934342Y-193785771D01*
X181791485Y-193714342D01*
X181720057Y-193571485D01*
X181720057Y-193000057D01*
X181791485Y-192857200D01*
X181934342Y-192785771D01*
X182220057Y-192785771D01*
X182362914Y-192857200D01*
X182434342Y-193000057D01*
X182434342Y-193142914D01*
X181720057Y-193285771D01*
X183077200Y-193642914D02*
X183148628Y-193714342D01*
X183077200Y-193785771D01*
X183005771Y-193714342D01*
X183077200Y-193642914D01*
X183077200Y-193785771D01*
X183077200Y-192857200D02*
X183148628Y-192928628D01*
X183077200Y-193000057D01*
X183005771Y-192928628D01*
X183077200Y-192857200D01*
X183077200Y-193000057D01*
X184862914Y-193357200D02*
X185577200Y-193357200D01*
X184720057Y-193785771D02*
X185220057Y-192285771D01*
X185720057Y-193785771D01*
X186862914Y-192785771D02*
X186862914Y-193785771D01*
X186505771Y-192214342D02*
X186148628Y-193285771D01*
X187077200Y-193285771D01*
D10*
D11*
X263434342Y-196585771D02*
X263434342Y-195085771D01*
X264791485Y-196585771D02*
X264791485Y-195085771D01*
X264791485Y-196514342D02*
X264648628Y-196585771D01*
X264362914Y-196585771D01*
X264220057Y-196514342D01*
X264148628Y-196442914D01*
X264077200Y-196300057D01*
X264077200Y-195871485D01*
X264148628Y-195728628D01*
X264220057Y-195657200D01*
X264362914Y-195585771D01*
X264648628Y-195585771D01*
X264791485Y-195657200D01*
X265505771Y-196442914D02*
X265577200Y-196514342D01*
X265505771Y-196585771D01*
X265434342Y-196514342D01*
X265505771Y-196442914D01*
X265505771Y-196585771D01*
X265505771Y-195657200D02*
X265577200Y-195728628D01*
X265505771Y-195800057D01*
X265434342Y-195728628D01*
X265505771Y-195657200D01*
X265505771Y-195800057D01*
X268148628Y-196585771D02*
X267291485Y-196585771D01*
X267720057Y-196585771D02*
X267720057Y-195085771D01*
X267577200Y-195300057D01*
X267434342Y-195442914D01*
X267291485Y-195514342D01*
X269862914Y-195014342D02*
X268577200Y-196942914D01*
X271148628Y-196585771D02*
X270291485Y-196585771D01*
X270720057Y-196585771D02*
X270720057Y-195085771D01*
X270577200Y-195300057D01*
X270434342Y-195442914D01*
X270291485Y-195514342D01*
D10*
D11*
X177002200Y-187507200D02*
X285002200Y-187507200D01*
D10*
D13*
X178714580Y-188211961D02*
X179857438Y-188211961D01*
X179036009Y-190211961D02*
X179286009Y-188211961D01*
X180274104Y-190211961D02*
X180440771Y-188878628D01*
X180524104Y-188211961D02*
X180416961Y-188307200D01*
X180500295Y-188402438D01*
X180607438Y-188307200D01*
X180524104Y-188211961D01*
X180500295Y-188402438D01*
X181107438Y-188878628D02*
X181869342Y-188878628D01*
X181476485Y-188211961D02*
X181262200Y-189926247D01*
X181333628Y-190116723D01*
X181512200Y-190211961D01*
X181702676Y-190211961D01*
X182655057Y-190211961D02*
X182476485Y-190116723D01*
X182405057Y-189926247D01*
X182619342Y-188211961D01*
X184190771Y-190116723D02*
X183988390Y-190211961D01*
X183607438Y-190211961D01*
X183428866Y-190116723D01*
X183357438Y-189926247D01*
X183452676Y-189164342D01*
X183571723Y-188973866D01*
X183774104Y-188878628D01*
X184155057Y-188878628D01*
X184333628Y-188973866D01*
X184405057Y-189164342D01*
X184381247Y-189354819D01*
X183405057Y-189545295D01*
X185155057Y-190021485D02*
X185238390Y-190116723D01*
X185131247Y-190211961D01*
X185047914Y-190116723D01*
X185155057Y-190021485D01*
X185131247Y-190211961D01*
X185286009Y-188973866D02*
X185369342Y-189069104D01*
X185262200Y-189164342D01*
X185178866Y-189069104D01*
X185286009Y-188973866D01*
X185262200Y-189164342D01*
D10*
D11*
X178934342Y-185600057D02*
X178434342Y-185600057D01*
X178434342Y-186385771D02*
X178434342Y-184885771D01*
X179148628Y-184885771D01*
X179720057Y-186385771D02*
X179720057Y-185385771D01*
X179720057Y-184885771D02*
X179648628Y-184957200D01*
X179720057Y-185028628D01*
X179791485Y-184957200D01*
X179720057Y-184885771D01*
X179720057Y-185028628D01*
X180648628Y-186385771D02*
X180505771Y-186314342D01*
X180434342Y-186171485D01*
X180434342Y-184885771D01*
X181791485Y-186314342D02*
X181648628Y-186385771D01*
X181362914Y-186385771D01*
X181220057Y-186314342D01*
X181148628Y-186171485D01*
X181148628Y-185600057D01*
X181220057Y-185457200D01*
X181362914Y-185385771D01*
X181648628Y-185385771D01*
X181791485Y-185457200D01*
X181862914Y-185600057D01*
X181862914Y-185742914D01*
X181148628Y-185885771D01*
X182505771Y-186242914D02*
X182577200Y-186314342D01*
X182505771Y-186385771D01*
X182434342Y-186314342D01*
X182505771Y-186242914D01*
X182505771Y-186385771D01*
X182505771Y-185457200D02*
X182577200Y-185528628D01*
X182505771Y-185600057D01*
X182434342Y-185528628D01*
X182505771Y-185457200D01*
X182505771Y-185600057D01*
X184362914Y-186385771D02*
X184362914Y-184885771D01*
X184505771Y-185814342D02*
X184934342Y-186385771D01*
X184934342Y-185385771D02*
X184362914Y-185957200D01*
X185577200Y-186385771D02*
X185577200Y-185385771D01*
X185577200Y-184885771D02*
X185505771Y-184957200D01*
X185577200Y-185028628D01*
X185648628Y-184957200D01*
X185577200Y-184885771D01*
X185577200Y-185028628D01*
X186934342Y-186385771D02*
X186934342Y-184885771D01*
X186934342Y-186314342D02*
X186791485Y-186385771D01*
X186505771Y-186385771D01*
X186362914Y-186314342D01*
X186291485Y-186242914D01*
X186220057Y-186100057D01*
X186220057Y-185671485D01*
X186291485Y-185528628D01*
X186362914Y-185457200D01*
X186505771Y-185385771D01*
X186791485Y-185385771D01*
X186934342Y-185457200D01*
X187577200Y-186314342D02*
X187720057Y-186385771D01*
X188005771Y-186385771D01*
X188148628Y-186314342D01*
X188220057Y-186171485D01*
X188220057Y-186100057D01*
X188148628Y-185957200D01*
X188005771Y-185885771D01*
X187791485Y-185885771D01*
X187648628Y-185814342D01*
X187577200Y-185671485D01*
X187577200Y-185600057D01*
X187648628Y-185457200D01*
X187791485Y-185385771D01*
X188005771Y-185385771D01*
X188148628Y-185457200D01*
X189077200Y-186385771D02*
X188934342Y-186314342D01*
X188862914Y-186171485D01*
X188862914Y-184885771D01*
X190291485Y-186385771D02*
X190291485Y-185600057D01*
X190220057Y-185457200D01*
X190077200Y-185385771D01*
X189791485Y-185385771D01*
X189648628Y-185457200D01*
X190291485Y-186314342D02*
X190148628Y-186385771D01*
X189791485Y-186385771D01*
X189648628Y-186314342D01*
X189577200Y-186171485D01*
X189577200Y-186028628D01*
X189648628Y-185885771D01*
X189791485Y-185814342D01*
X190148628Y-185814342D01*
X190291485Y-185742914D01*
X191005771Y-186385771D02*
X191005771Y-184885771D01*
X191005771Y-185457200D02*
X191148628Y-185385771D01*
X191434342Y-185385771D01*
X191577200Y-185457200D01*
X191648628Y-185528628D01*
X191720057Y-185671485D01*
X191720057Y-186100057D01*
X191648628Y-186242914D01*
X191577200Y-186314342D01*
X191434342Y-186385771D01*
X191148628Y-186385771D01*
X191005771Y-186314342D01*
X192362914Y-185814342D02*
X193505771Y-185814342D01*
X194434342Y-186385771D02*
X194291485Y-186314342D01*
X194220057Y-186171485D01*
X194220057Y-184885771D01*
X195648628Y-186385771D02*
X195648628Y-185600057D01*
X195577200Y-185457200D01*
X195434342Y-185385771D01*
X195148628Y-185385771D01*
X195005771Y-185457200D01*
X195648628Y-186314342D02*
X195505771Y-186385771D01*
X195148628Y-186385771D01*
X195005771Y-186314342D01*
X194934342Y-186171485D01*
X194934342Y-186028628D01*
X195005771Y-185885771D01*
X195148628Y-185814342D01*
X195505771Y-185814342D01*
X195648628Y-185742914D01*
X196362914Y-186385771D02*
X196362914Y-185385771D01*
X196362914Y-185528628D02*
X196434342Y-185457200D01*
X196577200Y-185385771D01*
X196791485Y-185385771D01*
X196934342Y-185457200D01*
X197005771Y-185600057D01*
X197005771Y-186385771D01*
X197005771Y-185600057D02*
X197077200Y-185457200D01*
X197220057Y-185385771D01*
X197434342Y-185385771D01*
X197577200Y-185457200D01*
X197648628Y-185600057D01*
X197648628Y-186385771D01*
X198362914Y-185385771D02*
X198362914Y-186885771D01*
X198362914Y-185457200D02*
X198505771Y-185385771D01*
X198791485Y-185385771D01*
X198934342Y-185457200D01*
X199005771Y-185528628D01*
X199077200Y-185671485D01*
X199077200Y-186100057D01*
X199005771Y-186242914D01*
X198934342Y-186314342D01*
X198791485Y-186385771D01*
X198505771Y-186385771D01*
X198362914Y-186314342D01*
X199720057Y-186242914D02*
X199791485Y-186314342D01*
X199720057Y-186385771D01*
X199648628Y-186314342D01*
X199720057Y-186242914D01*
X199720057Y-186385771D01*
X200434342Y-186385771D02*
X200434342Y-184885771D01*
X200577200Y-185814342D02*
X201005771Y-186385771D01*
X201005771Y-185385771D02*
X200434342Y-185957200D01*
X201648628Y-186385771D02*
X201648628Y-185385771D01*
X201648628Y-184885771D02*
X201577200Y-184957200D01*
X201648628Y-185028628D01*
X201720057Y-184957200D01*
X201648628Y-184885771D01*
X201648628Y-185028628D01*
X203005771Y-186314342D02*
X202862914Y-186385771D01*
X202577200Y-186385771D01*
X202434342Y-186314342D01*
X202362914Y-186242914D01*
X202291485Y-186100057D01*
X202291485Y-185671485D01*
X202362914Y-185528628D01*
X202434342Y-185457200D01*
X202577200Y-185385771D01*
X202862914Y-185385771D01*
X203005771Y-185457200D01*
X204291485Y-186385771D02*
X204291485Y-185600057D01*
X204220057Y-185457200D01*
X204077200Y-185385771D01*
X203791485Y-185385771D01*
X203648628Y-185457200D01*
X204291485Y-186314342D02*
X204148628Y-186385771D01*
X203791485Y-186385771D01*
X203648628Y-186314342D01*
X203577200Y-186171485D01*
X203577200Y-186028628D01*
X203648628Y-185885771D01*
X203791485Y-185814342D01*
X204148628Y-185814342D01*
X204291485Y-185742914D01*
X205648628Y-186385771D02*
X205648628Y-184885771D01*
X205648628Y-186314342D02*
X205505771Y-186385771D01*
X205220057Y-186385771D01*
X205077200Y-186314342D01*
X205005771Y-186242914D01*
X204934342Y-186100057D01*
X204934342Y-185671485D01*
X205005771Y-185528628D01*
X205077200Y-185457200D01*
X205220057Y-185385771D01*
X205505771Y-185385771D01*
X205648628Y-185457200D01*
X206005771Y-186528628D02*
X207148628Y-186528628D01*
X207505771Y-185385771D02*
X207505771Y-186885771D01*
X207505771Y-185457200D02*
X207648628Y-185385771D01*
X207934342Y-185385771D01*
X208077200Y-185457200D01*
X208148628Y-185528628D01*
X208220057Y-185671485D01*
X208220057Y-186100057D01*
X208148628Y-186242914D01*
X208077200Y-186314342D01*
X207934342Y-186385771D01*
X207648628Y-186385771D01*
X207505771Y-186314342D01*
X209505771Y-186314342D02*
X209362914Y-186385771D01*
X209077200Y-186385771D01*
X208934342Y-186314342D01*
X208862914Y-186242914D01*
X208791485Y-186100057D01*
X208791485Y-185671485D01*
X208862914Y-185528628D01*
X208934342Y-185457200D01*
X209077200Y-185385771D01*
X209362914Y-185385771D01*
X209505771Y-185457200D01*
X210148628Y-186385771D02*
X210148628Y-184885771D01*
X210148628Y-185457200D02*
X210291485Y-185385771D01*
X210577200Y-185385771D01*
X210720057Y-185457200D01*
X210791485Y-185528628D01*
X210862914Y-185671485D01*
X210862914Y-186100057D01*
X210791485Y-186242914D01*
X210720057Y-186314342D01*
X210577200Y-186385771D01*
X210291485Y-186385771D01*
X210148628Y-186314342D01*
D10*
D11*
X177002200Y-181507200D02*
X285002200Y-181507200D01*
D10*
D11*
X178362914Y-183614342D02*
X178577200Y-183685771D01*
X178934342Y-183685771D01*
X179077200Y-183614342D01*
X179148628Y-183542914D01*
X179220057Y-183400057D01*
X179220057Y-183257200D01*
X179148628Y-183114342D01*
X179077200Y-183042914D01*
X178934342Y-182971485D01*
X178648628Y-182900057D01*
X178505771Y-182828628D01*
X178434342Y-182757200D01*
X178362914Y-182614342D01*
X178362914Y-182471485D01*
X178434342Y-182328628D01*
X178505771Y-182257200D01*
X178648628Y-182185771D01*
X179005771Y-182185771D01*
X179220057Y-182257200D01*
X179862914Y-183685771D02*
X179862914Y-182185771D01*
X180505771Y-183685771D02*
X180505771Y-182900057D01*
X180434342Y-182757200D01*
X180291485Y-182685771D01*
X180077200Y-182685771D01*
X179934342Y-182757200D01*
X179862914Y-182828628D01*
X181791485Y-183614342D02*
X181648628Y-183685771D01*
X181362914Y-183685771D01*
X181220057Y-183614342D01*
X181148628Y-183471485D01*
X181148628Y-182900057D01*
X181220057Y-182757200D01*
X181362914Y-182685771D01*
X181648628Y-182685771D01*
X181791485Y-182757200D01*
X181862914Y-182900057D01*
X181862914Y-183042914D01*
X181148628Y-183185771D01*
X183077200Y-183614342D02*
X182934342Y-183685771D01*
X182648628Y-183685771D01*
X182505771Y-183614342D01*
X182434342Y-183471485D01*
X182434342Y-182900057D01*
X182505771Y-182757200D01*
X182648628Y-182685771D01*
X182934342Y-182685771D01*
X183077200Y-182757200D01*
X183148628Y-182900057D01*
X183148628Y-183042914D01*
X182434342Y-183185771D01*
X183577200Y-182685771D02*
X184148628Y-182685771D01*
X183791485Y-182185771D02*
X183791485Y-183471485D01*
X183862914Y-183614342D01*
X184005771Y-183685771D01*
X184148628Y-183685771D01*
X184648628Y-183542914D02*
X184720057Y-183614342D01*
X184648628Y-183685771D01*
X184577200Y-183614342D01*
X184648628Y-183542914D01*
X184648628Y-183685771D01*
X184648628Y-182757200D02*
X184720057Y-182828628D01*
X184648628Y-182900057D01*
X184577200Y-182828628D01*
X184648628Y-182757200D01*
X184648628Y-182900057D01*
D10*
D12*
D10*
D11*
D10*
D11*
D10*
D11*
D10*
D11*
D10*
D11*
X197002200Y-191507200D02*
X197002200Y-194507200D01*
D10*
D11*
X261002200Y-191507200D02*
X261002200Y-198007200D01*
%TO.C,GPIO15*%
G36*
X154938000Y-98904000D02*
G01*
X152438000Y-98904000D01*
X152438000Y-105404000D01*
X147438000Y-105404000D01*
X147438000Y-98904000D01*
X144938000Y-98904000D01*
X149938000Y-92904000D01*
X154938000Y-98904000D01*
G37*
D14*
X154938000Y-98904000D02*
X152438000Y-98904000D01*
X152438000Y-105404000D01*
X147438000Y-105404000D01*
X147438000Y-98904000D01*
X144938000Y-98904000D01*
X149938000Y-92904000D01*
X154938000Y-98904000D01*
%TO.C,GPIO14*%
G36*
X139438000Y-106654000D02*
G01*
X145938000Y-106654000D01*
X145938000Y-111654000D01*
X139438000Y-111654000D01*
X139438000Y-114154000D01*
X133438000Y-109154000D01*
X139438000Y-104154000D01*
X139438000Y-106654000D01*
G37*
X139438000Y-106654000D02*
X145938000Y-106654000D01*
X145938000Y-111654000D01*
X139438000Y-111654000D01*
X139438000Y-114154000D01*
X133438000Y-109154000D01*
X139438000Y-104154000D01*
X139438000Y-106654000D01*
%TO.C,GPIO16*%
G36*
X166188000Y-109154000D02*
G01*
X160188000Y-114154000D01*
X160188000Y-111654000D01*
X153688000Y-111654000D01*
X153688000Y-106654000D01*
X160188000Y-106654000D01*
X160188000Y-104154000D01*
X166188000Y-109154000D01*
G37*
X166188000Y-109154000D02*
X160188000Y-114154000D01*
X160188000Y-111654000D01*
X153688000Y-111654000D01*
X153688000Y-106654000D01*
X160188000Y-106654000D01*
X160188000Y-104154000D01*
X166188000Y-109154000D01*
%TO.C,GPIO17*%
G36*
X152438000Y-119654000D02*
G01*
X154938000Y-119654000D01*
X149938000Y-125654000D01*
X144938000Y-119654000D01*
X147438000Y-119654000D01*
X147438000Y-113154000D01*
X152438000Y-113154000D01*
X152438000Y-119654000D01*
G37*
X152438000Y-119654000D02*
X154938000Y-119654000D01*
X149938000Y-125654000D01*
X144938000Y-119654000D01*
X147438000Y-119654000D01*
X147438000Y-113154000D01*
X152438000Y-113154000D01*
X152438000Y-119654000D01*
%TD*%
D15*
%TO.C,GPIO15*%
X149938000Y-94504000D03*
D16*
X149938000Y-97944000D03*
D17*
X149938000Y-102944000D03*
%TD*%
D18*
%TO.C,GPIO14*%
X135038000Y-109154000D03*
D19*
X138478000Y-109154000D03*
D17*
X143478000Y-109154000D03*
%TD*%
D20*
%TO.C,GPIO16*%
X164588000Y-109154000D03*
D21*
X161148000Y-109154000D03*
D17*
X156148000Y-109154000D03*
%TD*%
D22*
%TO.C,GPIO17*%
X149938000Y-124054000D03*
D23*
X149938000Y-120614000D03*
D17*
X149938000Y-115614000D03*
%TD*%
D24*
%TO.C,E39*%
X167838381Y-129145284D03*
%TD*%
D25*
%TO.C,GPIO5*%
X127514604Y-117089721D03*
%TD*%
D26*
%TO.C,E30*%
X168338000Y-146154000D03*
%TD*%
D27*
%TO.C,GPIO3*%
X111535992Y-90634063D03*
%TD*%
D28*
%TO.C,GPIO4*%
X118019915Y-105096642D03*
%TD*%
D29*
%TO.C,E34*%
X131038000Y-153654000D03*
%TD*%
D30*
%TO.C,E37*%
X158920635Y-163055519D03*
%TD*%
D31*
%TO.C,GPIO1*%
X116519915Y-60211358D03*
%TD*%
D32*
%TO.C,E40*%
X132037619Y-129145284D03*
%TD*%
D33*
%TO.C,GPIO28*%
X172385008Y-49238805D03*
%TD*%
D34*
%TO.C,GPIO20*%
X172353195Y-117101008D03*
%TD*%
D26*
%TO.C,E31*%
X168338000Y-139154000D03*
%TD*%
D35*
%TO.C,E38*%
X140955365Y-163055519D03*
%TD*%
D29*
%TO.C,E33*%
X131098000Y-139654000D03*
%TD*%
D26*
%TO.C,E35*%
X168338000Y-153154000D03*
%TD*%
D36*
%TO.C,GPIO22*%
X188340008Y-90634063D03*
%TD*%
D29*
%TO.C,E32*%
X131038000Y-146654000D03*
%TD*%
D37*
%TO.C,GPIO26*%
X188339837Y-73673081D03*
%TD*%
D38*
%TO.C,GPIO27*%
X182856085Y-60211358D03*
%TD*%
D39*
%TO.C,GPIO0*%
X127994641Y-49236413D03*
%TD*%
D40*
%TO.C,GPIO2*%
X111535992Y-73673937D03*
%TD*%
D41*
%TO.C,GPIO21*%
X182356588Y-105095930D03*
%TD*%
D42*
%TO.C,C2*%
X122438000Y-78404000D03*
X133438000Y-78404000D03*
D43*
X130938000Y-81154000D03*
X128938000Y-81154000D03*
X126938000Y-81154000D03*
X125138000Y-81154000D03*
%TD*%
D44*
%TO.C,U1*%
X146913000Y-41424000D03*
X152363000Y-41424000D03*
D45*
X147213000Y-44454000D03*
X152063000Y-44454000D03*
D46*
X139848000Y-41294000D03*
D47*
X140748000Y-41294000D03*
D46*
X139848000Y-43834000D03*
D47*
X140748000Y-43834000D03*
D46*
X139848000Y-46374000D03*
D48*
X140748000Y-46374000D03*
D46*
X139848000Y-48914000D03*
D47*
X140748000Y-48914000D03*
X140748000Y-51454000D03*
D46*
X139848000Y-51454000D03*
D47*
X140748000Y-53994000D03*
D46*
X139848000Y-53994000D03*
D47*
X140748000Y-56534000D03*
D46*
X139848000Y-56534000D03*
X139848000Y-59074000D03*
D48*
X140748000Y-59074000D03*
D46*
X139848000Y-61614000D03*
D47*
X140748000Y-61614000D03*
D46*
X139848000Y-64154000D03*
D47*
X140748000Y-64154000D03*
X140748000Y-66694000D03*
D46*
X139848000Y-66694000D03*
X139848000Y-69234000D03*
D47*
X140748000Y-69234000D03*
D48*
X140748000Y-71774000D03*
D46*
X139848000Y-71774000D03*
D47*
X140748000Y-74314000D03*
D46*
X139848000Y-74314000D03*
X139848000Y-76854000D03*
D47*
X140748000Y-76854000D03*
X140748000Y-79394000D03*
D46*
X139848000Y-79394000D03*
D47*
X140748000Y-81934000D03*
D46*
X139848000Y-81934000D03*
X139848000Y-84474000D03*
D48*
X140748000Y-84474000D03*
D46*
X139848000Y-87014000D03*
D47*
X140748000Y-87014000D03*
D46*
X139848000Y-89554000D03*
D47*
X140748000Y-89554000D03*
D46*
X159428000Y-89554000D03*
D47*
X158528000Y-89554000D03*
X158528000Y-87014000D03*
D46*
X159428000Y-87014000D03*
D48*
X158528000Y-84474000D03*
D46*
X159428000Y-84474000D03*
X159428000Y-81934000D03*
D47*
X158528000Y-81934000D03*
D46*
X159428000Y-79394000D03*
D47*
X158528000Y-79394000D03*
D46*
X159428000Y-76854000D03*
D47*
X158528000Y-76854000D03*
X158528000Y-74314000D03*
D46*
X159428000Y-74314000D03*
D48*
X158528000Y-71774000D03*
D46*
X159428000Y-71774000D03*
X159428000Y-69234000D03*
D47*
X158528000Y-69234000D03*
X158528000Y-66694000D03*
D46*
X159428000Y-66694000D03*
X159428000Y-64154000D03*
D47*
X158528000Y-64154000D03*
D46*
X159428000Y-61614000D03*
D47*
X158528000Y-61614000D03*
D48*
X158528000Y-59074000D03*
D46*
X159428000Y-59074000D03*
X159428000Y-56534000D03*
D47*
X158528000Y-56534000D03*
D46*
X159428000Y-53994000D03*
D47*
X158528000Y-53994000D03*
X158528000Y-51454000D03*
D46*
X159428000Y-51454000D03*
X159428000Y-48914000D03*
D47*
X158528000Y-48914000D03*
D46*
X159428000Y-46374000D03*
D48*
X158528000Y-46374000D03*
D47*
X158528000Y-43834000D03*
D46*
X159428000Y-43834000D03*
X159428000Y-41294000D03*
D47*
X158528000Y-41294000D03*
X147098000Y-89324000D03*
D49*
X147098000Y-90224000D03*
D48*
X149638000Y-89324000D03*
D49*
X149638000Y-90224000D03*
X152178000Y-90224000D03*
D47*
X152178000Y-89324000D03*
%TD*%
D23*
%TO.C,GPIO18*%
X172438000Y-97154000D03*
D17*
X172438000Y-92154000D03*
%TD*%
D48*
%TO.C,C1*%
X177463000Y-79154000D03*
D47*
X174923000Y-79154000D03*
X172383000Y-79154000D03*
%TD*%
D19*
%TO.C,B6*%
X154938000Y-139154000D03*
D17*
X159938000Y-139154000D03*
%TD*%
%TO.C,GPIO13*%
X127438000Y-92154000D03*
D23*
X127438000Y-97154000D03*
%TD*%
D19*
%TO.C,B1*%
X154938000Y-153154000D03*
D17*
X159938000Y-153154000D03*
%TD*%
%TO.C,B2*%
X144438000Y-146654000D03*
D19*
X139438000Y-146654000D03*
%TD*%
%TO.C,B4*%
X139438000Y-153654000D03*
D17*
X144438000Y-153654000D03*
%TD*%
D50*
%TO.C,D12*%
X152388000Y-110754000D03*
X152388000Y-107554000D03*
X147488000Y-107554000D03*
X147488000Y-110754000D03*
%TD*%
D17*
%TO.C,B3*%
X144438000Y-139654000D03*
D19*
X139438000Y-139654000D03*
%TD*%
D17*
%TO.C,B5*%
X159938000Y-146154000D03*
D19*
X154938000Y-146154000D03*
%TD*%
G36*
X171000110Y-135174002D02*
G01*
X171046603Y-135227658D01*
X171057984Y-135281172D01*
X171055728Y-135523746D01*
X171059653Y-135537589D01*
X171073580Y-135549357D01*
X171233605Y-135615920D01*
X171242169Y-135619864D01*
X171408203Y-135704001D01*
X171416398Y-135708544D01*
X171574399Y-135803989D01*
X171582184Y-135809095D01*
X171731701Y-135915233D01*
X171739047Y-135920863D01*
X171879684Y-136037123D01*
X171886557Y-136043242D01*
X172017857Y-136168999D01*
X172024239Y-136175573D01*
X172145797Y-136310256D01*
X172151671Y-136317258D01*
X172263024Y-136460241D01*
X172268367Y-136467641D01*
X172369080Y-136618314D01*
X172373878Y-136626086D01*
X172463531Y-136783870D01*
X172467762Y-136791990D01*
X172545894Y-136956235D01*
X172549538Y-136964676D01*
X172615736Y-137134824D01*
X172618768Y-137143552D01*
X172672588Y-137318968D01*
X172674985Y-137327949D01*
X172716000Y-137508057D01*
X172717737Y-137517247D01*
X172745515Y-137701468D01*
X172746569Y-137710816D01*
X172760672Y-137898553D01*
X172761026Y-137907992D01*
X172761026Y-151334965D01*
X172761003Y-151337357D01*
X172755090Y-151648720D01*
X172754938Y-151652969D01*
X172738604Y-151962431D01*
X172738309Y-151966664D01*
X172711611Y-152274863D01*
X172711174Y-152279078D01*
X172674184Y-152585745D01*
X172673607Y-152589936D01*
X172626392Y-152894858D01*
X172625675Y-152899024D01*
X172568313Y-153201900D01*
X172567458Y-153206037D01*
X172500008Y-153506682D01*
X172499015Y-153510785D01*
X172421557Y-153808898D01*
X172420427Y-153812965D01*
X172333032Y-154108300D01*
X172331766Y-154112328D01*
X172234511Y-154404610D01*
X172233111Y-154408595D01*
X172126043Y-154697644D01*
X172124508Y-154701583D01*
X172007733Y-154987053D01*
X172006066Y-154990942D01*
X171879619Y-155272671D01*
X171877819Y-155276507D01*
X171741797Y-155554177D01*
X171739866Y-155557955D01*
X171594329Y-155831344D01*
X171592268Y-155835064D01*
X171437313Y-156103866D01*
X171435095Y-156107565D01*
X171270956Y-156371025D01*
X171268653Y-156374587D01*
X171096083Y-156631857D01*
X171093664Y-156635336D01*
X170912823Y-156886269D01*
X170910291Y-156889660D01*
X170721429Y-157133986D01*
X170718789Y-157137286D01*
X170522027Y-157374914D01*
X170519278Y-157378122D01*
X170314865Y-157608790D01*
X170312013Y-157611902D01*
X170100074Y-157835502D01*
X170097120Y-157838516D01*
X169877917Y-158054788D01*
X169874863Y-158057702D01*
X169648491Y-158266554D01*
X169645340Y-158269365D01*
X169412045Y-158470559D01*
X169408800Y-158473264D01*
X169168756Y-158666633D01*
X169165419Y-158669230D01*
X168918815Y-158854591D01*
X168915388Y-158857078D01*
X168662398Y-159034257D01*
X168658885Y-159036630D01*
X168510034Y-159133580D01*
X168441267Y-159154000D01*
X131411928Y-159154000D01*
X131343318Y-159133682D01*
X131155047Y-159011454D01*
X131151542Y-159009094D01*
X130897972Y-158832110D01*
X130894552Y-158829637D01*
X130647305Y-158644451D01*
X130643972Y-158641866D01*
X130403284Y-158448686D01*
X130400041Y-158445993D01*
X130166065Y-158244969D01*
X130162915Y-158242170D01*
X129935842Y-158033481D01*
X129932788Y-158030578D01*
X129712858Y-157814450D01*
X129709900Y-157811445D01*
X129497229Y-157587980D01*
X129494373Y-157584876D01*
X129289227Y-157354333D01*
X129286473Y-157351132D01*
X129088986Y-157113627D01*
X129086338Y-157110330D01*
X128896743Y-156866089D01*
X128894203Y-156862702D01*
X128712665Y-156611874D01*
X128710236Y-156608396D01*
X128536957Y-156351173D01*
X128534642Y-156347608D01*
X128369795Y-156084141D01*
X128367635Y-156080558D01*
X128211567Y-155811658D01*
X128209493Y-155807942D01*
X128062903Y-155534501D01*
X128060959Y-155530723D01*
X127923908Y-155252979D01*
X127922096Y-155249145D01*
X127794653Y-154967350D01*
X127792973Y-154963462D01*
X127675211Y-154677879D01*
X127673664Y-154673942D01*
X127565640Y-154384792D01*
X127564228Y-154380809D01*
X127466012Y-154088348D01*
X127464734Y-154084321D01*
X127376406Y-153788830D01*
X127375265Y-153784764D01*
X127296898Y-153486514D01*
X127295893Y-153482412D01*
X127227542Y-153181594D01*
X127226675Y-153177459D01*
X127168416Y-152874360D01*
X127167688Y-152870196D01*
X127119595Y-152565094D01*
X127119006Y-152560904D01*
X127081139Y-152253995D01*
X127080691Y-152249781D01*
X127053128Y-151941353D01*
X127052822Y-151937123D01*
X127035629Y-151627451D01*
X127035465Y-151623204D01*
X127028696Y-151311755D01*
X127028666Y-151309017D01*
X127028666Y-137880050D01*
X127028889Y-137872558D01*
X127034453Y-137779152D01*
X127034825Y-137774411D01*
X127043990Y-137680456D01*
X127044539Y-137675747D01*
X127057164Y-137582705D01*
X127057887Y-137578035D01*
X127073917Y-137485964D01*
X127074812Y-137481338D01*
X127094196Y-137390293D01*
X127095259Y-137385719D01*
X127117920Y-137295865D01*
X127119149Y-137291348D01*
X127145069Y-137202613D01*
X127146461Y-137198158D01*
X127175547Y-137110753D01*
X127177096Y-137106369D01*
X127209314Y-137020291D01*
X127211020Y-137015976D01*
X127246314Y-136931315D01*
X127248172Y-136927079D01*
X127286480Y-136843922D01*
X127288488Y-136839765D01*
X127329741Y-136758216D01*
X127331896Y-136754144D01*
X127376082Y-136674195D01*
X127378380Y-136670211D01*
X127425387Y-136592040D01*
X127427827Y-136588144D01*
X127477641Y-136511759D01*
X127480218Y-136507961D01*
X127532756Y-136433477D01*
X127535471Y-136429773D01*
X127590687Y-136357255D01*
X127593536Y-136353652D01*
X127651401Y-136283143D01*
X127654380Y-136279645D01*
X127714762Y-136211310D01*
X127717871Y-136207918D01*
X127780809Y-136141727D01*
X127784045Y-136138446D01*
X127849420Y-136074543D01*
X127852780Y-136071376D01*
X127920561Y-136009813D01*
X127924044Y-136006765D01*
X127994153Y-135947638D01*
X127997757Y-135944710D01*
X128070127Y-135888104D01*
X128073845Y-135885305D01*
X128148487Y-135831243D01*
X128152319Y-135828575D01*
X128229122Y-135777176D01*
X128233061Y-135774644D01*
X128311982Y-135725973D01*
X128316028Y-135723581D01*
X128397001Y-135677722D01*
X128401147Y-135675475D01*
X128484161Y-135632481D01*
X128488400Y-135630386D01*
X128573355Y-135590355D01*
X128577685Y-135588414D01*
X128664516Y-135551427D01*
X128668927Y-135549645D01*
X128742962Y-135521361D01*
X128755601Y-135511742D01*
X128759885Y-135499972D01*
X128759885Y-135358248D01*
X128759881Y-135357582D01*
X128759099Y-135281292D01*
X128778401Y-135212970D01*
X128831577Y-135165929D01*
X128885092Y-135154000D01*
X170931989Y-135154000D01*
X171000110Y-135174002D01*
G37*
M02*
