%TF.GenerationSoftware,KiCad,Pcbnew,6.0.5-a6ca702e91~116~ubuntu20.04.1*%
%TF.CreationDate,2022-05-23T12:48:00+02:00*%
%TF.ProjectId,kidslab-lamp,6b696473-6c61-4622-9d6c-616d702e6b69,rev?*%
%TF.SameCoordinates,Original*%
%TF.FileFunction,Soldermask,Bot*%
%TF.FilePolarity,Negative*%
%FSLAX46Y46*%
G04 Gerber Fmt 4.6, Leading zero omitted, Abs format (unit mm)*
G04 Created by KiCad (PCBNEW 6.0.5-a6ca702e91~116~ubuntu20.04.1) date 2022-05-23 12:48:00*
%MOMM*%
%LPD*%
G01*
G04 APERTURE LIST*
G04 Aperture macros list*
%AMFreePoly0*
4,1,48,0.468453,2.455718,0.772542,2.377641,1.064448,2.262068,1.339567,2.110820,1.593560,1.926283,1.822422,1.711368,1.955916,1.550000,3.250000,1.550000,3.285355,1.535355,3.300000,1.500000,3.300000,-1.500000,3.285355,-1.535355,3.250000,-1.550000,1.955916,-1.550000,1.822422,-1.711368,1.593560,-1.926283,1.339567,-2.110820,1.064448,-2.262068,0.772542,-2.377641,0.468453,-2.455718,
0.156976,-2.495067,-0.156976,-2.495067,-0.468453,-2.455718,-0.772542,-2.377641,-1.064448,-2.262068,-1.339567,-2.110820,-1.593560,-1.926283,-1.822422,-1.711368,-2.022542,-1.469463,-2.190767,-1.204384,-2.324441,-0.920311,-2.421458,-0.621725,-2.480287,-0.313333,-2.500000,0.000000,-2.480287,0.313333,-2.421458,0.621725,-2.324441,0.920311,-2.190767,1.204384,-2.022542,1.469463,-1.822422,1.711368,
-1.593560,1.926283,-1.339567,2.110820,-1.064448,2.262068,-0.772542,2.377641,-0.468453,2.455718,-0.156976,2.495067,0.156976,2.495067,0.468453,2.455718,0.468453,2.455718,$1*%
%AMFreePoly1*
4,1,34,6.500000,-3.000000,0.000000,-3.000000,0.000000,-2.998354,-0.313585,-2.983566,-0.654430,-2.927750,-0.986600,-2.833129,-1.305693,-2.700956,-1.607480,-2.532984,-1.887961,-2.331438,-2.143418,-2.098991,-2.370465,-1.838721,-2.566093,-1.554081,-2.727708,-1.248842,-2.853170,-0.927051,-2.940814,-0.592972,-2.989479,-0.251034,-2.998520,0.094232,-2.967817,0.438249,-2.897777,0.776457,-2.789329,1.104374,
-2.643910,1.417652,-2.463448,1.712141,-2.250333,1.983936,-2.007392,2.229434,-1.737844,2.445383,-1.445261,2.628920,-1.133522,2.777612,-0.806759,2.889488,-0.469303,2.963065,-0.125627,2.997368,0.000000,2.995395,0.000000,3.000000,6.500000,3.000000,6.500000,-3.000000,6.500000,-3.000000,$1*%
G04 Aperture macros list end*
%ADD10C,0.100000*%
%ADD11C,0.150000*%
%ADD12C,0.300000*%
%ADD13C,0.400000*%
%ADD14FreePoly0,270.000000*%
%ADD15C,5.000000*%
%ADD16FreePoly0,0.000000*%
%ADD17FreePoly0,180.000000*%
%ADD18FreePoly0,90.000000*%
%ADD19FreePoly1,355.000000*%
%ADD20FreePoly1,220.000000*%
%ADD21FreePoly1,0.000000*%
%ADD22FreePoly1,191.500000*%
%ADD23FreePoly1,215.000000*%
%ADD24FreePoly1,180.000000*%
%ADD25FreePoly1,280.000000*%
%ADD26FreePoly1,145.000000*%
%ADD27FreePoly1,185.000000*%
%ADD28FreePoly1,58.000000*%
%ADD29FreePoly1,328.000000*%
%ADD30FreePoly1,260.000000*%
%ADD31FreePoly1,348.500000*%
%ADD32FreePoly1,11.000000*%
%ADD33FreePoly1,35.000000*%
%ADD34FreePoly1,124.500000*%
%ADD35FreePoly1,168.500000*%
%ADD36FreePoly1,324.500000*%
%ADD37O,1.800000X1.800000*%
%ADD38O,1.500000X1.500000*%
%ADD39O,1.700000X1.700000*%
%ADD40R,1.700000X1.700000*%
G04 APERTURE END LIST*
D10*
D11*
X177002200Y-166007200D02*
X177002200Y-198007200D01*
X285002200Y-198007200D01*
X285002200Y-166007200D01*
X177002200Y-166007200D01*
D10*
D11*
X10000000Y-10000000D02*
X10000000Y-200007200D01*
X287002200Y-200007200D01*
X287002200Y-10000000D01*
X10000000Y-10000000D01*
D10*
D11*
X12000000Y-12000000D02*
X12000000Y-198007200D01*
X285002200Y-198007200D01*
X285002200Y-12000000D01*
X12000000Y-12000000D01*
D10*
D11*
X60000000Y-12000000D02*
X60000000Y-10000000D01*
D10*
D11*
X110000000Y-12000000D02*
X110000000Y-10000000D01*
D10*
D11*
X160000000Y-12000000D02*
X160000000Y-10000000D01*
D10*
D11*
X210000000Y-12000000D02*
X210000000Y-10000000D01*
D10*
D11*
X260000000Y-12000000D02*
X260000000Y-10000000D01*
D10*
D11*
X36065476Y-11588095D02*
X35322619Y-11588095D01*
X35694047Y-11588095D02*
X35694047Y-10288095D01*
X35570238Y-10473809D01*
X35446428Y-10597619D01*
X35322619Y-10659523D01*
D10*
D11*
X85322619Y-10411904D02*
X85384523Y-10350000D01*
X85508333Y-10288095D01*
X85817857Y-10288095D01*
X85941666Y-10350000D01*
X86003571Y-10411904D01*
X86065476Y-10535714D01*
X86065476Y-10659523D01*
X86003571Y-10845238D01*
X85260714Y-11588095D01*
X86065476Y-11588095D01*
D10*
D11*
X135260714Y-10288095D02*
X136065476Y-10288095D01*
X135632142Y-10783333D01*
X135817857Y-10783333D01*
X135941666Y-10845238D01*
X136003571Y-10907142D01*
X136065476Y-11030952D01*
X136065476Y-11340476D01*
X136003571Y-11464285D01*
X135941666Y-11526190D01*
X135817857Y-11588095D01*
X135446428Y-11588095D01*
X135322619Y-11526190D01*
X135260714Y-11464285D01*
D10*
D11*
X185941666Y-10721428D02*
X185941666Y-11588095D01*
X185632142Y-10226190D02*
X185322619Y-11154761D01*
X186127380Y-11154761D01*
D10*
D11*
X236003571Y-10288095D02*
X235384523Y-10288095D01*
X235322619Y-10907142D01*
X235384523Y-10845238D01*
X235508333Y-10783333D01*
X235817857Y-10783333D01*
X235941666Y-10845238D01*
X236003571Y-10907142D01*
X236065476Y-11030952D01*
X236065476Y-11340476D01*
X236003571Y-11464285D01*
X235941666Y-11526190D01*
X235817857Y-11588095D01*
X235508333Y-11588095D01*
X235384523Y-11526190D01*
X235322619Y-11464285D01*
D10*
D11*
X285941666Y-10288095D02*
X285694047Y-10288095D01*
X285570238Y-10350000D01*
X285508333Y-10411904D01*
X285384523Y-10597619D01*
X285322619Y-10845238D01*
X285322619Y-11340476D01*
X285384523Y-11464285D01*
X285446428Y-11526190D01*
X285570238Y-11588095D01*
X285817857Y-11588095D01*
X285941666Y-11526190D01*
X286003571Y-11464285D01*
X286065476Y-11340476D01*
X286065476Y-11030952D01*
X286003571Y-10907142D01*
X285941666Y-10845238D01*
X285817857Y-10783333D01*
X285570238Y-10783333D01*
X285446428Y-10845238D01*
X285384523Y-10907142D01*
X285322619Y-11030952D01*
D10*
D11*
X60000000Y-198007200D02*
X60000000Y-200007200D01*
D10*
D11*
X110000000Y-198007200D02*
X110000000Y-200007200D01*
D10*
D11*
X160000000Y-198007200D02*
X160000000Y-200007200D01*
D10*
D11*
X210000000Y-198007200D02*
X210000000Y-200007200D01*
D10*
D11*
X260000000Y-198007200D02*
X260000000Y-200007200D01*
D10*
D11*
X36065476Y-199595295D02*
X35322619Y-199595295D01*
X35694047Y-199595295D02*
X35694047Y-198295295D01*
X35570238Y-198481009D01*
X35446428Y-198604819D01*
X35322619Y-198666723D01*
D10*
D11*
X85322619Y-198419104D02*
X85384523Y-198357200D01*
X85508333Y-198295295D01*
X85817857Y-198295295D01*
X85941666Y-198357200D01*
X86003571Y-198419104D01*
X86065476Y-198542914D01*
X86065476Y-198666723D01*
X86003571Y-198852438D01*
X85260714Y-199595295D01*
X86065476Y-199595295D01*
D10*
D11*
X135260714Y-198295295D02*
X136065476Y-198295295D01*
X135632142Y-198790533D01*
X135817857Y-198790533D01*
X135941666Y-198852438D01*
X136003571Y-198914342D01*
X136065476Y-199038152D01*
X136065476Y-199347676D01*
X136003571Y-199471485D01*
X135941666Y-199533390D01*
X135817857Y-199595295D01*
X135446428Y-199595295D01*
X135322619Y-199533390D01*
X135260714Y-199471485D01*
D10*
D11*
X185941666Y-198728628D02*
X185941666Y-199595295D01*
X185632142Y-198233390D02*
X185322619Y-199161961D01*
X186127380Y-199161961D01*
D10*
D11*
X236003571Y-198295295D02*
X235384523Y-198295295D01*
X235322619Y-198914342D01*
X235384523Y-198852438D01*
X235508333Y-198790533D01*
X235817857Y-198790533D01*
X235941666Y-198852438D01*
X236003571Y-198914342D01*
X236065476Y-199038152D01*
X236065476Y-199347676D01*
X236003571Y-199471485D01*
X235941666Y-199533390D01*
X235817857Y-199595295D01*
X235508333Y-199595295D01*
X235384523Y-199533390D01*
X235322619Y-199471485D01*
D10*
D11*
X285941666Y-198295295D02*
X285694047Y-198295295D01*
X285570238Y-198357200D01*
X285508333Y-198419104D01*
X285384523Y-198604819D01*
X285322619Y-198852438D01*
X285322619Y-199347676D01*
X285384523Y-199471485D01*
X285446428Y-199533390D01*
X285570238Y-199595295D01*
X285817857Y-199595295D01*
X285941666Y-199533390D01*
X286003571Y-199471485D01*
X286065476Y-199347676D01*
X286065476Y-199038152D01*
X286003571Y-198914342D01*
X285941666Y-198852438D01*
X285817857Y-198790533D01*
X285570238Y-198790533D01*
X285446428Y-198852438D01*
X285384523Y-198914342D01*
X285322619Y-199038152D01*
D10*
D11*
X10000000Y-60000000D02*
X12000000Y-60000000D01*
D10*
D11*
X10000000Y-110000000D02*
X12000000Y-110000000D01*
D10*
D11*
X10000000Y-160000000D02*
X12000000Y-160000000D01*
D10*
D11*
X10690476Y-35216666D02*
X11309523Y-35216666D01*
X10566666Y-35588095D02*
X11000000Y-34288095D01*
X11433333Y-35588095D01*
D10*
D11*
X11092857Y-84907142D02*
X11278571Y-84969047D01*
X11340476Y-85030952D01*
X11402380Y-85154761D01*
X11402380Y-85340476D01*
X11340476Y-85464285D01*
X11278571Y-85526190D01*
X11154761Y-85588095D01*
X10659523Y-85588095D01*
X10659523Y-84288095D01*
X11092857Y-84288095D01*
X11216666Y-84350000D01*
X11278571Y-84411904D01*
X11340476Y-84535714D01*
X11340476Y-84659523D01*
X11278571Y-84783333D01*
X11216666Y-84845238D01*
X11092857Y-84907142D01*
X10659523Y-84907142D01*
D10*
D11*
X11402380Y-135464285D02*
X11340476Y-135526190D01*
X11154761Y-135588095D01*
X11030952Y-135588095D01*
X10845238Y-135526190D01*
X10721428Y-135402380D01*
X10659523Y-135278571D01*
X10597619Y-135030952D01*
X10597619Y-134845238D01*
X10659523Y-134597619D01*
X10721428Y-134473809D01*
X10845238Y-134350000D01*
X11030952Y-134288095D01*
X11154761Y-134288095D01*
X11340476Y-134350000D01*
X11402380Y-134411904D01*
D10*
D11*
X10659523Y-185588095D02*
X10659523Y-184288095D01*
X10969047Y-184288095D01*
X11154761Y-184350000D01*
X11278571Y-184473809D01*
X11340476Y-184597619D01*
X11402380Y-184845238D01*
X11402380Y-185030952D01*
X11340476Y-185278571D01*
X11278571Y-185402380D01*
X11154761Y-185526190D01*
X10969047Y-185588095D01*
X10659523Y-185588095D01*
D10*
D11*
X287002200Y-60000000D02*
X285002200Y-60000000D01*
D10*
D11*
X287002200Y-110000000D02*
X285002200Y-110000000D01*
D10*
D11*
X287002200Y-160000000D02*
X285002200Y-160000000D01*
D10*
D11*
X285692676Y-35216666D02*
X286311723Y-35216666D01*
X285568866Y-35588095D02*
X286002200Y-34288095D01*
X286435533Y-35588095D01*
D10*
D11*
X286095057Y-84907142D02*
X286280771Y-84969047D01*
X286342676Y-85030952D01*
X286404580Y-85154761D01*
X286404580Y-85340476D01*
X286342676Y-85464285D01*
X286280771Y-85526190D01*
X286156961Y-85588095D01*
X285661723Y-85588095D01*
X285661723Y-84288095D01*
X286095057Y-84288095D01*
X286218866Y-84350000D01*
X286280771Y-84411904D01*
X286342676Y-84535714D01*
X286342676Y-84659523D01*
X286280771Y-84783333D01*
X286218866Y-84845238D01*
X286095057Y-84907142D01*
X285661723Y-84907142D01*
D10*
D11*
X286404580Y-135464285D02*
X286342676Y-135526190D01*
X286156961Y-135588095D01*
X286033152Y-135588095D01*
X285847438Y-135526190D01*
X285723628Y-135402380D01*
X285661723Y-135278571D01*
X285599819Y-135030952D01*
X285599819Y-134845238D01*
X285661723Y-134597619D01*
X285723628Y-134473809D01*
X285847438Y-134350000D01*
X286033152Y-134288095D01*
X286156961Y-134288095D01*
X286342676Y-134350000D01*
X286404580Y-134411904D01*
D10*
D11*
X285661723Y-185588095D02*
X285661723Y-184288095D01*
X285971247Y-184288095D01*
X286156961Y-184350000D01*
X286280771Y-184473809D01*
X286342676Y-184597619D01*
X286404580Y-184845238D01*
X286404580Y-185030952D01*
X286342676Y-185278571D01*
X286280771Y-185402380D01*
X286156961Y-185526190D01*
X285971247Y-185588095D01*
X285661723Y-185588095D01*
D10*
D11*
X200434342Y-193785771D02*
X200434342Y-192285771D01*
X200791485Y-192285771D01*
X201005771Y-192357200D01*
X201148628Y-192500057D01*
X201220057Y-192642914D01*
X201291485Y-192928628D01*
X201291485Y-193142914D01*
X201220057Y-193428628D01*
X201148628Y-193571485D01*
X201005771Y-193714342D01*
X200791485Y-193785771D01*
X200434342Y-193785771D01*
X202577200Y-193785771D02*
X202577200Y-193000057D01*
X202505771Y-192857200D01*
X202362914Y-192785771D01*
X202077200Y-192785771D01*
X201934342Y-192857200D01*
X202577200Y-193714342D02*
X202434342Y-193785771D01*
X202077200Y-193785771D01*
X201934342Y-193714342D01*
X201862914Y-193571485D01*
X201862914Y-193428628D01*
X201934342Y-193285771D01*
X202077200Y-193214342D01*
X202434342Y-193214342D01*
X202577200Y-193142914D01*
X203077200Y-192785771D02*
X203648628Y-192785771D01*
X203291485Y-192285771D02*
X203291485Y-193571485D01*
X203362914Y-193714342D01*
X203505771Y-193785771D01*
X203648628Y-193785771D01*
X204720057Y-193714342D02*
X204577200Y-193785771D01*
X204291485Y-193785771D01*
X204148628Y-193714342D01*
X204077200Y-193571485D01*
X204077200Y-193000057D01*
X204148628Y-192857200D01*
X204291485Y-192785771D01*
X204577200Y-192785771D01*
X204720057Y-192857200D01*
X204791485Y-193000057D01*
X204791485Y-193142914D01*
X204077200Y-193285771D01*
X205434342Y-193642914D02*
X205505771Y-193714342D01*
X205434342Y-193785771D01*
X205362914Y-193714342D01*
X205434342Y-193642914D01*
X205434342Y-193785771D01*
X205434342Y-192857200D02*
X205505771Y-192928628D01*
X205434342Y-193000057D01*
X205362914Y-192928628D01*
X205434342Y-192857200D01*
X205434342Y-193000057D01*
D10*
D11*
X177002200Y-194507200D02*
X285002200Y-194507200D01*
D10*
D11*
X178434342Y-196585771D02*
X178434342Y-195085771D01*
X179291485Y-196585771D02*
X178648628Y-195728628D01*
X179291485Y-195085771D02*
X178434342Y-195942914D01*
X179934342Y-196585771D02*
X179934342Y-195585771D01*
X179934342Y-195085771D02*
X179862914Y-195157200D01*
X179934342Y-195228628D01*
X180005771Y-195157200D01*
X179934342Y-195085771D01*
X179934342Y-195228628D01*
X181505771Y-196442914D02*
X181434342Y-196514342D01*
X181220057Y-196585771D01*
X181077200Y-196585771D01*
X180862914Y-196514342D01*
X180720057Y-196371485D01*
X180648628Y-196228628D01*
X180577200Y-195942914D01*
X180577200Y-195728628D01*
X180648628Y-195442914D01*
X180720057Y-195300057D01*
X180862914Y-195157200D01*
X181077200Y-195085771D01*
X181220057Y-195085771D01*
X181434342Y-195157200D01*
X181505771Y-195228628D01*
X182791485Y-196585771D02*
X182791485Y-195800057D01*
X182720057Y-195657200D01*
X182577200Y-195585771D01*
X182291485Y-195585771D01*
X182148628Y-195657200D01*
X182791485Y-196514342D02*
X182648628Y-196585771D01*
X182291485Y-196585771D01*
X182148628Y-196514342D01*
X182077200Y-196371485D01*
X182077200Y-196228628D01*
X182148628Y-196085771D01*
X182291485Y-196014342D01*
X182648628Y-196014342D01*
X182791485Y-195942914D01*
X184148628Y-196585771D02*
X184148628Y-195085771D01*
X184148628Y-196514342D02*
X184005771Y-196585771D01*
X183720057Y-196585771D01*
X183577200Y-196514342D01*
X183505771Y-196442914D01*
X183434342Y-196300057D01*
X183434342Y-195871485D01*
X183505771Y-195728628D01*
X183577200Y-195657200D01*
X183720057Y-195585771D01*
X184005771Y-195585771D01*
X184148628Y-195657200D01*
X186005771Y-195800057D02*
X186505771Y-195800057D01*
X186720057Y-196585771D02*
X186005771Y-196585771D01*
X186005771Y-195085771D01*
X186720057Y-195085771D01*
X187362914Y-196442914D02*
X187434342Y-196514342D01*
X187362914Y-196585771D01*
X187291485Y-196514342D01*
X187362914Y-196442914D01*
X187362914Y-196585771D01*
X188077200Y-196585771D02*
X188077200Y-195085771D01*
X188434342Y-195085771D01*
X188648628Y-195157200D01*
X188791485Y-195300057D01*
X188862914Y-195442914D01*
X188934342Y-195728628D01*
X188934342Y-195942914D01*
X188862914Y-196228628D01*
X188791485Y-196371485D01*
X188648628Y-196514342D01*
X188434342Y-196585771D01*
X188077200Y-196585771D01*
X189577200Y-196442914D02*
X189648628Y-196514342D01*
X189577200Y-196585771D01*
X189505771Y-196514342D01*
X189577200Y-196442914D01*
X189577200Y-196585771D01*
X190220057Y-196157200D02*
X190934342Y-196157200D01*
X190077200Y-196585771D02*
X190577200Y-195085771D01*
X191077200Y-196585771D01*
X191577200Y-196442914D02*
X191648628Y-196514342D01*
X191577200Y-196585771D01*
X191505771Y-196514342D01*
X191577200Y-196442914D01*
X191577200Y-196585771D01*
X194577200Y-196585771D02*
X194577200Y-195085771D01*
X194720057Y-196014342D02*
X195148628Y-196585771D01*
X195148628Y-195585771D02*
X194577200Y-196157200D01*
X195791485Y-196585771D02*
X195791485Y-195585771D01*
X195791485Y-195085771D02*
X195720057Y-195157200D01*
X195791485Y-195228628D01*
X195862914Y-195157200D01*
X195791485Y-195085771D01*
X195791485Y-195228628D01*
X197148628Y-196514342D02*
X197005771Y-196585771D01*
X196720057Y-196585771D01*
X196577200Y-196514342D01*
X196505771Y-196442914D01*
X196434342Y-196300057D01*
X196434342Y-195871485D01*
X196505771Y-195728628D01*
X196577200Y-195657200D01*
X196720057Y-195585771D01*
X197005771Y-195585771D01*
X197148628Y-195657200D01*
X198434342Y-196585771D02*
X198434342Y-195800057D01*
X198362914Y-195657200D01*
X198220057Y-195585771D01*
X197934342Y-195585771D01*
X197791485Y-195657200D01*
X198434342Y-196514342D02*
X198291485Y-196585771D01*
X197934342Y-196585771D01*
X197791485Y-196514342D01*
X197720057Y-196371485D01*
X197720057Y-196228628D01*
X197791485Y-196085771D01*
X197934342Y-196014342D01*
X198291485Y-196014342D01*
X198434342Y-195942914D01*
X199791485Y-196585771D02*
X199791485Y-195085771D01*
X199791485Y-196514342D02*
X199648628Y-196585771D01*
X199362914Y-196585771D01*
X199220057Y-196514342D01*
X199148628Y-196442914D01*
X199077200Y-196300057D01*
X199077200Y-195871485D01*
X199148628Y-195728628D01*
X199220057Y-195657200D01*
X199362914Y-195585771D01*
X199648628Y-195585771D01*
X199791485Y-195657200D01*
X202291485Y-195085771D02*
X202005771Y-195085771D01*
X201862914Y-195157200D01*
X201791485Y-195228628D01*
X201648628Y-195442914D01*
X201577200Y-195728628D01*
X201577200Y-196300057D01*
X201648628Y-196442914D01*
X201720057Y-196514342D01*
X201862914Y-196585771D01*
X202148628Y-196585771D01*
X202291485Y-196514342D01*
X202362914Y-196442914D01*
X202434342Y-196300057D01*
X202434342Y-195942914D01*
X202362914Y-195800057D01*
X202291485Y-195728628D01*
X202148628Y-195657200D01*
X201862914Y-195657200D01*
X201720057Y-195728628D01*
X201648628Y-195800057D01*
X201577200Y-195942914D01*
X203077200Y-196442914D02*
X203148628Y-196514342D01*
X203077200Y-196585771D01*
X203005771Y-196514342D01*
X203077200Y-196442914D01*
X203077200Y-196585771D01*
X204077200Y-195085771D02*
X204220057Y-195085771D01*
X204362914Y-195157200D01*
X204434342Y-195228628D01*
X204505771Y-195371485D01*
X204577200Y-195657200D01*
X204577200Y-196014342D01*
X204505771Y-196300057D01*
X204434342Y-196442914D01*
X204362914Y-196514342D01*
X204220057Y-196585771D01*
X204077200Y-196585771D01*
X203934342Y-196514342D01*
X203862914Y-196442914D01*
X203791485Y-196300057D01*
X203720057Y-196014342D01*
X203720057Y-195657200D01*
X203791485Y-195371485D01*
X203862914Y-195228628D01*
X203934342Y-195157200D01*
X204077200Y-195085771D01*
X205220057Y-196442914D02*
X205291485Y-196514342D01*
X205220057Y-196585771D01*
X205148628Y-196514342D01*
X205220057Y-196442914D01*
X205220057Y-196585771D01*
X206648628Y-195085771D02*
X205934342Y-195085771D01*
X205862914Y-195800057D01*
X205934342Y-195728628D01*
X206077200Y-195657200D01*
X206434342Y-195657200D01*
X206577200Y-195728628D01*
X206648628Y-195800057D01*
X206720057Y-195942914D01*
X206720057Y-196300057D01*
X206648628Y-196442914D01*
X206577200Y-196514342D01*
X206434342Y-196585771D01*
X206077200Y-196585771D01*
X205934342Y-196514342D01*
X205862914Y-196442914D01*
X207362914Y-196014342D02*
X208505771Y-196014342D01*
X209862914Y-196585771D02*
X209862914Y-195800057D01*
X209791485Y-195657200D01*
X209648628Y-195585771D01*
X209362914Y-195585771D01*
X209220057Y-195657200D01*
X209862914Y-196514342D02*
X209720057Y-196585771D01*
X209362914Y-196585771D01*
X209220057Y-196514342D01*
X209148628Y-196371485D01*
X209148628Y-196228628D01*
X209220057Y-196085771D01*
X209362914Y-196014342D01*
X209720057Y-196014342D01*
X209862914Y-195942914D01*
X211220057Y-195085771D02*
X210934342Y-195085771D01*
X210791485Y-195157200D01*
X210720057Y-195228628D01*
X210577200Y-195442914D01*
X210505771Y-195728628D01*
X210505771Y-196300057D01*
X210577200Y-196442914D01*
X210648628Y-196514342D01*
X210791485Y-196585771D01*
X211077200Y-196585771D01*
X211220057Y-196514342D01*
X211291485Y-196442914D01*
X211362914Y-196300057D01*
X211362914Y-195942914D01*
X211291485Y-195800057D01*
X211220057Y-195728628D01*
X211077200Y-195657200D01*
X210791485Y-195657200D01*
X210648628Y-195728628D01*
X210577200Y-195800057D01*
X210505771Y-195942914D01*
X212648628Y-196514342D02*
X212505771Y-196585771D01*
X212220057Y-196585771D01*
X212077200Y-196514342D01*
X212005771Y-196442914D01*
X211934342Y-196300057D01*
X211934342Y-195871485D01*
X212005771Y-195728628D01*
X212077200Y-195657200D01*
X212220057Y-195585771D01*
X212505771Y-195585771D01*
X212648628Y-195657200D01*
X213934342Y-196585771D02*
X213934342Y-195800057D01*
X213862914Y-195657200D01*
X213720057Y-195585771D01*
X213434342Y-195585771D01*
X213291485Y-195657200D01*
X213934342Y-196514342D02*
X213791485Y-196585771D01*
X213434342Y-196585771D01*
X213291485Y-196514342D01*
X213220057Y-196371485D01*
X213220057Y-196228628D01*
X213291485Y-196085771D01*
X213434342Y-196014342D01*
X213791485Y-196014342D01*
X213934342Y-195942914D01*
X214505771Y-195085771D02*
X215505771Y-195085771D01*
X214862914Y-196585771D01*
X216362914Y-195085771D02*
X216505771Y-195085771D01*
X216648628Y-195157200D01*
X216720057Y-195228628D01*
X216791485Y-195371485D01*
X216862914Y-195657200D01*
X216862914Y-196014342D01*
X216791485Y-196300057D01*
X216720057Y-196442914D01*
X216648628Y-196514342D01*
X216505771Y-196585771D01*
X216362914Y-196585771D01*
X216220057Y-196514342D01*
X216148628Y-196442914D01*
X216077200Y-196300057D01*
X216005771Y-196014342D01*
X216005771Y-195657200D01*
X216077200Y-195371485D01*
X216148628Y-195228628D01*
X216220057Y-195157200D01*
X216362914Y-195085771D01*
X217434342Y-195228628D02*
X217505771Y-195157200D01*
X217648628Y-195085771D01*
X218005771Y-195085771D01*
X218148628Y-195157200D01*
X218220057Y-195228628D01*
X218291485Y-195371485D01*
X218291485Y-195514342D01*
X218220057Y-195728628D01*
X217362914Y-196585771D01*
X218291485Y-196585771D01*
X219505771Y-196514342D02*
X219362914Y-196585771D01*
X219077200Y-196585771D01*
X218934342Y-196514342D01*
X218862914Y-196371485D01*
X218862914Y-195800057D01*
X218934342Y-195657200D01*
X219077200Y-195585771D01*
X219362914Y-195585771D01*
X219505771Y-195657200D01*
X219577200Y-195800057D01*
X219577200Y-195942914D01*
X218862914Y-196085771D01*
X220291485Y-196585771D02*
X220577200Y-196585771D01*
X220720057Y-196514342D01*
X220791485Y-196442914D01*
X220934342Y-196228628D01*
X221005771Y-195942914D01*
X221005771Y-195371485D01*
X220934342Y-195228628D01*
X220862914Y-195157200D01*
X220720057Y-195085771D01*
X220434342Y-195085771D01*
X220291485Y-195157200D01*
X220220057Y-195228628D01*
X220148628Y-195371485D01*
X220148628Y-195728628D01*
X220220057Y-195871485D01*
X220291485Y-195942914D01*
X220434342Y-196014342D01*
X220720057Y-196014342D01*
X220862914Y-195942914D01*
X220934342Y-195871485D01*
X221005771Y-195728628D01*
X222434342Y-196585771D02*
X221577199Y-196585771D01*
X222005771Y-196585771D02*
X222005771Y-195085771D01*
X221862914Y-195300057D01*
X221720057Y-195442914D01*
X221577199Y-195514342D01*
X222862914Y-196014342D02*
X222934342Y-195942914D01*
X223077199Y-195871485D01*
X223362914Y-196014342D01*
X223505771Y-195942914D01*
X223577199Y-195871485D01*
X224934342Y-196585771D02*
X224077199Y-196585771D01*
X224505771Y-196585771D02*
X224505771Y-195085771D01*
X224362914Y-195300057D01*
X224220057Y-195442914D01*
X224077199Y-195514342D01*
X226362914Y-196585771D02*
X225505771Y-196585771D01*
X225934342Y-196585771D02*
X225934342Y-195085771D01*
X225791485Y-195300057D01*
X225648628Y-195442914D01*
X225505771Y-195514342D01*
X227648628Y-195085771D02*
X227362914Y-195085771D01*
X227220057Y-195157200D01*
X227148628Y-195228628D01*
X227005771Y-195442914D01*
X226934342Y-195728628D01*
X226934342Y-196300057D01*
X227005771Y-196442914D01*
X227077199Y-196514342D01*
X227220057Y-196585771D01*
X227505771Y-196585771D01*
X227648628Y-196514342D01*
X227720057Y-196442914D01*
X227791485Y-196300057D01*
X227791485Y-195942914D01*
X227720057Y-195800057D01*
X227648628Y-195728628D01*
X227505771Y-195657200D01*
X227220057Y-195657200D01*
X227077199Y-195728628D01*
X227005771Y-195800057D01*
X226934342Y-195942914D01*
X228220057Y-196014342D02*
X228291485Y-195942914D01*
X228434342Y-195871485D01*
X228720057Y-196014342D01*
X228862914Y-195942914D01*
X228934342Y-195871485D01*
X230148628Y-195585771D02*
X230148628Y-196585771D01*
X229505771Y-195585771D02*
X229505771Y-196371485D01*
X229577199Y-196514342D01*
X229720057Y-196585771D01*
X229934342Y-196585771D01*
X230077199Y-196514342D01*
X230148628Y-196442914D01*
X230862914Y-196585771D02*
X230862914Y-195085771D01*
X230862914Y-195657200D02*
X231005771Y-195585771D01*
X231291485Y-195585771D01*
X231434342Y-195657200D01*
X231505771Y-195728628D01*
X231577199Y-195871485D01*
X231577199Y-196300057D01*
X231505771Y-196442914D01*
X231434342Y-196514342D01*
X231291485Y-196585771D01*
X231005771Y-196585771D01*
X230862914Y-196514342D01*
X232862914Y-195585771D02*
X232862914Y-196585771D01*
X232220057Y-195585771D02*
X232220057Y-196371485D01*
X232291485Y-196514342D01*
X232434342Y-196585771D01*
X232648628Y-196585771D01*
X232791485Y-196514342D01*
X232862914Y-196442914D01*
X233577199Y-195585771D02*
X233577199Y-196585771D01*
X233577199Y-195728628D02*
X233648628Y-195657200D01*
X233791485Y-195585771D01*
X234005771Y-195585771D01*
X234148628Y-195657200D01*
X234220057Y-195800057D01*
X234220057Y-196585771D01*
X234720057Y-195585771D02*
X235291485Y-195585771D01*
X234934342Y-195085771D02*
X234934342Y-196371485D01*
X235005771Y-196514342D01*
X235148628Y-196585771D01*
X235291485Y-196585771D01*
X236434342Y-195585771D02*
X236434342Y-196585771D01*
X235791485Y-195585771D02*
X235791485Y-196371485D01*
X235862914Y-196514342D01*
X236005771Y-196585771D01*
X236220057Y-196585771D01*
X236362914Y-196514342D01*
X236434342Y-196442914D01*
X237077199Y-195228628D02*
X237148628Y-195157200D01*
X237291485Y-195085771D01*
X237648628Y-195085771D01*
X237791485Y-195157200D01*
X237862914Y-195228628D01*
X237934342Y-195371485D01*
X237934342Y-195514342D01*
X237862914Y-195728628D01*
X237005771Y-196585771D01*
X237934342Y-196585771D01*
X238862914Y-195085771D02*
X239005771Y-195085771D01*
X239148628Y-195157200D01*
X239220057Y-195228628D01*
X239291485Y-195371485D01*
X239362914Y-195657200D01*
X239362914Y-196014342D01*
X239291485Y-196300057D01*
X239220057Y-196442914D01*
X239148628Y-196514342D01*
X239005771Y-196585771D01*
X238862914Y-196585771D01*
X238720057Y-196514342D01*
X238648628Y-196442914D01*
X238577199Y-196300057D01*
X238505771Y-196014342D01*
X238505771Y-195657200D01*
X238577199Y-195371485D01*
X238648628Y-195228628D01*
X238720057Y-195157200D01*
X238862914Y-195085771D01*
X240005771Y-196442914D02*
X240077199Y-196514342D01*
X240005771Y-196585771D01*
X239934342Y-196514342D01*
X240005771Y-196442914D01*
X240005771Y-196585771D01*
X241005771Y-195085771D02*
X241148628Y-195085771D01*
X241291485Y-195157200D01*
X241362914Y-195228628D01*
X241434342Y-195371485D01*
X241505771Y-195657200D01*
X241505771Y-196014342D01*
X241434342Y-196300057D01*
X241362914Y-196442914D01*
X241291485Y-196514342D01*
X241148628Y-196585771D01*
X241005771Y-196585771D01*
X240862914Y-196514342D01*
X240791485Y-196442914D01*
X240720057Y-196300057D01*
X240648628Y-196014342D01*
X240648628Y-195657200D01*
X240720057Y-195371485D01*
X240791485Y-195228628D01*
X240862914Y-195157200D01*
X241005771Y-195085771D01*
X242791485Y-195585771D02*
X242791485Y-196585771D01*
X242434342Y-195014342D02*
X242077199Y-196085771D01*
X243005771Y-196085771D01*
X243577199Y-196442914D02*
X243648628Y-196514342D01*
X243577199Y-196585771D01*
X243505771Y-196514342D01*
X243577199Y-196442914D01*
X243577199Y-196585771D01*
X245077199Y-196585771D02*
X244220057Y-196585771D01*
X244648628Y-196585771D02*
X244648628Y-195085771D01*
X244505771Y-195300057D01*
X244362914Y-195442914D01*
X244220057Y-195514342D01*
D10*
D11*
X177002200Y-191507200D02*
X285002200Y-191507200D01*
D10*
D12*
X264411485Y-193785771D02*
X263911485Y-193071485D01*
X263554342Y-193785771D02*
X263554342Y-192285771D01*
X264125771Y-192285771D01*
X264268628Y-192357200D01*
X264340057Y-192428628D01*
X264411485Y-192571485D01*
X264411485Y-192785771D01*
X264340057Y-192928628D01*
X264268628Y-193000057D01*
X264125771Y-193071485D01*
X263554342Y-193071485D01*
X265625771Y-193714342D02*
X265482914Y-193785771D01*
X265197200Y-193785771D01*
X265054342Y-193714342D01*
X264982914Y-193571485D01*
X264982914Y-193000057D01*
X265054342Y-192857200D01*
X265197200Y-192785771D01*
X265482914Y-192785771D01*
X265625771Y-192857200D01*
X265697200Y-193000057D01*
X265697200Y-193142914D01*
X264982914Y-193285771D01*
X266197200Y-192785771D02*
X266554342Y-193785771D01*
X266911485Y-192785771D01*
X267482914Y-193642914D02*
X267554342Y-193714342D01*
X267482914Y-193785771D01*
X267411485Y-193714342D01*
X267482914Y-193642914D01*
X267482914Y-193785771D01*
X267482914Y-192857200D02*
X267554342Y-192928628D01*
X267482914Y-193000057D01*
X267411485Y-192928628D01*
X267482914Y-192857200D01*
X267482914Y-193000057D01*
D10*
D11*
X178362914Y-193714342D02*
X178577200Y-193785771D01*
X178934342Y-193785771D01*
X179077200Y-193714342D01*
X179148628Y-193642914D01*
X179220057Y-193500057D01*
X179220057Y-193357200D01*
X179148628Y-193214342D01*
X179077200Y-193142914D01*
X178934342Y-193071485D01*
X178648628Y-193000057D01*
X178505771Y-192928628D01*
X178434342Y-192857200D01*
X178362914Y-192714342D01*
X178362914Y-192571485D01*
X178434342Y-192428628D01*
X178505771Y-192357200D01*
X178648628Y-192285771D01*
X179005771Y-192285771D01*
X179220057Y-192357200D01*
X179862914Y-193785771D02*
X179862914Y-192785771D01*
X179862914Y-192285771D02*
X179791485Y-192357200D01*
X179862914Y-192428628D01*
X179934342Y-192357200D01*
X179862914Y-192285771D01*
X179862914Y-192428628D01*
X180434342Y-192785771D02*
X181220057Y-192785771D01*
X180434342Y-193785771D01*
X181220057Y-193785771D01*
X182362914Y-193714342D02*
X182220057Y-193785771D01*
X181934342Y-193785771D01*
X181791485Y-193714342D01*
X181720057Y-193571485D01*
X181720057Y-193000057D01*
X181791485Y-192857200D01*
X181934342Y-192785771D01*
X182220057Y-192785771D01*
X182362914Y-192857200D01*
X182434342Y-193000057D01*
X182434342Y-193142914D01*
X181720057Y-193285771D01*
X183077200Y-193642914D02*
X183148628Y-193714342D01*
X183077200Y-193785771D01*
X183005771Y-193714342D01*
X183077200Y-193642914D01*
X183077200Y-193785771D01*
X183077200Y-192857200D02*
X183148628Y-192928628D01*
X183077200Y-193000057D01*
X183005771Y-192928628D01*
X183077200Y-192857200D01*
X183077200Y-193000057D01*
X184862914Y-193357200D02*
X185577200Y-193357200D01*
X184720057Y-193785771D02*
X185220057Y-192285771D01*
X185720057Y-193785771D01*
X186862914Y-192785771D02*
X186862914Y-193785771D01*
X186505771Y-192214342D02*
X186148628Y-193285771D01*
X187077200Y-193285771D01*
D10*
D11*
X263434342Y-196585771D02*
X263434342Y-195085771D01*
X264791485Y-196585771D02*
X264791485Y-195085771D01*
X264791485Y-196514342D02*
X264648628Y-196585771D01*
X264362914Y-196585771D01*
X264220057Y-196514342D01*
X264148628Y-196442914D01*
X264077200Y-196300057D01*
X264077200Y-195871485D01*
X264148628Y-195728628D01*
X264220057Y-195657200D01*
X264362914Y-195585771D01*
X264648628Y-195585771D01*
X264791485Y-195657200D01*
X265505771Y-196442914D02*
X265577200Y-196514342D01*
X265505771Y-196585771D01*
X265434342Y-196514342D01*
X265505771Y-196442914D01*
X265505771Y-196585771D01*
X265505771Y-195657200D02*
X265577200Y-195728628D01*
X265505771Y-195800057D01*
X265434342Y-195728628D01*
X265505771Y-195657200D01*
X265505771Y-195800057D01*
X268148628Y-196585771D02*
X267291485Y-196585771D01*
X267720057Y-196585771D02*
X267720057Y-195085771D01*
X267577200Y-195300057D01*
X267434342Y-195442914D01*
X267291485Y-195514342D01*
X269862914Y-195014342D02*
X268577200Y-196942914D01*
X271148628Y-196585771D02*
X270291485Y-196585771D01*
X270720057Y-196585771D02*
X270720057Y-195085771D01*
X270577200Y-195300057D01*
X270434342Y-195442914D01*
X270291485Y-195514342D01*
D10*
D11*
X177002200Y-187507200D02*
X285002200Y-187507200D01*
D10*
D13*
X178714580Y-188211961D02*
X179857438Y-188211961D01*
X179036009Y-190211961D02*
X179286009Y-188211961D01*
X180274104Y-190211961D02*
X180440771Y-188878628D01*
X180524104Y-188211961D02*
X180416961Y-188307200D01*
X180500295Y-188402438D01*
X180607438Y-188307200D01*
X180524104Y-188211961D01*
X180500295Y-188402438D01*
X181107438Y-188878628D02*
X181869342Y-188878628D01*
X181476485Y-188211961D02*
X181262200Y-189926247D01*
X181333628Y-190116723D01*
X181512200Y-190211961D01*
X181702676Y-190211961D01*
X182655057Y-190211961D02*
X182476485Y-190116723D01*
X182405057Y-189926247D01*
X182619342Y-188211961D01*
X184190771Y-190116723D02*
X183988390Y-190211961D01*
X183607438Y-190211961D01*
X183428866Y-190116723D01*
X183357438Y-189926247D01*
X183452676Y-189164342D01*
X183571723Y-188973866D01*
X183774104Y-188878628D01*
X184155057Y-188878628D01*
X184333628Y-188973866D01*
X184405057Y-189164342D01*
X184381247Y-189354819D01*
X183405057Y-189545295D01*
X185155057Y-190021485D02*
X185238390Y-190116723D01*
X185131247Y-190211961D01*
X185047914Y-190116723D01*
X185155057Y-190021485D01*
X185131247Y-190211961D01*
X185286009Y-188973866D02*
X185369342Y-189069104D01*
X185262200Y-189164342D01*
X185178866Y-189069104D01*
X185286009Y-188973866D01*
X185262200Y-189164342D01*
D10*
D11*
X178934342Y-185600057D02*
X178434342Y-185600057D01*
X178434342Y-186385771D02*
X178434342Y-184885771D01*
X179148628Y-184885771D01*
X179720057Y-186385771D02*
X179720057Y-185385771D01*
X179720057Y-184885771D02*
X179648628Y-184957200D01*
X179720057Y-185028628D01*
X179791485Y-184957200D01*
X179720057Y-184885771D01*
X179720057Y-185028628D01*
X180648628Y-186385771D02*
X180505771Y-186314342D01*
X180434342Y-186171485D01*
X180434342Y-184885771D01*
X181791485Y-186314342D02*
X181648628Y-186385771D01*
X181362914Y-186385771D01*
X181220057Y-186314342D01*
X181148628Y-186171485D01*
X181148628Y-185600057D01*
X181220057Y-185457200D01*
X181362914Y-185385771D01*
X181648628Y-185385771D01*
X181791485Y-185457200D01*
X181862914Y-185600057D01*
X181862914Y-185742914D01*
X181148628Y-185885771D01*
X182505771Y-186242914D02*
X182577200Y-186314342D01*
X182505771Y-186385771D01*
X182434342Y-186314342D01*
X182505771Y-186242914D01*
X182505771Y-186385771D01*
X182505771Y-185457200D02*
X182577200Y-185528628D01*
X182505771Y-185600057D01*
X182434342Y-185528628D01*
X182505771Y-185457200D01*
X182505771Y-185600057D01*
X184362914Y-186385771D02*
X184362914Y-184885771D01*
X184505771Y-185814342D02*
X184934342Y-186385771D01*
X184934342Y-185385771D02*
X184362914Y-185957200D01*
X185577200Y-186385771D02*
X185577200Y-185385771D01*
X185577200Y-184885771D02*
X185505771Y-184957200D01*
X185577200Y-185028628D01*
X185648628Y-184957200D01*
X185577200Y-184885771D01*
X185577200Y-185028628D01*
X186934342Y-186385771D02*
X186934342Y-184885771D01*
X186934342Y-186314342D02*
X186791485Y-186385771D01*
X186505771Y-186385771D01*
X186362914Y-186314342D01*
X186291485Y-186242914D01*
X186220057Y-186100057D01*
X186220057Y-185671485D01*
X186291485Y-185528628D01*
X186362914Y-185457200D01*
X186505771Y-185385771D01*
X186791485Y-185385771D01*
X186934342Y-185457200D01*
X187577200Y-186314342D02*
X187720057Y-186385771D01*
X188005771Y-186385771D01*
X188148628Y-186314342D01*
X188220057Y-186171485D01*
X188220057Y-186100057D01*
X188148628Y-185957200D01*
X188005771Y-185885771D01*
X187791485Y-185885771D01*
X187648628Y-185814342D01*
X187577200Y-185671485D01*
X187577200Y-185600057D01*
X187648628Y-185457200D01*
X187791485Y-185385771D01*
X188005771Y-185385771D01*
X188148628Y-185457200D01*
X189077200Y-186385771D02*
X188934342Y-186314342D01*
X188862914Y-186171485D01*
X188862914Y-184885771D01*
X190291485Y-186385771D02*
X190291485Y-185600057D01*
X190220057Y-185457200D01*
X190077200Y-185385771D01*
X189791485Y-185385771D01*
X189648628Y-185457200D01*
X190291485Y-186314342D02*
X190148628Y-186385771D01*
X189791485Y-186385771D01*
X189648628Y-186314342D01*
X189577200Y-186171485D01*
X189577200Y-186028628D01*
X189648628Y-185885771D01*
X189791485Y-185814342D01*
X190148628Y-185814342D01*
X190291485Y-185742914D01*
X191005771Y-186385771D02*
X191005771Y-184885771D01*
X191005771Y-185457200D02*
X191148628Y-185385771D01*
X191434342Y-185385771D01*
X191577200Y-185457200D01*
X191648628Y-185528628D01*
X191720057Y-185671485D01*
X191720057Y-186100057D01*
X191648628Y-186242914D01*
X191577200Y-186314342D01*
X191434342Y-186385771D01*
X191148628Y-186385771D01*
X191005771Y-186314342D01*
X192362914Y-185814342D02*
X193505771Y-185814342D01*
X194434342Y-186385771D02*
X194291485Y-186314342D01*
X194220057Y-186171485D01*
X194220057Y-184885771D01*
X195648628Y-186385771D02*
X195648628Y-185600057D01*
X195577200Y-185457200D01*
X195434342Y-185385771D01*
X195148628Y-185385771D01*
X195005771Y-185457200D01*
X195648628Y-186314342D02*
X195505771Y-186385771D01*
X195148628Y-186385771D01*
X195005771Y-186314342D01*
X194934342Y-186171485D01*
X194934342Y-186028628D01*
X195005771Y-185885771D01*
X195148628Y-185814342D01*
X195505771Y-185814342D01*
X195648628Y-185742914D01*
X196362914Y-186385771D02*
X196362914Y-185385771D01*
X196362914Y-185528628D02*
X196434342Y-185457200D01*
X196577200Y-185385771D01*
X196791485Y-185385771D01*
X196934342Y-185457200D01*
X197005771Y-185600057D01*
X197005771Y-186385771D01*
X197005771Y-185600057D02*
X197077200Y-185457200D01*
X197220057Y-185385771D01*
X197434342Y-185385771D01*
X197577200Y-185457200D01*
X197648628Y-185600057D01*
X197648628Y-186385771D01*
X198362914Y-185385771D02*
X198362914Y-186885771D01*
X198362914Y-185457200D02*
X198505771Y-185385771D01*
X198791485Y-185385771D01*
X198934342Y-185457200D01*
X199005771Y-185528628D01*
X199077200Y-185671485D01*
X199077200Y-186100057D01*
X199005771Y-186242914D01*
X198934342Y-186314342D01*
X198791485Y-186385771D01*
X198505771Y-186385771D01*
X198362914Y-186314342D01*
X199720057Y-186242914D02*
X199791485Y-186314342D01*
X199720057Y-186385771D01*
X199648628Y-186314342D01*
X199720057Y-186242914D01*
X199720057Y-186385771D01*
X200434342Y-186385771D02*
X200434342Y-184885771D01*
X200577200Y-185814342D02*
X201005771Y-186385771D01*
X201005771Y-185385771D02*
X200434342Y-185957200D01*
X201648628Y-186385771D02*
X201648628Y-185385771D01*
X201648628Y-184885771D02*
X201577200Y-184957200D01*
X201648628Y-185028628D01*
X201720057Y-184957200D01*
X201648628Y-184885771D01*
X201648628Y-185028628D01*
X203005771Y-186314342D02*
X202862914Y-186385771D01*
X202577200Y-186385771D01*
X202434342Y-186314342D01*
X202362914Y-186242914D01*
X202291485Y-186100057D01*
X202291485Y-185671485D01*
X202362914Y-185528628D01*
X202434342Y-185457200D01*
X202577200Y-185385771D01*
X202862914Y-185385771D01*
X203005771Y-185457200D01*
X204291485Y-186385771D02*
X204291485Y-185600057D01*
X204220057Y-185457200D01*
X204077200Y-185385771D01*
X203791485Y-185385771D01*
X203648628Y-185457200D01*
X204291485Y-186314342D02*
X204148628Y-186385771D01*
X203791485Y-186385771D01*
X203648628Y-186314342D01*
X203577200Y-186171485D01*
X203577200Y-186028628D01*
X203648628Y-185885771D01*
X203791485Y-185814342D01*
X204148628Y-185814342D01*
X204291485Y-185742914D01*
X205648628Y-186385771D02*
X205648628Y-184885771D01*
X205648628Y-186314342D02*
X205505771Y-186385771D01*
X205220057Y-186385771D01*
X205077200Y-186314342D01*
X205005771Y-186242914D01*
X204934342Y-186100057D01*
X204934342Y-185671485D01*
X205005771Y-185528628D01*
X205077200Y-185457200D01*
X205220057Y-185385771D01*
X205505771Y-185385771D01*
X205648628Y-185457200D01*
X206005771Y-186528628D02*
X207148628Y-186528628D01*
X207505771Y-185385771D02*
X207505771Y-186885771D01*
X207505771Y-185457200D02*
X207648628Y-185385771D01*
X207934342Y-185385771D01*
X208077200Y-185457200D01*
X208148628Y-185528628D01*
X208220057Y-185671485D01*
X208220057Y-186100057D01*
X208148628Y-186242914D01*
X208077200Y-186314342D01*
X207934342Y-186385771D01*
X207648628Y-186385771D01*
X207505771Y-186314342D01*
X209505771Y-186314342D02*
X209362914Y-186385771D01*
X209077200Y-186385771D01*
X208934342Y-186314342D01*
X208862914Y-186242914D01*
X208791485Y-186100057D01*
X208791485Y-185671485D01*
X208862914Y-185528628D01*
X208934342Y-185457200D01*
X209077200Y-185385771D01*
X209362914Y-185385771D01*
X209505771Y-185457200D01*
X210148628Y-186385771D02*
X210148628Y-184885771D01*
X210148628Y-185457200D02*
X210291485Y-185385771D01*
X210577200Y-185385771D01*
X210720057Y-185457200D01*
X210791485Y-185528628D01*
X210862914Y-185671485D01*
X210862914Y-186100057D01*
X210791485Y-186242914D01*
X210720057Y-186314342D01*
X210577200Y-186385771D01*
X210291485Y-186385771D01*
X210148628Y-186314342D01*
D10*
D11*
X177002200Y-181507200D02*
X285002200Y-181507200D01*
D10*
D11*
X178362914Y-183614342D02*
X178577200Y-183685771D01*
X178934342Y-183685771D01*
X179077200Y-183614342D01*
X179148628Y-183542914D01*
X179220057Y-183400057D01*
X179220057Y-183257200D01*
X179148628Y-183114342D01*
X179077200Y-183042914D01*
X178934342Y-182971485D01*
X178648628Y-182900057D01*
X178505771Y-182828628D01*
X178434342Y-182757200D01*
X178362914Y-182614342D01*
X178362914Y-182471485D01*
X178434342Y-182328628D01*
X178505771Y-182257200D01*
X178648628Y-182185771D01*
X179005771Y-182185771D01*
X179220057Y-182257200D01*
X179862914Y-183685771D02*
X179862914Y-182185771D01*
X180505771Y-183685771D02*
X180505771Y-182900057D01*
X180434342Y-182757200D01*
X180291485Y-182685771D01*
X180077200Y-182685771D01*
X179934342Y-182757200D01*
X179862914Y-182828628D01*
X181791485Y-183614342D02*
X181648628Y-183685771D01*
X181362914Y-183685771D01*
X181220057Y-183614342D01*
X181148628Y-183471485D01*
X181148628Y-182900057D01*
X181220057Y-182757200D01*
X181362914Y-182685771D01*
X181648628Y-182685771D01*
X181791485Y-182757200D01*
X181862914Y-182900057D01*
X181862914Y-183042914D01*
X181148628Y-183185771D01*
X183077200Y-183614342D02*
X182934342Y-183685771D01*
X182648628Y-183685771D01*
X182505771Y-183614342D01*
X182434342Y-183471485D01*
X182434342Y-182900057D01*
X182505771Y-182757200D01*
X182648628Y-182685771D01*
X182934342Y-182685771D01*
X183077200Y-182757200D01*
X183148628Y-182900057D01*
X183148628Y-183042914D01*
X182434342Y-183185771D01*
X183577200Y-182685771D02*
X184148628Y-182685771D01*
X183791485Y-182185771D02*
X183791485Y-183471485D01*
X183862914Y-183614342D01*
X184005771Y-183685771D01*
X184148628Y-183685771D01*
X184648628Y-183542914D02*
X184720057Y-183614342D01*
X184648628Y-183685771D01*
X184577200Y-183614342D01*
X184648628Y-183542914D01*
X184648628Y-183685771D01*
X184648628Y-182757200D02*
X184720057Y-182828628D01*
X184648628Y-182900057D01*
X184577200Y-182828628D01*
X184648628Y-182757200D01*
X184648628Y-182900057D01*
D10*
D12*
D10*
D11*
D10*
D11*
D10*
D11*
D10*
D11*
D10*
D11*
X197002200Y-191507200D02*
X197002200Y-194507200D01*
D10*
D11*
X261002200Y-191507200D02*
X261002200Y-198007200D01*
D14*
%TO.C,GPIO15*%
X149938000Y-97944000D03*
D15*
X149938000Y-102944000D03*
%TD*%
D16*
%TO.C,GPIO14*%
X138478000Y-109154000D03*
D15*
X143478000Y-109154000D03*
%TD*%
D17*
%TO.C,GPIO16*%
X161148000Y-109154000D03*
D15*
X156148000Y-109154000D03*
%TD*%
D18*
%TO.C,GPIO17*%
X149938000Y-120614000D03*
D15*
X149938000Y-115614000D03*
%TD*%
D19*
%TO.C,E39*%
X167838381Y-129145284D03*
%TD*%
D20*
%TO.C,GPIO5*%
X127514604Y-117089721D03*
%TD*%
D21*
%TO.C,E30*%
X168338000Y-146154000D03*
%TD*%
D22*
%TO.C,GPIO3*%
X111535992Y-90634063D03*
%TD*%
D23*
%TO.C,GPIO4*%
X118019915Y-105096642D03*
%TD*%
D24*
%TO.C,E34*%
X131038000Y-153654000D03*
%TD*%
D25*
%TO.C,E37*%
X158920635Y-163055519D03*
%TD*%
D26*
%TO.C,GPIO1*%
X116519915Y-60211358D03*
%TD*%
D27*
%TO.C,E40*%
X132037619Y-129145284D03*
%TD*%
D28*
%TO.C,GPIO28*%
X172385008Y-49238805D03*
%TD*%
D29*
%TO.C,GPIO20*%
X172353195Y-117101008D03*
%TD*%
D21*
%TO.C,E31*%
X168338000Y-139154000D03*
%TD*%
D30*
%TO.C,E38*%
X140955365Y-163055519D03*
%TD*%
D24*
%TO.C,E33*%
X131098000Y-139654000D03*
%TD*%
D21*
%TO.C,E35*%
X168338000Y-153154000D03*
%TD*%
D31*
%TO.C,GPIO22*%
X188340008Y-90634063D03*
%TD*%
D24*
%TO.C,E32*%
X131038000Y-146654000D03*
%TD*%
D32*
%TO.C,GPIO26*%
X188339837Y-73673081D03*
%TD*%
D33*
%TO.C,GPIO27*%
X182856085Y-60211358D03*
%TD*%
D34*
%TO.C,GPIO0*%
X127994641Y-49236413D03*
%TD*%
D35*
%TO.C,GPIO2*%
X111535992Y-73673937D03*
%TD*%
D36*
%TO.C,GPIO21*%
X182356588Y-105095930D03*
%TD*%
D37*
%TO.C,U1*%
X146913000Y-41424000D03*
X152363000Y-41424000D03*
D38*
X147213000Y-44454000D03*
X152063000Y-44454000D03*
D39*
X140748000Y-41294000D03*
X140748000Y-43834000D03*
D40*
X140748000Y-46374000D03*
D39*
X140748000Y-48914000D03*
X140748000Y-51454000D03*
X140748000Y-53994000D03*
X140748000Y-56534000D03*
D40*
X140748000Y-59074000D03*
D39*
X140748000Y-61614000D03*
X140748000Y-64154000D03*
X140748000Y-66694000D03*
X140748000Y-69234000D03*
D40*
X140748000Y-71774000D03*
D39*
X140748000Y-74314000D03*
X140748000Y-76854000D03*
X140748000Y-79394000D03*
X140748000Y-81934000D03*
D40*
X140748000Y-84474000D03*
D39*
X140748000Y-87014000D03*
X140748000Y-89554000D03*
X158528000Y-89554000D03*
X158528000Y-87014000D03*
D40*
X158528000Y-84474000D03*
D39*
X158528000Y-81934000D03*
X158528000Y-79394000D03*
X158528000Y-76854000D03*
X158528000Y-74314000D03*
D40*
X158528000Y-71774000D03*
D39*
X158528000Y-69234000D03*
X158528000Y-66694000D03*
X158528000Y-64154000D03*
X158528000Y-61614000D03*
D40*
X158528000Y-59074000D03*
D39*
X158528000Y-56534000D03*
X158528000Y-53994000D03*
X158528000Y-51454000D03*
X158528000Y-48914000D03*
D40*
X158528000Y-46374000D03*
D39*
X158528000Y-43834000D03*
X158528000Y-41294000D03*
X147098000Y-89324000D03*
D40*
X149638000Y-89324000D03*
D39*
X152178000Y-89324000D03*
%TD*%
D18*
%TO.C,GPIO18*%
X172438000Y-97154000D03*
D15*
X172438000Y-92154000D03*
%TD*%
D40*
%TO.C,C1*%
X177463000Y-79154000D03*
D39*
X174923000Y-79154000D03*
X172383000Y-79154000D03*
%TD*%
D16*
%TO.C,B6*%
X154938000Y-139154000D03*
D15*
X159938000Y-139154000D03*
%TD*%
%TO.C,GPIO13*%
X127438000Y-92154000D03*
D18*
X127438000Y-97154000D03*
%TD*%
D16*
%TO.C,B1*%
X154938000Y-153154000D03*
D15*
X159938000Y-153154000D03*
%TD*%
%TO.C,B2*%
X144438000Y-146654000D03*
D16*
X139438000Y-146654000D03*
%TD*%
%TO.C,B4*%
X139438000Y-153654000D03*
D15*
X144438000Y-153654000D03*
%TD*%
%TO.C,B3*%
X144438000Y-139654000D03*
D16*
X139438000Y-139654000D03*
%TD*%
D15*
%TO.C,B5*%
X159938000Y-146154000D03*
D16*
X154938000Y-146154000D03*
%TD*%
M02*
