%TF.GenerationSoftware,KiCad,Pcbnew,6.0.5-a6ca702e91~116~ubuntu20.04.1*%
%TF.CreationDate,2022-05-23T12:47:59+02:00*%
%TF.ProjectId,kidslab-lamp,6b696473-6c61-4622-9d6c-616d702e6b69,rev?*%
%TF.SameCoordinates,Original*%
%TF.FileFunction,Copper,L1,Top*%
%TF.FilePolarity,Positive*%
%FSLAX46Y46*%
G04 Gerber Fmt 4.6, Leading zero omitted, Abs format (unit mm)*
G04 Created by KiCad (PCBNEW 6.0.5-a6ca702e91~116~ubuntu20.04.1) date 2022-05-23 12:47:59*
%MOMM*%
%LPD*%
G01*
G04 APERTURE LIST*
G04 Aperture macros list*
%AMFreePoly0*
4,1,66,4.411842,5.095106,4.430902,5.095106,4.441081,5.087711,4.453280,5.084625,4.465483,5.069982,4.480902,5.058779,4.484790,5.046813,4.492846,5.037146,4.494111,5.018124,4.500000,5.000000,4.500000,2.600000,10.900000,2.600000,10.915063,2.595106,10.930902,2.595106,10.943716,2.585796,10.958779,2.580902,10.968089,2.568089,10.980902,2.558779,10.985796,2.543716,10.995106,2.530902,
10.995106,2.515063,11.000000,2.500000,11.000000,-2.500000,10.995106,-2.515063,10.995106,-2.530902,10.985796,-2.543716,10.980902,-2.558779,10.968089,-2.568089,10.958779,-2.580902,10.943716,-2.585796,10.930902,-2.595106,10.915063,-2.595106,10.900000,-2.600000,4.500000,-2.600000,4.500000,-5.000000,4.494111,-5.018124,4.492846,-5.037146,4.484790,-5.046813,4.480902,-5.058779,4.465483,-5.069982,
4.453280,-5.084625,4.441081,-5.087711,4.430902,-5.095106,4.411842,-5.095106,4.393363,-5.099780,4.381681,-5.095106,4.369098,-5.095106,4.353676,-5.083901,4.335982,-5.076822,-1.664018,-0.076822,-1.677110,-0.056028,-1.692845,-0.037146,-1.693299,-0.030314,-1.696947,-0.024521,-1.695316,0.000000,-1.696947,0.024521,-1.693299,0.030314,-1.692845,0.037146,-1.677110,0.056028,-1.664018,0.076822,
4.335982,5.076822,4.353676,5.083901,4.369098,5.095106,4.381681,5.095106,4.393363,5.099780,4.411842,5.095106,4.411842,5.095106,$1*%
%AMFreePoly1*
4,1,48,0.468453,2.455718,0.772542,2.377641,1.064448,2.262068,1.339567,2.110820,1.593560,1.926283,1.822422,1.711368,1.955916,1.550000,3.250000,1.550000,3.285355,1.535355,3.300000,1.500000,3.300000,-1.500000,3.285355,-1.535355,3.250000,-1.550000,1.955916,-1.550000,1.822422,-1.711368,1.593560,-1.926283,1.339567,-2.110820,1.064448,-2.262068,0.772542,-2.377641,0.468453,-2.455718,
0.156976,-2.495067,-0.156976,-2.495067,-0.468453,-2.455718,-0.772542,-2.377641,-1.064448,-2.262068,-1.339567,-2.110820,-1.593560,-1.926283,-1.822422,-1.711368,-2.022542,-1.469463,-2.190767,-1.204384,-2.324441,-0.920311,-2.421458,-0.621725,-2.480287,-0.313333,-2.500000,0.000000,-2.480287,0.313333,-2.421458,0.621725,-2.324441,0.920311,-2.190767,1.204384,-2.022542,1.469463,-1.822422,1.711368,
-1.593560,1.926283,-1.339567,2.110820,-1.064448,2.262068,-0.772542,2.377641,-0.468453,2.455718,-0.156976,2.495067,0.156976,2.495067,0.468453,2.455718,0.468453,2.455718,$1*%
%AMFreePoly2*
4,1,34,6.500000,-3.000000,0.000000,-3.000000,0.000000,-2.998354,-0.313585,-2.983566,-0.654430,-2.927750,-0.986600,-2.833129,-1.305693,-2.700956,-1.607480,-2.532984,-1.887961,-2.331438,-2.143418,-2.098991,-2.370465,-1.838721,-2.566093,-1.554081,-2.727708,-1.248842,-2.853170,-0.927051,-2.940814,-0.592972,-2.989479,-0.251034,-2.998520,0.094232,-2.967817,0.438249,-2.897777,0.776457,-2.789329,1.104374,
-2.643910,1.417652,-2.463448,1.712141,-2.250333,1.983936,-2.007392,2.229434,-1.737844,2.445383,-1.445261,2.628920,-1.133522,2.777612,-0.806759,2.889488,-0.469303,2.963065,-0.125627,2.997368,0.000000,2.995395,0.000000,3.000000,6.500000,3.000000,6.500000,-3.000000,6.500000,-3.000000,$1*%
G04 Aperture macros list end*
%ADD10C,0.100000*%
%ADD11C,0.150000*%
%ADD12C,0.300000*%
%ADD13C,0.400000*%
%TA.AperFunction,SMDPad,CuDef*%
%ADD14FreePoly0,270.000000*%
%TD*%
%TA.AperFunction,ComponentPad*%
%ADD15FreePoly1,270.000000*%
%TD*%
%TA.AperFunction,ComponentPad*%
%ADD16C,5.000000*%
%TD*%
%TA.AperFunction,SMDPad,CuDef*%
%ADD17FreePoly0,0.000000*%
%TD*%
%TA.AperFunction,ComponentPad*%
%ADD18FreePoly1,0.000000*%
%TD*%
%TA.AperFunction,SMDPad,CuDef*%
%ADD19FreePoly0,180.000000*%
%TD*%
%TA.AperFunction,ComponentPad*%
%ADD20FreePoly1,180.000000*%
%TD*%
%TA.AperFunction,SMDPad,CuDef*%
%ADD21FreePoly0,90.000000*%
%TD*%
%TA.AperFunction,ComponentPad*%
%ADD22FreePoly1,90.000000*%
%TD*%
%TA.AperFunction,CastellatedPad*%
%ADD23FreePoly2,355.000000*%
%TD*%
%TA.AperFunction,CastellatedPad*%
%ADD24FreePoly2,220.000000*%
%TD*%
%TA.AperFunction,CastellatedPad*%
%ADD25FreePoly2,0.000000*%
%TD*%
%TA.AperFunction,CastellatedPad*%
%ADD26FreePoly2,191.500000*%
%TD*%
%TA.AperFunction,CastellatedPad*%
%ADD27FreePoly2,215.000000*%
%TD*%
%TA.AperFunction,CastellatedPad*%
%ADD28FreePoly2,180.000000*%
%TD*%
%TA.AperFunction,CastellatedPad*%
%ADD29FreePoly2,280.000000*%
%TD*%
%TA.AperFunction,CastellatedPad*%
%ADD30FreePoly2,145.000000*%
%TD*%
%TA.AperFunction,CastellatedPad*%
%ADD31FreePoly2,185.000000*%
%TD*%
%TA.AperFunction,CastellatedPad*%
%ADD32FreePoly2,58.000000*%
%TD*%
%TA.AperFunction,CastellatedPad*%
%ADD33FreePoly2,328.000000*%
%TD*%
%TA.AperFunction,CastellatedPad*%
%ADD34FreePoly2,260.000000*%
%TD*%
%TA.AperFunction,CastellatedPad*%
%ADD35FreePoly2,348.500000*%
%TD*%
%TA.AperFunction,CastellatedPad*%
%ADD36FreePoly2,11.000000*%
%TD*%
%TA.AperFunction,CastellatedPad*%
%ADD37FreePoly2,35.000000*%
%TD*%
%TA.AperFunction,CastellatedPad*%
%ADD38FreePoly2,124.500000*%
%TD*%
%TA.AperFunction,CastellatedPad*%
%ADD39FreePoly2,168.500000*%
%TD*%
%TA.AperFunction,CastellatedPad*%
%ADD40FreePoly2,324.500000*%
%TD*%
%TA.AperFunction,SMDPad,CuDef*%
%ADD41R,1.600000X3.000000*%
%TD*%
%TA.AperFunction,SMDPad,CuDef*%
%ADD42R,1.000000X4.500000*%
%TD*%
%TA.AperFunction,SMDPad,CuDef*%
%ADD43R,3.500000X1.700000*%
%TD*%
%TA.AperFunction,ComponentPad*%
%ADD44O,1.700000X1.700000*%
%TD*%
%TA.AperFunction,ComponentPad*%
%ADD45R,1.700000X1.700000*%
%TD*%
%TA.AperFunction,SMDPad,CuDef*%
%ADD46R,1.700000X3.500000*%
%TD*%
%TA.AperFunction,SMDPad,CuDef*%
%ADD47R,1.500000X1.000000*%
%TD*%
%TA.AperFunction,ViaPad*%
%ADD48C,0.800000*%
%TD*%
%TA.AperFunction,Conductor*%
%ADD49C,2.000000*%
%TD*%
%TA.AperFunction,Conductor*%
%ADD50C,1.000000*%
%TD*%
G04 APERTURE END LIST*
D10*
D11*
X177002200Y-166007200D02*
X177002200Y-198007200D01*
X285002200Y-198007200D01*
X285002200Y-166007200D01*
X177002200Y-166007200D01*
D10*
D11*
X10000000Y-10000000D02*
X10000000Y-200007200D01*
X287002200Y-200007200D01*
X287002200Y-10000000D01*
X10000000Y-10000000D01*
D10*
D11*
X12000000Y-12000000D02*
X12000000Y-198007200D01*
X285002200Y-198007200D01*
X285002200Y-12000000D01*
X12000000Y-12000000D01*
D10*
D11*
X60000000Y-12000000D02*
X60000000Y-10000000D01*
D10*
D11*
X110000000Y-12000000D02*
X110000000Y-10000000D01*
D10*
D11*
X160000000Y-12000000D02*
X160000000Y-10000000D01*
D10*
D11*
X210000000Y-12000000D02*
X210000000Y-10000000D01*
D10*
D11*
X260000000Y-12000000D02*
X260000000Y-10000000D01*
D10*
D11*
X36065476Y-11588095D02*
X35322619Y-11588095D01*
X35694047Y-11588095D02*
X35694047Y-10288095D01*
X35570238Y-10473809D01*
X35446428Y-10597619D01*
X35322619Y-10659523D01*
D10*
D11*
X85322619Y-10411904D02*
X85384523Y-10350000D01*
X85508333Y-10288095D01*
X85817857Y-10288095D01*
X85941666Y-10350000D01*
X86003571Y-10411904D01*
X86065476Y-10535714D01*
X86065476Y-10659523D01*
X86003571Y-10845238D01*
X85260714Y-11588095D01*
X86065476Y-11588095D01*
D10*
D11*
X135260714Y-10288095D02*
X136065476Y-10288095D01*
X135632142Y-10783333D01*
X135817857Y-10783333D01*
X135941666Y-10845238D01*
X136003571Y-10907142D01*
X136065476Y-11030952D01*
X136065476Y-11340476D01*
X136003571Y-11464285D01*
X135941666Y-11526190D01*
X135817857Y-11588095D01*
X135446428Y-11588095D01*
X135322619Y-11526190D01*
X135260714Y-11464285D01*
D10*
D11*
X185941666Y-10721428D02*
X185941666Y-11588095D01*
X185632142Y-10226190D02*
X185322619Y-11154761D01*
X186127380Y-11154761D01*
D10*
D11*
X236003571Y-10288095D02*
X235384523Y-10288095D01*
X235322619Y-10907142D01*
X235384523Y-10845238D01*
X235508333Y-10783333D01*
X235817857Y-10783333D01*
X235941666Y-10845238D01*
X236003571Y-10907142D01*
X236065476Y-11030952D01*
X236065476Y-11340476D01*
X236003571Y-11464285D01*
X235941666Y-11526190D01*
X235817857Y-11588095D01*
X235508333Y-11588095D01*
X235384523Y-11526190D01*
X235322619Y-11464285D01*
D10*
D11*
X285941666Y-10288095D02*
X285694047Y-10288095D01*
X285570238Y-10350000D01*
X285508333Y-10411904D01*
X285384523Y-10597619D01*
X285322619Y-10845238D01*
X285322619Y-11340476D01*
X285384523Y-11464285D01*
X285446428Y-11526190D01*
X285570238Y-11588095D01*
X285817857Y-11588095D01*
X285941666Y-11526190D01*
X286003571Y-11464285D01*
X286065476Y-11340476D01*
X286065476Y-11030952D01*
X286003571Y-10907142D01*
X285941666Y-10845238D01*
X285817857Y-10783333D01*
X285570238Y-10783333D01*
X285446428Y-10845238D01*
X285384523Y-10907142D01*
X285322619Y-11030952D01*
D10*
D11*
X60000000Y-198007200D02*
X60000000Y-200007200D01*
D10*
D11*
X110000000Y-198007200D02*
X110000000Y-200007200D01*
D10*
D11*
X160000000Y-198007200D02*
X160000000Y-200007200D01*
D10*
D11*
X210000000Y-198007200D02*
X210000000Y-200007200D01*
D10*
D11*
X260000000Y-198007200D02*
X260000000Y-200007200D01*
D10*
D11*
X36065476Y-199595295D02*
X35322619Y-199595295D01*
X35694047Y-199595295D02*
X35694047Y-198295295D01*
X35570238Y-198481009D01*
X35446428Y-198604819D01*
X35322619Y-198666723D01*
D10*
D11*
X85322619Y-198419104D02*
X85384523Y-198357200D01*
X85508333Y-198295295D01*
X85817857Y-198295295D01*
X85941666Y-198357200D01*
X86003571Y-198419104D01*
X86065476Y-198542914D01*
X86065476Y-198666723D01*
X86003571Y-198852438D01*
X85260714Y-199595295D01*
X86065476Y-199595295D01*
D10*
D11*
X135260714Y-198295295D02*
X136065476Y-198295295D01*
X135632142Y-198790533D01*
X135817857Y-198790533D01*
X135941666Y-198852438D01*
X136003571Y-198914342D01*
X136065476Y-199038152D01*
X136065476Y-199347676D01*
X136003571Y-199471485D01*
X135941666Y-199533390D01*
X135817857Y-199595295D01*
X135446428Y-199595295D01*
X135322619Y-199533390D01*
X135260714Y-199471485D01*
D10*
D11*
X185941666Y-198728628D02*
X185941666Y-199595295D01*
X185632142Y-198233390D02*
X185322619Y-199161961D01*
X186127380Y-199161961D01*
D10*
D11*
X236003571Y-198295295D02*
X235384523Y-198295295D01*
X235322619Y-198914342D01*
X235384523Y-198852438D01*
X235508333Y-198790533D01*
X235817857Y-198790533D01*
X235941666Y-198852438D01*
X236003571Y-198914342D01*
X236065476Y-199038152D01*
X236065476Y-199347676D01*
X236003571Y-199471485D01*
X235941666Y-199533390D01*
X235817857Y-199595295D01*
X235508333Y-199595295D01*
X235384523Y-199533390D01*
X235322619Y-199471485D01*
D10*
D11*
X285941666Y-198295295D02*
X285694047Y-198295295D01*
X285570238Y-198357200D01*
X285508333Y-198419104D01*
X285384523Y-198604819D01*
X285322619Y-198852438D01*
X285322619Y-199347676D01*
X285384523Y-199471485D01*
X285446428Y-199533390D01*
X285570238Y-199595295D01*
X285817857Y-199595295D01*
X285941666Y-199533390D01*
X286003571Y-199471485D01*
X286065476Y-199347676D01*
X286065476Y-199038152D01*
X286003571Y-198914342D01*
X285941666Y-198852438D01*
X285817857Y-198790533D01*
X285570238Y-198790533D01*
X285446428Y-198852438D01*
X285384523Y-198914342D01*
X285322619Y-199038152D01*
D10*
D11*
X10000000Y-60000000D02*
X12000000Y-60000000D01*
D10*
D11*
X10000000Y-110000000D02*
X12000000Y-110000000D01*
D10*
D11*
X10000000Y-160000000D02*
X12000000Y-160000000D01*
D10*
D11*
X10690476Y-35216666D02*
X11309523Y-35216666D01*
X10566666Y-35588095D02*
X11000000Y-34288095D01*
X11433333Y-35588095D01*
D10*
D11*
X11092857Y-84907142D02*
X11278571Y-84969047D01*
X11340476Y-85030952D01*
X11402380Y-85154761D01*
X11402380Y-85340476D01*
X11340476Y-85464285D01*
X11278571Y-85526190D01*
X11154761Y-85588095D01*
X10659523Y-85588095D01*
X10659523Y-84288095D01*
X11092857Y-84288095D01*
X11216666Y-84350000D01*
X11278571Y-84411904D01*
X11340476Y-84535714D01*
X11340476Y-84659523D01*
X11278571Y-84783333D01*
X11216666Y-84845238D01*
X11092857Y-84907142D01*
X10659523Y-84907142D01*
D10*
D11*
X11402380Y-135464285D02*
X11340476Y-135526190D01*
X11154761Y-135588095D01*
X11030952Y-135588095D01*
X10845238Y-135526190D01*
X10721428Y-135402380D01*
X10659523Y-135278571D01*
X10597619Y-135030952D01*
X10597619Y-134845238D01*
X10659523Y-134597619D01*
X10721428Y-134473809D01*
X10845238Y-134350000D01*
X11030952Y-134288095D01*
X11154761Y-134288095D01*
X11340476Y-134350000D01*
X11402380Y-134411904D01*
D10*
D11*
X10659523Y-185588095D02*
X10659523Y-184288095D01*
X10969047Y-184288095D01*
X11154761Y-184350000D01*
X11278571Y-184473809D01*
X11340476Y-184597619D01*
X11402380Y-184845238D01*
X11402380Y-185030952D01*
X11340476Y-185278571D01*
X11278571Y-185402380D01*
X11154761Y-185526190D01*
X10969047Y-185588095D01*
X10659523Y-185588095D01*
D10*
D11*
X287002200Y-60000000D02*
X285002200Y-60000000D01*
D10*
D11*
X287002200Y-110000000D02*
X285002200Y-110000000D01*
D10*
D11*
X287002200Y-160000000D02*
X285002200Y-160000000D01*
D10*
D11*
X285692676Y-35216666D02*
X286311723Y-35216666D01*
X285568866Y-35588095D02*
X286002200Y-34288095D01*
X286435533Y-35588095D01*
D10*
D11*
X286095057Y-84907142D02*
X286280771Y-84969047D01*
X286342676Y-85030952D01*
X286404580Y-85154761D01*
X286404580Y-85340476D01*
X286342676Y-85464285D01*
X286280771Y-85526190D01*
X286156961Y-85588095D01*
X285661723Y-85588095D01*
X285661723Y-84288095D01*
X286095057Y-84288095D01*
X286218866Y-84350000D01*
X286280771Y-84411904D01*
X286342676Y-84535714D01*
X286342676Y-84659523D01*
X286280771Y-84783333D01*
X286218866Y-84845238D01*
X286095057Y-84907142D01*
X285661723Y-84907142D01*
D10*
D11*
X286404580Y-135464285D02*
X286342676Y-135526190D01*
X286156961Y-135588095D01*
X286033152Y-135588095D01*
X285847438Y-135526190D01*
X285723628Y-135402380D01*
X285661723Y-135278571D01*
X285599819Y-135030952D01*
X285599819Y-134845238D01*
X285661723Y-134597619D01*
X285723628Y-134473809D01*
X285847438Y-134350000D01*
X286033152Y-134288095D01*
X286156961Y-134288095D01*
X286342676Y-134350000D01*
X286404580Y-134411904D01*
D10*
D11*
X285661723Y-185588095D02*
X285661723Y-184288095D01*
X285971247Y-184288095D01*
X286156961Y-184350000D01*
X286280771Y-184473809D01*
X286342676Y-184597619D01*
X286404580Y-184845238D01*
X286404580Y-185030952D01*
X286342676Y-185278571D01*
X286280771Y-185402380D01*
X286156961Y-185526190D01*
X285971247Y-185588095D01*
X285661723Y-185588095D01*
D10*
D11*
X200434342Y-193785771D02*
X200434342Y-192285771D01*
X200791485Y-192285771D01*
X201005771Y-192357200D01*
X201148628Y-192500057D01*
X201220057Y-192642914D01*
X201291485Y-192928628D01*
X201291485Y-193142914D01*
X201220057Y-193428628D01*
X201148628Y-193571485D01*
X201005771Y-193714342D01*
X200791485Y-193785771D01*
X200434342Y-193785771D01*
X202577200Y-193785771D02*
X202577200Y-193000057D01*
X202505771Y-192857200D01*
X202362914Y-192785771D01*
X202077200Y-192785771D01*
X201934342Y-192857200D01*
X202577200Y-193714342D02*
X202434342Y-193785771D01*
X202077200Y-193785771D01*
X201934342Y-193714342D01*
X201862914Y-193571485D01*
X201862914Y-193428628D01*
X201934342Y-193285771D01*
X202077200Y-193214342D01*
X202434342Y-193214342D01*
X202577200Y-193142914D01*
X203077200Y-192785771D02*
X203648628Y-192785771D01*
X203291485Y-192285771D02*
X203291485Y-193571485D01*
X203362914Y-193714342D01*
X203505771Y-193785771D01*
X203648628Y-193785771D01*
X204720057Y-193714342D02*
X204577200Y-193785771D01*
X204291485Y-193785771D01*
X204148628Y-193714342D01*
X204077200Y-193571485D01*
X204077200Y-193000057D01*
X204148628Y-192857200D01*
X204291485Y-192785771D01*
X204577200Y-192785771D01*
X204720057Y-192857200D01*
X204791485Y-193000057D01*
X204791485Y-193142914D01*
X204077200Y-193285771D01*
X205434342Y-193642914D02*
X205505771Y-193714342D01*
X205434342Y-193785771D01*
X205362914Y-193714342D01*
X205434342Y-193642914D01*
X205434342Y-193785771D01*
X205434342Y-192857200D02*
X205505771Y-192928628D01*
X205434342Y-193000057D01*
X205362914Y-192928628D01*
X205434342Y-192857200D01*
X205434342Y-193000057D01*
D10*
D11*
X177002200Y-194507200D02*
X285002200Y-194507200D01*
D10*
D11*
X178434342Y-196585771D02*
X178434342Y-195085771D01*
X179291485Y-196585771D02*
X178648628Y-195728628D01*
X179291485Y-195085771D02*
X178434342Y-195942914D01*
X179934342Y-196585771D02*
X179934342Y-195585771D01*
X179934342Y-195085771D02*
X179862914Y-195157200D01*
X179934342Y-195228628D01*
X180005771Y-195157200D01*
X179934342Y-195085771D01*
X179934342Y-195228628D01*
X181505771Y-196442914D02*
X181434342Y-196514342D01*
X181220057Y-196585771D01*
X181077200Y-196585771D01*
X180862914Y-196514342D01*
X180720057Y-196371485D01*
X180648628Y-196228628D01*
X180577200Y-195942914D01*
X180577200Y-195728628D01*
X180648628Y-195442914D01*
X180720057Y-195300057D01*
X180862914Y-195157200D01*
X181077200Y-195085771D01*
X181220057Y-195085771D01*
X181434342Y-195157200D01*
X181505771Y-195228628D01*
X182791485Y-196585771D02*
X182791485Y-195800057D01*
X182720057Y-195657200D01*
X182577200Y-195585771D01*
X182291485Y-195585771D01*
X182148628Y-195657200D01*
X182791485Y-196514342D02*
X182648628Y-196585771D01*
X182291485Y-196585771D01*
X182148628Y-196514342D01*
X182077200Y-196371485D01*
X182077200Y-196228628D01*
X182148628Y-196085771D01*
X182291485Y-196014342D01*
X182648628Y-196014342D01*
X182791485Y-195942914D01*
X184148628Y-196585771D02*
X184148628Y-195085771D01*
X184148628Y-196514342D02*
X184005771Y-196585771D01*
X183720057Y-196585771D01*
X183577200Y-196514342D01*
X183505771Y-196442914D01*
X183434342Y-196300057D01*
X183434342Y-195871485D01*
X183505771Y-195728628D01*
X183577200Y-195657200D01*
X183720057Y-195585771D01*
X184005771Y-195585771D01*
X184148628Y-195657200D01*
X186005771Y-195800057D02*
X186505771Y-195800057D01*
X186720057Y-196585771D02*
X186005771Y-196585771D01*
X186005771Y-195085771D01*
X186720057Y-195085771D01*
X187362914Y-196442914D02*
X187434342Y-196514342D01*
X187362914Y-196585771D01*
X187291485Y-196514342D01*
X187362914Y-196442914D01*
X187362914Y-196585771D01*
X188077200Y-196585771D02*
X188077200Y-195085771D01*
X188434342Y-195085771D01*
X188648628Y-195157200D01*
X188791485Y-195300057D01*
X188862914Y-195442914D01*
X188934342Y-195728628D01*
X188934342Y-195942914D01*
X188862914Y-196228628D01*
X188791485Y-196371485D01*
X188648628Y-196514342D01*
X188434342Y-196585771D01*
X188077200Y-196585771D01*
X189577200Y-196442914D02*
X189648628Y-196514342D01*
X189577200Y-196585771D01*
X189505771Y-196514342D01*
X189577200Y-196442914D01*
X189577200Y-196585771D01*
X190220057Y-196157200D02*
X190934342Y-196157200D01*
X190077200Y-196585771D02*
X190577200Y-195085771D01*
X191077200Y-196585771D01*
X191577200Y-196442914D02*
X191648628Y-196514342D01*
X191577200Y-196585771D01*
X191505771Y-196514342D01*
X191577200Y-196442914D01*
X191577200Y-196585771D01*
X194577200Y-196585771D02*
X194577200Y-195085771D01*
X194720057Y-196014342D02*
X195148628Y-196585771D01*
X195148628Y-195585771D02*
X194577200Y-196157200D01*
X195791485Y-196585771D02*
X195791485Y-195585771D01*
X195791485Y-195085771D02*
X195720057Y-195157200D01*
X195791485Y-195228628D01*
X195862914Y-195157200D01*
X195791485Y-195085771D01*
X195791485Y-195228628D01*
X197148628Y-196514342D02*
X197005771Y-196585771D01*
X196720057Y-196585771D01*
X196577200Y-196514342D01*
X196505771Y-196442914D01*
X196434342Y-196300057D01*
X196434342Y-195871485D01*
X196505771Y-195728628D01*
X196577200Y-195657200D01*
X196720057Y-195585771D01*
X197005771Y-195585771D01*
X197148628Y-195657200D01*
X198434342Y-196585771D02*
X198434342Y-195800057D01*
X198362914Y-195657200D01*
X198220057Y-195585771D01*
X197934342Y-195585771D01*
X197791485Y-195657200D01*
X198434342Y-196514342D02*
X198291485Y-196585771D01*
X197934342Y-196585771D01*
X197791485Y-196514342D01*
X197720057Y-196371485D01*
X197720057Y-196228628D01*
X197791485Y-196085771D01*
X197934342Y-196014342D01*
X198291485Y-196014342D01*
X198434342Y-195942914D01*
X199791485Y-196585771D02*
X199791485Y-195085771D01*
X199791485Y-196514342D02*
X199648628Y-196585771D01*
X199362914Y-196585771D01*
X199220057Y-196514342D01*
X199148628Y-196442914D01*
X199077200Y-196300057D01*
X199077200Y-195871485D01*
X199148628Y-195728628D01*
X199220057Y-195657200D01*
X199362914Y-195585771D01*
X199648628Y-195585771D01*
X199791485Y-195657200D01*
X202291485Y-195085771D02*
X202005771Y-195085771D01*
X201862914Y-195157200D01*
X201791485Y-195228628D01*
X201648628Y-195442914D01*
X201577200Y-195728628D01*
X201577200Y-196300057D01*
X201648628Y-196442914D01*
X201720057Y-196514342D01*
X201862914Y-196585771D01*
X202148628Y-196585771D01*
X202291485Y-196514342D01*
X202362914Y-196442914D01*
X202434342Y-196300057D01*
X202434342Y-195942914D01*
X202362914Y-195800057D01*
X202291485Y-195728628D01*
X202148628Y-195657200D01*
X201862914Y-195657200D01*
X201720057Y-195728628D01*
X201648628Y-195800057D01*
X201577200Y-195942914D01*
X203077200Y-196442914D02*
X203148628Y-196514342D01*
X203077200Y-196585771D01*
X203005771Y-196514342D01*
X203077200Y-196442914D01*
X203077200Y-196585771D01*
X204077200Y-195085771D02*
X204220057Y-195085771D01*
X204362914Y-195157200D01*
X204434342Y-195228628D01*
X204505771Y-195371485D01*
X204577200Y-195657200D01*
X204577200Y-196014342D01*
X204505771Y-196300057D01*
X204434342Y-196442914D01*
X204362914Y-196514342D01*
X204220057Y-196585771D01*
X204077200Y-196585771D01*
X203934342Y-196514342D01*
X203862914Y-196442914D01*
X203791485Y-196300057D01*
X203720057Y-196014342D01*
X203720057Y-195657200D01*
X203791485Y-195371485D01*
X203862914Y-195228628D01*
X203934342Y-195157200D01*
X204077200Y-195085771D01*
X205220057Y-196442914D02*
X205291485Y-196514342D01*
X205220057Y-196585771D01*
X205148628Y-196514342D01*
X205220057Y-196442914D01*
X205220057Y-196585771D01*
X206648628Y-195085771D02*
X205934342Y-195085771D01*
X205862914Y-195800057D01*
X205934342Y-195728628D01*
X206077200Y-195657200D01*
X206434342Y-195657200D01*
X206577200Y-195728628D01*
X206648628Y-195800057D01*
X206720057Y-195942914D01*
X206720057Y-196300057D01*
X206648628Y-196442914D01*
X206577200Y-196514342D01*
X206434342Y-196585771D01*
X206077200Y-196585771D01*
X205934342Y-196514342D01*
X205862914Y-196442914D01*
X207362914Y-196014342D02*
X208505771Y-196014342D01*
X209862914Y-196585771D02*
X209862914Y-195800057D01*
X209791485Y-195657200D01*
X209648628Y-195585771D01*
X209362914Y-195585771D01*
X209220057Y-195657200D01*
X209862914Y-196514342D02*
X209720057Y-196585771D01*
X209362914Y-196585771D01*
X209220057Y-196514342D01*
X209148628Y-196371485D01*
X209148628Y-196228628D01*
X209220057Y-196085771D01*
X209362914Y-196014342D01*
X209720057Y-196014342D01*
X209862914Y-195942914D01*
X211220057Y-195085771D02*
X210934342Y-195085771D01*
X210791485Y-195157200D01*
X210720057Y-195228628D01*
X210577200Y-195442914D01*
X210505771Y-195728628D01*
X210505771Y-196300057D01*
X210577200Y-196442914D01*
X210648628Y-196514342D01*
X210791485Y-196585771D01*
X211077200Y-196585771D01*
X211220057Y-196514342D01*
X211291485Y-196442914D01*
X211362914Y-196300057D01*
X211362914Y-195942914D01*
X211291485Y-195800057D01*
X211220057Y-195728628D01*
X211077200Y-195657200D01*
X210791485Y-195657200D01*
X210648628Y-195728628D01*
X210577200Y-195800057D01*
X210505771Y-195942914D01*
X212648628Y-196514342D02*
X212505771Y-196585771D01*
X212220057Y-196585771D01*
X212077200Y-196514342D01*
X212005771Y-196442914D01*
X211934342Y-196300057D01*
X211934342Y-195871485D01*
X212005771Y-195728628D01*
X212077200Y-195657200D01*
X212220057Y-195585771D01*
X212505771Y-195585771D01*
X212648628Y-195657200D01*
X213934342Y-196585771D02*
X213934342Y-195800057D01*
X213862914Y-195657200D01*
X213720057Y-195585771D01*
X213434342Y-195585771D01*
X213291485Y-195657200D01*
X213934342Y-196514342D02*
X213791485Y-196585771D01*
X213434342Y-196585771D01*
X213291485Y-196514342D01*
X213220057Y-196371485D01*
X213220057Y-196228628D01*
X213291485Y-196085771D01*
X213434342Y-196014342D01*
X213791485Y-196014342D01*
X213934342Y-195942914D01*
X214505771Y-195085771D02*
X215505771Y-195085771D01*
X214862914Y-196585771D01*
X216362914Y-195085771D02*
X216505771Y-195085771D01*
X216648628Y-195157200D01*
X216720057Y-195228628D01*
X216791485Y-195371485D01*
X216862914Y-195657200D01*
X216862914Y-196014342D01*
X216791485Y-196300057D01*
X216720057Y-196442914D01*
X216648628Y-196514342D01*
X216505771Y-196585771D01*
X216362914Y-196585771D01*
X216220057Y-196514342D01*
X216148628Y-196442914D01*
X216077200Y-196300057D01*
X216005771Y-196014342D01*
X216005771Y-195657200D01*
X216077200Y-195371485D01*
X216148628Y-195228628D01*
X216220057Y-195157200D01*
X216362914Y-195085771D01*
X217434342Y-195228628D02*
X217505771Y-195157200D01*
X217648628Y-195085771D01*
X218005771Y-195085771D01*
X218148628Y-195157200D01*
X218220057Y-195228628D01*
X218291485Y-195371485D01*
X218291485Y-195514342D01*
X218220057Y-195728628D01*
X217362914Y-196585771D01*
X218291485Y-196585771D01*
X219505771Y-196514342D02*
X219362914Y-196585771D01*
X219077200Y-196585771D01*
X218934342Y-196514342D01*
X218862914Y-196371485D01*
X218862914Y-195800057D01*
X218934342Y-195657200D01*
X219077200Y-195585771D01*
X219362914Y-195585771D01*
X219505771Y-195657200D01*
X219577200Y-195800057D01*
X219577200Y-195942914D01*
X218862914Y-196085771D01*
X220291485Y-196585771D02*
X220577200Y-196585771D01*
X220720057Y-196514342D01*
X220791485Y-196442914D01*
X220934342Y-196228628D01*
X221005771Y-195942914D01*
X221005771Y-195371485D01*
X220934342Y-195228628D01*
X220862914Y-195157200D01*
X220720057Y-195085771D01*
X220434342Y-195085771D01*
X220291485Y-195157200D01*
X220220057Y-195228628D01*
X220148628Y-195371485D01*
X220148628Y-195728628D01*
X220220057Y-195871485D01*
X220291485Y-195942914D01*
X220434342Y-196014342D01*
X220720057Y-196014342D01*
X220862914Y-195942914D01*
X220934342Y-195871485D01*
X221005771Y-195728628D01*
X222434342Y-196585771D02*
X221577199Y-196585771D01*
X222005771Y-196585771D02*
X222005771Y-195085771D01*
X221862914Y-195300057D01*
X221720057Y-195442914D01*
X221577199Y-195514342D01*
X222862914Y-196014342D02*
X222934342Y-195942914D01*
X223077199Y-195871485D01*
X223362914Y-196014342D01*
X223505771Y-195942914D01*
X223577199Y-195871485D01*
X224934342Y-196585771D02*
X224077199Y-196585771D01*
X224505771Y-196585771D02*
X224505771Y-195085771D01*
X224362914Y-195300057D01*
X224220057Y-195442914D01*
X224077199Y-195514342D01*
X226362914Y-196585771D02*
X225505771Y-196585771D01*
X225934342Y-196585771D02*
X225934342Y-195085771D01*
X225791485Y-195300057D01*
X225648628Y-195442914D01*
X225505771Y-195514342D01*
X227648628Y-195085771D02*
X227362914Y-195085771D01*
X227220057Y-195157200D01*
X227148628Y-195228628D01*
X227005771Y-195442914D01*
X226934342Y-195728628D01*
X226934342Y-196300057D01*
X227005771Y-196442914D01*
X227077199Y-196514342D01*
X227220057Y-196585771D01*
X227505771Y-196585771D01*
X227648628Y-196514342D01*
X227720057Y-196442914D01*
X227791485Y-196300057D01*
X227791485Y-195942914D01*
X227720057Y-195800057D01*
X227648628Y-195728628D01*
X227505771Y-195657200D01*
X227220057Y-195657200D01*
X227077199Y-195728628D01*
X227005771Y-195800057D01*
X226934342Y-195942914D01*
X228220057Y-196014342D02*
X228291485Y-195942914D01*
X228434342Y-195871485D01*
X228720057Y-196014342D01*
X228862914Y-195942914D01*
X228934342Y-195871485D01*
X230148628Y-195585771D02*
X230148628Y-196585771D01*
X229505771Y-195585771D02*
X229505771Y-196371485D01*
X229577199Y-196514342D01*
X229720057Y-196585771D01*
X229934342Y-196585771D01*
X230077199Y-196514342D01*
X230148628Y-196442914D01*
X230862914Y-196585771D02*
X230862914Y-195085771D01*
X230862914Y-195657200D02*
X231005771Y-195585771D01*
X231291485Y-195585771D01*
X231434342Y-195657200D01*
X231505771Y-195728628D01*
X231577199Y-195871485D01*
X231577199Y-196300057D01*
X231505771Y-196442914D01*
X231434342Y-196514342D01*
X231291485Y-196585771D01*
X231005771Y-196585771D01*
X230862914Y-196514342D01*
X232862914Y-195585771D02*
X232862914Y-196585771D01*
X232220057Y-195585771D02*
X232220057Y-196371485D01*
X232291485Y-196514342D01*
X232434342Y-196585771D01*
X232648628Y-196585771D01*
X232791485Y-196514342D01*
X232862914Y-196442914D01*
X233577199Y-195585771D02*
X233577199Y-196585771D01*
X233577199Y-195728628D02*
X233648628Y-195657200D01*
X233791485Y-195585771D01*
X234005771Y-195585771D01*
X234148628Y-195657200D01*
X234220057Y-195800057D01*
X234220057Y-196585771D01*
X234720057Y-195585771D02*
X235291485Y-195585771D01*
X234934342Y-195085771D02*
X234934342Y-196371485D01*
X235005771Y-196514342D01*
X235148628Y-196585771D01*
X235291485Y-196585771D01*
X236434342Y-195585771D02*
X236434342Y-196585771D01*
X235791485Y-195585771D02*
X235791485Y-196371485D01*
X235862914Y-196514342D01*
X236005771Y-196585771D01*
X236220057Y-196585771D01*
X236362914Y-196514342D01*
X236434342Y-196442914D01*
X237077199Y-195228628D02*
X237148628Y-195157200D01*
X237291485Y-195085771D01*
X237648628Y-195085771D01*
X237791485Y-195157200D01*
X237862914Y-195228628D01*
X237934342Y-195371485D01*
X237934342Y-195514342D01*
X237862914Y-195728628D01*
X237005771Y-196585771D01*
X237934342Y-196585771D01*
X238862914Y-195085771D02*
X239005771Y-195085771D01*
X239148628Y-195157200D01*
X239220057Y-195228628D01*
X239291485Y-195371485D01*
X239362914Y-195657200D01*
X239362914Y-196014342D01*
X239291485Y-196300057D01*
X239220057Y-196442914D01*
X239148628Y-196514342D01*
X239005771Y-196585771D01*
X238862914Y-196585771D01*
X238720057Y-196514342D01*
X238648628Y-196442914D01*
X238577199Y-196300057D01*
X238505771Y-196014342D01*
X238505771Y-195657200D01*
X238577199Y-195371485D01*
X238648628Y-195228628D01*
X238720057Y-195157200D01*
X238862914Y-195085771D01*
X240005771Y-196442914D02*
X240077199Y-196514342D01*
X240005771Y-196585771D01*
X239934342Y-196514342D01*
X240005771Y-196442914D01*
X240005771Y-196585771D01*
X241005771Y-195085771D02*
X241148628Y-195085771D01*
X241291485Y-195157200D01*
X241362914Y-195228628D01*
X241434342Y-195371485D01*
X241505771Y-195657200D01*
X241505771Y-196014342D01*
X241434342Y-196300057D01*
X241362914Y-196442914D01*
X241291485Y-196514342D01*
X241148628Y-196585771D01*
X241005771Y-196585771D01*
X240862914Y-196514342D01*
X240791485Y-196442914D01*
X240720057Y-196300057D01*
X240648628Y-196014342D01*
X240648628Y-195657200D01*
X240720057Y-195371485D01*
X240791485Y-195228628D01*
X240862914Y-195157200D01*
X241005771Y-195085771D01*
X242791485Y-195585771D02*
X242791485Y-196585771D01*
X242434342Y-195014342D02*
X242077199Y-196085771D01*
X243005771Y-196085771D01*
X243577199Y-196442914D02*
X243648628Y-196514342D01*
X243577199Y-196585771D01*
X243505771Y-196514342D01*
X243577199Y-196442914D01*
X243577199Y-196585771D01*
X245077199Y-196585771D02*
X244220057Y-196585771D01*
X244648628Y-196585771D02*
X244648628Y-195085771D01*
X244505771Y-195300057D01*
X244362914Y-195442914D01*
X244220057Y-195514342D01*
D10*
D11*
X177002200Y-191507200D02*
X285002200Y-191507200D01*
D10*
D12*
X264411485Y-193785771D02*
X263911485Y-193071485D01*
X263554342Y-193785771D02*
X263554342Y-192285771D01*
X264125771Y-192285771D01*
X264268628Y-192357200D01*
X264340057Y-192428628D01*
X264411485Y-192571485D01*
X264411485Y-192785771D01*
X264340057Y-192928628D01*
X264268628Y-193000057D01*
X264125771Y-193071485D01*
X263554342Y-193071485D01*
X265625771Y-193714342D02*
X265482914Y-193785771D01*
X265197200Y-193785771D01*
X265054342Y-193714342D01*
X264982914Y-193571485D01*
X264982914Y-193000057D01*
X265054342Y-192857200D01*
X265197200Y-192785771D01*
X265482914Y-192785771D01*
X265625771Y-192857200D01*
X265697200Y-193000057D01*
X265697200Y-193142914D01*
X264982914Y-193285771D01*
X266197200Y-192785771D02*
X266554342Y-193785771D01*
X266911485Y-192785771D01*
X267482914Y-193642914D02*
X267554342Y-193714342D01*
X267482914Y-193785771D01*
X267411485Y-193714342D01*
X267482914Y-193642914D01*
X267482914Y-193785771D01*
X267482914Y-192857200D02*
X267554342Y-192928628D01*
X267482914Y-193000057D01*
X267411485Y-192928628D01*
X267482914Y-192857200D01*
X267482914Y-193000057D01*
D10*
D11*
X178362914Y-193714342D02*
X178577200Y-193785771D01*
X178934342Y-193785771D01*
X179077200Y-193714342D01*
X179148628Y-193642914D01*
X179220057Y-193500057D01*
X179220057Y-193357200D01*
X179148628Y-193214342D01*
X179077200Y-193142914D01*
X178934342Y-193071485D01*
X178648628Y-193000057D01*
X178505771Y-192928628D01*
X178434342Y-192857200D01*
X178362914Y-192714342D01*
X178362914Y-192571485D01*
X178434342Y-192428628D01*
X178505771Y-192357200D01*
X178648628Y-192285771D01*
X179005771Y-192285771D01*
X179220057Y-192357200D01*
X179862914Y-193785771D02*
X179862914Y-192785771D01*
X179862914Y-192285771D02*
X179791485Y-192357200D01*
X179862914Y-192428628D01*
X179934342Y-192357200D01*
X179862914Y-192285771D01*
X179862914Y-192428628D01*
X180434342Y-192785771D02*
X181220057Y-192785771D01*
X180434342Y-193785771D01*
X181220057Y-193785771D01*
X182362914Y-193714342D02*
X182220057Y-193785771D01*
X181934342Y-193785771D01*
X181791485Y-193714342D01*
X181720057Y-193571485D01*
X181720057Y-193000057D01*
X181791485Y-192857200D01*
X181934342Y-192785771D01*
X182220057Y-192785771D01*
X182362914Y-192857200D01*
X182434342Y-193000057D01*
X182434342Y-193142914D01*
X181720057Y-193285771D01*
X183077200Y-193642914D02*
X183148628Y-193714342D01*
X183077200Y-193785771D01*
X183005771Y-193714342D01*
X183077200Y-193642914D01*
X183077200Y-193785771D01*
X183077200Y-192857200D02*
X183148628Y-192928628D01*
X183077200Y-193000057D01*
X183005771Y-192928628D01*
X183077200Y-192857200D01*
X183077200Y-193000057D01*
X184862914Y-193357200D02*
X185577200Y-193357200D01*
X184720057Y-193785771D02*
X185220057Y-192285771D01*
X185720057Y-193785771D01*
X186862914Y-192785771D02*
X186862914Y-193785771D01*
X186505771Y-192214342D02*
X186148628Y-193285771D01*
X187077200Y-193285771D01*
D10*
D11*
X263434342Y-196585771D02*
X263434342Y-195085771D01*
X264791485Y-196585771D02*
X264791485Y-195085771D01*
X264791485Y-196514342D02*
X264648628Y-196585771D01*
X264362914Y-196585771D01*
X264220057Y-196514342D01*
X264148628Y-196442914D01*
X264077200Y-196300057D01*
X264077200Y-195871485D01*
X264148628Y-195728628D01*
X264220057Y-195657200D01*
X264362914Y-195585771D01*
X264648628Y-195585771D01*
X264791485Y-195657200D01*
X265505771Y-196442914D02*
X265577200Y-196514342D01*
X265505771Y-196585771D01*
X265434342Y-196514342D01*
X265505771Y-196442914D01*
X265505771Y-196585771D01*
X265505771Y-195657200D02*
X265577200Y-195728628D01*
X265505771Y-195800057D01*
X265434342Y-195728628D01*
X265505771Y-195657200D01*
X265505771Y-195800057D01*
X268148628Y-196585771D02*
X267291485Y-196585771D01*
X267720057Y-196585771D02*
X267720057Y-195085771D01*
X267577200Y-195300057D01*
X267434342Y-195442914D01*
X267291485Y-195514342D01*
X269862914Y-195014342D02*
X268577200Y-196942914D01*
X271148628Y-196585771D02*
X270291485Y-196585771D01*
X270720057Y-196585771D02*
X270720057Y-195085771D01*
X270577200Y-195300057D01*
X270434342Y-195442914D01*
X270291485Y-195514342D01*
D10*
D11*
X177002200Y-187507200D02*
X285002200Y-187507200D01*
D10*
D13*
X178714580Y-188211961D02*
X179857438Y-188211961D01*
X179036009Y-190211961D02*
X179286009Y-188211961D01*
X180274104Y-190211961D02*
X180440771Y-188878628D01*
X180524104Y-188211961D02*
X180416961Y-188307200D01*
X180500295Y-188402438D01*
X180607438Y-188307200D01*
X180524104Y-188211961D01*
X180500295Y-188402438D01*
X181107438Y-188878628D02*
X181869342Y-188878628D01*
X181476485Y-188211961D02*
X181262200Y-189926247D01*
X181333628Y-190116723D01*
X181512200Y-190211961D01*
X181702676Y-190211961D01*
X182655057Y-190211961D02*
X182476485Y-190116723D01*
X182405057Y-189926247D01*
X182619342Y-188211961D01*
X184190771Y-190116723D02*
X183988390Y-190211961D01*
X183607438Y-190211961D01*
X183428866Y-190116723D01*
X183357438Y-189926247D01*
X183452676Y-189164342D01*
X183571723Y-188973866D01*
X183774104Y-188878628D01*
X184155057Y-188878628D01*
X184333628Y-188973866D01*
X184405057Y-189164342D01*
X184381247Y-189354819D01*
X183405057Y-189545295D01*
X185155057Y-190021485D02*
X185238390Y-190116723D01*
X185131247Y-190211961D01*
X185047914Y-190116723D01*
X185155057Y-190021485D01*
X185131247Y-190211961D01*
X185286009Y-188973866D02*
X185369342Y-189069104D01*
X185262200Y-189164342D01*
X185178866Y-189069104D01*
X185286009Y-188973866D01*
X185262200Y-189164342D01*
D10*
D11*
X178934342Y-185600057D02*
X178434342Y-185600057D01*
X178434342Y-186385771D02*
X178434342Y-184885771D01*
X179148628Y-184885771D01*
X179720057Y-186385771D02*
X179720057Y-185385771D01*
X179720057Y-184885771D02*
X179648628Y-184957200D01*
X179720057Y-185028628D01*
X179791485Y-184957200D01*
X179720057Y-184885771D01*
X179720057Y-185028628D01*
X180648628Y-186385771D02*
X180505771Y-186314342D01*
X180434342Y-186171485D01*
X180434342Y-184885771D01*
X181791485Y-186314342D02*
X181648628Y-186385771D01*
X181362914Y-186385771D01*
X181220057Y-186314342D01*
X181148628Y-186171485D01*
X181148628Y-185600057D01*
X181220057Y-185457200D01*
X181362914Y-185385771D01*
X181648628Y-185385771D01*
X181791485Y-185457200D01*
X181862914Y-185600057D01*
X181862914Y-185742914D01*
X181148628Y-185885771D01*
X182505771Y-186242914D02*
X182577200Y-186314342D01*
X182505771Y-186385771D01*
X182434342Y-186314342D01*
X182505771Y-186242914D01*
X182505771Y-186385771D01*
X182505771Y-185457200D02*
X182577200Y-185528628D01*
X182505771Y-185600057D01*
X182434342Y-185528628D01*
X182505771Y-185457200D01*
X182505771Y-185600057D01*
X184362914Y-186385771D02*
X184362914Y-184885771D01*
X184505771Y-185814342D02*
X184934342Y-186385771D01*
X184934342Y-185385771D02*
X184362914Y-185957200D01*
X185577200Y-186385771D02*
X185577200Y-185385771D01*
X185577200Y-184885771D02*
X185505771Y-184957200D01*
X185577200Y-185028628D01*
X185648628Y-184957200D01*
X185577200Y-184885771D01*
X185577200Y-185028628D01*
X186934342Y-186385771D02*
X186934342Y-184885771D01*
X186934342Y-186314342D02*
X186791485Y-186385771D01*
X186505771Y-186385771D01*
X186362914Y-186314342D01*
X186291485Y-186242914D01*
X186220057Y-186100057D01*
X186220057Y-185671485D01*
X186291485Y-185528628D01*
X186362914Y-185457200D01*
X186505771Y-185385771D01*
X186791485Y-185385771D01*
X186934342Y-185457200D01*
X187577200Y-186314342D02*
X187720057Y-186385771D01*
X188005771Y-186385771D01*
X188148628Y-186314342D01*
X188220057Y-186171485D01*
X188220057Y-186100057D01*
X188148628Y-185957200D01*
X188005771Y-185885771D01*
X187791485Y-185885771D01*
X187648628Y-185814342D01*
X187577200Y-185671485D01*
X187577200Y-185600057D01*
X187648628Y-185457200D01*
X187791485Y-185385771D01*
X188005771Y-185385771D01*
X188148628Y-185457200D01*
X189077200Y-186385771D02*
X188934342Y-186314342D01*
X188862914Y-186171485D01*
X188862914Y-184885771D01*
X190291485Y-186385771D02*
X190291485Y-185600057D01*
X190220057Y-185457200D01*
X190077200Y-185385771D01*
X189791485Y-185385771D01*
X189648628Y-185457200D01*
X190291485Y-186314342D02*
X190148628Y-186385771D01*
X189791485Y-186385771D01*
X189648628Y-186314342D01*
X189577200Y-186171485D01*
X189577200Y-186028628D01*
X189648628Y-185885771D01*
X189791485Y-185814342D01*
X190148628Y-185814342D01*
X190291485Y-185742914D01*
X191005771Y-186385771D02*
X191005771Y-184885771D01*
X191005771Y-185457200D02*
X191148628Y-185385771D01*
X191434342Y-185385771D01*
X191577200Y-185457200D01*
X191648628Y-185528628D01*
X191720057Y-185671485D01*
X191720057Y-186100057D01*
X191648628Y-186242914D01*
X191577200Y-186314342D01*
X191434342Y-186385771D01*
X191148628Y-186385771D01*
X191005771Y-186314342D01*
X192362914Y-185814342D02*
X193505771Y-185814342D01*
X194434342Y-186385771D02*
X194291485Y-186314342D01*
X194220057Y-186171485D01*
X194220057Y-184885771D01*
X195648628Y-186385771D02*
X195648628Y-185600057D01*
X195577200Y-185457200D01*
X195434342Y-185385771D01*
X195148628Y-185385771D01*
X195005771Y-185457200D01*
X195648628Y-186314342D02*
X195505771Y-186385771D01*
X195148628Y-186385771D01*
X195005771Y-186314342D01*
X194934342Y-186171485D01*
X194934342Y-186028628D01*
X195005771Y-185885771D01*
X195148628Y-185814342D01*
X195505771Y-185814342D01*
X195648628Y-185742914D01*
X196362914Y-186385771D02*
X196362914Y-185385771D01*
X196362914Y-185528628D02*
X196434342Y-185457200D01*
X196577200Y-185385771D01*
X196791485Y-185385771D01*
X196934342Y-185457200D01*
X197005771Y-185600057D01*
X197005771Y-186385771D01*
X197005771Y-185600057D02*
X197077200Y-185457200D01*
X197220057Y-185385771D01*
X197434342Y-185385771D01*
X197577200Y-185457200D01*
X197648628Y-185600057D01*
X197648628Y-186385771D01*
X198362914Y-185385771D02*
X198362914Y-186885771D01*
X198362914Y-185457200D02*
X198505771Y-185385771D01*
X198791485Y-185385771D01*
X198934342Y-185457200D01*
X199005771Y-185528628D01*
X199077200Y-185671485D01*
X199077200Y-186100057D01*
X199005771Y-186242914D01*
X198934342Y-186314342D01*
X198791485Y-186385771D01*
X198505771Y-186385771D01*
X198362914Y-186314342D01*
X199720057Y-186242914D02*
X199791485Y-186314342D01*
X199720057Y-186385771D01*
X199648628Y-186314342D01*
X199720057Y-186242914D01*
X199720057Y-186385771D01*
X200434342Y-186385771D02*
X200434342Y-184885771D01*
X200577200Y-185814342D02*
X201005771Y-186385771D01*
X201005771Y-185385771D02*
X200434342Y-185957200D01*
X201648628Y-186385771D02*
X201648628Y-185385771D01*
X201648628Y-184885771D02*
X201577200Y-184957200D01*
X201648628Y-185028628D01*
X201720057Y-184957200D01*
X201648628Y-184885771D01*
X201648628Y-185028628D01*
X203005771Y-186314342D02*
X202862914Y-186385771D01*
X202577200Y-186385771D01*
X202434342Y-186314342D01*
X202362914Y-186242914D01*
X202291485Y-186100057D01*
X202291485Y-185671485D01*
X202362914Y-185528628D01*
X202434342Y-185457200D01*
X202577200Y-185385771D01*
X202862914Y-185385771D01*
X203005771Y-185457200D01*
X204291485Y-186385771D02*
X204291485Y-185600057D01*
X204220057Y-185457200D01*
X204077200Y-185385771D01*
X203791485Y-185385771D01*
X203648628Y-185457200D01*
X204291485Y-186314342D02*
X204148628Y-186385771D01*
X203791485Y-186385771D01*
X203648628Y-186314342D01*
X203577200Y-186171485D01*
X203577200Y-186028628D01*
X203648628Y-185885771D01*
X203791485Y-185814342D01*
X204148628Y-185814342D01*
X204291485Y-185742914D01*
X205648628Y-186385771D02*
X205648628Y-184885771D01*
X205648628Y-186314342D02*
X205505771Y-186385771D01*
X205220057Y-186385771D01*
X205077200Y-186314342D01*
X205005771Y-186242914D01*
X204934342Y-186100057D01*
X204934342Y-185671485D01*
X205005771Y-185528628D01*
X205077200Y-185457200D01*
X205220057Y-185385771D01*
X205505771Y-185385771D01*
X205648628Y-185457200D01*
X206005771Y-186528628D02*
X207148628Y-186528628D01*
X207505771Y-185385771D02*
X207505771Y-186885771D01*
X207505771Y-185457200D02*
X207648628Y-185385771D01*
X207934342Y-185385771D01*
X208077200Y-185457200D01*
X208148628Y-185528628D01*
X208220057Y-185671485D01*
X208220057Y-186100057D01*
X208148628Y-186242914D01*
X208077200Y-186314342D01*
X207934342Y-186385771D01*
X207648628Y-186385771D01*
X207505771Y-186314342D01*
X209505771Y-186314342D02*
X209362914Y-186385771D01*
X209077200Y-186385771D01*
X208934342Y-186314342D01*
X208862914Y-186242914D01*
X208791485Y-186100057D01*
X208791485Y-185671485D01*
X208862914Y-185528628D01*
X208934342Y-185457200D01*
X209077200Y-185385771D01*
X209362914Y-185385771D01*
X209505771Y-185457200D01*
X210148628Y-186385771D02*
X210148628Y-184885771D01*
X210148628Y-185457200D02*
X210291485Y-185385771D01*
X210577200Y-185385771D01*
X210720057Y-185457200D01*
X210791485Y-185528628D01*
X210862914Y-185671485D01*
X210862914Y-186100057D01*
X210791485Y-186242914D01*
X210720057Y-186314342D01*
X210577200Y-186385771D01*
X210291485Y-186385771D01*
X210148628Y-186314342D01*
D10*
D11*
X177002200Y-181507200D02*
X285002200Y-181507200D01*
D10*
D11*
X178362914Y-183614342D02*
X178577200Y-183685771D01*
X178934342Y-183685771D01*
X179077200Y-183614342D01*
X179148628Y-183542914D01*
X179220057Y-183400057D01*
X179220057Y-183257200D01*
X179148628Y-183114342D01*
X179077200Y-183042914D01*
X178934342Y-182971485D01*
X178648628Y-182900057D01*
X178505771Y-182828628D01*
X178434342Y-182757200D01*
X178362914Y-182614342D01*
X178362914Y-182471485D01*
X178434342Y-182328628D01*
X178505771Y-182257200D01*
X178648628Y-182185771D01*
X179005771Y-182185771D01*
X179220057Y-182257200D01*
X179862914Y-183685771D02*
X179862914Y-182185771D01*
X180505771Y-183685771D02*
X180505771Y-182900057D01*
X180434342Y-182757200D01*
X180291485Y-182685771D01*
X180077200Y-182685771D01*
X179934342Y-182757200D01*
X179862914Y-182828628D01*
X181791485Y-183614342D02*
X181648628Y-183685771D01*
X181362914Y-183685771D01*
X181220057Y-183614342D01*
X181148628Y-183471485D01*
X181148628Y-182900057D01*
X181220057Y-182757200D01*
X181362914Y-182685771D01*
X181648628Y-182685771D01*
X181791485Y-182757200D01*
X181862914Y-182900057D01*
X181862914Y-183042914D01*
X181148628Y-183185771D01*
X183077200Y-183614342D02*
X182934342Y-183685771D01*
X182648628Y-183685771D01*
X182505771Y-183614342D01*
X182434342Y-183471485D01*
X182434342Y-182900057D01*
X182505771Y-182757200D01*
X182648628Y-182685771D01*
X182934342Y-182685771D01*
X183077200Y-182757200D01*
X183148628Y-182900057D01*
X183148628Y-183042914D01*
X182434342Y-183185771D01*
X183577200Y-182685771D02*
X184148628Y-182685771D01*
X183791485Y-182185771D02*
X183791485Y-183471485D01*
X183862914Y-183614342D01*
X184005771Y-183685771D01*
X184148628Y-183685771D01*
X184648628Y-183542914D02*
X184720057Y-183614342D01*
X184648628Y-183685771D01*
X184577200Y-183614342D01*
X184648628Y-183542914D01*
X184648628Y-183685771D01*
X184648628Y-182757200D02*
X184720057Y-182828628D01*
X184648628Y-182900057D01*
X184577200Y-182828628D01*
X184648628Y-182757200D01*
X184648628Y-182900057D01*
D10*
D12*
D10*
D11*
D10*
D11*
D10*
D11*
D10*
D11*
D10*
D11*
X197002200Y-191507200D02*
X197002200Y-194507200D01*
D10*
D11*
X261002200Y-191507200D02*
X261002200Y-198007200D01*
D14*
%TO.P,GPIO15,1,1*%
%TO.N,Net-(GPIO15-Pad1)*%
X149938000Y-94504000D03*
D15*
X149938000Y-97944000D03*
D16*
X149938000Y-102944000D03*
%TD*%
D17*
%TO.P,GPIO14,1,1*%
%TO.N,Net-(GPIO14-Pad1)*%
X135038000Y-109154000D03*
D18*
X138478000Y-109154000D03*
D16*
X143478000Y-109154000D03*
%TD*%
D19*
%TO.P,GPIO16,1,1*%
%TO.N,Net-(GPIO16-Pad1)*%
X164588000Y-109154000D03*
D20*
X161148000Y-109154000D03*
D16*
X156148000Y-109154000D03*
%TD*%
D21*
%TO.P,GPIO17,1,1*%
%TO.N,Net-(GPIO17-Pad1)*%
X149938000Y-124054000D03*
D22*
X149938000Y-120614000D03*
D16*
X149938000Y-115614000D03*
%TD*%
D23*
%TO.P,E39,1,1*%
%TO.N,3.3V*%
X167838381Y-129145284D03*
%TD*%
D24*
%TO.P,GPIO5,1,1*%
%TO.N,Net-(GPIO5-Pad1)*%
X127514604Y-117089721D03*
%TD*%
D25*
%TO.P,E30,1,1*%
%TO.N,GND*%
X168338000Y-146154000D03*
%TD*%
D26*
%TO.P,GPIO3,1,1*%
%TO.N,Net-(GPIO3-Pad1)*%
X111535992Y-90634063D03*
%TD*%
D27*
%TO.P,GPIO4,1,1*%
%TO.N,Net-(GPIO4-Pad1)*%
X118019915Y-105096642D03*
%TD*%
D28*
%TO.P,E34,1,1*%
%TO.N,GND*%
X131038000Y-153654000D03*
%TD*%
D29*
%TO.P,E37,1,1*%
%TO.N,V_BUS*%
X158920635Y-163055519D03*
%TD*%
D30*
%TO.P,GPIO1,1,1*%
%TO.N,Net-(GPIO1-Pad1)*%
X116519915Y-60211358D03*
%TD*%
D31*
%TO.P,E40,1,1*%
%TO.N,3.3V*%
X132037619Y-129145284D03*
%TD*%
D32*
%TO.P,GPIO28,1,1*%
%TO.N,Net-(GPIO28-Pad1)*%
X172385008Y-49238805D03*
%TD*%
D33*
%TO.P,GPIO20,1,1*%
%TO.N,Net-(GPIO20-Pad1)*%
X172353195Y-117101008D03*
%TD*%
D25*
%TO.P,E31,1,1*%
%TO.N,GND*%
X168338000Y-139154000D03*
%TD*%
D34*
%TO.P,E38,1,1*%
%TO.N,V_BUS*%
X140955365Y-163055519D03*
%TD*%
D28*
%TO.P,E33,1,1*%
%TO.N,GND*%
X131098000Y-139654000D03*
%TD*%
D25*
%TO.P,E35,1,1*%
%TO.N,GND*%
X168338000Y-153154000D03*
%TD*%
D35*
%TO.P,GPIO22,1,1*%
%TO.N,Net-(GPIO22-Pad1)*%
X188340008Y-90634063D03*
%TD*%
D28*
%TO.P,E32,1,1*%
%TO.N,GND*%
X131038000Y-146654000D03*
%TD*%
D36*
%TO.P,GPIO26,1,1*%
%TO.N,Net-(GPIO26-Pad1)*%
X188339837Y-73673081D03*
%TD*%
D37*
%TO.P,GPIO27,1,1*%
%TO.N,Net-(GPIO27-Pad1)*%
X182856085Y-60211358D03*
%TD*%
D38*
%TO.P,GPIO0,1,1*%
%TO.N,Net-(GPIO0-Pad1)*%
X127994641Y-49236413D03*
%TD*%
D39*
%TO.P,GPIO2,1,1*%
%TO.N,Net-(GPIO2-Pad1)*%
X111535992Y-73673937D03*
%TD*%
D40*
%TO.P,GPIO21,1,1*%
%TO.N,Net-(GPIO21-Pad1)*%
X182356588Y-105095930D03*
%TD*%
D41*
%TO.P,C2,*%
%TO.N,*%
X122438000Y-78404000D03*
X133438000Y-78404000D03*
D42*
%TO.P,C2,1,D1*%
%TO.N,/grove_rx*%
X130938000Y-81154000D03*
%TO.P,C2,2,D2*%
%TO.N,/grove_tx*%
X128938000Y-81154000D03*
%TO.P,C2,3,VCC*%
%TO.N,V_BUS*%
X126938000Y-81154000D03*
%TO.P,C2,4,GND*%
%TO.N,GND*%
X125138000Y-81154000D03*
%TD*%
D43*
%TO.P,U1,1,GPIO0*%
%TO.N,Net-(GPIO0-Pad1)*%
X139848000Y-41294000D03*
D44*
X140748000Y-41294000D03*
D43*
%TO.P,U1,2,GPIO1*%
%TO.N,Net-(GPIO1-Pad1)*%
X139848000Y-43834000D03*
D44*
X140748000Y-43834000D03*
D43*
%TO.P,U1,3,GND*%
%TO.N,GND*%
X139848000Y-46374000D03*
D45*
X140748000Y-46374000D03*
D43*
%TO.P,U1,4,GPIO2*%
%TO.N,Net-(GPIO2-Pad1)*%
X139848000Y-48914000D03*
D44*
X140748000Y-48914000D03*
%TO.P,U1,5,GPIO3*%
%TO.N,Net-(GPIO3-Pad1)*%
X140748000Y-51454000D03*
D43*
X139848000Y-51454000D03*
D44*
%TO.P,U1,6,GPIO4*%
%TO.N,Net-(GPIO4-Pad1)*%
X140748000Y-53994000D03*
D43*
X139848000Y-53994000D03*
D44*
%TO.P,U1,7,GPIO5*%
%TO.N,Net-(GPIO5-Pad1)*%
X140748000Y-56534000D03*
D43*
X139848000Y-56534000D03*
%TO.P,U1,8,GND*%
%TO.N,GND*%
X139848000Y-59074000D03*
D45*
X140748000Y-59074000D03*
D43*
%TO.P,U1,9,GPIO6*%
%TO.N,unconnected-(U1-Pad9)*%
X139848000Y-61614000D03*
D44*
X140748000Y-61614000D03*
D43*
%TO.P,U1,10,GPIO7*%
%TO.N,unconnected-(U1-Pad10)*%
X139848000Y-64154000D03*
D44*
X140748000Y-64154000D03*
%TO.P,U1,11,GPIO8*%
%TO.N,/grove_tx*%
X140748000Y-66694000D03*
D43*
X139848000Y-66694000D03*
%TO.P,U1,12,GPIO9*%
%TO.N,/grove_rx*%
X139848000Y-69234000D03*
D44*
X140748000Y-69234000D03*
D45*
%TO.P,U1,13,GND*%
%TO.N,GND*%
X140748000Y-71774000D03*
D43*
X139848000Y-71774000D03*
D44*
%TO.P,U1,14,GPIO10*%
%TO.N,unconnected-(U1-Pad14)*%
X140748000Y-74314000D03*
D43*
X139848000Y-74314000D03*
%TO.P,U1,15,GPIO11*%
%TO.N,unconnected-(U1-Pad15)*%
X139848000Y-76854000D03*
D44*
X140748000Y-76854000D03*
%TO.P,U1,16,GPIO12*%
%TO.N,Net-(D12-Pad2)*%
X140748000Y-79394000D03*
D43*
X139848000Y-79394000D03*
D44*
%TO.P,U1,17,GPIO13*%
%TO.N,Net-(GPIO13-Pad1)*%
X140748000Y-81934000D03*
D43*
X139848000Y-81934000D03*
%TO.P,U1,18,GND*%
%TO.N,GND*%
X139848000Y-84474000D03*
D45*
X140748000Y-84474000D03*
D43*
%TO.P,U1,19,GPIO14*%
%TO.N,Net-(GPIO14-Pad1)*%
X139848000Y-87014000D03*
D44*
X140748000Y-87014000D03*
D43*
%TO.P,U1,20,GPIO15*%
%TO.N,Net-(GPIO15-Pad1)*%
X139848000Y-89554000D03*
D44*
X140748000Y-89554000D03*
D43*
%TO.P,U1,21,GPIO16*%
%TO.N,Net-(GPIO16-Pad1)*%
X159428000Y-89554000D03*
D44*
X158528000Y-89554000D03*
%TO.P,U1,22,GPIO17*%
%TO.N,Net-(GPIO17-Pad1)*%
X158528000Y-87014000D03*
D43*
X159428000Y-87014000D03*
D45*
%TO.P,U1,23,GND*%
%TO.N,GND*%
X158528000Y-84474000D03*
D43*
X159428000Y-84474000D03*
%TO.P,U1,24,GPIO18*%
%TO.N,Net-(GPIO18-Pad1)*%
X159428000Y-81934000D03*
D44*
X158528000Y-81934000D03*
D43*
%TO.P,U1,25,GPIO19*%
%TO.N,Net-(C1-Pad3)*%
X159428000Y-79394000D03*
D44*
X158528000Y-79394000D03*
D43*
%TO.P,U1,26,GPIO20*%
%TO.N,Net-(GPIO20-Pad1)*%
X159428000Y-76854000D03*
D44*
X158528000Y-76854000D03*
%TO.P,U1,27,GPIO21*%
%TO.N,Net-(GPIO21-Pad1)*%
X158528000Y-74314000D03*
D43*
X159428000Y-74314000D03*
D45*
%TO.P,U1,28,GND*%
%TO.N,GND*%
X158528000Y-71774000D03*
D43*
X159428000Y-71774000D03*
%TO.P,U1,29,GPIO22*%
%TO.N,Net-(GPIO22-Pad1)*%
X159428000Y-69234000D03*
D44*
X158528000Y-69234000D03*
%TO.P,U1,30,RUN*%
%TO.N,unconnected-(U1-Pad30)*%
X158528000Y-66694000D03*
D43*
X159428000Y-66694000D03*
%TO.P,U1,31,GPIO26_ADC0*%
%TO.N,Net-(GPIO26-Pad1)*%
X159428000Y-64154000D03*
D44*
X158528000Y-64154000D03*
D43*
%TO.P,U1,32,GPIO27_ADC1*%
%TO.N,Net-(GPIO27-Pad1)*%
X159428000Y-61614000D03*
D44*
X158528000Y-61614000D03*
D45*
%TO.P,U1,33,AGND*%
%TO.N,unconnected-(U1-Pad33)*%
X158528000Y-59074000D03*
D43*
X159428000Y-59074000D03*
%TO.P,U1,34,GPIO28_ADC2*%
%TO.N,Net-(GPIO28-Pad1)*%
X159428000Y-56534000D03*
D44*
X158528000Y-56534000D03*
D43*
%TO.P,U1,35,ADC_VREF*%
%TO.N,unconnected-(U1-Pad35)*%
X159428000Y-53994000D03*
D44*
X158528000Y-53994000D03*
%TO.P,U1,36,3V3*%
%TO.N,3.3V*%
X158528000Y-51454000D03*
D43*
X159428000Y-51454000D03*
%TO.P,U1,37,3V3_EN*%
%TO.N,unconnected-(U1-Pad37)*%
X159428000Y-48914000D03*
D44*
X158528000Y-48914000D03*
D43*
%TO.P,U1,38,GND*%
%TO.N,GND*%
X159428000Y-46374000D03*
D45*
X158528000Y-46374000D03*
D44*
%TO.P,U1,39,VSYS*%
%TO.N,unconnected-(U1-Pad39)*%
X158528000Y-43834000D03*
D43*
X159428000Y-43834000D03*
%TO.P,U1,40,VBUS*%
%TO.N,V_BUS*%
X159428000Y-41294000D03*
D44*
X158528000Y-41294000D03*
%TO.P,U1,41,SWCLK*%
%TO.N,unconnected-(U1-Pad41)*%
X147098000Y-89324000D03*
D46*
X147098000Y-90224000D03*
D45*
%TO.P,U1,42,GND*%
%TO.N,unconnected-(U1-Pad42)*%
X149638000Y-89324000D03*
D46*
X149638000Y-90224000D03*
%TO.P,U1,43,SWDIO*%
%TO.N,unconnected-(U1-Pad43)*%
X152178000Y-90224000D03*
D44*
X152178000Y-89324000D03*
%TD*%
D22*
%TO.P,GPIO18,1,1*%
%TO.N,Net-(GPIO18-Pad1)*%
X172438000Y-97154000D03*
D16*
X172438000Y-92154000D03*
%TD*%
D45*
%TO.P,C1,1,GND*%
%TO.N,GND*%
X177463000Y-79154000D03*
D44*
%TO.P,C1,2,5V*%
%TO.N,V_BUS*%
X174923000Y-79154000D03*
%TO.P,C1,3,S*%
%TO.N,Net-(C1-Pad3)*%
X172383000Y-79154000D03*
%TD*%
D18*
%TO.P,B6,1,1*%
%TO.N,GND*%
X154938000Y-139154000D03*
D16*
X159938000Y-139154000D03*
%TD*%
%TO.P,GPIO13,1,1*%
%TO.N,Net-(GPIO13-Pad1)*%
X127438000Y-92154000D03*
D22*
X127438000Y-97154000D03*
%TD*%
D18*
%TO.P,B1,1,1*%
%TO.N,GND*%
X154938000Y-153154000D03*
D16*
X159938000Y-153154000D03*
%TD*%
%TO.P,B2,1,1*%
%TO.N,GND*%
X144438000Y-146654000D03*
D18*
X139438000Y-146654000D03*
%TD*%
%TO.P,B4,1,1*%
%TO.N,GND*%
X139438000Y-153654000D03*
D16*
X144438000Y-153654000D03*
%TD*%
D47*
%TO.P,D12,1,VSS*%
%TO.N,GND*%
X152388000Y-110754000D03*
%TO.P,D12,2,DIN*%
%TO.N,Net-(D12-Pad2)*%
X152388000Y-107554000D03*
%TO.P,D12,3,VDD*%
%TO.N,V_BUS*%
X147488000Y-107554000D03*
%TO.P,D12,4,DOUT*%
%TO.N,unconnected-(D12-Pad4)*%
X147488000Y-110754000D03*
%TD*%
D16*
%TO.P,B3,1,1*%
%TO.N,GND*%
X144438000Y-139654000D03*
D18*
X139438000Y-139654000D03*
%TD*%
D16*
%TO.P,B5,1,1*%
%TO.N,GND*%
X159938000Y-146154000D03*
D18*
X154938000Y-146154000D03*
%TD*%
D48*
%TO.N,GND*%
X159338000Y-114854000D03*
%TO.N,V_BUS*%
X126938000Y-84654000D03*
%TO.N,GND*%
X125138000Y-84654000D03*
%TO.N,3.3V*%
X159738000Y-125454000D03*
X159738000Y-123854000D03*
X159738000Y-127054000D03*
%TO.N,V_BUS*%
X149438000Y-108654000D03*
%TO.N,GND*%
X173438000Y-71654000D03*
X174438000Y-71654000D03*
X172438000Y-71654000D03*
X175438000Y-71654000D03*
X153738000Y-116854000D03*
%TD*%
D49*
%TO.N,3.3V*%
X167938000Y-129154000D02*
X157655432Y-129154000D01*
X157655432Y-129154000D02*
X157646716Y-129145284D01*
X132037619Y-129145284D02*
X157646716Y-129145284D01*
X157646716Y-129145284D02*
X159738000Y-127054000D01*
D50*
%TO.N,GND*%
X153738000Y-116854000D02*
X153738000Y-113054000D01*
X153738000Y-113054000D02*
X152388000Y-111704000D01*
X152388000Y-111704000D02*
X152388000Y-110754000D01*
%TO.N,Net-(GPIO17-Pad1)*%
X158528000Y-87014000D02*
X162798000Y-87014000D01*
X162798000Y-87014000D02*
X167738000Y-91954000D01*
X167738000Y-110054000D02*
X158138000Y-119654000D01*
X167738000Y-91954000D02*
X167738000Y-110054000D01*
X158138000Y-119654000D02*
X149938000Y-119654000D01*
%TO.N,Net-(GPIO16-Pad1)*%
X158528000Y-89554000D02*
X158628000Y-89654000D01*
X158628000Y-89654000D02*
X162138000Y-89654000D01*
X162138000Y-89654000D02*
X164338000Y-91854000D01*
X164338000Y-91854000D02*
X164338000Y-105964000D01*
X164338000Y-105964000D02*
X161148000Y-109154000D01*
%TO.N,GND*%
X153738000Y-116854000D02*
X157338000Y-116854000D01*
X157338000Y-116854000D02*
X159338000Y-114854000D01*
X125138000Y-81154000D02*
X125138000Y-84654000D01*
%TO.N,V_BUS*%
X126938000Y-84654000D02*
X126938000Y-81154000D01*
%TO.N,/grove_tx*%
X128938000Y-81154000D02*
X128938000Y-74654000D01*
X128938000Y-74654000D02*
X136898000Y-66694000D01*
X136898000Y-66694000D02*
X140748000Y-66694000D01*
%TO.N,/grove_rx*%
X130938000Y-81154000D02*
X130938000Y-74654000D01*
X130938000Y-74654000D02*
X136358000Y-69234000D01*
X136358000Y-69234000D02*
X140748000Y-69234000D01*
%TO.N,Net-(C1-Pad3)*%
X158528000Y-79394000D02*
X172143000Y-79394000D01*
X172143000Y-79394000D02*
X172383000Y-79154000D01*
%TO.N,Net-(GPIO1-Pad1)*%
X132438000Y-50654000D02*
X122938000Y-60154000D01*
X122938000Y-60154000D02*
X116438000Y-60154000D01*
X140748000Y-43834000D02*
X137258000Y-43834000D01*
X132438000Y-48654000D02*
X132438000Y-50654000D01*
X137258000Y-43834000D02*
X132438000Y-48654000D01*
%TO.N,Net-(GPIO2-Pad1)*%
X140748000Y-48914000D02*
X137178000Y-48914000D01*
X112438000Y-73654000D02*
X111438000Y-73654000D01*
X137178000Y-48914000D02*
X112438000Y-73654000D01*
%TO.N,Net-(GPIO3-Pad1)*%
X137638000Y-51454000D02*
X115938000Y-73154000D01*
X115938000Y-73154000D02*
X115938000Y-86154000D01*
X140748000Y-51454000D02*
X137638000Y-51454000D01*
X115938000Y-86154000D02*
X111438000Y-90654000D01*
%TO.N,Net-(GPIO4-Pad1)*%
X118438000Y-73944978D02*
X118438000Y-104654000D01*
X138388978Y-53994000D02*
X118438000Y-73944978D01*
X140748000Y-53994000D02*
X138388978Y-53994000D01*
X118438000Y-104654000D02*
X117938000Y-105154000D01*
%TO.N,Net-(GPIO5-Pad1)*%
X137438000Y-57654000D02*
X120438000Y-74654000D01*
X138388978Y-56534000D02*
X137438000Y-57484978D01*
X120438000Y-101154000D02*
X122938000Y-103654000D01*
X140748000Y-56534000D02*
X138388978Y-56534000D01*
X122938000Y-103654000D02*
X122938000Y-112654000D01*
X122938000Y-112654000D02*
X127438000Y-117154000D01*
X137438000Y-57484978D02*
X137438000Y-57654000D01*
X120438000Y-74654000D02*
X120438000Y-101154000D01*
%TO.N,Net-(GPIO14-Pad1)*%
X133438000Y-98154000D02*
X139228000Y-103944000D01*
X140748000Y-87014000D02*
X135578000Y-87014000D01*
X139228000Y-103944000D02*
X139228000Y-109154000D01*
X135578000Y-87014000D02*
X133438000Y-89154000D01*
X133438000Y-89154000D02*
X133438000Y-98154000D01*
%TO.N,Net-(GPIO15-Pad1)*%
X135438000Y-90154000D02*
X135438000Y-97154000D01*
X136038000Y-89554000D02*
X135438000Y-90154000D01*
X135438000Y-97154000D02*
X142228000Y-103944000D01*
X142228000Y-103944000D02*
X149938000Y-103944000D01*
X140748000Y-89554000D02*
X136038000Y-89554000D01*
%TO.N,V_BUS*%
X148338000Y-107554000D02*
X149438000Y-108654000D01*
X147488000Y-107554000D02*
X148338000Y-107554000D01*
D49*
%TO.N,GND*%
X175438000Y-71654000D02*
X158648000Y-71654000D01*
X158648000Y-71654000D02*
X158528000Y-71774000D01*
D50*
%TO.N,Net-(GPIO20-Pad1)*%
X180438000Y-79154000D02*
X180438000Y-93678793D01*
X158528000Y-76854000D02*
X178138000Y-76854000D01*
X178138000Y-76854000D02*
X180438000Y-79154000D01*
X172438000Y-101678793D02*
X172438000Y-117154000D01*
X180438000Y-93678793D02*
X172438000Y-101678793D01*
%TO.N,Net-(GPIO21-Pad1)*%
X158528000Y-74314000D02*
X180098000Y-74314000D01*
X180098000Y-74314000D02*
X182438000Y-76654000D01*
X182438000Y-76654000D02*
X182438000Y-105154000D01*
%TO.N,Net-(GPIO22-Pad1)*%
X188438000Y-80154000D02*
X188438000Y-90654000D01*
X158528000Y-69234000D02*
X177518000Y-69234000D01*
X177518000Y-69234000D02*
X188438000Y-80154000D01*
%TO.N,Net-(GPIO26-Pad1)*%
X178938000Y-64154000D02*
X188438000Y-73654000D01*
X158528000Y-64154000D02*
X178938000Y-64154000D01*
%TO.N,Net-(GPIO28-Pad1)*%
X158528000Y-56534000D02*
X165058000Y-56534000D01*
X165058000Y-56534000D02*
X172438000Y-49154000D01*
%TO.N,Net-(GPIO0-Pad1)*%
X140748000Y-41294000D02*
X136798000Y-41294000D01*
X136798000Y-41294000D02*
X128938000Y-49154000D01*
X128938000Y-49154000D02*
X127938000Y-49154000D01*
%TO.N,Net-(GPIO27-Pad1)*%
X158528000Y-61614000D02*
X181478000Y-61614000D01*
X181478000Y-61614000D02*
X182938000Y-60154000D01*
%TO.N,Net-(D12-Pad2)*%
X156438000Y-102654000D02*
X156438000Y-90154000D01*
X152388000Y-106704000D02*
X156438000Y-102654000D01*
X152388000Y-107554000D02*
X152388000Y-106704000D01*
X145678000Y-79394000D02*
X140748000Y-79394000D01*
X156438000Y-90154000D02*
X145678000Y-79394000D01*
%TO.N,Net-(GPIO13-Pad1)*%
X140748000Y-81934000D02*
X137658000Y-81934000D01*
X137658000Y-81934000D02*
X127438000Y-92154000D01*
%TO.N,Net-(GPIO18-Pad1)*%
X158528000Y-81934000D02*
X162218000Y-81934000D01*
X162218000Y-81934000D02*
X172438000Y-92154000D01*
%TD*%
%TA.AperFunction,Conductor*%
%TO.N,GND*%
G36*
X170491587Y-135174002D02*
G01*
X170538080Y-135227658D01*
X170549461Y-135281172D01*
X170547398Y-135502945D01*
X170546559Y-135516329D01*
X170543712Y-135540810D01*
X170542010Y-135555443D01*
X170543517Y-135564290D01*
X170552332Y-135616052D01*
X170553008Y-135620504D01*
X170561159Y-135681455D01*
X170564652Y-135689331D01*
X170565019Y-135690547D01*
X170566464Y-135699033D01*
X170589829Y-135747011D01*
X170593375Y-135754293D01*
X170595275Y-135758379D01*
X170616571Y-135806399D01*
X170616573Y-135806403D01*
X170620211Y-135814605D01*
X170625772Y-135821181D01*
X170626466Y-135822246D01*
X170630236Y-135829988D01*
X170636271Y-135836629D01*
X170636272Y-135836630D01*
X170671582Y-135875484D01*
X170674548Y-135878867D01*
X170697593Y-135906120D01*
X170714260Y-135925830D01*
X170721446Y-135930583D01*
X170722406Y-135931406D01*
X170728199Y-135937781D01*
X170780651Y-135969842D01*
X170784450Y-135972259D01*
X170826208Y-135999880D01*
X170835746Y-136006189D01*
X170877159Y-136018995D01*
X170888305Y-136023026D01*
X171020744Y-136078115D01*
X171029281Y-136082046D01*
X171161468Y-136149031D01*
X171169663Y-136153574D01*
X171295377Y-136229515D01*
X171303161Y-136234619D01*
X171422129Y-136319072D01*
X171429451Y-136324685D01*
X171541378Y-136417211D01*
X171548241Y-136423320D01*
X171652780Y-136523446D01*
X171659143Y-136529999D01*
X171755943Y-136637252D01*
X171761809Y-136644245D01*
X171850511Y-136758142D01*
X171855855Y-136765542D01*
X171936077Y-136885560D01*
X171940874Y-136893332D01*
X172012279Y-137019000D01*
X172016509Y-137027119D01*
X172046792Y-137090776D01*
X172078730Y-137157915D01*
X172082373Y-137166354D01*
X172096634Y-137203007D01*
X172135075Y-137301812D01*
X172138107Y-137310540D01*
X172180946Y-137450166D01*
X172183343Y-137459146D01*
X172216000Y-137602547D01*
X172217737Y-137611739D01*
X172239866Y-137758500D01*
X172240920Y-137767847D01*
X172252172Y-137917625D01*
X172252526Y-137927064D01*
X172252526Y-151330139D01*
X172252503Y-151332532D01*
X172247221Y-151610668D01*
X172246844Y-151630500D01*
X172246693Y-151634723D01*
X172234299Y-151869542D01*
X172231262Y-151927085D01*
X172230968Y-151931305D01*
X172207672Y-152200233D01*
X172205746Y-152222461D01*
X172205311Y-152226655D01*
X172170510Y-152515187D01*
X172170369Y-152516352D01*
X172169795Y-152520523D01*
X172142562Y-152696397D01*
X172125182Y-152808640D01*
X172124466Y-152812801D01*
X172096604Y-152959917D01*
X172070282Y-153098898D01*
X172069427Y-153103034D01*
X172005711Y-153387037D01*
X172004718Y-153391141D01*
X171931536Y-153672794D01*
X171930406Y-153676861D01*
X171866003Y-153894499D01*
X171847849Y-153955845D01*
X171846585Y-153959865D01*
X171838200Y-153985067D01*
X171754706Y-154235994D01*
X171753306Y-154239979D01*
X171652167Y-154513021D01*
X171650632Y-154516960D01*
X171540320Y-154786628D01*
X171538653Y-154790517D01*
X171419203Y-155056656D01*
X171417403Y-155060492D01*
X171348817Y-155200502D01*
X171299188Y-155301813D01*
X171288916Y-155322781D01*
X171286988Y-155326553D01*
X171160676Y-155563831D01*
X171149514Y-155584798D01*
X171147453Y-155588517D01*
X171001122Y-155842360D01*
X170998904Y-155846060D01*
X170902689Y-156000495D01*
X170843887Y-156094877D01*
X170841589Y-156098431D01*
X170693975Y-156318498D01*
X170678531Y-156341522D01*
X170676125Y-156344981D01*
X170505278Y-156582044D01*
X170502779Y-156585393D01*
X170340681Y-156795096D01*
X170324339Y-156816238D01*
X170321698Y-156819538D01*
X170135809Y-157044033D01*
X170133078Y-157047222D01*
X169939936Y-157265172D01*
X169937118Y-157268246D01*
X169736857Y-157479528D01*
X169733915Y-157482529D01*
X169526830Y-157686843D01*
X169523818Y-157689718D01*
X169472492Y-157737072D01*
X169309951Y-157887034D01*
X169306800Y-157889845D01*
X169086389Y-158079928D01*
X169083143Y-158082633D01*
X168856410Y-158265278D01*
X168853082Y-158267868D01*
X168643433Y-158425453D01*
X168620104Y-158442988D01*
X168616689Y-158445466D01*
X168414249Y-158587243D01*
X168377708Y-158612834D01*
X168374195Y-158615207D01*
X168129365Y-158774671D01*
X168125768Y-158776928D01*
X167875269Y-158928315D01*
X167871613Y-158930442D01*
X167666844Y-159044937D01*
X167654723Y-159050077D01*
X167654836Y-159050321D01*
X167646699Y-159054098D01*
X167638101Y-159056686D01*
X167630575Y-159061582D01*
X167630572Y-159061584D01*
X167594384Y-159085129D01*
X167587162Y-159089491D01*
X167578274Y-159094461D01*
X167578266Y-159094467D01*
X167574357Y-159096652D01*
X167570802Y-159099366D01*
X167570790Y-159099374D01*
X167564762Y-159103976D01*
X167557024Y-159109436D01*
X167519868Y-159133612D01*
X167451150Y-159154000D01*
X132394620Y-159154000D01*
X132326499Y-159133998D01*
X132311294Y-159122514D01*
X132306585Y-159118362D01*
X132300758Y-159111528D01*
X132289240Y-159103976D01*
X132261815Y-159085996D01*
X132253339Y-159079923D01*
X132247071Y-159075027D01*
X132247068Y-159075025D01*
X132243231Y-159072028D01*
X132229006Y-159064097D01*
X132221298Y-159059429D01*
X132186456Y-159036586D01*
X132186455Y-159036586D01*
X132178947Y-159031663D01*
X132170359Y-159029045D01*
X132162236Y-159025240D01*
X132162266Y-159025175D01*
X132149291Y-159019655D01*
X131942804Y-158904537D01*
X131939137Y-158902411D01*
X131688072Y-158751153D01*
X131684484Y-158748908D01*
X131520888Y-158642700D01*
X131439081Y-158589590D01*
X131435596Y-158587243D01*
X131195974Y-158419993D01*
X131192555Y-158417521D01*
X130958975Y-158242572D01*
X130955642Y-158239987D01*
X130728190Y-158057430D01*
X130724966Y-158054753D01*
X130572698Y-157923929D01*
X130503886Y-157864808D01*
X130500736Y-157862009D01*
X130286196Y-157664839D01*
X130283142Y-157661936D01*
X130075336Y-157457723D01*
X130072379Y-157454718D01*
X129871464Y-157243606D01*
X129868607Y-157240502D01*
X129695217Y-157045647D01*
X129674747Y-157022644D01*
X129671998Y-157019447D01*
X129485450Y-156795096D01*
X129482802Y-156791801D01*
X129385679Y-156666686D01*
X129303638Y-156561000D01*
X129301109Y-156557625D01*
X129255273Y-156494293D01*
X129147222Y-156345001D01*
X129129622Y-156320683D01*
X129127193Y-156317206D01*
X128963488Y-156074194D01*
X128961173Y-156070629D01*
X128805354Y-155821591D01*
X128803194Y-155818008D01*
X128785456Y-155787445D01*
X128733154Y-155697332D01*
X128655671Y-155563831D01*
X128653597Y-155560115D01*
X128515122Y-155301813D01*
X128513178Y-155298035D01*
X128383698Y-155035634D01*
X128381886Y-155031800D01*
X128331746Y-154920935D01*
X128261494Y-154765598D01*
X128259817Y-154761717D01*
X128247912Y-154732846D01*
X128219936Y-154665000D01*
X136598202Y-154665000D01*
X136620247Y-154732846D01*
X136621583Y-154736559D01*
X136643856Y-154792813D01*
X136645430Y-154796450D01*
X136777682Y-155077499D01*
X136779470Y-155081008D01*
X136808617Y-155134027D01*
X136810640Y-155137447D01*
X136977065Y-155399692D01*
X136979288Y-155402963D01*
X137014862Y-155451925D01*
X137017267Y-155455025D01*
X137215269Y-155694369D01*
X137217881Y-155697332D01*
X137259308Y-155741448D01*
X137262076Y-155744216D01*
X137488526Y-155956868D01*
X137491479Y-155959471D01*
X137538103Y-155998041D01*
X137541224Y-156000461D01*
X137792513Y-156183033D01*
X137795792Y-156185262D01*
X137846867Y-156217676D01*
X137850266Y-156219686D01*
X138122477Y-156369335D01*
X138125985Y-156371123D01*
X138180719Y-156396878D01*
X138184356Y-156398452D01*
X138421157Y-156492208D01*
X138435200Y-156493495D01*
X138438000Y-156488602D01*
X138438000Y-156480762D01*
X140438000Y-156480762D01*
X140441973Y-156494293D01*
X140447552Y-156495095D01*
X140691644Y-156398452D01*
X140695281Y-156396878D01*
X140750015Y-156371123D01*
X140752057Y-156370082D01*
X143141749Y-156370082D01*
X143144939Y-156374343D01*
X143443738Y-156498109D01*
X143450589Y-156500495D01*
X143777212Y-156593536D01*
X143784301Y-156595120D01*
X144119465Y-156650006D01*
X144126671Y-156650763D01*
X144465926Y-156666762D01*
X144473176Y-156666686D01*
X144812010Y-156643587D01*
X144819219Y-156642676D01*
X145153160Y-156580784D01*
X145160190Y-156579057D01*
X145484819Y-156479187D01*
X145491597Y-156476667D01*
X145721614Y-156375697D01*
X145732407Y-156366620D01*
X145730869Y-156361082D01*
X144450812Y-155081026D01*
X144436868Y-155073412D01*
X144435034Y-155073543D01*
X144428422Y-155077792D01*
X143148508Y-156357705D01*
X143141749Y-156370082D01*
X140752057Y-156370082D01*
X140753523Y-156369335D01*
X141025734Y-156219686D01*
X141029133Y-156217676D01*
X141080208Y-156185262D01*
X141083487Y-156183033D01*
X141334776Y-156000461D01*
X141337897Y-155998041D01*
X141384521Y-155959471D01*
X141387474Y-155956868D01*
X141606302Y-155751374D01*
X141669652Y-155719323D01*
X141692555Y-155717224D01*
X142172587Y-155717224D01*
X142183612Y-155713987D01*
X142180373Y-155706894D01*
X141664728Y-155191249D01*
X141630702Y-155128937D01*
X141635767Y-155058122D01*
X141664728Y-155013059D01*
X142010975Y-154666812D01*
X142016484Y-154656723D01*
X142009183Y-154654000D01*
X140456115Y-154654000D01*
X140440876Y-154658475D01*
X140439671Y-154659865D01*
X140438000Y-154667548D01*
X140438000Y-156480762D01*
X138438000Y-156480762D01*
X138438000Y-154672115D01*
X138433525Y-154656876D01*
X138432135Y-154655671D01*
X138424452Y-154654000D01*
X136612743Y-154654000D01*
X136599212Y-154657973D01*
X136598202Y-154665000D01*
X128219936Y-154665000D01*
X128148558Y-154491899D01*
X128147016Y-154487976D01*
X128131836Y-154447342D01*
X128044958Y-154214795D01*
X128043557Y-154210845D01*
X127950771Y-153934553D01*
X127949500Y-153930546D01*
X127917901Y-153824836D01*
X127867173Y-153655132D01*
X145857412Y-153655132D01*
X145857543Y-153656966D01*
X145861792Y-153663578D01*
X147138796Y-154940582D01*
X147151176Y-154947342D01*
X147156751Y-154943169D01*
X147201658Y-154853882D01*
X147204530Y-154847244D01*
X147321249Y-154528293D01*
X147323345Y-154521351D01*
X147402631Y-154191103D01*
X147403915Y-154183964D01*
X147406210Y-154165000D01*
X152098202Y-154165000D01*
X152120247Y-154232846D01*
X152121583Y-154236559D01*
X152143856Y-154292813D01*
X152145430Y-154296450D01*
X152277682Y-154577499D01*
X152279470Y-154581008D01*
X152308617Y-154634027D01*
X152310640Y-154637447D01*
X152477065Y-154899692D01*
X152479288Y-154902963D01*
X152514862Y-154951925D01*
X152517267Y-154955025D01*
X152715269Y-155194369D01*
X152717881Y-155197332D01*
X152759308Y-155241448D01*
X152762076Y-155244216D01*
X152988526Y-155456868D01*
X152991479Y-155459471D01*
X153038103Y-155498041D01*
X153041224Y-155500461D01*
X153292513Y-155683033D01*
X153295792Y-155685262D01*
X153346867Y-155717676D01*
X153350266Y-155719686D01*
X153622477Y-155869335D01*
X153625985Y-155871123D01*
X153680719Y-155896878D01*
X153684356Y-155898452D01*
X153921157Y-155992208D01*
X153935200Y-155993495D01*
X153938000Y-155988602D01*
X153938000Y-155980762D01*
X155938000Y-155980762D01*
X155941973Y-155994293D01*
X155947552Y-155995095D01*
X156191644Y-155898452D01*
X156195281Y-155896878D01*
X156250015Y-155871123D01*
X156252057Y-155870082D01*
X158641749Y-155870082D01*
X158644939Y-155874343D01*
X158943738Y-155998109D01*
X158950589Y-156000495D01*
X159277212Y-156093536D01*
X159284301Y-156095120D01*
X159619465Y-156150006D01*
X159626671Y-156150763D01*
X159965926Y-156166762D01*
X159973176Y-156166686D01*
X160312010Y-156143587D01*
X160319219Y-156142676D01*
X160653160Y-156080784D01*
X160660190Y-156079057D01*
X160984819Y-155979187D01*
X160991597Y-155976667D01*
X161221614Y-155875697D01*
X161232407Y-155866620D01*
X161230869Y-155861082D01*
X159950812Y-154581026D01*
X159936868Y-154573412D01*
X159935034Y-154573543D01*
X159928422Y-154577792D01*
X158648508Y-155857705D01*
X158641749Y-155870082D01*
X156252057Y-155870082D01*
X156253523Y-155869335D01*
X156525734Y-155719686D01*
X156529133Y-155717676D01*
X156580208Y-155685262D01*
X156583487Y-155683033D01*
X156834776Y-155500461D01*
X156837897Y-155498041D01*
X156884521Y-155459471D01*
X156887474Y-155456868D01*
X157106302Y-155251374D01*
X157169652Y-155219323D01*
X157192555Y-155217224D01*
X157672587Y-155217224D01*
X157683612Y-155213987D01*
X157680373Y-155206894D01*
X157164728Y-154691249D01*
X157130702Y-154628937D01*
X157135767Y-154558122D01*
X157164728Y-154513059D01*
X157510975Y-154166812D01*
X157516484Y-154156723D01*
X157509183Y-154154000D01*
X155956115Y-154154000D01*
X155940876Y-154158475D01*
X155939671Y-154159865D01*
X155938000Y-154167548D01*
X155938000Y-155980762D01*
X153938000Y-155980762D01*
X153938000Y-154172115D01*
X153933525Y-154156876D01*
X153932135Y-154155671D01*
X153924452Y-154154000D01*
X152112743Y-154154000D01*
X152099212Y-154157973D01*
X152098202Y-154165000D01*
X147406210Y-154165000D01*
X147444816Y-153845973D01*
X147445240Y-153840403D01*
X147451010Y-153656797D01*
X147450937Y-153651204D01*
X147431338Y-153311303D01*
X147430506Y-153304113D01*
X147404505Y-153155132D01*
X161357412Y-153155132D01*
X161357543Y-153156966D01*
X161361792Y-153163578D01*
X162638796Y-154440582D01*
X162651176Y-154447342D01*
X162656751Y-154443169D01*
X162701658Y-154353882D01*
X162704530Y-154347244D01*
X162821249Y-154028293D01*
X162823345Y-154021351D01*
X162902631Y-153691103D01*
X162903915Y-153683964D01*
X162944816Y-153345973D01*
X162945240Y-153340403D01*
X162951010Y-153156797D01*
X162950937Y-153151204D01*
X162931338Y-152811303D01*
X162930506Y-152804113D01*
X162872113Y-152469529D01*
X162870458Y-152462474D01*
X162773998Y-152136835D01*
X162771542Y-152130010D01*
X162660443Y-151869542D01*
X162651479Y-151858654D01*
X162646135Y-151860078D01*
X161365026Y-153141188D01*
X161357412Y-153155132D01*
X147404505Y-153155132D01*
X147372113Y-152969529D01*
X147370458Y-152962474D01*
X147273998Y-152636835D01*
X147271542Y-152630010D01*
X147160443Y-152369542D01*
X147151479Y-152358654D01*
X147146135Y-152360078D01*
X145865026Y-153641188D01*
X145857412Y-153655132D01*
X127867173Y-153655132D01*
X127866038Y-153651334D01*
X127864913Y-153647326D01*
X127790863Y-153365503D01*
X127789864Y-153361426D01*
X127786286Y-153345676D01*
X127725291Y-153077234D01*
X127724424Y-153073100D01*
X127669385Y-152786757D01*
X127668657Y-152782592D01*
X127647894Y-152650867D01*
X136599824Y-152650867D01*
X136606196Y-152654000D01*
X138419885Y-152654000D01*
X138435124Y-152649525D01*
X138436329Y-152648135D01*
X138438000Y-152640452D01*
X138438000Y-152635885D01*
X140438000Y-152635885D01*
X140442475Y-152651124D01*
X140443865Y-152652329D01*
X140451548Y-152654000D01*
X142005672Y-152654000D01*
X142016697Y-152650763D01*
X142013459Y-152643672D01*
X141664728Y-152294941D01*
X141630702Y-152232629D01*
X141635767Y-152161814D01*
X141664728Y-152116751D01*
X142177890Y-151603589D01*
X142183399Y-151593499D01*
X142176098Y-151590776D01*
X141692555Y-151590776D01*
X141624434Y-151570774D01*
X141606302Y-151556626D01*
X141387474Y-151351132D01*
X141384521Y-151348529D01*
X141337897Y-151309959D01*
X141334776Y-151307539D01*
X141083487Y-151124967D01*
X141080208Y-151122738D01*
X141029133Y-151090324D01*
X141025734Y-151088314D01*
X140760366Y-150942427D01*
X143144878Y-150942427D01*
X143146799Y-150948586D01*
X144425188Y-152226974D01*
X144439132Y-152234588D01*
X144440966Y-152234457D01*
X144447578Y-152230208D01*
X144526919Y-152150867D01*
X152099824Y-152150867D01*
X152106196Y-152154000D01*
X153919885Y-152154000D01*
X153935124Y-152149525D01*
X153936329Y-152148135D01*
X153938000Y-152140452D01*
X153938000Y-152135885D01*
X155938000Y-152135885D01*
X155942475Y-152151124D01*
X155943865Y-152152329D01*
X155951548Y-152154000D01*
X157505672Y-152154000D01*
X157516697Y-152150763D01*
X157513459Y-152143672D01*
X157164728Y-151794941D01*
X157130702Y-151732629D01*
X157135767Y-151661814D01*
X157164728Y-151616751D01*
X157677890Y-151103589D01*
X157683399Y-151093499D01*
X157676098Y-151090776D01*
X157192555Y-151090776D01*
X157124434Y-151070774D01*
X157106302Y-151056626D01*
X156887474Y-150851132D01*
X156884521Y-150848529D01*
X156837897Y-150809959D01*
X156834776Y-150807539D01*
X156583487Y-150624967D01*
X156580208Y-150622738D01*
X156529133Y-150590324D01*
X156525734Y-150588314D01*
X156260366Y-150442427D01*
X158644878Y-150442427D01*
X158646799Y-150448586D01*
X159925188Y-151726974D01*
X159939132Y-151734588D01*
X159940966Y-151734457D01*
X159947578Y-151730208D01*
X161225161Y-150452626D01*
X161231920Y-150440249D01*
X161227581Y-150434453D01*
X161166758Y-150403060D01*
X161160146Y-150400116D01*
X160842439Y-150280065D01*
X160835513Y-150277894D01*
X160506112Y-150195155D01*
X160499005Y-150193799D01*
X160162278Y-150149468D01*
X160155036Y-150148937D01*
X159815467Y-150143602D01*
X159808205Y-150143906D01*
X159470256Y-150177638D01*
X159463108Y-150178770D01*
X159131263Y-150251124D01*
X159124285Y-150253072D01*
X158802955Y-150363088D01*
X158796261Y-150365820D01*
X158655379Y-150433017D01*
X158644878Y-150442427D01*
X156260366Y-150442427D01*
X156253523Y-150438665D01*
X156250015Y-150436877D01*
X156195281Y-150411122D01*
X156191644Y-150409548D01*
X155954843Y-150315792D01*
X155940800Y-150314505D01*
X155938000Y-150319398D01*
X155938000Y-152135885D01*
X153938000Y-152135885D01*
X153938000Y-150327238D01*
X153934027Y-150313707D01*
X153928448Y-150312905D01*
X153684356Y-150409548D01*
X153680719Y-150411122D01*
X153625985Y-150436877D01*
X153622477Y-150438665D01*
X153350266Y-150588314D01*
X153346867Y-150590324D01*
X153295792Y-150622738D01*
X153292513Y-150624967D01*
X153041224Y-150807539D01*
X153038103Y-150809959D01*
X152991479Y-150848529D01*
X152988526Y-150851132D01*
X152762076Y-151063784D01*
X152759308Y-151066552D01*
X152717881Y-151110668D01*
X152715269Y-151113631D01*
X152517267Y-151352975D01*
X152514862Y-151356075D01*
X152479288Y-151405037D01*
X152477065Y-151408308D01*
X152310640Y-151670553D01*
X152308617Y-151673973D01*
X152279470Y-151726992D01*
X152277682Y-151730501D01*
X152145430Y-152011550D01*
X152143856Y-152015187D01*
X152121583Y-152071441D01*
X152120247Y-152075154D01*
X152100227Y-152136769D01*
X152099824Y-152150867D01*
X144526919Y-152150867D01*
X145725161Y-150952626D01*
X145731920Y-150940249D01*
X145727581Y-150934453D01*
X145666758Y-150903060D01*
X145660146Y-150900116D01*
X145342439Y-150780065D01*
X145335513Y-150777894D01*
X145006112Y-150695155D01*
X144999005Y-150693799D01*
X144662278Y-150649468D01*
X144655036Y-150648937D01*
X144315467Y-150643602D01*
X144308205Y-150643906D01*
X143970256Y-150677638D01*
X143963108Y-150678770D01*
X143631263Y-150751124D01*
X143624285Y-150753072D01*
X143302955Y-150863088D01*
X143296261Y-150865820D01*
X143155379Y-150933017D01*
X143144878Y-150942427D01*
X140760366Y-150942427D01*
X140753523Y-150938665D01*
X140750015Y-150936877D01*
X140695281Y-150911122D01*
X140691644Y-150909548D01*
X140454843Y-150815792D01*
X140440800Y-150814505D01*
X140438000Y-150819398D01*
X140438000Y-152635885D01*
X138438000Y-152635885D01*
X138438000Y-150827238D01*
X138434027Y-150813707D01*
X138428448Y-150812905D01*
X138184356Y-150909548D01*
X138180719Y-150911122D01*
X138125985Y-150936877D01*
X138122477Y-150938665D01*
X137850266Y-151088314D01*
X137846867Y-151090324D01*
X137795792Y-151122738D01*
X137792513Y-151124967D01*
X137541224Y-151307539D01*
X137538103Y-151309959D01*
X137491479Y-151348529D01*
X137488526Y-151351132D01*
X137262076Y-151563784D01*
X137259308Y-151566552D01*
X137217881Y-151610668D01*
X137215269Y-151613631D01*
X137017267Y-151852975D01*
X137014862Y-151856075D01*
X136979288Y-151905037D01*
X136977065Y-151908308D01*
X136810640Y-152170553D01*
X136808617Y-152173973D01*
X136779470Y-152226992D01*
X136777682Y-152230501D01*
X136645430Y-152511550D01*
X136643856Y-152515187D01*
X136621583Y-152571441D01*
X136620247Y-152575154D01*
X136600227Y-152636769D01*
X136599824Y-152650867D01*
X127647894Y-152650867D01*
X127623224Y-152494362D01*
X127622635Y-152490172D01*
X127598547Y-152294941D01*
X127586859Y-152200213D01*
X127586413Y-152196020D01*
X127582509Y-152152329D01*
X127571658Y-152030910D01*
X127560372Y-151904625D01*
X127560066Y-151900394D01*
X127543823Y-151607838D01*
X127543659Y-151603591D01*
X127537196Y-151306212D01*
X127537166Y-151303474D01*
X127537166Y-147665000D01*
X136598202Y-147665000D01*
X136620247Y-147732846D01*
X136621583Y-147736559D01*
X136643856Y-147792813D01*
X136645430Y-147796450D01*
X136777682Y-148077499D01*
X136779470Y-148081008D01*
X136808617Y-148134027D01*
X136810640Y-148137447D01*
X136977065Y-148399692D01*
X136979288Y-148402963D01*
X137014862Y-148451925D01*
X137017267Y-148455025D01*
X137215269Y-148694369D01*
X137217881Y-148697332D01*
X137259308Y-148741448D01*
X137262076Y-148744216D01*
X137488526Y-148956868D01*
X137491479Y-148959471D01*
X137538103Y-148998041D01*
X137541224Y-149000461D01*
X137792513Y-149183033D01*
X137795792Y-149185262D01*
X137846867Y-149217676D01*
X137850266Y-149219686D01*
X138122477Y-149369335D01*
X138125985Y-149371123D01*
X138180719Y-149396878D01*
X138184356Y-149398452D01*
X138421157Y-149492208D01*
X138435200Y-149493495D01*
X138438000Y-149488602D01*
X138438000Y-149480762D01*
X140438000Y-149480762D01*
X140441973Y-149494293D01*
X140447552Y-149495095D01*
X140691644Y-149398452D01*
X140695281Y-149396878D01*
X140750015Y-149371123D01*
X140752057Y-149370082D01*
X143141749Y-149370082D01*
X143144939Y-149374343D01*
X143443738Y-149498109D01*
X143450589Y-149500495D01*
X143777212Y-149593536D01*
X143784301Y-149595120D01*
X144119465Y-149650006D01*
X144126671Y-149650763D01*
X144465926Y-149666762D01*
X144473176Y-149666686D01*
X144812010Y-149643587D01*
X144819219Y-149642676D01*
X145153160Y-149580784D01*
X145160190Y-149579057D01*
X145484819Y-149479187D01*
X145491597Y-149476667D01*
X145721614Y-149375697D01*
X145732407Y-149366620D01*
X145730869Y-149361082D01*
X144450812Y-148081026D01*
X144436868Y-148073412D01*
X144435034Y-148073543D01*
X144428422Y-148077792D01*
X143148508Y-149357705D01*
X143141749Y-149370082D01*
X140752057Y-149370082D01*
X140753523Y-149369335D01*
X141025734Y-149219686D01*
X141029133Y-149217676D01*
X141080208Y-149185262D01*
X141083487Y-149183033D01*
X141334776Y-149000461D01*
X141337897Y-148998041D01*
X141384521Y-148959471D01*
X141387474Y-148956868D01*
X141606302Y-148751374D01*
X141669652Y-148719323D01*
X141692555Y-148717224D01*
X142172587Y-148717224D01*
X142183612Y-148713987D01*
X142180373Y-148706894D01*
X141664728Y-148191249D01*
X141630702Y-148128937D01*
X141635767Y-148058122D01*
X141664728Y-148013059D01*
X142010975Y-147666812D01*
X142016484Y-147656723D01*
X142009183Y-147654000D01*
X140456115Y-147654000D01*
X140440876Y-147658475D01*
X140439671Y-147659865D01*
X140438000Y-147667548D01*
X140438000Y-149480762D01*
X138438000Y-149480762D01*
X138438000Y-147672115D01*
X138433525Y-147656876D01*
X138432135Y-147655671D01*
X138424452Y-147654000D01*
X136612743Y-147654000D01*
X136599212Y-147657973D01*
X136598202Y-147665000D01*
X127537166Y-147665000D01*
X127537166Y-146655132D01*
X145857412Y-146655132D01*
X145857543Y-146656966D01*
X145861792Y-146663578D01*
X147138796Y-147940582D01*
X147151176Y-147947342D01*
X147156751Y-147943169D01*
X147201658Y-147853882D01*
X147204530Y-147847244D01*
X147321249Y-147528293D01*
X147323345Y-147521351D01*
X147402631Y-147191103D01*
X147403915Y-147183964D01*
X147406210Y-147165000D01*
X152098202Y-147165000D01*
X152120247Y-147232846D01*
X152121583Y-147236559D01*
X152143856Y-147292813D01*
X152145430Y-147296450D01*
X152277682Y-147577499D01*
X152279470Y-147581008D01*
X152308617Y-147634027D01*
X152310640Y-147637447D01*
X152477065Y-147899692D01*
X152479288Y-147902963D01*
X152514862Y-147951925D01*
X152517267Y-147955025D01*
X152715269Y-148194369D01*
X152717881Y-148197332D01*
X152759308Y-148241448D01*
X152762076Y-148244216D01*
X152988526Y-148456868D01*
X152991479Y-148459471D01*
X153038103Y-148498041D01*
X153041224Y-148500461D01*
X153292513Y-148683033D01*
X153295792Y-148685262D01*
X153346867Y-148717676D01*
X153350266Y-148719686D01*
X153622477Y-148869335D01*
X153625985Y-148871123D01*
X153680719Y-148896878D01*
X153684356Y-148898452D01*
X153921157Y-148992208D01*
X153935200Y-148993495D01*
X153938000Y-148988602D01*
X153938000Y-148980762D01*
X155938000Y-148980762D01*
X155941973Y-148994293D01*
X155947552Y-148995095D01*
X156191644Y-148898452D01*
X156195281Y-148896878D01*
X156250015Y-148871123D01*
X156252057Y-148870082D01*
X158641749Y-148870082D01*
X158644939Y-148874343D01*
X158943738Y-148998109D01*
X158950589Y-149000495D01*
X159277212Y-149093536D01*
X159284301Y-149095120D01*
X159619465Y-149150006D01*
X159626671Y-149150763D01*
X159965926Y-149166762D01*
X159973176Y-149166686D01*
X160312010Y-149143587D01*
X160319219Y-149142676D01*
X160653160Y-149080784D01*
X160660190Y-149079057D01*
X160984819Y-148979187D01*
X160991597Y-148976667D01*
X161221614Y-148875697D01*
X161232407Y-148866620D01*
X161230869Y-148861082D01*
X159950812Y-147581026D01*
X159936868Y-147573412D01*
X159935034Y-147573543D01*
X159928422Y-147577792D01*
X158648508Y-148857705D01*
X158641749Y-148870082D01*
X156252057Y-148870082D01*
X156253523Y-148869335D01*
X156525734Y-148719686D01*
X156529133Y-148717676D01*
X156580208Y-148685262D01*
X156583487Y-148683033D01*
X156834776Y-148500461D01*
X156837897Y-148498041D01*
X156884521Y-148459471D01*
X156887474Y-148456868D01*
X157106302Y-148251374D01*
X157169652Y-148219323D01*
X157192555Y-148217224D01*
X157672587Y-148217224D01*
X157683612Y-148213987D01*
X157680373Y-148206894D01*
X157164728Y-147691249D01*
X157130702Y-147628937D01*
X157135767Y-147558122D01*
X157164728Y-147513059D01*
X157510975Y-147166812D01*
X157516484Y-147156723D01*
X157509183Y-147154000D01*
X155956115Y-147154000D01*
X155940876Y-147158475D01*
X155939671Y-147159865D01*
X155938000Y-147167548D01*
X155938000Y-148980762D01*
X153938000Y-148980762D01*
X153938000Y-147172115D01*
X153933525Y-147156876D01*
X153932135Y-147155671D01*
X153924452Y-147154000D01*
X152112743Y-147154000D01*
X152099212Y-147157973D01*
X152098202Y-147165000D01*
X147406210Y-147165000D01*
X147444816Y-146845973D01*
X147445240Y-146840403D01*
X147451010Y-146656797D01*
X147450937Y-146651204D01*
X147431338Y-146311303D01*
X147430506Y-146304113D01*
X147404505Y-146155132D01*
X161357412Y-146155132D01*
X161357543Y-146156966D01*
X161361792Y-146163578D01*
X162638796Y-147440582D01*
X162651176Y-147447342D01*
X162656751Y-147443169D01*
X162701658Y-147353882D01*
X162704530Y-147347244D01*
X162821249Y-147028293D01*
X162823345Y-147021351D01*
X162902631Y-146691103D01*
X162903915Y-146683964D01*
X162944816Y-146345973D01*
X162945240Y-146340403D01*
X162951010Y-146156797D01*
X162950937Y-146151204D01*
X162931338Y-145811303D01*
X162930506Y-145804113D01*
X162872113Y-145469529D01*
X162870458Y-145462474D01*
X162773998Y-145136835D01*
X162771542Y-145130010D01*
X162660443Y-144869542D01*
X162651479Y-144858654D01*
X162646135Y-144860078D01*
X161365026Y-146141188D01*
X161357412Y-146155132D01*
X147404505Y-146155132D01*
X147372113Y-145969529D01*
X147370458Y-145962474D01*
X147273998Y-145636835D01*
X147271542Y-145630010D01*
X147160443Y-145369542D01*
X147151479Y-145358654D01*
X147146135Y-145360078D01*
X145865026Y-146641188D01*
X145857412Y-146655132D01*
X127537166Y-146655132D01*
X127537166Y-145650867D01*
X136599824Y-145650867D01*
X136606196Y-145654000D01*
X138419885Y-145654000D01*
X138435124Y-145649525D01*
X138436329Y-145648135D01*
X138438000Y-145640452D01*
X138438000Y-145635885D01*
X140438000Y-145635885D01*
X140442475Y-145651124D01*
X140443865Y-145652329D01*
X140451548Y-145654000D01*
X142005672Y-145654000D01*
X142016697Y-145650763D01*
X142013459Y-145643672D01*
X141664728Y-145294941D01*
X141630702Y-145232629D01*
X141635767Y-145161814D01*
X141664728Y-145116751D01*
X142177890Y-144603589D01*
X142183399Y-144593499D01*
X142176098Y-144590776D01*
X141692555Y-144590776D01*
X141624434Y-144570774D01*
X141606302Y-144556626D01*
X141387474Y-144351132D01*
X141384521Y-144348529D01*
X141337897Y-144309959D01*
X141334776Y-144307539D01*
X141083487Y-144124967D01*
X141080208Y-144122738D01*
X141029133Y-144090324D01*
X141025734Y-144088314D01*
X140760366Y-143942427D01*
X143144878Y-143942427D01*
X143146799Y-143948586D01*
X144425188Y-145226974D01*
X144439132Y-145234588D01*
X144440966Y-145234457D01*
X144447578Y-145230208D01*
X144526919Y-145150867D01*
X152099824Y-145150867D01*
X152106196Y-145154000D01*
X153919885Y-145154000D01*
X153935124Y-145149525D01*
X153936329Y-145148135D01*
X153938000Y-145140452D01*
X153938000Y-145135885D01*
X155938000Y-145135885D01*
X155942475Y-145151124D01*
X155943865Y-145152329D01*
X155951548Y-145154000D01*
X157505672Y-145154000D01*
X157516697Y-145150763D01*
X157513459Y-145143672D01*
X157164728Y-144794941D01*
X157130702Y-144732629D01*
X157135767Y-144661814D01*
X157164728Y-144616751D01*
X157677890Y-144103589D01*
X157683399Y-144093499D01*
X157676098Y-144090776D01*
X157192555Y-144090776D01*
X157124434Y-144070774D01*
X157106302Y-144056626D01*
X156887474Y-143851132D01*
X156884521Y-143848529D01*
X156837897Y-143809959D01*
X156834776Y-143807539D01*
X156583487Y-143624967D01*
X156580208Y-143622738D01*
X156529133Y-143590324D01*
X156525734Y-143588314D01*
X156260366Y-143442427D01*
X158644878Y-143442427D01*
X158646799Y-143448586D01*
X159925188Y-144726974D01*
X159939132Y-144734588D01*
X159940966Y-144734457D01*
X159947578Y-144730208D01*
X161225161Y-143452626D01*
X161231920Y-143440249D01*
X161227581Y-143434453D01*
X161166758Y-143403060D01*
X161160146Y-143400116D01*
X160842439Y-143280065D01*
X160835513Y-143277894D01*
X160506112Y-143195155D01*
X160499005Y-143193799D01*
X160162278Y-143149468D01*
X160155036Y-143148937D01*
X159815467Y-143143602D01*
X159808205Y-143143906D01*
X159470256Y-143177638D01*
X159463108Y-143178770D01*
X159131263Y-143251124D01*
X159124285Y-143253072D01*
X158802955Y-143363088D01*
X158796261Y-143365820D01*
X158655379Y-143433017D01*
X158644878Y-143442427D01*
X156260366Y-143442427D01*
X156253523Y-143438665D01*
X156250015Y-143436877D01*
X156195281Y-143411122D01*
X156191644Y-143409548D01*
X155954843Y-143315792D01*
X155940800Y-143314505D01*
X155938000Y-143319398D01*
X155938000Y-145135885D01*
X153938000Y-145135885D01*
X153938000Y-143327238D01*
X153934027Y-143313707D01*
X153928448Y-143312905D01*
X153684356Y-143409548D01*
X153680719Y-143411122D01*
X153625985Y-143436877D01*
X153622477Y-143438665D01*
X153350266Y-143588314D01*
X153346867Y-143590324D01*
X153295792Y-143622738D01*
X153292513Y-143624967D01*
X153041224Y-143807539D01*
X153038103Y-143809959D01*
X152991479Y-143848529D01*
X152988526Y-143851132D01*
X152762076Y-144063784D01*
X152759308Y-144066552D01*
X152717881Y-144110668D01*
X152715269Y-144113631D01*
X152517267Y-144352975D01*
X152514862Y-144356075D01*
X152479288Y-144405037D01*
X152477065Y-144408308D01*
X152310640Y-144670553D01*
X152308617Y-144673973D01*
X152279470Y-144726992D01*
X152277682Y-144730501D01*
X152145430Y-145011550D01*
X152143856Y-145015187D01*
X152121583Y-145071441D01*
X152120247Y-145075154D01*
X152100227Y-145136769D01*
X152099824Y-145150867D01*
X144526919Y-145150867D01*
X145725161Y-143952626D01*
X145731920Y-143940249D01*
X145727581Y-143934453D01*
X145666758Y-143903060D01*
X145660146Y-143900116D01*
X145342439Y-143780065D01*
X145335513Y-143777894D01*
X145006112Y-143695155D01*
X144999005Y-143693799D01*
X144662278Y-143649468D01*
X144655036Y-143648937D01*
X144315467Y-143643602D01*
X144308205Y-143643906D01*
X143970256Y-143677638D01*
X143963108Y-143678770D01*
X143631263Y-143751124D01*
X143624285Y-143753072D01*
X143302955Y-143863088D01*
X143296261Y-143865820D01*
X143155379Y-143933017D01*
X143144878Y-143942427D01*
X140760366Y-143942427D01*
X140753523Y-143938665D01*
X140750015Y-143936877D01*
X140695281Y-143911122D01*
X140691644Y-143909548D01*
X140454843Y-143815792D01*
X140440800Y-143814505D01*
X140438000Y-143819398D01*
X140438000Y-145635885D01*
X138438000Y-145635885D01*
X138438000Y-143827238D01*
X138434027Y-143813707D01*
X138428448Y-143812905D01*
X138184356Y-143909548D01*
X138180719Y-143911122D01*
X138125985Y-143936877D01*
X138122477Y-143938665D01*
X137850266Y-144088314D01*
X137846867Y-144090324D01*
X137795792Y-144122738D01*
X137792513Y-144124967D01*
X137541224Y-144307539D01*
X137538103Y-144309959D01*
X137491479Y-144348529D01*
X137488526Y-144351132D01*
X137262076Y-144563784D01*
X137259308Y-144566552D01*
X137217881Y-144610668D01*
X137215269Y-144613631D01*
X137017267Y-144852975D01*
X137014862Y-144856075D01*
X136979288Y-144905037D01*
X136977065Y-144908308D01*
X136810640Y-145170553D01*
X136808617Y-145173973D01*
X136779470Y-145226992D01*
X136777682Y-145230501D01*
X136645430Y-145511550D01*
X136643856Y-145515187D01*
X136621583Y-145571441D01*
X136620247Y-145575154D01*
X136600227Y-145636769D01*
X136599824Y-145650867D01*
X127537166Y-145650867D01*
X127537166Y-140665000D01*
X136598202Y-140665000D01*
X136620247Y-140732846D01*
X136621583Y-140736559D01*
X136643856Y-140792813D01*
X136645430Y-140796450D01*
X136777682Y-141077499D01*
X136779470Y-141081008D01*
X136808617Y-141134027D01*
X136810640Y-141137447D01*
X136977065Y-141399692D01*
X136979288Y-141402963D01*
X137014862Y-141451925D01*
X137017267Y-141455025D01*
X137215269Y-141694369D01*
X137217881Y-141697332D01*
X137259308Y-141741448D01*
X137262076Y-141744216D01*
X137488526Y-141956868D01*
X137491479Y-141959471D01*
X137538103Y-141998041D01*
X137541224Y-142000461D01*
X137792513Y-142183033D01*
X137795792Y-142185262D01*
X137846867Y-142217676D01*
X137850266Y-142219686D01*
X138122477Y-142369335D01*
X138125985Y-142371123D01*
X138180719Y-142396878D01*
X138184356Y-142398452D01*
X138421157Y-142492208D01*
X138435200Y-142493495D01*
X138438000Y-142488602D01*
X138438000Y-142480762D01*
X140438000Y-142480762D01*
X140441973Y-142494293D01*
X140447552Y-142495095D01*
X140691644Y-142398452D01*
X140695281Y-142396878D01*
X140750015Y-142371123D01*
X140752057Y-142370082D01*
X143141749Y-142370082D01*
X143144939Y-142374343D01*
X143443738Y-142498109D01*
X143450589Y-142500495D01*
X143777212Y-142593536D01*
X143784301Y-142595120D01*
X144119465Y-142650006D01*
X144126671Y-142650763D01*
X144465926Y-142666762D01*
X144473176Y-142666686D01*
X144812010Y-142643587D01*
X144819219Y-142642676D01*
X145153160Y-142580784D01*
X145160190Y-142579057D01*
X145484819Y-142479187D01*
X145491597Y-142476667D01*
X145721614Y-142375697D01*
X145732407Y-142366620D01*
X145730869Y-142361082D01*
X144450812Y-141081026D01*
X144436868Y-141073412D01*
X144435034Y-141073543D01*
X144428422Y-141077792D01*
X143148508Y-142357705D01*
X143141749Y-142370082D01*
X140752057Y-142370082D01*
X140753523Y-142369335D01*
X141025734Y-142219686D01*
X141029133Y-142217676D01*
X141080208Y-142185262D01*
X141083487Y-142183033D01*
X141334776Y-142000461D01*
X141337897Y-141998041D01*
X141384521Y-141959471D01*
X141387474Y-141956868D01*
X141606302Y-141751374D01*
X141669652Y-141719323D01*
X141692555Y-141717224D01*
X142172587Y-141717224D01*
X142183612Y-141713987D01*
X142180373Y-141706894D01*
X141664728Y-141191249D01*
X141630702Y-141128937D01*
X141635767Y-141058122D01*
X141664728Y-141013059D01*
X142010975Y-140666812D01*
X142016484Y-140656723D01*
X142009183Y-140654000D01*
X140456115Y-140654000D01*
X140440876Y-140658475D01*
X140439671Y-140659865D01*
X140438000Y-140667548D01*
X140438000Y-142480762D01*
X138438000Y-142480762D01*
X138438000Y-140672115D01*
X138433525Y-140656876D01*
X138432135Y-140655671D01*
X138424452Y-140654000D01*
X136612743Y-140654000D01*
X136599212Y-140657973D01*
X136598202Y-140665000D01*
X127537166Y-140665000D01*
X127537166Y-139655132D01*
X145857412Y-139655132D01*
X145857543Y-139656966D01*
X145861792Y-139663578D01*
X147138796Y-140940582D01*
X147151176Y-140947342D01*
X147156751Y-140943169D01*
X147201658Y-140853882D01*
X147204530Y-140847244D01*
X147321249Y-140528293D01*
X147323345Y-140521351D01*
X147402631Y-140191103D01*
X147403915Y-140183964D01*
X147406210Y-140165000D01*
X152098202Y-140165000D01*
X152120247Y-140232846D01*
X152121583Y-140236559D01*
X152143856Y-140292813D01*
X152145430Y-140296450D01*
X152277682Y-140577499D01*
X152279470Y-140581008D01*
X152308617Y-140634027D01*
X152310640Y-140637447D01*
X152477065Y-140899692D01*
X152479288Y-140902963D01*
X152514862Y-140951925D01*
X152517267Y-140955025D01*
X152715269Y-141194369D01*
X152717881Y-141197332D01*
X152759308Y-141241448D01*
X152762076Y-141244216D01*
X152988526Y-141456868D01*
X152991479Y-141459471D01*
X153038103Y-141498041D01*
X153041224Y-141500461D01*
X153292513Y-141683033D01*
X153295792Y-141685262D01*
X153346867Y-141717676D01*
X153350266Y-141719686D01*
X153622477Y-141869335D01*
X153625985Y-141871123D01*
X153680719Y-141896878D01*
X153684356Y-141898452D01*
X153921157Y-141992208D01*
X153935200Y-141993495D01*
X153938000Y-141988602D01*
X153938000Y-141980762D01*
X155938000Y-141980762D01*
X155941973Y-141994293D01*
X155947552Y-141995095D01*
X156191644Y-141898452D01*
X156195281Y-141896878D01*
X156250015Y-141871123D01*
X156252057Y-141870082D01*
X158641749Y-141870082D01*
X158644939Y-141874343D01*
X158943738Y-141998109D01*
X158950589Y-142000495D01*
X159277212Y-142093536D01*
X159284301Y-142095120D01*
X159619465Y-142150006D01*
X159626671Y-142150763D01*
X159965926Y-142166762D01*
X159973176Y-142166686D01*
X160312010Y-142143587D01*
X160319219Y-142142676D01*
X160653160Y-142080784D01*
X160660190Y-142079057D01*
X160984819Y-141979187D01*
X160991597Y-141976667D01*
X161221614Y-141875697D01*
X161232407Y-141866620D01*
X161230869Y-141861082D01*
X159950812Y-140581026D01*
X159936868Y-140573412D01*
X159935034Y-140573543D01*
X159928422Y-140577792D01*
X158648508Y-141857705D01*
X158641749Y-141870082D01*
X156252057Y-141870082D01*
X156253523Y-141869335D01*
X156525734Y-141719686D01*
X156529133Y-141717676D01*
X156580208Y-141685262D01*
X156583487Y-141683033D01*
X156834776Y-141500461D01*
X156837897Y-141498041D01*
X156884521Y-141459471D01*
X156887474Y-141456868D01*
X157106302Y-141251374D01*
X157169652Y-141219323D01*
X157192555Y-141217224D01*
X157672587Y-141217224D01*
X157683612Y-141213987D01*
X157680373Y-141206894D01*
X157164728Y-140691249D01*
X157130702Y-140628937D01*
X157135767Y-140558122D01*
X157164728Y-140513059D01*
X157510975Y-140166812D01*
X157516484Y-140156723D01*
X157509183Y-140154000D01*
X155956115Y-140154000D01*
X155940876Y-140158475D01*
X155939671Y-140159865D01*
X155938000Y-140167548D01*
X155938000Y-141980762D01*
X153938000Y-141980762D01*
X153938000Y-140172115D01*
X153933525Y-140156876D01*
X153932135Y-140155671D01*
X153924452Y-140154000D01*
X152112743Y-140154000D01*
X152099212Y-140157973D01*
X152098202Y-140165000D01*
X147406210Y-140165000D01*
X147444816Y-139845973D01*
X147445240Y-139840403D01*
X147451010Y-139656797D01*
X147450937Y-139651204D01*
X147431338Y-139311303D01*
X147430506Y-139304113D01*
X147404505Y-139155132D01*
X161357412Y-139155132D01*
X161357543Y-139156966D01*
X161361792Y-139163578D01*
X162638796Y-140440582D01*
X162651176Y-140447342D01*
X162656751Y-140443169D01*
X162701658Y-140353882D01*
X162704530Y-140347244D01*
X162821249Y-140028293D01*
X162823345Y-140021351D01*
X162902631Y-139691103D01*
X162903915Y-139683964D01*
X162944816Y-139345973D01*
X162945240Y-139340403D01*
X162951010Y-139156797D01*
X162950937Y-139151204D01*
X162931338Y-138811303D01*
X162930506Y-138804113D01*
X162872113Y-138469529D01*
X162870458Y-138462474D01*
X162773998Y-138136835D01*
X162771542Y-138130010D01*
X162660443Y-137869542D01*
X162651479Y-137858654D01*
X162646135Y-137860078D01*
X161365026Y-139141188D01*
X161357412Y-139155132D01*
X147404505Y-139155132D01*
X147372113Y-138969529D01*
X147370458Y-138962474D01*
X147273998Y-138636835D01*
X147271542Y-138630010D01*
X147160443Y-138369542D01*
X147151479Y-138358654D01*
X147146135Y-138360078D01*
X145865026Y-139641188D01*
X145857412Y-139655132D01*
X127537166Y-139655132D01*
X127537166Y-138650867D01*
X136599824Y-138650867D01*
X136606196Y-138654000D01*
X138419885Y-138654000D01*
X138435124Y-138649525D01*
X138436329Y-138648135D01*
X138438000Y-138640452D01*
X138438000Y-138635885D01*
X140438000Y-138635885D01*
X140442475Y-138651124D01*
X140443865Y-138652329D01*
X140451548Y-138654000D01*
X142005672Y-138654000D01*
X142016697Y-138650763D01*
X142013459Y-138643672D01*
X141664728Y-138294941D01*
X141630702Y-138232629D01*
X141635767Y-138161814D01*
X141664728Y-138116751D01*
X142177890Y-137603589D01*
X142183399Y-137593499D01*
X142176098Y-137590776D01*
X141692555Y-137590776D01*
X141624434Y-137570774D01*
X141606302Y-137556626D01*
X141387474Y-137351132D01*
X141384521Y-137348529D01*
X141337897Y-137309959D01*
X141334776Y-137307539D01*
X141083487Y-137124967D01*
X141080208Y-137122738D01*
X141029133Y-137090324D01*
X141025734Y-137088314D01*
X140760366Y-136942427D01*
X143144878Y-136942427D01*
X143146799Y-136948586D01*
X144425188Y-138226974D01*
X144439132Y-138234588D01*
X144440966Y-138234457D01*
X144447578Y-138230208D01*
X144526919Y-138150867D01*
X152099824Y-138150867D01*
X152106196Y-138154000D01*
X153919885Y-138154000D01*
X153935124Y-138149525D01*
X153936329Y-138148135D01*
X153938000Y-138140452D01*
X153938000Y-138135885D01*
X155938000Y-138135885D01*
X155942475Y-138151124D01*
X155943865Y-138152329D01*
X155951548Y-138154000D01*
X157505672Y-138154000D01*
X157516697Y-138150763D01*
X157513459Y-138143672D01*
X157164728Y-137794941D01*
X157130702Y-137732629D01*
X157135767Y-137661814D01*
X157164728Y-137616751D01*
X157677890Y-137103589D01*
X157683399Y-137093499D01*
X157676098Y-137090776D01*
X157192555Y-137090776D01*
X157124434Y-137070774D01*
X157106302Y-137056626D01*
X156887474Y-136851132D01*
X156884521Y-136848529D01*
X156837897Y-136809959D01*
X156834776Y-136807539D01*
X156583487Y-136624967D01*
X156580208Y-136622738D01*
X156529133Y-136590324D01*
X156525734Y-136588314D01*
X156260366Y-136442427D01*
X158644878Y-136442427D01*
X158646799Y-136448586D01*
X159925188Y-137726974D01*
X159939132Y-137734588D01*
X159940966Y-137734457D01*
X159947578Y-137730208D01*
X161225161Y-136452626D01*
X161231920Y-136440249D01*
X161227581Y-136434453D01*
X161166758Y-136403060D01*
X161160146Y-136400116D01*
X160842439Y-136280065D01*
X160835513Y-136277894D01*
X160506112Y-136195155D01*
X160499005Y-136193799D01*
X160162278Y-136149468D01*
X160155036Y-136148937D01*
X159815467Y-136143602D01*
X159808205Y-136143906D01*
X159470256Y-136177638D01*
X159463108Y-136178770D01*
X159131263Y-136251124D01*
X159124285Y-136253072D01*
X158802955Y-136363088D01*
X158796261Y-136365820D01*
X158655379Y-136433017D01*
X158644878Y-136442427D01*
X156260366Y-136442427D01*
X156253523Y-136438665D01*
X156250015Y-136436877D01*
X156195281Y-136411122D01*
X156191644Y-136409548D01*
X155954843Y-136315792D01*
X155940800Y-136314505D01*
X155938000Y-136319398D01*
X155938000Y-138135885D01*
X153938000Y-138135885D01*
X153938000Y-136327238D01*
X153934027Y-136313707D01*
X153928448Y-136312905D01*
X153684356Y-136409548D01*
X153680719Y-136411122D01*
X153625985Y-136436877D01*
X153622477Y-136438665D01*
X153350266Y-136588314D01*
X153346867Y-136590324D01*
X153295792Y-136622738D01*
X153292513Y-136624967D01*
X153041224Y-136807539D01*
X153038103Y-136809959D01*
X152991479Y-136848529D01*
X152988526Y-136851132D01*
X152762076Y-137063784D01*
X152759308Y-137066552D01*
X152717881Y-137110668D01*
X152715269Y-137113631D01*
X152517267Y-137352975D01*
X152514862Y-137356075D01*
X152479288Y-137405037D01*
X152477065Y-137408308D01*
X152310640Y-137670553D01*
X152308617Y-137673973D01*
X152279470Y-137726992D01*
X152277682Y-137730501D01*
X152145430Y-138011550D01*
X152143856Y-138015187D01*
X152121583Y-138071441D01*
X152120247Y-138075154D01*
X152100227Y-138136769D01*
X152099824Y-138150867D01*
X144526919Y-138150867D01*
X145725161Y-136952626D01*
X145731920Y-136940249D01*
X145727581Y-136934453D01*
X145666758Y-136903060D01*
X145660146Y-136900116D01*
X145342439Y-136780065D01*
X145335513Y-136777894D01*
X145006112Y-136695155D01*
X144999005Y-136693799D01*
X144662278Y-136649468D01*
X144655036Y-136648937D01*
X144315467Y-136643602D01*
X144308205Y-136643906D01*
X143970256Y-136677638D01*
X143963108Y-136678770D01*
X143631263Y-136751124D01*
X143624285Y-136753072D01*
X143302955Y-136863088D01*
X143296261Y-136865820D01*
X143155379Y-136933017D01*
X143144878Y-136942427D01*
X140760366Y-136942427D01*
X140753523Y-136938665D01*
X140750015Y-136936877D01*
X140695281Y-136911122D01*
X140691644Y-136909548D01*
X140454843Y-136815792D01*
X140440800Y-136814505D01*
X140438000Y-136819398D01*
X140438000Y-138635885D01*
X138438000Y-138635885D01*
X138438000Y-136827238D01*
X138434027Y-136813707D01*
X138428448Y-136812905D01*
X138184356Y-136909548D01*
X138180719Y-136911122D01*
X138125985Y-136936877D01*
X138122477Y-136938665D01*
X137850266Y-137088314D01*
X137846867Y-137090324D01*
X137795792Y-137122738D01*
X137792513Y-137124967D01*
X137541224Y-137307539D01*
X137538103Y-137309959D01*
X137491479Y-137348529D01*
X137488526Y-137351132D01*
X137262076Y-137563784D01*
X137259308Y-137566552D01*
X137217881Y-137610668D01*
X137215269Y-137613631D01*
X137017267Y-137852975D01*
X137014862Y-137856075D01*
X136979288Y-137905037D01*
X136977065Y-137908308D01*
X136810640Y-138170553D01*
X136808617Y-138173973D01*
X136779470Y-138226992D01*
X136777682Y-138230501D01*
X136645430Y-138511550D01*
X136643856Y-138515187D01*
X136621583Y-138571441D01*
X136620247Y-138575154D01*
X136600227Y-138636769D01*
X136599824Y-138650867D01*
X127537166Y-138650867D01*
X127537166Y-137895173D01*
X127537389Y-137887681D01*
X127541481Y-137818984D01*
X127541853Y-137814241D01*
X127549161Y-137739334D01*
X127549710Y-137734629D01*
X127559762Y-137660539D01*
X127560485Y-137655866D01*
X127561666Y-137649088D01*
X127573249Y-137582557D01*
X127574144Y-137577931D01*
X127589573Y-137505464D01*
X127590636Y-137500892D01*
X127608678Y-137429351D01*
X127609907Y-137424834D01*
X127630529Y-137354235D01*
X127631909Y-137349814D01*
X127655075Y-137280201D01*
X127656624Y-137275820D01*
X127682261Y-137207323D01*
X127683967Y-137203007D01*
X127712071Y-137135593D01*
X127713929Y-137131357D01*
X127744426Y-137065155D01*
X127746435Y-137060997D01*
X127779294Y-136996043D01*
X127781447Y-136991973D01*
X127816644Y-136928287D01*
X127818942Y-136924303D01*
X127856382Y-136862040D01*
X127858808Y-136858167D01*
X127898522Y-136797270D01*
X127901087Y-136793490D01*
X127926021Y-136758142D01*
X127942944Y-136734149D01*
X127945647Y-136730461D01*
X127949409Y-136725521D01*
X127989663Y-136672654D01*
X127992506Y-136669058D01*
X128009019Y-136648937D01*
X128038596Y-136612897D01*
X128041558Y-136609420D01*
X128089700Y-136554937D01*
X128092796Y-136551559D01*
X128142917Y-136498848D01*
X128146132Y-136495589D01*
X128198216Y-136444678D01*
X128201577Y-136441511D01*
X128255526Y-136392511D01*
X128258980Y-136389489D01*
X128304127Y-136351413D01*
X128314802Y-136342410D01*
X128318406Y-136339482D01*
X128376025Y-136294414D01*
X128379742Y-136291616D01*
X128439151Y-136248586D01*
X128442984Y-136245917D01*
X128504066Y-136205039D01*
X128507991Y-136202516D01*
X128570813Y-136163773D01*
X128574858Y-136161382D01*
X128639310Y-136124879D01*
X128643457Y-136122631D01*
X128709528Y-136088412D01*
X128713762Y-136086319D01*
X128722812Y-136082055D01*
X128781461Y-136054420D01*
X128785784Y-136052482D01*
X128854967Y-136023012D01*
X128859379Y-136021230D01*
X128865250Y-136018987D01*
X128915270Y-135999878D01*
X128925586Y-135996440D01*
X128969656Y-135983845D01*
X128977248Y-135979055D01*
X129016299Y-135954416D01*
X129022333Y-135950840D01*
X129062704Y-135928408D01*
X129070547Y-135924050D01*
X129076853Y-135917665D01*
X129081128Y-135914419D01*
X129085248Y-135910912D01*
X129092843Y-135906120D01*
X129129372Y-135864759D01*
X129134132Y-135859664D01*
X129172895Y-135820411D01*
X129177157Y-135812509D01*
X129180369Y-135808167D01*
X129183321Y-135803673D01*
X129189263Y-135796945D01*
X129212711Y-135747003D01*
X129215865Y-135740745D01*
X129237778Y-135700119D01*
X129237779Y-135700117D01*
X129242042Y-135692213D01*
X129243917Y-135683424D01*
X129245780Y-135678357D01*
X129247349Y-135673226D01*
X129251166Y-135665096D01*
X129252547Y-135656228D01*
X129252548Y-135656224D01*
X129259652Y-135610594D01*
X129260925Y-135603690D01*
X129272430Y-135549760D01*
X129268733Y-135500115D01*
X129268385Y-135490758D01*
X129268385Y-135396600D01*
X129268457Y-135394454D01*
X129268765Y-135392331D01*
X129268392Y-135355966D01*
X129268385Y-135354674D01*
X129268385Y-135321421D01*
X129268083Y-135319312D01*
X129267994Y-135317120D01*
X129267626Y-135281294D01*
X129286927Y-135212972D01*
X129340102Y-135165930D01*
X129393619Y-135154000D01*
X170423466Y-135154000D01*
X170491587Y-135174002D01*
G37*
%TD.AperFunction*%
%TD*%
M02*
